<?xml version="1.0" encoding="UTF-8"?>
<svg version="1.1" xmlns="http://www.w3.org/2000/svg" width="172" height="82">
<path d="M0 0 C13 0 13 0 16.3125 2.5 C16.869375 3.325 17.42625 4.15 18 5 C18.639375 4.175 19.27875 3.35 19.9375 2.5 C23.61224012 -0.49978785 25.35372902 -0.50339011 29.9140625 -0.37109375 C32 0 32 0 35 2 C35 2.99 35 3.98 35 5 C33.01432292 4.70703125 31.02864583 4.4140625 29.04296875 4.12109375 C26.7974658 3.86095201 26.7974658 3.86095201 24 5 C24.28115454 8.40314146 24.62092837 9.67160288 27.25 11.94921875 C28.61125 12.80966797 28.61125 12.80966797 30 13.6875 C34.91954023 16.83908046 34.91954023 16.83908046 36 19 C36.36849051 22.39011269 36.35014495 24.36640438 34.6875 27.375 C30.46023198 29.93102252 25.81582729 29.8161173 21 29 C19.16015625 27.47265625 19.16015625 27.47265625 18 26 C21.62145594 23.63212496 23.87102012 24.20934428 28 25 C28.99 24.67 29.98 24.34 31 24 C30.75270995 20.37942004 30.25387196 19.22694014 27.49609375 16.76171875 C26.48675781 16.07722656 25.47742188 15.39273438 24.4375 14.6875 C22.91962891 13.64142578 22.91962891 13.64142578 21.37109375 12.57421875 C20.58863281 12.05472656 19.80617188 11.53523438 19 11 C18.38125 11.969375 17.7625 12.93875 17.125 13.9375 C15 17 15 17 13 18 C9.99525503 18.13559318 7.00931153 18.04299016 4 18 C4 21.63 4 25.26 4 29 C2.68 29 1.36 29 0 29 C0 19.43 0 9.86 0 0 Z M4 4 C4 7.3 4 10.6 4 14 C8.0100934 14.17864631 8.0100934 14.17864631 12 14 C14.39564928 12.05032721 14.39564928 12.05032721 14.1875 8.4375 C14.39287806 5.17036305 14.39287806 5.17036305 13 4 C9.99668982 3.85806663 7.00782866 3.95763622 4 4 Z " fill="#CE6441" transform="translate(65,23)"/>
<path d="M0 0 C4.62 0 9.24 0 14 0 C18.78723404 4.78723404 18.78723404 4.78723404 19 10 C18.3125 12.75 18.3125 12.75 17 15 C14.91796875 16.140625 14.91796875 16.140625 13 17 C13.37253906 17.61488281 13.74507812 18.22976562 14.12890625 18.86328125 C14.60199219 19.67152344 15.07507812 20.47976562 15.5625 21.3125 C16.03816406 22.11300781 16.51382813 22.91351563 17.00390625 23.73828125 C18 26 18 26 17 29 C16.01 29 15.02 29 14 29 C13.16151196 27.54462432 12.32936066 26.08559627 11.5 24.625 C11.0359375 23.81289063 10.571875 23.00078125 10.09375 22.1640625 C9 20 9 20 9 18 C7.35 18 5.7 18 4 18 C4 21.63 4 25.26 4 29 C2.68 29 1.36 29 0 29 C0 19.43 0 9.86 0 0 Z M4 4 C4 7.3 4 10.6 4 14 C6.97 14 9.94 14 13 14 C14.2086563 11.20898563 14.2086563 11.20898563 15 8 C14.34 6.68 13.68 5.36 13 4 C10.03 4 7.06 4 4 4 Z " fill="#D1623F" transform="translate(44,23)"/>
<path d="M0 0 C1.43655854 -0.08131463 2.8744483 -0.13933559 4.3125 -0.1875 C5.51326172 -0.23970703 5.51326172 -0.23970703 6.73828125 -0.29296875 C9 0 9 0 10.74609375 1.3671875 C12.45287506 3.58972515 12.74081873 5.21380133 13 8 C12.814375 8.94875 12.62875 9.8975 12.4375 10.875 C11.75284116 14.09717006 11.75284116 14.09717006 13.125 17.4375 C14.29463649 22.19959142 13.35572463 23.79334887 11 28 C6.73840618 30.13079691 0.59236298 29.04502317 -4 29 C-4.33 20.75 -4.66 12.5 -5 4 C-3.68 3.34 -2.36 2.68 -1 2 C-0.67 1.34 -0.34 0.68 0 0 Z M-1 3 C-0.67 5.64 -0.34 8.28 0 11 C2.31 11 4.62 11 7 11 C8.10636395 8.60931266 8.10636395 8.60931266 9 6 C8.67 5.34 8.34 4.68 8 4 C5.87423218 3.53348793 5.87423218 3.53348793 3.4375 3.375 C2.61121094 3.30023437 1.78492188 3.22546875 0.93359375 3.1484375 C0.29550781 3.09945313 -0.34257812 3.05046875 -1 3 Z M0 15 C0 18.3 0 21.6 0 25 C1.918125 25.0928125 1.918125 25.0928125 3.875 25.1875 C4.59429688 25.22230469 5.31359375 25.25710937 6.0546875 25.29296875 C6.69664063 25.19628906 7.33859375 25.09960938 8 25 C10.35014158 22.162422 10.35014158 22.162422 9.6875 18.875 C9.29355679 16.11913578 9.29355679 16.11913578 8 15 C5.32941149 14.85884839 2.67567762 14.95752893 0 15 Z " fill="#DC5930" transform="translate(9,23)"/>
<path d="M0 0 C7.26 0 14.52 0 22 0 C21.67 1.32 21.34 2.64 21 4 C19.02 4 17.04 4 15 4 C15 12.25 15 20.5 15 29 C13.68 29 12.36 29 11 29 C11 20.75 11 12.5 11 4 C9.02 4 7.04 4 5 4 C4.67 11.92 4.34 19.84 4 28 C2.68 28.33 1.36 28.66 0 29 C0 19.43 0 9.86 0 0 Z " fill="#303030" transform="translate(123,23)"/>
<path d="M0 0 C1.32 0.33 2.64 0.66 4 1 C4.33 8.26 4.66 15.52 5 23 C7.475 23.99 7.475 23.99 10 25 C10.99 24.34 11.98 23.68 13 23 C13.50904384 20.5842887 13.50904384 20.5842887 13.51171875 17.7734375 C13.54716797 16.7421875 13.58261719 15.7109375 13.61914062 14.6484375 C13.65297852 13.02808594 13.65297852 13.02808594 13.6875 11.375 C13.72166016 10.28703125 13.75582031 9.1990625 13.79101562 8.078125 C13.87368334 5.38551937 13.94277087 2.69324709 14 0 C15.32 0.33 16.64 0.66 18 1 C18.08741124 4.56234428 18.14052896 8.12441108 18.1875 11.6875 C18.21263672 12.69490234 18.23777344 13.70230469 18.26367188 14.74023438 C18.35673244 24.13935131 18.35673244 24.13935131 15 28 C11.84203893 29.57898053 8.39329364 29.81928171 5 29 C2.2578125 27.24609375 2.2578125 27.24609375 0 24 C-0.61359932 19.87909266 -0.47032588 15.84196274 -0.3125 11.6875 C-0.28994141 10.56537109 -0.26738281 9.44324219 -0.24414062 8.28710938 C-0.18533776 5.52337464 -0.10320401 2.76237446 0 0 Z " fill="#D45F3A" transform="translate(24,23)"/>
<path d="M0 0 C4.62 0 9.24 0 14 0 C14 1.32 14 2.64 14 4 C10.7 4 7.4 4 4 4 C4 6.31 4 8.62 4 11 C6.31 11 8.62 11 11 11 C11 12.32 11 13.64 11 15 C8.69 15 6.38 15 4 15 C4 18.3 4 21.6 4 25 C6.165625 24.9690625 6.165625 24.9690625 8.375 24.9375 C12.75 24.875 12.75 24.875 15 26 C14.67 26.99 14.34 27.98 14 29 C9.38 29 4.76 29 0 29 C0 19.43 0 9.86 0 0 Z " fill="#353536" transform="translate(146,23)"/>
<path d="M0 0 C0.99 0 1.98 0 3 0 C3.02505615 0.61520508 3.0501123 1.23041016 3.07592773 1.86425781 C3.19218487 4.65970156 3.31477642 7.45483298 3.4375 10.25 C3.47681641 11.21808594 3.51613281 12.18617187 3.55664062 13.18359375 C3.59853516 14.11816406 3.64042969 15.05273438 3.68359375 16.015625 C3.72025146 16.87446289 3.75690918 17.73330078 3.79467773 18.61816406 C3.98703514 20.84960143 4.38846244 22.84982524 5 25 C7.3431213 24.74438677 9.67843403 24.40729228 12 24 C13.23060421 21.53879159 13.2057723 19.74223134 13.31640625 16.9921875 C13.35830078 16.00605469 13.40019531 15.01992188 13.44335938 14.00390625 C13.48267578 12.97136719 13.52199219 11.93882813 13.5625 10.875 C13.60568359 9.83472656 13.64886719 8.79445313 13.69335938 7.72265625 C13.7996288 5.14857472 13.90166583 2.57439492 14 0 C15.32 0.33 16.64 0.66 18 1 C18.08745946 4.3956697 18.14054444 7.79104773 18.1875 11.1875 C18.21263672 12.14720703 18.23777344 13.10691406 18.26367188 14.09570312 C18.35554063 22.94572693 18.35554063 22.94572693 15 27 C12.47206088 29.52793912 10.62785835 29.35113422 7.16796875 29.55859375 C3.42805062 28.5949752 2.21065805 27.17447437 0 24 C-0.6136531 19.8791096 -0.4703254 15.84195018 -0.3125 11.6875 C-0.28994141 10.56537109 -0.26738281 9.44324219 -0.24414062 8.28710938 C-0.18533776 5.52337464 -0.10320401 2.76237446 0 0 Z " fill="#2D2D2E" transform="translate(103,23)"/>
<path d="M0 0 C0.78246094 -0.01417969 1.56492187 -0.02835938 2.37109375 -0.04296875 C4.5625 0.1875 4.5625 0.1875 7.5625 2.1875 C7.5625 3.1775 7.5625 4.1675 7.5625 5.1875 C5.57682292 4.89453125 3.59114583 4.6015625 1.60546875 4.30859375 C-0.6400342 4.04845201 -0.6400342 4.04845201 -3.4375 5.1875 C-3.15634546 8.59064146 -2.81657163 9.85910288 -0.1875 12.13671875 C0.72 12.71035156 1.6275 13.28398438 2.5625 13.875 C7.48204023 17.02658046 7.48204023 17.02658046 8.5625 19.1875 C8.93099051 22.57761269 8.91264495 24.55390438 7.25 27.5625 C3.02273198 30.11852252 -1.62167271 30.0036173 -6.4375 29.1875 C-8.27734375 27.66015625 -8.27734375 27.66015625 -9.4375 26.1875 C-5.81604406 23.81962496 -3.56647988 24.39684428 0.5625 25.1875 C1.5525 24.8575 2.5425 24.5275 3.5625 24.1875 C3.48286373 21.82131116 3.48286373 21.82131116 2.5625 19.1875 C0.08802039 16.99368653 0.08802039 16.99368653 -2.9375 15.125 C-8.20788325 11.69517585 -8.20788325 11.69517585 -9.36328125 9.140625 C-9.48373289 5.97084507 -8.03353875 3.84756458 -6.4375 1.1875 C-4.0978331 0.01766655 -2.60358473 0.0213759 0 0 Z " fill="#2A2C2D" transform="translate(92.4375,22.8125)"/>
<path d="M0 0 C2.64 0 5.28 0 8 0 C8 1.32 8 2.64 8 4 C5.69 4 3.38 4 1 4 C1 7.3 1 10.6 1 14 C2.44375 13.979375 3.8875 13.95875 5.375 13.9375 C9.75 13.875 9.75 13.875 12 15 C11.67 15.99 11.34 16.98 11 18 C6.38 18 1.76 18 -3 18 C-2.67 16.68 -2.34 15.36 -2 14 C-2 14.99 -2 15.98 -2 17 C-1.34 16.67 -0.68 16.34 0 16 C-0.33 15.34 -0.66 14.68 -1 14 C-1.09611752 12.37731009 -1.12982352 10.75052694 -1.125 9.125 C-1.12757813 8.26132812 -1.13015625 7.39765625 -1.1328125 6.5078125 C-1.01023921 4.19334029 -0.64966445 2.21710884 0 0 Z " fill="#242425" transform="translate(149,34)"/>
<path d="M0 0 C1.43655854 -0.08131463 2.8744483 -0.13933559 4.3125 -0.1875 C5.51326172 -0.23970703 5.51326172 -0.23970703 6.73828125 -0.29296875 C9 0 9 0 10.74609375 1.37109375 C13.32297541 4.71863161 13.03096078 7.73019888 12.5625 11.8125 C12.376875 12.864375 12.19125 13.91625 12 15 C11.34 15 10.68 15 10 15 C10 14.01 10 13.02 10 12 C6.7 12 3.4 12 0 12 C0 11.67 0 11.34 0 11 C3.465 10.505 3.465 10.505 7 10 C7.33 8.02 7.66 6.04 8 4 C5.03 3.67 2.06 3.34 -1 3 C-0.67 2.01 -0.34 1.02 0 0 Z " fill="#CE5B30" transform="translate(9,23)"/>
<path d="M0 0 C1.9375 0.6875 1.9375 0.6875 4 2 C4.75 4.625 4.75 4.625 5 7 C5.33 5.35 5.66 3.7 6 2 C6.33 2 6.66 2 7 2 C7.30375856 5.34134421 7.32796316 7.40654286 5.6875 10.375 C1.46023198 12.93102252 -3.18417271 12.8161173 -8 12 C-9.83984375 10.47265625 -9.83984375 10.47265625 -11 9 C-7.37854406 6.63212496 -5.12897988 7.20934428 -1 8 C-0.01 7.67 0.98 7.34 2 7 C1.34414811 3.39007621 1.34414811 3.39007621 0 0 Z " fill="#1F2124" transform="translate(94,40)"/>
<path d="M0 0 C0.99 0 1.98 0 3 0 C3.02505615 0.62044189 3.0501123 1.24088379 3.07592773 1.88012695 C3.19196721 4.69112397 3.31465759 7.50179241 3.4375 10.3125 C3.47681641 11.28896484 3.51613281 12.26542969 3.55664062 13.27148438 C3.59853516 14.20927734 3.64042969 15.14707031 3.68359375 16.11328125 C3.72025146 16.97735596 3.75690918 17.84143066 3.79467773 18.73168945 C3.92747354 21.1647826 3.92747354 21.1647826 5 24 C3.35 24 1.7 24 0 24 C0 16.08 0 8.16 0 0 Z " fill="#272728" transform="translate(103,23)"/>
<path d="M0 0 C0.99 0 1.98 0 3 0 C3 7.92 3 15.84 3 24 C2.34 24 1.68 24 1 24 C-0.25248502 21.49502996 -0.11374406 19.79146726 -0.09765625 16.9921875 C-0.09443359 16.00605469 -0.09121094 15.01992188 -0.08789062 14.00390625 C-0.07951172 12.97136719 -0.07113281 11.93882813 -0.0625 10.875 C-0.05798828 9.83472656 -0.05347656 8.79445313 -0.04882812 7.72265625 C-0.03701952 5.14838038 -0.02055075 2.57421854 0 0 Z " fill="#DD572D" transform="translate(25,24)"/>
<path d="M0 0 C0.33 0 0.66 0 1 0 C1.08139142 2.39652528 1.14067009 4.79025436 1.1875 7.1875 C1.21263672 7.86103516 1.23777344 8.53457031 1.26367188 9.22851562 C1.32853613 13.66090637 0.90460371 16.57858617 -2 20 C-6.29076011 20.54485843 -8.6884824 20.68854674 -12.5 18.6875 C-14 17 -14 17 -14 14 C-13.38511719 14.17917969 -12.77023438 14.35835937 -12.13671875 14.54296875 C-11.32847656 14.75566406 -10.52023438 14.96835937 -9.6875 15.1875 C-8.88699219 15.40792969 -8.08648437 15.62835938 -7.26171875 15.85546875 C-4.91761384 16.271223 -4.91761384 16.271223 -3.33203125 14.55078125 C-2.89246094 14.03902344 -2.45289062 13.52726562 -2 13 C-1.34 13 -0.68 13 0 13 C0 8.71 0 4.42 0 0 Z " fill="#2E2F30" transform="translate(118,32)"/>
<path d="M0 0 C0.99 0.495 0.99 0.495 2 1 C2.4140625 3.50390625 2.4140625 3.50390625 2.625 6.5625 C2.69976562 7.57441406 2.77453125 8.58632813 2.8515625 9.62890625 C2.92503906 10.80259766 2.92503906 10.80259766 3 12 C4.32 12.33 5.64 12.66 7 13 C7 13.66 7 14.32 7 15 C5.68 15 4.36 15 3 15 C2.67 18.63 2.34 22.26 2 26 C1.34 26 0.68 26 0 26 C0 17.42 0 8.84 0 0 Z " fill="#E4572D" transform="translate(45,25)"/>
<path d="M0 0 C4.62 0 9.24 0 14 0 C13.67 0.99 13.34 1.98 13 3 C9.37 3 5.74 3 2 3 C2 6.3 2 9.6 2 13 C1.34 13 0.68 13 0 13 C0 8.71 0 4.42 0 0 Z " fill="#D35F36" transform="translate(66,24)"/>
<path d="M0 0 C0.78246094 -0.01417969 1.56492187 -0.02835938 2.37109375 -0.04296875 C4.5625 0.1875 4.5625 0.1875 7.5625 2.1875 C7.5625 3.1775 7.5625 4.1675 7.5625 5.1875 C6.345625 4.98125 5.12875 4.775 3.875 4.5625 C0.21443227 4.08786156 -2.11361512 4.42168616 -5.4375 6.1875 C-5.4375 5.1975 -5.4375 4.2075 -5.4375 3.1875 C-6.0975 5.1675 -6.7575 7.1475 -7.4375 9.1875 C-8.0975 8.5275 -8.7575 7.8675 -9.4375 7.1875 C-6.89176804 1.74889081 -6.04024268 0.04959148 0 0 Z " fill="#292727" transform="translate(92.4375,22.8125)"/>
<path d="M0 0 C4.95 0 9.9 0 15 0 C14.67 1.32 14.34 2.64 14 4 C13.05125 4.12375 12.1025 4.2475 11.125 4.375 C7.91332809 4.71687177 7.91332809 4.71687177 6 7 C5.67 6.01 5.34 5.02 5 4 C1.99152582 2.77479736 1.99152582 2.77479736 -1 2 C-0.67 1.34 -0.34 0.68 0 0 Z " fill="#3B3B3B" transform="translate(130,23)"/>
<path d="M0 0 C0.33 0 0.66 0 1 0 C1 6.93 1 13.86 1 21 C4.63 21 8.26 21 12 21 C12 20.34 12 19.68 12 19 C11.34 18.67 10.68 18.34 10 18 C11.32 17.01 12.64 16.02 14 15 C14 15.99 14 16.98 14 18 C14.66 18 15.32 18 16 18 C15 21 15 21 13 22 C8.66396021 22.1393329 4.33919329 22.04254111 0 22 C0 14.74 0 7.48 0 0 Z " fill="#CA6846" transform="translate(5,30)"/>
<path d="M0 0 C1.41623216 -0.05447047 2.83308191 -0.09300508 4.25 -0.125 C5.03890625 -0.14820313 5.8278125 -0.17140625 6.640625 -0.1953125 C9.25310046 0.02095203 10.8090167 0.5751289 13 2 C14.13531135 5.3186024 14.10336858 7.68989426 13 11 C12.01 11 11.02 11 10 11 C9.34 8.03 8.68 5.06 8 2 C5.36 1.67 2.72 1.34 0 1 C0 0.67 0 0.34 0 0 Z " fill="#D15D36" transform="translate(9,37)"/>
<path d="M0 0 C1.43655854 -0.08131463 2.8744483 -0.13933559 4.3125 -0.1875 C5.51326172 -0.23970703 5.51326172 -0.23970703 6.73828125 -0.29296875 C9.47851584 0.06198392 10.29171079 0.89366282 12 3 C11.67 3.66 11.34 4.32 11 5 C10.67 4.67 10.34 4.34 10 4 C9.34 4.66 8.68 5.32 8 6 C8 5.34 8 4.68 8 4 C5.03 3.67 2.06 3.34 -1 3 C-0.67 2.01 -0.34 1.02 0 0 Z " fill="#C15F3B" transform="translate(9,23)"/>
<path d="M0 0 C1.32 0.33 2.64 0.66 4 1 C3.67 1.99 3.34 2.98 3 4 C-0.3 4 -3.6 4 -7 4 C-7 5.98 -7 7.96 -7 10 C-7.66 10 -8.32 10 -9 10 C-9 8.02 -9 6.04 -9 4 C-6.03 3.01 -3.06 2.02 0 1 C0 0.67 0 0.34 0 0 Z " fill="#292929" transform="translate(157,23)"/>
<path d="M0 0 C0.33 0 0.66 0 1 0 C1.10826289 2.4178712 1.18739789 4.83087556 1.25 7.25 C1.28351563 7.93191406 1.31703125 8.61382812 1.3515625 9.31640625 C1.41984243 12.83282253 1.26749128 14.64850319 -0.890625 17.484375 C-3 19 -3 19 -5 19 C-5 16 -5 16 -3.625 14.3125 C-2 13 -2 13 0 13 C0 8.71 0 4.42 0 0 Z " fill="#393939" transform="translate(118,32)"/>
<path d="M0 0 C1.41623216 -0.05447047 2.83308191 -0.09300508 4.25 -0.125 C5.03890625 -0.14820312 5.8278125 -0.17140625 6.640625 -0.1953125 C9 0 9 0 13 2 C9.7 2 6.4 2 3 2 C3 5.63 3 9.26 3 13 C2.67 13 2.34 13 2 13 C1.93941406 12.22914062 1.87882812 11.45828125 1.81640625 10.6640625 C1.73261719 9.66117188 1.64882813 8.65828125 1.5625 7.625 C1.48128906 6.62726562 1.40007813 5.62953125 1.31640625 4.6015625 C1.15034374 2.02072387 1.15034374 2.02072387 0 0 Z " fill="#DB603C" transform="translate(45,24)"/>
<path d="M0 0 C3.3 0 6.6 0 10 0 C9.67 1.32 9.34 2.64 9 4 C7.02 4 5.04 4 3 4 C3 3.34 3 2.68 3 2 C2.01 1.34 1.02 0.68 0 0 Z " fill="#313131" transform="translate(135,23)"/>
<path d="M0 0 C0.99773437 0.02320312 1.99546875 0.04640625 3.0234375 0.0703125 C4.52777344 0.09738281 4.52777344 0.09738281 6.0625 0.125 C6.83335938 0.14820312 7.60421875 0.17140625 8.3984375 0.1953125 C8.0684375 1.1853125 7.7384375 2.1753125 7.3984375 3.1953125 C3.4384375 2.8653125 -0.5215625 2.5353125 -4.6015625 2.1953125 C-2.6015625 0.1953125 -2.6015625 0.1953125 0 0 Z " fill="#DA5A2A" transform="translate(71.6015625,23.8046875)"/>
<path d="M0 0 C0.66 0.33 1.32 0.66 2 1 C1.814375 1.7425 1.62875 2.485 1.4375 3.25 C1.00796892 5.94990963 1.14877026 7.44631077 2 10 C0.35 9.67 -1.3 9.34 -3 9 C-2.69181644 7.68647977 -2.37832335 6.37420428 -2.0625 5.0625 C-1.88847656 4.33160156 -1.71445313 3.60070312 -1.53515625 2.84765625 C-1 1 -1 1 0 0 Z " fill="#383433" transform="translate(87,25)"/>
<path d="M0 0 C2.1519437 3.22791555 2.20086443 4.28400809 2 8 C1.34 8 0.68 8 0 8 C-0.99 5.69 -1.98 3.38 -3 1 C-2.01 0.67 -1.02 0.34 0 0 Z " fill="#C24A29" transform="translate(7,26)"/>
<path d="M0 0 C0.66 0.66 1.32 1.32 2 2 C1.98252112 4.59269983 1.86231408 7.0525154 1.625 9.625 C1.56828125 10.33140625 1.5115625 11.0378125 1.453125 11.765625 C1.31159079 13.51121361 1.15702613 15.25573673 1 17 C0.67 17 0.34 17 0 17 C-0.19386492 14.35448944 -0.38038267 11.70882217 -0.5625 9.0625 C-0.61857422 8.30775391 -0.67464844 7.55300781 -0.73242188 6.77539062 C-0.86176157 4.85254042 -0.93516912 2.92610452 -1 1 C-0.67 0.67 -0.34 0.34 0 0 Z " fill="#3D3D3E" transform="translate(124,24)"/>
<path d="M0 0 C0 0.66 0 1.32 0 2 C-2.97 2 -5.94 2 -9 2 C-9 1.34 -9 0.68 -9 0 C-3.375 -1.125 -3.375 -1.125 0 0 Z " fill="#EC5623" transform="translate(17,49)"/>
<path d="M0 0 C2.31 0.33 4.62 0.66 7 1 C7 1.66 7 2.32 7 3 C4.36 3 1.72 3 -1 3 C-0.67 2.01 -0.34 1.02 0 0 Z " fill="#B33D1F" transform="translate(9,23)"/>
</svg>
