<?xml version="1.0" standalone="no"?>
<!DOCTYPE svg PUBLIC "-//W3C//DTD SVG 20010904//EN"
 "http://www.w3.org/TR/2001/REC-SVG-20010904/DTD/svg10.dtd">
<svg version="1.0" xmlns="http://www.w3.org/2000/svg"
 width="1792.000000pt" height="843.000000pt" viewBox="0 0 1792.000000 843.000000"
 preserveAspectRatio="xMidYMid meet">
<metadata>
Created by potrace 1.16, written by Peter Selinger 2001-2019
</metadata>
<g transform="translate(0.000000,843.000000) scale(0.100000,-0.100000)"
fill="#000000" stroke="none">
<path d="M0 4215 l0 -4215 8960 0 8960 0 0 4215 0 4215 -8960 0 -8960 0 0
-4215z m9031 3425 c26 -19 27 -19 60 6 35 26 78 31 111 13 26 -14 45 -61 54
-137 l7 -62 39 0 c45 0 143 -32 169 -56 14 -12 16 -21 9 -30 -13 -15 -155 -54
-198 -54 -25 0 -32 -4 -32 -20 0 -17 8 -19 72 -22 39 -2 73 -8 75 -13 2 -6
-19 -37 -47 -70 -27 -33 -50 -65 -50 -71 0 -7 12 -15 28 -19 50 -12 101 -56
128 -110 31 -64 30 -108 -3 -113 -20 -3 -23 1 -23 31 0 18 -10 53 -23 77 -31
58 -80 84 -174 88 l-72 4 -40 -63 c-29 -45 -41 -75 -41 -101 0 -30 -4 -38 -19
-38 -14 0 -20 10 -25 42 -4 23 -23 68 -43 101 l-36 59 -72 -4 c-122 -8 -186
-57 -201 -154 -5 -34 -10 -44 -25 -44 -42 0 -11 128 42 177 13 12 46 32 72 43
53 24 53 21 -10 96 -63 75 -59 84 32 84 68 0 75 2 75 20 0 16 -7 20 -32 20
-39 0 -144 24 -182 41 -14 7 -26 18 -26 26 0 21 101 64 165 70 61 6 58 1 75
110 6 40 17 76 23 81 30 25 97 21 138 -8z m-6898 -1690 c25 -28 28 -39 24 -72
-3 -22 -13 -48 -23 -59 -39 -43 -139 -43 -178 0 -29 32 -32 91 -6 124 30 38
56 48 110 43 35 -3 51 -11 73 -36z m-323 -65 l0 -75 -210 0 -210 0 0 -119 0
-118 53 -7 c28 -3 105 -6 170 -6 l117 0 0 -70 0 -70 -170 0 -170 0 0 -195 0
-195 -95 0 -95 0 0 458 c0 252 3 462 7 465 3 4 141 7 305 7 l298 0 0 -75z
m1470 -320 l0 -395 200 0 200 0 0 -70 0 -70 -295 0 -295 0 0 458 c0 252 3 462
7 465 3 4 46 7 95 7 l88 0 0 -395z m1590 225 l0 -90 90 0 91 0 -3 -77 -3 -78
-88 -3 -88 -3 3 -159 c4 -191 3 -190 107 -198 l71 -5 0 -73 0 -74 -92 0 c-110
0 -156 11 -199 47 -60 51 -69 87 -69 285 l0 177 -57 3 -58 3 -3 78 -3 77 60 0
59 0 7 83 c4 45 9 85 12 90 2 4 40 7 84 7 l79 0 0 -90z m-555 -112 c61 -32 87
-59 114 -118 19 -41 21 -65 21 -287 l0 -243 -79 0 -79 0 -6 45 -7 45 -26 -30
c-45 -54 -97 -74 -193 -74 -94 0 -141 17 -193 71 -70 74 -59 208 22 276 50 42
118 57 258 57 92 0 123 3 123 13 0 35 -24 88 -47 107 -53 41 -180 16 -198 -39
-6 -19 -14 -21 -96 -21 -78 0 -89 2 -89 18 1 36 39 99 83 138 66 59 121 74
242 71 85 -3 108 -7 150 -29z m-2175 -313 l0 -335 -95 0 -95 0 0 335 0 335 95
0 95 0 0 -335z m394 225 c43 -61 81 -108 85 -106 4 3 41 53 81 111 l74 105 98
0 c77 0 97 -3 92 -12 -5 -7 -58 -83 -120 -169 l-112 -157 85 -118 c47 -66 101
-140 120 -166 l35 -48 -101 0 -100 0 -77 111 c-42 61 -80 107 -84 102 -4 -4
-39 -54 -79 -110 l-72 -103 -100 0 -101 0 35 48 c19 26 73 101 121 166 l86
119 -24 31 c-31 42 -200 278 -210 294 -5 9 15 12 92 12 l99 0 77 -110z"/>
<path d="M8926 7622 c-3 -5 -8 -28 -12 -50 l-7 -42 147 0 146 0 0 38 c0 21 -5
43 -12 50 -17 17 -54 15 -72 -3 -35 -35 -106 -35 -120 1 -6 15 -61 20 -70 6z"/>
<path d="M8743 7408 c-18 -6 -33 -14 -33 -18 0 -9 36 -24 100 -42 100 -28 512
-5 583 33 22 12 22 12 -8 25 -38 16 -593 18 -642 2z"/>
<path d="M8843 7243 c-29 -2 -53 -7 -53 -10 0 -3 19 -30 41 -60 37 -48 45 -53
80 -53 l39 0 0 65 c0 74 14 66 -107 58z"/>
<path d="M9165 7231 c-3 -11 -3 -41 1 -66 6 -43 8 -45 39 -45 27 0 40 9 76 51
57 66 57 69 16 69 -19 0 -55 3 -80 6 -40 6 -46 4 -52 -15z"/>
<path d="M4070 5303 c-52 -19 -69 -93 -30 -128 28 -25 105 -25 142 -1 31 20
62 67 72 109 l6 27 -87 -1 c-49 0 -95 -3 -103 -6z"/>
</g>
</svg>
