<?xml version="1.0" encoding="UTF-8"?>
<svg version="1.1" xmlns="http://www.w3.org/2000/svg" width="192" height="149">
<path d="M0 0 C4.95 0 9.9 0 15 0 C15 7.92 15 15.84 15 24 C19.29 24 23.58 24 28 24 C28 16.08 28 8.16 28 0 C33.28 0 38.56 0 44 0 C44 21.78 44 43.56 44 66 C38.72 66 33.44 66 28 66 C28 57.09 28 48.18 28 39 C23.71 39 19.42 39 15 39 C15 47.91 15 56.82 15 66 C10.05 66 5.1 66 0 66 C0 44.22 0 22.44 0 0 Z " fill="#040707" transform="translate(137,42)"/>
<path d="M0 0 C10.23 0 20.46 0 31 0 C31 4.95 31 9.9 31 15 C26.05 15 21.1 15 16 15 C16 18.63 16 22.26 16 26 C20.29 26 24.58 26 29 26 C29 30.62 29 35.24 29 40 C24.71 40 20.42 40 16 40 C16 43.63 16 47.26 16 51 C20.95 51 25.9 51 31 51 C31 55.95 31 60.9 31 66 C20.77 66 10.54 66 0 66 C0 44.22 0 22.44 0 0 Z " fill="#040707" transform="translate(88,42)"/>
<path d="M0 0 C1.11761719 0.00644531 2.23523438 0.01289062 3.38671875 0.01953125 C6.3125 0.1875 6.3125 0.1875 9.3125 1.1875 C9.3125 6.7975 9.3125 12.4075 9.3125 18.1875 C7.023125 17.8471875 7.023125 17.8471875 4.6875 17.5 C-0.014155 17.04842862 -2.76894521 17.29523337 -6.6875 20.1875 C-11.46654671 26.25818096 -12.38148171 31.6404489 -11.6875 39.1875 C-10.49320454 44.18422143 -8.76398672 47.90001071 -4.6875 51.1875 C-1.92297967 52.56976016 0.3586363 52.28275387 3.4375 52.25 C5.37625 52.229375 7.315 52.20875 9.3125 52.1875 C9.3125 57.4675 9.3125 62.7475 9.3125 68.1875 C1.37688018 70.45481995 -5.27229737 71.01556215 -12.9375 67.5625 C-20.80106439 63.08284651 -25.50406438 56.62551587 -28.37109375 48.171875 C-31.35181187 37.07126959 -30.76724198 25.0038281 -25.43359375 14.78515625 C-19.50415107 5.07508799 -11.53180769 -0.14732855 0 0 Z " fill="#040707" transform="translate(45.6875,39.8125)"/>
<path d="M0 0 C1.32 0 2.64 0 4 0 C4 44.88 4 89.76 4 136 C2.68 136 1.36 136 0 136 C0 91.12 0 46.24 0 0 Z " fill="#ED2A28" transform="translate(73,6)"/>
<path d="M0 0 C0 14.52 0 29.04 0 44 C-1.32 44 -2.64 44 -4 44 C-4 29.81 -4 15.62 -4 1 C-1 0 -1 0 0 0 Z " fill="#ED2A28" transform="translate(77,98)"/>
<path d="M0 0 C5.5255814 -0.1255814 5.5255814 -0.1255814 8.125 0.5625 C10.3857569 1.09000994 11.81515292 0.70227228 14 0 C14 0.99 14 1.98 14 3 C15.32 3.33 16.64 3.66 18 4 C18 6.31 18 8.62 18 11 C14.37 11 10.74 11 7 11 C6.67 10.01 6.34 9.02 6 8 C6 8.99 6 9.98 6 11 C4.02 11 2.04 11 0 11 C0 7.37 0 3.74 0 0 Z " fill="#040707" transform="translate(87,121)"/>
<path d="M0 0 C1.32 0 2.64 0 4 0 C4 12.54 4 25.08 4 38 C2.02 38.495 2.02 38.495 0 39 C0 26.13 0 13.26 0 0 Z " fill="#FBD9CA" transform="translate(73,60)"/>
<path d="M0 0 C1.32 0 2.64 0 4 0 C4 0.99 4 1.98 4 3 C3.01 3.495 3.01 3.495 2 4 C2.33 5.32 2.66 6.64 3 8 C3.99 6.35 4.98 4.7 6 3 C6.639375 3.185625 7.27875 3.37125 7.9375 3.5625 C8.618125 3.706875 9.29875 3.85125 10 4 C10.33 3.67 10.66 3.34 11 3 C12.66617115 2.95936168 14.33388095 2.957279 16 3 C15.33333333 5.66666667 14.66666667 8.33333333 14 11 C8.59770316 11.69707056 4.34933834 12.23446269 -1 11 C-2.89488952 9.10511048 -2.18019112 6.42860854 -2.23046875 3.91015625 C-2 2 -2 2 0 0 Z " fill="#040707" transform="translate(14,121)"/>
<path d="M0 0 C0.99 0 1.98 0 3 0 C3 3.63 3 7.26 3 11 C-2 12 -2 12 -4 11 C-4.66 11.165 -5.32 11.33 -6 11.5 C-8 12 -8 12 -10 11 C-10 8.69 -10 6.38 -10 4 C-6.57703036 3.25989846 -3.49869895 3 0 3 C0 2.01 0 1.02 0 0 Z " fill="#040707" transform="translate(59,121)"/>
<path d="M0 0 C0.99 0 1.98 0 3 0 C3.33 0.99 3.66 1.98 4 3 C5.299375 2.979375 6.59875 2.95875 7.9375 2.9375 C9.29165633 2.91600546 10.64756083 2.92851801 12 3 C13 4 13 4 13.0625 7.5625 C13.041875 8.696875 13.02125 9.83125 13 11 C8.46008133 12.40570876 4.66150364 11.61696372 0 11 C0 7.37 0 3.74 0 0 Z M6 5 C5.67 5.99 5.34 6.98 5 8 C5.66 8.66 6.32 9.32 7 10 C7 8.35 7 6.7 7 5 C6.67 5 6.34 5 6 5 Z " fill="#040707" transform="translate(161,121)"/>
<path d="M0 0 C1.5159375 0.0309375 1.5159375 0.0309375 3.0625 0.0625 C3.7225 0.0625 4.3825 0.0625 5.0625 0.0625 C6.0525 0.0625 7.0425 0.0625 8.0625 0.0625 C7.876875 0.64 7.69125 1.2175 7.5 1.8125 C7.02226454 4.26942525 7.30520636 5.70647534 8.0625 8.0625 C6.7425 8.0625 5.4225 8.0625 4.0625 8.0625 C2.2371875 8.3409375 2.2371875 8.3409375 0.375 8.625 C-1.2646875 8.8415625 -1.2646875 8.8415625 -2.9375 9.0625 C-3.9375 8.0625 -3.9375 8.0625 -4.0625 4.5625 C-3.90251901 0.08303232 -3.90251901 0.08303232 0 0 Z " fill="#040707" transform="translate(151.9375,123.9375)"/>
<path d="M0 0 C1.51400391 0.01740234 1.51400391 0.01740234 3.05859375 0.03515625 C4.07050781 0.04417969 5.08242187 0.05320312 6.125 0.0625 C7.29869141 0.07990234 7.29869141 0.07990234 8.49609375 0.09765625 C8.49609375 2.73765625 8.49609375 5.37765625 8.49609375 8.09765625 C-0.07533482 9.38337054 -0.07533482 9.38337054 -3.50390625 8.09765625 C-3.54632348 5.7647085 -3.54483562 3.43063058 -3.50390625 1.09765625 C-2.50390625 0.09765625 -2.50390625 0.09765625 0 0 Z M-0.50390625 3.09765625 C-0.17390625 4.08765625 0.15609375 5.07765625 0.49609375 6.09765625 C0.82609375 5.10765625 1.15609375 4.11765625 1.49609375 3.09765625 C0.83609375 3.09765625 0.17609375 3.09765625 -0.50390625 3.09765625 Z M4.49609375 3.09765625 C5.49609375 6.09765625 5.49609375 6.09765625 5.49609375 6.09765625 Z " fill="#040707" transform="translate(113.50390625,123.90234375)"/>
<path d="M0 0 C1.134375 0.020625 2.26875 0.04125 3.4375 0.0625 C3.4375 3.6925 3.4375 7.3225 3.4375 11.0625 C2.4475 11.0625 1.4575 11.0625 0.4375 11.0625 C0.4375 9.4125 0.4375 7.7625 0.4375 6.0625 C-0.2225 6.0625 -0.8825 6.0625 -1.5625 6.0625 C-1.5625 7.7125 -1.5625 9.3625 -1.5625 11.0625 C-2.5525 11.0625 -3.5425 11.0625 -4.5625 11.0625 C-4.58938151 9.41675434 -4.60884123 7.77088587 -4.625 6.125 C-4.63660156 5.20847656 -4.64820313 4.29195313 -4.66015625 3.34765625 C-4.49885955 -0.42668664 -3.92591522 0.06887571 0 0 Z " fill="#040707" transform="translate(44.5625,120.9375)"/>
<path d="M0 0 C0.99 0 1.98 0 3 0 C3 1.32 3 2.64 3 4 C3.66 4 4.32 4 5 4 C5 2.68 5 1.36 5 0 C5.99 0 6.98 0 8 0 C8 3.63 8 7.26 8 11 C7.01 11 6.02 11 5 11 C5 9.68 5 8.36 5 7 C4.34 7 3.68 7 3 7 C3 8.32 3 9.64 3 11 C2.01 11 1.02 11 0 11 C0 7.37 0 3.74 0 0 Z " fill="#040707" transform="translate(139,121)"/>
<path d="M0 0 C0.66 0 1.32 0 2 0 C2 3.63 2 7.26 2 11 C-0.31 11 -2.62 11 -5 11 C-6.125 3.25 -6.125 3.25 -5 1 C-4.01 1 -3.02 1 -2 1 C-1.67 1.33 -1.34 1.66 -1 2 C-0.67 1.34 -0.34 0.68 0 0 Z " fill="#040707" transform="translate(37,121)"/>
<path d="M0 0 C1.32 0 2.64 0 4 0 C4 5.28 4 10.56 4 16 C2.68 16.33 1.36 16.66 0 17 C0 11.39 0 5.78 0 0 Z " fill="#F27254" transform="translate(73,82)"/>
<path d="M0 0 C1.32 0 2.64 0 4 0 C4 3.63 4 7.26 4 11 C2.68 11 1.36 11 0 11 C0 7.37 0 3.74 0 0 Z " fill="#F37759" transform="translate(73,49)"/>
<path d="M0 0 C0.99 0 1.98 0 3 0 C3 3.63 3 7.26 3 11 C2.01 11 1.02 11 0 11 C0 7.37 0 3.74 0 0 Z " fill="#040707" transform="translate(123,121)"/>
<path d="M0 0 C0.99 0 1.98 0 3 0 C3 3.63 3 7.26 3 11 C2.01 11 1.02 11 0 11 C0 7.37 0 3.74 0 0 Z " fill="#040707" transform="translate(106,121)"/>
<path d="M0 0 C1.32 0 2.64 0 4 0 C4 2.64 4 5.28 4 8 C3.01 8.495 3.01 8.495 2 9 C1.34 8.67 0.68 8.34 0 8 C0 5.36 0 2.72 0 0 Z " fill="#F69E82" transform="translate(73,82)"/>
<path d="M0 0 C1.32 0 2.64 0 4 0 C4 2.64 4 5.28 4 8 C2.68 8 1.36 8 0 8 C0 5.36 0 2.72 0 0 Z " fill="#F8AB91" transform="translate(73,60)"/>
<path d="M0 0 C1.65 0 3.3 0 5 0 C5 0.99 5 1.98 5 3 C4.34 3 3.68 3 3 3 C3 4.65 3 6.3 3 8 C2.01 8 1.02 8 0 8 C0 5.36 0 2.72 0 0 Z " fill="#040707" transform="translate(175,124)"/>
<path d="M0 0 C1.98 0 3.96 0 6 0 C6 0.99 6 1.98 6 3 C4.35 3 2.7 3 1 3 C0.67 2.01 0.34 1.02 0 0 Z " fill="#040707" transform="translate(180,7)"/>
</svg>
