<?xml version="1.0" standalone="no"?>
<!DOCTYPE svg PUBLIC "-//W3C//DTD SVG 20010904//EN"
 "http://www.w3.org/TR/2001/REC-SVG-20010904/DTD/svg10.dtd">
<svg version="1.0" xmlns="http://www.w3.org/2000/svg"
 width="256.000000pt" height="78.000000pt" viewBox="0 0 256.000000 78.000000"
 preserveAspectRatio="xMidYMid meet">

<g transform="translate(0.000000,78.000000) scale(0.100000,-0.100000)"
fill="#000000" stroke="none">
<path d="M363 760 c-31 -13 -342 -331 -349 -357 -3 -12 -3 -32 1 -45 9 -28
299 -324 338 -344 49 -26 76 -10 195 109 l112 113 -35 34 -34 33 -101 -98
-101 -99 -139 139 -140 140 140 140 140 140 36 -36 35 -36 -100 -98 c-56 -54
-101 -104 -101 -110 0 -6 29 -40 65 -75 l65 -64 35 34 35 34 -30 31 c-16 17
-30 35 -30 41 0 5 45 54 100 109 l100 100 -73 73 c-66 67 -113 103 -134 101
-4 0 -18 -4 -30 -9z"/>
<path d="M1207 600 c-5 -18 -14 -20 -106 -20 l-101 0 0 -117 c-1 -83 -5 -125
-15 -143 -18 -32 -18 -40 0 -40 8 0 23 12 32 27 14 22 18 49 18 133 l0 105 88
3 87 3 0 -124 c0 -82 4 -127 12 -135 18 -18 85 -15 92 4 9 24 8 25 -20 20 -44
-8 -54 2 -54 55 0 42 3 49 19 49 18 0 51 34 51 52 0 14 -38 8 -44 -7 -12 -32
-26 -13 -26 35 l0 50 35 0 c33 0 35 2 35 35 0 39 -24 50 -33 15 -3 -11 -10
-20 -17 -20 -7 0 -14 9 -17 20 -3 11 -11 20 -18 20 -7 0 -15 -9 -18 -20z"/>
<path d="M1437 613 c-4 -3 -7 -37 -7 -75 l0 -68 60 0 c49 0 60 -3 60 -16 0
-14 -9 -16 -57 -11 l-58 6 -16 -35 c-16 -32 -15 -34 2 -34 10 0 21 5 24 10 8
13 105 13 105 1 0 -6 -24 -11 -52 -13 -41 -2 -54 -7 -56 -20 -3 -15 5 -18 52
-18 43 0 56 -3 56 -15 0 -12 -14 -15 -69 -15 -49 0 -72 -4 -81 -15 -11 -13 8
-15 159 -15 145 0 171 2 171 15 0 12 -14 15 -70 15 -54 0 -70 3 -70 15 0 10
15 15 58 17 43 2 57 7 57 18 0 11 -14 16 -57 18 -32 2 -58 7 -58 12 0 5 26 10
58 12 43 2 57 7 57 18 0 11 -14 16 -57 18 -43 2 -58 7 -58 17 0 11 14 15 58
15 l57 0 -3 75 -4 75 -127 0 c-70 0 -131 -3 -134 -7z m233 -73 l0 -40 -100 0
-100 0 0 40 0 40 100 0 100 0 0 -40z"/>
<path d="M1550 539 c-7 -11 -9 -23 -6 -26 9 -9 34 5 46 26 9 18 8 21 -9 21
-11 0 -25 -9 -31 -21z"/>
<path d="M1829 594 c-5 -15 -12 -31 -16 -37 -3 -6 10 -6 37 -2 33 6 41 4 38
-6 -3 -8 -21 -15 -41 -17 -40 -3 -54 -32 -15 -32 l21 0 -23 -25 -23 -25 23 0
c13 0 34 10 47 22 l23 21 23 -21 c13 -12 34 -22 47 -22 22 0 22 1 7 18 -21 23
-21 32 -2 32 8 0 15 7 15 15 0 10 -11 15 -35 15 -43 0 -49 27 -8 32 17 2 29
10 31 21 3 14 -5 17 -52 17 -30 0 -58 5 -61 10 -11 17 -25 11 -36 -16z"/>
<path d="M2242 581 c-18 -22 -32 -45 -32 -50 0 -15 133 -14 148 1 7 7 12 23
12 37 l0 24 -23 -21 c-13 -12 -36 -22 -51 -22 l-27 0 20 29 c11 15 18 31 14
35 -14 14 -31 4 -61 -33z"/>
<path d="M2397 613 c-4 -3 -7 -40 -7 -80 l0 -74 73 3 c56 2 72 6 72 18 0 10
-11 15 -35 16 -85 2 -80 -2 -80 64 0 55 -6 70 -23 53z"/>
<path d="M2000 525 l0 -75 70 0 70 0 0 75 0 75 -70 0 -70 0 0 -75z m100 -1 c0
-45 0 -45 -32 -42 -28 3 -34 7 -36 31 -5 43 4 57 38 57 29 0 30 -1 30 -46z"/>
<path d="M2466 565 c-20 -31 -20 -35 2 -35 10 0 26 14 35 30 18 29 18 30 -1
30 -11 0 -27 -11 -36 -25z"/>
<path d="M695 550 l-29 -30 25 -27 c38 -44 42 -44 76 -11 l33 32 -32 33 c-18
18 -35 33 -38 33 -3 0 -19 -13 -35 -30z"/>
<path d="M1050 515 c0 -12 14 -15 70 -15 56 0 70 3 70 15 0 12 -14 15 -70 15
-56 0 -70 -3 -70 -15z"/>
<path d="M2217 493 c-3 -5 -4 -53 -4 -108 2 -86 4 -100 20 -103 13 -3 17 3 17
22 0 23 4 26 35 26 46 0 49 27 3 32 -21 2 -33 8 -33 18 0 10 12 16 33 18 46 5
43 32 -3 32 -24 0 -35 5 -35 15 0 11 12 15 45 15 l45 0 0 -90 c0 -73 3 -90 15
-90 12 0 15 19 15 110 l0 110 -74 0 c-41 0 -77 -3 -79 -7z"/>
<path d="M1070 465 c0 -8 -4 -15 -10 -15 -5 0 -10 -7 -10 -15 0 -8 5 -15 10
-15 6 0 10 -13 10 -28 0 -15 6 -34 12 -40 10 -10 6 -18 -17 -37 l-30 -24 31
-1 c16 0 35 5 42 12 9 9 15 9 24 0 7 -7 23 -12 37 -12 l24 0 -23 25 c-18 20
-21 28 -12 37 7 7 12 22 12 34 0 13 5 26 10 29 6 3 10 13 10 21 0 10 -12 14
-45 14 -33 0 -45 4 -45 15 0 8 -7 15 -15 15 -8 0 -15 -7 -15 -15z m70 -64 c0
-11 -5 -23 -11 -27 -15 -9 -33 12 -26 30 9 23 37 20 37 -3z"/>
<path d="M557 412 c-34 -35 -34 -42 3 -77 l30 -29 35 34 35 34 35 -34 35 -34
35 35 35 35 -35 34 -35 34 -35 -34 -35 -34 -33 32 c-18 18 -35 32 -38 32 -3 0
-17 -13 -32 -28z"/>
<path d="M1830 355 l0 -75 140 0 140 0 0 75 0 75 -140 0 -140 0 0 -75z m245 0
l0 -40 -100 0 -100 0 -3 43 -3 43 103 -3 103 -3 0 -40z"/>
<path d="M1952 355 c-10 -22 -9 -25 8 -25 16 0 40 26 40 44 0 18 -39 2 -48
-19z"/>
<path d="M2390 355 l0 -75 66 0 c52 0 70 4 80 18 7 9 14 20 14 25 0 11 -38 9
-45 -3 -3 -5 -23 -8 -43 -6 l-37 3 0 56 c0 48 -3 57 -17 57 -16 0 -18 -10 -18
-75z"/>
<path d="M2467 390 c-18 -29 -18 -30 1 -30 11 0 27 11 36 25 20 31 20 35 -2
35 -10 0 -26 -13 -35 -30z"/>
<path d="M1264 164 c4 -15 10 -39 13 -55 7 -37 29 -56 50 -43 21 13 55 124 38
124 -6 0 -18 -23 -26 -51 -8 -28 -18 -51 -24 -51 -5 0 -16 23 -24 51 -14 51
-39 74 -27 25z"/>
<path d="M1400 125 c0 -37 4 -65 10 -65 6 0 10 28 10 65 0 37 -4 65 -10 65 -6
0 -10 -28 -10 -65z"/>
<path d="M1445 168 c-6 -29 -2 -79 8 -96 9 -14 87 -17 87 -3 0 6 -17 11 -37
13 -27 2 -39 8 -41 21 -3 14 4 17 37 17 51 0 54 18 4 22 -21 2 -38 8 -38 13 0
6 17 11 38 13 52 4 46 22 -8 22 -38 0 -45 -3 -50 -22z"/>
<path d="M1579 125 c17 -72 35 -84 45 -30 8 39 26 38 26 0 0 -21 16 -43 25
-33 2 2 10 31 18 66 12 52 12 62 1 62 -9 0 -14 -11 -14 -29 0 -43 -18 -47 -26
-6 -7 39 -34 49 -34 13 0 -13 -4 -29 -9 -37 -7 -11 -11 -5 -16 22 -4 20 -13
37 -19 37 -9 0 -8 -16 3 -65z"/>
<path d="M1734 176 c-13 -33 1 -51 41 -56 57 -7 55 -34 -2 -38 -24 -2 -43 -8
-43 -13 0 -6 22 -9 53 -7 l52 3 0 35 c0 33 -2 35 -39 40 -58 7 -59 30 -2 30
25 0 46 5 46 10 0 16 -100 12 -106 -4z"/>
<path d="M1860 125 c0 -37 4 -65 10 -65 6 0 10 14 10 30 0 28 3 30 35 30 32 0
35 -2 35 -30 0 -16 5 -30 10 -30 6 0 10 28 10 65 0 37 -4 65 -10 65 -5 0 -10
-11 -10 -25 0 -22 -4 -25 -35 -25 -31 0 -35 3 -35 25 0 14 -4 25 -10 25 -6 0
-10 -28 -10 -65z"/>
<path d="M1990 125 c0 -37 4 -65 10 -65 6 0 10 28 10 65 0 37 -4 65 -10 65 -6
0 -10 -28 -10 -65z"/>
<path d="M2039 183 c-7 -67 -2 -123 9 -123 11 0 13 11 8 50 -8 63 6 65 25 3
11 -37 19 -48 34 -48 18 0 20 8 23 63 2 46 0 62 -10 62 -9 0 -12 -14 -10 -50
3 -32 0 -50 -7 -50 -6 0 -11 6 -11 13 0 6 -5 29 -11 50 -7 26 -15 37 -29 37
-11 0 -20 -3 -21 -7z"/>
<path d="M2164 176 c-3 -7 -4 -35 -2 -62 l3 -49 48 -3 c28 -2 47 1 47 7 0 6
-18 11 -40 11 -33 0 -40 3 -40 20 0 17 7 20 40 20 22 0 40 5 40 10 0 6 -18 10
-40 10 -29 0 -40 4 -40 15 0 11 11 15 40 15 22 0 40 5 40 10 0 16 -90 12 -96
-4z"/>
</g>
</svg>
