<?xml version="1.0" encoding="UTF-8"?>
<svg version="1.1" xmlns="http://www.w3.org/2000/svg" width="634" height="315">
<path d="M0 0 C12.54 0 25.08 0 38 0 C52.19 28.38 66.38 56.76 81 86 C81 57.62 81 29.24 81 0 C93.21 0 105.42 0 118 0 C118 52.8 118 105.6 118 160 C105.13 160 92.26 160 79 160 C77.56011719 157.04804688 76.12023437 154.09609375 74.63671875 151.0546875 C73.16392159 148.03852731 71.69050606 145.0226699 70.21704102 142.00683594 C69.23072584 139.98729068 68.24500395 137.9674555 67.26000977 135.94726562 C57.31746473 115.55758238 47.14588114 95.29176227 37 75 C37 103.05 37 131.1 37 160 C24.79 160 12.58 160 0 160 C0 107.2 0 54.4 0 0 Z " fill="#FFFFFF" transform="translate(402,78)"/>
<path d="M0 0 C69.94880546 0 69.94880546 0 84.5078125 13.2890625 C95.50349661 24.72021925 98.51111168 37.71124136 98.24609375 53.19140625 C97.38547003 66.51058282 92.96322942 78.12833506 83.0546875 87.2890625 C69.34746743 98.70305944 54.54513256 99 37 99 C37 119.13 37 139.26 37 160 C24.79 160 12.58 160 0 160 C0 107.2 0 54.4 0 0 Z M37 32 C37 43.55 37 55.1 37 67 C46.7059922 67.05214453 46.7059922 67.05214453 54.80078125 62.59375 C58.67444891 58.67385719 59.94274096 55.03470114 60.16796875 49.5625 C59.80532215 44.03003094 58.53551572 39.61851657 54.6875 35.5625 C48.3209487 31.86101668 44.81177005 32 37 32 Z " fill="#FFFFFF" transform="translate(175,78)"/>
<path d="M0 0 C24.42 0 48.84 0 74 0 C74 11.22 74 22.44 74 34 C61.79 34 49.58 34 37 34 C37 43.9 37 53.8 37 64 C47.56 64 58.12 64 69 64 C69 75.22 69 86.44 69 98 C58.44 98 47.88 98 37 98 C37 107.24 37 116.48 37 126 C49.21 126 61.42 126 74 126 C74 137.22 74 148.44 74 160 C49.58 160 25.16 160 0 160 C0 107.2 0 54.4 0 0 Z " fill="#FFFFFF" transform="translate(299,78)"/>
<path d="M0 0 C1.08925781 -0.00773437 2.17851563 -0.01546875 3.30078125 -0.0234375 C4.36683594 -0.02085938 5.43289062 -0.01828125 6.53125 -0.015625 C7.48580078 -0.01336914 8.44035156 -0.01111328 9.42382812 -0.00878906 C12.5 0.25 12.5 0.25 20.5 2.25 C20.83 14.13 21.16 26.01 21.5 38.25 C18.2 37.92 14.9 37.59 11.5 37.25 C0.83593557 36.54310179 -7.78148425 36.51468167 -16.26171875 43.75390625 C-25.17505934 53.07137815 -27.89012112 66.11949703 -27.8125 78.5625 C-27.80758545 79.49167236 -27.8026709 80.42084473 -27.79760742 81.37817383 C-27.68344049 88.05898827 -27.06988082 94.02218397 -24.5 100.25 C-24.1596875 101.11753906 -23.819375 101.98507813 -23.46875 102.87890625 C-20.15811733 110.3837526 -15.53556204 115.15658269 -8.26953125 118.92578125 C-3.9600432 120.43968431 -0.57224003 120.6298935 3.9375 120.5 C4.64970703 120.49484375 5.36191406 120.4896875 6.09570312 120.484375 C11.01763152 120.41284834 15.53979994 119.87002501 20.5 119.25 C20.5 131.13 20.5 143.01 20.5 155.25 C10.35722543 158.63092486 10.35722543 158.63092486 5.9765625 158.6484375 C5.0175 158.65230469 4.0584375 158.65617188 3.0703125 158.66015625 C1.61238281 158.64275391 1.61238281 158.64275391 0.125 158.625 C-0.83921875 158.63660156 -1.8034375 158.64820313 -2.796875 158.66015625 C-18.96145175 158.59515125 -33.59455181 152.04739831 -45.10546875 140.83984375 C-64.28125844 120.09996029 -67.42418691 94.62606153 -66.67041016 67.55322266 C-65.63673515 47.51651381 -56.25200178 28.57617399 -42 14.5625 C-29.77139221 4.03756822 -15.86923464 -0.11268096 0 0 Z " fill="#FFFFFF" transform="translate(76.5,78.75)"/>
<path d="M0 0 C28.71 0 57.42 0 87 0 C87 12.21 87 24.42 87 37 C78.75 37 70.5 37 62 37 C62 77.59 62 118.18 62 160 C49.46 160 36.92 160 24 160 C24 119.41 24 78.82 24 37 C16.08 37 8.16 37 0 37 C0 24.79 0 12.58 0 0 Z " fill="#FFFFFF" transform="translate(541,78)"/>
<path d="M0 0 C3.63 0 7.26 0 11 0 C11 103.95 11 207.9 11 315 C7.37 315 3.74 315 0 315 C0 211.05 0 107.1 0 0 Z " fill="#FF0000" transform="translate(124,0)"/>
<path d="M0 0 C2.6015625 -0.29296875 2.6015625 -0.29296875 5.625 -0.1875 C7.12933594 -0.14689453 7.12933594 -0.14689453 8.6640625 -0.10546875 C9.43492187 -0.07066406 10.20578125 -0.03585937 11 0 C11.05411124 2.41696872 11.09372278 4.83271787 11.125 7.25 C11.15013672 8.27287109 11.15013672 8.27287109 11.17578125 9.31640625 C11.21185049 13.0315375 11.18812735 15.90907884 9 19 C6.04335481 20.4783226 3.25770263 20.06032783 0 20 C-0.66 18.68 -1.32 17.36 -2 16 C-0.02 16 1.96 16 4 16 C4.33 15.34 4.66 14.68 5 14 C3.824375 14.0928125 3.824375 14.0928125 2.625 14.1875 C1.325625 14.0946875 1.325625 14.0946875 0 14 C-1.99825961 11.00261059 -2.27550398 10.36652492 -2.25 7 C-2.25515625 6.319375 -2.2603125 5.63875 -2.265625 4.9375 C-2 3 -2 3 0 0 Z M4 4 C3.67 5.65 3.34 7.3 3 9 C3.99 9.495 3.99 9.495 5 10 C5 8.02 5 6.04 5 4 C4.67 4 4.34 4 4 4 Z " fill="#FFFFFF" transform="translate(414,281)"/>
<path d="M0 0 C1.65 0 3.3 0 5 0 C5 6.93 5 13.86 5 21 C-5 21 -5 21 -7.1875 18.9375 C-8.20988284 15.24119282 -7.90933735 12.70729841 -7 9 C-6.34 8.34 -5.68 7.68 -5 7 C-3.68 7 -2.36 7 -1 7 C-0.67 4.69 -0.34 2.38 0 0 Z M-2 11 C-2 12.98 -2 14.96 -2 17 C-1.34 16.67 -0.68 16.34 0 16 C-0.33 14.35 -0.66 12.7 -1 11 C-1.33 11 -1.66 11 -2 11 Z " fill="#FFFFFF" transform="translate(92,274)"/>
<path d="M0 0 C3.3 0 6.6 0 10 0 C13 4 13 4 12.8125 7.625 C12 11 12 11 10 13 C7.375 13.125 7.375 13.125 5 13 C5 15.31 5 17.62 5 20 C3.35 20 1.7 20 0 20 C0 13.4 0 6.8 0 0 Z M5 4 C5 5.65 5 7.3 5 9 C5.99 8.01 6.98 7.02 8 6 C7.01 5.34 6.02 4.68 5 4 Z " fill="#FFFFFF" transform="translate(170,275)"/>
<path d="M0 0 C2.97 0 5.94 0 9 0 C12 3 12 3 12.375 6.5 C12 10 12 10 10.75 11.9375 C9 13 9 13 5 13 C5 15.31 5 17.62 5 20 C3.35 20 1.7 20 0 20 C0 13.4 0 6.8 0 0 Z M5 4 C5 5.65 5 7.3 5 9 C5.66 8.67 6.32 8.34 7 8 C6.67 6.68 6.34 5.36 6 4 C5.67 4 5.34 4 5 4 Z " fill="#FFFFFF" transform="translate(472,275)"/>
<path d="M0 0 C3.69593971 -0.41620943 7.27119087 -0.13007474 11 0 C11 4.62 11 9.24 11 14 C2.6015625 14.29296875 2.6015625 14.29296875 0 14 C-1.99825961 11.00261059 -2.27550398 10.36652492 -2.25 7 C-2.25515625 6.319375 -2.2603125 5.63875 -2.265625 4.9375 C-2 3 -2 3 0 0 Z M4 4 C3.67 5.65 3.34 7.3 3 9 C3.99 9.495 3.99 9.495 5 10 C5 8.02 5 6.04 5 4 C4.67 4 4.34 4 4 4 Z " fill="#FFFFFF" transform="translate(593,281)"/>
<path d="M0 0 C3.69593971 -0.41620943 7.27119087 -0.13007474 11 0 C11 4.62 11 9.24 11 14 C2.6015625 14.29296875 2.6015625 14.29296875 0 14 C-1.99825961 11.00261059 -2.27550398 10.36652492 -2.25 7 C-2.25515625 6.319375 -2.2603125 5.63875 -2.265625 4.9375 C-2 3 -2 3 0 0 Z M4 4 C3.67 5.65 3.34 7.3 3 9 C3.99 9.495 3.99 9.495 5 10 C5 8.02 5 6.04 5 4 C4.67 4 4.34 4 4 4 Z " fill="#FFFFFF" transform="translate(245,281)"/>
<path d="M0 0 C3.63 0 7.26 0 11 0 C13.02903697 4.05807395 12.0467948 9.60128877 12 14 C8.04 14 4.08 14 0 14 C0 9.38 0 4.76 0 0 Z " fill="#FFFFFF" transform="translate(288,281)"/>
<path d="M0 0 C8.49609375 -0.09765625 8.49609375 -0.09765625 11 0 C12 1 12 1 12.09765625 3.94140625 C12.08605469 5.13636719 12.07445312 6.33132813 12.0625 7.5625 C12.05347656 8.76003906 12.04445313 9.95757812 12.03515625 11.19140625 C12.02355469 12.11824219 12.01195312 13.04507812 12 14 C10.35 14 8.7 14 7 14 C7 11.03 7 8.06 7 5 C6.34 5 5.68 5 5 5 C5 7.97 5 10.94 5 14 C3.35 14 1.7 14 0 14 C0 9.38 0 4.76 0 0 Z " fill="#FFFFFF" transform="translate(577,281)"/>
<path d="M0 0 C8.49609375 -0.09765625 8.49609375 -0.09765625 11 0 C12 1 12 1 12.09765625 3.94140625 C12.08605469 5.13636719 12.07445312 6.33132813 12.0625 7.5625 C12.05347656 8.76003906 12.04445313 9.95757812 12.03515625 11.19140625 C12.02355469 12.11824219 12.01195312 13.04507812 12 14 C10.35 14 8.7 14 7 14 C7 11.03 7 8.06 7 5 C6.34 5 5.68 5 5 5 C5 7.97 5 10.94 5 14 C3.35 14 1.7 14 0 14 C0 9.38 0 4.76 0 0 Z " fill="#FFFFFF" transform="translate(398,281)"/>
<path d="M0 0 C8.49609375 -0.09765625 8.49609375 -0.09765625 11 0 C12 1 12 1 12.09765625 3.94140625 C12.08605469 5.13636719 12.07445312 6.33132813 12.0625 7.5625 C12.05347656 8.76003906 12.04445312 9.95757812 12.03515625 11.19140625 C12.02355469 12.11824219 12.01195312 13.04507812 12 14 C10.35 14 8.7 14 7 14 C7 11.03 7 8.06 7 5 C6.34 5 5.68 5 5 5 C5 7.97 5 10.94 5 14 C3.35 14 1.7 14 0 14 C0 9.38 0 4.76 0 0 Z " fill="#FFFFFF" transform="translate(197,281)"/>
<path d="M0 0 C0 1.32 0 2.64 0 4 C-0.804375 4.226875 -1.60875 4.45375 -2.4375 4.6875 C-5.20258026 5.74766998 -5.20258026 5.74766998 -5.9375 8.375 C-6.00752387 11.31600249 -5.76226533 12.6503129 -4 15 C-1.94999129 15.80528889 -1.94999129 15.80528889 0 16 C0 17.32 0 18.64 0 20 C-4.16952449 20.40877691 -6.35870823 20.40933517 -9.9375 18.125 C-12.82533781 13.74948817 -13.02870363 10.10170093 -12 5 C-8.65148478 -0.0735079 -5.9004764 -0.57847808 0 0 Z " fill="#FFFFFF" transform="translate(14,275)"/>
<path d="M0 0 C2 2.0625 2 2.0625 3 5 C2.67857143 11.32142857 2.67857143 11.32142857 0 14 C-5.95169082 14.5410628 -5.95169082 14.5410628 -8.9375 13 C-10.65886567 9.75978228 -10.52960415 6.58042244 -10 3 C-7.83802426 -1.06960139 -4.1837756 -0.59768223 0 0 Z M-4 4 C-4.33 5.65 -4.66 7.3 -5 9 C-4.01 9.495 -4.01 9.495 -3 10 C-3 8.02 -3 6.04 -3 4 C-3.33 4 -3.66 4 -4 4 Z " fill="#FFFFFF" transform="translate(573,281)"/>
<path d="M0 0 C3.5625 0.3125 3.5625 0.3125 5.5 1.3125 C7.22136567 4.55271772 7.09210415 7.73207756 6.5625 11.3125 C5.5 13.3125 5.5 13.3125 3.5625 14.3125 C0.0625 14.8125 0.0625 14.8125 -3.4375 14.3125 C-5.4375 12.25 -5.4375 12.25 -6.4375 9.3125 C-5.99167957 0.54469814 -5.99167957 0.54469814 0 0 Z M-0.4375 4.3125 C-0.4375 6.2925 -0.4375 8.2725 -0.4375 10.3125 C0.2225 9.9825 0.8825 9.6525 1.5625 9.3125 C1.2325 7.6625 0.9025 6.0125 0.5625 4.3125 C0.2325 4.3125 -0.0975 4.3125 -0.4375 4.3125 Z " fill="#FFFFFF" transform="translate(502.4375,280.6875)"/>
<path d="M0 0 C3.5625 0.3125 3.5625 0.3125 5.5 1.3125 C7.22136567 4.55271772 7.09210415 7.73207756 6.5625 11.3125 C5.5 13.3125 5.5 13.3125 3.5625 14.3125 C0.0625 14.8125 0.0625 14.8125 -3.4375 14.3125 C-5.4375 12.25 -5.4375 12.25 -6.4375 9.3125 C-5.99167957 0.54469814 -5.99167957 0.54469814 0 0 Z M-0.4375 4.3125 C-0.4375 6.2925 -0.4375 8.2725 -0.4375 10.3125 C0.2225 9.9825 0.8825 9.6525 1.5625 9.3125 C1.2325 7.6625 0.9025 6.0125 0.5625 4.3125 C0.2325 4.3125 -0.0975 4.3125 -0.4375 4.3125 Z " fill="#FFFFFF" transform="translate(279.4375,280.6875)"/>
<path d="M0 0 C3.0625 0.3125 3.0625 0.3125 4.9375 1.5 C6.41031139 3.87286279 6.28473194 5.57163944 6.0625 8.3125 C4.0825 8.6425 2.1025 8.9725 0.0625 9.3125 C1.12895115 10.60883621 1.12895115 10.60883621 3.625 10.375 C4.429375 10.354375 5.23375 10.33375 6.0625 10.3125 C5.4025 11.6325 4.7425 12.9525 4.0625 14.3125 C0.75 14.625 0.75 14.625 -2.9375 14.3125 C-4.9375 12.25 -4.9375 12.25 -5.9375 9.3125 C-5.49370015 0.58443619 -5.49370015 0.58443619 0 0 Z M0.0625 3.3125 C-0.2675 4.3025 -0.5975 5.2925 -0.9375 6.3125 C-0.2775 6.3125 0.3825 6.3125 1.0625 6.3125 C0.7325 5.3225 0.4025 4.3325 0.0625 3.3125 Z " fill="#FFFFFF" transform="translate(188.9375,280.6875)"/>
<path d="M0 0 C3.0625 0.3125 3.0625 0.3125 4.9375 1.5 C6.41031139 3.87286279 6.28473194 5.57163944 6.0625 8.3125 C4.0825 8.6425 2.1025 8.9725 0.0625 9.3125 C1.12895115 10.60883621 1.12895115 10.60883621 3.625 10.375 C4.429375 10.354375 5.23375 10.33375 6.0625 10.3125 C5.4025 11.6325 4.7425 12.9525 4.0625 14.3125 C0.75 14.625 0.75 14.625 -2.9375 14.3125 C-4.9375 12.25 -4.9375 12.25 -5.9375 9.3125 C-5.49370015 0.58443619 -5.49370015 0.58443619 0 0 Z M0.0625 3.3125 C-0.2675 4.3025 -0.5975 5.2925 -0.9375 6.3125 C-0.2775 6.3125 0.3825 6.3125 1.0625 6.3125 C0.7325 5.3225 0.4025 4.3325 0.0625 3.3125 Z " fill="#FFFFFF" transform="translate(76.9375,280.6875)"/>
<path d="M0 0 C3.0625 0.3125 3.0625 0.3125 4.9375 1.5 C6.41031139 3.87286279 6.28473194 5.57163944 6.0625 8.3125 C4.0825 8.6425 2.1025 8.9725 0.0625 9.3125 C1.12895115 10.60883621 1.12895115 10.60883621 3.625 10.375 C4.429375 10.354375 5.23375 10.33375 6.0625 10.3125 C5.4025 11.6325 4.7425 12.9525 4.0625 14.3125 C0.75 14.625 0.75 14.625 -2.9375 14.3125 C-4.9375 12.25 -4.9375 12.25 -5.9375 9.3125 C-5.49370015 0.58443619 -5.49370015 0.58443619 0 0 Z M0.0625 3.3125 C-0.2675 4.3025 -0.5975 5.2925 -0.9375 6.3125 C-0.2775 6.3125 0.3825 6.3125 1.0625 6.3125 C0.7325 5.3225 0.4025 4.3325 0.0625 3.3125 Z " fill="#FFFFFF" transform="translate(19.9375,280.6875)"/>
<path d="M0 0 C1.875 1.75 1.875 1.75 3 4 C3 5.32 3 6.64 3 8 C0.69 8 -1.62 8 -4 8 C-4 8.66 -4 9.32 -4 10 C-2.02 10 -0.04 10 2 10 C1.34 11.32 0.68 12.64 0 14 C-5.33333333 14.35555556 -5.33333333 14.35555556 -7.875 13 C-9.68523932 9.78179676 -9.53967465 6.59783102 -9 3 C-6.90072516 -0.73204416 -3.99607841 -0.58276144 0 0 Z M-4 4 C-4 4.66 -4 5.32 -4 6 C-3.34 6 -2.68 6 -2 6 C-2 5.34 -2 4.68 -2 4 C-2.66 4 -3.32 4 -4 4 Z " fill="#FFFFFF" transform="translate(528,281)"/>
<path d="M0 0 C1.875 1.75 1.875 1.75 3 4 C3 5.32 3 6.64 3 8 C0.69 8 -1.62 8 -4 8 C-4 8.66 -4 9.32 -4 10 C-2.02 10 -0.04 10 2 10 C1.34 11.32 0.68 12.64 0 14 C-5.33333333 14.35555556 -5.33333333 14.35555556 -7.875 13 C-9.68523932 9.78179676 -9.53967465 6.59783102 -9 3 C-6.90072516 -0.73204416 -3.99607841 -0.58276144 0 0 Z M-4 4 C-4 4.66 -4 5.32 -4 6 C-3.34 6 -2.68 6 -2 6 C-2 5.34 -2 4.68 -2 4 C-2.66 4 -3.32 4 -4 4 Z " fill="#FFFFFF" transform="translate(366,281)"/>
<path d="M0 0 C1.875 1.75 1.875 1.75 3 4 C3 5.32 3 6.64 3 8 C0.69 8 -1.62 8 -4 8 C-4 8.66 -4 9.32 -4 10 C-2.02 10 -0.04 10 2 10 C1.34 11.32 0.68 12.64 0 14 C-5.33333333 14.35555556 -5.33333333 14.35555556 -7.875 13 C-9.68523932 9.78179676 -9.53967465 6.59783102 -9 3 C-6.90072516 -0.73204416 -3.99607841 -0.58276144 0 0 Z M-4 4 C-4 4.66 -4 5.32 -4 6 C-3.34 6 -2.68 6 -2 6 C-2 5.34 -2 4.68 -2 4 C-2.66 4 -3.32 4 -4 4 Z " fill="#FFFFFF" transform="translate(220,281)"/>
<path d="M0 0 C3.63 0 7.26 0 11 0 C11 1.32 11 2.64 11 4 C10.01 4 9.02 4 8 4 C8 9.28 8 14.56 8 20 C6.35 20 4.7 20 3 20 C3 14.72 3 9.44 3 4 C2.01 4 1.02 4 0 4 C0 2.68 0 1.36 0 0 Z " fill="#FFFFFF" transform="translate(346,275)"/>
<path d="M0 0 C1.2065625 0.0309375 1.2065625 0.0309375 2.4375 0.0625 C1.5625 4.8125 1.5625 4.8125 0.4375 7.0625 C1.0975 7.0625 1.7575 7.0625 2.4375 7.0625 C2.4375 8.3825 2.4375 9.7025 2.4375 11.0625 C1.7775 11.0625 1.1175 11.0625 0.4375 11.0625 C0.4375 14.3625 0.4375 17.6625 0.4375 21.0625 C-1.2125 21.0625 -2.8625 21.0625 -4.5625 21.0625 C-4.78620596 18.85567093 -4.99080391 16.64690027 -5.1875 14.4375 C-5.30351562 13.20773437 -5.41953125 11.97796875 -5.5390625 10.7109375 C-5.56295909 6.99103445 -4.9869621 4.47506028 -3.5625 1.0625 C-2.5625 0.0625 -2.5625 0.0625 0 0 Z " fill="#FFFFFF" transform="translate(515.5625,273.9375)"/>
<path d="M0 0 C1.2065625 0.0309375 1.2065625 0.0309375 2.4375 0.0625 C1.5625 4.8125 1.5625 4.8125 0.4375 7.0625 C1.0975 7.0625 1.7575 7.0625 2.4375 7.0625 C2.4375 8.3825 2.4375 9.7025 2.4375 11.0625 C1.7775 11.0625 1.1175 11.0625 0.4375 11.0625 C0.4375 14.3625 0.4375 17.6625 0.4375 21.0625 C-1.2125 21.0625 -2.8625 21.0625 -4.5625 21.0625 C-4.78620596 18.85567093 -4.99080391 16.64690027 -5.1875 14.4375 C-5.30351563 13.20773437 -5.41953125 11.97796875 -5.5390625 10.7109375 C-5.56295909 6.99103445 -4.9869621 4.47506028 -3.5625 1.0625 C-2.5625 0.0625 -2.5625 0.0625 0 0 Z " fill="#FFFFFF" transform="translate(60.5625,273.9375)"/>
<path d="M0 0 C1.670625 0.061875 1.670625 0.061875 3.375 0.125 C3.375 1.445 3.375 2.765 3.375 4.125 C2.055 4.455 0.735 4.785 -0.625 5.125 C1.85 6.115 1.85 6.115 4.375 7.125 C4.5 9.5 4.5 9.5 4.375 12.125 C2.375 14.125 2.375 14.125 -1.125 14.375 C-4.625 14.125 -4.625 14.125 -6.625 12.125 C-6.295 11.465 -5.965 10.805 -5.625 10.125 C-3.975 10.455 -2.325 10.785 -0.625 11.125 C-0.625 10.465 -0.625 9.805 -0.625 9.125 C-3.1 8.135 -3.1 8.135 -5.625 7.125 C-5.75 4.75 -5.75 4.75 -5.625 2.125 C-3.625 0.125 -3.625 0.125 0 0 Z " fill="#FFFFFF" transform="translate(549.625,280.875)"/>
<path d="M0 0 C1.670625 0.061875 1.670625 0.061875 3.375 0.125 C3.375 1.445 3.375 2.765 3.375 4.125 C2.055 4.455 0.735 4.785 -0.625 5.125 C1.85 6.115 1.85 6.115 4.375 7.125 C4.5 9.5 4.5 9.5 4.375 12.125 C2.375 14.125 2.375 14.125 -1.125 14.375 C-4.625 14.125 -4.625 14.125 -6.625 12.125 C-6.295 11.465 -5.965 10.805 -5.625 10.125 C-3.975 10.455 -2.325 10.785 -0.625 11.125 C-0.625 10.465 -0.625 9.805 -0.625 9.125 C-3.1 8.135 -3.1 8.135 -5.625 7.125 C-5.75 4.75 -5.75 4.75 -5.625 2.125 C-3.625 0.125 -3.625 0.125 0 0 Z " fill="#FFFFFF" transform="translate(375.625,280.875)"/>
<path d="M0 0 C3.5 0.25 3.5 0.25 5.5 2.25 C5.17 2.91 4.84 3.57 4.5 4.25 C2.85 3.92 1.2 3.59 -0.5 3.25 C-0.5 3.91 -0.5 4.57 -0.5 5.25 C1.975 6.24 1.975 6.24 4.5 7.25 C4.625 9.625 4.625 9.625 4.5 12.25 C2.5 14.25 2.5 14.25 -1.125 14.375 C-2.23875 14.33375 -3.3525 14.2925 -4.5 14.25 C-4.5 12.93 -4.5 11.61 -4.5 10.25 C-3.18 9.92 -1.86 9.59 -0.5 9.25 C-1.82 8.92 -3.14 8.59 -4.5 8.25 C-5.125 5.375 -5.125 5.375 -5.5 2.25 C-3.5 0.25 -3.5 0.25 0 0 Z " fill="#FFFFFF" transform="translate(537.5,280.75)"/>
<path d="M0 0 C1.65 0 3.3 0 5 0 C5 1.32 5 2.64 5 4 C5.66 4 6.32 4 7 4 C7 5.32 7 6.64 7 8 C6.34 8 5.68 8 5 8 C5 11.3 5 14.6 5 18 C3.35 18 1.7 18 0 18 C0 14.7 0 11.4 0 8 C-0.66 8 -1.32 8 -2 8 C-2 6.68 -2 5.36 -2 4 C-1.34 4 -0.68 4 0 4 C0 2.68 0 1.36 0 0 Z " fill="#FFFFFF" transform="translate(225,277)"/>
<path d="M0 0 C1.65 0 3.3 0 5 0 C5 1.32 5 2.64 5 4 C5.66 4 6.32 4 7 4 C7 5.32 7 6.64 7 8 C6.34 8 5.68 8 5 8 C5 11.3 5 14.6 5 18 C3.35 18 1.7 18 0 18 C0 14.7 0 11.4 0 8 C-0.66 8 -1.32 8 -2 8 C-2 6.68 -2 5.36 -2 4 C-1.34 4 -0.68 4 0 4 C0 2.68 0 1.36 0 0 Z " fill="#FFFFFF" transform="translate(40,277)"/>
<path d="M0 0 C1.65 0 3.3 0 5 0 C5 6.93 5 13.86 5 21 C3.35 21 1.7 21 0 21 C0 14.07 0 7.14 0 0 Z " fill="#FFFFFF" transform="translate(606,274)"/>
<path d="M0 0 C1.65 0 3.3 0 5 0 C5 1.32 5 2.64 5 4 C5.66 4 6.32 4 7 4 C7 5.32 7 6.64 7 8 C6.34 8 5.68 8 5 8 C5 11.3 5 14.6 5 18 C3.35 18 1.7 18 0 18 C-0.1954625 15.75067773 -0.38108226 13.50049858 -0.5625 11.25 C-0.66691406 9.99703125 -0.77132813 8.7440625 -0.87890625 7.453125 C-0.97876723 4.60547636 -0.90584295 2.65713933 0 0 Z " fill="#FFFFFF" transform="translate(382,277)"/>
<path d="M0 0 C1.65 0 3.3 0 5 0 C5 1.32 5 2.64 5 4 C5.66 4 6.32 4 7 4 C7 5.32 7 6.64 7 8 C6.34 8 5.68 8 5 8 C5 11.3 5 14.6 5 18 C3.35 18 1.7 18 0 18 C-0.1954625 15.75067773 -0.38108226 13.50049858 -0.5625 11.25 C-0.66691406 9.99703125 -0.77132813 8.7440625 -0.87890625 7.453125 C-0.97876723 4.60547636 -0.90584295 2.65713933 0 0 Z " fill="#FFFFFF" transform="translate(258,277)"/>
<path d="M0 0 C2.97 0 5.94 0 9 0 C9 1.32 9 2.64 9 4 C8.01 4.66 7.02 5.32 6 6 C5.42251197 7.96361864 5.42251197 7.96361864 5.3125 10.125 C5.1578125 12.043125 5.1578125 12.043125 5 14 C3.35 14 1.7 14 0 14 C0 9.38 0 4.76 0 0 Z " fill="#FFFFFF" transform="translate(233,281)"/>
<path d="M0 0 C2.97 0 5.94 0 9 0 C9 1.32 9 2.64 9 4 C8.01 4.66 7.02 5.32 6 6 C5.42251197 7.96361864 5.42251197 7.96361864 5.3125 10.125 C5.1578125 12.043125 5.1578125 12.043125 5 14 C3.35 14 1.7 14 0 14 C0 9.38 0 4.76 0 0 Z " fill="#FFFFFF" transform="translate(28,281)"/>
<path d="M0 0 C2.97 0 5.94 0 9 0 C9 1.32 9 2.64 9 4 C8.01 4.33 7.02 4.66 6 5 C5.67 7.97 5.34 10.94 5 14 C3.35 14 1.7 14 0 14 C0 9.38 0 4.76 0 0 Z " fill="#FFFFFF" transform="translate(487,281)"/>
<path d="M0 0 C1.65 0 3.3 0 5 0 C5 4.62 5 9.24 5 14 C3.35 14 1.7 14 0 14 C0 9.38 0 4.76 0 0 Z " fill="#FFFFFF" transform="translate(556,281)"/>
<path d="M0 0 C1.65 0 3.3 0 5 0 C5 4.62 5 9.24 5 14 C3.35 14 1.7 14 0 14 C0 9.38 0 4.76 0 0 Z " fill="#FFFFFF" transform="translate(391,281)"/>
<path d="M0 0 C1.65 0 3.3 0 5 0 C5 4.62 5 9.24 5 14 C3.35 14 1.7 14 0 14 C0 9.38 0 4.76 0 0 Z " fill="#FFFFFF" transform="translate(267,281)"/>
<path d="M0 0 C1.65 0 3.3 0 5 0 C5 4.62 5 9.24 5 14 C3.35 14 1.7 14 0 14 C0 9.38 0 4.76 0 0 Z " fill="#FFFFFF" transform="translate(64,281)"/>
<path d="M0 0 C1.65 0 3.3 0 5 0 C5 4.62 5 9.24 5 14 C3.35 14 1.7 14 0 14 C0 9.38 0 4.76 0 0 Z " fill="#FFFFFF" transform="translate(48,281)"/>
<path d="M0 0 C1.32 0 2.64 0 4 0 C4.33 0.99 4.66 1.98 5 3 C4.67 3.66 4.34 4.32 4 5 C2.35 4.67 0.7 4.34 -1 4 C-0.67 2.68 -0.34 1.36 0 0 Z " fill="#FFFFFF" transform="translate(65,275)"/>
<path d="M0 0 C1.32 0 2.64 0 4 0 C4.33 0.99 4.66 1.98 5 3 C4.67 3.66 4.34 4.32 4 5 C2.35 4.67 0.7 4.34 -1 4 C-0.67 2.68 -0.34 1.36 0 0 Z " fill="#FFFFFF" transform="translate(49,275)"/>
<path d="M0 0 C2.475 0.495 2.475 0.495 5 1 C4.67 2.32 4.34 3.64 4 5 C2.68 5 1.36 5 0 5 C0 3.35 0 1.7 0 0 Z " fill="#FFFFFF" transform="translate(556,275)"/>
<path d="M0 0 C2.475 0.495 2.475 0.495 5 1 C4.67 2.32 4.34 3.64 4 5 C2.68 5 1.36 5 0 5 C0 3.35 0 1.7 0 0 Z " fill="#FFFFFF" transform="translate(391,275)"/>
<path d="M0 0 C2.475 0.495 2.475 0.495 5 1 C4.67 2.32 4.34 3.64 4 5 C2.68 5 1.36 5 0 5 C0 3.35 0 1.7 0 0 Z " fill="#FFFFFF" transform="translate(267,275)"/>
</svg>
