<?xml version="1.0" standalone="no"?>
<!DOCTYPE svg PUBLIC "-//W3C//DTD SVG 20010904//EN"
 "http://www.w3.org/TR/2001/REC-SVG-20010904/DTD/svg10.dtd">
<svg version="1.0" xmlns="http://www.w3.org/2000/svg"
 width="356.000000pt" height="119.000000pt" viewBox="0 0 356.000000 119.000000"
 preserveAspectRatio="xMidYMid meet">

<g transform="translate(0.000000,119.000000) scale(0.100000,-0.100000)"
fill="#000000" stroke="none">
<path d="M1873 1098 c-25 -32 -26 -40 -4 -29 11 7 21 18 21 26 0 18 -5 19 -17
3z"/>
<path d="M948 1088 c13 -17 14 -166 1 -191 -7 -12 -7 -17 -1 -13 6 3 12 2 14
-4 1 -5 8 -6 13 -2 6 4 9 51 7 115 -3 100 -5 107 -24 107 -15 0 -18 -3 -10
-12z"/>
<path d="M1726 1093 c-12 -12 -6 -33 9 -33 8 0 15 6 15 14 0 17 -14 28 -24 19z"/>
<path d="M3319 1087 c9 -11 11 -45 9 -111 -3 -90 -2 -96 17 -96 19 0 20 5 15
107 -5 105 -6 108 -30 111 -21 3 -22 2 -11 -11z"/>
<path d="M118 976 c2 -63 -1 -113 -8 -125 -6 -12 -7 -21 -2 -21 24 0 35 37 41
140 6 105 5 110 -14 110 -19 0 -20 -6 -17 -104z"/>
<path d="M2235 1055 c-28 -27 -34 -67 -20 -132 6 -27 58 -56 88 -50 19 4 19 4
-4 6 -32 1 -55 26 -63 68 -9 40 9 109 32 122 10 7 12 11 4 11 -7 0 -24 -11
-37 -25z"/>
<path d="M550 981 c0 -65 4 -92 15 -101 18 -15 47 -10 53 10 4 12 3 13 -10 3
-24 -20 -28 -6 -28 89 0 72 -3 88 -15 88 -12 0 -15 -17 -15 -89z"/>
<path d="M1305 1059 c-3 -9 1 -29 10 -45 8 -16 15 -37 15 -46 0 -9 4 -19 9
-23 5 -3 12 -19 16 -35 4 -20 13 -30 25 -30 17 0 15 9 -17 88 -38 96 -49 113
-58 91z"/>
<path d="M2355 1060 c-3 -5 -1 -18 4 -27 9 -16 10 -14 11 10 0 28 -5 34 -15
17z"/>
<path d="M460 1015 c7 -9 11 -37 8 -75 -2 -49 0 -60 13 -60 13 0 15 12 13 66
-1 43 -7 70 -16 75 -21 14 -32 10 -18 -6z"/>
<path d="M714 963 c1 -58 -2 -68 -18 -71 -28 -6 -40 12 -26 38 11 20 10 21 -9
10 -27 -14 -28 -56 -1 -65 10 -3 27 -2 37 4 12 6 25 6 36 0 15 -9 17 -4 17 55
0 45 -5 69 -16 80 -8 9 -16 16 -18 16 -1 0 -2 -30 -2 -67z"/>
<path d="M880 1010 c-29 -29 -28 -103 2 -124 32 -22 56 -21 30 2 -31 27 -37
83 -11 115 24 31 8 36 -21 7z"/>
<path d="M1114 1003 c6 -28 4 -32 -16 -36 -17 -3 -15 -5 10 -6 27 -1 32 2 32
23 0 13 -7 30 -16 37 -15 12 -16 10 -10 -18z"/>
<path d="M2048 1018 c7 -7 12 -39 12 -75 0 -53 3 -63 18 -63 15 0 17 8 14 62
-4 66 -14 88 -40 88 -12 0 -13 -3 -4 -12z"/>
<path d="M2494 1008 c31 -44 15 -128 -24 -128 -24 0 -40 28 -40 70 0 17 5 40
10 51 6 10 7 19 2 19 -16 0 -33 -27 -39 -63 -4 -29 -1 -40 20 -61 15 -14 36
-26 47 -26 12 0 32 12 47 26 21 21 24 32 20 61 -6 35 -31 73 -49 73 -5 0 -2
-10 6 -22z"/>
<path d="M2660 1015 c7 -9 11 -37 8 -75 -3 -52 -1 -60 15 -60 14 0 17 9 17 59
0 41 -5 65 -16 75 -20 21 -41 21 -24 1z"/>
<path d="M2743 1018 c16 -12 18 -25 15 -76 -2 -51 0 -62 13 -62 12 0 15 12 14
65 -1 71 0 70 -35 80 -23 7 -24 6 -7 -7z"/>
<path d="M2844 1023 c-13 -4 -6 -123 8 -140 6 -7 17 -13 25 -13 12 0 11 3 -2
16 -12 12 -16 32 -14 75 3 62 1 69 -17 62z"/>
<path d="M3093 1015 c4 -9 7 -43 7 -76 0 -50 3 -59 18 -59 15 0 17 8 14 65 -3
54 -7 67 -24 76 -18 10 -20 9 -15 -6z"/>
<path d="M198 958 c4 -70 14 -88 46 -88 19 1 19 2 4 11 -14 8 -18 24 -18 74 0
55 -3 65 -17 65 -16 0 -18 -8 -15 -62z"/>
<path d="M290 948 c3 -40 8 -72 13 -70 4 1 10 2 15 2 4 0 6 31 4 70 -3 57 -7
70 -20 70 -15 0 -16 -9 -12 -72z"/>
<path d="M375 950 c0 -56 3 -70 15 -70 22 0 22 133 0 138 -12 2 -15 -11 -15
-68z"/>
<path d="M651 1006 c-9 -10 -9 -16 -1 -21 16 -10 31 7 21 23 -6 10 -10 10 -20
-2z"/>
<path d="M1034 985 c-17 -42 -10 -80 19 -100 26 -18 48 -19 71 -2 16 12 14 13
-18 9 -31 -4 -37 -1 -46 23 -9 24 -6 77 6 97 3 4 0 8 -6 8 -6 0 -18 -16 -26
-35z"/>
<path d="M1441 1006 c-8 -9 -8 -16 -2 -20 6 -4 15 3 21 14 12 23 -2 27 -19 6z"/>
<path d="M1510 1000 c0 -13 5 -20 13 -17 6 2 12 10 12 17 0 7 -6 15 -12 18 -8
2 -13 -5 -13 -18z"/>
<path d="M1575 987 c-26 -63 13 -127 70 -113 35 9 31 23 -5 18 -25 -4 -31 0
-40 24 -10 26 -9 50 6 88 12 31 -17 15 -31 -17z"/>
<path d="M1656 1013 c-12 -12 -6 -33 9 -33 8 0 15 6 15 14 0 17 -14 28 -24 19z"/>
<path d="M1718 950 c-3 -64 -1 -70 17 -70 18 0 20 6 17 70 -3 50 -7 70 -17 70
-10 0 -14 -20 -17 -70z"/>
<path d="M1809 1004 c-23 -28 -17 -93 10 -115 28 -23 49 -24 78 -4 28 20 38
67 21 101 -19 40 -40 44 -25 5 24 -65 -24 -144 -60 -95 -16 21 -17 78 -3 105
13 23 -2 25 -21 3z"/>
<path d="M1968 950 c-3 -64 -1 -70 17 -70 18 0 20 6 17 70 -3 50 -7 70 -17 70
-10 0 -14 -20 -17 -70z"/>
<path d="M2578 950 c-3 -64 -1 -70 17 -70 18 0 20 6 17 70 -3 50 -7 70 -17 70
-10 0 -14 -20 -17 -70z"/>
<path d="M2927 957 c2 -88 2 -87 16 -82 16 7 11 145 -6 145 -8 0 -11 -21 -10
-63z"/>
<path d="M3008 950 c3 -57 7 -70 20 -70 15 0 17 10 14 70 -3 57 -7 70 -20 70
-15 0 -17 -10 -14 -70z"/>
<path d="M3187 1013 c-12 -12 -7 -33 8 -33 17 0 19 9 7 28 -5 7 -11 9 -15 5z"/>
<path d="M3248 951 c3 -48 8 -71 18 -75 11 -4 14 7 14 53 0 66 -7 91 -24 91
-7 0 -10 -22 -8 -69z"/>
<path d="M1252 930 c-18 -42 -18 -50 -6 -50 8 0 12 4 9 10 -3 5 2 26 11 45 9
20 14 38 12 41 -3 2 -15 -18 -26 -46z"/>
<path d="M1420 945 c0 -50 71 -95 99 -62 8 11 5 13 -17 9 -31 -4 -48 11 -54
47 -4 34 -28 39 -28 6z"/>
<path d="M2356 918 c-3 -13 -1 -27 4 -32 7 -7 10 1 10 22 0 37 -5 41 -14 10z"/>
<path d="M3177 933 c-26 -25 9 -69 45 -57 l23 8 -25 6 c-18 5 -24 12 -23 28 3
22 -7 29 -20 15z"/>
<path d="M84 789 c-3 -5 691 -9 1647 -9 909 0 1649 3 1645 7 -11 11 -3285 13
-3292 2z"/>
<path d="M660 721 c-69 -6 -72 -7 -47 -18 27 -12 27 -13 27 -115 2 -354 2
-415 1 -436 -1 -15 -11 -27 -28 -35 -26 -11 -24 -12 35 -15 34 -2 88 -2 120 0
54 3 56 4 30 15 l-28 12 -2 298 c-3 256 -5 298 -18 299 -8 0 -49 -2 -90 -5z"/>
<path d="M2377 702 c-56 -61 41 -136 111 -86 27 19 29 64 4 87 -26 23 -94 22
-115 -1z"/>
<path d="M83 664 c4 -4 17 -12 29 -18 23 -12 23 -12 23 -261 l0 -250 -30 -15
c-28 -14 -13 -15 199 -18 126 -1 230 -1 232 1 2 1 0 44 -3 95 -6 98 -12 104
-32 34 -7 -24 -25 -57 -40 -74 -25 -29 -35 -32 -95 -36 -42 -3 -72 0 -79 7
-12 12 -20 177 -11 224 11 54 90 21 115 -48 7 -19 16 -35 20 -35 4 0 7 52 6
115 -1 63 -5 115 -10 115 -4 0 -12 -12 -18 -27 -17 -47 -49 -73 -86 -73 l-34
0 4 114 c3 63 8 119 11 125 9 15 108 14 140 -1 32 -14 51 -42 66 -96 18 -67
30 -49 30 43 l0 85 -222 0 c-122 0 -218 -3 -215 -6z"/>
<path d="M1055 660 c3 -5 15 -10 26 -10 11 0 23 -10 28 -23 11 -28 13 -433 2
-473 -5 -19 -15 -30 -29 -32 -12 -2 -22 -8 -22 -13 0 -5 55 -9 127 -9 125 0
134 2 91 24 -22 11 -23 18 -26 129 l-3 117 39 0 c54 0 69 -21 92 -130 12 -51
25 -101 31 -112 21 -38 115 -51 169 -23 39 20 38 33 -2 31 l-33 -1 -21 83
c-24 94 -48 127 -107 144 l-39 12 45 13 c49 14 102 65 113 108 18 71 -26 135
-109 160 -60 18 -383 22 -372 5z m319 -41 c22 -25 26 -41 26 -90 0 -99 -32
-139 -109 -139 l-41 0 0 114 c0 63 3 121 6 130 4 11 19 16 49 16 36 0 48 -5
69 -31z"/>
<path d="M2130 627 c-45 -12 -45 -12 -48 -59 -3 -46 -5 -48 -33 -48 -16 0 -29
-4 -29 -10 0 -5 14 -10 30 -10 l30 0 1 -132 c1 -240 15 -278 105 -278 53 0 89
15 110 47 21 33 9 42 -17 14 -12 -13 -30 -21 -42 -19 -22 3 -22 7 -25 186 l-2
182 45 0 c25 0 45 5 45 10 0 6 -20 10 -45 10 l-45 0 0 60 c0 67 0 67 -80 47z"/>
<path d="M1755 516 c-48 -18 -101 -76 -115 -125 -5 -20 -10 -58 -10 -86 0
-137 68 -215 187 -215 62 0 111 25 144 75 33 48 27 66 -10 31 -39 -38 -84 -51
-118 -34 -45 22 -73 73 -73 134 l0 54 115 0 115 0 0 28 c-1 40 -34 108 -63
127 -36 23 -123 29 -172 11z m111 -41 c7 -19 14 -53 14 -75 l0 -40 -60 0 -60
0 0 34 c0 99 74 156 106 81z"/>
<path d="M2825 518 c-11 -6 -30 -20 -42 -31 l-23 -20 0 26 0 26 -85 -1 c-47
-1 -85 -6 -85 -10 0 -4 4 -8 9 -8 5 0 17 -7 25 -16 13 -13 16 -43 16 -174 0
-87 -3 -165 -6 -174 -3 -9 -15 -16 -25 -16 -10 0 -19 -4 -19 -10 0 -6 49 -10
126 -10 81 0 123 4 119 10 -3 6 -15 10 -25 10 -43 0 -50 23 -50 168 0 113 3
142 17 162 36 53 84 71 55 21 -13 -24 -14 -34 -4 -55 10 -22 18 -26 51 -26 47
0 65 19 65 67 0 59 -64 92 -119 61z"/>
<path d="M3095 516 c-87 -33 -135 -132 -120 -249 15 -117 83 -177 200 -177
144 0 214 83 203 241 -7 86 -39 147 -91 172 -51 25 -142 31 -192 13z m129 -39
c19 -26 21 -42 21 -165 0 -113 -3 -143 -18 -170 -15 -28 -23 -33 -50 -30 -48
5 -67 47 -74 162 -6 99 5 168 34 212 21 33 59 28 87 -9z"/>
<path d="M2330 508 c0 -4 9 -10 20 -13 28 -9 31 -30 28 -205 -3 -150 -4 -155
-25 -165 -44 -19 -22 -25 87 -25 109 0 131 6 88 25 -23 10 -23 14 -26 202 l-2
193 -85 -3 c-47 -1 -85 -5 -85 -9z"/>
</g>
</svg>
