<?xml version="1.0" standalone="no"?>
<!DOCTYPE svg PUBLIC "-//W3C//DTD SVG 20010904//EN"
 "http://www.w3.org/TR/2001/REC-SVG-20010904/DTD/svg10.dtd">
<svg version="1.0" xmlns="http://www.w3.org/2000/svg"
 width="223.000000pt" height="168.000000pt" viewBox="0 0 223.000000 168.000000"
 preserveAspectRatio="xMidYMid meet">

<g transform="translate(0.000000,168.000000) scale(0.100000,-0.100000)"
fill="#000000" stroke="none">
<path d="M1688 1567 c-134 -38 -198 -134 -198 -294 0 -131 57 -230 159 -276
68 -31 198 -30 266 1 65 30 108 73 137 136 32 71 33 219 2 286 -26 58 -77 108
-132 132 -56 25 -172 32 -234 15z m182 -105 c20 -11 46 -38 60 -63 21 -37 25
-57 25 -124 0 -66 -5 -88 -25 -124 -32 -56 -78 -81 -150 -81 -108 0 -161 62
-168 194 -3 70 0 87 20 126 32 63 77 90 147 90 36 0 69 -7 91 -18z"/>
<path d="M220 1275 l0 -295 240 0 240 0 0 45 0 45 -177 2 -178 3 0 80 0 80
153 3 152 3 0 44 0 45 -155 0 -156 0 3 73 3 72 168 3 167 2 0 45 0 45 -230 0
-230 0 0 -295z"/>
<path d="M790 1275 l0 -295 55 0 55 0 1 233 c0 207 2 228 14 192 7 -22 41
-127 74 -232 l62 -193 43 0 42 0 62 193 c33 105 67 212 74 237 12 41 13 23 16
-192 l2 -238 50 0 50 0 0 295 0 295 -79 0 -80 0 -50 -157 c-27 -87 -57 -184
-66 -215 -9 -32 -18 -58 -20 -58 -2 0 -8 15 -13 33 -6 17 -36 114 -68 215
l-57 182 -84 0 -83 0 0 -295z"/>
<path d="M472 263 c1 -73 2 -78 5 -28 2 33 8 64 12 68 5 5 19 -21 32 -57 13
-36 27 -66 31 -66 3 0 19 33 35 73 l28 72 3 -72 c4 -102 22 -92 22 12 0 66 -3
85 -14 85 -12 0 -43 -59 -61 -119 -9 -30 -17 -20 -45 57 -33 92 -50 83 -48
-25z"/>
<path d="M721 328 c-5 -13 -20 -51 -34 -85 -14 -35 -22 -63 -18 -63 4 0 13 11
19 25 10 20 19 25 51 25 33 0 40 -4 45 -25 4 -14 11 -25 16 -25 5 0 1 22 -10
50 -52 133 -54 136 -69 98z m39 -65 c0 -7 -11 -13 -25 -13 -29 0 -28 -2 -14
40 l12 33 13 -24 c7 -13 13 -30 14 -36z"/>
<path d="M820 340 c0 -5 11 -10 25 -10 24 0 25 -2 25 -75 0 -43 4 -75 10 -75
6 0 10 32 10 75 0 73 1 75 25 75 14 0 25 5 25 10 0 6 -27 10 -60 10 -33 0 -60
-4 -60 -10z"/>
<path d="M970 265 l0 -85 45 0 c25 0 45 5 45 10 0 6 -16 10 -35 10 -32 0 -35
2 -35 30 0 28 3 30 36 30 21 0 33 4 29 10 -3 6 -19 10 -36 10 -24 0 -29 4 -29
25 0 22 4 25 35 25 19 0 35 5 35 10 0 6 -20 10 -45 10 l-45 0 0 -85z"/>
<path d="M1112 263 c1 -49 3 -71 5 -50 4 31 8 37 27 37 16 0 27 -10 39 -35 9
-19 22 -35 28 -35 6 0 2 16 -10 36 -20 33 -20 38 -6 54 36 39 8 80 -54 80
l-31 0 2 -87z m73 37 c0 -21 -5 -26 -32 -28 -31 -3 -33 -1 -33 28 0 29 2 31
33 28 27 -2 32 -7 32 -28z"/>
<path d="M1250 265 c0 -50 4 -85 10 -85 6 0 10 35 10 85 0 50 -4 85 -10 85 -6
0 -10 -35 -10 -85z"/>
<path d="M1337 283 c-40 -103 -40 -103 -29 -103 5 0 13 11 16 25 5 21 12 25
45 25 31 0 40 -5 50 -26 6 -15 14 -24 18 -21 7 8 -56 167 -67 167 -4 0 -19
-30 -33 -67z m59 -30 c-2 -3 -15 -3 -29 -1 -25 3 -25 4 -11 38 l15 35 15 -34
c8 -19 12 -36 10 -38z"/>
<path d="M1470 265 l0 -85 45 0 c25 0 45 5 45 10 0 6 -16 10 -35 10 l-35 0 0
75 c0 43 -4 75 -10 75 -6 0 -10 -35 -10 -85z"/>
<path d="M1600 265 l0 -85 45 0 c25 0 45 5 45 10 0 6 -18 10 -40 10 -38 0 -40
2 -40 30 0 28 3 30 35 30 19 0 35 5 35 10 0 6 -16 10 -35 10 -31 0 -35 3 -35
25 0 23 4 25 40 25 22 0 40 5 40 10 0 6 -20 10 -45 10 l-45 0 0 -85z"/>
<path d="M1736 334 c-29 -29 -14 -56 47 -82 44 -19 32 -46 -21 -50 -46 -3 -49
-22 -3 -22 70 0 83 62 18 93 -51 24 -47 50 8 57 30 4 35 7 22 13 -29 11 -54 8
-71 -9z"/>
</g>
</svg>
