<?xml version="1.0" encoding="UTF-8"?>
<svg version="1.1" xmlns="http://www.w3.org/2000/svg" width="296" height="206">
<path d="M0 0 C1.1978009 -0.0049926 1.1978009 -0.0049926 2.4197998 -0.01008606 C4.1006615 -0.015127 5.7815331 -0.01749527 7.46240234 -0.01733398 C10.02328009 -0.01952443 12.58372933 -0.03772086 15.14453125 -0.05664062 C16.7838527 -0.05957442 18.42317619 -0.06155931 20.0625 -0.0625 C20.82203979 -0.06968552 21.58157959 -0.07687103 22.36413574 -0.08427429 C26.82183386 -0.06525118 30.38068121 0.56746275 34.53125 2.16796875 C40.88937801 3.38645726 45.76451894 3.51386462 51.69921875 0.87890625 C56.98324954 -1.17161316 62.41721566 0.3083199 67.53125 2.16796875 C68.583125 2.88984375 69.635 3.61171875 70.71875 4.35546875 C73.27166541 6.37629884 73.27166541 6.37629884 75.65625 6.10546875 C77.59887342 5.22093615 77.59887342 5.22093615 79.28125 3.73046875 C84.18328742 0.3262761 88.92826403 -0.18182404 94.65625 0.79296875 C101.28729034 2.38970699 105.67804475 5.52577535 109.53125 11.16796875 C111.28863061 14.86903306 111.78010334 17.77690376 111.77416992 21.86035156 C111.77724655 22.97790833 111.78032318 24.09546509 111.78349304 25.24688721 C111.77271477 27.04086945 111.77271477 27.04086945 111.76171875 28.87109375 C111.76126053 30.10462585 111.76080231 31.33815796 111.7603302 32.60906982 C111.75654104 35.8769525 111.74355152 39.14463903 111.72686768 42.41247559 C111.71336785 45.74764206 111.71659211 49.08277596 111.71679688 52.41796875 C111.71188344 54.94401243 111.70605589 57.47005454 111.69921875 59.99609375 C111.69810593 61.20017883 111.6969931 62.40426392 111.69584656 63.64483643 C111.68946671 64.74978455 111.68308685 65.85473267 111.67651367 66.99316406 C111.67270187 67.97069641 111.66889008 68.94822876 111.66496277 69.9553833 C111.53125 72.16796875 111.53125 72.16796875 110.53125 73.16796875 C108.99773945 73.2703179 107.45953596 73.3031618 105.92262268 73.30841064 C104.92600113 73.31412079 103.92937958 73.31983093 102.90255737 73.32571411 C101.79977448 73.32683197 100.69699158 73.32794983 99.56079102 73.32910156 C97.82902367 73.33654892 97.82902367 73.33654892 96.06227112 73.34414673 C92.21989354 73.35882128 88.37755732 73.36558125 84.53515625 73.37109375 C82.54340752 73.37539088 80.55165879 73.37968852 78.55991024 73.38406825 C73.00220228 73.39589541 67.44450436 73.40342134 61.88678509 73.40686345 C54.7129375 73.41133103 47.53928171 73.42881171 40.3654924 73.45786405 C34.81546411 73.4795546 29.26548942 73.48957185 23.71541923 73.49090457 C20.40402636 73.49194847 17.09285336 73.49923072 13.78149605 73.51572418 C10.07627173 73.53285275 6.37150804 73.53088678 2.66625977 73.52441406 C1.58169495 73.53362885 0.49713013 73.54284363 -0.62030029 73.55233765 C-9.52426003 73.50381757 -18.56452646 72.25026092 -25.46875 66.16796875 C-28.99992203 61.41192143 -30.14445628 56.63255404 -29.9453125 50.7578125 C-29.23420642 46.89335895 -27.49696715 43.82398874 -25.46484375 40.4921875 C-24.20632897 37.55565301 -24.50679555 36.17888617 -25.46875 33.16796875 C-26.11181829 31.87408437 -26.79947009 30.60133061 -27.53125 29.35546875 C-30.07886178 24.37222813 -30.35839283 20.14677283 -28.7734375 14.83984375 C-26.27569468 8.50103425 -23.12658414 4.99688582 -16.96875 1.91796875 C-11.35511229 0.23387744 -5.82426932 0.0085333 0 0 Z " fill="#D3242B" transform="translate(75.46875,96.83203125)"/>
<path d="M0 0 C1.1978009 -0.0049926 1.1978009 -0.0049926 2.4197998 -0.01008606 C4.1006615 -0.015127 5.7815331 -0.01749527 7.46240234 -0.01733398 C10.02328009 -0.01952443 12.58372933 -0.03772086 15.14453125 -0.05664062 C16.7838527 -0.05957442 18.42317619 -0.06155931 20.0625 -0.0625 C20.82203979 -0.06968552 21.58157959 -0.07687103 22.36413574 -0.08427429 C26.82904695 -0.0652204 30.36679583 0.59919864 34.53125 2.16796875 C36.81577807 2.44377738 39.10943383 2.65234735 41.40625 2.79296875 C43.13488281 2.90511719 43.13488281 2.90511719 44.8984375 3.01953125 C46.20167969 3.09300781 46.20167969 3.09300781 47.53125 3.16796875 C45.88671875 5.2109375 45.88671875 5.2109375 43.53125 7.16796875 C40.76953125 7.15625 40.76953125 7.15625 37.84375 6.48046875 C36.87050781 6.27035156 35.89726563 6.06023437 34.89453125 5.84375 C32.53125 5.16796875 32.53125 5.16796875 31.53125 4.16796875 C31.20125 10.10796875 30.87125 16.04796875 30.53125 22.16796875 C18.32125 22.49796875 6.11125 22.82796875 -6.46875 23.16796875 C-6.46875 24.15796875 -6.46875 25.14796875 -6.46875 26.16796875 C5.74125 26.16796875 17.95125 26.16796875 30.53125 26.16796875 C30.53125 32.76796875 30.53125 39.36796875 30.53125 46.16796875 C24.96305269 46.78665734 20.03176635 47.29122697 14.52734375 47.265625 C13.29306641 47.26240234 12.05878906 47.25917969 10.78710938 47.25585938 C9.52705078 47.24748047 8.26699219 47.23910156 6.96875 47.23046875 C5.02645508 47.22370117 5.02645508 47.22370117 3.04492188 47.21679688 C-0.126351 47.20509476 -3.29752546 47.18869988 -6.46875 47.16796875 C-6.46875 48.15796875 -6.46875 49.14796875 -6.46875 50.16796875 C11.84625 50.66296875 11.84625 50.66296875 30.53125 51.16796875 C30.53125 58.09796875 30.53125 65.02796875 30.53125 72.16796875 C32.51125 72.16796875 34.49125 72.16796875 36.53125 72.16796875 C36.53125 72.49796875 36.53125 72.82796875 36.53125 73.16796875 C30.16332776 73.24453104 23.79552584 73.29678198 17.42724609 73.33276367 C15.26444055 73.34777643 13.10166507 73.36819291 10.93896484 73.39428711 C7.81600489 73.43100241 4.6934502 73.44777071 1.5703125 73.4609375 C0.13844101 73.48416328 0.13844101 73.48416328 -1.32235718 73.50785828 C-9.96302816 73.50998598 -18.79730042 72.04519814 -25.46875 66.16796875 C-28.99992203 61.41192143 -30.14445628 56.63255404 -29.9453125 50.7578125 C-29.23420642 46.89335895 -27.49696715 43.82398874 -25.46484375 40.4921875 C-24.20632897 37.55565301 -24.50679555 36.17888617 -25.46875 33.16796875 C-26.11181829 31.87408437 -26.79947009 30.60133061 -27.53125 29.35546875 C-30.07886178 24.37222813 -30.35839283 20.14677283 -28.7734375 14.83984375 C-26.27569468 8.50103425 -23.12658414 4.99688582 -16.96875 1.91796875 C-11.35511229 0.23387744 -5.82426932 0.0085333 0 0 Z " fill="#D3242B" transform="translate(75.46875,96.83203125)"/>
<path d="M0 0 C4.57170215 3.7286316 8.41978164 7.50226858 9.4140625 13.49609375 C9.92332292 20.59744737 10.15396728 27.6942304 10.25 34.8125 C10.282146 36.13689087 10.282146 36.13689087 10.31494141 37.48803711 C10.35478954 45.32852584 8.43998311 52.05279426 3.64453125 58.3984375 C-2.44238422 64.32631243 -11.85232793 67.00493819 -20.125 67.375 C-28.59139227 67.20007454 -37.92110489 64.87077077 -44.63671875 59.48828125 C-51.4576371 52.04194918 -51.21302825 42.88718486 -51.24023438 33.37524414 C-51.24988719 31.33632777 -51.28091172 29.29844352 -51.3125 27.25976562 C-51.35053045 17.62380046 -50.82058056 8.9308408 -44.0078125 1.5703125 C-31.07994465 -8.54058804 -13.68293416 -7.9694509 0 0 Z " fill="#D3262D" transform="translate(244,103)"/>
<path d="M0 0 C5.94 1.485 5.94 1.485 12 3 C11.5155542 4.37720215 11.0311084 5.7544043 10.53198242 7.17333984 C8.63304298 13.53253024 8.52421595 19.62822675 8.48828125 26.2265625 C8.47033005 27.45539154 8.45237885 28.68422058 8.43388367 29.95028687 C8.38007584 33.84182391 8.34597906 37.73324037 8.3125 41.625 C8.27930096 44.27736042 8.24480894 46.92970499 8.20898438 49.58203125 C8.12436628 56.0545793 8.0558923 62.52714353 8 69 C5.36 69 2.72 69 0 69 C0 62.07 0 55.14 0 48 C-1.66546875 48.01160156 -3.3309375 48.02320313 -5.046875 48.03515625 C-7.28124887 48.04454438 -9.51562396 48.05364347 -11.75 48.0625 C-12.84183594 48.07087891 -13.93367188 48.07925781 -15.05859375 48.08789062 C-22.4247337 48.10968394 -29.67078775 47.7350759 -37 47 C-37 46.01 -37 45.02 -37 44 C-24.79 43.67 -12.58 43.34 0 43 C0 36.4 0 29.8 0 23 C-12.21 23 -24.42 23 -37 23 C-37 22.01 -37 21.02 -37 20 C-28.74973532 19.07191062 -20.6096172 18.8769371 -12.3125 18.9375 C-11.12205078 18.94201172 -9.93160156 18.94652344 -8.70507812 18.95117188 C-5.80336317 18.96282535 -2.90167454 18.98075529 0 19 C0 12.73 0 6.46 0 0 Z " fill="#FBF3F4" transform="translate(106,100)"/>
<path d="M0 0 C3.29714793 0.32971479 4.6226839 0.6226839 7 3 C7.25878906 5.91748047 7.25878906 5.91748047 7.265625 9.6171875 C7.26753845 10.27075226 7.2694519 10.92431702 7.27142334 11.59768677 C7.27278487 12.98130681 7.26909064 14.36493963 7.26074219 15.74853516 C7.2500758 17.85999538 7.26062002 19.97059815 7.2734375 22.08203125 C7.27211523 23.4270852 7.26955143 24.77213863 7.265625 26.1171875 C7.26336914 27.34034668 7.26111328 28.56350586 7.25878906 29.82373047 C7.01517874 32.81370244 6.57238397 34.48996302 5 37 C2.625 37.1875 2.625 37.1875 0 37 C-2.495784 33.256324 -2.25793785 31.24879488 -2.265625 26.77734375 C-2.26753845 26.0760585 -2.2694519 25.37477325 -2.27142334 24.65223694 C-2.27278267 23.17204428 -2.26910382 21.69183959 -2.26074219 20.21166992 C-2.25002255 17.94227456 -2.2606537 15.67366789 -2.2734375 13.40429688 C-2.27211617 11.96614408 -2.26955434 10.52799178 -2.265625 9.08984375 C-2.26336914 7.77878662 -2.26111328 6.46772949 -2.25878906 5.11694336 C-2 2 -2 2 0 0 Z " fill="#FEFCFC" transform="translate(221,115)"/>
<path d="M0 0 C0.66 0 1.32 0 2 0 C2.87946055 10.83610406 3.12621666 21.57080422 3.0625 32.4375 C3.05746574 33.95898287 3.0529063 35.48046739 3.04882812 37.00195312 C3.03799622 40.66800397 3.02084235 44.33399074 3 48 C1.68 48 0.36 48 -1 48 C-1.0251577 43.57495466 -1.04307066 39.14994978 -1.05493164 34.72485352 C-1.05988838 33.22679924 -1.06665574 31.72874961 -1.07543945 30.23071289 C-1.13323303 20.10323824 -0.81950418 10.09736327 0 0 Z " fill="#F6DDDE" transform="translate(136,121)"/>
<path d="M0 0 C0.66 0 1.32 0 2 0 C2.86032949 10.67021952 3.12737806 21.23751657 3.0625 31.9375 C3.057465 33.41080574 3.0529057 34.88411318 3.04882812 36.35742188 C3.03800377 39.9049844 3.02085455 43.45248052 3 47 C1.68 47 0.36 47 -1 47 C-1.02517599 42.71737012 -1.04307876 38.43478221 -1.05493164 34.15209961 C-1.05988546 32.70254768 -1.06665038 31.25300054 -1.07543945 29.8034668 C-1.13435597 19.81885063 -0.80267972 9.95521938 0 0 Z " fill="#F8DFE0" transform="translate(162,121)"/>
<path d="M0 0 C0.96099609 0.2165625 0.96099609 0.2165625 1.94140625 0.4375 C7.08040377 1.54035491 11.74695843 2.22839311 17 2 C15.6875 4.125 15.6875 4.125 13 6 C9.16828965 5.94340162 5.57075503 5.40563055 2 4 C0.6640625 1.90625 0.6640625 1.90625 0 0 Z " fill="#564D4D" transform="translate(106,98)"/>
<path d="M0 0 C5.94 1.485 5.94 1.485 12 3 C12 3.66 12 4.32 12 5 C11.071875 4.95875 10.14375 4.9175 9.1875 4.875 C5.84190281 4.72863661 5.84190281 4.72863661 3 7 C2.01 7 1.02 7 0 7 C0 4.69 0 2.38 0 0 Z " fill="#C2C1C1" transform="translate(106,100)"/>
</svg>
