<?xml version="1.0" standalone="no"?>
<!DOCTYPE svg PUBLIC "-//W3C//DTD SVG 20010904//EN"
 "http://www.w3.org/TR/2001/REC-SVG-20010904/DTD/svg10.dtd">
<svg version="1.0" xmlns="http://www.w3.org/2000/svg"
 width="612.000000pt" height="408.000000pt" viewBox="0 0 612.000000 408.000000"
 preserveAspectRatio="xMidYMid meet">

<g transform="translate(0.000000,408.000000) scale(0.100000,-0.100000)"
fill="#000000" stroke="none">
<path d="M2394 3499 c-65 -15 -111 -63 -129 -133 -17 -67 -35 -92 -75 -101
-15 -3 -61 -25 -101 -49 -41 -24 -106 -62 -146 -84 -88 -52 -125 -95 -149
-175 -10 -34 -47 -136 -82 -227 -35 -91 -66 -185 -69 -210 -5 -41 -2 -49 26
-79 17 -18 31 -36 31 -39 0 -4 -25 -70 -56 -148 l-56 -141 26 -42 c15 -23 42
-59 61 -79 28 -32 35 -49 44 -116 6 -42 11 -79 11 -82 0 -2 -38 -4 -85 -4
l-85 0 0 129 c0 140 -4 163 -26 154 -10 -3 -12 0 -8 10 3 8 1 18 -5 21 -5 4
-12 -3 -16 -14 -9 -28 -28 -25 -20 3 5 20 5 20 -9 -3 l-14 -25 -4 35 c-3 37
-21 47 -25 14 -3 -18 -2 -18 6 1 8 17 10 14 10 -15 1 -23 -2 -30 -8 -21 -7 11
-9 11 -14 0 -7 -21 -36 20 -37 51 0 20 2 22 10 10 5 -8 10 -10 10 -5 0 6 -4
16 -9 23 -7 11 -9 10 -14 -3 -5 -13 -11 -14 -27 -5 -25 13 -27 -7 -5 -50 9
-18 11 -31 5 -35 -6 -4 -10 -62 -10 -140 l0 -134 -72 -4 c-40 -1 448 -4 1085
-5 1096 -2 1157 -1 1156 16 0 10 -3 12 -6 5 -2 -7 -18 -13 -34 -13 -23 0 -29
4 -29 23 0 17 -2 19 -9 7 -6 -8 -8 -17 -6 -20 2 -3 -15 -7 -38 -9 l-42 -2 30
31 c16 17 35 28 41 26 7 -3 10 3 7 14 -4 16 -9 14 -36 -17 -30 -34 -74 -59
-85 -48 -3 3 15 27 41 53 26 26 47 52 47 58 0 6 9 19 20 29 11 10 17 21 14 26
-2 4 8 15 23 23 15 8 23 15 17 16 -6 0 -23 -9 -37 -20 -31 -25 -48 -8 -21 21
18 20 17 20 -15 14 -33 -6 -33 -5 -28 27 2 19 -2 45 -10 61 -16 33 -17 32 61
117 l51 55 -56 -53 c-30 -29 -58 -50 -61 -46 -6 5 -10 -15 -22 -130 l-6 -48
35 4 c19 2 35 2 35 0 0 -3 -15 -22 -34 -43 -19 -20 -52 -67 -72 -103 l-38 -66
-198 0 c-137 0 -198 3 -198 11 0 14 53 64 103 97 20 13 37 27 37 29 0 7 -50
-25 -76 -49 -13 -11 -28 -16 -40 -12 -14 4 -15 3 -5 -4 11 -8 11 -11 0 -18
-11 -7 -22 5 -20 21 1 3 -14 19 -32 35 -24 21 -40 27 -56 23 -22 -6 -23 -4
-17 38 5 41 5 42 -5 11 -5 -18 -14 -30 -20 -27 -5 4 -7 10 -4 15 6 9 -33 40
-50 40 -5 -1 0 -6 12 -13 12 -7 22 -16 23 -22 1 -5 11 -20 22 -32 18 -20 19
-25 7 -40 -12 -16 -12 -17 2 -5 14 10 23 5 63 -38 25 -27 46 -52 46 -56 0 -15
-58 10 -87 38 -30 29 -53 31 -53 5 0 -7 4 -6 10 3 8 13 15 10 42 -18 l33 -33
-42 3 c-22 2 -39 6 -37 9 2 4 -8 10 -24 14 -39 9 -72 33 -82 58 -7 19 -9 19
-9 4 -1 -11 8 -26 20 -35 13 -11 18 -23 14 -35 -6 -15 -26 -17 -201 -17 l-194
0 1 143 0 142 27 -55 27 -55 5 207 5 208 26 24 c15 14 30 22 34 18 4 -4 4 14
1 41 l-7 47 76 0 77 0 -7 -42 c-18 -119 -11 -108 -71 -108 -51 0 -54 1 -54 25
0 14 -4 25 -10 25 -9 0 -6 -15 10 -55 5 -11 12 -46 15 -78 5 -41 14 -66 33
-90 57 -69 82 -73 135 -22 42 41 48 42 65 15 7 -11 19 -20 27 -20 24 0 29 27
11 55 -9 14 -14 29 -12 34 3 5 -4 11 -15 14 -11 3 -23 15 -26 26 -3 11 -9 19
-13 16 -5 -3 -19 0 -32 5 -22 11 -23 15 -26 153 -1 78 -9 202 -17 275 -26 238
-19 321 36 391 29 36 23 42 -11 11 -16 -15 -30 -38 -30 -50 0 -12 -4 -30 -10
-40 -9 -17 -13 -17 -47 -5 -21 8 -50 16 -64 19 -59 12 -79 126 -23 126 37 0
84 50 84 90 l0 32 35 -31 c19 -17 49 -38 66 -46 24 -13 29 -20 23 -38 -6 -20
-5 -21 8 -4 7 10 25 23 38 30 49 24 36 113 -29 195 -57 72 -127 99 -207 81z
m-99 -259 c17 -34 12 -70 -10 -70 -18 0 -35 31 -35 63 0 46 23 50 45 7z m-22
-78 c11 -2 17 -13 17 -33 0 -16 -2 -29 -5 -29 -2 0 -16 21 -29 48 -14 26 -25
43 -26 39 0 -4 18 -42 40 -83 44 -83 48 -102 24 -111 -13 -5 -13 -7 -2 -14 10
-6 12 -37 11 -124 -2 -64 -6 -122 -10 -128 -8 -14 -10 -9 -74 268 l-51 219 28
24 28 25 16 -49 c10 -29 24 -50 33 -52z m98 -303 c-5 -119 -18 -129 -23 -18
-5 99 -3 113 15 106 8 -3 11 -30 8 -88z m-1 -323 c0 -15 -18 -31 -26 -23 -7 7
7 37 17 37 5 0 9 -6 9 -14z m-35 -26 c10 -11 16 -20 14 -20 -3 0 -22 9 -44 20
-35 18 -37 20 -14 20 14 0 34 -9 44 -20z m-7 -25 c18 -11 32 -26 32 -34 0 -12
-3 -12 -12 -3 -7 7 -32 11 -57 11 l-46 -2 42 -6 c24 -4 45 -10 49 -13 14 -15
-10 -28 -54 -30 -44 -1 -45 -2 -9 -5 43 -5 40 -23 -4 -23 -17 0 -28 -4 -25 -9
7 -11 -17 -21 -54 -21 -42 0 -60 10 -61 34 -1 13 -5 7 -11 -16 -6 -21 -14 -38
-19 -38 -13 0 -12 9 16 86 21 58 24 63 20 29 l-5 -40 13 44 c10 37 18 46 47
56 40 14 94 6 138 -20z m227 -180 c66 -37 127 -107 108 -126 -7 -7 -20 1 -41
25 -17 20 -33 36 -36 36 -3 0 -6 -12 -8 -26 -4 -39 -26 -48 -76 -35 -55 15
-54 27 3 23 30 -3 45 0 45 8 0 7 -7 10 -15 6 -16 -6 -21 17 -17 79 2 23 0 27
-8 15 -5 -8 -7 -34 -4 -57 5 -34 3 -43 -9 -43 -8 0 -18 11 -21 25 -4 15 -18
30 -32 35 -32 12 -29 40 6 57 34 17 35 17 105 -22z m-97 -68 c2 -10 -3 -17
-12 -17 -9 0 -16 2 -16 4 0 2 -3 12 -6 21 -5 13 -2 16 12 13 10 -2 20 -11 22
-21z m67 -77 l20 -9 -20 0 c-11 0 -27 4 -35 9 -13 9 -13 10 0 9 8 0 24 -4 35
-9z m-1142 -55 c20 -42 4 -47 -18 -5 -17 33 -18 40 -7 40 5 0 16 -16 25 -35z
m1974 -87 c-3 -7 -5 -2 -5 12 0 14 2 19 5 13 2 -7 2 -19 0 -25z m47 -64 c7
-18 0 -34 -15 -34 -5 0 -9 11 -9 25 0 28 15 34 24 9z m-581 -64 c25 -29 43
-68 35 -76 -9 -8 -90 85 -84 95 11 17 22 13 49 -19z m561 22 c4 -7 -77 -102
-88 -102 -14 0 -3 31 24 68 28 39 52 52 64 34z m-694 -112 c0 -5 -9 -10 -19
-10 -11 0 -23 5 -26 10 -4 6 5 10 19 10 14 0 26 -4 26 -10z"/>
<path d="M2221 3214 c0 -11 3 -14 6 -6 3 7 2 16 -1 19 -3 4 -6 -2 -5 -13z"/>
<path d="M3770 3490 c0 -5 5 -10 10 -10 6 0 10 5 10 10 0 6 -4 10 -10 10 -5 0
-10 -4 -10 -10z"/>
<path d="M4330 3490 c0 -5 5 -10 10 -10 6 0 10 5 10 10 0 6 -4 10 -10 10 -5 0
-10 -4 -10 -10z"/>
<path d="M4478 3380 c-9 -6 -22 -27 -29 -48 -24 -75 -60 -90 -118 -48 -41 31
-67 24 -92 -26 -39 -76 -103 -71 -127 10 -15 49 -32 64 -69 60 -25 -3 -31 -11
-58 -86 -41 -115 -78 -133 -105 -53 -16 51 -31 63 -67 59 -26 -3 -31 -11 -61
-98 l-32 -95 30 34 c41 46 75 46 131 -2 51 -44 70 -46 118 -8 29 22 50 29 105
34 50 5 80 14 107 32 55 36 81 33 119 -15 38 -48 65 -57 115 -36 21 9 47 16
59 16 21 0 94 -43 108 -64 14 -21 8 20 -26 169 -39 168 -56 195 -108 165z"/>
<path d="M2840 3285 c0 -8 7 -15 15 -15 8 0 15 7 15 15 0 8 -7 15 -15 15 -8 0
-15 -7 -15 -15z"/>
<path d="M2905 3291 c-7 -12 12 -24 25 -16 11 7 4 25 -10 25 -5 0 -11 -4 -15
-9z"/>
<path d="M2972 3288 c6 -18 28 -21 28 -4 0 9 -7 16 -16 16 -9 0 -14 -5 -12
-12z"/>
<path d="M2425 3169 c-3 -4 8 -10 25 -14 16 -4 32 -11 35 -16 4 -5 11 -9 17
-9 6 0 3 9 -6 19 -19 20 -63 33 -71 20z"/>
<path d="M2447 3133 c-12 -11 -8 -23 8 -23 8 0 15 7 15 15 0 16 -12 20 -23 8z"/>
<path d="M3583 3003 c-9 -3 -13 -31 -13 -89 0 -68 3 -84 15 -84 12 0 15 17 15
90 0 50 -1 90 -2 89 -2 0 -9 -3 -15 -6z"/>
<path d="M3046 2925 c-21 -7 -42 -19 -46 -25 -4 -7 -10 -43 -14 -81 -5 -54 -3
-73 8 -85 21 -20 44 -17 51 6 9 27 17 25 37 -10 9 -17 25 -30 36 -30 10 0 37
-9 60 -20 23 -11 53 -21 67 -22 14 -1 25 -6 25 -11 0 -5 11 4 24 20 21 25 24
38 22 98 -2 87 -19 115 -92 149 -61 29 -118 33 -178 11z"/>
<path d="M3656 2898 c1 -18 2 -41 3 -50 1 -10 8 -18 16 -18 11 0 15 12 15 50
0 41 -3 50 -18 50 -14 0 -17 -7 -16 -32z"/>
<path d="M3740 2880 c0 -38 4 -50 15 -50 11 0 15 12 15 50 0 38 -4 50 -15 50
-11 0 -15 -12 -15 -50z"/>
<path d="M3820 2880 c0 -42 3 -50 19 -50 15 0 19 8 20 50 0 44 -2 50 -19 50
-17 0 -20 -7 -20 -50z"/>
<path d="M3908 2880 c3 -35 8 -50 18 -50 10 0 14 14 14 50 0 41 -3 50 -17 50
-15 0 -17 -8 -15 -50z"/>
<path d="M3990 2880 c0 -36 4 -50 14 -50 10 0 15 15 18 50 2 42 0 50 -14 50
-15 0 -18 -9 -18 -50z"/>
<path d="M4078 2880 c3 -35 8 -50 18 -50 10 0 14 14 14 50 0 41 -3 50 -17 50
-15 0 -17 -8 -15 -50z"/>
<path d="M4160 2880 c0 -36 4 -50 14 -50 10 0 15 15 18 50 2 42 0 50 -14 50
-15 0 -18 -9 -18 -50z"/>
<path d="M4246 2883 c1 -36 6 -49 18 -51 13 -3 16 6 16 47 0 42 -3 51 -17 51
-15 0 -18 -8 -17 -47z"/>
<path d="M4330 2880 c0 -36 4 -50 14 -50 10 0 15 15 18 50 2 42 0 50 -14 50
-15 0 -18 -9 -18 -50z"/>
<path d="M3001 2688 c-1 -31 -17 -38 -24 -10 -4 14 -5 14 -6 1 0 -9 6 -22 14
-29 12 -10 15 -7 21 14 3 14 4 31 1 38 -3 7 -6 1 -6 -14z"/>
<path d="M3241 2621 c-1 -20 1 -21 14 -11 16 14 21 25 6 16 -5 -4 -12 0 -14 6
-3 7 -6 2 -6 -11z"/>
<path d="M3070 2620 c8 -5 20 -10 25 -10 6 0 3 5 -5 10 -8 5 -19 10 -25 10 -5
0 -3 -5 5 -10z"/>
<path d="M3163 2603 c9 -2 23 -2 30 0 6 3 -1 5 -18 5 -16 0 -22 -2 -12 -5z"/>
<path d="M2938 2593 c6 -2 18 -2 25 0 6 3 1 5 -13 5 -14 0 -19 -2 -12 -5z"/>
<path d="M3058 2593 c7 -3 16 -2 19 1 4 3 -2 6 -13 5 -11 0 -14 -3 -6 -6z"/>
<path d="M2885 2580 c-3 -5 -2 -10 4 -10 5 0 13 5 16 10 3 6 2 10 -4 10 -5 0
-13 -4 -16 -10z"/>
<path d="M3230 2581 c0 -5 -3 -16 -6 -25 -3 -9 -2 -16 4 -16 5 0 12 11 14 25
3 14 1 25 -3 25 -5 0 -9 -4 -9 -9z"/>
<path d="M2990 2533 c0 -25 2 -44 4 -42 8 10 13 89 5 89 -5 0 -9 -21 -9 -47z"/>
<path d="M3060 2570 c-9 -6 -10 -10 -3 -10 6 0 15 5 18 10 8 12 4 12 -15 0z"/>
<path d="M3268 2573 c7 -3 16 -2 19 1 4 3 -2 6 -13 5 -11 0 -14 -3 -6 -6z"/>
<path d="M2828 2563 c6 -2 18 -2 25 0 6 3 1 5 -13 5 -14 0 -19 -2 -12 -5z"/>
<path d="M3308 2563 c7 -3 16 -2 19 1 4 3 -2 6 -13 5 -11 0 -14 -3 -6 -6z"/>
<path d="M673 2544 c-11 -29 17 -95 48 -112 28 -17 29 -18 29 -104 0 -93 -11
-111 -32 -52 -7 20 -26 43 -44 55 -39 24 -84 25 -84 3 0 -24 55 -71 93 -78 52
-10 67 -46 67 -160 0 -59 -4 -96 -10 -96 -15 0 -31 47 -28 79 3 24 0 26 -32
27 -75 1 -75 1 -46 35 54 63 21 91 -50 43 -28 -19 -39 -23 -43 -13 -7 21 -49
59 -66 59 -37 0 -4 -98 41 -118 22 -11 25 -20 40 -141 7 -56 -7 -65 -26 -16
-12 31 -48 54 -95 62 -34 6 -37 4 -33 -18 4 -29 61 -69 99 -69 47 0 66 -36 74
-146 4 -52 4 -98 1 -101 -3 -3 -12 10 -21 30 -11 27 -25 39 -59 52 -43 17 -76
15 -76 -3 0 -21 60 -64 98 -69 63 -8 74 -28 77 -133 1 -50 5 -93 9 -97 3 -3 6
-10 6 -15 0 -16 -21 3 -30 27 -12 32 -52 57 -92 59 -27 1 -33 -3 -33 -19 0
-24 59 -65 95 -65 39 0 63 -33 70 -96 3 -29 3 -54 -1 -54 -4 0 -16 15 -27 34
-22 37 -85 65 -117 53 -37 -15 42 -87 96 -87 32 0 55 -25 61 -67 4 -27 1 -33
-16 -35 -15 -2 -21 -10 -20 -26 0 -17 -3 -21 -15 -16 -57 23 -73 26 -83 16 -6
-6 -8 -18 -5 -26 9 -23 67 -56 98 -56 39 0 57 -28 65 -99 7 -68 -3 -77 -26
-22 -17 41 -108 78 -125 50 -15 -23 62 -79 109 -79 33 0 56 -34 56 -82 0 -34
-3 -38 -24 -38 -25 0 -25 -1 -19 -70 l6 -70 -39 -15 c-115 -46 -209 -104 -337
-207 -38 -31 -45 -17 -46 95 -2 135 -57 387 -85 387 -17 0 -75 -87 -104 -157
-21 -50 -22 -64 -22 -417 l0 -366 3060 0 3060 0 0 371 c0 342 -2 377 -20 439
-22 73 -92 190 -114 190 -13 0 -19 -12 -46 -87 -26 -74 -51 -209 -57 -310 -3
-62 -10 -113 -15 -113 -4 0 -42 27 -84 60 -42 34 -94 70 -115 81 l-39 19 -63
-21 c-40 -13 -100 -23 -168 -26 -133 -7 -144 -14 -144 -91 0 -55 4 -63 60
-141 57 -80 107 -132 170 -178 l30 -22 -2453 -1 -2454 0 55 50 c30 27 69 72
88 99 19 28 42 53 52 56 9 4 17 13 17 21 0 8 21 75 46 149 25 73 44 142 42
151 -2 13 -13 18 -33 19 -29 0 -30 2 -33 53 -3 45 -6 52 -24 52 -19 0 -20 4
-14 62 9 78 35 118 78 118 55 0 112 49 93 80 -4 6 -15 8 -25 5 -10 -3 -28 0
-39 7 -16 10 -27 10 -51 1 -36 -14 -36 -16 -19 139 12 113 33 151 84 156 33 2
85 29 92 48 3 7 3 20 0 28 -9 22 -84 -1 -105 -31 -53 -75 -54 -75 -47 7 7 88
28 120 81 120 51 0 117 65 86 84 -15 9 -82 -14 -102 -34 -30 -30 -53 -15 -46
29 3 20 6 53 6 73 0 48 41 98 79 98 37 0 96 40 96 65 0 44 -106 10 -125 -40
-17 -44 -27 -35 -29 25 -1 55 0 60 19 60 39 0 110 50 110 77 0 18 -48 17 -84
-2 -30 -16 -46 -12 -46 9 0 7 -12 26 -26 41 -23 25 -24 29 -10 37 9 5 23 22
31 39 14 27 14 30 0 35 -9 4 -34 -2 -56 -12 -31 -13 -46 -29 -62 -63 l-22 -46
-3 112 c-3 130 7 157 62 167 41 8 86 48 86 76 0 43 -94 6 -116 -46 -23 -55
-34 -50 -34 14 0 59 1 60 32 71 41 14 78 49 78 73 0 25 -36 23 -80 -3 -23 -14
-36 -17 -38 -10 -6 19 -53 71 -63 71 -5 0 -12 -7 -16 -16z m-83 -453 c0 -11 4
-22 9 -25 10 -7 5 -39 -12 -74 -10 -22 -12 -22 -18 -5 -4 10 -8 42 -8 71 -1
40 2 52 14 52 8 0 15 -9 15 -19z m253 -78 c4 -35 12 -53 32 -70 23 -21 26 -28
20 -62 -7 -44 -44 -71 -65 -47 -6 8 -24 19 -40 26 -29 12 -30 14 -30 82 0 78
18 118 55 118 19 0 23 -6 28 -47z m-113 -31 c13 -16 20 -40 20 -68 0 -40 -3
-45 -32 -58 -28 -11 -37 -11 -60 0 -60 30 -86 10 -49 -37 20 -26 19 -70 -3
-89 -10 -7 -15 16 -24 102 -10 106 -9 114 9 140 11 15 29 28 39 28 10 0 21 4
24 9 10 15 56 -1 76 -27z m20 -192 c0 -31 -16 -41 -26 -15 -5 13 11 45 22 45
2 0 4 -13 4 -30z m40 -19 c0 -10 -7 -26 -15 -37 -13 -18 -14 -16 -15 23 0 34
3 41 15 37 8 -4 15 -14 15 -23z m-61 -27 c29 -37 26 -52 -12 -68 -38 -15 -77
-60 -77 -86 0 -10 -6 -23 -14 -29 -12 -10 -15 0 -21 58 -8 83 6 118 56 136 47
17 45 18 68 -11z m140 -12 c5 -10 7 -45 4 -79 -5 -52 -9 -63 -29 -72 -13 -6
-24 -7 -24 -3 0 4 -13 16 -30 25 -25 15 -30 25 -30 55 0 44 25 79 60 85 14 2
28 5 32 6 4 0 12 -7 17 -17z m-135 -164 c11 -16 16 -46 16 -101 0 -84 -10 -93
-36 -31 -9 22 -28 41 -54 54 -22 11 -40 26 -40 33 1 19 33 55 55 60 37 9 44 7
59 -15z m56 -53 c0 -7 -7 -18 -15 -25 -13 -11 -15 -8 -15 18 0 24 4 30 15 26
8 -4 15 -12 15 -19z m53 -100 c-3 -99 -11 -147 -24 -140 -5 4 -9 15 -9 25 0
10 -11 32 -25 48 -33 39 -34 96 -3 129 13 13 31 23 43 21 18 -3 20 -9 18 -83z
m-168 -2 c48 -11 51 -14 33 -24 -25 -14 -22 -34 11 -71 l28 -32 -37 -27 c-46
-34 -45 -64 6 -98 23 -16 34 -32 34 -47 0 -35 -19 -29 -35 10 -8 19 -26 42
-40 53 -24 17 -27 28 -38 136 -12 105 -11 117 3 111 8 -3 24 -8 35 -11z m151
-207 c-3 -16 -6 -41 -6 -57 0 -42 -17 -36 -30 11 -6 21 -15 42 -20 45 -6 3 0
19 12 36 21 28 23 29 36 12 8 -11 11 -30 8 -47z m-188 -88 c14 -14 16 -38 4
-38 -5 0 -14 11 -20 25 -12 26 -4 33 16 13z m161 -12 c11 -19 11 -30 0 -60
-25 -70 -39 -66 -39 13 0 76 15 94 39 47z m-70 -32 c22 -28 28 -74 11 -74 -13
0 -62 31 -72 45 -4 5 -8 20 -8 33 0 32 43 30 69 -4z m111 -73 c0 -6 -4 -13
-10 -16 -5 -3 -10 1 -10 9 0 9 5 16 10 16 6 0 10 -4 10 -9z m-40 -47 c0 -32
-4 -44 -12 -42 -17 6 -22 56 -7 74 17 21 19 18 19 -32z m-81 -21 c29 -17 31
-22 29 -63 -3 -41 -6 -45 -30 -48 -28 -3 -30 0 -41 96 -4 37 0 38 42 15z m71
-85 c0 -18 -5 -28 -15 -28 -11 0 -15 12 -15 48 1 43 2 46 15 28 8 -11 15 -32
15 -48z"/>
<path d="M2788 2553 c7 -3 16 -2 19 1 4 3 -2 6 -13 5 -11 0 -14 -3 -6 -6z"/>
<path d="M2703 2518 c-25 -29 -67 -98 -61 -103 2 -2 15 16 28 41 15 27 30 42
38 39 8 -3 10 0 6 7 -4 6 1 17 11 25 11 7 14 13 9 13 -6 0 -20 -10 -31 -22z"/>
<path d="M3011 2535 c-1 -5 11 -30 25 -54 23 -41 23 -46 9 -60 -14 -14 -17
-14 -25 -1 -8 13 -10 13 -10 -2 0 -10 9 -18 23 -20 26 -4 26 -7 8 -188 -7 -63
-15 -152 -19 -197 l-8 -82 48 27 48 27 -2 192 c-2 199 3 225 40 217 27 -6 93
61 91 95 0 10 -4 6 -10 -9 -12 -31 -58 -80 -75 -80 -17 0 -25 25 -11 39 7 7 1
7 -20 -1 -39 -15 -54 -4 -88 61 -13 25 -24 42 -24 36z"/>
<path d="M3418 2519 c25 -17 31 -26 26 -42 -6 -17 -4 -18 10 -6 14 13 12 17
-16 42 -18 15 -37 27 -43 27 -5 0 5 -10 23 -21z"/>
<path d="M3080 2524 c0 -6 6 -16 13 -23 10 -11 9 -13 -5 -8 -25 9 -22 0 3 -14
12 -6 19 -7 15 -1 -3 5 5 13 19 16 14 4 25 11 25 16 0 6 -9 5 -21 -2 -17 -11
-22 -10 -35 6 -8 11 -14 15 -14 10z"/>
<path d="M3185 2488 c-16 -24 -22 -38 -14 -31 15 12 53 73 46 73 -2 0 -17 -19
-32 -42z"/>
<path d="M2920 2476 c0 -11 30 -66 36 -66 2 0 -3 15 -12 33 -19 36 -24 44 -24
33z"/>
<path d="M3002 2460 c0 -14 2 -19 5 -12 2 6 2 18 0 25 -3 6 -5 1 -5 -13z"/>
<path d="M3470 2466 c0 -2 8 -10 18 -17 15 -13 16 -12 3 4 -13 16 -21 21 -21
13z"/>
<path d="M2730 2455 c0 -5 5 -17 10 -25 5 -8 10 -10 10 -5 0 6 -5 17 -10 25
-5 8 -10 11 -10 5z"/>
<path d="M3226 2402 c-4 -10 -22 -45 -41 -78 -19 -32 -26 -48 -14 -34 26 30
72 120 66 127 -3 2 -8 -4 -11 -15z"/>
<path d="M3421 2404 c0 -11 3 -14 6 -6 3 7 2 16 -1 19 -3 4 -6 -2 -5 -13z"/>
<path d="M2751 2394 c0 -11 3 -14 6 -6 3 7 2 16 -1 19 -3 4 -6 -2 -5 -13z"/>
<path d="M2621 2369 c-6 -18 -11 -37 -10 -43 0 -6 7 7 15 28 8 22 12 41 10 43
-2 2 -9 -10 -15 -28z"/>
<path d="M2960 2396 c0 -2 8 -10 18 -17 15 -13 16 -12 3 4 -13 16 -21 21 -21
13z"/>
<path d="M3521 2375 c1 -19 18 -51 18 -35 0 8 -4 22 -9 30 -5 8 -9 11 -9 5z"/>
<path d="M2761 2354 c0 -11 3 -14 6 -6 3 7 2 16 -1 19 -3 4 -6 -2 -5 -13z"/>
<path d="M3396 2324 c-4 -14 -5 -28 -3 -31 3 -2 8 8 11 23 4 14 5 28 3 31 -3
2 -8 -8 -11 -23z"/>
<path d="M2774 2215 c0 -55 1 -76 3 -47 2 29 2 74 0 100 -2 26 -3 2 -3 -53z"/>
<path d="M3552 2270 c0 -14 2 -19 5 -12 2 6 2 18 0 25 -3 6 -5 1 -5 -13z"/>
<path d="M3376 2254 c-4 -14 -5 -28 -3 -31 3 -2 8 8 11 23 4 14 5 28 3 31 -3
2 -8 -8 -11 -23z"/>
<path d="M2688 2259 c18 -20 15 -33 -5 -18 -10 7 -7 1 6 -14 14 -15 26 -25 28
-23 7 6 -16 54 -29 61 -10 6 -11 5 0 -6z"/>
<path d="M3468 2238 c-13 -13 -17 -18 -8 -11 8 7 27 16 40 22 17 6 19 10 8 10
-9 1 -27 -9 -40 -21z"/>
<path d="M3553 2195 c0 -22 2 -30 4 -17 2 12 2 30 0 40 -3 9 -5 -1 -4 -23z"/>
<path d="M2721 2174 c0 -11 3 -14 6 -6 3 7 2 16 -1 19 -3 4 -6 -2 -5 -13z"/>
<path d="M2592 2160 c0 -14 2 -19 5 -12 2 6 2 18 0 25 -3 6 -5 1 -5 -13z"/>
<path d="M1550 2145 c-11 -13 -10 -14 4 -9 9 3 16 10 16 15 0 13 -6 11 -20 -6z"/>
<path d="M1499 2133 c-13 -16 -12 -17 4 -4 9 7 17 15 17 17 0 8 -8 3 -21 -13z"/>
<path d="M2732 2130 c0 -14 2 -19 5 -12 2 6 2 18 0 25 -3 6 -5 1 -5 -13z"/>
<path d="M3562 2120 c0 -14 2 -19 5 -12 2 6 2 18 0 25 -3 6 -5 1 -5 -13z"/>
<path d="M2582 2110 c0 -14 2 -19 5 -12 2 6 2 18 0 25 -3 6 -5 1 -5 -13z"/>
<path d="M4080 2100 c-6 -11 -8 -20 -6 -20 3 0 10 9 16 20 6 11 8 20 6 20 -3
0 -10 -9 -16 -20z"/>
<path d="M3570 2071 c0 -6 4 -13 10 -16 6 -3 7 1 4 9 -7 18 -14 21 -14 7z"/>
<path d="M2550 2049 c-22 -18 -22 -19 -3 -10 12 6 25 16 28 21 9 15 3 12 -25
-11z"/>
<path d="M2762 2040 c0 -19 2 -27 5 -17 2 9 2 25 0 35 -3 9 -5 1 -5 -18z"/>
<path d="M3488 2053 c7 -3 16 -2 19 1 4 3 -2 6 -13 5 -11 0 -14 -3 -6 -6z"/>
<path d="M3609 2038 c7 -9 10 -27 7 -40 l-6 -23 12 23 c10 19 8 26 -7 40 -18
16 -18 16 -6 0z"/>
<path d="M4035 2020 c-9 -16 -13 -30 -11 -30 3 0 12 14 21 30 9 17 13 30 11
30 -3 0 -12 -13 -21 -30z"/>
<path d="M3148 2003 c6 -2 18 -2 25 0 6 3 1 5 -13 5 -14 0 -19 -2 -12 -5z"/>
<path d="M2593 1988 c-17 -23 -25 -44 -9 -24 9 11 22 23 28 28 9 5 9 8 2 8 -6
0 -16 -6 -21 -12z"/>
<path d="M3233 1993 c15 -2 37 -2 50 0 12 2 0 4 -28 4 -27 0 -38 -2 -22 -4z"/>
<path d="M3553 1977 c12 -13 24 -22 26 -20 6 4 -30 43 -40 43 -5 0 2 -10 14
-23z"/>
<path d="M4000 1960 c-6 -11 -8 -20 -6 -20 3 0 10 9 16 20 6 11 8 20 6 20 -3
0 -10 -9 -16 -20z"/>
<path d="M2624 1948 l-19 -23 25 20 c14 11 27 21 29 22 2 2 0 3 -6 3 -5 0 -18
-10 -29 -22z"/>
<path d="M3518 1942 c15 -15 29 -26 31 -25 6 4 -41 53 -50 53 -4 0 4 -13 19
-28z"/>
<path d="M2547 1920 c7 -37 23 -49 23 -16 0 15 -4 25 -9 21 -5 -3 -11 0 -14 7
-2 7 -2 2 0 -12z"/>
<path d="M3580 1930 c0 -8 4 -21 9 -28 6 -10 10 -8 14 9 4 13 4 25 2 28 -3 2
-5 -2 -5 -10 0 -11 -2 -11 -10 1 -9 13 -10 13 -10 0z"/>
<path d="M3532 1852 c-11 -25 -11 -25 4 -10 9 9 15 21 13 27 -2 6 -10 -2 -17
-17z"/>
<path d="M3570 1870 c-9 -6 -10 -10 -3 -10 6 0 15 5 18 10 8 12 4 12 -15 0z"/>
<path d="M3475 1820 c-13 -6 -15 -9 -5 -9 8 0 22 4 30 9 18 12 2 12 -25 0z"/>
<path d="M3830 1789 c-44 -4 -20 -6 75 -6 134 0 147 3 40 9 -27 2 -79 0 -115
-3z"/>
<path d="M4273 1788 c-2 -5 73 -8 166 -8 164 0 171 -1 171 -20 0 -20 -7 -20
-1702 -22 l-1703 -3 1662 -2 1662 -3 4 -63 3 -62 2 62 2 62 38 3 c32 3 37 7
40 30 l3 27 -171 3 c-95 2 -174 0 -177 -4z"/>
<path d="M1293 1554 c3 -3 38 -6 76 -5 l71 1 3 -588 2 -587 3 587 2 587 148 4
c113 2 94 3 -82 5 -126 1 -227 -1 -223 -4z"/>
<path d="M1770 1543 c0 -10 7 -56 14 -103 10 -62 15 -207 17 -520 3 -542 3
-535 39 -550 16 -7 38 -9 49 -5 11 3 39 -3 65 -15 34 -15 66 -20 129 -20 84 0
85 0 121 36 20 20 36 40 36 45 0 5 -34 30 -75 56 -74 48 -74 48 -81 100 -9 77
10 187 75 425 51 184 60 233 70 359 6 81 11 161 11 178 l0 31 -235 0 c-217 0
-235 -1 -235 -17z"/>
<path d="M2313 1553 c37 -2 96 -2 130 0 34 2 4 3 -68 3 -71 0 -99 -1 -62 -3z"/>
<path d="M2533 1553 c9 -2 25 -2 35 0 9 3 1 5 -18 5 -19 0 -27 -2 -17 -5z"/>
<path d="M2593 1543 c-9 -86 -18 -130 -30 -144 -10 -12 -13 -40 -11 -105 3
-86 4 -89 31 -102 15 -7 27 -18 27 -25 1 -7 23 -127 50 -267 l48 -255 -20 -18
c-11 -9 -15 -17 -9 -17 15 0 14 -47 -1 -53 -8 -3 -6 -6 5 -6 16 -1 22 -18 17
-51 -1 -8 -28 -43 -61 -77 -63 -66 -72 -93 -37 -117 43 -30 136 -11 204 43 14
11 38 22 53 26 34 7 41 31 41 146 0 65 3 78 18 82 16 4 16 5 0 6 -13 1 -18 10
-18 32 0 17 -4 38 -9 47 -5 9 -12 126 -16 260 l-8 242 37 0 36 0 0 -50 0 -50
50 0 50 0 0 -130 c0 -123 -1 -130 -20 -130 -17 0 -20 -7 -20 -40 0 -33 -5 -42
-27 -54 -33 -18 -25 -21 12 -4 20 9 25 18 25 50 l0 38 63 1 c34 1 54 3 45 6
-16 4 -18 19 -18 134 l0 129 44 0 c48 0 56 9 56 66 0 31 3 34 30 34 l30 0 -6
-242 c-4 -134 -11 -251 -15 -260 -5 -9 -9 -30 -9 -47 0 -20 -6 -31 -17 -34
-17 -4 -17 -5 0 -6 15 -1 17 -12 17 -88 0 -111 5 -130 38 -138 15 -4 34 -13
42 -20 32 -29 120 -65 157 -65 74 0 105 46 61 92 -90 93 -110 120 -103 141 17
53 20 102 8 112 -11 8 -5 53 28 225 22 118 45 240 51 270 5 30 16 62 24 71 18
20 20 248 3 315 l-11 44 -467 0 c-437 0 -467 -1 -468 -17z m-8 -258 c9 -66 8
-85 -1 -85 -6 0 -15 7 -18 16 -8 21 -8 169 1 161 3 -4 11 -45 18 -92z m598 69
l77 -7 0 -73 0 -74 -195 0 -195 0 0 80 0 80 118 0 c66 0 153 -3 195 -6z"/>
<path d="M3992 1553 l448 -3 3 -578 2 -577 3 577 2 577 33 4 c17 2 -186 3
-453 3 l-485 -1 447 -2z"/>
<path d="M3132 790 c0 -14 2 -19 5 -12 2 6 2 18 0 25 -3 6 -5 1 -5 -13z"/>
<path d="M3130 751 c0 -10 19 -25 25 -20 1 2 -3 10 -11 17 -8 7 -14 8 -14 3z"/>
<path d="M3023 695 c0 -22 2 -30 4 -17 2 12 2 30 0 40 -3 9 -5 -1 -4 -23z"/>
<path d="M3103 690 c0 -25 2 -35 4 -22 2 12 2 32 0 45 -2 12 -4 2 -4 -23z"/>
<path d="M3210 710 c8 -5 20 -10 25 -10 6 0 3 5 -5 10 -8 5 -19 10 -25 10 -5
0 -3 -5 5 -10z"/>
<path d="M3005 630 c-19 -8 -19 -9 3 -9 12 -1 22 4 22 9 0 6 -1 10 -2 9 -2 0
-12 -4 -23 -9z"/>
<path d="M3100 629 c0 -5 9 -9 20 -9 11 0 20 2 20 4 0 2 -9 6 -20 9 -11 3 -20
1 -20 -4z"/>
<path d="M2948 613 c6 -2 18 -2 25 0 6 3 1 5 -13 5 -14 0 -19 -2 -12 -5z"/>
<path d="M3168 613 c7 -3 16 -2 19 1 4 3 -2 6 -13 5 -11 0 -14 -3 -6 -6z"/>
<path d="M3470 610 c8 -5 20 -10 25 -10 6 0 3 5 -5 10 -8 5 -19 10 -25 10 -5
0 -3 -5 5 -10z"/>
<path d="M2630 600 c-8 -5 -10 -10 -5 -10 6 0 17 5 25 10 8 5 11 10 5 10 -5 0
-17 -5 -25 -10z"/>
<path d="M3520 590 c8 -5 20 -10 25 -10 6 0 3 5 -5 10 -8 5 -19 10 -25 10 -5
0 -3 -5 5 -10z"/>
<path d="M2580 580 c-8 -5 -10 -10 -5 -10 6 0 17 5 25 10 8 5 11 10 5 10 -5 0
-17 -5 -25 -10z"/>
<path d="M3033 555 c0 -22 2 -30 4 -17 2 12 2 30 0 40 -3 9 -5 -1 -4 -23z"/>
<path d="M3093 550 c0 -25 2 -35 4 -22 2 12 2 32 0 45 -2 12 -4 2 -4 -23z"/>
<path d="M3600 560 c8 -5 20 -10 25 -10 6 0 3 5 -5 10 -8 5 -19 10 -25 10 -5
0 -3 -5 5 -10z"/>
<path d="M3498 543 c7 -3 16 -2 19 1 4 3 -2 6 -13 5 -11 0 -14 -3 -6 -6z"/>
<path d="M2588 533 c7 -3 16 -2 19 1 4 3 -2 6 -13 5 -11 0 -14 -3 -6 -6z"/>
<path d="M3548 533 c7 -3 16 -2 19 1 4 3 -2 6 -13 5 -11 0 -14 -3 -6 -6z"/>
<path d="M2534 516 c-3 -8 -4 -27 -1 -43 3 -24 4 -23 6 9 0 20 7 39 14 41 9 4
9 6 -1 6 -7 1 -15 -5 -18 -13z"/>
<path d="M3641 484 c-2 -84 51 -131 94 -84 20 23 23 63 5 85 -15 18 -66 20
-77 3 -5 -9 -10 -3 -14 17 -5 24 -7 20 -8 -21z m79 -39 c0 -8 -9 -15 -20 -15
-11 0 -20 7 -20 15 0 8 9 15 20 15 11 0 20 -7 20 -15z"/>
<path d="M3040 444 c0 -62 1 -64 25 -64 24 0 25 3 25 59 0 55 -2 59 -25 63
-25 5 -25 4 -25 -58z"/>
<path d="M2406 484 c-23 -22 -20 -60 6 -84 28 -26 40 -25 65 3 31 35 35 55 13
77 -24 24 -63 26 -84 4z m54 -40 c0 -14 -21 -19 -33 -7 -9 9 13 34 24 27 5 -3
9 -12 9 -20z"/>
</g>
</svg>
