<?xml version="1.0" standalone="no"?>
<!DOCTYPE svg PUBLIC "-//W3C//DTD SVG 20010904//EN"
 "http://www.w3.org/TR/2001/REC-SVG-20010904/DTD/svg10.dtd">
<svg version="1.0" xmlns="http://www.w3.org/2000/svg"
 width="1280.000000pt" height="768.000000pt" viewBox="0 0 1280.000000 768.000000"
 preserveAspectRatio="xMidYMid meet">

<g transform="translate(0.000000,768.000000) scale(0.100000,-0.100000)"
fill="#000000" stroke="none">
<path d="M6170 6953 c-595 -41 -1126 -217 -1606 -535 -829 -548 -1358 -1426
-1453 -2412 -14 -139 -14 -483 -1 -617 145 -1458 1232 -2640 2670 -2903 209
-38 347 -50 580 -50 437 0 814 72 1208 230 740 297 1348 857 1705 1573 222
444 328 865 344 1366 24 779 -224 1514 -726 2145 -105 133 -374 398 -511 504
-313 243 -685 442 -1030 551 -368 116 -822 173 -1180 148z m490 -274 c687 -63
1362 -390 1852 -897 1141 -1182 1125 -3044 -36 -4205 -456 -455 -1035 -748
-1677 -849 -124 -19 -185 -22 -434 -22 -187 -1 -322 4 -380 12 -571 82 -1064
292 -1497 636 -498 396 -877 981 -1033 1591 -120 471 -126 977 -15 1440 262
1097 1117 1958 2212 2225 316 77 659 101 1008 69z"/>
<path d="M6303 6495 c-64 -27 -85 -128 -38 -184 29 -34 84 -56 117 -46 45 12
68 29 68 48 0 16 -5 18 -27 12 -73 -18 -91 -17 -112 4 -23 23 -28 70 -11 101
14 27 64 35 101 16 23 -12 36 -13 45 -5 19 15 7 35 -31 53 -40 19 -70 20 -112
1z"/>
<path d="M6086 6493 l-48 -4 6 -87 c4 -48 10 -102 13 -120 l6 -34 71 7 c77 8
92 15 82 40 -5 14 -15 15 -61 10 l-55 -7 0 29 c0 26 5 31 38 39 53 13 50 38
-5 42 -77 6 -40 42 43 42 27 0 37 12 28 34 -6 16 -13 17 -118 9z"/>
<path d="M6496 6492 c-3 -5 -6 -47 -8 -94 -3 -73 0 -89 16 -107 27 -30 85 -44
125 -30 42 15 57 48 66 140 6 62 4 77 -7 82 -27 10 -35 -7 -43 -86 -7 -81 -18
-97 -63 -97 -35 0 -47 28 -47 114 0 67 -3 81 -17 84 -9 2 -19 -1 -22 -6z"/>
<path d="M6755 6466 c-11 -32 -35 -201 -31 -213 12 -31 40 -8 50 42 l11 49 44
-67 c46 -71 47 -72 71 -57 13 8 13 13 -3 39 -17 29 -17 30 13 59 35 35 40 78
13 111 -22 26 -162 57 -168 37z m108 -60 c20 -5 27 -12 27 -30 0 -29 -13 -34
-62 -28 -34 4 -38 7 -38 31 0 33 8 43 29 37 9 -2 28 -7 44 -10z"/>
<path d="M5858 6454 c-31 -16 -46 -58 -31 -83 15 -24 54 -41 96 -41 25 0 40
-5 44 -16 9 -24 -11 -36 -64 -38 -41 -1 -48 -4 -48 -21 0 -16 8 -21 39 -23 52
-4 81 4 106 30 20 22 26 63 12 84 -13 20 -50 34 -91 34 -42 0 -63 16 -40 31 8
5 33 9 55 9 41 0 56 12 47 38 -6 17 -91 15 -125 -4z"/>
<path d="M7004 6422 c-7 -4 -22 -53 -35 -109 -18 -81 -20 -106 -11 -115 21
-21 38 10 62 109 26 107 21 140 -16 115z"/>
<path d="M7089 6394 c-15 -18 2 -39 37 -48 18 -5 25 -12 21 -24 -37 -133 -41
-152 -29 -164 18 -18 35 6 61 90 l22 73 35 -7 c26 -5 35 -3 40 11 9 24 -1 30
-93 58 -70 21 -84 23 -94 11z"/>
<path d="M5508 6372 c-27 -8 -48 -20 -48 -26 0 -6 12 -51 27 -101 29 -98 46
-126 64 -108 9 9 9 23 0 57 -6 25 -11 47 -11 50 0 3 28 -11 62 -30 34 -19 68
-34 76 -32 27 5 24 27 -6 45 -27 17 -29 20 -16 38 20 27 17 68 -7 99 -24 31
-66 33 -141 8z m110 -59 c3 -23 -4 -28 -64 -47 -18 -5 -24 -1 -33 24 -9 28 -8
32 12 40 12 5 36 8 52 7 23 -1 31 -7 33 -24z"/>
<path d="M5320 6305 c-34 -15 -54 -29 -52 -38 5 -29 79 -202 86 -201 4 0 36
11 72 24 42 16 64 30 64 40 0 28 -11 30 -64 10 -28 -11 -52 -20 -53 -20 0 0
-6 13 -11 29 -9 26 -8 29 24 44 56 27 34 60 -25 39 -24 -8 -31 -7 -35 4 -4 11
9 21 44 36 35 14 50 26 50 39 0 25 -30 23 -100 -6z"/>
<path d="M7330 6320 c-11 -7 -11 -21 3 -83 14 -65 15 -80 3 -109 -27 -66 11
-82 44 -18 13 25 39 52 74 74 64 41 73 53 54 72 -12 12 -21 9 -65 -21 l-52
-35 -12 59 c-11 60 -25 76 -49 61z"/>
<path d="M5095 6203 c-27 -14 -51 -27 -53 -28 -7 -6 99 -205 108 -205 17 0 93
41 118 63 33 31 30 81 -8 109 -16 12 -30 30 -30 39 0 22 -37 49 -65 49 -11 -1
-42 -13 -70 -27z m90 -43 c0 -8 -13 -21 -29 -29 -26 -12 -31 -12 -43 5 -12 16
-10 20 9 31 29 16 63 12 63 -7z m63 -72 c2 -11 -11 -24 -39 -39 -41 -20 -43
-20 -56 -3 -19 26 -17 30 25 48 44 18 66 17 70 -6z"/>
<path d="M4975 6140 c-3 -6 -9 -35 -12 -65 -6 -61 -10 -62 -76 -28 -16 8 -35
12 -43 9 -31 -12 -11 -35 55 -64 48 -22 75 -41 87 -62 20 -33 54 -41 54 -12 0
10 -7 27 -15 38 -9 13 -15 52 -17 104 -3 78 -15 109 -33 80z"/>
<path d="M7627 6093 c-15 -14 -5 -32 28 -53 19 -12 39 -19 45 -15 19 12 10 41
-19 58 -31 18 -44 21 -54 10z"/>
<path d="M6068 6065 c-906 -114 -1671 -734 -1965 -1590 -292 -854 -85 -1785
542 -2434 270 -279 606 -491 967 -609 285 -93 523 -128 818 -119 374 12 682
90 1012 259 701 357 1179 1036 1283 1823 20 153 21 453 1 600 -72 550 -314
1029 -712 1415 -355 344 -766 551 -1271 641 -152 27 -514 35 -675 14z m642
-203 c711 -121 1303 -560 1616 -1197 112 -228 178 -449 209 -695 25 -194 17
-484 -19 -670 -220 -1163 -1311 -1944 -2476 -1774 -815 118 -1508 701 -1763
1481 -80 245 -109 429 -109 688 -1 349 69 652 220 960 336 682 985 1139 1743
1224 131 15 445 6 579 -17z"/>
<path d="M6330 5274 c-126 -27 -382 -107 -387 -121 -11 -28 15 -39 50 -20 17
9 133 46 257 82 124 36 230 67 235 70 26 10 -98 1 -155 -11z"/>
<path d="M6507 5238 c-106 -12 -148 -21 -148 -33 0 -29 129 -21 194 12 21 10
36 11 66 3 43 -11 71 -5 71 16 0 16 -57 17 -183 2z"/>
<path d="M6556 5174 c-3 -9 -6 -18 -6 -20 0 -2 37 -4 83 -3 l82 1 -40 19 c-50
23 -111 25 -119 3z"/>
<path d="M6195 5144 c-100 -22 -250 -73 -397 -133 -118 -49 -146 -69 -118 -86
14 -9 86 15 109 37 14 13 36 18 73 18 35 1 70 9 103 25 44 22 54 23 88 13 29
-9 67 -9 155 0 134 14 159 11 350 -43 74 -20 136 -34 139 -31 9 9 -135 74
-207 93 -69 19 -321 26 -389 11 -30 -7 -32 -6 -20 8 7 8 31 25 53 37 46 24
135 28 326 15 l105 -8 -55 26 c-70 34 -209 42 -315 18z"/>
<path d="M6750 5140 c0 -13 48 -32 61 -24 16 10 -11 34 -37 34 -13 0 -24 -5
-24 -10z"/>
<path d="M5833 5128 c-32 -15 -29 -38 5 -38 29 0 72 24 72 41 0 12 -49 10 -77
-3z"/>
<path d="M6270 5100 c0 -15 27 -23 47 -16 15 6 15 8 3 16 -20 13 -50 12 -50 0z"/>
<path d="M6605 5100 c-18 -8 -18 -9 -2 -9 10 -1 82 -18 160 -40 78 -21 162
-42 187 -45 40 -6 43 -5 27 7 -29 24 -226 85 -292 91 -33 3 -69 1 -80 -4z"/>
<path d="M6634 5025 c11 -8 29 -15 39 -15 16 0 17 3 7 15 -7 8 -24 15 -39 15
-25 -1 -25 -1 -7 -15z"/>
<path d="M6737 5022 c-23 -3 -26 -6 -16 -18 13 -16 65 -19 74 -5 8 14 -25 27
-58 23z"/>
<path d="M6087 4976 c-93 -34 -79 -60 28 -51 90 8 125 15 125 25 0 9 -43 27
-85 34 -16 3 -47 -1 -68 -8z"/>
<path d="M6266 4966 c5 -13 33 -27 80 -41 25 -7 71 26 60 43 -4 7 -35 12 -76
12 -56 0 -68 -3 -64 -14z"/>
<path d="M5860 4928 c-178 -44 -187 -47 -220 -75 -17 -14 -29 -27 -27 -29 2
-3 26 0 53 5 27 6 90 18 139 27 50 9 102 23 116 30 23 11 66 63 57 68 -2 1
-55 -11 -118 -26z"/>
<path d="M6430 4950 c0 -22 145 -69 265 -85 28 -4 58 -9 69 -12 11 -3 16 -1
12 5 -8 13 -138 56 -231 77 -38 8 -80 17 -92 20 -13 3 -23 1 -23 -5z"/>
<path d="M6790 4936 c0 -18 42 -29 52 -13 13 21 9 27 -22 27 -19 0 -30 -5 -30
-14z"/>
<path d="M6903 4916 c4 -10 7 -22 7 -28 0 -6 11 -8 25 -6 14 3 25 1 25 -3 0
-5 5 -9 10 -9 14 0 12 26 -3 38 -6 6 -25 14 -41 18 -25 6 -28 5 -23 -10z"/>
<path d="M6139 4876 c-2 -2 -62 -12 -134 -21 -136 -17 -170 -30 -186 -73 -7
-19 -5 -22 19 -22 15 0 80 18 145 40 130 44 152 47 185 24 21 -14 24 -14 48 5
30 23 78 26 204 11 81 -9 106 -1 69 23 -19 11 -61 15 -185 16 -89 0 -163 -1
-165 -3z"/>
<path d="M6544 4839 c-8 -13 32 -30 86 -36 33 -4 50 -2 50 5 0 6 -4 13 -8 16
-17 10 -123 23 -128 15z"/>
<path d="M6843 4835 c-3 -9 -3 -18 0 -22 10 -10 37 6 37 22 0 20 -29 20 -37 0z"/>
<path d="M7035 4839 c-10 -16 25 -49 51 -49 25 0 51 34 34 45 -5 3 -10 -1 -10
-9 0 -22 -13 -20 -35 4 -20 22 -31 25 -40 9z"/>
<path d="M6920 4796 c0 -14 21 -26 46 -26 8 0 14 9 14 20 0 16 -7 20 -30 20
-19 0 -30 -5 -30 -14z"/>
<path d="M5623 4791 c-46 -12 -83 -38 -83 -60 0 -17 4 -18 63 -6 34 7 90 16
125 20 34 4 62 10 62 14 0 25 -112 46 -167 32z"/>
<path d="M6335 4783 c-77 -6 -105 -13 -105 -30 0 -12 6 -14 28 -8 97 26 229
12 485 -51 77 -19 145 -33 151 -31 23 8 -44 36 -139 60 -192 48 -320 67 -420
60z"/>
<path d="M6744 4776 c11 -9 44 -22 75 -31 31 -9 81 -24 111 -35 30 -11 56 -18
58 -15 2 2 -5 12 -17 24 -22 22 -122 56 -197 66 -45 6 -47 5 -30 -9z"/>
<path d="M6055 4770 c-56 -11 -387 -109 -394 -116 -13 -14 132 7 274 40 83 19
177 40 209 46 38 8 54 15 45 20 -24 13 -92 18 -134 10z"/>
<path d="M7150 4735 c7 -8 19 -15 27 -15 13 0 13 3 3 15 -7 8 -19 15 -27 15
-13 0 -13 -3 -3 -15z"/>
<path d="M6494 4699 c-10 -17 8 -27 59 -31 55 -4 64 14 16 31 -40 14 -66 14
-75 0z"/>
<path d="M6095 4693 c-22 -6 -45 -22 -45 -32 0 -3 66 -7 148 -7 112 -2 177 -8
272 -27 69 -13 127 -23 129 -21 8 7 -110 54 -186 74 -57 15 -106 20 -187 19
-61 -1 -120 -4 -131 -6z"/>
<path d="M5509 4640 c-39 -36 -50 -53 -42 -61 19 -19 70 1 108 43 34 37 35 40
18 54 -10 7 -21 14 -24 14 -4 0 -31 -22 -60 -50z"/>
<path d="M6634 4679 c-15 -25 54 -59 121 -59 39 0 24 13 -52 43 -37 15 -65 22
-69 16z"/>
<path d="M7140 4679 c0 -12 73 -69 88 -69 10 0 12 7 7 27 -4 16 -7 28 -8 28
-59 16 -87 21 -87 14z"/>
<path d="M7030 4672 c0 -23 83 -77 101 -66 15 9 -19 44 -58 60 -38 16 -43 17
-43 6z"/>
<path d="M5899 4640 c-92 -17 -151 -38 -164 -61 -4 -5 -5 -12 -4 -13 2 -2 44
3 93 11 91 14 176 44 197 69 15 18 5 17 -122 -6z"/>
<path d="M6138 4620 c-67 -11 -150 -44 -174 -71 -16 -18 -15 -18 17 -8 43 12
251 46 343 55 41 4 63 10 55 14 -23 13 -180 19 -241 10z"/>
<path d="M6830 4606 c0 -8 163 -108 223 -137 111 -52 113 -28 3 42 -65 43
-226 110 -226 95z"/>
<path d="M7067 4551 c59 -58 102 -55 51 3 -13 15 -39 29 -58 32 l-35 6 42 -41z"/>
<path d="M7160 4565 c0 -18 10 -31 33 -45 40 -25 47 -25 47 -1 0 11 -13 28
-30 38 -16 9 -30 21 -30 25 0 4 -4 8 -10 8 -5 0 -10 -11 -10 -25z"/>
<path d="M5573 4560 c-37 -8 -143 -70 -143 -82 0 -19 71 -5 152 29 86 36 108
53 69 53 -11 0 -25 2 -33 4 -7 2 -28 0 -45 -4z"/>
<path d="M6412 4558 c-21 -21 -13 -25 72 -32 46 -3 92 -9 102 -13 32 -12 4 16
-36 37 -44 22 -119 27 -138 8z"/>
<path d="M6147 4534 c-38 -8 -179 -51 -313 -95 -228 -75 -400 -148 -464 -198
-22 -17 -23 -21 -8 -26 25 -10 105 24 132 55 18 22 46 33 137 58 63 16 186 55
274 87 186 66 314 102 397 111 39 4 55 10 46 15 -20 13 -125 9 -201 -7z"/>
<path d="M6790 4544 c0 -16 54 -64 72 -64 24 0 23 12 -4 37 -25 22 -68 39 -68
27z"/>
<path d="M5784 4516 c-50 -12 -108 -32 -128 -44 -20 -12 -49 -22 -64 -22 -43
0 -100 -19 -106 -36 -4 -9 -13 -13 -24 -10 -12 4 -23 -3 -35 -23 -21 -35 -21
-41 -3 -41 8 0 17 7 20 16 3 8 10 12 16 9 6 -3 13 0 16 8 3 9 27 17 64 20 98
11 150 27 150 47 0 15 14 20 73 30 78 13 157 43 157 59 0 15 -32 12 -136 -13z"/>
<path d="M6660 4497 c0 -7 20 -23 44 -34 38 -19 46 -20 56 -8 9 11 4 18 -29
34 -46 24 -71 27 -71 8z"/>
<path d="M6177 4480 c-61 -11 -67 -17 -32 -30 29 -11 195 6 195 20 0 21 -73
25 -163 10z"/>
<path d="M6390 4477 c21 -22 190 -47 190 -29 0 17 -57 34 -130 39 -68 5 -74 4
-60 -10z"/>
<path d="M7280 4460 c0 -35 36 -62 46 -35 7 16 -20 65 -36 65 -6 0 -10 -13
-10 -30z"/>
<path d="M6943 4458 c11 -7 62 -44 115 -81 103 -73 198 -129 247 -146 28 -10
27 -8 -15 30 -88 80 -261 184 -340 203 -23 6 -23 5 -7 -6z"/>
<path d="M7213 4445 c31 -28 47 -32 47 -12 0 8 -11 19 -25 25 -42 19 -52 13
-22 -13z"/>
<path d="M6790 4456 c0 -3 29 -26 65 -52 64 -45 202 -111 212 -100 9 9 -82 69
-173 112 -89 43 -104 49 -104 40z"/>
<path d="M6640 4423 c0 -22 28 -38 84 -48 29 -6 36 -4 36 9 0 21 -39 46 -84
53 -31 5 -36 3 -36 -14z"/>
<path d="M7180 4421 c0 -26 153 -132 168 -117 9 9 -47 65 -97 97 -45 29 -71
36 -71 20z"/>
<path d="M5970 4380 c-65 -30 -98 -39 -142 -39 -51 -1 -59 -4 -78 -31 l-21
-30 33 0 c19 0 70 18 117 40 50 24 97 40 119 40 40 0 103 27 110 48 7 23 -51
11 -138 -28z"/>
<path d="M6150 4400 c0 -19 5 -21 53 -18 38 2 52 7 52 18 0 11 -14 16 -52 18
-48 3 -53 1 -53 -18z"/>
<path d="M6270 4401 c0 -15 6 -21 21 -21 14 0 19 5 17 17 -5 26 -38 29 -38 4z"/>
<path d="M6347 4413 c-4 -3 -2 -12 4 -20 8 -8 35 -13 80 -13 69 0 86 10 50 30
-22 11 -124 14 -134 3z"/>
<path d="M6790 4350 c13 -24 57 -37 72 -22 18 18 -10 42 -49 42 -31 0 -33 -2
-23 -20z"/>
<path d="M6262 4341 c-18 -5 -35 -11 -39 -14 -12 -12 10 -27 41 -27 52 0 148
22 138 32 -13 13 -102 18 -140 9z"/>
<path d="M6680 4329 c0 -21 51 -49 90 -49 34 0 22 19 -30 45 -60 30 -60 30
-60 4z"/>
<path d="M6090 4333 c-76 -9 -166 -35 -337 -99 -98 -36 -180 -68 -182 -70 -3
-2 0 -9 7 -16 17 -17 62 -12 117 15 54 26 239 88 400 133 81 23 95 29 75 35
-27 8 -29 8 -80 2z"/>
<path d="M6895 4319 c-4 -5 1 -19 10 -29 18 -20 122 -66 131 -58 12 13 -13 39
-66 67 -65 35 -66 35 -75 20z"/>
<path d="M6585 4277 c219 -80 370 -161 525 -280 47 -36 86 -62 88 -57 7 19
-20 50 -77 88 -33 21 -74 56 -91 76 -18 20 -36 36 -41 36 -5 0 -64 27 -131 59
-158 76 -256 110 -332 117 l-61 5 120 -44z"/>
<path d="M7100 4284 c0 -18 26 -47 68 -75 26 -18 61 -44 77 -59 29 -27 101
-57 111 -47 10 10 -85 89 -165 137 -87 52 -91 54 -91 44z"/>
<path d="M5577 4265 c-21 -8 -59 -28 -84 -45 -25 -17 -70 -40 -100 -51 -29
-11 -58 -29 -63 -39 -16 -30 5 -33 43 -7 19 13 77 38 128 57 93 32 209 86 209
95 0 11 -97 3 -133 -10z"/>
<path d="M6840 4272 c0 -23 77 -77 131 -92 41 -12 45 5 7 34 -37 27 -138 70
-138 58z"/>
<path d="M6134 4259 c-210 -28 -190 -61 22 -37 89 10 158 13 185 8 54 -10 59
-7 25 16 -33 21 -133 26 -232 13z"/>
<path d="M6441 4215 c14 -7 77 -23 140 -35 93 -18 134 -32 226 -78 62 -31 116
-53 119 -49 19 19 -95 99 -172 122 -64 19 -269 55 -308 55 l-31 -1 26 -14z"/>
<path d="M5900 4190 c0 -15 7 -20 25 -20 18 0 25 5 25 20 0 15 -7 20 -25 20
-18 0 -25 -5 -25 -20z"/>
<path d="M6110 4201 c-56 -7 -59 -25 -5 -29 47 -4 118 15 110 28 -7 11 -32 11
-105 1z"/>
<path d="M6260 4201 c0 -11 55 -31 86 -31 35 0 29 26 -7 34 -45 9 -79 7 -79
-3z"/>
<path d="M7080 4202 c0 -5 8 -16 18 -23 10 -8 74 -56 142 -107 68 -51 125 -90
127 -88 10 10 -46 71 -107 116 -79 58 -180 115 -180 102z"/>
<path d="M5758 4156 c-105 -32 -143 -50 -185 -89 -35 -31 -27 -40 15 -18 20
10 75 30 122 44 82 26 160 68 160 87 0 6 -1 10 -2 10 -2 -1 -51 -16 -110 -34z"/>
<path d="M6208 4163 c-46 -5 -49 -18 -7 -27 53 -10 276 -7 257 4 -14 9 -193
33 -208 28 -3 -1 -22 -3 -42 -5z"/>
<path d="M7044 4149 c-7 -12 12 -29 34 -29 15 0 16 12 0 28 -15 15 -25 15 -34
1z"/>
<path d="M6000 4134 c-211 -25 -355 -86 -532 -227 -83 -66 -100 -90 -42 -55
30 18 40 19 56 9 16 -10 32 -5 109 36 49 26 102 58 117 70 l27 22 -25 1 c-14
0 -45 -14 -70 -31 -59 -40 -140 -81 -140 -72 1 14 75 70 130 98 92 46 179 75
334 111 81 19 156 39 165 44 20 12 20 12 -129 -6z"/>
<path d="M6517 4144 c-20 -20 -6 -35 31 -32 47 4 52 32 7 36 -17 2 -34 0 -38
-4z"/>
<path d="M5474 4119 c-50 -19 -141 -88 -117 -89 29 -1 142 53 168 81 34 34 22
36 -51 8z"/>
<path d="M6205 4103 c-54 -5 -135 -26 -135 -34 0 -18 51 -20 135 -4 74 14 101
15 168 5 96 -14 249 -57 393 -111 59 -21 109 -37 111 -35 3 2 -15 16 -39 30
-134 78 -312 133 -458 142 -47 3 -98 6 -115 7 -16 2 -43 2 -60 0z"/>
<path d="M6670 4101 c0 -22 34 -40 85 -46 54 -7 70 -20 40 -31 -8 -4 -13 -9
-11 -13 6 -9 86 -1 86 9 0 16 -55 48 -119 69 -72 24 -81 25 -81 12z"/>
<path d="M7150 4059 c12 -22 67 -59 88 -59 21 0 -5 38 -41 60 -43 27 -61 26
-47 -1z"/>
<path d="M5887 4056 c-44 -12 -127 -76 -127 -97 0 -4 34 8 76 27 42 20 98 41
125 47 48 12 66 27 32 27 -10 0 -27 2 -38 5 -11 2 -42 -2 -68 -9z"/>
<path d="M6236 4041 c-8 -12 18 -32 35 -27 8 2 27 7 42 10 15 4 25 11 22 16
-8 12 -92 13 -99 1z"/>
<path d="M7003 4002 c26 -28 47 -58 47 -67 0 -10 10 -15 33 -15 17 0 47 -9 65
-20 l32 -20 -16 24 c-23 36 -91 89 -154 121 l-55 28 48 -51z"/>
<path d="M5449 4011 c-101 -67 -115 -92 -40 -71 42 11 94 49 112 81 15 29 -19
24 -72 -10z"/>
<path d="M6143 4033 c-50 -6 -39 -23 13 -23 40 0 45 2 34 15 -7 8 -13 14 -14
13 0 0 -16 -3 -33 -5z"/>
<path d="M5925 3994 c-43 -16 -105 -55 -105 -66 0 -4 15 -1 33 6 17 8 76 24
129 36 54 12 95 26 92 31 -8 14 -105 9 -149 -7z"/>
<path d="M6425 4001 c11 -11 155 -51 187 -51 30 0 20 20 -18 36 -46 19 -184
32 -169 15z"/>
<path d="M6252 3993 c-12 -2 -20 -9 -17 -14 8 -12 115 -12 115 0 0 19 -42 25
-98 14z"/>
<path d="M6935 3979 c-4 -6 -5 -11 -4 -13 48 -32 62 -37 73 -26 8 9 5 16 -13
31 -26 21 -47 24 -56 8z"/>
<path d="M7290 3956 c0 -8 20 -28 45 -45 57 -38 62 -16 6 28 -44 35 -51 37
-51 17z"/>
<path d="M6017 3950 c-53 -16 -291 -120 -351 -153 -33 -18 -62 -39 -64 -46 -6
-19 23 -8 163 60 178 86 386 139 369 94 -8 -20 50 -20 175 1 114 20 210 10
300 -31 57 -27 65 -27 55 -2 -7 19 -55 43 -114 56 -51 12 -250 13 -325 2 -42
-6 -54 -4 -70 11 -20 19 -87 23 -138 8z"/>
<path d="M6655 3950 c-8 -13 24 -40 46 -40 30 0 20 32 -13 41 -16 4 -30 4 -33
-1z"/>
<path d="M5638 3909 c-21 -11 -38 -26 -38 -34 0 -26 35 -16 76 20 32 28 35 34
19 34 -11 0 -37 -9 -57 -20z"/>
<path d="M7244 3909 c-9 -15 52 -73 67 -63 6 3 0 18 -14 37 -27 36 -42 43 -53
26z"/>
<path d="M5659 3859 c-98 -59 -105 -65 -87 -71 25 -9 73 12 131 58 53 42 69
64 49 64 -5 0 -47 -23 -93 -51z"/>
<path d="M6740 3901 c0 -15 42 -41 67 -41 29 0 29 14 1 34 -25 18 -68 21 -68
7z"/>
<path d="M6920 3903 c0 -3 28 -36 63 -72 34 -37 86 -92 116 -124 29 -32 55
-56 58 -53 9 8 -20 50 -74 111 -30 33 -57 73 -60 88 -4 19 -9 25 -16 18 -7 -7
-20 -2 -42 15 -32 24 -45 29 -45 17z"/>
<path d="M6348 3891 c-120 -9 -104 -21 28 -21 70 0 113 4 104 9 -27 15 -53 18
-132 12z"/>
<path d="M6050 3870 c0 -13 7 -20 20 -20 13 0 20 7 20 20 0 13 -7 20 -20 20
-13 0 -20 -7 -20 -20z"/>
<path d="M5968 3873 c-27 -7 -22 -33 6 -33 25 0 51 22 39 33 -7 7 -18 7 -45 0z"/>
<path d="M7146 3861 c-3 -4 1 -17 9 -27 14 -18 14 -18 15 9 0 26 -13 36 -24
18z"/>
<path d="M6723 3835 c28 -25 57 -33 57 -16 0 13 -46 41 -67 41 -15 -1 -13 -5
10 -25z"/>
<path d="M6088 3840 c-84 -10 -124 -23 -213 -68 -96 -48 -180 -106 -240 -166
-53 -53 -120 -144 -112 -152 2 -2 51 38 109 90 162 144 257 203 398 247 62 20
97 24 202 24 71 0 128 3 128 6 0 18 -180 31 -272 19z"/>
<path d="M6390 3830 c0 -11 7 -20 15 -20 8 0 15 9 15 20 0 11 -7 20 -15 20 -8
0 -15 -9 -15 -20z"/>
<path d="M5510 3830 c-58 -8 -101 -31 -153 -83 -59 -59 -28 -61 65 -4 40 25
91 54 112 64 46 24 38 31 -24 23z"/>
<path d="M5836 3819 c-84 -34 -177 -102 -311 -227 -72 -66 -147 -133 -167
-149 -37 -27 -44 -50 -17 -46 32 3 85 29 99 48 52 72 243 246 321 294 19 12
44 21 55 21 24 0 69 32 84 61 14 25 1 24 -64 -2z"/>
<path d="M6476 3821 c12 -12 133 -30 139 -20 3 4 -9 12 -27 18 -38 13 -126 15
-112 2z"/>
<path d="M6900 3822 c0 -5 13 -18 29 -30 35 -25 53 -12 25 19 -17 19 -54 26
-54 11z"/>
<path d="M7102 3818 c-7 -7 -12 -21 -12 -32 1 -19 2 -19 13 -5 7 9 18 14 25
11 9 -3 13 2 10 14 -4 22 -20 28 -36 12z"/>
<path d="M6840 3779 c36 -31 131 -89 146 -89 16 0 -72 82 -108 101 -59 30 -80
24 -38 -12z"/>
<path d="M7368 3779 c39 -35 53 -32 28 6 -10 14 -26 25 -39 25 -20 -1 -20 -3
11 -31z"/>
<path d="M6440 3790 c0 -5 9 -10 20 -10 11 0 20 -4 20 -10 0 -5 -14 -10 -32
-10 -29 0 -31 -1 -17 -16 15 -14 20 -14 53 0 38 16 47 40 20 50 -25 9 -64 7
-64 -4z"/>
<path d="M7260 3794 c0 -18 24 -44 40 -44 25 0 25 12 2 33 -18 17 -42 23 -42
11z"/>
<path d="M6273 3783 c-42 -9 -23 -20 44 -26 62 -6 99 2 75 17 -15 9 -93 15
-119 9z"/>
<path d="M6660 3776 c0 -18 31 -29 54 -20 13 5 14 9 5 20 -15 19 -59 18 -59 0z"/>
<path d="M6120 3753 c-36 -17 -49 -28 -38 -30 21 -5 138 36 138 48 0 17 -45 9
-100 -18z"/>
<path d="M6790 3767 c0 -20 65 -66 80 -57 12 7 11 12 -4 29 -23 25 -76 45 -76
28z"/>
<path d="M7164 3765 c-9 -22 29 -80 54 -83 19 -3 21 -9 18 -50 -2 -39 3 -56
29 -97 43 -66 92 -112 106 -98 7 7 -9 29 -53 72 l-63 61 24 21 c16 13 21 23
14 27 -6 4 -21 27 -33 52 -27 54 -69 110 -82 110 -5 0 -11 -7 -14 -15z"/>
<path d="M6575 3750 c3 -5 12 -10 18 -10 7 0 44 -23 82 -51 85 -62 191 -125
225 -133 65 -17 -164 152 -251 185 -54 21 -83 24 -74 9z"/>
<path d="M6750 3742 c0 -5 6 -16 13 -27 16 -20 31 -7 21 19 -6 16 -34 23 -34
8z"/>
<path d="M7010 3720 c32 -45 117 -130 130 -130 18 0 -8 39 -69 102 -61 62 -98
79 -61 28z"/>
<path d="M5455 3720 c-46 -23 -75 -54 -75 -81 0 -17 3 -18 23 -8 26 13 107 90
107 101 0 12 -11 9 -55 -12z"/>
<path d="M6390 3720 c0 -13 34 -30 59 -30 26 0 27 16 2 30 -25 13 -61 13 -61
0z"/>
<path d="M7360 3715 c0 -23 21 -63 36 -69 17 -7 18 14 3 48 -13 28 -39 43 -39
21z"/>
<path d="M5978 3709 c-25 -14 -22 -29 5 -29 23 0 47 17 47 32 0 11 -31 9 -52
-3z"/>
<path d="M6230 3711 c0 -9 24 -21 41 -21 5 0 9 7 9 15 0 9 -9 15 -25 15 -14 0
-25 -4 -25 -9z"/>
<path d="M6520 3717 c0 -2 26 -21 58 -42 31 -21 83 -58 115 -82 43 -33 57 -40
57 -27 0 24 -57 74 -126 111 -59 31 -104 48 -104 40z"/>
<path d="M6348 3688 c12 -12 24 -19 28 -15 10 10 -16 37 -34 37 -13 0 -12 -4
6 -22z"/>
<path d="M6099 3689 c-114 -16 -254 -83 -344 -163 -35 -31 -37 -35 -18 -36 11
0 68 32 125 70 94 64 113 73 211 96 59 14 105 30 101 35 -3 5 -8 8 -12 8 -4
-1 -32 -5 -63 -10z"/>
<path d="M6806 3691 c-6 -9 17 -32 51 -50 36 -19 36 5 0 33 -37 28 -43 30 -51
17z"/>
<path d="M5515 3670 c-66 -33 -230 -190 -198 -190 9 0 173 122 239 178 31 25
35 32 19 32 -11 0 -38 -9 -60 -20z"/>
<path d="M5832 3669 c-13 -5 -63 -44 -111 -88 -49 -43 -101 -87 -116 -97 -15
-10 -34 -34 -42 -53 -8 -19 -50 -69 -94 -111 -56 -54 -79 -83 -79 -100 0 -23
2 -22 41 15 23 22 84 87 136 145 118 130 210 210 290 252 34 18 59 36 57 40
-7 11 -53 9 -82 -3z"/>
<path d="M6510 3656 c0 -10 9 -16 21 -16 24 0 21 23 -4 28 -10 2 -17 -3 -17
-12z"/>
<path d="M6110 3633 c-231 -39 -449 -226 -629 -542 -86 -150 -67 -138 69 45
210 281 397 429 610 485 l65 17 -45 0 c-25 -1 -56 -3 -70 -5z"/>
<path d="M7358 3635 c-8 -9 3 -45 13 -45 5 0 9 6 9 13 0 17 -15 39 -22 32z"/>
<path d="M6920 3611 c14 -28 57 -48 71 -34 13 13 -17 39 -55 49 -27 6 -27 5
-16 -15z"/>
<path d="M6436 3611 c-16 -6 1 -21 92 -84 62 -43 137 -98 167 -122 58 -47 71
-54 62 -31 -3 8 5 24 19 37 13 12 24 30 24 38 1 19 43 -27 130 -142 33 -43 60
-71 60 -62 0 19 -25 57 -83 128 -21 26 -36 47 -33 47 13 0 107 -94 141 -140
39 -53 134 -257 169 -362 28 -83 34 -65 10 30 -27 109 -79 228 -139 317 -76
115 -252 291 -272 272 -3 -4 6 -12 21 -18 14 -7 26 -16 26 -21 0 -15 -44 -8
-77 11 -46 29 -52 1 -7 -38 18 -17 34 -33 34 -35 0 -3 -9 -10 -21 -16 -18 -10
-27 -5 -75 40 -34 32 -85 66 -137 90 -61 28 -78 40 -64 45 9 4 17 11 17 16 0
11 -37 11 -64 0z"/>
<path d="M6152 3596 c-76 -19 -87 -38 -20 -38 58 1 243 38 224 45 -28 11 -146
7 -204 -7z"/>
<path d="M7060 3605 c0 -29 94 -135 121 -135 12 0 8 8 -35 68 -27 38 -86 84
-86 67z"/>
<path d="M6540 3592 c0 -5 9 -17 20 -27 14 -13 24 -15 31 -8 8 8 4 15 -12 27
-26 18 -39 20 -39 8z"/>
<path d="M6610 3591 c0 -12 47 -61 60 -61 17 0 11 20 -15 45 -24 25 -45 32
-45 16z"/>
<path d="M7320 3572 c0 -24 14 -44 42 -58 39 -20 45 -12 21 28 -18 31 -63 52
-63 30z"/>
<path d="M7160 3562 c0 -4 16 -23 35 -42 30 -30 35 -31 35 -14 0 24 -35 64
-55 64 -8 0 -15 -4 -15 -8z"/>
<path d="M7030 3547 c0 -7 10 -18 21 -25 28 -18 46 -1 24 22 -19 19 -45 21
-45 3z"/>
<path d="M6190 3536 c-24 -10 -58 -13 -110 -9 -86 6 -125 -6 -184 -57 -55 -49
-30 -55 50 -14 81 41 169 54 299 42 109 -11 243 -58 298 -106 9 -8 20 -13 23
-9 12 11 -92 99 -155 130 -74 36 -164 45 -221 23z"/>
<path d="M6409 3529 c24 -11 55 -22 70 -25 l26 -5 -28 25 c-21 20 -38 26 -70
25 l-42 0 44 -20z"/>
<path d="M6540 3482 c0 -12 131 -161 209 -237 33 -33 61 -55 61 -49 0 27 -84
136 -155 202 -79 74 -115 100 -115 84z"/>
<path d="M6210 3472 c0 -5 26 -16 58 -26 126 -40 225 -109 283 -198 47 -73 95
-196 105 -266 3 -29 11 -52 16 -52 12 0 2 101 -17 173 -7 26 -48 106 -91 177
-69 114 -82 130 -105 130 -14 0 -60 16 -102 35 -70 32 -147 46 -147 27z"/>
<path d="M5973 3463 c-7 -2 -13 -9 -13 -15 0 -12 41 -6 41 7 1 12 -11 15 -28
8z"/>
<path d="M6024 3425 c-43 -28 -81 -45 -100 -45 -25 0 -46 -16 -125 -97 -90
-93 -93 -97 -69 -104 42 -12 46 -10 58 24 12 34 77 107 95 107 5 0 -3 -16 -17
-35 -41 -53 -21 -42 57 31 81 77 146 120 201 135 29 8 36 13 25 20 -27 17 -56
9 -125 -36z"/>
<path d="M7042 3460 c7 -32 124 -230 135 -230 17 0 43 53 43 89 0 32 -43 91
-66 91 -17 0 -17 0 2 -38 8 -18 19 -46 24 -63 15 -51 -10 -29 -47 42 -32 61
-98 141 -91 109z"/>
<path d="M7260 3445 c0 -18 43 -65 60 -65 16 0 12 25 -11 54 -23 29 -49 35
-49 11z"/>
<path d="M5570 3333 c-92 -95 -177 -213 -153 -213 18 0 283 292 283 313 0 23
-37 -5 -130 -100z"/>
<path d="M6173 3429 c-20 -20 4 -39 48 -39 22 0 39 4 39 9 0 25 -68 49 -87 30z"/>
<path d="M5441 3399 c-12 -11 -20 -26 -18 -32 7 -23 25 -17 51 18 24 31 25 35
8 35 -10 0 -28 -9 -41 -21z"/>
<path d="M5787 3375 c-43 -43 -77 -105 -56 -105 5 0 32 22 59 48 36 34 50 56
50 75 0 15 -2 27 -4 27 -3 0 -25 -20 -49 -45z"/>
<path d="M6290 3390 c0 -19 40 -50 65 -50 23 0 24 2 15 20 -17 32 -80 56 -80
30z"/>
<path d="M6827 3393 c-15 -15 -5 -56 19 -80 35 -35 52 -18 29 31 -19 39 -38
59 -48 49z"/>
<path d="M7005 3385 c12 -40 70 -126 112 -167 53 -52 55 -39 4 38 -45 69 -126
159 -116 129z"/>
<path d="M6051 3370 c-24 -11 -65 -36 -92 -56 -53 -39 -185 -191 -175 -201 4
-4 34 20 67 53 49 48 61 56 69 44 21 -32 5 -67 -72 -162 -76 -94 -114 -168
-85 -168 23 0 101 92 150 178 58 98 108 157 161 185 33 17 56 21 121 20 l80
-2 -33 30 c-26 23 -41 29 -80 29 -55 0 -114 -25 -164 -69 -41 -35 -48 -38 -48
-15 0 9 16 31 35 49 43 41 114 59 206 53 76 -6 80 3 15 33 -53 24 -100 24
-155 -1z"/>
<path d="M7250 3379 c0 -17 23 -69 30 -69 22 0 20 25 -4 48 -14 15 -26 24 -26
21z"/>
<path d="M6607 3344 c-9 -9 23 -54 39 -54 18 0 18 10 -2 38 -15 22 -26 27 -37
16z"/>
<path d="M6420 3335 c0 -19 35 -64 69 -90 22 -16 44 -40 50 -53 12 -25 54
-249 66 -346 9 -81 27 -59 33 41 5 99 -10 174 -53 261 -43 85 -165 223 -165
187z"/>
<path d="M6286 3321 c-11 -17 29 -53 54 -49 l25 3 -27 28 c-28 28 -43 33 -52
18z"/>
<path d="M6567 3314 c-7 -7 33 -64 45 -64 12 0 9 45 -4 58 -13 13 -31 16 -41
6z"/>
<path d="M6805 3309 c5 -8 18 -26 29 -41 16 -23 18 -32 8 -53 -10 -22 -9 -25
7 -25 10 0 24 7 31 15 17 21 -1 56 -48 92 -20 15 -32 20 -27 12z"/>
<path d="M6400 3285 c0 -4 9 -20 20 -36 12 -16 39 -59 60 -96 l40 -68 0 38 c0
45 -18 83 -57 118 -42 37 -63 52 -63 44z"/>
<path d="M7300 3257 c0 -28 26 -67 46 -67 20 0 18 17 -7 56 -24 39 -39 44 -39
11z"/>
<path d="M6910 3258 c0 -3 17 -35 39 -70 21 -34 53 -92 71 -127 31 -63 32 -65
15 -93 -23 -40 -12 -118 22 -159 32 -37 38 -33 18 14 -20 47 -19 103 0 115 14
7 12 19 -15 93 -17 46 -42 102 -55 124 -22 37 -95 116 -95 103z"/>
<path d="M5653 3218 c-25 -27 -96 -175 -120 -250 -7 -22 36 -46 48 -27 4 8 3
16 -3 20 -17 11 -1 39 22 39 25 0 44 41 24 53 -10 5 -3 27 27 93 22 46 39 89
37 95 -2 5 -17 -5 -35 -23z"/>
<path d="M6376 3231 c-14 -16 -23 -18 -43 -10 -40 15 -42 12 -21 -53 27 -88
21 -219 -21 -411 -18 -82 -30 -154 -28 -160 5 -17 53 71 71 130 17 61 33 200
42 366 l6 118 24 -33 c57 -77 66 -180 34 -397 -11 -74 -18 -137 -15 -139 7 -8
54 95 69 155 18 70 21 180 5 238 -11 39 -83 193 -98 208 -4 4 -15 -1 -25 -12z"/>
<path d="M6680 3238 c0 -7 25 -51 55 -97 30 -46 55 -92 55 -102 0 -32 12 -49
35 -49 19 0 23 -7 29 -48 3 -27 13 -57 20 -68 14 -18 15 -18 21 -1 4 9 2 36
-4 60 -9 36 -8 44 6 54 15 11 15 16 0 55 -22 56 -54 108 -67 108 -18 0 -11
-28 20 -77 17 -26 30 -54 30 -62 0 -28 -51 32 -86 101 -47 93 -114 168 -114
126z"/>
<path d="M7255 3240 c-7 -11 8 -41 29 -59 22 -18 27 1 9 37 -16 33 -27 39 -38
22z"/>
<path d="M6099 3220 c-39 -20 -93 -77 -135 -139 -14 -23 -30 -38 -35 -36 -15
10 -28 -32 -22 -69 5 -34 8 -37 30 -31 22 5 24 3 18 -16 -6 -18 -4 -21 9 -16
9 4 16 4 16 2 0 -3 -26 -58 -59 -123 -70 -141 -78 -162 -58 -162 21 0 77 66
77 90 0 24 15 26 24 4 10 -27 -39 -119 -112 -212 -84 -107 -127 -171 -119
-178 10 -10 27 6 47 47 17 32 26 39 49 39 42 0 83 54 134 179 30 75 54 117 86
150 66 70 115 179 119 269 4 59 2 72 -11 72 -18 0 -61 -49 -87 -99 -21 -42
-54 -150 -47 -157 7 -7 58 75 84 136 l24 55 -4 -50 c-3 -41 -14 -67 -62 -140
-33 -50 -61 -92 -63 -95 -2 -2 -8 2 -13 10 -22 33 -1 106 71 243 40 75 73 137
74 137 2 0 16 -5 33 -10 l30 -11 -5 -74 c-6 -89 8 -99 40 -29 20 47 19 111 -4
159 -7 17 -6 16 11 -3 48 -55 37 -140 -48 -356 -67 -172 -94 -258 -88 -284 2
-10 19 15 44 68 88 189 142 366 150 496 l6 92 -43 31 c-51 37 -105 41 -161 11z
m106 -30 c3 -5 0 -10 -9 -10 -8 0 -34 -9 -59 -19 -39 -17 -49 -28 -83 -94 -24
-47 -41 -71 -46 -64 -11 18 2 76 28 129 21 41 29 48 61 53 21 4 43 8 48 10 21
7 54 5 60 -5z"/>
<path d="M6647 3203 c-12 -11 -7 -29 14 -51 22 -24 39 -105 39 -189 0 -42 3
-51 15 -47 11 5 15 -1 15 -22 0 -49 11 -74 31 -74 11 0 19 4 19 10 0 56 -98
380 -115 380 -6 0 -15 -3 -18 -7z"/>
<path d="M6905 3178 c-7 -17 38 -88 56 -88 19 0 8 37 -20 70 -25 30 -30 32
-36 18z"/>
<path d="M7240 3161 c0 -11 9 -23 21 -26 28 -9 31 -3 13 23 -19 27 -34 28 -34
3z"/>
<path d="M7032 3148 c2 -13 8 -23 13 -23 6 0 11 10 13 23 2 15 -2 22 -13 22
-11 0 -15 -7 -13 -22z"/>
<path d="M7210 3150 c0 -5 16 -38 35 -72 41 -74 47 -53 8 27 -25 50 -43 70
-43 45z"/>
<path d="M5819 3118 c-19 -18 -57 -73 -84 -121 -26 -48 -66 -103 -87 -122 -31
-28 -37 -39 -32 -62 4 -22 -6 -46 -45 -108 -66 -103 -65 -125 2 -54 37 38 80
107 141 220 48 90 105 190 126 222 43 63 33 75 -21 25z"/>
<path d="M5694 3126 c-24 -11 -45 -33 -44 -49 0 -1 20 -3 45 -4 l45 -2 0 34
c0 39 -2 40 -46 21z"/>
<path d="M6401 3058 c0 -35 3 -81 7 -103 l7 -40 18 25 c21 30 21 52 2 118 -22
74 -35 74 -34 0z"/>
<path d="M7175 3088 c4 -17 25 -67 46 -112 22 -44 39 -90 39 -103 0 -13 5 -23
11 -23 22 0 0 93 -43 183 -42 88 -65 113 -53 55z"/>
<path d="M5511 3054 c-23 -30 -28 -74 -8 -74 7 0 23 23 34 50 24 57 10 70 -26
24z"/>
<path d="M6916 3064 c-8 -22 15 -68 37 -72 21 -4 22 19 2 58 -17 33 -30 38
-39 14z"/>
<path d="M6529 3043 c-14 -38 -3 -107 22 -128 10 -10 22 -16 25 -12 8 8 -17
156 -27 163 -5 3 -14 -7 -20 -23z"/>
<path d="M6750 3037 c0 -25 25 -66 34 -56 8 8 -14 79 -24 79 -6 0 -10 -10 -10
-23z"/>
<path d="M7080 3045 c0 -28 29 -87 40 -80 15 9 12 33 -7 66 -19 32 -33 38 -33
14z"/>
<path d="M5636 2978 c-8 -13 -22 -40 -31 -60 -15 -38 -15 -38 9 -38 27 0 35
15 41 80 5 46 1 49 -19 18z"/>
<path d="M7295 2978 c-9 -23 -3 -50 13 -56 14 -4 16 36 2 58 -8 12 -10 12 -15
-2z"/>
<path d="M6814 2945 c-5 -11 -10 -13 -19 -5 -18 15 -27 -2 -19 -35 6 -25 34
-36 34 -12 1 7 6 5 14 -6 14 -18 14 -18 21 1 13 42 -17 96 -31 57z"/>
<path d="M6975 2941 c-10 -31 4 -101 20 -101 20 0 27 30 14 69 -15 48 -26 58
-34 32z"/>
<path d="M5490 2909 c-12 -22 -7 -49 9 -49 9 0 41 50 41 65 0 15 -41 2 -50
-16z"/>
<path d="M5811 2904 c-12 -15 -21 -41 -21 -58 l1 -31 24 28 c15 16 25 40 25
58 0 36 -3 36 -29 3z"/>
<path d="M6270 2866 c-25 -56 -64 -205 -56 -213 10 -11 56 104 72 177 8 40 12
75 10 78 -3 3 -15 -16 -26 -42z"/>
<path d="M7100 2875 c0 -42 37 -275 44 -282 2 -2 7 14 11 37 5 27 -1 78 -15
153 -24 119 -40 157 -40 92z"/>
<path d="M5867 2871 c-35 -42 -53 -76 -92 -176 -29 -75 -33 -80 -58 -77 -15 2
-27 0 -27 -5 0 -5 -18 -32 -40 -62 -22 -29 -40 -58 -40 -65 0 -6 18 -11 45
-12 27 -1 44 3 42 9 -2 6 21 42 50 81 76 101 156 262 151 306 l-3 34 -28 -33z"/>
<path d="M5522 2868 c-14 -14 -16 -58 -4 -58 8 0 16 14 40 63 6 12 -23 8 -36
-5z"/>
<path d="M6158 2858 c-9 -14 -58 -99 -108 -188 -50 -90 -111 -185 -136 -213
-47 -52 -63 -92 -46 -109 15 -15 42 -2 42 21 0 23 46 81 65 81 12 0 45 67 45
91 0 6 11 25 23 42 33 44 112 194 127 240 15 48 9 67 -12 35z"/>
<path d="M6386 2864 c-9 -24 -7 -134 3 -134 19 0 33 32 38 90 5 55 4 60 -15
60 -11 0 -23 -7 -26 -16z"/>
<path d="M6683 2869 c-14 -14 -18 -139 -5 -139 29 0 39 54 23 123 -5 23 -8 26
-18 16z"/>
<path d="M6516 2833 c-3 -16 -19 -109 -36 -208 -17 -99 -42 -224 -56 -277 -29
-117 -29 -116 -4 -93 11 10 20 13 20 7 0 -7 9 -12 20 -12 11 0 20 7 20 15 0 8
-7 15 -15 15 -18 0 -19 -5 5 57 30 78 49 205 56 373 7 140 3 186 -10 123z"/>
<path d="M7144 2845 c-7 -16 20 -65 36 -65 17 0 18 15 5 48 -15 34 -32 41 -41
17z"/>
<path d="M6891 2821 c-11 -19 3 -130 19 -160 15 -28 30 21 20 65 -5 21 -10 53
-10 71 0 38 -15 51 -29 24z"/>
<path d="M5717 2813 c-4 -3 -7 -21 -7 -40 0 -23 -5 -33 -15 -33 -8 0 -15 -4
-15 -10 0 -20 37 -9 62 18 26 26 26 27 8 50 -20 24 -23 25 -33 15z"/>
<path d="M6837 2802 c-37 -41 -53 -152 -21 -152 9 0 18 9 21 20 11 40 26 20
21 -27 -7 -56 -2 -73 19 -73 13 0 14 9 9 53 -3 28 -8 82 -12 120 -7 74 -14 85
-37 59z"/>
<path d="M6937 2812 c-8 -11 18 -104 26 -96 4 4 7 29 7 56 0 35 -4 48 -14 48
-8 0 -17 -3 -19 -8z"/>
<path d="M6997 2813 c-23 -22 13 -173 41 -173 9 0 -1 151 -12 168 -8 13 -19
15 -29 5z"/>
<path d="M5527 2783 c-11 -10 -8 -53 3 -53 6 0 10 9 10 20 0 11 7 20 15 20 8
0 15 5 15 10 0 11 -33 14 -43 3z"/>
<path d="M7220 2777 c0 -23 21 -77 30 -77 29 0 21 63 -10 80 -16 8 -20 8 -20
-3z"/>
<path d="M6546 2772 c-3 -5 -2 -22 2 -38 7 -26 -2 -155 -23 -322 -8 -68 12
-68 33 -1 18 58 22 360 5 366 -6 2 -14 0 -17 -5z"/>
<path d="M6754 2755 c-7 -18 9 -70 22 -70 5 0 10 19 12 43 2 33 0 42 -13 42
-8 0 -18 -7 -21 -15z"/>
<path d="M7170 2735 c0 -18 5 -25 20 -25 21 0 24 8 14 34 -10 25 -34 19 -34
-9z"/>
<path d="M6720 2654 c0 -54 4 -83 10 -79 6 3 10 42 10 86 0 46 -4 79 -10 79
-6 0 -10 -35 -10 -86z"/>
<path d="M6621 2706 c-18 -21 -28 -116 -13 -116 20 0 33 39 30 87 -3 41 -5 44
-17 29z"/>
<path d="M6665 2690 c-8 -36 -3 -45 20 -36 11 4 15 15 13 33 -4 38 -25 40 -33
3z"/>
<path d="M7080 2695 c-16 -19 -4 -108 13 -102 14 4 22 117 9 117 -5 0 -15 -7
-22 -15z"/>
<path d="M6348 2658 c-40 -53 -68 -115 -68 -150 l1 -33 18 23 c11 12 22 40 26
62 4 25 12 40 21 40 8 0 14 -5 14 -11 0 -7 -40 -94 -89 -195 -49 -101 -86
-184 -82 -184 11 0 102 132 131 190 37 72 60 149 67 222 7 77 -2 85 -39 36z"/>
<path d="M6967 2683 c-10 -9 -8 -153 1 -153 20 0 33 54 26 107 -6 50 -12 61
-27 46z"/>
<path d="M7187 2683 c-4 -3 -7 -12 -7 -20 0 -17 26 -17 33 1 8 21 -11 35 -26
19z"/>
<path d="M5634 2638 c-46 -49 -74 -89 -74 -105 0 -11 4 -11 28 1 17 9 41 39
61 75 36 68 30 78 -15 29z"/>
<path d="M6176 2604 c-9 -22 -7 -54 2 -54 15 0 32 24 32 47 0 26 -25 31 -34 7z"/>
<path d="M6665 2600 c-13 -14 -16 -29 -12 -57 7 -49 -3 -95 -47 -217 -20 -54
-34 -101 -31 -105 17 -17 78 121 104 234 9 39 9 39 10 8 1 -22 6 -33 16 -33
23 0 30 48 11 86 -9 19 -16 48 -16 64 0 37 -13 45 -35 20z"/>
<path d="M6772 2603 c-9 -16 -42 -250 -42 -296 0 -32 19 -17 30 22 11 41 32
282 25 289 -2 2 -8 -5 -13 -15z"/>
<path d="M5784 2556 c-27 -30 -62 -78 -77 -106 l-28 -53 28 7 c35 8 63 41 63
72 0 13 4 24 9 24 19 0 81 68 81 89 0 35 -25 24 -76 -33z"/>
<path d="M6820 2595 c-11 -13 -16 -49 -18 -129 -2 -98 -1 -109 12 -93 14 18
32 182 25 222 -4 17 -5 17 -19 0z"/>
<path d="M6421 2581 c-19 -19 -51 -108 -51 -141 0 -10 -14 -43 -31 -75 -23
-44 -29 -63 -22 -78 8 -17 16 -7 55 69 42 82 67 149 82 217 7 32 -6 35 -33 8z"/>
<path d="M7012 2528 c-19 -91 -25 -154 -14 -143 27 26 56 195 34 195 -5 0 -14
-24 -20 -52z"/>
<path d="M5975 2419 c-113 -163 -113 -164 -85 -149 44 24 102 96 141 177 23
46 39 87 37 92 -1 5 -43 -49 -93 -120z"/>
<path d="M6597 2533 c-10 -9 -9 -113 1 -113 20 0 32 28 32 72 0 45 -13 62 -33
41z"/>
<path d="M6910 2505 c0 -39 14 -46 30 -16 16 31 12 51 -10 51 -16 0 -20 -7
-20 -35z"/>
<path d="M6866 2504 c-3 -9 -6 -43 -6 -76 0 -43 3 -59 13 -56 14 5 23 148 9
148 -6 0 -13 -7 -16 -16z"/>
<path d="M6197 2499 c-9 -5 -21 -8 -26 -4 -15 9 -43 -37 -30 -50 7 -7 15 -4
25 9 13 19 14 19 14 -5 0 -13 -20 -58 -44 -99 -24 -41 -46 -86 -50 -100 -12
-43 70 57 96 117 23 52 46 73 34 31 -4 -13 -9 -36 -13 -53 -6 -28 -5 -29 12
-15 40 33 59 122 29 134 -10 4 -14 14 -11 26 6 22 -8 25 -36 9z"/>
<path d="M6063 2448 c-36 -41 -53 -72 -53 -97 l0 -25 31 30 c34 32 59 74 59
99 0 21 -13 19 -37 -7z"/>
<path d="M6084 2374 c-23 -55 -1 -68 25 -16 25 49 25 52 5 52 -8 0 -22 -16
-30 -36z"/>
<path d="M6683 2350 c-26 -43 -75 -179 -70 -194 5 -15 63 88 83 146 22 67 15
94 -13 48z"/>
<path d="M6500 2321 c0 -15 6 -21 21 -21 14 0 19 5 17 17 -5 26 -38 29 -38 4z"/>
<path d="M5792 2298 c-18 -18 -14 -38 8 -38 20 0 44 32 33 44 -10 10 -28 7
-41 -6z"/>
<path d="M6778 2290 c-19 -26 -23 -56 -9 -64 16 -10 32 22 29 56 l-3 33 -17
-25z"/>
<path d="M5927 2251 c-20 -27 -45 -52 -56 -56 -25 -8 -27 -21 -5 -29 23 -9 50
9 94 65 45 57 49 69 21 69 -11 0 -33 -20 -54 -49z"/>
<path d="M6833 2269 c-7 -7 -13 -22 -13 -33 0 -19 1 -19 16 -4 9 8 14 23 12
32 -2 14 -5 15 -15 5z"/>
<path d="M6696 2238 c-20 -28 -21 -59 -2 -52 13 5 36 46 36 64 0 17 -18 11
-34 -12z"/>
<path d="M6266 2224 c-21 -20 -21 -64 -1 -64 24 0 66 46 59 64 -8 20 -38 20
-58 0z"/>
<path d="M6469 2183 c-7 -21 -19 -48 -27 -60 -12 -19 -12 -23 -1 -23 8 0 28
27 45 60 28 53 29 60 14 60 -12 0 -23 -13 -31 -37z"/>
<path d="M6360 2189 c0 -24 23 -21 28 4 2 10 -3 17 -12 17 -10 0 -16 -9 -16
-21z"/>
<path d="M6042 2168 c-16 -16 -15 -28 3 -28 8 0 19 9 25 20 8 15 8 20 -3 20
-7 0 -18 -5 -25 -12z"/>
<path d="M6537 2142 c-31 -34 -15 -58 17 -26 17 16 22 44 8 44 -5 0 -16 -8
-25 -18z"/>
<path d="M7849 5961 c-32 -32 -39 -46 -39 -77 0 -50 29 -96 73 -117 43 -21 61
-21 77 -2 16 19 4 35 -26 35 -34 0 -74 42 -74 78 0 35 37 72 71 72 33 0 65
-24 73 -55 4 -16 13 -25 26 -25 28 0 32 15 16 54 -18 44 -69 76 -120 76 -31 0
-45 -7 -77 -39z"/>
<path d="M4712 5970 c-48 -29 -69 -79 -54 -129 18 -57 62 -91 119 -91 40 0 50
5 85 40 41 40 47 72 16 78 -10 2 -22 -8 -30 -25 -16 -33 -60 -57 -88 -48 -32
10 -60 46 -60 75 0 33 36 68 78 76 22 5 32 12 32 25 0 26 -54 25 -98 -1z"/>
<path d="M8096 5871 c-4 -6 -9 -40 -13 -77 -4 -49 -12 -73 -30 -94 -47 -57
-11 -85 41 -31 15 16 42 32 59 35 83 17 107 27 107 46 0 28 -11 31 -71 15 -30
-8 -55 -15 -57 -15 -1 0 -1 28 0 62 2 51 0 63 -14 66 -9 2 -19 -1 -22 -7z"/>
<path d="M8217 5642 c-42 -42 -77 -82 -77 -88 0 -16 92 -100 119 -109 28 -9
68 16 84 53 6 15 22 37 34 49 36 34 29 67 -23 123 -26 28 -50 50 -53 50 -4 0
-41 -35 -84 -78z m110 -14 c13 -12 23 -27 23 -35 0 -21 -35 -15 -58 10 -17 18
-19 26 -10 35 16 16 18 16 45 -10z m-36 -99 c6 -11 4 -21 -5 -28 -11 -10 -22
-5 -50 20 -35 30 -36 33 -20 50 17 19 18 19 42 -3 13 -13 28 -30 33 -39z"/>
<path d="M4496 5682 c-24 -26 -25 -30 -11 -42 14 -12 21 -9 47 17 29 30 31 53
4 53 -7 0 -25 -13 -40 -28z"/>
<path d="M4277 5578 c-2 -7 2 -33 9 -58 8 -25 14 -49 14 -54 0 -4 -28 -6 -62
-5 -58 4 -63 2 -63 -16 0 -17 10 -21 75 -30 52 -7 85 -17 104 -32 34 -27 45
-29 53 -6 4 11 -3 25 -23 41 -21 18 -35 46 -49 96 -13 47 -26 72 -36 74 -10 2
-19 -3 -22 -10z"/>
<path d="M8381 5471 c-45 -38 -83 -72 -83 -76 -2 -17 87 -115 103 -115 28 0
23 27 -11 70 -29 37 -29 37 -10 55 20 18 21 18 49 -9 43 -41 74 -8 35 35 -9
11 -14 25 -10 35 5 14 13 10 42 -25 37 -43 61 -52 70 -26 6 14 -78 125 -95
125 -3 0 -44 -31 -90 -69z"/>
<path d="M4071 5320 c-55 -75 -59 -87 -35 -97 10 -4 24 4 39 23 l23 29 69 -48
c37 -26 76 -47 86 -47 35 0 15 31 -53 81 -38 28 -70 54 -70 58 0 3 7 17 16 29
16 23 12 42 -11 42 -7 0 -36 -31 -64 -70z"/>
<path d="M8507 5319 c-59 -40 -87 -66 -87 -80 0 -26 26 -24 66 6 18 14 35 25
37 25 2 0 -3 -34 -11 -76 -11 -54 -12 -78 -4 -86 17 -17 39 -2 45 31 6 28 9
29 41 24 30 -5 40 -1 66 25 16 17 30 39 30 50 0 21 -75 142 -88 142 -5 0 -48
-27 -95 -61z m113 -44 c18 -29 20 -38 10 -50 -19 -23 -37 -18 -66 20 -26 35
-26 36 -8 50 29 22 40 18 64 -20z"/>
<path d="M3982 5178 c-7 -7 -12 -15 -12 -19 0 -14 181 -121 195 -115 30 11 14
32 -57 76 -40 24 -82 50 -94 57 -16 10 -23 10 -32 1z"/>
<path d="M3928 5080 c-21 -13 -80 -120 -74 -136 6 -17 177 -105 195 -102 30 6
16 33 -29 57 l-45 25 78 24 c64 19 77 27 77 44 0 18 -4 20 -40 14 -33 -5 -40
-3 -40 10 0 24 -55 74 -82 74 -13 0 -31 -5 -40 -10z m69 -56 c6 -15 -24 -94
-36 -94 -10 0 -51 31 -51 38 0 4 9 22 20 40 21 34 56 43 67 16z"/>
<path d="M8749 5046 c-23 -11 -24 -17 -22 -89 2 -62 0 -77 -12 -77 -17 0 -41
34 -50 73 -5 17 -14 27 -25 27 -27 0 -31 -12 -19 -53 15 -56 55 -97 92 -97 61
0 80 32 64 107 -6 29 -7 56 -3 60 10 10 46 -34 46 -56 0 -23 19 -41 36 -34 29
11 9 89 -32 124 -29 24 -49 28 -75 15z"/>
<path d="M3810 4863 c0 -14 18 -27 70 -50 38 -17 73 -39 76 -47 8 -21 -13 -73
-33 -80 -8 -3 -47 7 -86 24 -57 24 -74 27 -84 17 -7 -6 -9 -17 -5 -22 12 -19
132 -65 167 -65 64 0 116 101 81 155 -17 25 -105 71 -158 82 -23 4 -28 2 -28
-14z"/>
<path d="M8795 4825 c-70 -31 -99 -48 -97 -59 5 -28 51 -124 62 -131 7 -4 17
-2 23 4 8 8 6 24 -7 61 -10 28 -17 52 -15 54 2 2 13 8 25 14 18 10 23 7 37
-24 27 -56 70 -40 47 17 -10 23 -10 33 -1 42 8 8 16 -2 33 -41 21 -50 47 -67
63 -42 7 11 -47 143 -61 146 -5 1 -54 -17 -109 -41z"/>
<path d="M8884 4649 c-43 -12 -82 -54 -90 -96 -11 -57 33 -133 76 -133 22 0
20 29 -4 53 -45 45 -30 109 29 126 60 17 97 -23 92 -99 -2 -29 1 -35 18 -35
31 0 42 55 20 110 -24 65 -76 92 -141 74z"/>
<path d="M3720 4622 c-63 -63 -46 -157 34 -193 75 -33 142 -2 166 77 14 48 0
97 -27 92 -13 -2 -17 -14 -18 -52 0 -38 -6 -52 -24 -67 -30 -25 -62 -24 -95 2
-38 30 -32 93 12 125 16 12 10 44 -8 44 -7 0 -24 -13 -40 -28z"/>
<path d="M8962 4415 c-75 -18 -102 -46 -102 -108 0 -40 5 -53 29 -78 16 -16
39 -29 51 -29 45 0 162 32 167 47 12 31 -13 36 -91 17 -85 -20 -98 -15 -111
37 -9 37 13 54 90 70 66 13 92 29 80 49 -8 13 -46 12 -113 -5z"/>
<path d="M3654 4412 c-12 -8 -48 -142 -40 -149 9 -9 198 -54 214 -51 10 2 20
23 28 58 19 80 18 100 -6 100 -14 0 -22 -11 -30 -42 -6 -24 -13 -48 -15 -54
-2 -7 -15 -9 -30 -6 -24 4 -26 8 -23 46 3 35 0 41 -17 41 -13 0 -22 -10 -29
-32 -9 -35 -36 -46 -36 -15 0 9 4 33 10 52 11 37 -4 66 -26 52z"/>
<path d="M3601 4182 c-21 -39 -24 -100 -8 -126 37 -56 93 -38 122 39 12 30 24
45 35 45 26 0 31 -25 15 -72 -10 -29 -11 -46 -4 -54 25 -30 59 20 59 87 0 50
-14 77 -46 89 -38 15 -69 -6 -95 -63 -31 -65 -54 -75 -46 -21 13 84 12 88 -5
92 -9 2 -21 -6 -27 -16z"/>
<path d="M8991 4165 c-90 -14 -111 -25 -93 -48 9 -10 24 -12 57 -7 25 4 45 4
45 2 0 -3 -21 -32 -46 -65 -44 -55 -46 -60 -30 -75 16 -16 19 -15 41 12 l23
29 27 -22 c35 -27 65 -27 99 0 28 22 32 51 20 143 -8 53 -4 52 -143 31z m97
-96 c-2 -37 -7 -45 -26 -47 -24 -4 -27 2 -37 60 -5 34 -4 37 22 40 39 5 45 -3
41 -53z"/>
<path d="M9015 3931 c-76 -7 -95 -15 -95 -36 0 -20 12 -21 122 -13 105 8 125
15 115 42 -7 17 -21 18 -142 7z"/>
<path d="M3579 3841 c-22 -17 -24 -27 -24 -98 l0 -78 115 0 c108 0 115 1 115
20 0 17 -8 21 -54 25 l-54 5 56 48 c33 28 57 57 57 68 0 25 -32 25 -55 -1
l-18 -20 -27 25 c-32 30 -78 33 -111 6z m87 -55 c12 -48 2 -71 -33 -74 -33 -3
-33 -3 -33 41 0 50 4 57 36 57 17 0 25 -7 30 -24z"/>
<path d="M9120 3836 c-6 -8 -10 -28 -8 -43 l3 -28 -90 -5 c-82 -5 -90 -7 -90
-25 0 -18 8 -20 92 -23 l92 -3 3 -32 c2 -24 8 -32 23 -32 18 0 20 8 23 82 4
104 -15 147 -48 109z"/>
<path d="M3750 3625 c-8 -9 -9 -29 -5 -56 7 -43 -2 -59 -36 -59 -11 0 -18 12
-23 40 -5 31 -11 40 -26 40 -17 0 -20 -7 -20 -40 0 -27 -4 -40 -14 -40 -16 0
-26 30 -26 78 0 29 -3 33 -22 30 -16 -2 -23 -10 -22 -25 0 -13 1 -48 2 -80 l2
-56 116 6 c64 4 119 9 122 11 2 3 1 39 -3 80 -7 76 -22 99 -45 71z"/>
<path d="M9077 3563 c-44 -27 -71 -36 -105 -37 -40 -1 -47 -4 -47 -21 0 -16 8
-21 41 -23 30 -2 54 -14 95 -47 29 -25 62 -45 71 -45 33 0 19 37 -27 73 l-45
35 47 28 c56 32 66 44 51 61 -14 18 -15 17 -81 -24z"/>
<path d="M3690 3415 c-7 -8 -25 -15 -41 -15 -16 0 -38 -9 -50 -21 -19 -19 -21
-29 -16 -87 4 -36 9 -67 12 -70 3 -3 56 1 117 9 l113 14 -3 45 c-5 70 -21 119
-42 130 -28 15 -76 12 -90 -5z m74 -58 c14 -51 2 -77 -34 -77 -13 0 -22 81
-10 96 15 17 37 8 44 -19z m-93 -44 c7 -36 4 -43 -22 -43 -17 0 -30 42 -21 69
8 23 36 6 43 -26z"/>
<path d="M8994 3213 c-3 -16 -7 -33 -9 -40 -2 -6 3 -17 12 -24 13 -11 17 -10
29 6 8 10 14 34 14 52 0 26 -4 33 -20 33 -13 0 -22 -9 -26 -27z"/>
<path d="M3612 3168 c-24 -24 -14 -31 87 -70 l24 -9 -43 -44 c-28 -28 -41 -49
-37 -59 11 -28 34 -17 82 38 31 37 57 57 78 62 41 8 57 22 50 40 -4 12 -16 14
-53 9 -37 -5 -60 -1 -110 19 -75 31 -63 29 -78 14z"/>
<path d="M3834 2966 c-3 -8 4 -27 15 -42 26 -33 27 -85 4 -107 -58 -51 -126
-17 -122 60 4 53 -15 78 -37 49 -20 -28 -17 -85 6 -124 61 -100 220 -55 220
62 0 69 -68 149 -86 102z"/>
<path d="M8848 2954 c-33 -17 -58 -62 -58 -103 0 -42 9 -61 31 -61 15 0 18 9
21 51 2 43 8 56 29 72 24 17 31 18 63 7 63 -21 71 -77 19 -132 -26 -28 -24
-48 6 -48 38 0 85 87 75 139 -10 48 -65 91 -117 91 -23 -1 -54 -7 -69 -16z"/>
<path d="M8720 2672 c0 -15 10 -24 35 -33 27 -10 45 -29 75 -76 37 -59 61 -76
75 -53 4 6 -7 33 -24 60 -17 28 -31 52 -31 54 0 2 21 7 46 11 64 9 74 14 74
37 0 19 -4 20 -57 13 -73 -11 -119 -11 -160 0 -29 7 -33 5 -33 -13z"/>
<path d="M3874 2595 c-7 -17 25 -76 44 -83 21 -7 26 28 9 64 -17 35 -43 45
-53 19z"/>
<path d="M8632 2496 c-37 -73 -39 -95 -13 -127 13 -17 28 -23 54 -22 20 1 41
-5 48 -13 17 -20 66 -17 89 6 25 25 62 98 55 110 -4 6 -191 110 -199 110 -1 0
-16 -29 -34 -64z m98 -26 c0 -13 -45 -73 -57 -78 -22 -7 -26 28 -8 68 16 35
19 38 41 28 13 -6 24 -14 24 -18z m65 -70 c-19 -37 -30 -43 -44 -26 -10 11 -9
21 4 45 13 27 19 30 35 21 19 -10 19 -13 5 -40z"/>
<path d="M4106 2355 c-14 -11 -45 -15 -103 -15 -75 0 -83 -2 -83 -19 0 -23 19
-31 76 -31 24 0 44 -5 44 -10 0 -6 -9 -29 -21 -51 -22 -44 -20 -69 7 -69 10 0
27 25 46 68 21 48 40 74 65 90 19 13 33 28 30 35 -5 18 -39 19 -61 2z"/>
<path d="M8518 2302 c-21 -32 -38 -66 -38 -75 0 -31 29 -17 60 28 30 44 31 45
55 29 30 -19 29 -18 9 -49 -18 -28 -13 -55 11 -55 8 0 15 3 15 8 1 19 36 51
48 43 11 -7 9 -17 -13 -49 -27 -41 -30 -72 -8 -79 11 -4 74 83 89 121 4 10
-22 33 -82 72 -49 31 -93 58 -99 60 -5 2 -27 -22 -47 -54z"/>
<path d="M8441 2186 c-9 -11 -3 -21 30 -49 l41 -36 -33 -5 c-19 -3 -55 -8 -81
-11 -39 -5 -48 -10 -48 -26 0 -16 7 -19 40 -19 37 0 40 -2 40 -28 0 -46 41
-76 97 -73 25 1 121 118 107 130 -21 18 -173 131 -177 131 -3 0 -10 -6 -16
-14z m113 -115 c17 -18 17 -21 0 -46 -22 -34 -45 -46 -67 -34 -23 13 -22 26 9
66 29 38 35 40 58 14z"/>
<path d="M4196 2129 l-70 -52 -23 29 c-21 27 -24 28 -39 12 -16 -16 -14 -22
40 -93 32 -42 63 -74 69 -72 19 6 20 37 2 57 -22 24 -18 29 60 86 63 46 79 75
45 81 -8 2 -46 -20 -84 -48z"/>
<path d="M4287 1984 c-73 -62 -91 -91 -61 -101 17 -6 169 126 169 146 0 33
-32 19 -108 -45z"/>
<path d="M4423 1983 c-7 -3 -13 -20 -13 -38 0 -31 -2 -33 -35 -32 -47 1 -85
-34 -85 -80 0 -26 10 -45 46 -83 26 -28 52 -50 58 -50 19 0 165 152 159 166
-8 21 -25 17 -67 -18 l-39 -32 6 76 c5 78 -2 101 -30 91z m-15 -146 l32 -33
-23 -22 -23 -22 -27 28 c-37 38 -35 76 4 81 3 1 20 -14 37 -32z"/>
<path d="M8214 1911 c-38 -23 -74 -68 -74 -92 0 -33 23 -69 49 -76 18 -4 40 2
73 20 27 15 53 27 58 27 22 0 8 -30 -26 -59 -24 -19 -35 -35 -31 -45 10 -25
36 -19 72 17 55 55 59 107 9 129 -23 11 -33 9 -75 -15 -58 -32 -79 -34 -79 -7
0 21 19 44 60 72 22 15 23 18 10 32 -14 14 -18 14 -46 -3z"/>
<path d="M4564 1791 c-32 -14 -127 -129 -120 -146 10 -27 32 -16 85 45 29 33
58 60 65 60 21 0 66 -40 66 -59 0 -9 -22 -43 -50 -76 -55 -65 -58 -73 -33 -82
20 -8 120 96 130 135 17 68 -78 149 -143 123z"/>
<path d="M8034 1748 c-62 -54 -66 -60 -49 -77 11 -12 20 -8 59 23 l45 37 16
-25 c16 -25 16 -26 -12 -50 -26 -23 -27 -26 -12 -41 15 -15 18 -14 47 10 29
24 33 25 39 9 5 -12 -4 -26 -30 -48 -39 -33 -49 -66 -19 -66 9 0 41 22 71 49
l54 48 -74 86 c-41 48 -77 87 -80 87 -3 0 -28 -19 -55 -42z"/>
<path d="M4744 1646 c-22 -17 -12 -32 25 -39 41 -8 71 -41 71 -76 0 -33 -40
-81 -67 -81 -27 0 -61 27 -78 61 -29 54 -64 29 -39 -29 16 -40 68 -72 117 -72
82 0 144 106 102 177 -30 50 -100 81 -131 59z"/>
<path d="M7874 1620 c-29 -11 -76 -69 -72 -89 5 -27 37 -25 48 3 13 34 61 59
93 47 30 -12 57 -48 57 -76 0 -29 -41 -66 -82 -74 -43 -9 -44 -35 -1 -39 42
-4 89 21 113 61 24 39 25 59 3 104 -28 60 -98 88 -159 63z"/>
<path d="M4936 1524 c-3 -9 -6 -17 -6 -19 0 -2 20 -15 45 -29 50 -30 51 -33
31 -62 -14 -18 -16 -18 -43 -3 -56 32 -72 -1 -21 -43 27 -22 30 -28 16 -33 -9
-4 -33 4 -58 20 -36 22 -45 25 -56 13 -7 -7 -10 -18 -6 -24 10 -16 124 -84
132 -79 10 6 123 196 118 199 -21 16 -128 76 -136 76 -5 0 -13 -7 -16 -16z"/>
<path d="M7668 1484 c-35 -18 -61 -68 -52 -97 15 -48 79 -147 97 -147 26 0 21
29 -19 94 -40 66 -40 81 -3 108 39 29 62 16 105 -57 37 -63 59 -79 70 -51 6
14 -45 107 -79 144 -24 26 -77 29 -119 6z"/>
<path d="M5096 1399 c-40 -31 -34 -65 20 -115 25 -24 43 -48 39 -54 -9 -15
-18 -13 -60 16 -39 26 -65 26 -65 0 0 -23 58 -58 105 -63 36 -5 45 -2 59 18
25 36 20 53 -30 102 -67 64 -37 94 41 42 29 -21 40 -23 51 -14 13 10 11 16 -8
36 -51 55 -108 67 -152 32z"/>
<path d="M7523 1399 c-9 -9 -7 -22 8 -51 11 -22 18 -42 15 -45 -3 -3 -35 6
-72 21 -49 18 -71 23 -80 15 -19 -16 -6 -37 28 -44 22 -5 28 -11 22 -23 -20
-47 -16 -71 14 -102 17 -16 38 -30 47 -30 12 0 130 53 143 65 6 5 -98 205
-106 205 -4 0 -13 -5 -19 -11z m55 -144 c7 -14 12 -27 12 -29 0 -9 -81 -38
-94 -33 -29 11 -19 52 17 70 44 22 52 21 65 -8z"/>
<path d="M7312 1307 c-9 -10 -2 -36 27 -106 41 -98 53 -117 70 -107 17 11 14
26 -27 126 -39 96 -51 111 -70 87z"/>
<path d="M5413 1289 c-8 -8 -7 -20 3 -45 13 -30 13 -34 -1 -34 -9 0 -27 -11
-40 -25 -30 -29 -33 -74 -7 -102 14 -17 118 -63 142 -63 4 0 24 48 45 106 27
74 35 108 27 116 -18 18 -40 1 -53 -41 -7 -23 -15 -41 -18 -41 -3 0 -17 26
-30 58 -35 83 -45 94 -68 71z m85 -180 c-12 -34 -14 -34 -62 -14 -37 16 -47
40 -25 62 8 8 23 7 54 -4 42 -14 43 -15 33 -44z"/>
<path d="M7154 1247 c-2 -7 7 -46 21 -86 14 -41 25 -79 25 -86 0 -6 -13 -16
-30 -22 -16 -6 -30 -16 -30 -22 0 -23 32 -22 110 4 65 22 80 30 80 47 0 21 -6
21 -69 6 -9 -2 -23 26 -42 82 -16 47 -29 86 -29 88 -1 8 -32 0 -36 -11z"/>
<path d="M5613 1214 c-8 -21 3 -29 59 -44 32 -8 45 -17 42 -26 -2 -8 -6 -21
-8 -28 -4 -11 -12 -13 -33 -7 -36 10 -53 4 -53 -19 0 -14 10 -21 35 -26 32 -6
44 -21 29 -36 -3 -3 -27 0 -53 7 -51 13 -78 7 -69 -17 5 -13 109 -48 142 -48
9 0 20 17 26 43 6 23 20 72 30 109 10 37 15 70 12 72 -10 6 -128 36 -141 36
-7 0 -14 -7 -18 -16z"/>
<path d="M6934 1142 c5 -38 1 -61 -19 -112 -19 -48 -22 -67 -14 -77 16 -19 34
-2 55 53 9 24 20 44 24 44 3 0 25 -16 48 -36 36 -30 45 -34 58 -23 13 11 8 20
-41 69 -34 35 -59 70 -66 93 -7 28 -15 37 -31 37 -19 0 -20 -4 -14 -48z"/>
<path d="M5810 1150 c-21 -21 -27 -69 -10 -86 8 -8 7 -19 -1 -38 -24 -52 14
-86 117 -102 l40 -6 21 114 c11 62 19 115 18 116 -8 8 -83 22 -122 22 -30 0
-49 -6 -63 -20z m125 -60 c0 -21 -4 -25 -25 -23 -54 6 -70 13 -70 34 0 18 5
20 48 17 43 -3 47 -5 47 -28z m-29 -70 c8 0 14 -10 14 -26 0 -20 -4 -25 -16
-20 -9 3 -24 6 -35 6 -11 0 -22 7 -26 16 -7 18 15 36 35 29 8 -3 20 -5 28 -5z"/>
<path d="M6107 1134 c-4 -4 -7 -23 -7 -43 0 -28 -11 -49 -49 -95 -47 -55 -56
-86 -26 -86 8 0 31 21 53 46 l39 46 28 -51 c18 -33 35 -51 47 -51 26 0 22 22
-13 86 -22 38 -32 70 -33 102 -1 34 -5 48 -16 50 -9 1 -19 0 -23 -4z"/>
<path d="M6288 1114 c-16 -8 -28 -21 -28 -30 0 -19 28 -30 43 -15 18 18 82 13
101 -8 21 -23 24 -85 6 -106 -15 -18 -83 -20 -110 -3 -15 10 -22 10 -31 1 -29
-29 20 -63 93 -63 32 0 47 7 74 34 28 28 34 42 34 75 0 23 -7 55 -15 71 -28
55 -109 76 -167 44z"/>
<path d="M6642 1030 c-37 -16 -21 -35 29 -35 37 0 44 3 44 20 0 23 -35 30 -73
15z"/>
</g>
</svg>
