<?xml version="1.0" encoding="UTF-8"?>
<svg version="1.1" xmlns="http://www.w3.org/2000/svg" width="245" height="232">
<path d="M0 0 C3.48111381 3.07157101 4.9550975 6.06507503 5.39355469 10.73583984 C5.5381421 15.34955519 5.56193087 19.9584897 5.56445312 24.57421875 C5.59249023 26.27384766 5.59249023 26.27384766 5.62109375 28.0078125 C5.62387329 29.55299561 5.62387329 29.55299561 5.62670898 31.12939453 C6.25462958 34.58926468 7.32822357 35.79525784 10.125 37.875 C13.47366515 37.81625149 15.93813406 37.62382924 18.80786133 35.81323242 C20.88230974 32.76058257 20.60630164 29.49637581 20.63671875 25.92578125 C20.65466995 25.15316452 20.67262115 24.38054779 20.69111633 23.58451843 C20.74526104 21.118901 20.77912731 18.65347757 20.8125 16.1875 C20.84566952 14.51494694 20.88015885 12.84241949 20.91601562 11.16992188 C21.00098949 7.0717545 21.0677802 2.97364506 21.125 -1.125 C22.88400631 -1.15549973 24.64316575 -1.17725201 26.40234375 -1.1953125 C27.38195068 -1.20836426 28.36155762 -1.22141602 29.37084961 -1.23486328 C33.02360659 -1.08915451 35.22345014 -0.35696143 38.125 1.875 C39.6875 4.75 39.6875 4.75 40.125 7.875 C39.0625 10.625 39.0625 10.625 37.125 12.875 C35.47904295 13.59127341 33.81327211 14.26511517 32.125 14.875 C32.6303125 15.56207031 33.135625 16.24914062 33.65625 16.95703125 C34.63078125 18.30861328 34.63078125 18.30861328 35.625 19.6875 C36.2746875 20.58082031 36.924375 21.47414062 37.59375 22.39453125 C39.125 24.875 39.125 24.875 39.125 27.875 C35.89847475 27.5573628 34.44669408 27.19296069 32.10546875 24.87890625 C31.51378906 24.07324219 30.92210937 23.26757812 30.3125 22.4375 C29.70792969 21.63441406 29.10335937 20.83132812 28.48046875 20.00390625 C27.125 17.875 27.125 17.875 27.125 15.875 C26.465 15.875 25.805 15.875 25.125 15.875 C25.17720703 17.71964844 25.17720703 17.71964844 25.23046875 19.6015625 C25.25862045 21.23436127 25.28591913 22.8671749 25.3125 24.5 C25.33763672 25.30824219 25.36277344 26.11648437 25.38867188 26.94921875 C25.45068158 32.03401426 24.95410143 35.46813047 22.125 39.875 C18.71078421 42.80147067 15.6157641 43.40889612 11.12109375 43.23046875 C7.77041482 42.6337725 5.66876396 41.05536911 3.125 38.875 C-1.51247852 31.43571154 0.05893681 20.37704548 0.3828125 12.00390625 C0.09054226 8.45680828 -0.69762688 6.666504 -2.875 3.875 C-6.09880166 2.84612713 -7.98043271 2.56069257 -11.1875 3.6875 C-13.02597822 4.78187325 -13.02597822 4.78187325 -13.875 6.875 C-14.01404158 8.29838447 -14.10023173 9.72718812 -14.15625 11.15625 C-14.19363281 11.99800781 -14.23101562 12.83976562 -14.26953125 13.70703125 C-14.30433594 14.58746094 -14.33914062 15.46789062 -14.375 16.375 C-14.44377497 18.114752 -14.51650269 19.85435359 -14.59375 21.59375 C-14.62404297 22.36654297 -14.65433594 23.13933594 -14.68554688 23.93554688 C-14.875 25.875 -14.875 25.875 -15.875 27.875 C-17.195 27.545 -18.515 27.215 -19.875 26.875 C-19.98367663 23.85318586 -20.06262754 20.83533673 -20.125 17.8125 C-20.17527344 16.54116211 -20.17527344 16.54116211 -20.2265625 15.24414062 C-20.31928037 9.24065863 -19.4874635 5.73161614 -15.875 0.875 C-11.27223507 -2.43352212 -5.08742841 -1.99073286 0 0 Z M25.125 2.875 C25.125 5.515 25.125 8.155 25.125 10.875 C29.84915328 11.27375273 29.84915328 11.27375273 34.125 9.625 C35.54741324 7.60425442 35.54741324 7.60425442 34.125 3.875 C31.155 3.545 28.185 3.215 25.125 2.875 Z " fill="#2573A1" transform="translate(134.875,113.125)"/>
<path d="M0 0 C2.27246338 2.0913455 3.69102273 4.02258757 5.04296875 6.79296875 C5.39423828 7.50517578 5.74550781 8.21738281 6.10742188 8.95117188 C6.46384766 9.68916016 6.82027344 10.42714844 7.1875 11.1875 C7.55552734 11.93708984 7.92355469 12.68667969 8.30273438 13.45898438 C9.20728218 15.30332212 10.10437576 17.15131245 11 19 C14.20743441 15.29750507 16.26361588 11.65686427 18.25 7.1875 C18.77078125 6.02605469 19.2915625 4.86460938 19.828125 3.66796875 C20.21484375 2.78753906 20.6015625 1.90710938 21 1 C21.99 1 22.98 1 24 1 C24.6719902 4.91577268 25.33666742 8.8327522 26 12.75 C26.19078125 13.86117187 26.3815625 14.97234375 26.578125 16.1171875 C26.84882812 17.72207031 26.84882812 17.72207031 27.125 19.359375 C27.37636719 20.83615723 27.37636719 20.83615723 27.6328125 22.34277344 C28 25 28 25 28 29 C26.35 29 24.7 29 23 29 C22.80083984 27.60974609 22.80083984 27.60974609 22.59765625 26.19140625 C22.42105469 24.99386719 22.24445313 23.79632813 22.0625 22.5625 C21.88847656 21.36753906 21.71445313 20.17257813 21.53515625 18.94140625 C21.31014787 16.12044324 21.31014787 16.12044324 20 15 C17.69 19.62 15.38 24.24 13 29 C12.01 29 11.02 29 10 29 C7.69 24.05 5.38 19.1 3 14 C2.690625 16.10375 2.38125 18.2075 2.0625 20.375 C1.125 26.75 1.125 26.75 0 29 C-1.65 28.67 -3.3 28.34 -5 28 C-4.3596402 23.70749783 -3.71179064 19.41615961 -3.0625 15.125 C-2.88009766 13.90167969 -2.69769531 12.67835937 -2.50976562 11.41796875 C-2.33251953 10.25136719 -2.15527344 9.08476563 -1.97265625 7.8828125 C-1.72914429 6.26463623 -1.72914429 6.26463623 -1.48071289 4.61376953 C-1 2 -1 2 0 0 Z " fill="#276F98" transform="translate(57,112)"/>
<path d="M0 0 C1.98 0.495 1.98 0.495 4 1 C4.02505615 1.6612085 4.0501123 2.32241699 4.07592773 3.00366211 C4.19153102 5.98182305 4.31441754 8.9596392 4.4375 11.9375 C4.47681641 12.97841797 4.51613281 14.01933594 4.55664062 15.09179688 C4.59853516 16.08115234 4.64042969 17.07050781 4.68359375 18.08984375 C4.72025146 19.00628662 4.75690918 19.92272949 4.79467773 20.86694336 C4.77003864 22.9820728 4.77003864 22.9820728 6 24 C7.99958364 24.04080783 10.00045254 24.04254356 12 24 C13.20270964 21.59458071 13.20316663 19.89633409 13.31640625 17.2109375 C13.35830078 16.26992187 13.40019531 15.32890625 13.44335938 14.359375 C13.48267578 13.37453125 13.52199219 12.3896875 13.5625 11.375 C13.60568359 10.38242188 13.64886719 9.38984375 13.69335938 8.3671875 C13.79961069 5.91160162 13.90164964 3.45591297 14 1 C15.9375 0.4375 15.9375 0.4375 18 0 C20.42065219 2.42065219 19.3296132 8.44234351 19.375 11.6875 C19.41238281 12.68201172 19.44976562 13.67652344 19.48828125 14.70117188 C19.5873631 22.97450608 19.5873631 22.97450608 16.6640625 26.64453125 C13.59317913 29.35969646 12.0750666 30 8 30 C4.5923611 29.049031 2.0781083 27.90935162 0 25 C-1.09703652 20.07084962 -1.15082994 15.26961857 -1.125 10.25 C-1.12886719 9.48300781 -1.13273437 8.71601562 -1.13671875 7.92578125 C-1.12674989 2.25349978 -1.12674989 2.25349978 0 0 Z " fill="#216B92" transform="translate(30,112)"/>
<path d="M0 0 C1.98 0.495 1.98 0.495 4 1 C4.33 3.31 4.66 5.62 5 8 C5.43570313 7.50628906 5.87140625 7.01257813 6.3203125 6.50390625 C11.24528302 1.2058319 11.24528302 1.2058319 15.4375 0.0625 C16.283125 0.041875 17.12875 0.02125 18 0 C17.45799828 3.79401205 15.9949434 5.19215244 13.0625 7.5625 C10.46971343 9.67531519 8.88302476 11.17546286 7 14 C7.86625 14.83144531 8.7325 15.66289063 9.625 16.51953125 C10.75039057 17.61678706 11.87536934 18.71446534 13 19.8125 C13.85851562 20.63331055 13.85851562 20.63331055 14.734375 21.47070312 C16.21400538 22.92391154 17.61296658 24.45816374 19 26 C19 26.99 19 27.98 19 29 C16.80078125 29.3125 16.80078125 29.3125 14 29 C11.54296875 26.8125 11.54296875 26.8125 9.1875 24 C8.39730469 23.071875 7.60710937 22.14375 6.79296875 21.1875 C6.20128906 20.465625 5.60960937 19.74375 5 19 C4.67 22.3 4.34 25.6 4 29 C2.35 28.67 0.7 28.34 -1 28 C-1.02891949 23.70834738 -1.04677118 19.41671964 -1.0625 15.125 C-1.07087891 13.90167969 -1.07925781 12.67835937 -1.08789062 11.41796875 C-1.09111328 10.25136719 -1.09433594 9.08476563 -1.09765625 7.8828125 C-1.10289307 6.80402832 -1.10812988 5.72524414 -1.11352539 4.61376953 C-1 2 -1 2 0 0 Z " fill="#1C6D98" transform="translate(206,112)"/>
<path d="M0 0 C2.96200923 2.73392036 4.84371705 5.21202615 6.578125 8.84375 C7.23554687 10.21853516 7.23554687 10.21853516 7.90625 11.62109375 C8.3496875 12.57113281 8.793125 13.52117187 9.25 14.5 C9.70890625 15.45003906 10.1678125 16.40007812 10.640625 17.37890625 C14 24.48758371 14 24.48758371 14 29 C12.68 29 11.36 29 10 29 C8.68 26.36 7.36 23.72 6 21 C2.55191922 20.51793822 -0.57582696 20.28465817 -4 21 C-5.81239112 22.9724352 -6.78934298 24.80575416 -7.8671875 27.25 C-8.24101563 27.8275 -8.61484375 28.405 -9 29 C-10.32 29 -11.64 29 -13 29 C-12.3825314 25.14692616 -11.22449823 22.024803 -9.53125 18.515625 C-9.04269531 17.49855469 -8.55414063 16.48148438 -8.05078125 15.43359375 C-7.28314453 13.85771484 -7.28314453 13.85771484 -6.5 12.25 C-5.73236328 10.65091797 -5.73236328 10.65091797 -4.94921875 9.01953125 C-1.14959206 1.14959206 -1.14959206 1.14959206 0 0 Z M0 9 C-0.66 11.31 -1.32 13.62 -2 16 C-0.02 16 1.96 16 4 16 C3.39816251 13.97954558 2.72693904 11.97888961 2 10 C1.34 9.67 0.68 9.34 0 9 Z " fill="#236E9C" transform="translate(99,112)"/>
<path d="M0 0 C0.99 0 1.98 0 3 0 C3 9.57 3 19.14 3 29 C1.68 29 0.36 29 -1 29 C-1 24.71 -1 20.42 -1 16 C-4.96 16 -8.92 16 -13 16 C-13 20.29 -13 24.58 -13 29 C-14.32 29 -15.64 29 -17 29 C-17 20.42 -17 11.84 -17 3 C-16.01 3 -15.02 3 -14 3 C-13.67 5.64 -13.34 8.28 -13 11 C-9.04 11 -5.08 11 -1 11 C-1.020625 9.370625 -1.04125 7.74125 -1.0625 6.0625 C-1.08386068 4.37500659 -1.07205511 2.68608966 -1 1 C-0.67 0.67 -0.34 0.34 0 0 Z " fill="#1A6A98" transform="translate(21,112)"/>
<path d="M0 0 C13.1 0 13.1 0 17 3 C18.5625 5.875 18.5625 5.875 19 9 C17.9375 11.75 17.9375 11.75 16 14 C14.35404295 14.71627341 12.68827211 15.39011517 11 16 C11.5053125 16.68707031 12.010625 17.37414062 12.53125 18.08203125 C13.1809375 18.98308594 13.830625 19.88414062 14.5 20.8125 C15.1496875 21.70582031 15.799375 22.59914062 16.46875 23.51953125 C18 26 18 26 18 29 C14.77347475 28.6823628 13.32169408 28.31796069 10.98046875 26.00390625 C10.09294922 24.79541016 10.09294922 24.79541016 9.1875 23.5625 C8.58292969 22.75941406 7.97835937 21.95632812 7.35546875 21.12890625 C6 19 6 19 6 17 C5.01 16.67 4.02 16.34 3 16 C2.67 12.7 2.34 9.4 2 6 C1.67 11.94 1.34 17.88 1 24 C0.67 24 0.34 24 0 24 C0 16.08 0 8.16 0 0 Z M4 4 C4 6.64 4 9.28 4 12 C8.72415328 12.39875273 8.72415328 12.39875273 13 10.75 C14.42241324 8.72925442 14.42241324 8.72925442 13 5 C10.03 4.67 7.06 4.34 4 4 Z " fill="#1A658C" transform="translate(156,112)"/>
<path d="M0 0 C2.4375 1.875 2.4375 1.875 4 4 C4 4.66 4 5.32 4 6 C2.125 6.625 2.125 6.625 0 7 C-0.66 6.34 -1.32 5.68 -2 5 C-4.10820797 5.3185177 -4.10820797 5.3185177 -6 6 C-4.57161661 9.43260721 -2.87391736 11.07954379 0.0625 13.3125 C3.04513686 15.84964283 3.93080168 16.79932488 5.25 20.625 C4.9404659 24.80371035 4.14817283 26.25543907 1 29 C-2.77081459 30.31158768 -4.48941725 30.18655908 -8.25 28.8125 C-10.99419504 27.003826 -12.09315513 26.12357677 -13 23 C-12.67 22.34 -12.34 21.68 -12 21 C-10.68 21.33 -9.36 21.66 -8 22 C-8 22.66 -8 23.32 -8 24 C-6.02 24 -4.04 24 -2 24 C-1.20156711 22.19088759 -1.20156711 22.19088759 -1 20 C-2.30598628 18.0864343 -2.30598628 18.0864343 -4.25 16.4375 C-4.87390625 15.85871094 -5.4978125 15.27992187 -6.140625 14.68359375 C-7.32704143 13.60933854 -8.51562641 12.53747013 -9.70703125 11.46875 C-11 10 -11 10 -11.4375 7.0625 C-11 4 -11 4 -9.4375 1.625 C-6.06489221 -0.62340519 -3.97487617 -0.56783945 0 0 Z " fill="#186892" transform="translate(197,112)"/>
<path d="M0 0 C2.4375 1.875 2.4375 1.875 4 4 C4 4.66 4 5.32 4 6 C2.125 6.625 2.125 6.625 0 7 C-0.66 6.34 -1.32 5.68 -2 5 C-4.06874034 4.3574765 -4.06874034 4.3574765 -6 4 C-5.68971912 7.26641145 -5.35615094 8.66270015 -2.93359375 10.95703125 C-2.10988281 11.56933594 -1.28617188 12.18164062 -0.4375 12.8125 C3.78475298 16.36914303 3.78475298 16.36914303 4.734375 19.15234375 C4.85974034 22.51840303 4.21812203 24.68493484 2.3125 27.4375 C-0.33817724 29.22849814 -1.79382862 29.92366259 -5 30 C-8.31921765 28.76342872 -10.39377408 27.86980241 -12.4375 24.9375 C-13 23 -13 23 -12 21 C-9.13275314 21.57344937 -8.1385485 21.8614515 -6 24 C-3.39719432 23.67958603 -3.39719432 23.67958603 -1 23 C-1.53884708 19.1775535 -3.05227864 17.76475982 -6 15.375 C-10.8466127 11.41116319 -10.8466127 11.41116319 -11.3125 7.125 C-11 4 -11 4 -9.4375 1.625 C-6.06489221 -0.62340519 -3.97487617 -0.56783945 0 0 Z " fill="#226E95" transform="translate(238,112)"/>
<path d="M0 0 C2.69996056 2.38231814 3.88644257 4.50337145 5.125 7.875 C4.8125 10.25 4.8125 10.25 4.125 11.875 C3.795 11.215 3.465 10.555 3.125 9.875 C3.07601562 11.01839844 3.02703125 12.16179687 2.9765625 13.33984375 C2.90154811 14.83075473 2.82599972 16.32163892 2.75 17.8125 C2.70359375 18.94461914 2.70359375 18.94461914 2.65625 20.09960938 C2.5523685 22.03007395 2.34604386 23.95442081 2.125 25.875 C1.465 26.205 0.805 26.535 0.125 26.875 C0.15980469 25.63363281 0.19460937 24.39226562 0.23046875 23.11328125 C0.25861584 21.47136774 0.28591501 19.82943954 0.3125 18.1875 C0.33763672 17.37087891 0.36277344 16.55425781 0.38867188 15.71289062 C0.44631112 10.96725927 0.33252019 7.66706826 -2.875 3.875 C-6.09880166 2.84612713 -7.98043271 2.56069257 -11.1875 3.6875 C-13.02597822 4.78187325 -13.02597822 4.78187325 -13.875 6.875 C-14.01404158 8.29838447 -14.10023173 9.72718812 -14.15625 11.15625 C-14.19363281 11.99800781 -14.23101562 12.83976562 -14.26953125 13.70703125 C-14.30433594 14.58746094 -14.33914062 15.46789062 -14.375 16.375 C-14.44377497 18.114752 -14.51650269 19.85435359 -14.59375 21.59375 C-14.62404297 22.36654297 -14.65433594 23.13933594 -14.68554688 23.93554688 C-14.875 25.875 -14.875 25.875 -15.875 27.875 C-17.195 27.545 -18.515 27.215 -19.875 26.875 C-19.98367663 23.85318586 -20.06262754 20.83533673 -20.125 17.8125 C-20.17527344 16.54116211 -20.17527344 16.54116211 -20.2265625 15.24414062 C-20.31928037 9.24065863 -19.4874635 5.73161614 -15.875 0.875 C-11.27223507 -2.43352212 -5.08742841 -1.99073286 0 0 Z " fill="#216C98" transform="translate(134.875,113.125)"/>
<path d="M0 0 C0.99 0 1.98 0 3 0 C4.35700647 2.71401294 4.1123861 4.84846316 4.09765625 7.8828125 C4.09443359 9.04941406 4.09121094 10.21601562 4.08789062 11.41796875 C4.07951172 12.64128906 4.07113281 13.86460938 4.0625 15.125 C4.05798828 16.35605469 4.05347656 17.58710938 4.04882812 18.85546875 C4.0370133 21.90369392 4.02054028 24.95182314 4 28 C2.0625 28.5625 2.0625 28.5625 0 29 C-1.80279191 27.19720809 -1.13036605 24.45952299 -1.1328125 22.03125 C-1.13410156 20.82082031 -1.13539063 19.61039063 -1.13671875 18.36328125 C-1.13285156 17.08839844 -1.12898437 15.81351563 -1.125 14.5 C-1.12886719 13.22511719 -1.13273438 11.95023438 -1.13671875 10.63671875 C-1.13542969 9.42628906 -1.13414062 8.21585938 -1.1328125 6.96875 C-1.13168457 5.84919922 -1.13055664 4.72964844 -1.12939453 3.57617188 C-1 1 -1 1 0 0 Z " fill="#1E6994" transform="translate(179,112)"/>
<path d="M0 0 C0.99 0 1.98 0 3 0 C3.6719902 3.91577268 4.33666742 7.8327522 5 11.75 C5.19078125 12.86117187 5.3815625 13.97234375 5.578125 15.1171875 C5.75859375 16.18710938 5.9390625 17.25703125 6.125 18.359375 C6.29257813 19.34389648 6.46015625 20.32841797 6.6328125 21.34277344 C7 24 7 24 7 28 C5.35 28 3.7 28 2 28 C1.63737003 25.56348622 1.28461036 23.12623023 0.9375 20.6875 C0.83373047 19.99720703 0.72996094 19.30691406 0.62304688 18.59570312 C0.16191164 15.30415164 -0.06594625 13.19783876 1 10 C1 9.34 1 8.68 1 8 C0.34 8 -0.32 8 -1 8 C-1.125 2.25 -1.125 2.25 0 0 Z " fill="#246B91" transform="translate(78,113)"/>
<path d="M0 0 C2.0625 0.4375 2.0625 0.4375 4 1 C5.45155993 7.16912972 5.45155993 7.16912972 3.4375 10.875 C0.46009217 13.47068888 -1.05959845 14 -5 14 C-8.35883972 12.77273164 -10.37790752 11.89256746 -12.4375 8.9375 C-13 7 -13 7 -12 5 C-10.02 5.495 -10.02 5.495 -8 6 C-8 6.66 -8 7.32 -8 8 C-6.00045254 8.04254356 -3.99958364 8.04080783 -2 8 C-1.67 7.67 -1.34 7.34 -1 7 C-1 6.01 -1 5.02 -1 4 C-1 1 -1 1 0 0 Z " fill="#196E97" transform="translate(197,128)"/>
<path d="M0 0 C2.4375 1.875 2.4375 1.875 4 4 C4 4.66 4 5.32 4 6 C2.125 6.625 2.125 6.625 0 7 C-0.66 6.34 -1.32 5.68 -2 5 C-4.06874034 4.3574765 -4.06874034 4.3574765 -6 4 C-5.84518205 6.70931419 -5.51827919 8.46584039 -3.59765625 10.4453125 C-2.10228292 11.67679642 -0.5537076 12.8429837 1 14 C-2 14 -2 14 -4 13 C-4.66 13.66 -5.32 14.32 -6 15 C-10.83675937 10.88875453 -10.83675937 10.88875453 -11.5625 6.9375 C-11 4 -11 4 -9.4375 1.625 C-6.06489221 -0.62340519 -3.97487617 -0.56783945 0 0 Z " fill="#1B668C" transform="translate(238,112)"/>
<path d="M0 0 C1.98 0.495 1.98 0.495 4 1 C4 2.98 4 4.96 4 7 C3.34 5.68 2.68 4.36 2 3 C2 7.95 2 12.9 2 18 C2.66 18 3.32 18 4 18 C4 21.63 4 25.26 4 29 C2.35 28.67 0.7 28.34 -1 28 C-1.02891949 23.70834738 -1.04677118 19.41671964 -1.0625 15.125 C-1.07087891 13.90167969 -1.07925781 12.67835937 -1.08789062 11.41796875 C-1.09111328 10.25136719 -1.09433594 9.08476563 -1.09765625 7.8828125 C-1.10289307 6.80402832 -1.10812988 5.72524414 -1.11352539 4.61376953 C-1 2 -1 2 0 0 Z " fill="#1E6890" transform="translate(206,112)"/>
<path d="M0 0 C0.99 0 1.98 0 3 0 C3.33 2.64 3.66 5.28 4 8 C7.96 8 11.92 8 16 8 C16 8.66 16 9.32 16 10 C11.38 10 6.76 10 2 10 C1.67 14.62 1.34 19.24 1 24 C1.66 24 2.32 24 3 24 C3 20.37 3 16.74 3 13 C3.33 13 3.66 13 4 13 C4 17.29 4 21.58 4 26 C2.68 26 1.36 26 0 26 C0 17.42 0 8.84 0 0 Z " fill="#2B6A8A" transform="translate(4,115)"/>
<path d="M0 0 C1.86668371 2.13575523 3.08100942 4.31912303 4 7 C3.75 9.4375 3.75 9.4375 3 11 C2.67 10.34 2.34 9.68 2 9 C1.95101562 10.14339844 1.90203125 11.28679687 1.8515625 12.46484375 C1.77654811 13.95575473 1.70099972 15.44663892 1.625 16.9375 C1.57859375 18.06961914 1.57859375 18.06961914 1.53125 19.22460938 C1.4273685 21.15507395 1.22104386 23.07942081 1 25 C0.34 25.33 -0.32 25.66 -1 26 C-0.96519531 24.75863281 -0.93039063 23.51726562 -0.89453125 22.23828125 C-0.86638416 20.59636774 -0.83908499 18.95443954 -0.8125 17.3125 C-0.78736328 16.49587891 -0.76222656 15.67925781 -0.73632812 14.83789062 C-0.67933246 10.14524745 -0.68996413 6.6584607 -4 3 C-6.25339498 2.1893804 -6.25339498 2.1893804 -8.6875 2.1875 C-9.89986328 2.11595703 -9.89986328 2.11595703 -11.13671875 2.04296875 C-11.75160156 2.02878906 -12.36648437 2.01460938 -13 2 C-12.67 1.34 -12.34 0.68 -12 0 C-7.76773353 -1.08267282 -4.15334059 -1.44464021 0 0 Z " fill="#1C618B" transform="translate(136,114)"/>
<path d="M0 0 C3.95038663 4.74046395 7 9.78644166 7 16 C5.68 16 4.36 16 3 16 C2.82726562 15.43410156 2.65453125 14.86820313 2.4765625 14.28515625 C1.5365652 11.83167705 0.69773977 10.01766561 -1 8 C-4.34851879 6.98704682 -7.51788789 6.89367597 -11 7 C-11 6.67 -11 6.34 -11 6 C-7.7 5.67 -4.4 5.34 -1 5 C-0.67 3.35 -0.34 1.7 0 0 Z " fill="#236A92" transform="translate(106,125)"/>
<path d="M0 0 C0.8212231 3.11932321 1.33244056 5.75870453 1 9 C-0.5 10.8125 -0.5 10.8125 -2 12 C-1.34 12 -0.68 12 0 12 C-1.12451727 14.9719385 -2.22293791 17.33440687 -4 20 C-5.32 20 -6.64 20 -8 20 C-7.35014905 15.28629244 -5.48438608 11.42313556 -3.4375 7.1875 C-2.9434668 6.14819336 -2.9434668 6.14819336 -2.43945312 5.08789062 C-1.63127749 3.38955052 -0.81631623 1.69444231 0 0 Z " fill="#296D93" transform="translate(94,121)"/>
<path d="M0 0 C1.1055189 0.93590504 2.20935453 1.87379858 3.3125 2.8125 C3.92738281 3.33457031 4.54226562 3.85664063 5.17578125 4.39453125 C5.77777344 4.92433594 6.37976563 5.45414063 7 6 C7.57105469 6.49886719 8.14210937 6.99773437 8.73046875 7.51171875 C10 9 10 9 10 12 C7.875 12.4375 7.875 12.4375 5 12 C2.51057113 9.97876647 0.60621764 7.77646193 -1 5 C-0.875 2.0625 -0.875 2.0625 0 0 Z " fill="#267098" transform="translate(215,129)"/>
<path d="M0 0 C0.33 0 0.66 0 1 0 C1.05410136 3.06273831 1.09372225 6.12451452 1.125 9.1875 C1.14175781 10.05181641 1.15851563 10.91613281 1.17578125 11.80664062 C1.21038233 16.32208103 1.15567916 19.90081483 -1 24 C-1.33 23.34 -1.66 22.68 -2 22 C-2.99 21.67 -3.98 21.34 -5 21 C-4.67 20.34 -4.34 19.68 -4 19 C-3.7724985 17.12943209 -3.59037189 15.25314042 -3.4375 13.375 C-3.35371094 12.37210938 -3.26992187 11.36921875 -3.18359375 10.3359375 C-3.12300781 9.56507813 -3.06242188 8.79421875 -3 8 C-2.67 8 -2.34 8 -2 8 C-1.67 10.64 -1.34 13.28 -1 16 C-0.67 10.72 -0.34 5.44 0 0 Z " fill="#347598" transform="translate(159,128)"/>
<path d="M0 0 C1.98 0.495 1.98 0.495 4 1 C4 1.66 4 2.32 4 3 C6.31 3 8.62 3 11 3 C11 3.66 11 4.32 11 5 C10.01 5.495 10.01 5.495 9 6 C9 6.99 9 7.98 9 9 C2.52488688 7.6561086 2.52488688 7.6561086 0 4.5 C-0.33 3.675 -0.66 2.85 -1 2 C-0.67 1.34 -0.34 0.68 0 0 Z " fill="#277192" transform="translate(185,133)"/>
<path d="M0 0 C0.33 4.62 0.66 9.24 1 14 C-0.32 14 -1.64 14 -3 14 C-3 9.71 -3 5.42 -3 1 C-1 0 -1 0 0 0 Z " fill="#17719F" transform="translate(119,125)"/>
<path d="M0 0 C1 2 1 2 1.5 4.0625 C1.82307949 5.99240783 1.82307949 5.99240783 3 7 C3.07179964 8.51928038 3.08392007 10.04167482 3.0625 11.5625 C3.05347656 12.38878906 3.04445313 13.21507812 3.03515625 14.06640625 C3.01775391 15.02353516 3.01775391 15.02353516 3 16 C2.67 16 2.34 16 2 16 C1.67 13.69 1.34 11.38 1 9 C0.34 9 -0.32 9 -1 9 C-0.88623383 11.12563103 -0.75864369 13.2505261 -0.625 15.375 C-0.55539063 16.55835938 -0.48578125 17.74171875 -0.4140625 18.9609375 C-0.29782654 22.10562319 -0.29782654 22.10562319 2 24 C0.68 23.67 -0.64 23.34 -2 23 C-2.0582253 19.91674642 -2.09367134 16.83363495 -2.125 13.75 C-2.14175781 12.87730469 -2.15851563 12.00460938 -2.17578125 11.10546875 C-2.18222656 10.26113281 -2.18867187 9.41679688 -2.1953125 8.546875 C-2.20578613 7.77182617 -2.21625977 6.99677734 -2.22705078 6.19824219 C-1.97326556 3.74116461 -1.22444152 2.12688458 0 0 Z " fill="#2C688A" transform="translate(117,117)"/>
<path d="M0 0 C-0.38520564 2.53910197 -0.70097943 3.72751123 -2.62890625 5.484375 C-3.26699219 5.90203125 -3.90507812 6.3196875 -4.5625 6.75 C-5.20316406 7.17796875 -5.84382812 7.6059375 -6.50390625 8.046875 C-7.24447266 8.51867187 -7.24447266 8.51867187 -8 9 C-8 8.34 -8 7.68 -8 7 C-9.32 7.33 -10.64 7.66 -12 8 C-11.04578192 6.85073734 -10.08647955 5.70569459 -9.125 4.5625 C-8.59132812 3.92441406 -8.05765625 3.28632812 -7.5078125 2.62890625 C-4.92852092 -0.15753051 -3.97569161 0 0 0 Z " fill="#19678B" transform="translate(224,112)"/>
<path d="M0 0 C5.99295775 5.83098592 5.99295775 5.83098592 8 9 C8 9.99 8 10.98 8 12 C5.06832781 11.68306247 3.41017339 11.36774166 1.1875 9.375 C-0.41568775 6.1686245 -0.20379759 3.53249148 0 0 Z " fill="#287095" transform="translate(166,129)"/>
<path d="M0 0 C3.65190574 2.43460383 3.91974717 3.84518143 5 8 C5 9.32 5 10.64 5 12 C3.35 12 1.7 12 0 12 C0 8.04 0 4.08 0 0 Z " fill="#307498" transform="translate(80,129)"/>
<path d="M0 0 C0.33 0 0.66 0 1 0 C1.06058594 0.74765625 1.12117187 1.4953125 1.18359375 2.265625 C1.26738281 3.25046875 1.35117188 4.2353125 1.4375 5.25 C1.51871094 6.22453125 1.59992188 7.1990625 1.68359375 8.203125 C1.95074584 10.56461753 2.35371968 12.71901065 3 15 C2.01 15.33 1.02 15.66 0 16 C-1.43316898 13.13366205 -1.13200361 10.62764499 -1.125 7.4375 C-1.12757813 6.26058594 -1.13015625 5.08367187 -1.1328125 3.87109375 C-1 1 -1 1 0 0 Z " fill="#0B6C9F" transform="translate(208,114)"/>
<path d="M0 0 C1.32 0 2.64 0 4 0 C4 2.97 4 5.94 4 9 C3.01 9.495 3.01 9.495 2 10 C0.4375 8.375 0.4375 8.375 -1 6 C-0.6875 2.75 -0.6875 2.75 0 0 Z " fill="#1E6F9A" transform="translate(163,125)"/>
<path d="M0 0 C1.4540625 0.0309375 1.4540625 0.0309375 2.9375 0.0625 C2.9375 0.7225 2.9375 1.3825 2.9375 2.0625 C1.9475 2.0625 0.9575 2.0625 -0.0625 2.0625 C-0.0625 4.3725 -0.0625 6.6825 -0.0625 9.0625 C-1.0525 8.7325 -2.0425 8.4025 -3.0625 8.0625 C-2.7325 7.4025 -2.4025 6.7425 -2.0625 6.0625 C-2.7225 6.0625 -3.3825 6.0625 -4.0625 6.0625 C-4.105221 4.39638095 -4.10313832 2.72867115 -4.0625 1.0625 C-3.0625 0.0625 -3.0625 0.0625 0 0 Z " fill="#106A93" transform="translate(232.0625,112.9375)"/>
<path d="M0 0 C0 0.99 0 1.98 0 3 C-3.4019487 5.09350689 -6.05272412 5.17942163 -10 5 C-10.33 4.34 -10.66 3.68 -11 3 C-9.68 3 -8.36 3 -7 3 C-7 2.34 -7 1.68 -7 1 C-4.53721199 -0.231394 -2.7204945 -0.07159196 0 0 Z " fill="#2974A3" transform="translate(157,150)"/>
<path d="M0 0 C3.96 1.98 3.96 1.98 8 4 C7.67 5.32 7.34 6.64 7 8 C3.76912579 7.44295272 1.97638863 6.66812465 0 4 C0 2.68 0 1.36 0 0 Z " fill="#126999" transform="translate(233,124)"/>
<path d="M0 0 C0.66 0 1.32 0 2 0 C2 0.66 2 1.32 2 2 C2.66 2.66 3.32 3.32 4 4 C2 6 2 6 -0.3828125 6.1953125 C-1.28773437 6.17210937 -2.19265625 6.14890625 -3.125 6.125 C-4.49011719 6.09792969 -4.49011719 6.09792969 -5.8828125 6.0703125 C-6.58148438 6.04710937 -7.28015625 6.02390625 -8 6 C-7.67 5.34 -7.34 4.68 -7 4 C-5.02 4 -3.04 4 -1 4 C-0.67 2.68 -0.34 1.36 0 0 Z " fill="#2974A1" transform="translate(43,134)"/>
<path d="M0 0 C1.62490954 -0.02698189 3.24994633 -0.04638757 4.875 -0.0625 C5.77992188 -0.07410156 6.68484375 -0.08570312 7.6171875 -0.09765625 C10 0 10 0 12 1 C12 1.66 12 2.32 12 3 C11.07767578 2.96519531 11.07767578 2.96519531 10.13671875 2.9296875 C9.32847656 2.91164063 8.52023438 2.89359375 7.6875 2.875 C6.48673828 2.84019531 6.48673828 2.84019531 5.26171875 2.8046875 C2.71611424 2.84182678 2.71611424 2.84182678 0 5 C0 3.35 0 1.7 0 0 Z " fill="#0D6B9D" transform="translate(157,113)"/>
<path d="M0 0 C0.66 0 1.32 0 2 0 C2 7.26 2 14.52 2 22 C1.67 22 1.34 22 1 22 C0.93941406 20.80761719 0.87882812 19.61523438 0.81640625 18.38671875 C0.73198851 16.82030075 0.64734113 15.25389512 0.5625 13.6875 C0.52318359 12.90181641 0.48386719 12.11613281 0.44335938 11.30664062 C0.40146484 10.54931641 0.35957031 9.79199219 0.31640625 9.01171875 C0.26141968 7.96697388 0.26141968 7.96697388 0.20532227 6.90112305 C0.04418847 4.7783428 0.04418847 4.7783428 -1 2 C-0.67 1.34 -0.34 0.68 0 0 Z " fill="#1A5F87" transform="translate(32,113)"/>
<path d="M0 0 C0.66 0 1.32 0 2 0 C1.25 6.75 1.25 6.75 -1 9 C-3.125 8.625 -3.125 8.625 -5 8 C-4.01 8 -3.02 8 -2 8 C-2.04125 7.236875 -2.0825 6.47375 -2.125 5.6875 C-2 3 -2 3 0 0 Z " fill="#26709D" transform="translate(200,131)"/>
<path d="M0 0 C1.98 0.495 1.98 0.495 4 1 C4 2.98 4 4.96 4 7 C3.34 5.68 2.68 4.36 2 3 C1.67 5.31 1.34 7.62 1 10 C-1 8 -1 8 -1.1875 5 C-1 2 -1 2 0 0 Z " fill="#0E577B" transform="translate(206,112)"/>
<path d="M0 0 C0.99 0 1.98 0 3 0 C2.67 3.63 2.34 7.26 2 11 C1.34 11 0.68 11 0 11 C0 7.37 0 3.74 0 0 Z " fill="#22719C" transform="translate(20,113)"/>
<path d="M0 0 C2 1.375 2 1.375 4 3 C4 3.66 4 4.32 4 5 C2.125 5.625 2.125 5.625 0 6 C-0.66 5.34 -1.32 4.68 -2 4 C-3.32 4 -4.64 4 -6 4 C-6 3.34 -6 2.68 -6 2 C-4.02 2 -2.04 2 0 2 C0 1.34 0 0.68 0 0 Z " fill="#1B6287" transform="translate(197,113)"/>
<path d="M0 0 C0.33 0 0.66 0 1 0 C1.125 7.625 1.125 7.625 0 11 C0.99 11 1.98 11 3 11 C3 11.66 3 12.32 3 13 C1.35 12.67 -0.3 12.34 -2 12 C-1.34 8.04 -0.68 4.08 0 0 Z " fill="#2D6A8C" transform="translate(54,128)"/>
<path d="M0 0 C2.375 0.3125 2.375 0.3125 5 1 C5.66 1.99 6.32 2.98 7 4 C5.1875 4.625 5.1875 4.625 3 5 C2.01 4.34 1.02 3.68 0 3 C0 2.01 0 1.02 0 0 Z " fill="#1D6E9D" transform="translate(190,122)"/>
<path d="M0 0 C0.99 0.33 1.98 0.66 3 1 C4.1875 4.0625 4.1875 4.0625 5 7 C4.34 7 3.68 7 3 7 C2.34 6.01 1.68 5.02 1 4 C0.34 4.66 -0.32 5.32 -1 6 C-1.33 5.01 -1.66 4.02 -2 3 C-1.34 2.01 -0.68 1.02 0 0 Z " fill="#2B7AA4" transform="translate(58,121)"/>
<path d="M0 0 C0.99 0 1.98 0 3 0 C3 2.31 3 4.62 3 7 C2.01 6.67 1.02 6.34 0 6 C0 4.02 0 2.04 0 0 Z " fill="#185A6A" transform="translate(4,115)"/>
<path d="M0 0 C0.99 0 1.98 0 3 0 C3.33 2.31 3.66 4.62 4 7 C3.01 6.67 2.02 6.34 1 6 C0.67 4.02 0.34 2.04 0 0 Z " fill="#1B6F9E" transform="translate(99,114)"/>
<path d="M0 0 C0.66 0 1.32 0 2 0 C2.66 1.98 3.32 3.96 4 6 C3.34 6 2.68 6 2 6 C2 5.01 2 4.02 2 3 C1.34 3 0.68 3 0 3 C0 4.32 0 5.64 0 7 C-0.66 6.67 -1.32 6.34 -2 6 C-1.34 4.02 -0.68 2.04 0 0 Z " fill="#22678F" transform="translate(171,115)"/>
<path d="M0 0 C0.66 0 1.32 0 2 0 C3.125 5.75 3.125 5.75 2 8 C1.34 8 0.68 8 0 8 C0 5.36 0 2.72 0 0 Z " fill="#1870A3" transform="translate(81,131)"/>
<path d="M0 0 C0.99 0.33 1.98 0.66 3 1 C3 2.98 3 4.96 3 7 C2.01 7.495 2.01 7.495 1 8 C0.34 5.69 -0.32 3.38 -1 1 C-0.67 0.67 -0.34 0.34 0 0 Z " fill="#1764AD" transform="translate(164,127)"/>
</svg>
