<?xml version="1.0" encoding="UTF-8"?>
<svg version="1.1" xmlns="http://www.w3.org/2000/svg" width="538" height="528">
<path d="M0 0 C1.3921875 0.62648437 1.3921875 0.62648437 2.8125 1.265625 C16.15532463 7.86122581 28.02169783 19.74321471 33.08984375 33.89453125 C41.04510626 61.03802351 40.72363512 89.14285982 27.75 114.6875 C19.11516278 129.22059526 4.07061094 139.17823212 -12.11230469 143.57373047 C-20.60649907 145.72358531 -29.22117104 147.66121969 -38 148 C-38.89203125 148.03996094 -39.7840625 148.07992187 -40.703125 148.12109375 C-64.12388135 148.65338367 -88.71340807 142.09478078 -106.60546875 126.40234375 C-121.31117022 111.64866283 -126.69824381 92.27221042 -127.1875 71.9375 C-126.90183216 49.40148153 -122.42957157 27.86547245 -106.390625 11.171875 C-78.74946775 -13.94002603 -32.55466301 -15.03883889 0 0 Z M-62.875 35 C-72.69859838 48.86860947 -69.83008968 72.88129071 -68 89 C-66.81759796 95.55695679 -64.96677207 100.47471878 -60 105 C-50.84940603 109.7145048 -41.38186156 109.95022018 -31.59375 107.11328125 C-26.62427858 104.98030029 -24.27631607 101.24874735 -21.6875 96.6875 C-19.53345075 88.26712568 -19.81365504 79.34367742 -19.81469727 70.71508789 C-19.81251476 68.70111808 -19.79429908 66.68770143 -19.77539062 64.67382812 C-19.28907259 49.53627595 -19.28907259 49.53627595 -24.625 35.875 C-30.25507982 30.4599113 -35.89887151 29.81346571 -43.4375 29.625 C-50.98219006 29.79766455 -56.65325627 30.67183045 -62.875 35 Z " fill="#0054A5" transform="translate(443,200)"/>
<path d="M0 0 C0.495 0.495 0.495 0.495 1 1 C1.33 -1.64 1.66 -4.28 2 -7 C12.89 -7 23.78 -7 35 -7 C36.125 2 36.125 2 36.11352539 6.0390625 C36.11344986 6.93939209 36.11337433 7.83972168 36.11329651 8.76733398 C36.10813522 9.71036377 36.10297394 10.65339355 36.09765625 11.625 C36.09553383 13.10625366 36.09553383 13.10625366 36.09336853 14.61743164 C36.08780927 17.74498636 36.07526446 20.87246723 36.0625 24 C36.05747973 26.13150938 36.05291775 28.26301988 36.04882812 30.39453125 C36.03785322 35.596379 36.02115612 40.79818422 36 46 C31.4654891 46.24929646 26.93504657 46.4295585 22.39526367 46.54931641 C20.85549395 46.59927231 19.31619065 46.66727252 17.77807617 46.75439453 C4.98343413 47.4603631 4.98343413 47.4603631 0.05053711 43.82836914 C-2.17961362 41.32124037 -4.07193651 38.74047135 -6 36 C-15.53296815 27.63000961 -31.29551457 24.8230296 -43.5625 24.8125 C-44.31724609 24.80025391 -45.07199219 24.78800781 -45.84960938 24.77539062 C-49.71233893 24.76518077 -52.73128084 24.80640332 -56 27 C-56.33425735 29.37374861 -56.33425735 29.37374861 -56 32 C-53.07208416 34.74193833 -50.16199167 35.74093249 -46.33618164 36.79003906 C-45.19721939 37.10757141 -44.05825714 37.42510376 -42.88478088 37.7522583 C-41.04109169 38.25387482 -41.04109169 38.25387482 -39.16015625 38.765625 C-37.87388641 39.12451218 -36.5879568 39.48462077 -35.30235291 39.84588623 C-29.86249818 41.3724025 -24.4172223 42.87897515 -18.96850586 44.37353516 C-15.62732727 45.29092166 -12.29078238 46.22385032 -8.95638847 47.16558075 C-7.09607449 47.6860806 -5.23095749 48.18931838 -3.36573792 48.69195557 C13.16243308 53.36639966 26.70435843 61.43928385 35.59765625 76.421875 C41.54070075 87.3478064 42.81478705 98.53027117 39.4375 110.625 C35.14186819 123.10494085 28.01764383 131.94726164 16.4375 138.1875 C-4.67196926 148.10576822 -27.65058627 147.65661272 -49.625 141.1875 C-50.4296167 140.951521 -51.2342334 140.71554199 -52.06323242 140.47241211 C-57.8013414 138.66141271 -62.84479251 136.08744256 -68 133 C-68.144375 134.299375 -68.28875 135.59875 -68.4375 136.9375 C-68.875 140.875 -68.875 140.875 -70 142 C-72.52068181 142.08846834 -75.01454417 142.11534524 -77.53515625 142.09765625 C-78.53621399 142.09614563 -78.53621399 142.09614563 -79.55749512 142.09460449 C-82.0591808 142.08935808 -84.56084206 142.07539691 -87.0625 142.0625 C-95.4465625 142.0315625 -95.4465625 142.0315625 -104 142 C-104 123.52 -104 105.04 -104 86 C-99.029375 85.814375 -94.05875 85.62875 -88.9375 85.4375 C-86.60546509 85.31459595 -86.60546509 85.31459595 -84.22631836 85.18920898 C-74.24258144 85.00841697 -74.24258144 85.00841697 -70.60449219 87.91162109 C-68.87170298 90.19694119 -67.43438485 92.52029458 -66 95 C-55.57677482 104.64738641 -42.06437368 108.16825814 -28.25 108.25 C-27.3940625 108.270625 -26.538125 108.29125 -25.65625 108.3125 C-19.58164334 108.3493158 -14.63036062 107.26650218 -9 105 C-9 103.68 -9 102.36 -9 101 C-20.56071182 96.23506761 -32.42602314 92.7924876 -44.41723633 89.30493164 C-88.80681084 76.35884328 -88.80681084 76.35884328 -100.44140625 58.828125 C-106.1766615 47.90786039 -106.70910201 34.53579923 -104.3125 22.56640625 C-99.82384745 9.38098938 -91.65029912 1.43460242 -79.41186523 -4.59277344 C-54.36390809 -16.37300039 -23.98477612 -12.33225331 0 0 Z " fill="#0054A5" transform="translate(273,202)"/>
<path d="M0 0 C0.99006042 -0.00131927 1.98012085 -0.00263855 3.00018311 -0.0039978 C6.23192465 -0.00591439 9.46357973 0.00043017 12.6953125 0.0078125 C13.79558777 0.00869873 14.89586304 0.00958496 16.02947998 0.01049805 C37.64145918 0.03087303 59.21672497 0.51112653 80.8203125 1.1328125 C80.8203125 13.6728125 80.8203125 26.2128125 80.8203125 39.1328125 C73.5603125 39.1328125 66.3003125 39.1328125 58.8203125 39.1328125 C58.8203125 64.2128125 58.8203125 89.2928125 58.8203125 115.1328125 C66.0803125 115.1328125 73.3403125 115.1328125 80.8203125 115.1328125 C80.8203125 127.3428125 80.8203125 139.5528125 80.8203125 152.1328125 C48.1503125 152.1328125 15.4803125 152.1328125 -18.1796875 152.1328125 C-18.1796875 139.9228125 -18.1796875 127.7128125 -18.1796875 115.1328125 C-10.9196875 115.1328125 -3.6596875 115.1328125 3.8203125 115.1328125 C4.1503125 90.0528125 4.4803125 64.9728125 4.8203125 39.1328125 C-2.4396875 39.1328125 -9.6996875 39.1328125 -17.1796875 39.1328125 C-18.2001266 26.24976892 -18.32566466 14.00459172 -17.1796875 1.1328125 C-11.4179227 0.14353762 -5.83907577 -0.01248939 0 0 Z " fill="#0054A5" transform="translate(80.1796875,191.8671875)"/>
<path d="M0 0 C2.71860773 2.43729024 5.35372443 4.95109374 7.95849609 7.50927734 C9.4747128 8.99047075 11.01549475 10.44168664 12.5625 11.890625 C20.21037101 19.16165146 26.72763293 27.14035041 32.48046875 35.99609375 C32.48046875 36.65609375 32.48046875 37.31609375 32.48046875 37.99609375 C29.19546997 38.65309351 27.62917117 38.92496096 24.48046875 37.99609375 C20.99987679 34.70546368 18.32980472 30.83248637 15.48046875 26.99609375 C8.93790165 19.34821241 2.07844134 11.8484256 -5.64453125 5.37109375 C-6.54558594 4.60925781 -6.54558594 4.60925781 -7.46484375 3.83203125 C-9.61247125 2.73276629 -9.61247125 2.73276629 -12.39453125 3.62109375 C-15.6260009 5.0429404 -18.44743567 6.68032349 -21.39453125 8.62109375 C-22.36132812 9.25273437 -23.328125 9.884375 -24.32421875 10.53515625 C-25.04867187 11.01726562 -25.773125 11.499375 -26.51953125 11.99609375 C-25.98585938 12.55554688 -25.4521875 13.115 -24.90234375 13.69140625 C-20.21632092 18.73415054 -15.9657803 23.90467726 -11.95703125 29.49609375 C-11.29501709 30.41285889 -11.29501709 30.41285889 -10.61962891 31.34814453 C-7.51953125 35.74148912 -7.51953125 35.74148912 -7.51953125 37.99609375 C-13.14453125 39.12109375 -13.14453125 39.12109375 -16.51953125 37.99609375 C-18.19398678 35.8386222 -19.74351501 33.69158737 -21.26953125 31.43359375 C-25.04834811 25.97869997 -28.97162649 20.84518425 -33.51953125 15.99609375 C-38.62472444 16.75086564 -43.28344993 18.67606824 -48.08203125 20.49609375 C-49.77010567 21.13344103 -51.45888431 21.76892695 -53.1484375 22.40234375 C-54.26327515 22.82483398 -54.26327515 22.82483398 -55.40063477 23.25585938 C-57.42417294 23.96278042 -59.43262818 24.51220841 -61.51953125 24.99609375 C-61.31457031 25.599375 -61.10960937 26.20265625 -60.8984375 26.82421875 C-60.62902344 27.6234375 -60.35960937 28.42265625 -60.08203125 29.24609375 C-59.81519531 30.035 -59.54835938 30.82390625 -59.2734375 31.63671875 C-58.59998417 33.74431363 -58.0280253 35.84363348 -57.51953125 37.99609375 C-60.26953125 38.74609375 -60.26953125 38.74609375 -63.51953125 38.99609375 C-67.130154 36.4170775 -68.77397711 33.01086827 -70.51953125 28.99609375 C-70.51953125 28.33609375 -70.51953125 27.67609375 -70.51953125 26.99609375 C-71.32132813 27.18945312 -72.123125 27.3828125 -72.94921875 27.58203125 C-79.93705486 29.18242002 -86.835646 30.39429582 -93.95703125 31.18359375 C-94.70130371 31.26722168 -95.44557617 31.35084961 -96.21240234 31.43701172 C-100.67324942 31.90199578 -105.03504784 32.07290308 -109.51953125 31.99609375 C-109.48859375 33.20265625 -109.48859375 33.20265625 -109.45703125 34.43359375 C-109.51953125 36.99609375 -109.51953125 36.99609375 -110.51953125 37.99609375 C-112.85250558 38.03702312 -115.1865835 38.03851098 -117.51953125 37.99609375 C-117.51953125 36.01609375 -117.51953125 34.03609375 -117.51953125 31.99609375 C-118.64746094 31.95871094 -119.77539062 31.92132813 -120.9375 31.8828125 C-133.28153176 31.39382187 -145.32265852 29.92574824 -157.51953125 27.99609375 C-157.85726562 28.70636719 -158.195 29.41664063 -158.54296875 30.1484375 C-158.98898438 31.06753906 -159.435 31.98664063 -159.89453125 32.93359375 C-160.33539063 33.85011719 -160.77625 34.76664062 -161.23046875 35.7109375 C-162.51953125 37.99609375 -162.51953125 37.99609375 -164.51953125 38.99609375 C-166.51913137 39.03608575 -168.52000367 39.03956174 -170.51953125 38.99609375 C-169.86534026 33.92611356 -167.66489035 29.57618598 -165.51953125 24.99609375 C-166.46699219 24.75826172 -166.46699219 24.75826172 -167.43359375 24.515625 C-174.26709152 22.73340152 -180.78181343 20.46869623 -187.35546875 17.88671875 C-190.71361512 16.94146273 -192.28006247 16.76902224 -195.51953125 17.99609375 C-197.52875653 19.62563118 -197.52875653 19.62563118 -199.26953125 21.80859375 C-199.95402344 22.6078125 -200.63851562 23.40703125 -201.34375 24.23046875 C-202.88797276 26.19332281 -204.36377334 28.21087239 -205.7890625 30.26171875 C-206.1715918 30.80852295 -206.55412109 31.35532715 -206.94824219 31.91870117 C-208.03692283 33.49334972 -209.09345934 35.09007561 -210.1484375 36.6875 C-212.51953125 38.99609375 -212.51953125 38.99609375 -216.296875 39.3359375 C-217.36035156 39.22378906 -218.42382812 39.11164063 -219.51953125 38.99609375 C-218.01683093 30.06455097 -209.68937763 21.73379446 -204.0859375 14.95703125 C-202.47400003 13.07904464 -202.47400003 13.07904464 -201.51953125 10.99609375 C-202.15890625 10.76921875 -202.79828125 10.54234375 -203.45703125 10.30859375 C-206.93612979 8.81755152 -210.03225819 6.92563941 -213.23828125 4.921875 C-216.2092283 3.71619957 -217.50558413 3.93153445 -220.51953125 4.99609375 C-224.43857077 7.68971088 -227.95637581 10.85122177 -231.51953125 13.99609375 C-232.14085937 14.54394531 -232.7621875 15.09179688 -233.40234375 15.65625 C-237.99777158 19.99637629 -241.78240856 25.01348377 -245.61328125 30.0222168 C-250.67221787 36.61651152 -250.67221787 36.61651152 -253.51953125 38.99609375 C-257.26953125 39.24609375 -257.26953125 39.24609375 -260.51953125 38.99609375 C-258.99771293 28.24019136 -244.87423123 16.60284617 -237.51953125 8.99609375 C-236.9786084 8.43035645 -236.43768555 7.86461914 -235.88037109 7.28173828 C-174.80509199 -55.41944743 -65.12568449 -56.64145485 0 0 Z M-150.51953125 -30.00390625 C-144.08178656 -22.74297453 -131.73616753 -19.63014328 -122.39257812 -18.81933594 C-107.69022977 -17.94970767 -92.09581142 -19.61971947 -79.51953125 -28.00390625 C-79.18953125 -28.66390625 -78.85953125 -29.32390625 -78.51953125 -30.00390625 C-90.24717607 -32.44430888 -101.42581877 -33.49771825 -113.39453125 -33.37890625 C-114.5634491 -33.37491821 -114.5634491 -33.37491821 -115.75598145 -33.37084961 C-127.55341923 -33.32368646 -138.97720253 -32.62432682 -150.51953125 -30.00390625 Z M-70.32421875 -25.55078125 C-70.71867188 -25.0403125 -71.113125 -24.52984375 -71.51953125 -24.00390625 C-70.13894531 -23.11251953 -70.13894531 -23.11251953 -68.73046875 -22.203125 C-56.89555857 -14.48443125 -45.47378914 -6.31828844 -35.484375 3.73046875 C-33.57484324 5.2233809 -33.57484324 5.2233809 -31.13671875 4.921875 C-27.98994054 3.80876092 -25.48823807 2.27656212 -22.70703125 0.43359375 C-21.73121094 -0.20707031 -20.75539063 -0.84773438 -19.75 -1.5078125 C-19.01394531 -2.00152344 -18.27789062 -2.49523437 -17.51953125 -3.00390625 C-25.74356811 -9.75297998 -60.28871045 -33.6313204 -70.32421875 -25.55078125 Z M-208.51953125 -5.00390625 C-209.17953125 -4.01390625 -209.83953125 -3.02390625 -210.51953125 -2.00390625 C-208.28000069 -0.60869069 -206.03066515 0.76172159 -203.76953125 2.12109375 C-203.1353125 2.51941406 -202.50109375 2.91773438 -201.84765625 3.328125 C-198.34948162 5.53230506 -198.34948162 5.53230506 -194.38671875 5.5390625 C-191.94389049 3.52040734 -189.66667312 1.3942389 -187.39453125 -0.81640625 C-178.03732921 -9.68104517 -167.26207585 -16.92746814 -156.51953125 -24.00390625 C-157.89438657 -25.54557267 -157.89438657 -25.54557267 -159.51953125 -27.00390625 C-175.37162745 -27.00390625 -195.94442436 -13.94928986 -208.51953125 -5.00390625 Z M-158.08203125 -14.94140625 C-158.75532471 -14.4918457 -159.42861816 -14.04228516 -160.12231445 -13.57910156 C-170.0416818 -6.81072722 -180.08085976 0.49507548 -187.51953125 9.99609375 C-185.06479874 10.96458623 -182.60632625 11.92084972 -180.14453125 12.87109375 C-179.46519531 13.14050781 -178.78585938 13.40992188 -178.0859375 13.6875 C-172.65800664 15.76736136 -167.24103142 17.00124363 -161.51953125 17.99609375 C-161.13732422 17.38725342 -160.75511719 16.77841309 -160.36132812 16.15112305 C-146.32019301 -6.175718 -146.32019301 -6.175718 -139.51953125 -15.00390625 C-145.31064825 -20.79502325 -152.05921107 -19.21180859 -158.08203125 -14.94140625 Z M-85.26953125 -17.50390625 C-86.87828125 -16.76140625 -86.87828125 -16.76140625 -88.51953125 -16.00390625 C-87.06406468 -12.93276644 -85.36557535 -10.15688599 -83.47265625 -7.3359375 C-82.87453125 -6.44197266 -82.27640625 -5.54800781 -81.66015625 -4.62695312 C-81.03625 -3.69947266 -80.41234375 -2.77199219 -79.76953125 -1.81640625 C-79.16109375 -0.90826172 -78.55265625 -0.00011719 -77.92578125 0.93554688 C-76.71635183 2.74064613 -75.5060784 4.54518021 -74.29492188 6.34912109 C-71.69470963 10.22584017 -69.10637865 14.11044832 -66.51953125 17.99609375 C-57.85593832 16.02697462 -49.74724652 13.3535324 -41.51953125 9.99609375 C-41.18763423 6.94438918 -41.18763423 6.94438918 -43.21484375 5.0859375 C-62.53116648 -13.11631027 -62.53116648 -13.11631027 -85.26953125 -17.50390625 Z M-135.14453125 -10.00390625 C-136.31492501 -8.36879732 -137.43288704 -6.69583035 -138.51953125 -5.00390625 C-139.33896187 -3.82699223 -140.16215467 -2.65269229 -140.98828125 -1.48046875 C-145.76658314 5.39319263 -150.0940849 12.33391112 -153.51953125 19.99609375 C-148.64499114 21.49498334 -143.97247689 22.47999039 -138.89453125 23.12109375 C-137.62351562 23.28867188 -136.3525 23.45625 -135.04296875 23.62890625 C-129.21964225 24.22694783 -123.36559847 24.06663622 -117.51953125 23.99609375 C-117.47001337 19.51205965 -117.43375599 15.02817136 -117.40966797 10.54394531 C-117.39962381 9.01917752 -117.38598594 7.49442891 -117.36865234 5.96972656 C-117.34433387 3.77534237 -117.33303236 1.58121333 -117.32421875 -0.61328125 C-117.31374512 -1.93295898 -117.30327148 -3.25263672 -117.29248047 -4.61230469 C-117.5023148 -7.74673326 -117.70034276 -9.47985471 -119.51953125 -12.00390625 C-125.02488872 -13.90864298 -130.98718229 -14.58995067 -135.14453125 -10.00390625 Z M-104.70703125 -12.00390625 C-106.05861328 -11.72546875 -106.05861328 -11.72546875 -107.4375 -11.44140625 C-108.12457031 -11.29703125 -108.81164062 -11.15265625 -109.51953125 -11.00390625 C-110.58998477 6.51635019 -110.58998477 6.51635019 -109.51953125 23.99609375 C-102.42750735 24.18600729 -95.65626848 23.66582251 -88.64453125 22.62109375 C-87.7215625 22.49476563 -86.79859375 22.3684375 -85.84765625 22.23828125 C-84.95820313 22.109375 -84.06875 21.98046875 -83.15234375 21.84765625 C-82.35715332 21.73244629 -81.56196289 21.61723633 -80.74267578 21.49853516 C-78.42173657 20.97399168 -76.59477768 20.14479567 -74.51953125 18.99609375 C-80.4266203 9.27837731 -86.52655528 -0.02315183 -93.51953125 -9.00390625 C-94.03644531 -9.7721875 -94.55335938 -10.54046875 -95.0859375 -11.33203125 C-95.55902344 -11.88375 -96.03210938 -12.43546875 -96.51953125 -13.00390625 C-99.43497885 -13.00390625 -101.86107606 -12.59527356 -104.70703125 -12.00390625 Z " fill="#0052A3" transform="translate(379.51953125,139.00390625)"/>
<path d="M0 0 C3.21368924 -0.73647045 5.80194107 -0.87721052 9 0 C11.35394604 2.39548627 13.0140809 4.96527064 14.8359375 7.78515625 C17.14841204 11.22047493 19.6785777 14.17171305 22.5 17.1875 C22.97002441 17.69063721 23.44004883 18.19377441 23.92431641 18.7121582 C25.27609036 20.14785968 26.63785776 21.57413181 28 23 C28.73734375 23.77859375 29.4746875 24.5571875 30.234375 25.359375 C34.20683821 29.45501536 38.25133239 32.83422159 43 36 C43.80824219 35.59007812 44.61648437 35.18015625 45.44921875 34.7578125 C46.51785156 34.21898437 47.58648437 33.68015625 48.6875 33.125 C49.74324219 32.59132813 50.79898438 32.05765625 51.88671875 31.5078125 C54.55995905 30.21311895 57.2271133 29.05976746 60 28 C59.45641846 27.29822632 59.45641846 27.29822632 58.90185547 26.58227539 C41 3.4317531 41 3.4317531 41 0 C44.03811132 -0.39698863 46.05988955 -0.63722286 49 0 C51.59824475 2.13464816 53.29491393 4.76310958 55.125 7.5625 C56.10433784 8.98215022 57.08609947 10.40013154 58.0703125 11.81640625 C58.49070801 12.45006104 58.91110352 13.08371582 59.34423828 13.73657227 C61.70935826 16.96969336 64.39302491 19.95852907 67 23 C76.57 19.7 86.14 16.4 96 13 C94.35 9.37 92.7 5.74 91 2 C91 1.34 91 0.68 91 0 C93.64 0 96.28 0 99 0 C100.65 3.3 102.3 6.6 104 10 C112.57443064 9.24708751 121.13028714 8.36464229 129.6875 7.4375 C130.97333984 7.29892578 132.25917969 7.16035156 133.58398438 7.01757812 C136.72274498 6.67919873 139.86141347 6.33998955 143 6 C143.33 4.02 143.66 2.04 144 0 C146.31 0 148.62 0 151 0 C151 2.31 151 4.62 151 7 C151.69512695 6.97679687 152.39025391 6.95359375 153.10644531 6.9296875 C161.48795897 6.77544341 169.47764446 7.72201605 177.75 9 C179.03132812 9.19078125 180.31265625 9.3815625 181.6328125 9.578125 C184.75637562 10.04432845 187.8783638 10.52106403 191 11 C192.98 7.37 194.96 3.74 197 0 C199.31 0 201.62 0 204 0 C203.34580901 5.06998019 201.1453591 9.41990777 199 14 C199.53625 14.07476562 200.0725 14.14953125 200.625 14.2265625 C207.27872648 15.34281267 213.25935542 17.47873822 219.46484375 20.05517578 C223.23725088 21.57006128 223.23725088 21.57006128 227.2421875 21.9140625 C229.60517258 20.68531026 230.99819087 19.1962894 232.75 17.1875 C233.44738281 16.38828125 234.14476562 15.5890625 234.86328125 14.765625 C237.16627671 11.78478261 239.01579199 8.67486838 240.9375 5.4375 C244.26059144 0.22493708 244.26059144 0.22493708 247.50390625 -0.76171875 C249.792666 -0.7509734 251.78341445 -0.55414639 254 0 C250.87219746 6.37083991 246.9680971 11.86428955 242.56689453 17.39331055 C240.08338157 20.52388191 238.07501811 23.54163648 236 27 C240.95 29.97 245.9 32.94 251 36 C255.16672866 33.4999628 258.54247603 30.9528135 262.0625 27.6875 C262.90361328 26.90886597 262.90361328 26.90886597 263.76171875 26.11450195 C271.10421058 19.17844009 278.01082411 11.55425162 283.57421875 3.109375 C286 0 286 0 288.23828125 -0.68359375 C290.15885417 -0.45572917 292.07942708 -0.22786458 294 0 C290.08677936 11.13452471 280.33977153 20.23509065 272.30273438 28.63427734 C271.24710557 29.74094667 270.20703086 30.86243866 269.171875 31.98828125 C240.50217343 62.32314225 195.62546613 78.81198658 154.62109375 80.2890625 C103.56157804 81.33919838 58.52356165 63.27518837 21.75952148 28.09716797 C13.74448128 20.25228195 5.93150088 11.56078019 0 2 C0 1.34 0 0.68 0 0 Z M109 18 C109 26.68283208 118.24122518 37.00883733 123.25 43.8125 C123.75692383 44.51205811 124.26384766 45.21161621 124.78613281 45.93237305 C125.51848145 46.90364136 125.51848145 46.90364136 126.265625 47.89453125 C126.69649414 48.47050049 127.12736328 49.04646973 127.57128906 49.63989258 C129.4025518 51.38322216 130.48851674 51.71618334 133 52 C135.83513074 51.69272894 135.83513074 51.69272894 138.75 51.0625 C140.22726562 50.77052734 140.22726562 50.77052734 141.734375 50.47265625 C142.48203125 50.31667969 143.2296875 50.16070312 144 50 C144.02931979 45.85418181 144.04690557 41.70839075 144.0625 37.5625 C144.07506836 35.81549805 144.07506836 35.81549805 144.08789062 34.03320312 C144.10602151 27.59673798 143.86649876 21.37934125 143 15 C131.33866258 14.52936306 120.46026646 15.92752985 109 18 Z M152 15 C150.58324835 17.83350329 150.87021534 20.23348195 150.8671875 23.3984375 C150.86589844 24.68234375 150.86460937 25.96625 150.86328125 27.2890625 C150.86537598 27.95969727 150.8674707 28.63033203 150.86962891 29.32128906 C150.87496104 31.36010241 150.86968949 33.39869368 150.86328125 35.4375 C150.86457031 36.72398437 150.86585938 38.01046875 150.8671875 39.3359375 C150.86831543 40.51720215 150.86944336 41.6984668 150.87060547 42.91552734 C150.97808269 45.47754095 151.24446473 47.5668313 152 50 C153.19625 50.33 154.3925 50.66 155.625 51 C156.63433594 51.2784375 156.63433594 51.2784375 157.6640625 51.5625 C160.71133373 52.13322638 162.90100712 52.47889928 166 52 C168.11797847 49.82018275 169.64728439 47.92890227 171.3125 45.4375 C171.77962402 44.76944336 172.24674805 44.10138672 172.72802734 43.41308594 C181.00126408 31.79708574 181.00126408 31.79708574 187 19 C175.6302173 14.93081461 163.93019383 14.69923881 152 15 Z M92.84765625 22.2421875 C92.07099609 22.50386719 91.29433594 22.76554687 90.49414062 23.03515625 C89.69169922 23.31230469 88.88925781 23.58945312 88.0625 23.875 C87.26392578 24.14441406 86.46535156 24.41382813 85.64257812 24.69140625 C81.71617355 26.02514766 77.83019388 27.40602033 74 29 C79.14715609 41.21080648 97.4117277 50.7089859 108.5 57.13671875 C113.27244759 58.78470456 117.55640804 56.96040822 122 55 C118.5156776 48.69981033 114.56324546 42.79276001 110.50976562 36.84765625 C107.04228761 31.71032542 103.9211255 26.46648104 101 21 C97.60696886 21 95.91952884 21.19693918 92.84765625 22.2421875 Z M195 21 C193.26819165 22.87389622 193.26819165 22.87389622 191.828125 25.42578125 C191.24949707 26.36341309 190.67086914 27.30104492 190.07470703 28.26708984 C189.47255371 29.2720752 188.87040039 30.27706055 188.25 31.3125 C187.00527537 33.33367873 185.75790147 35.35322844 184.5078125 37.37109375 C183.60724121 38.83071533 183.60724121 38.83071533 182.68847656 40.31982422 C179.70149663 45.06115818 176.41953303 49.56097886 173 54 C177.42377631 57.17968728 177.42377631 57.17968728 182.625 57.86328125 C187.10267502 56.71795003 190.37646748 54.55667111 194.1875 52 C194.93563965 51.5059668 195.6837793 51.01193359 196.45458984 50.50292969 C205.40491228 44.51035643 213.60117254 37.85336294 221 30 C215.83548205 24.83548205 206.08191156 22.65746866 199 21 C197.68 21 196.36 21 195 21 Z M226.43359375 34.51171875 C225.77488281 35.22972656 225.11617187 35.94773437 224.4375 36.6875 C214.36693824 46.98546154 202.10484989 55.27995123 190 63 C191.17765831 64.6481045 191.17765831 64.6481045 193 66 C210.33902314 65.62711778 230.03292995 52.31138004 244 43 C242.65458308 38.96374924 240.14052535 38.14552047 236.5625 36.3125 C235.96373047 35.99216797 235.36496094 35.67183594 234.74804688 35.34179688 C230.44095274 32.65694265 230.44095274 32.65694265 226.43359375 34.51171875 Z M57.9375 37 C57.27427734 37.3815625 56.61105469 37.763125 55.92773438 38.15625 C54.28405357 39.10225334 52.64188555 40.05088423 51 41 C52.15209404 44.45628213 52.67117219 44.69700247 55.69140625 46.453125 C56.46339355 46.90421631 57.23538086 47.35530762 58.03076172 47.82006836 C58.86623535 48.2919458 59.70170898 48.76382324 60.5625 49.25 C61.41859863 49.73799072 62.27469727 50.22598145 63.15673828 50.72875977 C74.27976153 56.9660172 87.28524645 64.00939683 100 66 C102.79819518 65.19625981 102.79819518 65.19625981 105 64 C101.24302299 60.92547012 97.34815273 58.09672727 93.375 55.3125 C84.32656707 48.90453081 75.86870801 41.90862493 67.6796875 34.43359375 C64.2783195 31.53056571 61.2767308 35.0676201 57.9375 37 Z M111 68 C111 68.33 111 68.66 111 69 C135.15081217 74.15433441 159.84079457 74.27719607 184 69 C175.78828604 60.42561429 161.89253028 58.02233619 150.4831543 57.59545898 C136.0423806 57.38813106 123.6075006 60.83664738 111 68 Z " fill="#0053A4" transform="translate(119,359)"/>
<path d="M0 0 C6.64999178 4.86584764 9.49214684 10.70777783 11.12890625 18.609375 C12.67190069 30.2304863 13.05459626 44.67313444 6.5625 54.875 C3.79533666 58.10589127 1.6500558 60.5124814 -2.4375 61.875 C-14.47762187 62.78735706 -14.47762187 62.78735706 -20.0625 60.1875 C-27.83880169 52.61583782 -30.01888537 45.10415271 -30.640625 34.3671875 C-30.77307056 24.14680542 -30.7915677 11.82534346 -23.4375 3.875 C-16.64846003 -2.27294419 -8.54923568 -2.79793168 0 0 Z M-11.4375 9.875 C-16.91149816 15.75447951 -15.62123919 23.2359098 -15.625 30.75 C-15.63724609 32.03003906 -15.64949219 33.31007813 -15.66210938 34.62890625 C-15.66404297 35.86253906 -15.66597656 37.09617187 -15.66796875 38.3671875 C-15.67207764 39.49495605 -15.67618652 40.62272461 -15.68041992 41.78466797 C-15.43697916 44.88162586 -14.75335467 47.08031633 -13.4375 49.875 C-11.1275 50.205 -8.8175 50.535 -6.4375 50.875 C-3.23866897 45.58997481 -2.73148203 40.90163167 -2.4375 34.875 C-2.39625 34.153125 -2.355 33.43125 -2.3125 32.6875 C-2.11664302 26.0283627 -1.85071584 16.55296449 -5.76171875 10.9921875 C-7.65652713 9.50519987 -7.65652713 9.50519987 -11.4375 9.875 Z " fill="#0054A7" transform="translate(325.4375,460.125)"/>
<path d="M0 0 C5.97004287 3.42912067 8.2188543 7.77616261 10.76171875 14.06640625 C14.10343052 26.66208909 14.22706215 42.81691441 7.78515625 54.44140625 C5.36463816 57.81451532 2.2945566 60.26873733 -1.42578125 62.12890625 C-13.37678516 63.06353604 -13.37678516 63.06353604 -18.98828125 60.50390625 C-19.79265625 59.72015625 -20.59703125 58.93640625 -21.42578125 58.12890625 C-22.31265625 57.30390625 -23.19953125 56.47890625 -24.11328125 55.62890625 C-31.19127533 46.38184947 -30.30717151 32.17367237 -29.42578125 21.12890625 C-28.20953114 13.33785485 -25.82727115 7.19854347 -19.86328125 1.81640625 C-14.28260307 -2.04714018 -6.32288523 -2.27053689 0 0 Z M-12.0078125 11.37109375 C-17.53575417 18.22391401 -15.85538904 30.77733077 -15.42578125 39.12890625 C-14.83172103 43.66316184 -14.00057459 47.26671624 -11.42578125 51.12890625 C-7.96078125 50.63390625 -7.96078125 50.63390625 -4.42578125 50.12890625 C-1.95751247 43.56978443 -2.09482467 37.5611977 -2.11328125 30.62890625 C-2.08911133 28.81326172 -2.08911133 28.81326172 -2.06445312 26.9609375 C-2.06380859 25.78917969 -2.06316406 24.61742187 -2.0625 23.41015625 C-2.05951904 22.34861328 -2.05653809 21.28707031 -2.0534668 20.19335938 C-2.48922165 16.60673979 -3.54827267 14.20206033 -5.42578125 11.12890625 C-8.23696765 9.93415203 -9.53075506 9.42614494 -12.0078125 11.37109375 Z " fill="#0054A7" transform="translate(277.42578125,459.87109375)"/>
<path d="M0 0 C4.58102912 4.41406679 7.10393035 8.06725421 7.375 14.5625 C7.17534153 23.74330196 2.24713974 30.33784062 -4.12695312 36.56640625 C-5.20879883 37.58541016 -5.20879883 37.58541016 -6.3125 38.625 C-7.05306641 39.34300781 -7.79363281 40.06101562 -8.55664062 40.80078125 C-10.35971376 42.54569074 -12.17825833 44.27459015 -14 46 C-7.07 46.33 -0.14 46.66 7 47 C7 50.96 7 54.92 7 59 C-7.19 59 -21.38 59 -36 59 C-33.2050905 46.42290723 -27.86945318 40.4171701 -18.75 31.6875 C-17.13609089 30.13360175 -15.52651844 28.57518343 -13.921875 27.01171875 C-13.21643555 26.33584717 -12.51099609 25.65997559 -11.78417969 24.96362305 C-8.91474498 21.80559577 -8.06176228 19.70408995 -7.6875 15.4375 C-7.7642776 12.13213676 -7.7642776 12.13213676 -9.0625 10 C-12.13335213 8.41504406 -14.72186775 9.31963293 -18 10 C-18.99 12.64 -19.98 15.28 -21 18 C-22.95901454 17.88617347 -24.9172338 17.75858875 -26.875 17.625 C-27.96554688 17.55539062 -29.05609375 17.48578125 -30.1796875 17.4140625 C-33 17 -33 17 -35 15 C-32.95135505 7.50495748 -30.82551531 2.39094707 -24 -1.875 C-16.45792707 -4.65365845 -6.7956965 -4.29931819 0 0 Z " fill="#0055A6" transform="translate(188,462)"/>
<path d="M0 0 C13.86 0 27.72 0 42 0 C42 10.65203901 42 10.65203901 37.84765625 14.86328125 C27.0784472 27.31731371 23.20481821 45.16539646 21 61 C16.71 61 12.42 61 8 61 C8.8231801 42.47844778 14.82226404 27.26660394 25 12 C16.75 12 8.5 12 0 12 C0 8.04 0 4.08 0 0 Z " fill="#0055A6" transform="translate(201,460)"/>
<path d="M0 0 C3.96 0 7.92 0 12 0 C12 20.46 12 40.92 12 62 C7.38 62 2.76 62 -2 62 C-2.33 48.47 -2.66 34.94 -3 21 C-7.95 23.97 -7.95 23.97 -13 27 C-14.32 27 -15.64 27 -17 27 C-17 23.04 -17 19.08 -17 15 C-15.63875 14.29875 -14.2775 13.5975 -12.875 12.875 C-6.96392236 9.58899936 -3.07722962 6.15445924 0 0 Z " fill="#0055A6" transform="translate(363,459)"/>
<path d="M0 0 C-0.33 1.32 -0.66 2.64 -1 4 C-0.01 4.33 0.98 4.66 2 5 C3.95038949 7.53550634 4.00276303 9.14920382 4.0625 12.375 C2.64328475 17.2170285 0.00868986 19.14263099 -4 22 C-3.360625 21.855625 -2.72125 21.71125 -2.0625 21.5625 C-1.051875 21.376875 -0.04125 21.19125 1 21 C1.71285156 20.84660156 2.42570312 20.69320312 3.16015625 20.53515625 C7.50630449 19.77331057 9.28762978 19.54408306 13.125 22 C15 25 15 25 15.25 28.4375 C13.28546318 34.03642994 9.4926369 36.6016915 4.4375 39.4375 C1.23352344 40.17687921 -0.84986675 39.93833756 -4 39 C-6.375 37.3125 -6.375 37.3125 -8 35 C-8.25 31.75 -8.25 31.75 -8 29 C-9.32 28.67 -10.64 28.34 -12 28 C-12.0825 27.05125 -12.165 26.1025 -12.25 25.125 C-12.4975 24.09375 -12.745 23.0625 -13 22 C-14.9001177 20.75825204 -14.9001177 20.75825204 -17 20 C-19.38313638 16.42529543 -19.64837918 15.21446465 -19 11 C-15.34252868 4.90869665 -7.5603946 -3.07141031 0 0 Z M-10.75 8.1875 C-13.06213786 9.80006078 -13.06213786 9.80006078 -14 11.9375 C-14 14.7640838 -12.84100939 15.93806949 -11 18 C-8.0212021 17.66902246 -5.64069234 17.3926824 -3.0625 15.8125 C-1.448368 13.05898071 -2.26800261 10.99453478 -3 8 C-6.21729991 6.9888486 -7.60136553 6.82786239 -10.75 8.1875 Z M0.75 26.4375 C0.04359375 26.72496094 -0.6628125 27.01242188 -1.390625 27.30859375 C-2.18726563 27.65083984 -2.18726563 27.65083984 -3 28 C-2.67 29.98 -2.34 31.96 -2 34 C-0.31026274 34.88556744 -0.31026274 34.88556744 2 35 C5.27849817 33.48106876 5.27849817 33.48106876 8 31 C8.96219702 28.37233611 8.96219702 28.37233611 9 26 C5.69564916 24.87622303 3.9493138 25.10445258 0.75 26.4375 Z " fill="#0050A2" transform="translate(140,47)"/>
<path d="M0 0 C7.75645358 3.54341584 14.19936795 10.39873591 18 18 C18.77120401 22.22409471 18.86663683 25.64332769 16.5078125 29.3359375 C10.91287894 35.76662877 10.91287894 35.76662877 7.046875 36.23828125 C0.40345855 36.45294947 -2.75777749 34.87249538 -7.78125 30.421875 C-12.92941727 25.57910749 -17.0658686 20.83083386 -17.625 13.5 C-17.42561709 9.0138846 -15.71211805 6.62430792 -12.703125 3.41015625 C-8.63059246 0.03817403 -5.26730382 -0.69079394 0 0 Z M-9.3125 7.6875 C-11.27725981 10.37994863 -12 11.65408243 -12 15 C-9.02385527 21.69632564 -3.9596383 28.18300355 3 31 C6.90128997 30.91872313 8.51326698 30.43681169 11.4375 27.8125 C13.42613671 24.23295391 13.03258047 22.9073233 12 19 C10.37298248 16.2756019 10.37298248 16.2756019 8.25 13.8125 C7.57453125 12.97332031 6.8990625 12.13414063 6.203125 11.26953125 C3.06800895 8.03991702 0.41683342 6.20240477 -4.0625 5.5625 C-7.07207573 5.77850833 -7.07207573 5.77850833 -9.3125 7.6875 Z " fill="#0051A3" transform="translate(95,70)"/>
<path d="M0 0 C4.33077532 2.50222574 6.04237852 5.46656078 8 10 C8.9075 9.484375 9.815 8.96875 10.75 8.4375 C14 7 14 7 16.375 7.3125 C16.91125 7.539375 17.4475 7.76625 18 8 C17.90966797 10.26220703 17.90966797 10.26220703 17 13 C14.79003183 14.53645406 12.84758335 15.6611458 10.4453125 16.8046875 C9.78796112 17.13292511 9.13060974 17.46116272 8.45333862 17.79934692 C7.06377859 18.48843177 5.66983621 19.16873961 4.27197266 19.84082031 C2.1297987 20.87268851 0.0041182 21.93370528 -2.12109375 23 C-3.47308648 23.66583575 -4.82592481 24.3299578 -6.1796875 24.9921875 C-6.81727997 25.3097702 -7.45487244 25.62735291 -8.11178589 25.95455933 C-12.65240434 28.11586522 -12.65240434 28.11586522 -16 27 C-20.15057474 22.18965182 -22.10185584 17.31506207 -22 11 C-19.72499463 5.47498696 -15.83080579 3.29947568 -10.59765625 0.91796875 C-6.65563716 -0.47507559 -4.15857895 -0.6343595 0 0 Z M-10.6875 7.25 C-11.45449219 7.66765625 -12.22148437 8.0853125 -13.01171875 8.515625 C-15.27169615 10.20283799 -16.160198 11.31263359 -17 14 C-15.71422413 17.72317444 -15.71422413 17.72317444 -14 21 C-7.83643195 19.3341708 -2.51740344 16.12194714 3 13 C1.73025028 8.58477891 1.73025028 8.58477891 -1 5 C-4.89737828 4.55607752 -7.30689068 5.3444613 -10.6875 7.25 Z " fill="#0052A3" transform="translate(491,148)"/>
<path d="M0 0 C3.31941234 3.96187925 4.23084742 7.17892006 3.9375 12.3125 C6.9075 11.6525 9.8775 10.9925 12.9375 10.3125 C13.5975 11.9625 14.2575 13.6125 14.9375 15.3125 C11.22859226 16.92764183 7.69271327 17.86464889 3.71875 18.6015625 C2.53925781 18.82070312 1.35976563 19.03984375 0.14453125 19.265625 C-1.07878906 19.48734375 -2.30210937 19.7090625 -3.5625 19.9375 C-5.39748047 20.28167969 -5.39748047 20.28167969 -7.26953125 20.6328125 C-17.21731035 22.45928997 -17.21731035 22.45928997 -22.0625 22.3125 C-24.98431137 16.71236154 -26.19786497 11.63198429 -25.0625 5.3125 C-19.67041777 -2.29985138 -8.14796058 -4.48969256 0 0 Z M-20.0625 7.3125 C-20.36773962 11.96338715 -20.36773962 11.96338715 -19.0625 16.3125 C-12.92095775 15.72759121 -7.05570151 14.77183748 -1.0625 13.3125 C-1.165625 12.03375 -1.26875 10.755 -1.375 9.4375 C-1.43300781 8.71820313 -1.49101563 7.99890625 -1.55078125 7.2578125 C-1.93643036 4.91730784 -1.93643036 4.91730784 -5.0625 3.3125 C-9.45422692 2.66665781 -16.80204028 4.05204028 -20.0625 7.3125 Z " fill="#0052A3" transform="translate(516.0625,214.6875)"/>
<path d="M0 0 C4.86381793 1.48430306 8.83657735 5.02840798 12.265625 8.69140625 C13.11328125 10.83203125 13.11328125 10.83203125 13.265625 12.69140625 C12.935625 13.35140625 12.605625 14.01140625 12.265625 14.69140625 C7.68316798 13.97539734 5.45745791 11.24427236 2.265625 8.08984375 C0.35919472 6.42292463 0.35919472 6.42292463 -1.984375 6.98046875 C-2.850625 7.33238281 -2.850625 7.33238281 -3.734375 7.69140625 C-3.37971619 11.89131321 -3.03437959 15.8090398 -1.671875 19.81640625 C-0.50457466 23.39612728 -0.26609587 25.94517319 -0.734375 29.69140625 C-2.5256531 32.66133203 -4.5844428 35.11644015 -7.734375 36.69140625 C-13.06514294 37.29717533 -15.57777305 35.98204946 -19.734375 32.69140625 C-22.01489942 30.78331647 -23.77903217 28.9805881 -25.734375 26.69140625 C-25.39453125 24.50390625 -25.39453125 24.50390625 -24.734375 22.69140625 C-21.35586555 23.27543742 -19.72960328 24.37736107 -17.296875 26.75390625 C-14.50927665 29.26755104 -14.50927665 29.26755104 -10.859375 30.12890625 C-8.75920096 29.8995624 -8.75920096 29.8995624 -7.734375 28.69140625 C-7.84851257 24.52099492 -8.43011041 20.5684042 -9.796875 16.62890625 C-11.08258 12.60036393 -11.20551454 9.93166209 -10.734375 5.69140625 C-7.94246538 1.50354182 -5.17932302 -0.30641033 0 0 Z " fill="#0051A2" transform="translate(433.734375,62.30859375)"/>
<path d="M0 0 C2.475 0.495 2.475 0.495 5 1 C6.78410272 6.77209703 7.94208972 12.10637511 6 18 C3.37476007 21.40069542 0.20264858 23.23309333 -4 24 C-8.92249554 24.38147506 -13.44871725 24.63317663 -18.0625 22.75 C-20.65802409 20.40565566 -21.80238362 18.28450648 -22.3359375 14.81640625 C-22.40453771 10.85817388 -22.32351778 8.56316058 -20.3125 5.0625 C-15.80620416 1.04337128 -13.15380044 1 -7 1 C-6.34 6.61 -5.68 12.22 -5 18 C-3.02 17.34 -1.04 16.68 1 16 C0.67 10.72 0.34 5.44 0 0 Z M-17 9 C-17.58342353 12.45769191 -17.58342353 12.45769191 -17 16 C-15.30835778 18.04029596 -15.30835778 18.04029596 -13 19 C-12.01 19 -11.02 19 -10 19 C-9.91840426 14.83861737 -10.01751476 11.0527516 -11 7 C-14.18490007 6.7226499 -14.18490007 6.7226499 -17 9 Z " fill="#0052A3" transform="translate(32,291)"/>
<path d="M0 0 C3.23613354 1.74253345 3.82395315 2.47185944 5 6 C5.06802967 7.72795352 5.08495645 9.45835365 5.0625 11.1875 C5.05347656 12.08855469 5.04445313 12.98960937 5.03515625 13.91796875 C5.02355469 14.60503906 5.01195312 15.29210937 5 16 C6.65 15.67 8.3 15.34 10 15 C10.33 11.04 10.66 7.08 11 3 C12.65 3 14.3 3 16 3 C16.10864945 5.06132142 16.18588321 7.12431321 16.25 9.1875 C16.29640625 10.33605469 16.3428125 11.48460937 16.390625 12.66796875 C15.92103189 16.67359802 14.89184882 18.23498666 12 21 C4.78626841 22.62890713 -6.28428184 23.35785908 -13 20 C-13 4.28 -13 4.28 -10.4375 1 C-6.9145062 -0.44533079 -3.75330461 -0.57802432 0 0 Z M-8 7 C-8.25660094 10.07921132 -8.39431504 12.21136993 -7 15 C-4.67843403 15.40729228 -2.3431213 15.74438677 0 16 C0.74926071 12.33694766 1.2380014 9.57644848 0 6 C-4.17810069 4.81068813 -4.17810069 4.81068813 -8 7 Z " fill="#0052A3" transform="translate(507,275)"/>
<path d="M0 0 C1.37705709 0.30330679 2.75304365 0.61189746 4.125 0.9375 C3.88727855 2.83927157 3.64717053 4.74077764 3.39453125 6.640625 C3.2202886 8.12547544 3.08959154 9.61636557 3.01171875 11.109375 C2.77067712 14.77320783 2.38225729 16.64349167 -0.0625 19.4375 C-3.36171661 21.19708219 -5.18565329 21.40848043 -8.875 20.9375 C-11.48049542 20.06900153 -12.53369112 19.49379703 -13.97265625 17.1484375 C-14.97462615 14.69339437 -15.11105307 12.95202126 -15.0625 10.3125 C-15.05283203 9.14847656 -15.05283203 9.14847656 -15.04296875 7.9609375 C-14.875 5.9375 -14.875 5.9375 -13.875 3.9375 C-15.855 3.9375 -17.835 3.9375 -19.875 3.9375 C-20.535 8.2275 -21.195 12.5175 -21.875 16.9375 C-23.195 16.6075 -24.515 16.2775 -25.875 15.9375 C-26.43812292 4.02849299 -26.43812292 4.02849299 -22.875 -0.0625 C-16.70153265 -4.1781449 -7.00620977 -1.3932234 0 0 Z M-9.875 4.9375 C-9.90189216 6.41656892 -9.92134621 7.89577483 -9.9375 9.375 C-9.94910156 10.19871094 -9.96070313 11.02242187 -9.97265625 11.87109375 C-10.10767348 13.92913938 -10.10767348 13.92913938 -8.875 14.9375 C-5.875 15.10416667 -5.875 15.10416667 -2.875 14.9375 C-1.48212194 13.76713695 -1.48212194 13.76713695 -1.6875 10.5 C-1.47935072 6.88717279 -1.47935072 6.88717279 -3.875 4.9375 C-6.95847826 4.77068891 -6.95847826 4.77068891 -9.875 4.9375 Z " fill="#0051A2" transform="translate(35.875,224.0625)"/>
<path d="M0 0 C3.80081052 4.05419789 6.43574076 8.21883499 8.875 13.1875 C9.1946875 13.80302734 9.514375 14.41855469 9.84375 15.05273438 C12.12397891 19.62806326 12.12397891 19.62806326 11 23 C9.00882592 23.69258229 7.0078864 24.35747635 5 25 C4.54625 25.515625 4.0925 26.03125 3.625 26.5625 C1.28221668 28.63496217 -0.92487892 28.9160114 -3.99609375 29.1875 C-6 29 -6 29 -8.9375 27 C-11.39017365 23.43247469 -12.0772846 21.32793752 -12 17 C-9.53660882 12.66443153 -6.50980466 10.94741565 -2 9 C-2 7.68 -2 6.36 -2 5 C-5.50455298 5.41720869 -8.01892243 6.00964673 -11.1875 7.625 C-14 9 -14 9 -17 8 C-16.64290225 5.31024758 -16.29758271 4.24841132 -14.1796875 2.48046875 C-9.15186671 -0.34022393 -5.74214422 -2.09809116 0 0 Z M-6 17 C-5.67 18.98 -5.34 20.96 -5 23 C-2.02465292 24.36907925 -2.02465292 24.36907925 0.625 22.8125 C3.06829446 21.23058636 3.06829446 21.23058636 3.9375 19.0625 C4.01434368 16.52665842 3.30245593 15.14522154 2 13 C-1.90838866 13 -3.11594107 14.50567876 -6 17 Z " fill="#0051A2" transform="translate(161,37)"/>
<path d="M0 0 C3.02845737 1.455186 5.66668319 3.33488008 8.375 5.3125 C9.09816406 5.81201172 9.82132813 6.31152344 10.56640625 6.82617188 C15.85798711 10.57396132 15.85798711 10.57396132 17 14 C16.67 14.66 16.34 15.32 16 16 C15.01 16 14.02 16 13 16 C12.9071875 17.3303125 12.9071875 17.3303125 12.8125 18.6875 C11.78790219 22.86470646 10.41292944 24.4213422 7 27 C2.79696786 27.89426216 1.30793525 27.18818265 -2.375 24.9375 C-5 22 -5 22 -5.625 18.6875 C-4.87114807 14.23977361 -3.25170714 10.87012165 -1 7 C-2.65 6.67 -4.3 6.34 -6 6 C-7.98 8.97 -9.96 11.94 -12 15 C-13.32 14.67 -14.64 14.34 -16 14 C-15.66506307 8.6410091 -12.42872819 4.89256144 -9 1 C-5.81116215 -0.59441892 -3.54372768 -0.35863376 0 0 Z M3 10 C0.92896263 12.68467808 -0.01719699 14.26052923 0.0625 17.6875 C0.80221521 20.15432176 0.80221521 20.15432176 3.0625 21.3125 C3.701875 21.539375 4.34125 21.76625 5 22 C7.52259061 20.02579865 7.9929808 19.03254358 8.6875 15.8125 C8.790625 14.884375 8.89375 13.95625 9 13 C6.32752366 10.65712582 6.32752366 10.65712582 3 10 Z " fill="#0052A2" transform="translate(64,119)"/>
<path d="M0 0 C3.14692172 2.60744942 3.96143994 5.40495622 4.6015625 9.390625 C5.06181718 15.22051761 5.28337456 20.96415189 5.1875 26.8125 C4.07375 26.791875 2.96 26.77125 1.8125 26.75 C-1.64465921 26.54869282 -1.64465921 26.54869282 -3.8125 27.8125 C-10.72539199 28.25849303 -10.72539199 28.25849303 -14.25 26.8125 C-16.65556323 23.73337906 -16.85134709 20.65059267 -16.8125 16.8125 C-16.375 14.5 -16.375 14.5 -14.8125 12.8125 C-10.60859826 10.63514282 -6.58781923 9.36481382 -1.8125 9.8125 C-2.4725 8.1625 -3.1325 6.5125 -3.8125 4.8125 C-7.7725 4.8125 -11.7325 4.8125 -15.8125 4.8125 C-16.1425 3.4925 -16.4725 2.1725 -16.8125 0.8125 C-11.03867359 -1.07283107 -5.85632237 -2.47266944 0 0 Z M-9.8125 15.8125 C-11.09572547 16.8720877 -11.09572547 16.8720877 -10.9375 19.3125 C-11.09572547 21.7529123 -11.09572547 21.7529123 -9.8125 22.8125 C-5.16161285 23.11773962 -5.16161285 23.11773962 -0.8125 21.8125 C-0.8125 19.1725 -0.8125 16.5325 -0.8125 13.8125 C-3.98241915 13.8125 -6.80306687 14.88231158 -9.8125 15.8125 Z " fill="#0051A3" transform="translate(248.8125,13.1875)"/>
<path d="M0 0 C4.53219873 2.01540291 7.28317125 4.88736933 10 9 C11.125 12.625 11.125 12.625 11 16 C8.01456636 20.48561404 4.08961272 23.55812378 -0.125 26.8125 C-0.75792969 27.31458984 -1.39085937 27.81667969 -2.04296875 28.33398438 C-6.74145408 32 -6.74145408 32 -9 32 C-10.3440093 30.00715862 -11.67541292 28.00580329 -13 26 C-13.9075 25.195625 -14.815 24.39125 -15.75 23.5625 C-18 21 -18 21 -18.625 17.5 C-17.8379108 13.09230048 -16.54113128 11.67552141 -13 9 C-10.5 8 -10.5 8 -8 8 C-3.81285682 9.93252762 -0.47361459 13.01107582 3 16 C3.66 14.68 4.32 13.36 5 12 C4.175 11.05125 3.35 10.1025 2.5 9.125 C0 6.25 0 6.25 0 4 C-0.66 4 -1.32 4 -2 4 C-1.34 2.68 -0.68 1.36 0 0 Z M-13 16 C-12.67083852 19.04474365 -12.32869657 20.63608594 -10.25 22.9375 C-7.99676382 24.28809259 -7.99676382 24.28809259 -5.375 23.375 C-2.73365529 22.07948232 -2.73365529 22.07948232 -1 19 C-3.24958334 16.41666771 -3.24958334 16.41666771 -6 14 C-10.04622502 13.63019987 -10.04622502 13.63019987 -13 16 Z " fill="#0051A2" transform="translate(458,100)"/>
<path d="M0 0 C2.25 -0.0625 2.25 -0.0625 5 1 C7.76337945 5.00775839 8.92811001 8.92165013 9.25 13.75 C7.72995914 17.70210624 6.3752762 18.79792466 2.7421875 20.80078125 C-3.01170737 23.3170857 -9.00080884 25.16431 -15 27 C-17 25 -17 25 -17.4375 22.6875 C-17.85189363 19.91294605 -17.85189363 19.91294605 -19.5625 17.5625 C-21.34234595 14.38973112 -21.53422753 12.58695629 -21 9 C-18.15015257 5.48518817 -16.1764525 4.15538052 -11.6875 3.5625 C-8 4 -8 4 -5.1875 6.6875 C-3.35263538 9.46600928 -2.01921965 11.8496847 -1 15 C0.32 14.34 1.64 13.68 3 13 C2.7834375 12.31292969 2.566875 11.62585938 2.34375 10.91796875 C2.0653125 10.01691406 1.786875 9.11585938 1.5 8.1875 C1.2215625 7.29417969 0.943125 6.40085938 0.65625 5.48046875 C0 3 0 3 0 0 Z M-16 11 C-15.70062346 14.36798609 -15.51071208 16.41632905 -13.25 19 C-10.95682278 20.31037802 -10.95682278 20.31037802 -8.25 19.1875 C-7.5075 18.795625 -6.765 18.40375 -6 18 C-6.4979837 14.26512223 -6.87491756 12.18762365 -9 9 C-13.04622502 8.63019987 -13.04622502 8.63019987 -16 11 Z " fill="#0051A2" transform="translate(500,172)"/>
<path d="M0 0 C3.24044458 2.56535196 4.69560167 4.086805 6 8 C6.55164083 14.89551036 5.33336179 21.18624019 0.875 26.5625 C-3.15655213 28.57827607 -6.57589813 28.66642551 -11 28 C-14.88946439 26.34490877 -16.43601742 24.86517281 -18 21 C-18.66168459 15.19079851 -18.27346876 9.41302085 -16 4 C-10.73434207 -1.00237503 -6.95161694 -1.77692454 0 0 Z M-9.625 5.75 C-12.43513626 8.60987318 -12.38596056 11.28455906 -12.4375 15.1875 C-12.50901667 19.61787349 -12.50901667 19.61787349 -10 23 C-5.84960536 23.45783683 -5.84960536 23.45783683 -2.1875 21.75 C0.62696325 17.60236995 0.84182373 11.83133617 0 7 C-3.5976301 3.87574228 -5.60802785 3.07201857 -9.625 5.75 Z " fill="#0051A3" transform="translate(305,14)"/>
<path d="M0 0 C3.70390021 2.02666238 5.65363011 3.48044516 8 7 C9.1626461 13.09471326 7.71789003 17.86490838 4.48046875 23.04296875 C2.26265528 25.97469579 0.38458531 27.53998281 -3 29 C-7.30199334 29.32180265 -10.23418142 28.48279867 -13.875 26.1875 C-17.24485126 22.71853547 -17.24485126 22.71853547 -18 20 C-17.86983507 12.19010436 -14.94502442 7.1000257 -9.625 1.5 C-6.10357254 -0.51224427 -4.00308391 -0.56183634 0 0 Z M-7.0625 6.625 C-10.38436629 10.69696513 -12.0758666 13.45737922 -11.8125 18.8125 C-11.4103125 20.3903125 -11.4103125 20.3903125 -11 22 C-7.99449319 23.50275341 -6.33001693 23.58765005 -3 23 C1.1324532 18.6697166 2.6346863 13.84501924 3 8 C-0.40249178 5.08357847 -3.08685412 3.49267294 -7.0625 6.625 Z " fill="#0051A2" transform="translate(383,39)"/>
<path d="M0 0 C4.69700185 1.5523311 9.03651455 3.96965979 12 8 C13.28255213 11.8476564 13.08479443 13.72677351 11.875 17.625 C9.87944139 21.21700549 8.56344892 22.97531311 5 25 C-2.34506932 26.13001067 -8.23273592 22.9766172 -14.0625 18.8125 C-16.77945492 14.86853318 -16.78523881 11.65232885 -16 7 C-12.657706 -0.48037227 -7.45405259 -0.90552935 0 0 Z M-9.8125 6.125 C-11.61896635 8.97731529 -11.6060391 10.70045378 -11 14 C-5.85356932 18.23150967 -1.61321023 19.48096074 5 19 C7.28554031 16.12262918 7.28554031 16.12262918 7.1875 12.5625 C6.38844434 8.99283347 6.38844434 8.99283347 4.09765625 7.65625 C-2.8160469 4.40480286 -2.8160469 4.40480286 -9.8125 6.125 Z " fill="#0052A3" transform="translate(41,167)"/>
<path d="M0 0 C0.88429688 0.14953125 1.76859375 0.2990625 2.6796875 0.453125 C4.66023956 0.77933357 6.64401792 1.08790749 8.6328125 1.359375 C12.75715806 2.00582415 15.36753793 2.47294827 18.625 5.1875 C21.69129349 11.45946396 19.48968007 17.66194152 17.5 23.9375 C17.26152344 24.71673828 17.02304687 25.49597656 16.77734375 26.29882812 C16.19357822 28.20190376 15.59800024 30.10134922 15 32 C13.35 31.67 11.7 31.34 10 31 C10.79263616 23.23216563 12.41889487 15.6370361 14 8 C10.7 7.67 7.4 7.34 4 7 C3.8453125 8.60875 3.8453125 8.60875 3.6875 10.25 C2.9900266 15.95287077 1.46923218 21.45572761 0 27 C-1.65 27.33 -3.3 27.66 -5 28 C-6.05895994 24.03754159 -5.86326799 21.41887693 -4.78515625 17.48046875 C-4.37426758 15.9480957 -4.37426758 15.9480957 -3.95507812 14.38476562 C-3.66052734 13.32966797 -3.36597656 12.27457031 -3.0625 11.1875 C-2.77181641 10.11306641 -2.48113281 9.03863281 -2.18164062 7.93164062 C-1.46409511 5.28495635 -0.7366048 2.64143116 0 0 Z " fill="#0051A2" transform="translate(318,17)"/>
<path d="M0 0 C4.09358372 0.9715395 7.43766623 2.96067955 11.00048828 5.14111328 C11.72300781 5.56585938 12.44552734 5.99060547 13.18994141 6.42822266 C14.94768353 7.46424285 16.69409899 8.51944126 18.43798828 9.57861328 C17.77798828 11.22861328 17.11798828 12.87861328 16.43798828 14.57861328 C11.15548997 13.15091104 6.79194682 10.5898965 2.12158203 7.82080078 C-0.71049252 6.50988418 -2.48450659 6.32261828 -5.56201172 6.57861328 C-6.55201172 9.21861328 -7.54201172 11.85861328 -8.56201172 14.57861328 C-7.71380859 14.83384766 -6.86560547 15.08908203 -5.99169922 15.35205078 C-2.32449079 16.66355812 0.90373385 18.32504451 4.31298828 20.20361328 C5.46541016 20.83525391 6.61783203 21.46689453 7.80517578 22.11767578 C9.10841797 22.84083984 9.10841797 22.84083984 10.43798828 23.57861328 C10.10798828 25.22861328 9.77798828 26.87861328 9.43798828 28.57861328 C5.64802853 27.98207302 2.73442502 26.87793841 -0.64404297 25.07470703 C-1.57539062 24.58164063 -2.50673828 24.08857422 -3.46630859 23.58056641 C-4.42601562 23.06429687 -5.38572266 22.54802734 -6.37451172 22.01611328 C-7.35355469 21.49597656 -8.33259766 20.97583984 -9.34130859 20.43994141 C-11.75131832 19.1585216 -14.15801391 17.87126618 -16.56201172 16.57861328 C-15.90201172 14.92861328 -15.24201172 13.27861328 -14.56201172 11.57861328 C-13.90201172 11.57861328 -13.24201172 11.57861328 -12.56201172 11.57861328 C-12.50013672 10.52673828 -12.43826172 9.47486328 -12.37451172 8.39111328 C-10.74251331 0.73327462 -7.16417229 -0.98570881 0 0 Z " fill="#0051A2" transform="translate(49.56201171875,141.42138671875)"/>
<path d="M0 0 C4.17538542 3.23491026 5.54052811 7.18556897 7.25 12 C7.518125 12.7115625 7.78625 13.423125 8.0625 14.15625 C9.34419072 17.66128178 10 20.22778348 10 24 C8.35 24.33 6.7 24.66 5 25 C4.68977905 24.18994507 4.68977905 24.18994507 4.37329102 23.36352539 C3.43911216 20.92878405 2.50086253 18.49563181 1.5625 16.0625 C1.23701172 15.21236328 0.91152344 14.36222656 0.57617188 13.48632812 C0.26357422 12.67744141 -0.04902344 11.86855469 -0.37109375 11.03515625 C-0.65911865 10.2862915 -0.94714355 9.53742676 -1.24389648 8.76586914 C-1.86639115 7.00970867 -1.86639115 7.00970867 -3 6 C-5.33944736 6.28730055 -7.6739143 6.61936779 -10 7 C-11.50126097 11.57922635 -9.7788341 14.80326576 -8 19.0625 C-4.86767637 26.6030291 -4.86767637 26.6030291 -6 30 C-8.0625 30.6875 -8.0625 30.6875 -10 31 C-19 9.8647541 -19 9.8647541 -19 4 C-17.948125 3.731875 -16.89625 3.46375 -15.8125 3.1875 C-12.07165866 2.22284758 -12.07165866 2.22284758 -9.5 0.3125 C-5.94280033 -1.55502982 -3.81661801 -1.04089582 0 0 Z " fill="#0051A2" transform="translate(187,26)"/>
<path d="M0 0 C4.84017589 0.68064973 9.0774957 2.50494421 13 5.421875 C15.35088389 9.09833516 15.44807406 12.09049239 15 16.421875 C12.97333762 20.12577521 11.51955484 22.07550511 8 24.421875 C1.23766367 25.45484289 -4.41217534 24.36167764 -10 20.421875 C-13.12552944 17.53076027 -13.90748456 16.16199852 -14.4375 11.921875 C-13.30243793 2.84137847 -8.52364196 -0.22669261 0 0 Z M-7.5625 6.984375 C-9.24026553 9.39065432 -9.24026553 9.39065432 -9.125 12.484375 C-8.24092128 15.60765272 -8.24092128 15.60765272 -5.4375 17.234375 C-1.35534791 18.644573 1.6641774 19.35194238 6 19.421875 C8.71107713 18.04470834 8.71107713 18.04470834 10 15.421875 C10.32908167 12.31260453 10.32908167 12.31260453 9 9.421875 C4.29641993 6.09495251 -2.35890318 3.81145011 -7.5625 6.984375 Z " fill="#0052A2" transform="translate(498,328.578125)"/>
<path d="M0 0 C0.33 1.65 0.66 3.3 1 5 C-8.9 8.465 -8.9 8.465 -19 12 C-18.67 14.31 -18.34 16.62 -18 19 C-13.28978217 20.51854513 -9.82491834 19.22687375 -5.375 17.5625 C1.66677719 15 1.66677719 15 5 15 C5.33 16.65 5.66 18.3 6 20 C-2.47093837 23.64494704 -11.18668878 26.33195045 -20 29 C-20.44472656 27.84951172 -20.44472656 27.84951172 -20.8984375 26.67578125 C-21.9648164 23.91698144 -21.9648164 23.91698144 -23.625 21.1875 C-25.43927797 16.98167379 -25.5150802 14.56213894 -25 10 C-21.85797551 5.81597759 -17.82040014 4.45017945 -13.0625 2.75 C-12.35931641 2.481875 -11.65613281 2.21375 -10.93164062 1.9375 C-7.16866485 0.55503842 -4.071421 -0.35057245 0 0 Z " fill="#0052A4" transform="translate(45,333)"/>
<path d="M0 0 C5.9893841 1.81820589 11.74388415 4.05441961 17.5 6.5 C18.21865234 6.79656494 18.93730469 7.09312988 19.67773438 7.39868164 C21.49019622 8.18241963 23.25078815 9.08374617 25 10 C26.35838287 14.0751486 24.77291224 16.34578788 23 20 C22.484375 21.093125 21.96875 22.18625 21.4375 23.3125 C20 26 20 26 18 28 C11.34000048 29.0334482 6.53812871 27.30008735 0.5 24.6875 C-0.21881348 24.37949463 -0.93762695 24.07148926 -1.67822266 23.75415039 C-3.49578102 22.92583263 -5.25424763 21.97055519 -7 21 C-7.33 20.01 -7.66 19.02 -8 18 C-7.01 16.515 -7.01 16.515 -6 15 C-0.79762326 16.65917828 4.114083 18.75736514 9.09765625 20.9765625 C11.96219801 21.98667009 13.99439708 22.20956497 17 22 C17.33 19.03 17.66 16.06 18 13 C16.72125 12.608125 15.4425 12.21625 14.125 11.8125 C8.81200673 10.05558013 3.93918395 7.60879653 -1 5 C-0.67 3.35 -0.34 1.7 0 0 Z " fill="#0052A4" transform="translate(480,351)"/>
<path d="M0 0 C0.55429687 0.226875 1.10859375 0.45375 1.6796875 0.6875 C1.7415625 1.244375 1.8034375 1.80125 1.8671875 2.375 C3.01163556 5.63227526 5.20590834 7.3374098 7.6796875 9.6875 C9.12399605 12.57611709 9.05657256 14.48397701 8.6796875 17.6875 C5.13197532 21.78204 1.08727211 24.63254384 -3.4453125 27.5 C-4.06535156 27.90669922 -4.68539063 28.31339844 -5.32421875 28.73242188 C-9.94308036 31.6875 -9.94308036 31.6875 -13.3203125 31.6875 C-13.6503125 30.0375 -13.9803125 28.3875 -14.3203125 26.6875 C-13.60113647 26.26452637 -13.60113647 26.26452637 -12.86743164 25.83300781 C-10.69800388 24.54730399 -8.54052529 23.24276042 -6.3828125 21.9375 C-5.62806641 21.4940625 -4.87332031 21.050625 -4.09570312 20.59375 C-3.37705078 20.15546875 -2.65839844 19.7171875 -1.91796875 19.265625 C-1.25289307 18.86762695 -0.58781738 18.46962891 0.09741211 18.05957031 C1.81260742 16.76949224 1.81260742 16.76949224 2.55688477 14.69824219 C2.59740967 14.03469727 2.63793457 13.37115234 2.6796875 12.6875 C0.32542251 9.91627725 0.32542251 9.91627725 -2.3203125 7.6875 C-3.0215625 8.14640625 -3.7228125 8.6053125 -4.4453125 9.078125 C-9.94580771 12.63551049 -15.39535696 15.89270965 -21.3203125 18.6875 C-21.9803125 17.0375 -22.6403125 15.3875 -23.3203125 13.6875 C-20.00778655 11.32346304 -16.67108507 8.99699663 -13.3203125 6.6875 C-12.33933594 6.00816406 -11.35835938 5.32882813 -10.34765625 4.62890625 C-9.38988281 3.98824219 -8.43210937 3.34757812 -7.4453125 2.6875 C-6.56101562 2.089375 -5.67671875 1.49125 -4.765625 0.875 C-2.3203125 -0.3125 -2.3203125 -0.3125 0 0 Z " fill="#0052A2" transform="translate(476.3203125,121.3125)"/>
<path d="M0 0 C0.93779297 0.04833984 1.87558594 0.09667969 2.84179688 0.14648438 C4.30649414 0.2305957 4.30649414 0.2305957 5.80078125 0.31640625 C6.78884766 0.36861328 7.77691406 0.42082031 8.79492188 0.47460938 C11.23469801 0.60425931 13.6740623 0.73922367 16.11328125 0.87890625 C16.73828125 2.75390625 16.73828125 2.75390625 17.11328125 4.87890625 C15.11328125 6.87890625 15.11328125 6.87890625 12.86669922 7.10595703 C11.95549316 7.0954834 11.04428711 7.08500977 10.10546875 7.07421875 C8.62626953 7.06455078 8.62626953 7.06455078 7.1171875 7.0546875 C5.56837891 7.02955078 5.56837891 7.02955078 3.98828125 7.00390625 C2.94800781 6.99488281 1.90773438 6.98585937 0.8359375 6.9765625 C-1.73837872 6.95294492 -4.31257713 6.91707309 -6.88671875 6.87890625 C-6.55671875 10.17890625 -6.22671875 13.47890625 -5.88671875 16.87890625 C-3.63021484 16.86150391 -3.63021484 16.86150391 -1.328125 16.84375 C0.63150918 16.83437376 2.5911447 16.82527338 4.55078125 16.81640625 C6.04061523 16.80383789 6.04061523 16.80383789 7.56054688 16.79101562 C8.50478516 16.78779297 9.44902344 16.78457031 10.421875 16.78125 C11.73369751 16.77339478 11.73369751 16.77339478 13.07202148 16.76538086 C15.11328125 16.87890625 15.11328125 16.87890625 16.11328125 17.87890625 C16.15391957 19.5450774 16.15600225 21.2127872 16.11328125 22.87890625 C6.70114873 23.00764362 -2.50759288 22.67712973 -11.88671875 21.87890625 C-11.99483878 19.12785203 -12.0740682 16.38105538 -12.13671875 13.62890625 C-12.17023437 12.85160156 -12.20375 12.07429688 -12.23828125 11.2734375 C-12.33712636 5.49099864 -12.33712636 5.49099864 -10.05859375 2.39453125 C-6.61369197 -0.00946496 -4.0706897 -0.22203762 0 0 Z " fill="#0052A3" transform="translate(19.88671875,248.12109375)"/>
<path d="M0 0 C4.83902104 0.573187 7.54999583 2.94470056 11.3046875 5.90625 C12.33722656 6.69322266 12.33722656 6.69322266 13.390625 7.49609375 C15.08014932 8.78670261 16.75629751 10.09478914 18.4296875 11.40625 C18.7596875 7.77625 19.0896875 4.14625 19.4296875 0.40625 C21.0796875 0.40625 22.7296875 0.40625 24.4296875 0.40625 C24.65083165 3.19744779 24.85712051 5.9883712 25.0546875 8.78125 C25.11914062 9.5753125 25.18359375 10.369375 25.25 11.1875 C25.39027337 13.25653224 25.41726987 15.33250536 25.4296875 17.40625 C23.4296875 19.40625 23.4296875 19.40625 21.05395508 19.6953125 C18.03475922 19.36274874 16.81513053 18.63391285 14.44140625 16.78125 C13.73564453 16.23984375 13.02988281 15.6984375 12.30273438 15.140625 C11.58150391 14.56828125 10.86027344 13.9959375 10.1171875 13.40625 C9.37662109 12.83390625 8.63605469 12.2615625 7.87304688 11.671875 C6.05026688 10.26069049 4.23883967 8.8348637 2.4296875 7.40625 C2.0996875 11.69625 1.7696875 15.98625 1.4296875 20.40625 C-0.2203125 20.07625 -1.8703125 19.74625 -3.5703125 19.40625 C-3.59715237 16.42702407 -3.61707287 13.44803705 -3.6328125 10.46875 C-3.64119141 9.61861328 -3.64957031 8.76847656 -3.65820312 7.89257812 C-3.66142578 7.08369141 -3.66464844 6.27480469 -3.66796875 5.44140625 C-3.67320557 4.6925415 -3.67844238 3.94367676 -3.68383789 3.17211914 C-3.50014091 0.31474223 -2.84277206 0.44931352 0 0 Z " fill="#0052A4" transform="translate(498.5703125,251.59375)"/>
<path d="M0 0 C1.01103141 3.01844159 1.32110539 5.18027351 0.14501953 8.18261719 C-1.14534003 10.62863686 -2.51384211 13.00412751 -3.9375 15.375 C-4.41896484 16.20644531 -4.90042969 17.03789063 -5.39648438 17.89453125 C-6.58284346 19.9383578 -7.78947078 21.97039565 -9 24 C-4.38 23.67 0.24 23.34 5 23 C5 24.32 5 25.64 5 27 C-7.85504202 30.54621849 -7.85504202 30.54621849 -14 30 C-15 29 -15 29 -15.34375 25.96484375 C-14.90703445 20.92772694 -13.09095514 17.81462307 -10.5 13.5625 C-10.07074219 12.83095703 -9.64148438 12.09941406 -9.19921875 11.34570312 C-8.14632537 9.55578437 -7.07499718 7.77673146 -6 6 C-12.435 6.495 -12.435 6.495 -19 7 C-19 5.68 -19 4.36 -19 3 C-6.51480638 -0.44419134 -6.51480638 -0.44419134 0 0 Z " fill="#0052A3" transform="translate(226,15)"/>
<path d="M0 0 C4.13830989 0.30096799 6.51847024 0.67898016 10 3 C9.34 4.32 8.68 5.64 8 7 C6.02 6.34 4.04 5.68 2 5 C1.67 6.32 1.34 7.64 1 9 C2.65 9.99 4.3 10.98 6 12 C5.67 13.32 5.34 14.64 5 16 C2.03 15.505 2.03 15.505 -1 15 C-1.2266333 15.56509277 -1.4532666 16.13018555 -1.68676758 16.71240234 C-2.7190501 19.27061052 -3.76556612 21.82275488 -4.8125 24.375 C-5.16892578 25.26445313 -5.52535156 26.15390625 -5.89257812 27.0703125 C-6.24384766 27.92109375 -6.59511719 28.771875 -6.95703125 29.6484375 C-7.27647705 30.43395996 -7.59592285 31.21948242 -7.92504883 32.02880859 C-9 34 -9 34 -12 36 C-12.99 35.34 -13.98 34.68 -15 34 C-14.31204056 29.49778445 -12.68289465 25.48767837 -10.9375 21.3125 C-8.83529647 16.80261636 -8.83529647 16.80261636 -8 12 C-8.99 11.34 -9.98 10.68 -11 10 C-10.67 8.68 -10.34 7.36 -10 6 C-7.03 6.495 -7.03 6.495 -4 7 C-3.71125 6.21625 -3.4225 5.4325 -3.125 4.625 C-2 2 -2 2 0 0 Z " fill="#0051A3" transform="translate(366,22)"/>
<path d="M0 0 C2.0625 0.4375 2.0625 0.4375 4 1 C4.27632268 2.43267304 4.52019671 3.87163335 4.75 5.3125 C4.88921875 6.11300781 5.0284375 6.91351563 5.171875 7.73828125 C5 10 5 10 3.59375 11.65625 C-0.19409783 13.618629 -4.08776005 14.35180026 -8.25 15.1875 C-9.09046875 15.36474609 -9.9309375 15.54199219 -10.796875 15.72460938 C-12.86267921 16.15889776 -14.9311042 16.58068676 -17 17 C-16.67 18.98 -16.34 20.96 -16 23 C-17.65 23 -19.3 23 -21 23 C-21 21.35 -21 19.7 -21 18 C-22.98 18.33 -24.96 18.66 -27 19 C-27.66 17.35 -28.32 15.7 -29 14 C-27.02 13.67 -25.04 13.34 -23 13 C-23.33 10.69 -23.66 8.38 -24 6 C-22.35 6 -20.7 6 -19 6 C-18.67 7.32 -18.34 8.64 -18 10 C-11.91766294 9.32418477 -5.98685848 8.26361972 0 7 C-0.185625 6.030625 -0.37125 5.06125 -0.5625 4.0625 C-0.706875 3.051875 -0.85125 2.04125 -1 1 C-0.67 0.67 -0.34 0.34 0 0 Z " fill="#0051A2" transform="translate(37,314)"/>
<path d="M0 0 C1.32 0 2.64 0 4 0 C4 1.98 4 3.96 4 6 C6.475 6.495 6.475 6.495 9 7 C9 8.65 9 10.3 9 12 C7.02 12 5.04 12 3 12 C2.67 13.98 2.34 15.96 2 18 C0.35 17.67 -1.3 17.34 -3 17 C-2.67 15.02 -2.34 13.04 -2 11 C-7.94 10.34 -13.88 9.68 -20 9 C-20.66 10.65 -21.32 12.3 -22 14 C-23.32 14 -24.64 14 -26 14 C-25.88590407 12.54077307 -25.75834456 11.08259402 -25.625 9.625 C-25.55539062 8.81289063 -25.48578125 8.00078125 -25.4140625 7.1640625 C-25 5 -25 5 -23 3 C-15.66464958 2.00636688 -8.1833807 3.61763121 -1 5 C-0.67 3.35 -0.34 1.7 0 0 Z " fill="#0051A3" transform="translate(517,300)"/>
<path d="M0 0 C1.65 0.99 3.3 1.98 5 3 C5.66 2.34 6.32 1.68 7 1 C9.625 1.375 9.625 1.375 12 2 C12 5.10551666 11.4606285 6.35261084 10 9 C10.66 9.66 11.32 10.32 12 11 C11.625 13.125 11.625 13.125 11 15 C8.13275314 14.42655063 7.1385485 14.1385485 5 12 C1.04 15.96 -2.92 19.92 -7 24 C-6.01 25.32 -5.02 26.64 -4 28 C-4.66 29.32 -5.32 30.64 -6 32 C-8.86503068 30.7156759 -11.15427705 29.58401213 -13 27 C-13.484375 24.3203125 -13.484375 24.3203125 -13 21 C-11.12931721 18.39030047 -8.8582359 16.29202758 -6.5 14.125 C-5.87996094 13.53203125 -5.25992187 12.9390625 -4.62109375 12.328125 C-3.09393227 10.87144789 -1.54866657 9.43379295 0 8 C-0.66 6.02 -1.32 4.04 -2 2 C-1.34 1.34 -0.68 0.68 0 0 Z " fill="#0051A3" transform="translate(443,83)"/>
<path d="M0 0 C1.32 0.33 2.64 0.66 4 1 C3.67 2.98 3.34 4.96 3 7 C4.051875 7.18175781 4.051875 7.18175781 5.125 7.3671875 C10.81970105 8.37304502 16.40894019 9.52311628 22 11 C22.33 9.02 22.66 7.04 23 5 C24.32 5.33 25.64 5.66 27 6 C26.50748278 13.51088764 26.50748278 13.51088764 24.2734375 15.6640625 C21.40077502 17.35212189 20.23424013 17.10486832 17.015625 16.41796875 C15.61376953 16.13276367 15.61376953 16.13276367 14.18359375 15.84179688 C12.73146484 15.51791992 12.73146484 15.51791992 11.25 15.1875 C10.26644531 14.98318359 9.28289063 14.77886719 8.26953125 14.56835938 C5.84243936 14.0617334 3.42018646 13.53848832 1 13 C0.67 14.32 0.34 15.64 0 17 C-1.32 17 -2.64 17 -4 17 C-3.67 15.02 -3.34 13.04 -3 11 C-4.65 10.67 -6.3 10.34 -8 10 C-8 8.35 -8 6.7 -8 5 C-6.02 5 -4.04 5 -2 5 C-1.34 3.35 -0.68 1.7 0 0 Z " fill="#0052A4" transform="translate(17,201)"/>
<path d="M0 0 C0 1.98 0 3.96 0 6 C1.98 6 3.96 6 6 6 C6 7.65 6 9.3 6 11 C4.02 11 2.04 11 0 11 C0.33 16.94 0.66 22.88 1 29 C2.98 29.33 4.96 29.66 7 30 C6.67 31.65 6.34 33.3 6 35 C-1.50992491 35.36934057 -1.50992491 35.36934057 -3.609375 33.78710938 C-5.43838788 31.43662231 -5.34667883 30.06733546 -5.29296875 27.11328125 C-5.28330078 26.17548828 -5.27363281 25.23769531 -5.26367188 24.27148438 C-5.23853516 23.29501953 -5.21339844 22.31855469 -5.1875 21.3125 C-5.17396484 20.32443359 -5.16042969 19.33636719 -5.14648438 18.31835938 C-5.11112203 15.87835769 -5.06177033 13.43945281 -5 11 C-6.98 11 -8.96 11 -11 11 C-10.67 9.35 -10.34 7.7 -10 6 C-8.68 6 -7.36 6 -6 6 C-6 4.35 -6 2.7 -6 1 C-4 0 -4 0 0 0 Z " fill="#0051A3" transform="translate(266,5)"/>
<path d="M0 0 C0.6875 2.0625 0.6875 2.0625 1 4 C-6.54051901 7.98101935 -14.25218998 11.52303635 -22.0625 14.9375 C-22.9908667 15.3512085 -23.9192334 15.76491699 -24.87573242 16.19116211 C-25.75334229 16.57022705 -26.63095215 16.94929199 -27.53515625 17.33984375 C-28.322854 17.68394287 -29.11055176 18.02804199 -29.92211914 18.38256836 C-32 19 -32 19 -35 18 C-35.6875 15.9375 -35.6875 15.9375 -36 14 C-28.45948099 10.01898065 -20.74781002 6.47696365 -12.9375 3.0625 C-12.0091333 2.6487915 -11.0807666 2.23508301 -10.12426758 1.80883789 C-9.24665771 1.42977295 -8.36904785 1.05070801 -7.46484375 0.66015625 C-6.28329712 0.14400757 -6.28329712 0.14400757 -5.07788086 -0.38256836 C-3 -1 -3 -1 0 0 Z " fill="#0050A0" transform="translate(55,359)"/>
<path d="M0 0 C3.42118944 1.52140452 6.01466733 3.53360339 8.875 5.9375 C12.14379015 8.67107553 15.422929 11.34182372 18.83203125 13.8984375 C19.47221191 14.38320557 20.11239258 14.86797363 20.77197266 15.36743164 C22.03372186 16.31929163 23.30282701 17.26149022 24.57958984 18.19311523 C26.32421875 19.51953125 26.32421875 19.51953125 29 22 C29 23.32 29 24.64 29 26 C27.23266602 26.66772461 27.23266602 26.66772461 25 27 C23.15991211 25.95532227 23.15991211 25.95532227 21.27734375 24.31640625 C20.57859131 23.72166504 19.87983887 23.12692383 19.15991211 22.51416016 C18.42651611 21.8701123 17.69312012 21.22606445 16.9375 20.5625 C15.41872811 19.26711042 13.89789253 17.97413649 12.375 16.68359375 C11.6325 16.05179199 10.89 15.41999023 10.125 14.76904297 C5.92526838 11.272805 1.48500587 8.11916175 -3 5 C-1.125 1.125 -1.125 1.125 0 0 Z " fill="#0051A1" transform="translate(58,100)"/>
<path d="M0 0 C1.29925791 4.33085971 2.343621 8.51474352 3 13 C1.35 13 -0.3 13 -2 13 C-2.66 11.35 -3.32 9.7 -4 8 C-9.75982426 8.54337965 -14.95881084 9.75574395 -20.484375 11.4765625 C-23.09489213 12.01974464 -24.51325634 11.87152231 -27 11 C-26.67 9.35 -26.34 7.7 -26 6 C-22.41896026 4.9916593 -18.83482575 3.99478914 -15.25 3 C-14.23421875 2.71382812 -13.2184375 2.42765625 -12.171875 2.1328125 C-11.1921875 1.86210937 -10.2125 1.59140625 -9.203125 1.3125 C-8.30239258 1.06113281 -7.40166016 0.80976563 -6.47363281 0.55078125 C-4 0 -4 0 0 0 Z " fill="#0052A3" transform="translate(513,196)"/>
<path d="M0 0 C2.4375 0.375 2.4375 0.375 5 1 C5.33 1.66 5.66 2.32 6 3 C7.97888961 3.72693904 9.97954558 4.39816251 12 5 C11.67 6.65 11.34 8.3 11 10 C8.03 9.67 5.06 9.34 2 9 C-1.3 14.28 -4.6 19.56 -8 25 C-9.65 24.67 -11.3 24.34 -13 24 C-13 20.62856946 -12.40885632 19.67570464 -10.6640625 16.875 C-10.17679687 16.08609375 -9.68953125 15.2971875 -9.1875 14.484375 C-8.671875 13.66453125 -8.15625 12.8446875 -7.625 12 C-7.11710937 11.18015625 -6.60921875 10.3603125 -6.0859375 9.515625 C-4.09777377 6.313635 -2.090834 3.13625101 0 0 Z " fill="#0050A1" transform="translate(399,50)"/>
<path d="M0 0 C0.99 0.33 1.98 0.66 3 1 C3 2.32 3 3.64 3 5 C2.34 5 1.68 5 1 5 C-0.0572364 7.0870092 -0.0572364 7.0870092 0 10 C1.6528996 12.98141281 3.7876005 15.5508308 5.9375 18.1875 C7.07549889 19.61540252 8.20981386 21.04625136 9.33984375 22.48046875 C9.84894287 23.10848389 10.35804199 23.73649902 10.88256836 24.38354492 C12 26 12 26 12 28 C10.35 28.66 8.7 29.32 7 30 C4.53813967 26.80833918 2.0795118 23.61437279 -0.37109375 20.4140625 C-1.90627776 18.41164858 -3.45683736 16.43004936 -5.03515625 14.4609375 C-5.58042969 13.77257812 -6.12570313 13.08421875 -6.6875 12.375 C-7.16574219 11.78460938 -7.64398438 11.19421875 -8.13671875 10.5859375 C-8.42160156 10.06257813 -8.70648438 9.53921875 -9 9 C-7.73532205 5.20596616 -6.38302487 4.93315707 -3 3 C-1.24850835 1.41754725 -1.24850835 1.41754725 0 0 Z " fill="#0051A2" transform="translate(114,60)"/>
<path d="M0 0 C1.32 0 2.64 0 4 0 C4.66 2.31 5.32 4.62 6 7 C13.26 6.67 20.52 6.34 28 6 C28.33 7.65 28.66 9.3 29 11 C25.31281796 14.68718204 13.92531196 13.05405532 8.72314453 13.06811523 C5.81521848 13.06009385 2.90770397 13.03619549 0 13 C0 8.66666667 0 4.33333333 0 0 Z " fill="#0051A2" transform="translate(8,275)"/>
<path d="M0 0 C6.2682372 0.61428725 12.34622001 1.54032255 18.5 2.875 C19.71429688 3.11669922 19.71429688 3.11669922 20.953125 3.36328125 C22.99402226 3.80501908 25.00246858 4.39150829 27 5 C28 8 28 8 27 11 C21.10300014 10.35227461 15.4075129 9.31464049 9.625 8 C8.81933594 7.82210938 8.01367188 7.64421875 7.18359375 7.4609375 C1.26491261 6.13245631 1.26491261 6.13245631 -1 5 C-0.67 3.35 -0.34 1.7 0 0 Z " fill="#004FA0" transform="translate(490,317)"/>
<path d="M0 0 C1.2065625 0.0309375 1.2065625 0.0309375 2.4375 0.0625 C2.56623737 9.47463252 2.23572348 18.68337413 1.4375 28.0625 C-0.5425 28.0625 -2.5225 28.0625 -4.5625 28.0625 C-4.42439095 23.58305965 -4.27572584 19.10403217 -4.125 14.625 C-4.08568359 13.34560547 -4.04636719 12.06621094 -4.00585938 10.74804688 C-3.96396484 9.53310547 -3.92207031 8.31816406 -3.87890625 7.06640625 C-3.84224854 5.94049072 -3.80559082 4.8145752 -3.76782227 3.65454102 C-3.49372689 0.19429061 -3.47585764 0.08477702 0 0 Z " fill="#0051A1" transform="translate(280.5625,11.9375)"/>
<path d="M0 0 C6.36640684 0.84621917 12.51525455 3.04454848 18.5625 5.125 C19.38041016 5.40214844 20.19832031 5.67929688 21.04101562 5.96484375 C23.02876568 6.63905137 25.01459349 7.31892204 27 8 C26.34 9.65 25.68 11.3 25 13 C16.45923559 11.32234985 8.27435964 8.65997819 0 6 C-0.38218767 4.34385343 -0.71395102 2.67542976 -1 1 C-0.67 0.67 -0.34 0.34 0 0 Z " fill="#0050A0" transform="translate(20,191)"/>
<path d="M0 0 C1.01094544 3.39267194 2.00680051 6.78959455 3 10.1875 C3.28617188 11.14720703 3.57234375 12.10691406 3.8671875 13.09570312 C4.13789063 14.02705078 4.40859375 14.95839844 4.6875 15.91796875 C5.06455078 17.19837036 5.06455078 17.19837036 5.44921875 18.50463867 C6.01786865 21.08095545 6.09883894 23.37047227 6 26 C4.35 26.33 2.7 26.66 1 27 C-0.17322847 23.06442471 -1.33745371 19.12624273 -2.5 15.1875 C-2.83386719 14.06794922 -3.16773438 12.94839844 -3.51171875 11.79492188 C-3.82753906 10.72177734 -4.14335937 9.64863281 -4.46875 8.54296875 C-4.76201172 7.55321045 -5.05527344 6.56345215 -5.35742188 5.54370117 C-6 3 -6 3 -6 0 C-3.50907189 -1.24546405 -2.58919267 -0.7767578 0 0 Z " fill="#0050A2" transform="translate(201,21)"/>
<path d="M0 0 C0 1.65 0 3.3 0 5 C-3.91511815 5.53294568 -7.83225534 6.04924855 -11.75 6.5625 C-12.86117188 6.71396484 -13.97234375 6.86542969 -15.1171875 7.02148438 C-16.18710937 7.16005859 -17.25703125 7.29863281 -18.359375 7.44140625 C-19.34389648 7.57232666 -20.32841797 7.70324707 -21.34277344 7.83813477 C-23.85799021 7.99134946 -25.62146534 7.77228356 -28 7 C-28 5.35 -28 3.7 -28 2 C-18.61304896 0.66581407 -9.50904899 -0.32417212 0 0 Z " fill="#0051A2" transform="translate(522,240)"/>
<path d="M0 0 C2.31 0.33 4.62 0.66 7 1 C6.67 2.65 6.34 4.3 6 6 C3.69 5.67 1.38 5.34 -1 5 C-0.67 3.35 -0.34 1.7 0 0 Z " fill="#004F9D" transform="translate(521,324)"/>
<path d="M0 0 C2.97 0.495 2.97 0.495 6 1 C6.33 1.99 6.66 2.98 7 4 C6.01 5.485 6.01 5.485 5 7 C3.02 6.34 1.04 5.68 -1 5 C-0.67 3.35 -0.34 1.7 0 0 Z " fill="#0051A3" transform="translate(10,188)"/>
<path d="M0 0 C0.33 2.31 0.66 4.62 1 7 C-0.65 7.33 -2.3 7.66 -4 8 C-4.33 5.69 -4.66 3.38 -5 1 C-3 0 -3 0 0 0 Z " fill="#00509F" transform="translate(198,10)"/>
<path d="M0 0 C1.98 0 3.96 0 6 0 C6 1.98 6 3.96 6 6 C4.34385343 6.38218767 2.67542976 6.71395102 1 7 C0 6 0 6 -0.0625 2.9375 C-0.041875 1.968125 -0.02125 0.99875 0 0 Z " fill="#0052A4" transform="translate(278,2)"/>
<path d="M0 0 C0 1.98 0 3.96 0 6 C-1.98 6 -3.96 6 -6 6 C-6 4.35 -6 2.7 -6 1 C-3.92446352 0.4465236 -2.15634036 0 0 0 Z " fill="#0053A4" transform="translate(531,238)"/>
</svg>
