<?xml version="1.0" standalone="no"?>
<!DOCTYPE svg PUBLIC "-//W3C//DTD SVG 20010904//EN"
 "http://www.w3.org/TR/2001/REC-SVG-20010904/DTD/svg10.dtd">
<svg version="1.0" xmlns="http://www.w3.org/2000/svg"
 width="522.000000pt" height="460.000000pt" viewBox="0 0 522.000000 460.000000"
 preserveAspectRatio="xMidYMid meet">

<g transform="translate(0.000000,460.000000) scale(0.100000,-0.100000)"
fill="#000000" stroke="none">
<path d="M1487 3053 c-78 -41 -89 -156 -22 -218 53 -49 138 -43 187 12 51 59
42 142 -20 193 -41 34 -96 39 -145 13z"/>
<path d="M232 2998 c3 -33 4 -33 59 -36 100 -5 94 29 97 -518 2 -308 -1 -487
-8 -512 -7 -29 -21 -47 -50 -66 -50 -33 -53 -56 -7 -56 248 -3 841 1 845 5 10
10 21 111 21 208 l1 98 -32 -3 c-29 -3 -32 -7 -45 -58 -33 -129 -32 -127 -77
-136 -22 -4 -122 -8 -221 -8 l-180 -1 1 496 c0 578 -5 546 91 551 57 3 58 3
61 36 l3 32 -281 0 -281 0 3 -32z"/>
<path d="M1628 2654 c-4 -3 -21 -10 -40 -14 -138 -36 -197 -49 -225 -50 -22 0
-33 -5 -34 -15 -5 -51 -6 -50 45 -53 32 -2 54 -9 63 -20 9 -13 12 -87 13 -307
0 -159 -4 -296 -8 -303 -5 -7 -32 -15 -60 -19 -49 -5 -52 -7 -52 -34 0 -27 2
-28 53 -31 28 -2 132 -2 230 0 l177 3 0 28 c0 26 -3 29 -51 34 -29 4 -54 9
-58 13 -3 3 -8 177 -11 387 -4 334 -7 382 -20 385 -9 1 -19 0 -22 -4z"/>
<path d="M2215 2652 c-15 -13 -189 -62 -221 -62 -58 0 -74 -10 -74 -45 0 -34
16 -45 69 -45 48 0 50 -15 51 -316 0 -205 -3 -283 -12 -292 -7 -7 -33 -12 -59
-12 -44 0 -47 -2 -51 -28 -2 -16 -3 -33 -1 -38 2 -5 102 -9 231 -9 l227 1 0
34 c0 35 0 35 -49 37 -27 1 -51 4 -53 7 -15 14 -21 100 -22 280 -1 253 4 271
83 315 66 38 164 20 204 -37 33 -45 42 -132 42 -391 l0 -246 165 3 165 3 0 28
c0 26 -3 29 -45 33 -78 9 -75 -2 -75 295 0 277 -7 333 -48 395 -40 61 -122 98
-218 98 -68 0 -105 -17 -188 -85 -59 -48 -71 -54 -78 -40 -5 9 -8 30 -7 48 5
72 -7 94 -36 69z"/>
<path d="M3279 2641 c-50 -20 -176 -49 -224 -53 -26 -3 -30 -7 -33 -35 l-3
-33 50 0 c67 0 74 -14 72 -149 0 -58 3 -179 8 -267 8 -158 9 -162 39 -205 38
-55 57 -71 110 -92 55 -22 162 -22 205 0 27 13 67 48 153 131 23 22 27 13 21
-58 l-6 -70 82 -1 c45 0 116 0 157 -1 114 0 110 -2 110 31 0 32 -12 39 -68 39
-62 1 -61 -2 -62 410 0 361 -1 372 -19 372 -11 0 -22 -4 -25 -9 -3 -5 -18 -11
-33 -14 -16 -3 -55 -13 -88 -22 -33 -9 -85 -19 -115 -23 -53 -7 -55 -8 -58
-39 l-3 -33 50 0 c79 0 81 -7 81 -242 0 -189 -1 -199 -23 -239 -61 -109 -230
-121 -275 -21 -14 31 -18 85 -22 337 -6 336 0 317 -81 286z"/>
<path d="M4325 2650 c-11 -4 -58 -16 -105 -25 -113 -23 -110 -22 -110 -42 0
-28 12 -37 64 -51 53 -14 83 -41 113 -103 10 -22 21 -39 26 -39 4 0 7 -4 7
-10 0 -5 16 -34 35 -64 19 -30 35 -58 35 -61 0 -4 9 -20 21 -36 14 -20 18 -34
11 -42 -5 -7 -42 -55 -83 -107 -41 -52 -81 -104 -89 -115 -31 -40 -66 -68
-100 -79 -27 -8 -36 -17 -38 -38 -3 -26 -2 -26 62 -30 36 -1 74 -1 84 2 11 3
50 50 87 105 37 55 71 102 74 105 4 3 16 20 26 38 18 29 55 45 55 23 0 -5 32
-61 70 -125 39 -64 70 -119 70 -122 0 -11 26 -29 40 -28 8 1 70 2 138 3 l122
1 0 25 c0 19 -10 29 -39 45 -22 11 -50 34 -62 52 -13 18 -27 35 -31 36 -4 2
-8 8 -8 13 0 5 -16 33 -35 63 -19 30 -35 58 -35 61 0 4 -8 19 -19 33 -10 15
-32 53 -50 85 -33 59 -32 73 1 109 7 7 38 42 68 78 118 139 143 160 190 160
16 0 20 6 20 35 l0 35 -84 0 c-84 0 -85 0 -108 -32 -12 -18 -30 -42 -40 -52
-10 -11 -18 -23 -18 -27 0 -4 -6 -14 -13 -21 -7 -7 -32 -41 -56 -76 -37 -54
-44 -61 -57 -48 -7 8 -14 18 -14 21 0 16 -152 235 -170 245 -22 12 -28 12 -55
0z"/>
</g>
</svg>
