<svg version="1.1" id="Layer_1" xmlns="http://www.w3.org/2000/svg" xmlns:xlink="http://www.w3.org/1999/xlink" x="0px" y="0px"
	 width="100%" viewBox="0 0 546 457" enable-background="new 0 0 546 457" xml:space="preserve">
<path fill="#010101" opacity="1.000000" stroke="none" 
	d="
M279.000000,458.000000 
	C186.000015,458.000000 93.500046,458.000000 1.000050,458.000000 
	C1.000033,305.666718 1.000033,153.333450 1.000017,1.000131 
	C182.999893,1.000088 364.999786,1.000088 546.999756,1.000044 
	C546.999878,153.333191 546.999878,305.666382 546.999939,457.999786 
	C457.833344,458.000000 368.666656,458.000000 279.000000,458.000000 
M323.251587,200.549850 
	C323.820068,200.421234 324.388580,200.292618 325.494904,200.449539 
	C326.624817,200.161179 327.754700,199.872818 329.590668,199.663849 
	C330.032532,199.515518 330.474396,199.367188 331.586121,199.400925 
	C332.356964,199.150742 333.127808,198.900558 334.607178,198.643387 
	C335.043976,198.476440 335.480804,198.309494 336.584106,198.376740 
	C337.353973,198.129425 338.123810,197.882126 339.595795,197.637512 
	C341.387756,197.128189 343.179718,196.618881 345.459595,196.347244 
	C346.161469,196.001083 346.863342,195.654922 348.059998,195.415024 
	C348.368530,195.295654 348.677063,195.176285 349.424835,195.303619 
	C349.897278,195.021713 350.369720,194.739807 351.567505,194.506485 
	C352.684540,194.096741 353.801605,193.686996 355.495422,193.426376 
	C355.963989,193.163696 356.432526,192.901001 357.627716,192.598938 
	C362.271088,190.817062 367.028381,189.280334 371.527985,187.189133 
	C376.743927,184.764999 377.009796,180.332535 371.943756,177.276978 
	C365.549164,173.420074 358.885315,169.972656 352.157745,166.720749 
	C348.947571,165.169037 345.372253,163.798691 341.873993,163.539841 
	C335.149841,163.042236 328.362793,163.394913 321.531097,163.394913 
	C319.402618,148.060715 317.487122,133.569366 315.332947,119.113609 
	C314.569977,113.993958 312.040680,109.883713 307.134247,107.424446 
	C296.847565,102.268433 283.697113,105.575462 276.996643,115.149185 
	C274.194244,119.153290 269.825836,119.684525 267.780304,115.568588 
	C261.902496,103.741379 251.366837,105.099480 241.369812,106.039543 
	C235.683456,106.574257 231.330811,110.560143 229.896927,116.466034 
	C228.847855,120.786934 228.454773,125.268898 227.802429,129.683960 
	C226.181870,140.651764 224.580292,151.622391 222.932922,162.852081 
	C219.667374,162.852081 216.722122,162.990982 213.793945,162.826416 
	C204.464783,162.302109 195.630142,163.837418 187.471893,168.622894 
	C182.613007,171.473038 177.570419,174.030090 172.857529,177.098450 
	C171.135696,178.219452 169.031082,180.481888 169.098450,182.142578 
	C169.167892,183.854706 171.355392,186.318314 173.158554,186.983917 
	C183.254425,190.710663 193.404877,194.381317 203.754364,197.298981 
	C211.475754,199.475723 219.526749,200.483185 227.519730,202.028534 
	C227.519730,205.191437 227.519730,208.241241 227.519730,211.673126 
	C216.770584,211.673126 206.314514,211.514435 195.871872,211.818039 
	C193.970764,211.873306 191.665894,213.458969 190.437698,215.032883 
	C189.778870,215.877182 190.602402,218.467850 191.471695,219.806320 
	C194.276810,224.125366 197.446533,228.205795 200.415253,232.420822 
	C206.109894,240.506134 211.762955,248.620712 217.558334,256.901886 
	C181.025528,264.594208 167.258041,296.221863 172.071915,321.296387 
	C174.816360,321.296387 177.560822,321.296387 180.708176,321.296387 
	C180.708176,317.160492 180.609833,313.351074 180.724564,309.548065 
	C181.347168,288.909607 195.496185,271.317841 215.807526,267.328796 
	C223.793243,265.760406 232.228683,266.581818 240.439560,266.024017 
	C245.736343,265.664215 250.148102,265.888916 251.773056,272.336060 
	C252.430801,274.945740 254.427231,277.248749 255.948410,279.604889 
	C263.924011,291.958252 270.059814,304.824890 267.633179,320.173615 
	C267.590485,320.443756 267.857788,320.762848 268.074951,321.287415 
	C270.873260,321.287415 273.746918,321.287415 277.031555,321.287415 
	C277.031555,318.311310 276.876282,315.669922 277.064697,313.053284 
	C277.429199,307.990875 276.836334,302.457397 278.716827,297.994080 
	C282.110718,289.938934 287.405151,282.706055 291.197601,274.790436 
	C294.265259,268.387634 297.430756,263.472900 305.618073,266.496826 
	C306.160431,266.697174 306.916748,266.220917 307.570770,266.231476 
	C313.846893,266.332581 320.226654,265.786255 326.379150,266.723022 
	C347.144531,269.884918 363.848541,287.885834 363.733246,310.970581 
	C363.716034,314.420441 363.730865,317.870422 363.730865,321.371674 
	C367.104431,321.371674 369.877899,321.371674 373.029724,321.371674 
	C373.740570,307.347351 372.515045,294.337219 364.614319,282.168671 
	C355.836609,268.649445 344.117218,260.451965 327.826691,257.227966 
	C327.796204,256.483887 327.765717,255.739792 328.216095,254.495575 
	C329.492188,252.694916 330.768280,250.894257 332.592468,248.896805 
	C332.904144,248.218124 333.215851,247.539444 334.104706,246.482880 
	C335.757172,244.031433 337.409607,241.579987 339.617188,238.927719 
	C339.954956,238.245621 340.292755,237.563522 341.166443,236.511200 
	C341.390930,236.144333 341.615417,235.777481 342.376007,235.322006 
	C342.758270,234.522675 343.140533,233.723358 343.944916,232.625244 
	C343.982544,232.457001 344.020142,232.288757 344.677155,231.977783 
	C344.986572,231.277451 345.296021,230.577103 346.163879,229.469406 
	C348.419067,226.185944 350.674255,222.902481 353.529449,219.345367 
	C353.322327,217.313293 353.115173,215.281235 352.619049,212.728302 
	C352.063904,212.553772 351.508759,212.379242 350.301361,211.713074 
	C340.840759,211.671051 331.378815,211.700958 321.920715,211.525162 
	C320.069336,211.490753 318.232788,210.659286 316.627686,209.309738 
	C316.562317,207.483047 316.496948,205.656357 317.222107,203.589127 
	C319.039734,202.532349 320.857361,201.475555 323.251587,200.549850 
M263.501038,395.602631 
	C250.840637,395.614410 238.179276,395.557312 225.521179,395.733734 
	C224.096436,395.753571 222.690079,397.093048 221.275208,397.820526 
	C222.685883,398.703400 224.078461,400.312012 225.510284,400.347748 
	C233.068939,400.536469 240.637360,400.304077 248.202652,400.263214 
	C271.639984,400.136597 295.077759,400.066803 318.513885,399.826935 
	C319.921600,399.812500 321.316040,398.504669 322.716675,397.798737 
	C321.300140,397.070038 319.888763,395.718903 318.466278,395.707153 
	C300.478821,395.558350 282.489807,395.602386 263.501038,395.602631 
M292.616211,308.868011 
	C289.870209,309.563721 287.334534,310.767181 287.752106,314.070068 
	C288.188324,317.520966 290.906433,318.345123 294.024231,318.297821 
	C297.667999,318.242523 301.313416,318.259460 304.957764,318.288727 
	C308.165771,318.314514 310.573364,317.245392 310.530609,313.626678 
	C310.488129,310.031250 307.951111,308.942566 304.841797,308.863434 
	C301.037323,308.766632 297.229828,308.787842 292.616211,308.868011 
M230.530960,362.550629 
	C230.845520,364.637177 231.160095,366.723694 231.649353,369.969055 
	C236.469254,368.904877 241.430969,368.573547 245.436691,366.444000 
	C246.589111,365.831360 246.136719,358.027100 244.404282,357.032959 
	C240.840714,354.988037 235.916794,355.313690 231.405792,354.641876 
	C231.222519,357.927399 231.112610,359.897644 230.530960,362.550629 
M370.242126,355.125946 
	C367.817505,355.125946 365.392914,355.125946 362.712830,355.125946 
	C362.712830,360.006775 362.712830,364.239716 362.712830,369.922943 
	C365.240601,368.377411 367.056396,367.267212 369.180420,365.968567 
	C371.116821,366.941681 373.743164,368.261536 376.296356,369.544617 
	C376.478668,366.309265 376.393738,364.196198 376.753723,362.161804 
	C377.572510,357.534821 376.269043,355.800781 370.242126,355.125946 
M294.355133,369.015839 
	C296.560089,368.013214 299.886383,367.564728 300.717499,365.883087 
	C302.098480,363.088806 298.498932,359.753906 300.255890,356.404358 
	C299.422516,355.988678 298.620575,355.320068 297.749023,355.211853 
	C296.112488,355.008698 294.314484,354.740143 292.805115,355.210114 
	C290.727081,355.857208 288.174469,356.725586 287.131531,358.342010 
	C286.428925,359.431061 287.982788,361.975952 288.440247,363.567139 
	C287.926422,364.693146 286.679382,366.154724 286.967224,367.189209 
	C287.206177,368.047974 289.208710,368.551880 290.511871,368.932617 
	C291.432129,369.201416 292.489441,369.001221 294.355133,369.015839 
M282.779327,359.772430 
	C281.242035,354.720734 277.953339,353.792847 268.520203,355.866058 
	C268.520203,360.075867 268.520203,364.337402 268.520203,370.098602 
	C271.193542,368.391693 273.035248,367.215759 274.925964,366.008545 
	C277.015869,367.052521 279.541260,368.314056 281.923492,369.504089 
	C282.272430,365.767883 282.513519,363.186523 282.779327,359.772430 
M305.352600,366.160461 
	C306.301422,367.108643 307.141357,368.690521 308.221161,368.876007 
	C310.632660,369.290283 313.176147,369.155182 315.641113,368.948792 
	C316.913086,368.842285 318.132233,368.104675 319.375214,367.652191 
	C318.390900,366.526398 317.406616,365.400635 316.560028,364.432404 
	C319.726776,358.149963 312.823883,361.256042 310.565399,358.936249 
	C313.196838,358.936249 315.114960,359.111450 316.974823,358.858521 
	C317.838196,358.741150 318.588318,357.791229 319.389771,357.218689 
	C318.700806,356.521271 318.040955,355.258057 317.317993,355.220795 
	C313.438690,355.020966 309.543701,355.126404 305.350281,355.126404 
	C305.350281,358.989227 305.350281,362.112457 305.352600,366.160461 
M262.306763,361.666870 
	C260.347412,360.895813 258.388092,360.124756 255.364105,358.934723 
	C258.271118,358.934723 260.098053,359.116119 261.860931,358.858734 
	C262.751526,358.728760 263.526123,357.804657 264.353149,357.239594 
	C263.499634,356.534454 262.681946,355.279236 261.786255,355.220886 
	C258.196472,354.987000 254.582504,355.124207 250.748291,355.124207 
	C250.748291,359.955078 250.748291,364.335022 250.748291,368.993774 
	C254.697662,368.993774 258.337799,369.096069 261.963989,368.916595 
	C262.794891,368.875458 263.577789,367.864349 264.382782,367.299591 
	C263.680298,366.610168 263.061615,365.786346 262.246277,365.277832 
	C261.687988,364.929504 260.855835,365.020172 260.151794,364.915436 
	C261.013092,363.950226 261.698486,363.182129 262.306763,361.666870 
M390.483429,357.057800 
	C390.483429,360.939392 390.483429,364.820953 390.483429,368.881348 
	C394.402618,368.881348 397.757904,369.573639 400.595184,368.658997 
	C402.804535,367.946808 405.835052,365.258301 405.865692,363.404541 
	C405.908234,360.826569 404.004913,356.609558 402.006683,355.963379 
	C398.601654,354.862335 394.474640,355.993958 390.483429,357.057800 
M438.249664,368.962311 
	C443.227509,368.694244 444.653687,365.520416 444.416809,361.193451 
	C444.178833,356.846130 441.289917,355.310272 437.398224,355.168030 
	C434.664429,355.068085 431.923981,355.148682 428.914001,355.148682 
	C428.914001,360.109528 428.914001,364.309235 428.914001,368.985870 
	C431.970154,368.985870 434.701080,368.985870 438.249664,368.962311 
M328.995789,359.656921 
	C331.089447,359.627106 333.207092,359.773895 335.266693,359.493591 
	C336.310059,359.351624 337.248535,358.438629 338.234467,357.874207 
	C337.438354,356.996307 336.775513,355.600281 335.817017,355.353760 
	C334.090973,354.909912 332.185699,355.076843 330.359070,355.126587 
	C325.045959,355.271210 323.082275,357.246490 323.053345,362.357727 
	C323.026855,367.039398 324.989319,368.871429 330.283020,368.998779 
	C332.897797,369.061707 335.515350,369.009674 338.330414,369.009674 
	C338.330414,366.225525 338.330414,364.134918 338.330414,361.257538 
	C336.621124,361.741699 334.062408,361.982758 333.979919,362.570953 
	C333.551605,365.626129 331.498779,365.913696 329.799194,364.769379 
	C328.707428,364.034332 328.712219,361.670624 328.995789,359.656921 
M344.656494,355.143555 
	C342.422058,356.761536 341.466797,362.930634 342.997345,365.858673 
	C344.508270,368.749237 350.728729,370.195038 354.705658,368.579956 
	C357.611328,367.399933 359.872559,360.930511 358.262939,356.875732 
	C357.823792,355.769562 355.407532,355.448303 353.232086,354.465790 
	C353.232086,357.250000 353.260468,358.728668 353.225464,360.205841 
	C353.172577,362.439301 353.827057,365.557037 350.226379,364.962646 
	C349.090240,364.775116 348.318787,361.942047 347.523132,360.252502 
	C346.743561,358.597046 346.145691,356.855957 344.656494,355.143555 
M126.240768,355.135406 
	C125.919632,355.795380 125.145691,356.744080 125.352043,357.067688 
	C126.545868,358.939697 127.970909,360.664246 129.275970,362.383789 
	C127.555786,364.476044 126.031349,366.330261 124.506912,368.184448 
	C124.809303,368.658142 125.111702,369.131805 125.414101,369.605499 
	C127.891869,368.610718 130.369629,367.615936 132.049042,366.941681 
	C134.566635,367.803528 136.889465,368.598663 139.212296,369.393829 
	C139.431061,368.928253 139.649826,368.462646 139.868591,367.997070 
	C138.407639,366.086517 136.946686,364.175964 135.435501,362.199707 
	C137.112808,359.900208 138.644363,357.800568 140.175903,355.700928 
	C139.969559,355.316925 139.763229,354.932922 139.556885,354.548889 
	C137.069000,355.493561 134.581116,356.438232 132.102737,357.379303 
	C130.674850,356.748260 128.805557,355.922150 126.240768,355.135406 
M421.183105,359.170227 
	C419.039825,354.928894 416.065460,353.504578 414.477203,356.122589 
	C412.166199,359.931885 410.561218,364.169495 408.655182,368.224487 
	C408.981262,368.776886 409.307312,369.329285 409.633392,369.881683 
	C414.592896,364.309143 420.017548,368.489563 425.754059,369.064423 
	C423.991028,365.194244 422.768311,362.510132 421.183105,359.170227 
M206.968918,356.111664 
	C203.768051,359.673340 202.664154,365.436859 205.661652,366.890137 
	C209.076172,368.545624 213.465317,368.232269 217.447922,368.578613 
	C217.704346,368.600922 218.369476,366.932098 218.338379,366.068146 
	C218.321106,365.588013 217.274979,364.790588 216.659393,364.757782 
	C215.241074,364.682098 213.638885,365.444824 212.417465,365.009125 
	C211.160080,364.560608 209.740280,363.236328 209.410553,362.019196 
	C209.213821,361.293030 210.821259,359.780548 211.917068,359.113220 
	C212.575989,358.711975 213.880478,359.533508 214.769791,359.309357 
	C216.069473,358.981689 217.256836,358.208405 218.492065,357.625061 
	C217.330811,356.790222 216.228867,355.369781 214.995728,355.244934 
	C212.577667,355.000092 210.086533,355.476959 206.968918,356.111664 
M164.176025,361.469177 
	C163.126480,363.765320 162.076935,366.061462 161.027390,368.357574 
	C161.239426,368.813690 161.451477,369.269806 161.663513,369.725891 
	C166.833450,365.868683 172.114700,366.813934 177.569885,368.844360 
	C175.960663,364.249725 174.437927,360.244812 172.225906,356.665924 
	C170.699020,354.195465 168.203644,354.049286 166.368500,356.781494 
	C165.553146,357.995453 165.047684,359.417572 164.176025,361.469177 
M98.484711,360.624329 
	C98.484711,363.248199 98.484711,365.872070 98.484711,368.766998 
	C100.276627,368.912079 101.655701,369.023712 103.205452,369.149170 
	C103.455490,367.145447 103.647766,365.604584 103.704590,365.149200 
	C106.499245,363.965210 108.486824,363.123138 110.474403,362.281036 
	C108.437645,361.238983 106.400887,360.196899 103.901901,358.918335 
	C106.183266,358.918335 108.166138,359.100433 110.086395,358.833038 
	C110.910187,358.718323 111.603874,357.669312 112.356689,357.044800 
	C111.615746,356.410614 110.901787,355.269836 110.129250,355.228668 
	C106.488792,355.034790 102.832275,355.142303 98.776230,355.142303 
	C98.668579,356.831268 98.576462,358.276550 98.484711,360.624329 
M183.380295,366.964081 
	C184.815613,367.759979 186.250931,368.555878 188.530655,369.819977 
	C188.530655,365.298981 188.530655,362.364990 188.530655,359.169434 
	C189.948563,359.047760 191.371933,359.328339 192.117966,358.744019 
	C192.810608,358.201569 192.780365,356.736084 193.068405,355.677002 
	C188.235458,355.765656 183.401993,355.841766 178.573669,356.041809 
	C178.486038,356.045410 178.459686,357.528198 178.390137,358.531311 
	C180.125778,358.819489 181.678772,359.077301 183.370224,359.358124 
	C183.370224,361.790588 183.370224,363.935394 183.380295,366.964081 
M143.699020,368.164642 
	C148.182556,368.543701 152.666077,368.922760 158.388992,369.406586 
	C156.356216,363.020660 151.317245,366.657837 148.423401,364.233398 
	C148.423401,361.571869 148.423401,358.511139 148.423401,355.320801 
	C146.656418,355.320801 145.365829,355.320801 143.545502,355.320801 
	C143.545502,359.447968 143.545502,363.390717 143.699020,368.164642 
M319.443542,317.246643 
	C321.852539,317.513916 324.351929,318.314423 326.649628,317.924957 
	C330.196930,317.323700 331.785706,312.522278 328.967804,310.787994 
	C326.701569,309.393219 322.967834,309.014709 320.405823,309.827026 
	C317.433014,310.769562 316.660828,313.821289 319.443542,317.246643 
M381.359619,366.089783 
	C381.325623,370.678009 384.073456,368.752045 386.178192,368.619873 
	C386.178192,363.928375 386.178192,359.689301 386.178192,355.103882 
	C384.455200,355.223328 383.059235,355.320099 381.351410,355.438507 
	C381.351410,358.921387 381.351410,362.052124 381.359619,366.089783 
M116.313919,363.380951 
	C116.313919,365.149445 116.313919,366.917908 116.313919,369.036774 
	C118.305656,368.904358 119.709572,368.811005 121.207802,368.711395 
	C121.207802,364.100372 121.207802,359.840393 121.207802,355.364807 
	C119.571724,355.364807 118.164162,355.364807 116.312302,355.364807 
	C116.312302,357.894623 116.312302,360.183746 116.313919,363.380951 
M222.206177,363.397705 
	C222.206177,365.172821 222.206177,366.947906 222.206177,369.069977 
	C224.223022,368.917267 225.627579,368.810913 226.992767,368.707550 
	C226.992767,365.390259 226.491058,362.325897 227.106552,359.505371 
	C228.110443,354.905060 225.970215,354.780487 222.205048,355.473175 
	C222.205048,357.875000 222.205048,360.180237 222.206177,363.397705 
z"/>
<path fill="#F2F2F2" opacity="1.000000" stroke="none" 
	d="
M328.341370,257.824738 
	C344.117218,260.451965 355.836609,268.649445 364.614319,282.168671 
	C372.515045,294.337219 373.740570,307.347351 373.029724,321.371674 
	C369.877899,321.371674 367.104431,321.371674 363.730865,321.371674 
	C363.730865,317.870422 363.716034,314.420441 363.733246,310.970581 
	C363.848541,287.885834 347.144531,269.884918 326.379150,266.723022 
	C320.226654,265.786255 313.846893,266.332581 307.570770,266.231476 
	C306.916748,266.220917 306.160431,266.697174 305.618073,266.496826 
	C297.430756,263.472900 294.265259,268.387634 291.197601,274.790436 
	C287.405151,282.706055 282.110718,289.938934 278.716827,297.994080 
	C276.836334,302.457397 277.429199,307.990875 277.064697,313.053284 
	C276.876282,315.669922 277.031555,318.311310 277.031555,321.287415 
	C273.746918,321.287415 270.873260,321.287415 268.074951,321.287415 
	C267.857788,320.762848 267.590485,320.443756 267.633179,320.173615 
	C270.059814,304.824890 263.924011,291.958252 255.948410,279.604889 
	C254.427231,277.248749 252.430801,274.945740 251.773056,272.336060 
	C250.148102,265.888916 245.736343,265.664215 240.439560,266.024017 
	C232.228683,266.581818 223.793243,265.760406 215.807526,267.328796 
	C195.496185,271.317841 181.347168,288.909607 180.724564,309.548065 
	C180.609833,313.351074 180.708176,317.160492 180.708176,321.296387 
	C177.560822,321.296387 174.816360,321.296387 172.068237,321.298401 
	C167.258041,296.221863 181.025528,264.594208 217.558334,256.901886 
	C211.762955,248.620712 206.109894,240.506134 200.415253,232.420822 
	C197.446533,228.205795 194.276810,224.125366 191.471695,219.806320 
	C190.602402,218.467850 189.778870,215.877182 190.437698,215.032883 
	C191.665894,213.458969 193.970764,211.873306 195.871872,211.818039 
	C206.314514,211.514435 216.770584,211.673126 227.519730,211.673126 
	C227.519730,208.241241 227.519730,205.191437 227.519730,202.028534 
	C219.526749,200.483185 211.475754,199.475723 203.754364,197.298981 
	C193.404877,194.381317 183.254425,190.710663 173.158554,186.983917 
	C171.355392,186.318314 169.167892,183.854706 169.098450,182.142578 
	C169.031082,180.481888 171.135696,178.219452 172.857529,177.098450 
	C177.570419,174.030090 182.613007,171.473038 187.471893,168.622894 
	C195.630142,163.837418 204.464783,162.302109 213.793945,162.826416 
	C216.722122,162.990982 219.667374,162.852081 222.932922,162.852081 
	C224.580292,151.622391 226.181870,140.651764 227.802429,129.683960 
	C228.454773,125.268898 228.847855,120.786934 229.896927,116.466034 
	C231.330811,110.560143 235.683456,106.574257 241.369812,106.039543 
	C251.366837,105.099480 261.902496,103.741379 267.780304,115.568588 
	C269.825836,119.684525 274.194244,119.153290 276.996643,115.149185 
	C283.697113,105.575462 296.847565,102.268433 307.134247,107.424446 
	C312.040680,109.883713 314.569977,113.993958 315.332947,119.113609 
	C317.487122,133.569366 319.402618,148.060715 321.531097,163.394913 
	C328.362793,163.394913 335.149841,163.042236 341.873993,163.539841 
	C345.372253,163.798691 348.947571,165.169037 352.157745,166.720749 
	C358.885315,169.972656 365.549164,173.420074 371.943756,177.276978 
	C377.009796,180.332535 376.743927,184.764999 371.527985,187.189133 
	C367.028381,189.280334 362.271088,190.817062 357.127136,192.435349 
	C356.057251,192.606918 355.487946,192.942093 354.918640,193.277252 
	C353.801605,193.686996 352.684540,194.096741 351.019836,194.320755 
	C349.976654,194.442322 349.481110,194.749603 348.985596,195.056915 
	C348.677063,195.176285 348.368530,195.295654 347.452271,195.268250 
	C346.220245,195.450821 345.595947,195.780182 344.971680,196.109558 
	C343.179718,196.618881 341.387756,197.128189 339.077850,197.432190 
	C337.679138,197.532104 336.798370,197.837341 335.917603,198.142548 
	C335.480804,198.309494 335.043976,198.476440 334.082977,198.439804 
	C332.677948,198.563766 331.797089,198.891312 330.916260,199.218872 
	C330.474396,199.367188 330.032532,199.515518 328.989532,199.415009 
	C327.244629,199.498779 326.100830,199.831390 324.957062,200.164001 
	C324.388580,200.292618 323.820068,200.421234 322.562317,200.340820 
	C319.817230,201.008362 315.644165,198.769318 316.431580,203.829666 
	C316.496948,205.656357 316.562317,207.483047 316.343811,210.048737 
	C317.334076,211.506195 318.544495,212.643387 319.896637,212.848984 
	C322.159454,213.193069 324.514160,212.996231 326.827606,212.932709 
	C334.870209,212.711929 342.911713,212.450623 350.953613,212.204712 
	C351.508759,212.379242 352.063904,212.553772 352.749573,213.317474 
	C352.896576,215.810791 352.913025,217.714905 352.929474,219.619034 
	C350.674255,222.902481 348.419067,226.185944 345.583527,229.745590 
	C344.688049,230.721359 344.372894,231.420944 344.057770,232.120529 
	C344.020142,232.288757 343.982544,232.457001 343.457153,232.819763 
	C342.592865,233.813065 342.216370,234.611847 341.839905,235.410614 
	C341.615417,235.777481 341.390930,236.144333 340.593994,236.764771 
	C339.701721,237.721741 339.381897,238.425140 339.062042,239.128525 
	C337.409607,241.579987 335.757172,244.031433 333.520874,246.745728 
	C332.639496,247.703598 332.341919,248.398590 332.044373,249.093597 
	C330.768280,250.894257 329.492188,252.694916 327.669922,254.870743 
	C325.956940,256.848053 325.445282,258.140869 328.341370,257.824738 
M273.199280,288.294495 
	C277.145935,281.087616 281.092590,273.880768 285.189545,266.399414 
	C276.343811,266.399414 268.158264,266.399414 259.383484,266.399414 
	C263.509399,274.068939 267.255585,281.032562 270.963531,288.637207 
	C271.636261,288.740692 272.308990,288.844208 273.199280,288.294495 
M255.639053,232.836365 
	C255.621643,234.913361 255.604233,236.990341 255.124771,239.734818 
	C255.296265,244.803360 255.467743,249.871902 255.947784,255.855209 
	C266.821320,255.976807 277.694855,256.098419 289.223724,255.835449 
	C289.384369,248.066101 289.601929,240.296860 289.618622,232.527206 
	C289.620331,231.739548 288.411743,230.949280 287.041260,229.965012 
	C286.084351,229.682053 285.127472,229.399094 283.993256,228.696457 
	C283.350220,228.644791 282.707153,228.593124 281.333130,228.533142 
	C280.613525,228.437286 279.893951,228.341431 278.713867,227.665222 
	C274.081299,227.866760 269.448730,228.068283 264.020050,228.446106 
	C261.658020,228.951157 259.296021,229.456207 256.355408,229.898300 
	C256.118225,230.580826 255.881027,231.263351 255.639053,232.836365 
M211.397018,220.317230 
	C208.737305,220.317230 206.077576,220.317230 203.417862,220.317230 
	C202.812485,221.111252 202.207092,221.905289 201.601715,222.699310 
	C202.970718,223.176071 204.339737,223.652817 206.209808,224.573822 
	C212.953201,234.143143 219.643982,243.750504 226.502228,253.236771 
	C227.427139,254.516083 229.194412,255.186401 230.503387,256.087219 
	C230.503387,256.087219 230.436310,256.140228 231.359741,256.397278 
	C232.951279,256.468811 234.542831,256.540375 236.375565,256.966003 
	C236.875320,256.848083 237.375076,256.730164 238.823318,256.478424 
	C241.253586,256.478424 243.683868,256.478424 246.489014,256.478424 
	C246.489014,244.855362 246.518402,233.899963 246.423462,222.945648 
	C246.417053,222.208633 245.471619,221.479736 244.380035,220.266373 
	C241.927032,220.457901 239.474045,220.649429 236.212204,220.822464 
	C235.133591,220.833282 234.054977,220.844101 232.423325,220.334915 
	C229.956375,220.495193 227.489410,220.655472 224.344315,220.925949 
	C223.887909,220.900269 223.431488,220.874603 222.516968,220.342438 
	C221.017975,220.511322 219.518997,220.680222 217.159485,220.933273 
	C215.431137,220.905289 213.702789,220.877304 211.397018,220.317230 
M269.497284,195.128174 
	C306.596893,195.452362 350.286652,188.193344 359.338959,180.993347 
	C352.199066,176.700546 345.459015,172.124832 336.551086,172.155792 
	C294.439728,172.302216 252.326263,172.380295 210.216553,172.071747 
	C200.239136,171.998642 192.468399,176.318802 183.958817,181.649734 
	C211.718628,191.939529 239.991577,194.241608 269.497284,195.128174 
M266.331604,126.384048 
	C263.710541,123.750809 260.801117,121.341408 258.540253,118.428589 
	C255.609222,114.652328 243.332382,113.221291 240.177979,116.688721 
	C239.646393,117.273064 239.198914,118.093430 239.073822,118.863426 
	C237.780579,126.823563 236.561539,134.795746 235.305115,142.872375 
	C260.149567,142.872375 284.476776,142.872375 309.112885,142.872375 
	C308.028351,135.341568 307.043060,127.837311 305.792877,120.377434 
	C305.542725,118.884850 304.599304,117.166679 303.431854,116.230751 
	C299.147491,112.796127 288.292542,114.920952 285.312134,119.564987 
	C280.615692,126.882919 275.713989,128.789230 266.331604,126.384048 
M318.488678,221.006042 
	C311.797699,221.006042 305.106689,221.006042 298.221313,221.006042 
	C298.221313,233.081711 298.221313,244.566376 298.221313,256.454742 
	C302.920807,256.454742 307.224304,256.308380 311.511993,256.505798 
	C314.407501,256.639130 316.473938,256.047180 318.110626,253.327805 
	C320.433105,249.469055 323.276398,245.924911 325.876740,242.231979 
	C330.508057,235.654633 335.124146,229.066559 339.746582,222.482971 
	C339.574921,221.986450 339.403229,221.489944 339.231567,220.993423 
	C332.651093,220.993423 326.070618,220.993423 318.488678,221.006042 
M306.303162,162.800308 
	C308.104736,162.800308 309.906281,162.800308 312.162994,162.800308 
	C311.561401,159.063629 311.043854,155.849106 310.530792,152.662384 
	C284.700684,152.662384 259.363037,152.662384 233.865479,152.662384 
	C233.393036,156.061676 232.963043,159.155472 232.456528,162.799881 
	C256.900787,162.799881 281.125305,162.799881 306.303162,162.800308 
M261.136871,219.691513 
	C270.194305,219.691513 279.251709,219.691513 288.384338,219.691513 
	C289.538849,211.748016 289.538849,211.750290 298.337952,211.774887 
	C301.255890,211.783051 304.173889,211.776184 307.128754,211.776184 
	C307.128754,208.424774 307.128754,205.690491 307.128754,203.566986 
	C283.700195,203.566986 260.585724,203.566986 237.548645,203.566986 
	C237.548645,206.210236 237.548645,208.907501 237.548645,211.758179 
	C240.769485,211.758179 243.582489,211.776993 246.395157,211.754639 
	C254.564560,211.689682 255.277771,212.295074 256.388733,220.555389 
	C257.664032,220.312119 258.936554,220.069382 261.136871,219.691513 
z"/>
<path fill="#E0E0E0" opacity="1.000000" stroke="none" 
	d="
M264.001099,395.599945 
	C282.489807,395.602386 300.478821,395.558350 318.466278,395.707153 
	C319.888763,395.718903 321.300140,397.070038 322.716675,397.798737 
	C321.316040,398.504669 319.921600,399.812500 318.513885,399.826935 
	C295.077759,400.066803 271.639984,400.136597 248.202652,400.263214 
	C240.637360,400.304077 233.068939,400.536469 225.510284,400.347748 
	C224.078461,400.312012 222.685883,398.703400 221.275208,397.820557 
	C222.690079,397.093048 224.096436,395.753571 225.521179,395.733734 
	C238.179276,395.557312 250.840637,395.614410 264.001099,395.599945 
z"/>
<path fill="#EDEDED" opacity="1.000000" stroke="none" 
	d="
M293.019928,308.813019 
	C297.229828,308.787842 301.037323,308.766632 304.841797,308.863434 
	C307.951111,308.942566 310.488129,310.031250 310.530609,313.626678 
	C310.573364,317.245392 308.165771,318.314514 304.957764,318.288727 
	C301.313416,318.259460 297.667999,318.242523 294.024231,318.297821 
	C290.906433,318.345123 288.188324,317.520966 287.752106,314.070068 
	C287.334534,310.767181 289.870209,309.563721 293.019928,308.813019 
z"/>
<path fill="#DADADA" opacity="1.000000" stroke="none" 
	d="
M230.766846,362.209259 
	C231.112610,359.897644 231.222519,357.927399 231.405792,354.641876 
	C235.916794,355.313690 240.840714,354.988037 244.404282,357.032959 
	C246.136719,358.027100 246.589111,365.831360 245.436691,366.444000 
	C241.430969,368.573547 236.469254,368.904877 231.649353,369.969055 
	C231.160095,366.723694 230.845520,364.637177 230.766846,362.209259 
z"/>
<path fill="#DEDEDE" opacity="1.000000" stroke="none" 
	d="
M370.682373,355.127472 
	C376.269043,355.800781 377.572510,357.534821 376.753723,362.161804 
	C376.393738,364.196198 376.478668,366.309265 376.296356,369.544617 
	C373.743164,368.261536 371.116821,366.941681 369.180420,365.968567 
	C367.056396,367.267212 365.240601,368.377411 362.712830,369.922943 
	C362.712830,364.239716 362.712830,360.006775 362.712830,355.125946 
	C365.392914,355.125946 367.817505,355.125946 370.682373,355.127472 
z"/>
<path fill="#D6D6D6" opacity="1.000000" stroke="none" 
	d="
M293.920349,369.013123 
	C292.489441,369.001221 291.432129,369.201416 290.511871,368.932617 
	C289.208710,368.551880 287.206177,368.047974 286.967224,367.189209 
	C286.679382,366.154724 287.926422,364.693146 288.440247,363.567139 
	C287.982788,361.975952 286.428925,359.431061 287.131531,358.342010 
	C288.174469,356.725586 290.727081,355.857208 292.805115,355.210114 
	C294.314484,354.740143 296.112488,355.008698 297.749023,355.211853 
	C298.620575,355.320068 299.422516,355.988678 300.255890,356.404358 
	C298.498932,359.753906 302.098480,363.088806 300.717499,365.883087 
	C299.886383,367.564728 296.560089,368.013214 293.920349,369.013123 
z"/>
<path fill="#D6D6D6" opacity="1.000000" stroke="none" 
	d="
M282.766968,360.188782 
	C282.513519,363.186523 282.272430,365.767883 281.923492,369.504089 
	C279.541260,368.314056 277.015869,367.052521 274.925964,366.008545 
	C273.035248,367.215759 271.193542,368.391693 268.520203,370.098602 
	C268.520203,364.337402 268.520203,360.075867 268.520203,355.866058 
	C277.953339,353.792847 281.242035,354.720734 282.766968,360.188782 
z"/>
<path fill="#D8D8D8" opacity="1.000000" stroke="none" 
	d="
M305.351440,365.698059 
	C305.350281,362.112457 305.350281,358.989227 305.350281,355.126404 
	C309.543701,355.126404 313.438690,355.020966 317.317993,355.220795 
	C318.040955,355.258057 318.700806,356.521271 319.389771,357.218689 
	C318.588318,357.791229 317.838196,358.741150 316.974823,358.858521 
	C315.114960,359.111450 313.196838,358.936249 310.565399,358.936249 
	C312.823883,361.256042 319.726776,358.149963 316.560028,364.432404 
	C317.406616,365.400635 318.390900,366.526398 319.375214,367.652222 
	C318.132233,368.104675 316.913086,368.842285 315.641113,368.948792 
	C313.176147,369.155182 310.632660,369.290283 308.221161,368.876007 
	C307.141357,368.690521 306.301422,367.108643 305.351440,365.698059 
z"/>
<path fill="#DEDEDE" opacity="1.000000" stroke="none" 
	d="
M262.345337,362.040436 
	C261.698486,363.182129 261.013092,363.950226 260.151794,364.915436 
	C260.855835,365.020172 261.687988,364.929504 262.246277,365.277832 
	C263.061615,365.786346 263.680298,366.610168 264.382782,367.299622 
	C263.577789,367.864349 262.794891,368.875458 261.963989,368.916595 
	C258.337799,369.096069 254.697662,368.993774 250.748291,368.993774 
	C250.748291,364.335022 250.748291,359.955078 250.748291,355.124207 
	C254.582504,355.124207 258.196472,354.987000 261.786255,355.220886 
	C262.681946,355.279236 263.499634,356.534454 264.353149,357.239624 
	C263.526123,357.804657 262.751526,358.728760 261.860931,358.858734 
	C260.098053,359.116119 258.271118,358.934723 255.364105,358.934723 
	C258.388092,360.124756 260.347412,360.895813 262.345337,362.040436 
z"/>
<path fill="#E0E0E0" opacity="1.000000" stroke="none" 
	d="
M390.567200,356.622681 
	C394.474640,355.993958 398.601654,354.862335 402.006683,355.963379 
	C404.004913,356.609558 405.908234,360.826569 405.865692,363.404541 
	C405.835052,365.258301 402.804535,367.946808 400.595184,368.658997 
	C397.757904,369.573639 394.402618,368.881348 390.483429,368.881348 
	C390.483429,364.820953 390.483429,360.939392 390.567200,356.622681 
M395.779510,364.946960 
	C398.448029,365.505676 401.244385,365.322205 400.998505,361.985840 
	C400.899231,360.638733 398.015472,359.496826 395.332794,357.446869 
	C395.332794,360.987823 395.332794,362.598328 395.779510,364.946960 
z"/>
<path fill="#DEDEDE" opacity="1.000000" stroke="none" 
	d="
M437.840820,368.974091 
	C434.701080,368.985870 431.970154,368.985870 428.914001,368.985870 
	C428.914001,364.309235 428.914001,360.109528 428.914001,355.148682 
	C431.923981,355.148682 434.664429,355.068085 437.398224,355.168030 
	C441.289917,355.310272 444.178833,356.846130 444.416809,361.193451 
	C444.653687,365.520416 443.227509,368.694244 437.840820,368.974091 
M435.436371,365.385925 
	C437.752563,365.248077 440.367798,364.683868 439.418488,361.838959 
	C438.880219,360.225922 436.313049,359.289917 434.659668,358.049011 
	C434.100464,358.504852 433.541290,358.960693 432.982086,359.416534 
	C433.547150,361.403015 434.112213,363.389526 435.436371,365.385925 
z"/>
<path fill="#D8D8D8" opacity="1.000000" stroke="none" 
	d="
M328.610626,359.846924 
	C328.712219,361.670624 328.707428,364.034332 329.799194,364.769379 
	C331.498779,365.913696 333.551605,365.626129 333.979919,362.570953 
	C334.062408,361.982758 336.621124,361.741699 338.330414,361.257538 
	C338.330414,364.134918 338.330414,366.225525 338.330414,369.009674 
	C335.515350,369.009674 332.897797,369.061707 330.283020,368.998779 
	C324.989319,368.871429 323.026855,367.039398 323.053345,362.357727 
	C323.082275,357.246490 325.045959,355.271210 330.359070,355.126587 
	C332.185699,355.076843 334.090973,354.909912 335.817017,355.353760 
	C336.775513,355.600281 337.438354,356.996307 338.234467,357.874207 
	C337.248535,358.438629 336.310059,359.351624 335.266693,359.493591 
	C333.207092,359.773895 331.089447,359.627106 328.610626,359.846924 
z"/>
<path fill="#DADADA" opacity="1.000000" stroke="none" 
	d="
M345.062256,355.148010 
	C346.145691,356.855957 346.743561,358.597046 347.523132,360.252502 
	C348.318787,361.942047 349.090240,364.775116 350.226379,364.962646 
	C353.827057,365.557037 353.172577,362.439301 353.225464,360.205841 
	C353.260468,358.728668 353.232086,357.250000 353.232086,354.465790 
	C355.407532,355.448303 357.823792,355.769562 358.262939,356.875732 
	C359.872559,360.930511 357.611328,367.399933 354.705658,368.579956 
	C350.728729,370.195038 344.508270,368.749237 342.997345,365.858673 
	C341.466797,362.930634 342.422058,356.761536 345.062256,355.148010 
z"/>
<path fill="#D2D2D2" opacity="1.000000" stroke="none" 
	d="
M126.588501,355.115723 
	C128.805557,355.922150 130.674850,356.748260 132.102737,357.379303 
	C134.581116,356.438232 137.069000,355.493561 139.556885,354.548889 
	C139.763229,354.932922 139.969559,355.316925 140.175903,355.700928 
	C138.644363,357.800568 137.112808,359.900208 135.435501,362.199707 
	C136.946686,364.175964 138.407639,366.086517 139.868591,367.997070 
	C139.649826,368.462646 139.431061,368.928253 139.212296,369.393829 
	C136.889465,368.598663 134.566635,367.803528 132.049042,366.941681 
	C130.369629,367.615936 127.891869,368.610718 125.414101,369.605499 
	C125.111702,369.131805 124.809303,368.658142 124.506912,368.184448 
	C126.031349,366.330261 127.555786,364.476044 129.275970,362.383789 
	C127.970909,360.664246 126.545868,358.939697 125.352043,357.067688 
	C125.145691,356.744080 125.919632,355.795380 126.588501,355.115723 
z"/>
<path fill="#DADADA" opacity="1.000000" stroke="none" 
	d="
M421.364349,359.498108 
	C422.768311,362.510132 423.991028,365.194244 425.754059,369.064423 
	C420.017548,368.489563 414.592896,364.309143 409.633392,369.881683 
	C409.307312,369.329285 408.981262,368.776886 408.655182,368.224487 
	C410.561218,364.169495 412.166199,359.931885 414.477203,356.122589 
	C416.065460,353.504578 419.039825,354.928894 421.364349,359.498108 
z"/>
<path fill="#D6D6D6" opacity="1.000000" stroke="none" 
	d="
M207.297272,355.883423 
	C210.086533,355.476959 212.577667,355.000092 214.995728,355.244934 
	C216.228867,355.369781 217.330811,356.790222 218.492065,357.625061 
	C217.256836,358.208405 216.069473,358.981689 214.769791,359.309357 
	C213.880478,359.533508 212.575989,358.711975 211.917068,359.113220 
	C210.821259,359.780548 209.213821,361.293030 209.410553,362.019196 
	C209.740280,363.236328 211.160080,364.560608 212.417465,365.009125 
	C213.638885,365.444824 215.241074,364.682098 216.659393,364.757782 
	C217.274979,364.790588 218.321106,365.588013 218.338379,366.068146 
	C218.369476,366.932098 217.704346,368.600922 217.447922,368.578613 
	C213.465317,368.232269 209.076172,368.545624 205.661652,366.890137 
	C202.664154,365.436859 203.768051,359.673340 207.297272,355.883423 
z"/>
<path fill="#D8D8D8" opacity="1.000000" stroke="none" 
	d="
M164.288788,361.107178 
	C165.047684,359.417572 165.553146,357.995453 166.368500,356.781494 
	C168.203644,354.049286 170.699020,354.195465 172.225906,356.665924 
	C174.437927,360.244812 175.960663,364.249725 177.569885,368.844360 
	C172.114700,366.813934 166.833450,365.868683 161.663513,369.725891 
	C161.451477,369.269806 161.239426,368.813690 161.027390,368.357574 
	C162.076935,366.061462 163.126480,363.765320 164.288788,361.107178 
z"/>
<path fill="#E0E0E0" opacity="1.000000" stroke="none" 
	d="
M98.484528,360.173096 
	C98.576462,358.276550 98.668579,356.831268 98.776230,355.142303 
	C102.832275,355.142303 106.488792,355.034790 110.129250,355.228668 
	C110.901787,355.269836 111.615746,356.410614 112.356674,357.044800 
	C111.603874,357.669312 110.910187,358.718323 110.086395,358.833038 
	C108.166138,359.100433 106.183266,358.918335 103.901901,358.918335 
	C106.400887,360.196899 108.437645,361.238983 110.474411,362.281036 
	C108.486824,363.123138 106.499245,363.965210 103.704590,365.149200 
	C103.647766,365.604584 103.455490,367.145447 103.205452,369.149170 
	C101.655701,369.023712 100.276627,368.912079 98.484711,368.766998 
	C98.484711,365.872070 98.484711,363.248199 98.484528,360.173096 
z"/>
<path fill="#D8D8D8" opacity="1.000000" stroke="none" 
	d="
M183.375259,366.522156 
	C183.370224,363.935394 183.370224,361.790588 183.370224,359.358124 
	C181.678772,359.077301 180.125778,358.819489 178.390137,358.531311 
	C178.459686,357.528198 178.486038,356.045410 178.573669,356.041809 
	C183.401993,355.841766 188.235458,355.765656 193.068405,355.677002 
	C192.780365,356.736084 192.810608,358.201569 192.117966,358.744019 
	C191.371933,359.328339 189.948563,359.047760 188.530655,359.169434 
	C188.530655,362.364990 188.530655,365.298981 188.530655,369.819977 
	C186.250931,368.555878 184.815613,367.759979 183.375259,366.522156 
z"/>
<path fill="#D6D6D6" opacity="1.000000" stroke="none" 
	d="
M143.622253,367.749023 
	C143.545502,363.390717 143.545502,359.447968 143.545502,355.320801 
	C145.365829,355.320801 146.656418,355.320801 148.423401,355.320801 
	C148.423401,358.511139 148.423401,361.571869 148.423401,364.233398 
	C151.317245,366.657837 156.356216,363.020660 158.388992,369.406586 
	C152.666077,368.922760 148.182556,368.543701 143.622253,367.749023 
z"/>
<path fill="#E3E3E3" opacity="1.000000" stroke="none" 
	d="
M319.194946,316.990906 
	C316.660828,313.821289 317.433014,310.769562 320.405823,309.827026 
	C322.967834,309.014709 326.701569,309.393219 328.967804,310.787994 
	C331.785706,312.522278 330.196930,317.323700 326.649628,317.924957 
	C324.351929,318.314423 321.852539,317.513916 319.194946,316.990906 
z"/>
<path fill="#D2D2D2" opacity="1.000000" stroke="none" 
	d="
M381.355530,365.636322 
	C381.351410,362.052124 381.351410,358.921387 381.351410,355.438507 
	C383.059235,355.320099 384.455200,355.223328 386.178192,355.103882 
	C386.178192,359.689301 386.178192,363.928375 386.178192,368.619873 
	C384.073456,368.752045 381.325623,370.678009 381.355530,365.636322 
z"/>
<path fill="#D6D6D6" opacity="1.000000" stroke="none" 
	d="
M116.313110,362.926910 
	C116.312302,360.183746 116.312302,357.894623 116.312302,355.364807 
	C118.164162,355.364807 119.571724,355.364807 121.207802,355.364807 
	C121.207802,359.840393 121.207802,364.100372 121.207802,368.711395 
	C119.709572,368.811005 118.305656,368.904358 116.313919,369.036774 
	C116.313919,366.917908 116.313919,365.149445 116.313110,362.926910 
z"/>
<path fill="#D2D2D2" opacity="1.000000" stroke="none" 
	d="
M222.205612,362.941589 
	C222.205048,360.180237 222.205048,357.875000 222.205048,355.473175 
	C225.970215,354.780487 228.110443,354.905060 227.106552,359.505371 
	C226.491058,362.325897 226.992767,365.390259 226.992767,368.707550 
	C225.627579,368.810913 224.223022,368.917267 222.206177,369.069977 
	C222.206177,366.947906 222.206177,365.172821 222.205612,362.941589 
z"/>
<path fill="#D2D2D2" opacity="1.000000" stroke="none" 
	d="
M350.627502,211.958893 
	C342.911713,212.450623 334.870209,212.711929 326.827606,212.932709 
	C324.514160,212.996231 322.159454,213.193069 319.896637,212.848984 
	C318.544495,212.643387 317.334076,211.506195 316.224670,210.491592 
	C318.232788,210.659286 320.069336,211.490753 321.920715,211.525162 
	C331.378815,211.700958 340.840759,211.671051 350.627502,211.958893 
z"/>
<path fill="#D2D2D2" opacity="1.000000" stroke="none" 
	d="
M316.826843,203.709396 
	C315.644165,198.769318 319.817230,201.008362 322.273987,200.275284 
	C320.857361,201.475555 319.039734,202.532349 316.826843,203.709396 
z"/>
<path fill="#D2D2D2" opacity="1.000000" stroke="none" 
	d="
M353.229462,219.482208 
	C352.913025,217.714905 352.896576,215.810791 352.894073,213.577911 
	C353.115173,215.281235 353.322327,217.313293 353.229462,219.482208 
z"/>
<path fill="#D2D2D2" opacity="1.000000" stroke="none" 
	d="
M325.225983,200.306763 
	C326.100830,199.831390 327.244629,199.498779 328.636505,199.375305 
	C327.754700,199.872818 326.624817,200.161179 325.225983,200.306763 
z"/>
<path fill="#D2D2D2" opacity="1.000000" stroke="none" 
	d="
M331.251190,199.309906 
	C331.797089,198.891312 332.677948,198.563766 333.728699,198.443298 
	C333.127808,198.900558 332.356964,199.150742 331.251190,199.309906 
z"/>
<path fill="#D2D2D2" opacity="1.000000" stroke="none" 
	d="
M336.250854,198.259644 
	C336.798370,197.837341 337.679138,197.532104 338.726807,197.430847 
	C338.123810,197.882126 337.353973,198.129425 336.250854,198.259644 
z"/>
<path fill="#D2D2D2" opacity="1.000000" stroke="none" 
	d="
M328.084045,257.526367 
	C325.445282,258.140869 325.956940,256.848053 327.429504,255.120819 
	C327.765717,255.739792 327.796204,256.483887 328.084045,257.526367 
z"/>
<path fill="#D2D2D2" opacity="1.000000" stroke="none" 
	d="
M342.107941,235.366302 
	C342.216370,234.611847 342.592865,233.813065 343.246094,232.969147 
	C343.140533,233.723358 342.758270,234.522675 342.107941,235.366302 
z"/>
<path fill="#D2D2D2" opacity="1.000000" stroke="none" 
	d="
M349.205200,195.180267 
	C349.481110,194.749603 349.976654,194.442322 350.657166,194.296463 
	C350.369720,194.739807 349.897278,195.021713 349.205200,195.180267 
z"/>
<path fill="#D2D2D2" opacity="1.000000" stroke="none" 
	d="
M332.318420,248.995209 
	C332.341919,248.398590 332.639496,247.703598 333.232300,246.934662 
	C333.215851,247.539444 332.904144,248.218124 332.318420,248.995209 
z"/>
<path fill="#D2D2D2" opacity="1.000000" stroke="none" 
	d="
M339.339600,239.028122 
	C339.381897,238.425140 339.701721,237.721741 340.326050,236.949890 
	C340.292755,237.563522 339.954956,238.245621 339.339600,239.028122 
z"/>
<path fill="#D2D2D2" opacity="1.000000" stroke="none" 
	d="
M344.367462,232.049164 
	C344.372894,231.420944 344.688049,230.721359 345.304321,229.949265 
	C345.296021,230.577103 344.986572,231.277451 344.367462,232.049164 
z"/>
<path fill="#D2D2D2" opacity="1.000000" stroke="none" 
	d="
M355.207031,193.351822 
	C355.487946,192.942093 356.057251,192.606918 356.763794,192.455032 
	C356.432526,192.901001 355.963989,193.163696 355.207031,193.351822 
z"/>
<path fill="#D2D2D2" opacity="1.000000" stroke="none" 
	d="
M345.215637,196.228394 
	C345.595947,195.780182 346.220245,195.450821 347.204895,195.215118 
	C346.863342,195.654922 346.161469,196.001083 345.215637,196.228394 
z"/>
<path fill="#080808" opacity="1.000000" stroke="none" 
	d="
M268.996674,195.121552 
	C239.991577,194.241608 211.718628,191.939529 183.958817,181.649734 
	C192.468399,176.318802 200.239136,171.998642 210.216553,172.071747 
	C252.326263,172.380295 294.439728,172.302216 336.551086,172.155792 
	C345.459015,172.124832 352.199066,176.700546 359.338959,180.993347 
	C350.286652,188.193344 306.596893,195.452362 268.996674,195.121552 
z"/>
<path fill="#070707" opacity="1.000000" stroke="none" 
	d="
M266.691956,126.525208 
	C275.713989,128.789230 280.615692,126.882919 285.312134,119.564987 
	C288.292542,114.920952 299.147491,112.796127 303.431854,116.230751 
	C304.599304,117.166679 305.542725,118.884850 305.792877,120.377434 
	C307.043060,127.837311 308.028351,135.341568 309.112885,142.872375 
	C284.476776,142.872375 260.149567,142.872375 235.305115,142.872375 
	C236.561539,134.795746 237.780579,126.823563 239.073822,118.863426 
	C239.198914,118.093430 239.646393,117.273064 240.177979,116.688721 
	C243.332382,113.221291 255.609222,114.652328 258.540253,118.428589 
	C260.801117,121.341408 263.710541,123.750809 266.691956,126.525208 
z"/>
<path fill="#050505" opacity="1.000000" stroke="none" 
	d="
M318.989410,220.999725 
	C326.070618,220.993423 332.651093,220.993423 339.231567,220.993423 
	C339.403229,221.489944 339.574921,221.986450 339.746582,222.482971 
	C335.124146,229.066559 330.508057,235.654633 325.876740,242.231979 
	C323.276398,245.924911 320.433105,249.469055 318.110626,253.327805 
	C316.473938,256.047180 314.407501,256.639130 311.511993,256.505798 
	C307.224304,256.308380 302.920807,256.454742 298.221313,256.454742 
	C298.221313,244.566376 298.221313,233.081711 298.221313,221.006042 
	C305.106689,221.006042 311.797699,221.006042 318.989410,220.999725 
z"/>
<path fill="#050505" opacity="1.000000" stroke="none" 
	d="
M230.571625,256.138733 
	C229.194412,255.186401 227.427139,254.516083 226.502228,253.236771 
	C219.643982,243.750504 212.953201,234.143143 205.940247,223.956635 
	C207.771957,222.509430 209.873199,221.679382 211.974442,220.849335 
	C213.702789,220.877304 215.431137,220.905289 217.828979,221.124664 
	C219.990692,221.160370 221.482880,221.004654 222.975082,220.848938 
	C223.431488,220.874603 223.887909,220.900269 225.002762,221.078491 
	C228.099594,221.105652 230.537979,220.980286 232.976364,220.854919 
	C234.054977,220.844101 235.133591,220.833282 236.811066,221.179123 
	C239.927597,221.272873 242.445251,221.009979 244.962921,220.747070 
	C245.471619,221.479736 246.417053,222.208633 246.423462,222.945648 
	C246.518402,233.899963 246.489014,244.855362 246.489014,256.478424 
	C243.683868,256.478424 241.253586,256.478424 238.319000,256.188843 
	C237.254578,256.136841 236.694473,256.374390 236.134369,256.611938 
	C234.542831,256.540375 232.951279,256.468811 231.050095,256.119202 
	C230.580414,255.844193 230.420395,255.847244 230.260361,255.850311 
	C230.364105,255.946457 230.467865,256.042603 230.571625,256.138733 
z"/>
<path fill="#131313" opacity="1.000000" stroke="none" 
	d="
M305.826508,162.800095 
	C281.125305,162.799881 256.900787,162.799881 232.456528,162.799881 
	C232.963043,159.155472 233.393036,156.061676 233.865479,152.662384 
	C259.363037,152.662384 284.700684,152.662384 310.530792,152.662384 
	C311.043854,155.849106 311.561401,159.063629 312.162994,162.800308 
	C309.906281,162.800308 308.104736,162.800308 305.826508,162.800095 
z"/>
<path fill="#0E0E0E" opacity="1.000000" stroke="none" 
	d="
M260.672974,219.759079 
	C258.936554,220.069382 257.664032,220.312119 256.388733,220.555389 
	C255.277771,212.295074 254.564560,211.689682 246.395157,211.754639 
	C243.582489,211.776993 240.769485,211.758179 237.548645,211.758179 
	C237.548645,208.907501 237.548645,206.210236 237.548645,203.566986 
	C260.585724,203.566986 283.700195,203.566986 307.128754,203.566986 
	C307.128754,205.690491 307.128754,208.424774 307.128754,211.776184 
	C304.173889,211.776184 301.255890,211.783051 298.337952,211.774887 
	C289.538849,211.750290 289.538849,211.748016 288.384338,219.691513 
	C279.251709,219.691513 270.194305,219.691513 260.672974,219.759079 
z"/>
<path fill="#060606" opacity="1.000000" stroke="none" 
	d="
M279.174347,228.245575 
	C279.893951,228.341431 280.613525,228.437286 281.840485,228.827667 
	C282.955414,229.120178 283.562988,229.118164 284.170563,229.116150 
	C285.127472,229.399094 286.084351,229.682053 287.567749,230.496994 
	C288.252289,239.425980 288.410339,247.822998 288.568390,256.220001 
	C277.694855,256.098419 266.821320,255.976807 256.139618,255.300507 
	C256.083221,249.519638 255.835022,244.293488 255.586823,239.067337 
	C255.604233,236.990341 255.621643,234.913361 255.964661,232.314789 
	C256.504822,231.182556 256.719421,230.571899 256.933990,229.961273 
	C259.296021,229.456207 261.658020,228.951157 264.825439,228.516434 
	C270.145325,228.473022 274.659821,228.359299 279.174347,228.245575 
z"/>
<path fill="#0E0E0E" opacity="1.000000" stroke="none" 
	d="
M271.001740,287.996185 
	C267.255585,281.032562 263.509399,274.068939 259.383484,266.399414 
	C268.158264,266.399414 276.343811,266.399414 285.189545,266.399414 
	C281.092590,273.880768 277.145935,281.087616 272.821228,288.550415 
	C271.962677,288.536255 271.482208,288.266235 271.001740,287.996185 
z"/>
<path fill="#AFAFAF" opacity="1.000000" stroke="none" 
	d="
M288.896057,256.027710 
	C288.410339,247.822998 288.252289,239.425980 287.929504,230.594604 
	C288.411743,230.949280 289.620331,231.739548 289.618622,232.527206 
	C289.601929,240.296860 289.384369,248.066101 288.896057,256.027710 
z"/>
<path fill="#AFAFAF" opacity="1.000000" stroke="none" 
	d="
M255.355789,239.401077 
	C255.835022,244.293488 256.083221,249.519638 255.985352,254.843109 
	C255.467743,249.871902 255.296265,244.803360 255.355789,239.401077 
z"/>
<path fill="#AFAFAF" opacity="1.000000" stroke="none" 
	d="
M278.944092,227.955399 
	C274.659821,228.359299 270.145325,228.473022 265.223480,228.428284 
	C269.448730,228.068283 274.081299,227.866760 278.944092,227.955399 
z"/>
<path fill="#B4B4B4" opacity="1.000000" stroke="none" 
	d="
M211.685730,220.583282 
	C209.873199,221.679382 207.771957,222.509430 205.689728,223.734528 
	C204.339737,223.652817 202.970718,223.176071 201.601715,222.699310 
	C202.207092,221.905289 202.812485,221.111252 203.417862,220.317230 
	C206.077576,220.317230 208.737305,220.317230 211.685730,220.583282 
z"/>
<path fill="#B4B4B4" opacity="1.000000" stroke="none" 
	d="
M232.699844,220.594910 
	C230.537979,220.980286 228.099594,221.105652 225.341827,221.023392 
	C227.489410,220.655472 229.956375,220.495193 232.699844,220.594910 
z"/>
<path fill="#B4B4B4" opacity="1.000000" stroke="none" 
	d="
M244.671478,220.506714 
	C242.445251,221.009979 239.927597,221.272873 237.215485,221.188354 
	C239.474045,220.649429 241.927032,220.457901 244.671478,220.506714 
z"/>
<path fill="#B4B4B4" opacity="1.000000" stroke="none" 
	d="
M222.746033,220.595688 
	C221.482880,221.004654 219.990692,221.160370 218.259247,221.082581 
	C219.518997,220.680222 221.017975,220.511322 222.746033,220.595688 
z"/>
<path fill="#B4B4B4" opacity="1.000000" stroke="none" 
	d="
M236.254974,256.788971 
	C236.694473,256.374390 237.254578,256.136841 237.844757,256.255768 
	C237.375076,256.730164 236.875320,256.848083 236.254974,256.788971 
z"/>
<path fill="#AFAFAF" opacity="1.000000" stroke="none" 
	d="
M256.644714,229.929779 
	C256.719421,230.571899 256.504822,231.182556 255.967041,231.869537 
	C255.881027,231.263351 256.118225,230.580826 256.644714,229.929779 
z"/>
<path fill="#AFAFAF" opacity="1.000000" stroke="none" 
	d="
M284.081909,228.906311 
	C283.562988,229.118164 282.955414,229.120178 282.205994,228.831818 
	C282.707153,228.593124 283.350220,228.644791 284.081909,228.906311 
z"/>
<path fill="#D2D2D2" opacity="1.000000" stroke="none" 
	d="
M270.982635,288.316711 
	C271.482208,288.266235 271.962677,288.536255 272.712433,288.877014 
	C272.308990,288.844208 271.636261,288.740692 270.982635,288.316711 
z"/>
<path fill="#B4B4B4" opacity="1.000000" stroke="none" 
	d="
M230.537506,256.112976 
	C230.467865,256.042603 230.364105,255.946457 230.260361,255.850311 
	C230.420395,255.847244 230.580414,255.844193 230.588379,255.990692 
	C230.436310,256.140228 230.503387,256.087219 230.537506,256.112976 
z"/>
<path fill="#131313" opacity="1.000000" stroke="none" 
	d="
M395.556152,364.577881 
	C395.332794,362.598328 395.332794,360.987823 395.332794,357.446869 
	C398.015472,359.496826 400.899231,360.638733 400.998505,361.985840 
	C401.244385,365.322205 398.448029,365.505676 395.556152,364.577881 
z"/>
<path fill="#353535" opacity="1.000000" stroke="none" 
	d="
M435.056824,365.380981 
	C434.112213,363.389526 433.547150,361.403015 432.982086,359.416534 
	C433.541290,358.960693 434.100464,358.504852 434.659668,358.049011 
	C436.313049,359.289917 438.880219,360.225922 439.418488,361.838959 
	C440.367798,364.683868 437.752563,365.248077 435.056824,365.380981 
z"/>
</svg>