<?xml version="1.0" encoding="UTF-8"?>
<svg version="1.1" xmlns="http://www.w3.org/2000/svg" width="546" height="457">
<path d="M0 0 C0.78568359 -0.02449219 1.57136719 -0.04898438 2.38085938 -0.07421875 C7.7662658 -0.10125845 10.78752662 0.82118474 15.0625 4.375 C16.44826923 5.99832967 17.78891268 7.66224465 19.0625 9.375 C20.04480498 10.3923873 21.03719597 11.40096117 22.0625 12.375 C25.82707104 11.40696745 27.44232957 10.10417463 29.5 6.9375 C30.02400391 6.04224609 30.02400391 6.04224609 30.55859375 5.12890625 C33.14596715 2.11142403 36.1853896 0.64665483 40.12231445 0.0769043 C42.42291485 -0.06366966 44.69540009 -0.08353784 47 -0.0625 C48.15918945 -0.0924707 48.15918945 -0.0924707 49.34179688 -0.12304688 C54.796684 -0.11843581 58.88985089 0.73162788 63.0625 4.375 C66.68201904 9.7231772 67.91075422 15.39696523 68.765625 21.6953125 C68.95689972 22.98875076 68.95689972 22.98875076 69.15203857 24.30831909 C69.41704406 26.11753761 69.67552646 27.92772267 69.92773438 29.73876953 C70.31267541 32.50125881 70.71703261 35.2603576 71.125 38.01953125 C71.38133815 39.78629478 71.63658423 41.55321717 71.890625 43.3203125 C72.06866669 44.54864304 72.06866669 44.54864304 72.25030518 45.80178833 C72.83568393 50.03080065 73.1913606 54.0925326 73.0625 58.375 C73.7225 58.045 74.3825 57.715 75.0625 57.375 C77.90906675 57.22208526 80.71478217 57.14343183 83.5625 57.125 C84.32820312 57.104375 85.09390625 57.08375 85.8828125 57.0625 C95.93917455 56.99523336 104.16350638 60.588217 112.875 65.3125 C113.69419922 65.74240234 114.51339844 66.17230469 115.35742188 66.61523438 C125.78883868 72.18147217 125.78883868 72.18147217 128.1875 76.3125 C128.0625 78.375 128.0625 78.375 126.0390625 80.7890625 C122.69548452 83.69385072 119.40669193 85.28560347 115.3125 86.8125 C114.54607178 87.10398926 113.77964355 87.39547852 112.98999023 87.69580078 C106.15528575 90.18298415 99.18802822 92.03368625 92.125 93.75 C91.09600586 94.00064209 90.06701172 94.25128418 89.00683594 94.50952148 C82.37313216 96.04304506 75.85615811 96.94155809 69.0625 97.375 C69.0625 100.015 69.0625 102.655 69.0625 105.375 C70.58387573 105.39687378 70.58387573 105.39687378 72.13598633 105.41918945 C75.89904029 105.47716253 79.66149521 105.55439459 83.42407227 105.63745117 C85.05255409 105.67070536 86.68115131 105.69873584 88.30981445 105.72143555 C90.65105361 105.75497357 92.99123486 105.80728585 95.33203125 105.86328125 C96.06025589 105.86967117 96.78848053 105.8760611 97.53877258 105.88264465 C102.57557239 106.02915795 102.57557239 106.02915795 105.01733398 107.76342773 C106.59373453 110.19412617 106.54140093 111.51810827 106.0625 114.375 C104.72353895 116.61450122 103.39197394 118.57002688 101.8125 120.625 C100.89765163 121.86009537 99.98362667 123.09580096 99.0703125 124.33203125 C98.33989746 125.30970459 98.33989746 125.30970459 97.59472656 126.30712891 C94.90498622 129.93716408 92.29745496 133.62490709 89.6875 137.3125 C89.18831055 138.00956055 88.68912109 138.70662109 88.17480469 139.42480469 C85.19762082 143.61855864 82.5420782 147.86827849 80.0625 152.375 C81.3 152.58125 82.5375 152.7875 83.8125 153 C97.77311935 156.21159788 109.10399962 165.06989389 117.0625 176.8125 C122.91907384 186.78295985 125.24997562 197.24404823 125.1875 208.6875 C125.19136719 209.41517578 125.19523438 210.14285156 125.19921875 210.89257812 C125.18923611 216.24826389 125.18923611 216.24826389 124.0625 217.375 C122.37641034 217.44705511 120.68749341 217.45886068 119 217.4375 C118.08089844 217.42847656 117.16179687 217.41945313 116.21484375 217.41015625 C115.50457031 217.39855469 114.79429687 217.38695312 114.0625 217.375 C114.04832031 216.16585937 114.03414062 214.95671875 114.01953125 213.7109375 C113.66778948 199.04901768 111.61215266 186.42701707 101.0625 175.375 C100.52882813 174.81296875 99.99515625 174.2509375 99.4453125 173.671875 C91.5320727 166.1751215 81.64981868 163.37547332 71.01171875 163.05859375 C70.35291214 163.03781265 69.69410553 163.01703156 69.01533508 162.99562073 C66.92698815 162.93064511 64.83852388 162.87148425 62.75 162.8125 C61.3274622 162.76926521 59.90493594 162.7256494 58.48242188 162.68164062 C55.00923703 162.57501784 51.53592274 162.47360652 48.0625 162.375 C47.62381592 163.16672607 47.18513184 163.95845215 46.7331543 164.77416992 C45.09566404 167.7284942 43.45739393 170.68238321 41.81860352 173.63598633 C41.11126202 174.91120491 40.40422625 176.18659314 39.69750977 177.4621582 C38.67806226 179.30204902 37.65749456 181.14131462 36.63671875 182.98046875 C36.02401123 184.08543701 35.41130371 185.19040527 34.7800293 186.32885742 C33.70419237 188.23691959 32.57402626 190.11640695 31.36889648 191.94555664 C29.88233589 194.71004262 29.65548859 196.52043852 29.5859375 199.640625 C29.555 200.61257813 29.5240625 201.58453125 29.4921875 202.5859375 C29.47414063 203.58882812 29.45609375 204.59171875 29.4375 205.625 C29.38673262 207.63031141 29.33225352 209.63553352 29.2734375 211.640625 C29.24709229 212.96755371 29.24709229 212.96755371 29.22021484 214.32128906 C29.0625 216.375 29.0625 216.375 28.0625 217.375 C26.37641034 217.44705511 24.68749341 217.45886068 23 217.4375 C22.08089844 217.42847656 21.16179687 217.41945313 20.21484375 217.41015625 C19.50457031 217.39855469 18.79429687 217.38695312 18.0625 217.375 C18.16433594 216.10011719 18.26617187 214.82523438 18.37109375 213.51171875 C19.01360367 196.55712875 12.53214495 185.0633352 3.76416016 171.18554688 C2.0273416 168.31693063 0.5227006 165.39241338 -0.9375 162.375 C-19.61828082 161.92605346 -36.14753892 161.59757573 -52.125 172.5625 C-62.57902672 183.01652672 -66.71153146 195.22362622 -67.5 209.6875 C-67.54318359 210.42806641 -67.58636719 211.16863281 -67.63085938 211.93164062 C-67.73620432 213.74591464 -67.83728316 215.5604355 -67.9375 217.375 C-71.2375 217.375 -74.5375 217.375 -77.9375 217.375 C-80.1641209 201.7081734 -77.48500545 187.76555731 -68.9375 174.375 C-60.6534274 163.48931782 -51.82324934 157.51348884 -38.9375 153.375 C-36.93726563 152.70903686 -34.93720702 152.04254495 -32.9375 151.375 C-33.91976562 150.04662109 -33.91976562 150.04662109 -34.921875 148.69140625 C-40.14179789 141.61323336 -45.30312436 134.49765715 -50.375 127.3125 C-50.87032227 126.61133057 -51.36564453 125.91016113 -51.87597656 125.18774414 C-53.236521 123.25474159 -54.58830456 121.31593427 -55.9375 119.375 C-56.34572998 118.7972583 -56.75395996 118.2195166 -57.17456055 117.62426758 C-59.94467041 113.62596442 -59.94467041 113.62596442 -59.875 111.1875 C-58.7183549 108.95131948 -57.99636112 107.8780757 -55.9375 106.375 C-53.27915372 106.11345877 -50.86064896 106.02560878 -48.20703125 106.08203125 C-47.45661057 106.08627609 -46.70618988 106.09052094 -45.93302917 106.09489441 C-43.53831974 106.1116755 -41.14445466 106.1493251 -38.75 106.1875 C-37.1256632 106.20254765 -35.5013132 106.21623591 -33.87695312 106.22851562 C-29.89681052 106.26157695 -25.91729837 106.31335406 -21.9375 106.375 C-21.9375 103.405 -21.9375 100.435 -21.9375 97.375 C-22.54851562 97.36082031 -23.15953125 97.34664063 -23.7890625 97.33203125 C-40.38233283 96.46731153 -56.69803907 91.81901233 -71.9375 85.375 C-73.28521484 84.85099609 -73.28521484 84.85099609 -74.66015625 84.31640625 C-78.16689441 82.82588791 -79.69600437 81.95458951 -81.1875 78.375 C-80.9375 75.375 -80.9375 75.375 -79.51953125 73.53515625 C-75.77185846 70.39981124 -71.64929021 68.15687383 -67.375 65.8125 C-66.53130859 65.33103516 -65.68761719 64.84957031 -64.81835938 64.35351562 C-55.57074419 59.2487197 -46.80952156 56.84114059 -36.25 57.1875 C-35.03666992 57.20780273 -35.03666992 57.20780273 -33.79882812 57.22851562 C-31.84474989 57.2632034 -29.89102452 57.31697452 -27.9375 57.375 C-25.23340493 49.3228058 -24.58305676 40.87606354 -23.52539062 32.484375 C-20.31726685 7.9952708 -20.31726685 7.9952708 -13.9375 2.375 C-9.39902447 -0.04159087 -5.01911061 0.00819447 0 0 Z M-8.9375 12.375 C-9.6294108 15.09828992 -10.14608671 17.67166397 -10.5625 20.4375 C-10.68367188 21.16388672 -10.80484375 21.89027344 -10.9296875 22.63867188 C-11.78220362 27.87886607 -12.34940123 33.08211105 -12.9375 38.375 C22.7025 37.88 22.7025 37.88 59.0625 37.375 C59.0625 31.79531825 58.72952057 27.04203906 57.8125 21.625 C57.64814453 20.49384766 57.64814453 20.49384766 57.48046875 19.33984375 C56.93703883 16.11930642 56.48061953 13.83947626 54.265625 11.37890625 C51.68712653 10.20395216 49.8901344 10.00646456 47.0625 10.0625 C46.216875 10.06636719 45.37125 10.07023437 44.5 10.07421875 C41.88459838 10.3969526 40.2731704 10.95385475 38.0625 12.375 C37.44375 13.32375 36.825 14.2725 36.1875 15.25 C33.72450963 18.87204466 32.01355714 20.47263916 28.0625 22.375 C23.12092187 23.16372094 19.29527209 22.95649627 14.75 20.8125 C12.03834624 18.35309311 10.21619279 15.97703736 8.3359375 12.86328125 C6.67212289 10.91876172 5.57219355 10.73287221 3.0625 10.375 C1.54459216 10.26188035 0.02206257 10.20037701 -1.5 10.1875 C-2.26441406 10.17332031 -3.02882813 10.15914062 -3.81640625 10.14453125 C-6.23903503 10.2426625 -6.23903503 10.2426625 -8.9375 12.375 Z M-13.9375 48.375 C-14.5975 51.015 -15.2575 53.655 -15.9375 56.375 C-14.25246301 58.06003699 -12.17490116 57.49465983 -9.92655945 57.49942017 C-9.21014786 57.49582489 -8.49373627 57.49222961 -7.75561523 57.48852539 C-6.6288588 57.48874443 -6.6288588 57.48874443 -5.4793396 57.4889679 C-2.98489541 57.48826863 -0.49052497 57.48047564 2.00390625 57.47265625 C3.72883564 57.47079212 5.45376557 57.46936819 7.17869568 57.46836853 C11.72762503 57.46454297 16.27652267 57.45471238 20.82543945 57.44366455 C25.46370006 57.43345124 30.10196577 57.42887108 34.74023438 57.42382812 C43.84767022 57.41309014 52.95508248 57.39601327 62.0625 57.375 C61.5675 52.92 61.5675 52.92 61.0625 48.375 C36.3125 48.375 11.5625 48.375 -13.9375 48.375 Z M-63.9375 76.375 C-27.48987518 100.67341654 42.67905824 92.51584593 83.5078125 84.7421875 C97.77300821 82.67065277 97.77300821 82.67065277 110.0625 76.375 C108.54832906 75.40617433 107.02575846 74.45047248 105.5 73.5 C104.65308594 72.96632813 103.80617188 72.43265625 102.93359375 71.8828125 C95.31635614 67.8824673 88.03378017 68.0568527 79.57836914 68.02099609 C78.21414515 68.00844712 76.84992784 67.99515181 75.48571777 67.98117065 C71.02307802 67.93930168 66.56043864 67.91837926 62.09765625 67.8984375 C60.55300772 67.89033308 59.00835986 67.88209897 57.46371269 67.87373734 C50.20005208 67.83567272 42.93643149 67.80720814 35.67269045 67.7905134 C27.32867506 67.77101193 18.98572692 67.71847397 10.64208704 67.63751161 C4.16700645 67.57686987 -2.30777107 67.54754546 -8.78312975 67.54095137 C-12.63828703 67.5362844 -16.49230199 67.51882316 -20.3471508 67.46802902 C-43.38725417 66.97949317 -43.38725417 66.97949317 -63.9375 76.375 Z M53.47753906 98.59155273 C39.58121905 99.40288445 25.72904042 99.49319138 11.8125 99.4375 C9.59114686 99.4324677 7.3697926 99.4279079 5.1484375 99.42382812 C-0.21356679 99.41297624 -5.57552787 99.39637924 -10.9375 99.375 C-10.9375 101.685 -10.9375 103.995 -10.9375 106.375 C-9.97328125 106.40078125 -9.0090625 106.4265625 -8.015625 106.453125 C-6.12070313 106.53820312 -6.12070313 106.53820312 -4.1875 106.625 C-2.30804688 106.69460937 -2.30804688 106.69460937 -0.390625 106.765625 C3.50936923 107.45385928 4.80535635 108.16028026 7.0625 111.375 C7.0625 112.695 7.0625 114.015 7.0625 115.375 C8.53396484 115.13136719 8.53396484 115.13136719 10.03515625 114.8828125 C14.20171873 114.28983428 18.29743223 114.22730386 22.5 114.25 C23.21220703 114.24613281 23.92441406 114.24226563 24.65820312 114.23828125 C29.53932485 114.24714796 34.2297618 114.68850055 39.0625 115.375 C39.35125 114.240625 39.64 113.10625 39.9375 111.9375 C40.30875 110.761875 40.68 109.58625 41.0625 108.375 C44.10463267 106.85393366 47.34297572 107.00070662 50.6875 106.8125 C51.74710938 106.74772461 51.74710938 106.74772461 52.828125 106.68164062 C54.57268537 106.57555249 56.31756697 106.47477111 58.0625 106.375 C58.0625 103.735 58.0625 101.095 58.0625 98.375 C56.53247597 98.375 55.00477928 98.49929844 53.47753906 98.59155273 Z M50.0625 116.375 C49.3463083 121.3883419 48.97910604 125.25316785 49.18359375 130.18359375 C49.23193359 131.42431641 49.28027344 132.66503906 49.33007812 133.94335938 C49.38615234 135.22017578 49.44222656 136.49699219 49.5 137.8125 C49.55220703 139.11638672 49.60441406 140.42027344 49.65820312 141.76367188 C49.78730415 144.96772447 49.92224595 148.17141946 50.0625 151.375 C55.72880055 152.20325275 61.46787263 152.950491 67.0625 151.375 C71.03441771 147.96369917 73.26746312 144.07826877 75.79101562 139.54101562 C78.12364073 135.56731173 80.9138376 131.90819312 83.625 128.1875 C84.65249073 126.76035081 85.6750143 125.32960595 86.69140625 123.89453125 C87.12525635 123.28714111 87.55910645 122.67975098 88.00610352 122.05395508 C89.23863211 120.24255195 89.23863211 120.24255195 90.0625 117.375 C70.2625 116.88 70.2625 116.88 50.0625 116.375 Z M-12.56640625 116.59375 C-13.43063705 116.61594604 -14.29486786 116.63814209 -15.18528748 116.66101074 C-17.95686141 116.73222074 -20.72843073 116.80360855 -23.5 116.875 C-25.37434866 116.92318876 -27.24869761 116.97136599 -29.12304688 117.01953125 C-33.72786804 117.13788693 -38.33268507 117.25640212 -42.9375 117.375 C-41.79014433 120.44420093 -40.63022633 123.07356541 -38.65234375 125.6875 C-38.20850342 126.28224121 -37.76466309 126.87698242 -37.30737305 127.48974609 C-36.83468994 128.11187988 -36.36200684 128.73401367 -35.875 129.375 C-32.95193143 133.25732843 -30.05587905 137.12463747 -27.421875 141.2109375 C-27.03265869 141.80777344 -26.64344238 142.40460938 -26.24243164 143.01953125 C-25.18406678 144.65852844 -24.14419442 146.30942396 -23.10546875 147.9609375 C-21.15429619 150.5302372 -21.15429619 150.5302372 -18.42578125 151.2265625 C-13.26745191 151.44606588 -8.10049751 151.375 -2.9375 151.375 C-2.9375 139.825 -2.9375 128.275 -2.9375 116.375 C-6.14622629 116.375 -9.35855919 116.51099684 -12.56640625 116.59375 Z M8.0625 125.375 C6.75774382 127.98451236 6.94948428 129.90201285 6.96484375 132.8203125 C6.96734131 133.78984863 6.96983887 134.75938477 6.97241211 135.75830078 C6.98151611 136.99306152 6.99062012 138.22782227 7 139.5 C7.020625 143.41875 7.04125 147.3375 7.0625 151.375 C17.6225 151.375 28.1825 151.375 39.0625 151.375 C39.0625 143.125 39.0625 134.875 39.0625 126.375 C33.59526091 124.50645581 33.59526091 124.50645581 28.27734375 124.14453125 C26.98666992 124.14743164 26.98666992 124.14743164 25.66992188 124.15039062 C24.34831055 124.16875977 24.34831055 124.16875977 23 124.1875 C22.11505859 124.18814453 21.23011719 124.18878906 20.31835938 124.18945312 C14.1118732 124.16679463 14.1118732 124.16679463 8.0625 125.375 Z M12.0625 162.375 C13.495438 167.23355541 15.53804691 171.33830636 18.0625 175.6875 C18.41828125 176.31978516 18.7740625 176.95207031 19.140625 177.60351562 C20.99696492 181.07965356 20.99696492 181.07965356 24.0625 183.375 C25.52470279 180.81464079 26.98235153 178.2518644 28.4375 175.6875 C28.85 174.96626953 29.2625 174.24503906 29.6875 173.50195312 C31.74682272 169.86492349 33.64539052 166.32266212 35.0625 162.375 C31.60460946 162.17864026 28.14617803 161.99441748 24.6875 161.8125 C23.70265625 161.75642578 22.7178125 161.70035156 21.703125 161.64257812 C20.76210938 161.59423828 19.82109375 161.54589844 18.8515625 161.49609375 C17.98225098 161.4489624 17.11293945 161.40183105 16.21728516 161.35327148 C14.01107369 161.21814147 14.01107369 161.21814147 12.0625 162.375 Z " fill="#DEDEDE" transform="translate(247.9375,103.625)"/>
<path d="M0 0 C0.93147858 0.00359528 1.86295715 0.00719055 2.82266235 0.01089478 C3.79816544 0.01074875 4.77366852 0.01060272 5.7787323 0.01045227 C9.01987899 0.01115184 12.260969 0.01894626 15.50210571 0.02676392 C17.74270089 0.02862794 19.98329648 0.03005192 22.22389221 0.03105164 C28.13404456 0.03487804 34.04417251 0.04470936 39.95431519 0.05575562 C45.98000763 0.06596711 52.005704 0.07054869 58.03140259 0.07559204 C69.86409563 0.08633152 81.69677052 0.10340941 93.52944946 0.12442017 C94.02444946 2.59942017 94.02444946 2.59942017 94.52944946 5.12442017 C83.97546496 6.48001747 73.38487347 6.25132212 62.76773071 6.22207642 C60.76563045 6.22020829 58.76352972 6.21878625 56.76142883 6.2177887 C51.52545887 6.21399455 46.28951723 6.20419121 41.05355835 6.19308472 C35.69721866 6.18280344 30.34087433 6.17827676 24.98452759 6.17324829 C14.49948919 6.16256578 4.0144717 6.14552719 -6.47055054 6.12442017 C-6.85273821 4.46827359 -7.18450155 2.79984992 -7.47055054 1.12442017 C-5.52757729 -0.81855308 -2.58550872 0.00421719 0 0 Z " fill="#BABABA" transform="translate(227.47055053710938,393.8755798339844)"/>
<path d="M0 0 C1.3096875 -0.01675781 2.619375 -0.03351563 3.96875 -0.05078125 C7.57443813 0.32015791 8.9401314 0.837525 11.5 3.3125 C11.24438677 5.6556213 10.90729228 7.99093403 10.5 10.3125 C7.24316597 11.94091701 3.70041665 11.58045577 0.125 11.625 C-0.64328125 11.65400391 -1.4115625 11.68300781 -2.203125 11.71289062 C-6.01198859 11.75572387 -7.88932765 11.75876057 -11.0390625 9.45703125 C-12.5 7.3125 -12.5 7.3125 -12.5 4.6875 C-11.5 2.3125 -11.5 2.3125 -9.90625 1.18359375 C-6.55389345 -0.03000286 -3.55731363 0.01050388 0 0 Z " fill="#D0D0D0" transform="translate(298.5,306.6875)"/>
<path d="M0 0 C2.12472576 -0.05386629 4.24983652 -0.09273071 6.375 -0.125 C7.55835938 -0.14820313 8.74171875 -0.17140625 9.9609375 -0.1953125 C13 0 13 0 15 2 C15.484375 4.05859375 15.484375 4.05859375 15.75 6.4375 C15.89695313 7.61119141 15.89695313 7.61119141 16.046875 8.80859375 C16 11 16 11 14 14 C10.7421875 14.51171875 10.7421875 14.51171875 6.875 14.6875 C4.95300781 14.78611328 4.95300781 14.78611328 2.9921875 14.88671875 C2.00476563 14.92410156 1.01734375 14.96148437 0 15 C-1.59007848 10.93646611 -2.27983031 8.35937782 -1.125 4.125 C-0.92132813 3.34382813 -0.71765625 2.56265625 -0.5078125 1.7578125 C-0.34023437 1.17773438 -0.17265625 0.59765625 0 0 Z " fill="#D9D9D9" transform="translate(230,354)"/>
<path d="M0 0 C1.05832031 -0.03738281 2.11664063 -0.07476562 3.20703125 -0.11328125 C6.86427867 0.40918267 7.98499215 1.4020432 10.1875 4.3125 C10.67124516 7.62960964 10.63564062 9.50348047 9.00390625 12.44921875 C6.59889672 14.91629304 5.08466001 14.92865876 1.6875 15.125 C0.24890625 15.22748047 0.24890625 15.22748047 -1.21875 15.33203125 C-3.8125 15.3125 -3.8125 15.3125 -6.8125 14.3125 C-6.83935938 12.16673363 -6.85883088 10.02087355 -6.875 7.875 C-6.88660156 6.68003906 -6.89820313 5.48507812 -6.91015625 4.25390625 C-6.74200317 -0.81086462 -4.56055152 0.10477688 0 0 Z M-0.8125 4.3125 C-0.8125 6.2925 -0.8125 8.2725 -0.8125 10.3125 C1.18733534 9.52132096 1.18733534 9.52132096 3.1875 8.3125 C3.5175 7.3225 3.8475 6.3325 4.1875 5.3125 C2.5375 4.9825 0.8875 4.6525 -0.8125 4.3125 Z " fill="#B6B6B6" transform="translate(433.8125,353.6875)"/>
<path d="M0 0 C1.09054687 0.02320313 2.18109375 0.04640625 3.3046875 0.0703125 C4.40039062 0.08835937 5.49609375 0.10640625 6.625 0.125 C7.46804688 0.14820313 8.31109375 0.17140625 9.1796875 0.1953125 C9.16679687 1.12988281 9.15390625 2.06445312 9.140625 3.02734375 C9.06575043 6.14083687 9.06575043 6.14083687 9.8046875 8.8828125 C10.1796875 11.1953125 10.1796875 11.1953125 8.1796875 14.1953125 C5.140625 14.48828125 5.140625 14.48828125 1.5546875 14.3828125 C0.36617188 14.35574219 -0.82234375 14.32867187 -2.046875 14.30078125 C-2.96210938 14.26597656 -3.87734375 14.23117187 -4.8203125 14.1953125 C-5.74606743 9.91369594 -6.18317914 6.42019907 -4.8203125 2.1953125 C-2.8203125 0.1953125 -2.8203125 0.1953125 0 0 Z " fill="#BDBDBD" transform="translate(290.8203125,353.8046875)"/>
<path d="M0 0 C12.47889529 -0.37066026 12.47889529 -0.37066026 14.8671875 1.328125 C16.57119214 3.84300081 16.81602114 5.99501191 17 9 C16.03394425 11.74954328 15.61984486 12.69007757 13 14 C8.66396021 14.1393329 4.33919329 14.04254111 0 14 C0 9.38 0 4.76 0 0 Z M6 4 C6 5.98 6 7.96 6 10 C7.65 9.34 9.3 8.68 11 8 C10.67 7.01 10.34 6.02 10 5 C7.98491642 4.26676204 7.98491642 4.26676204 6 4 Z " fill="#C8C8C8" transform="translate(389,354)"/>
<path d="M0 0 C9.9609375 -0.1953125 9.9609375 -0.1953125 13 0 C15 2 15 2 15.16015625 4.05859375 C15.12792969 4.84363281 15.09570312 5.62867188 15.0625 6.4375 C14.94884972 9.43687912 15.03090182 11.09270547 16 14 C10.58461538 14.36923077 10.58461538 14.36923077 7.625 12.5 C7.08875 12.005 6.5525 11.51 6 11 C6 11.99 6 12.98 6 14 C4.02 14 2.04 14 0 14 C0 9.38 0 4.76 0 0 Z M6 4 C6 4.66 6 5.32 6 6 C7.32 5.67 8.64 5.34 10 5 C8.68 4.67 7.36 4.34 6 4 Z " fill="#D2D2D2" transform="translate(361,354)"/>
<path d="M0 0 C9.9609375 -0.1953125 9.9609375 -0.1953125 13 0 C15 2 15 2 15.16015625 4.05859375 C15.12792969 4.84363281 15.09570312 5.62867188 15.0625 6.4375 C14.94884972 9.43687912 15.03090182 11.09270547 16 14 C10.58461538 14.36923077 10.58461538 14.36923077 7.625 12.5 C7.08875 12.005 6.5525 11.51 6 11 C6 11.99 6 12.98 6 14 C4.02 14 2.04 14 0 14 C0 9.38 0 4.76 0 0 Z M6 4 C6 4.66 6 5.32 6 6 C6.99 6 7.98 6 9 6 C9 5.34 9 4.68 9 4 C8.01 4 7.02 4 6 4 Z " fill="#CCCCCC" transform="translate(267,354)"/>
<path d="M0 0 C4.95 0 9.9 0 15 0 C15 1.32 15 2.64 15 4 C14.01 4.495 14.01 4.495 13 5 C13.33 5.7425 13.66 6.485 14 7.25 C15 10 15 10 15 14 C10.05 14 5.1 14 0 14 C0 9.38 0 4.76 0 0 Z " fill="#CACACA" transform="translate(304,354)"/>
<path d="M0 0 C4.95 0 9.9 0 15 0 C15 1.32 15 2.64 15 4 C14.01 4.33 13.02 4.66 12 5 C12.34786708 6.97536745 12.34786708 6.97536745 13 9 C13.66 9.33 14.32 9.66 15 10 C15 11.32 15 12.64 15 14 C10.05 14 5.1 14 0 14 C0 9.38 0 4.76 0 0 Z " fill="#F3F3F3" transform="translate(249,354)"/>
<path d="M0 0 C1.09570312 0.00902344 2.19140625 0.01804687 3.3203125 0.02734375 C4.16335938 0.03894531 5.00640625 0.05054688 5.875 0.0625 C6.4375 2 6.4375 2 6.875 4.0625 C5.875 5.0625 5.875 5.0625 3.58984375 5.16015625 C2.21505859 5.14275391 2.21505859 5.14275391 0.8125 5.125 C-0.10660156 5.11597656 -1.02570313 5.10695313 -1.97265625 5.09765625 C-2.68292969 5.08605469 -3.39320313 5.07445312 -4.125 5.0625 C-4.125 6.3825 -4.125 7.7025 -4.125 9.0625 C-2.475 9.3925 -0.825 9.7225 0.875 10.0625 C1.205 8.7425 1.535 7.4225 1.875 6.0625 C3.525 6.0625 5.175 6.0625 6.875 6.0625 C6.875 8.7025 6.875 11.3425 6.875 14.0625 C4.77111431 14.11652274 2.66683286 14.15530256 0.5625 14.1875 C-1.19513672 14.22230469 -1.19513672 14.22230469 -2.98828125 14.2578125 C-6.125 14.0625 -6.125 14.0625 -9.125 12.0625 C-10.53485084 9.13434826 -10.02706779 7.61803842 -9.3125 4.375 C-7.4343971 -0.86391863 -5.13524971 -0.05463032 0 0 Z " fill="#B0B0B0" transform="translate(331.125,353.9375)"/>
<path d="M0 0 C1.98 0 3.96 0 6 0 C6.33 2.97 6.66 5.94 7 9 C7.99 9 8.98 9 10 9 C10.33 6.03 10.66 3.06 11 0 C12.65 0 14.3 0 16 0 C17.00685307 3.0205592 17.02876261 4.47076266 16.6875 7.5625 C16.56955078 8.74005859 16.56955078 8.74005859 16.44921875 9.94140625 C16 12 16 12 14 14 C11.50390625 14.30078125 11.50390625 14.30078125 8.5625 14.3125 C7.11037109 14.33763672 7.11037109 14.33763672 5.62890625 14.36328125 C3 14 3 14 1.19921875 12.66015625 C-1.14924069 9.40903161 -1.14851124 5.975931 -0.5625 2.125 C-0.376875 1.42375 -0.19125 0.7225 0 0 Z " fill="#D6D6D6" transform="translate(341,354)"/>
<path d="M0 0 C2.875 -0.125 2.875 -0.125 6 0 C6.66 0.66 7.32 1.32 8 2 C8.66 1.34 9.32 0.68 10 0 C13.625 -0.125 13.625 -0.125 17 0 C16.319375 0.886875 15.63875 1.77375 14.9375 2.6875 C12.70175667 5.77798927 12.70175667 5.77798927 13.25 8.875 C13.4975 9.57625 13.745 10.2775 14 11 C14.66 11 15.32 11 16 11 C16 11.99 16 12.98 16 14 C14.25 14.6875 14.25 14.6875 12 15 C9.75 13.5625 9.75 13.5625 8 12 C7.67 12.66 7.34 13.32 7 14 C4.69 14 2.38 14 0 14 C1.20381448 11.50638429 2.45428722 9.31856917 4 7 C3.01 5.824375 3.01 5.824375 2 4.625 C0 2 0 2 0 0 Z " fill="#BABABA" transform="translate(123,354)"/>
<path d="M0 0 C2 3 2 3 2 6 C-22.75 6 -47.5 6 -73 6 C-73 4.68 -73 3.36 -73 2 C-72.01 2.495 -72.01 2.495 -71 3 C-71 3.33 -71 3.66 -71 4 C-47.57 4 -24.14 4 0 4 C0 2.68 0 1.36 0 0 Z " fill="#767676" transform="translate(307,137)"/>
<path d="M0 0 C1.98 0 3.96 0 6 0 C7.00484204 1.95585325 8.00373805 3.91476237 9 5.875 C9.556875 6.96554687 10.11375 8.05609375 10.6875 9.1796875 C12 12 12 12 12 14 C10.35 14.33 8.7 14.66 7 15 C6.67 14.01 6.34 13.02 6 12 C4.02 12 2.04 12 0 12 C0 12.66 0 13.32 0 14 C-1.65 14 -3.3 14 -5 14 C-4.46515599 8.65155992 -2.53309233 4.64203897 0 0 Z " fill="#B3B3B3" transform="translate(413,354)"/>
<path d="M0 0 C0.99773437 0.02320313 1.99546875 0.04640625 3.0234375 0.0703125 C4.52777344 0.09738281 4.52777344 0.09738281 6.0625 0.125 C6.83335937 0.14820313 7.60421875 0.17140625 8.3984375 0.1953125 C8.7284375 1.5153125 9.0584375 2.8353125 9.3984375 4.1953125 C6.63579461 4.79264069 4.23810981 5.1953125 1.3984375 5.1953125 C1.0684375 6.5153125 0.7384375 7.8353125 0.3984375 9.1953125 C3.0384375 9.1953125 5.6784375 9.1953125 8.3984375 9.1953125 C8.9609375 11.1328125 8.9609375 11.1328125 9.3984375 13.1953125 C7.66623822 14.92751178 5.37816942 14.40823011 3.0234375 14.4453125 C1.55777344 14.48398437 1.55777344 14.48398437 0.0625 14.5234375 C-2.6015625 14.1953125 -2.6015625 14.1953125 -4.390625 12.8671875 C-5.6015625 11.1953125 -5.6015625 11.1953125 -6.6015625 8.1953125 C-4.51727035 0.33913441 -4.51727035 0.33913441 0 0 Z " fill="#C8C8C8" transform="translate(208.6015625,353.8046875)"/>
<path d="M0 0 C1.98 0 3.96 0 6 0 C7.0076952 1.7664657 8.00591714 3.53833823 9 5.3125 C9.8353125 6.79169922 9.8353125 6.79169922 10.6875 8.30078125 C12 11 12 11 12 14 C10.33388095 14.042721 8.66617115 14.04063832 7 14 C6.67 13.67 6.34 13.34 6 13 C2.15402433 12.67950203 -0.50971852 13.40444275 -4 15 C-5.11346788 12.19966161 -5.03510273 11.09856297 -4.00390625 8.203125 C-3.52824219 7.22859375 -3.05257812 6.2540625 -2.5625 5.25 C-2.08941406 4.26515625 -1.61632812 3.2803125 -1.12890625 2.265625 C-0.75636719 1.51796875 -0.38382813 0.7703125 0 0 Z " fill="#F7F7F7" transform="translate(165,354)"/>
<path d="M0 0 C4.95 0 9.9 0 15 0 C15 1.32 15 2.64 15 4 C14.01 4.495 14.01 4.495 13 5 C12.34444881 7.52733235 12.34444881 7.52733235 12 10 C9.03 9.505 9.03 9.505 6 9 C6 10.65 6 12.3 6 14 C3 15 3 15 0 14 C0 9.38 0 4.76 0 0 Z " fill="#989898" transform="translate(97,354)"/>
<path d="M0 0 C1.98 0 3.96 0 6 0 C6 3.3 6 6.6 6 10 C8.97 10 11.94 10 15 10 C15 11.32 15 12.64 15 14 C10.05 14 5.1 14 0 14 C-0.77916092 8.97874074 -1.13016601 5.02296004 0 0 Z " fill="#9F9F9F" transform="translate(142,354)"/>
<path d="M0 0 C5.28 0 10.56 0 16 0 C16 1.32 16 2.64 16 4 C14.35 4 12.7 4 11 4 C11 7.3 11 10.6 11 14 C9.02 14 7.04 14 5 14 C3.875 6.25 3.875 6.25 5 4 C3.35 4 1.7 4 0 4 C0 2.68 0 1.36 0 0 Z " fill="#C7C7C7" transform="translate(177,354)"/>
<path d="M0 0 C0.69222656 0.07605469 1.38445312 0.15210938 2.09765625 0.23046875 C3.9375 0.8125 3.9375 0.8125 5.9375 3.8125 C5.75 6.375 5.75 6.375 4.9375 8.8125 C1.44625983 11.13999345 0.04527749 11.31549316 -4.0625 10.8125 C-6.5 9.125 -6.5 9.125 -8.0625 6.8125 C-8 4.1875 -8 4.1875 -7.0625 1.8125 C-3.90703684 -0.29114211 -3.50162739 -0.45161176 0 0 Z " fill="#C6C6C6" transform="translate(324.0625,307.1875)"/>
<path d="M0 0 C0.66 0 1.32 0 2 0 C2.625 2.3125 2.625 2.3125 3 5 C2.01 6.485 2.01 6.485 1 8 C-2.0390625 8.29296875 -2.0390625 8.29296875 -5.625 8.1875 C-6.81351562 8.16042969 -8.00203125 8.13335937 -9.2265625 8.10546875 C-10.14179688 8.07066406 -11.05703125 8.03585937 -12 8 C-12.33 6.35 -12.66 4.7 -13 3 C-8.91556885 1.46833832 -5.20544343 2.36918348 -1 3 C-0.67 2.01 -0.34 1.02 0 0 Z " fill="#D5D5D5" transform="translate(298,360)"/>
<path d="M0 0 C1.98 0 3.96 0 6 0 C6 4.62 6 9.24 6 14 C4.02 14 2.04 14 0 14 C-1.10370043 10.6888987 -0.92673641 8.75251051 -0.5625 5.3125 C-0.46066406 4.31863281 -0.35882813 3.32476562 -0.25390625 2.30078125 C-0.17011719 1.54152344 -0.08632812 0.78226562 0 0 Z " fill="#8A8A8A" transform="translate(115,354)"/>
<path d="M0 0 C1.98 0 3.96 0 6 0 C6 4.62 6 9.24 6 14 C4.02 14 2.04 14 0 14 C0 9.38 0 4.76 0 0 Z " fill="#BEBEBE" transform="translate(380,354)"/>
<path d="M0 0 C1.65 0 3.3 0 5 0 C6 1 6 1 6.09765625 3.94140625 C6.08605469 5.13636719 6.07445312 6.33132813 6.0625 7.5625 C6.05347656 8.76003906 6.04445312 9.95757812 6.03515625 11.19140625 C6.02355469 12.11824219 6.01195312 13.04507812 6 14 C4.02 14 2.04 14 0 14 C0 9.38 0 4.76 0 0 Z " fill="#888888" transform="translate(221,354)"/>
<path d="M0 0 C4.95 0 9.9 0 15 0 C15 1.32 15 2.64 15 4 C14.01 4.33 13.02 4.66 12 5 C12.34786708 6.97536745 12.34786708 6.97536745 13 9 C13.66 9.33 14.32 9.66 15 10 C14.67 11.32 14.34 12.64 14 14 C14 13.01 14 12.02 14 11 C11.03 11 8.06 11 5 11 C5.33 10.34 5.66 9.68 6 9 C8.5625 8.375 8.5625 8.375 11 8 C11 7.34 11 6.68 11 6 C9.02 6 7.04 6 5 6 C5 5.01 5 4.02 5 3 C7.64 3 10.28 3 13 3 C13 2.34 13 1.68 13 1 C9.04 1 5.08 1 1 1 C1 5.29 1 9.58 1 14 C0.67 14 0.34 14 0 14 C0 9.38 0 4.76 0 0 Z " fill="#919191" transform="translate(249,354)"/>
<path d="M0 0 C2.12472576 -0.05386629 4.24983652 -0.09273071 6.375 -0.125 C7.55835938 -0.14820313 8.74171875 -0.17140625 9.9609375 -0.1953125 C13 0 13 0 15 2 C15.484375 4.09375 15.484375 4.09375 15.75 6.5 C15.89695313 7.69109375 15.89695313 7.69109375 16.046875 8.90625 C16 11 16 11 14 13 C13.67 9.7 13.34 6.4 13 3 C12.01 2.67 11.02 2.34 10 2 C10.33 3.32 10.66 4.64 11 6 C8.69 6 6.38 6 4 6 C4 5.01 4 4.02 4 3 C4.99 3 5.98 3 7 3 C7 2.34 7 1.68 7 1 C5.02 1 3.04 1 1 1 C1 5.62 1 10.24 1 15 C-1.19511447 12.80488553 -1.56329347 11.9976399 -2 9 C-1.66015625 6.640625 -1.66015625 6.640625 -1.0625 4.25 C-0.86785156 3.45078125 -0.67320312 2.6515625 -0.47265625 1.828125 C-0.31667969 1.22484375 -0.16070312 0.6215625 0 0 Z " fill="#ACACAC" transform="translate(230,354)"/>
<path d="M0 0 C3.96 0 7.92 0 12 0 C12 0.66 12 1.32 12 2 C9.36 2 6.72 2 4 2 C4 2.99 4 3.98 4 5 C5.98 5 7.96 5 10 5 C10 5.66 10 6.32 10 7 C8.02 7.33 6.04 7.66 4 8 C3.67 9.65 3.34 11.3 3 13 C2.01 13 1.02 13 0 13 C0 8.71 0 4.42 0 0 Z " fill="#F6F6F6" transform="translate(98,355)"/>
<path d="M0 0 C1.98 0 3.96 0 6 0 C7.25 7.625 7.25 7.625 5 11 C2.375 11.1875 2.375 11.1875 0 11 C-0.19491452 9.54263913 -0.38069358 8.08405407 -0.5625 6.625 C-0.66691406 5.81289063 -0.77132813 5.00078125 -0.87890625 4.1640625 C-1 2 -1 2 0 0 Z " fill="#D7D7D7" transform="translate(413,354)"/>
<path d="M0 0 C1.9582239 1.9582239 2.89415297 3.48948201 4.125 5.9375 C4.47820312 6.62714844 4.83140625 7.31679688 5.1953125 8.02734375 C6 10 6 10 6 13 C4.33388095 13.042721 2.66617115 13.04063832 1 13 C0.67 12.67 0.34 12.34 0 12 C-3.84597567 11.67950203 -6.50971852 12.40444275 -10 14 C-10.6875 12.25 -10.6875 12.25 -11 10 C-9.5625 7.75 -9.5625 7.75 -8 6 C-8.33 7.98 -8.66 9.96 -9 12 C-8.01 11.34 -7.02 10.68 -6 10 C-4.34450469 9.61500109 -2.6777567 9.27206865 -1 9 C-0.29925156 5.846632 0 3.27275026 0 0 Z " fill="#C0C0C0" transform="translate(171,355)"/>
<path d="M0 0 C1.32 0.33 2.64 0.66 4 1 C4 3.97 4 6.94 4 10 C1.35541621 11.32229189 -0.67761301 11.09677194 -3.625 11.0625 C-4.62789063 11.05347656 -5.63078125 11.04445313 -6.6640625 11.03515625 C-7.43492187 11.02355469 -8.20578125 11.01195312 -9 11 C-9 9.35 -9 7.7 -9 6 C-8.34 5.67 -7.68 5.34 -7 5 C-6.67 5.99 -6.34 6.98 -6 8 C-3.69 8 -1.38 8 1 8 C0.67 5.36 0.34 2.72 0 0 Z " fill="#F6F6F6" transform="translate(438,356)"/>
<path d="M0 0 C8.91 0 17.82 0 27 0 C26.67 0.99 26.34 1.98 26 3 C18.08 2.67 10.16 2.34 2 2 C2.33 3.32 2.66 4.64 3 6 C1.5 4.6875 1.5 4.6875 0 3 C0 2.01 0 1.02 0 0 Z " fill="#848484" transform="translate(258,264)"/>
<path d="M0 0 C7.7276932 -0.31806054 13.93924474 -0.32270836 21 3 C20.773125 3.7425 20.54625 4.485 20.3125 5.25 C19.70523302 8.05914993 19.70523302 8.05914993 21.4375 10.3125 C21.953125 10.869375 22.46875 11.42625 23 12 C18.96158508 10.65386169 17.47532779 8.02240766 15.34375 4.55859375 C13.61025942 2.54794625 12.61593919 2.34322606 10 2 C8.08438746 1.93311409 6.16664408 1.91468281 4.25 1.9375 C3.26515625 1.94652344 2.2803125 1.95554687 1.265625 1.96484375 C0.14414063 1.98224609 0.14414063 1.98224609 -1 2 C-0.67 1.34 -0.34 0.68 0 0 Z " fill="#A0A0A0" transform="translate(241,113)"/>
<path d="M0 0 C1.09570312 0.00902344 2.19140625 0.01804687 3.3203125 0.02734375 C4.16335938 0.03894531 5.00640625 0.05054688 5.875 0.0625 C6.4375 2 6.4375 2 6.875 4.0625 C5.875 5.0625 5.875 5.0625 3.58984375 5.16015625 C2.21505859 5.14275391 2.21505859 5.14275391 0.8125 5.125 C-0.10660156 5.11597656 -1.02570313 5.10695313 -1.97265625 5.09765625 C-2.68292969 5.08605469 -3.39320313 5.07445312 -4.125 5.0625 C-3.795 4.4025 -3.465 3.7425 -3.125 3.0625 C-0.485 3.0625 2.155 3.0625 4.875 3.0625 C4.875 2.4025 4.875 1.7425 4.875 1.0625 C3.43638706 1.14996284 1.99902492 1.25815348 0.5625 1.375 C-0.23800781 1.43300781 -1.03851563 1.49101562 -1.86328125 1.55078125 C-4.53971445 2.15633004 -5.50150914 2.87364011 -7.125 5.0625 C-7.37765405 8.15751208 -7.52435013 10.26379973 -6.125 13.0625 C-7.115 12.7325 -8.105 12.4025 -9.125 12.0625 C-10.5677653 9.17696941 -10.01683173 7.57158249 -9.3125 4.375 C-7.4343971 -0.86391863 -5.13524971 -0.05463032 0 0 Z " fill="#9D9D9D" transform="translate(331.125,353.9375)"/>
<path d="M0 0 C0.79857422 -0.01611328 1.59714844 -0.03222656 2.41992188 -0.04882812 C7.15365511 -0.05275002 10.16490928 0.32828407 14.0625 3.3125 C13.4025 3.6425 12.7425 3.9725 12.0625 4.3125 C11.23878906 3.86003906 11.23878906 3.86003906 10.3984375 3.3984375 C7.12035182 1.87451138 4.28789244 1.97343206 0.6875 1.9375 C-1.24222656 1.89496094 -1.24222656 1.89496094 -3.2109375 1.8515625 C-7.51024591 2.38334279 -9.55974321 3.66691592 -12.9375 6.3125 C-13.88625 7.055 -14.835 7.7975 -15.8125 8.5625 C-16.51375 9.14 -17.215 9.7175 -17.9375 10.3125 C-17.9375 7.3125 -17.9375 7.3125 -15.6875 4.75 C-10.51705726 0.16710757 -6.70852256 -0.02694186 0 0 Z " fill="#898989" transform="translate(294.9375,103.6875)"/>
<path d="M0 0 C1.98 0 3.96 0 6 0 C6 0.66 6 1.32 6 2 C5.01 2 4.02 2 3 2 C3 2.99 3 3.98 3 5 C5.31 5 7.62 5 10 5 C9.67 3.68 9.34 2.36 9 1 C10.32 1.33 11.64 1.66 13 2 C12.67 3.65 12.34 5.3 12 7 C8.37 7 4.74 7 1 7 C0.67 4.69 0.34 2.38 0 0 Z " fill="#F7F7F7" transform="translate(231,355)"/>
<path d="M0 0 C3.63 0 7.26 0 11 0 C11.33 1.32 11.66 2.64 12 4 C9.23735711 4.59732819 6.83967231 5 4 5 C3.67 6.32 3.34 7.64 3 9 C5.64 9 8.28 9 11 9 C7.77786243 11.14809171 6.72224599 11.29386153 3 11 C2 10 2 10 1.875 7 C2 4 2 4 3 3 C5.33297433 2.95907063 7.66705225 2.95758277 10 3 C10 2.34 10 1.68 10 1 C6.37 1.33 2.74 1.66 -1 2 C-0.67 1.34 -0.34 0.68 0 0 Z " fill="#919191" transform="translate(206,354)"/>
<path d="M0 0 C1.98 0 3.96 0 6 0 C6.03738281 0.62648438 6.07476562 1.25296875 6.11328125 1.8984375 C6.17902344 2.71570313 6.24476563 3.53296875 6.3125 4.375 C6.37050781 5.18710937 6.42851562 5.99921875 6.48828125 6.8359375 C6.82990528 9.37921338 6.82990528 9.37921338 10 11 C8.35 10.67 6.7 10.34 5 10 C5 7.03 5 4.06 5 1 C4.01 1 3.02 1 2 1 C2 4.63 2 8.26 2 12 C1.34 11.67 0.68 11.34 0 11 C-0.99716532 7.01133873 -1.0502717 3.9676931 0 0 Z " fill="#8A8A8A" transform="translate(341,354)"/>
<path d="M0 0 C0.66 0 1.32 0 2 0 C2 3.3 2 6.6 2 10 C4.97 10 7.94 10 11 10 C11 10.66 11 11.32 11 12 C7.37 12 3.74 12 0 12 C0 8.04 0 4.08 0 0 Z " fill="#FCFCFC" transform="translate(144,355)"/>
<path d="M0 0 C0.99 0 1.98 0 3 0 C3 4.29 3 8.58 3 13 C2.01 13 1.02 13 0 13 C0 8.71 0 4.42 0 0 Z " fill="#F5F5F5" transform="translate(222,355)"/>
<path d="M0 0 C0.99 0 1.98 0 3 0 C3 4.29 3 8.58 3 13 C2.01 13 1.02 13 0 13 C0 8.71 0 4.42 0 0 Z " fill="#F6F6F6" transform="translate(116,355)"/>
<path d="M0 0 C1.32 0 2.64 0 4 0 C4 1.98 4 3.96 4 6 C0.37 6 -3.26 6 -7 6 C-7 5.34 -7 4.68 -7 4 C-4.69 4 -2.38 4 0 4 C0 2.68 0 1.36 0 0 Z " fill="#F1F1F1" transform="translate(333,361)"/>
<path d="M0 0 C1.22589844 0.01353516 1.22589844 0.01353516 2.4765625 0.02734375 C3.41628906 0.04474609 3.41628906 0.04474609 4.375 0.0625 C4.375 0.7225 4.375 1.3825 4.375 2.0625 C3.281875 2.083125 2.18875 2.10375 1.0625 2.125 C-2.58232337 2.62364043 -2.58232337 2.62364043 -3.7578125 4.6875 C-4.68924734 6.84473035 -4.68924734 6.84473035 -5.625 10.0625 C-5.955 10.0625 -6.285 10.0625 -6.625 10.0625 C-6.625 7.0925 -6.625 4.1225 -6.625 1.0625 C-4.21954362 -0.14022819 -2.67503047 -0.03821472 0 0 Z " fill="#FBFBFB" transform="translate(211.625,354.9375)"/>
<path d="M0 0 C2 2 2 2 2.1953125 3.9453125 C2.13020833 5.96354167 2.06510417 7.98177083 2 10 C0.35 10 -1.3 10 -3 10 C-2.49287967 6.28111761 -1.88391785 3.26545761 0 0 Z " fill="#C4C4C4" transform="translate(411,358)"/>
<path d="M0 0 C0.66 0.99 1.32 1.98 2 3 C1.34 3.66 0.68 4.32 0 5 C0.66 5.66 1.32 6.32 2 7 C-0.80804268 9.96404505 -3.18315774 12.44499019 -7 14 C-5.23570801 9.02790438 -2.6060834 4.56561939 0 0 Z " fill="#B4B4B4" transform="translate(279,273)"/>
<path d="M0 0 C4.29 0 8.58 0 13 0 C13 0.33 13 0.66 13 1 C9.04 1 5.08 1 1 1 C1 5.62 1 10.24 1 15 C-1.19511447 12.80488553 -1.56329347 11.9976399 -2 9 C-1.55748069 5.92779697 -0.75451389 3.01805556 0 0 Z " fill="#8B8B8B" transform="translate(230,354)"/>
<path d="M0 0 C2.50037734 2.17424117 3.43628586 3.73045798 4 7 C4.66 7 5.32 7 6 7 C6 6.34 6 5.68 6 5 C6.99 5 7.98 5 9 5 C9.33 5.99 9.66 6.98 10 8 C8.625 9.5 8.625 9.5 7 11 C6.34 11 5.68 11 5 11 C4.16151196 9.54462432 3.32936066 8.08559627 2.5 6.625 C1.80390625 5.40683594 1.80390625 5.40683594 1.09375 4.1640625 C0 2 0 2 0 0 Z " fill="#B7B7B7" transform="translate(255,279)"/>
<path d="M0 0 C1.98 0 3.96 0 6 0 C6 0.33 6 0.66 6 1 C4.35 1 2.7 1 1 1 C1 1.99 1 2.98 1 4 C2.32 4 3.64 4 5 4 C5 5.32 5 6.64 5 8 C2.69 7.67 0.38 7.34 -2 7 C-1.34 4.69 -0.68 2.38 0 0 Z " fill="#B2B2B2" transform="translate(165,354)"/>
<path d="M0 0 C0 0.66 0 1.32 0 2 C-2.97 2 -5.94 2 -9 2 C-8.67 2.99 -8.34 3.98 -8 5 C-8.99 4.67 -9.98 4.34 -11 4 C-11 2.68 -11 1.36 -11 0 C-6.94952424 -1.35015859 -4.2079832 -0.62084998 0 0 Z " fill="#868686" transform="translate(296,363)"/>
<path d="M0 0 C1.21816406 0.03480469 1.21816406 0.03480469 2.4609375 0.0703125 C3.68683594 0.09738281 3.68683594 0.09738281 4.9375 0.125 C5.87722656 0.15980469 5.87722656 0.15980469 6.8359375 0.1953125 C6.8359375 0.8553125 6.8359375 1.5153125 6.8359375 2.1953125 C3.85742188 2.53710938 3.85742188 2.53710938 0.87890625 2.87890625 C-1.35802643 3.16701985 -1.35802643 3.16701985 -4.1640625 4.1953125 C-4.1640625 4.8553125 -4.1640625 5.5153125 -4.1640625 6.1953125 C-4.8240625 6.1953125 -5.4840625 6.1953125 -6.1640625 6.1953125 C-3.41682632 0.30837783 -3.41682632 0.30837783 0 0 Z " fill="#F9F9F9" transform="translate(329.1640625,354.8046875)"/>
<path d="M0 0 C1.125 3.75 1.125 3.75 0 6 C0.99 5.34 1.98 4.68 3 4 C5.33199388 3.92094936 7.66832622 3.91201231 10 4 C9.67 4.66 9.34 5.32 9 6 C8.278125 5.95875 7.55625 5.9175 6.8125 5.875 C3.79270631 6.00921305 1.73064271 6.75170619 -1 8 C-1.93065133 5.39417629 -2.14917407 4.35801776 -1.0625 1.75 C-0.711875 1.1725 -0.36125 0.595 0 0 Z " fill="#939393" transform="translate(162,361)"/>
<path d="M0 0 C0.99 0.495 0.99 0.495 2 1 C1.67 2.65 1.34 4.3 1 6 C2.98 4.35 4.96 2.7 7 1 C7 2.65 7 4.3 7 6 C4.69 6.33 2.38 6.66 0 7 C0 4.69 0 2.38 0 0 Z " fill="#787878" transform="translate(432,358)"/>
<path d="M0 0 C0.66 0.33 1.32 0.66 2 1 C1.34 2.98 0.68 4.96 0 7 C-1.65 7 -3.3 7 -5 7 C-4.1875 5.0625 -4.1875 5.0625 -3 3 C-2.01 2.67 -1.02 2.34 0 2 C0 1.34 0 0.68 0 0 Z " fill="#E2E2E2" transform="translate(130,361)"/>
<path d="M0 0 C0.66 0.33 1.32 0.66 2 1 C1.98839844 1.61488281 1.97679687 2.22976563 1.96484375 2.86328125 C1.95582031 3.67152344 1.94679688 4.47976563 1.9375 5.3125 C1.92589844 6.11300781 1.91429687 6.91351563 1.90234375 7.73828125 C1.90342145 10.16861334 1.90342145 10.16861334 3 13 C1.02 13 -0.96 13 -3 13 C-2.01 12.67 -1.02 12.34 0 12 C0 8.04 0 4.08 0 0 Z " fill="#9D9D9D" transform="translate(374,355)"/>
<path d="M0 0 C0 3.78176921 -1.07555275 5.76967782 -3 9 C-5.1875 10.375 -5.1875 10.375 -7 11 C-5.5140084 6.40693504 -3.14985318 3.56430755 0 0 Z " fill="#979797" transform="translate(325,240)"/>
<path d="M0 0 C0.66 0.99 1.32 1.98 2 3 C2.99 3.66 3.98 4.32 5 5 C4 6 4 6 1.4375 6.0625 C0.2309375 6.0315625 0.2309375 6.0315625 -1 6 C-1.042721 4.33388095 -1.04063832 2.66617115 -1 1 C-0.67 0.67 -0.34 0.34 0 0 Z " fill="#FCFCFC" transform="translate(430,361)"/>
<path d="M0 0 C2.64 0 5.28 0 8 0 C8 0.99 8 1.98 8 3 C5.03 2.67 2.06 2.34 -1 2 C-0.67 1.34 -0.34 0.68 0 0 Z " fill="#F7F7F7" transform="translate(291,355)"/>
</svg>
