<?xml version="1.0" encoding="UTF-8"?>
<svg version="1.1" xmlns="http://www.w3.org/2000/svg" width="423" height="143">
<path d="M0 0 C3.63 0 7.26 0 11 0 C14.95036354 9.35188104 18.66628176 18.77710077 22.3125 28.25 C22.86769231 29.68885852 23.42303 31.12766094 23.97851562 32.56640625 C25.32068149 36.04362799 26.660898 39.52159701 28 43 C30.70401684 40.29598316 31.6252187 37.13075446 32.93359375 33.61328125 C33.21219742 32.87804733 33.49080109 32.14281342 33.77784729 31.38529968 C34.66950084 29.02958978 35.55379795 26.67120297 36.4375 24.3125 C37.31895341 21.97217243 38.20195336 19.63244114 39.08644104 17.29325867 C39.63614331 15.83815509 40.18389879 14.38231402 40.72935486 12.9256134 C42.37177109 8.5621106 44.13446398 4.27308352 46 0 C49.63 0 53.26 0 57 0 C57 19.14 57 38.28 57 58 C54.36 58 51.72 58 49 58 C48.505 37.21 48.505 37.21 48 16 C42.72 29.86 37.44 43.72 32 58 C29.69 58 27.38 58 25 58 C21.03303884 48.65525699 17.33419603 39.22301485 13.6875 29.75 C11.810625 24.8825 9.93375 20.015 8 15 C7.67 29.19 7.34 43.38 7 58 C4.69 58 2.38 58 0 58 C0 38.86 0 19.72 0 0 Z M49 11 C50 14 50 14 50 14 Z " fill="#2C2C2C" transform="translate(15,29)"/>
<path d="M0 0 C4.02095867 2.25545371 6.22555371 5.49412377 7.96875 9.75390625 C10.23388708 18.11901775 10.23694105 28.62691355 6.0625 36.34375 C3.20653829 40.37733229 -0.4166614 42.75461504 -5.140625 44.04296875 C-10.93829406 44.65608032 -15.07883623 44.20658673 -20.140625 41.04296875 C-20.470625 40.71296875 -20.800625 40.38296875 -21.140625 40.04296875 C-21.470625 47.30296875 -21.800625 54.56296875 -22.140625 62.04296875 C-24.780625 62.04296875 -27.420625 62.04296875 -30.140625 62.04296875 C-30.140625 41.25296875 -30.140625 20.46296875 -30.140625 -0.95703125 C-27.830625 -0.95703125 -25.520625 -0.95703125 -23.140625 -0.95703125 C-22.810625 0.36296875 -22.480625 1.68296875 -22.140625 3.04296875 C-21.2125 2.40359375 -20.284375 1.76421875 -19.328125 1.10546875 C-12.9763854 -3.00448041 -6.85561914 -2.82993581 0 0 Z M-19.140625 8.04296875 C-22.77603358 13.49608161 -22.68478278 19.64911483 -22.140625 26.04296875 C-21.27537047 29.82209517 -19.98990699 32.99769861 -17.515625 36.04296875 C-13.72635765 37.63844974 -10.17313614 37.81346641 -6.140625 37.04296875 C-2.30754495 34.18854744 -0.6273315 31.50958041 0.859375 27.04296875 C1.65418296 20.34255277 1.31187073 14.56075833 -1.875 8.56640625 C-3.45227868 6.66783006 -4.84962518 5.93607037 -7.140625 5.04296875 C-12.14189444 4.58830789 -15.13168592 4.9503586 -19.140625 8.04296875 Z " fill="#323232" transform="translate(271.140625,43.95703125)"/>
<path d="M0 0 C3.81310274 3.26424705 5.96579659 7.11103844 7 12 C7 15.3 7 18.6 7 22 C-2.57 22 -12.14 22 -22 22 C-20.46163672 32.47417966 -20.46163672 32.47417966 -16.375 34.6875 C-8.82675498 35.38641158 -2.35096627 34.94635514 5 33 C5 35.31 5 37.62 5 40 C-2.59701072 43.4401558 -10.12763333 44.42411718 -18.25 42 C-23.56104709 39.67231887 -27.60782271 35.25460112 -29.87890625 29.9453125 C-32.14726618 21.79190687 -31.22663339 13.7371033 -28 6 C-21.23360944 -3.58571995 -10.22000494 -5.73264983 0 0 Z M-21 9 C-21.33 10.98 -21.66 12.96 -22 15 C-15.07 15 -8.14 15 -1 15 C-2.33954912 8.37817284 -2.33954912 8.37817284 -5.1875 5.5625 C-11.68242231 1.95420983 -16.18349748 3.72478296 -21 9 Z " fill="#353535" transform="translate(114,45)"/>
<path d="M0 0 C4.27944833 4.41749505 4.13785071 9.10768922 4.09765625 14.94921875 C4.0962413 15.72183548 4.09482635 16.49445221 4.09336853 17.29048157 C4.08777466 19.75619389 4.07522333 22.22181515 4.0625 24.6875 C4.05748421 26.36002473 4.05292144 28.03255088 4.04882812 29.70507812 C4.03780724 33.80342046 4.02054684 37.90169479 4 42 C2.02 42 0.04 42 -2 42 C-2.66 40.68 -3.32 39.36 -4 38 C-4.763125 38.639375 -5.52625 39.27875 -6.3125 39.9375 C-11.1670398 43.66307706 -16.09650773 43.62707809 -22 43 C-26.29747259 41.67647412 -28.62069149 39.61637632 -31 35.75 C-32.47019444 30.23677086 -32.31729872 26.27994009 -29.375 21.1875 C-22.28530077 14.65751386 -13.08035644 14.8146866 -4 15 C-4.254496 13.51793505 -4.52911762 12.03931385 -4.8125 10.5625 C-4.96332031 9.73878906 -5.11414063 8.91507813 -5.26953125 8.06640625 C-5.51058594 7.38449219 -5.75164062 6.70257813 -6 6 C-12.47418734 3.84193755 -18.58730201 5.37137829 -25 7 C-25.66 5.02 -26.32 3.04 -27 1 C-17.87065572 -3.11715526 -9.28763697 -4.94781563 0 0 Z M-21.7421875 24.35546875 C-23.86101344 27.12573496 -23.3580763 29.65795449 -23 33 C-21.42508073 35.13598425 -20.53897461 35.89704979 -17.9140625 36.3984375 C-13.16241833 36.34978585 -9.78078382 36.20793779 -6 33 C-3.2093071 29.41196627 -3.85534666 25.33960021 -4 21 C-9.82223664 20.75224525 -16.95143915 20.62813764 -21.7421875 24.35546875 Z " fill="#353535" transform="translate(187,45)"/>
<path d="M0 0 C5.45363747 4.42186822 7.96170853 10.1512697 9 17 C9.25550521 24.64386413 7.90513635 31.79446854 2.578125 37.53125 C-2.76149219 42.26534359 -7.46608658 43.47848603 -14.4375 43.3125 C-19.90375911 42.64588304 -24.16602167 40.22087877 -27.875 36.1875 C-32.47318149 29.29022777 -32.68741838 22.06642502 -32 14 C-30.79150153 8.34460482 -28.24800633 3.97096244 -24 0 C-16.12906079 -3.92067461 -7.7504817 -4.41084324 0 0 Z M-21.75 8.9375 C-25.0076071 14.31255172 -24.78290017 21.33208188 -23.50390625 27.32421875 C-22.45699044 30.52411395 -21.3031228 32.72285916 -18.8125 35 C-14.01845148 36.70455059 -9.92626612 36.77050645 -5.1875 34.875 C-1.55114387 31.75812332 -0.1670768 28.31102606 0.43359375 23.59765625 C0.52031771 14.0450836 0.52031771 14.0450836 -4 6 C-10.45150565 2.09514132 -16.81419282 3.47285634 -21.75 8.9375 Z " fill="#303030" transform="translate(340,45)"/>
<path d="M0 0 C-0.66 2.31 -1.32 4.62 -2 7 C-3.7015625 6.505 -3.7015625 6.505 -5.4375 6 C-9.9187855 4.88366553 -14.4007687 4.38314057 -19 5 C-19.99 5.66 -20.98 6.32 -22 7 C-22.06389493 9.40203144 -22.06389493 9.40203144 -21 12 C-18.56800607 13.41541447 -16.40109252 14.47437756 -13.8125 15.5 C-1.80078125 20.3984375 -1.80078125 20.3984375 1 26 C1.26297155 30.01031621 1.35701465 32.95275703 0.0625 36.75 C-3.80709431 40.97137561 -8.36817365 42.69278292 -14.01171875 43.3515625 C-19.93627484 43.51510106 -25.0401089 43.41681387 -30 40 C-30.9375 36.3125 -30.9375 36.3125 -31 33 C-29.741875 33.33 -28.48375 33.66 -27.1875 34 C-21.84117751 35.18618883 -16.45556382 35.60816121 -11 35 C-7.80002845 33.3591054 -7.80002845 33.3591054 -7.4375 30.625 C-7.7707129 27.80666174 -7.7707129 27.80666174 -10.25 26 C-14.30081793 23.58695296 -18.78021304 22.05353544 -23.1953125 20.44140625 C-26.47523834 18.75576191 -27.97765006 17.05921296 -30 14 C-31.02710611 10.16547052 -31.41895681 8.00084126 -29.875 4.3125 C-27.22666366 1.04621851 -24.74798163 -1.43308704 -20.6875 -2.75 C-12.98850661 -3.46618543 -7.29276996 -2.51062572 0 0 Z " fill="#353535" transform="translate(231,45)"/>
<path d="M0 0 C1.65 0 3.3 0 5 0 C5 3.3 5 6.6 5 10 C8.96 10 12.92 10 17 10 C17 11.98 17 13.96 17 16 C13.04 16 9.08 16 5 16 C5.09363611 19.93309734 5.19975145 23.86564085 5.31738281 27.7980957 C5.37444092 29.7929536 5.42164442 31.7880854 5.46875 33.78320312 C5.50742187 35.03681641 5.54609375 36.29042969 5.5859375 37.58203125 C5.6173584 38.73936768 5.6487793 39.8967041 5.68115234 41.08911133 C5.79471033 44.19127028 5.79471033 44.19127028 8 47 C10.42521494 47.58189266 10.42521494 47.58189266 13.125 47.6875 C14.49011719 47.78611328 14.49011719 47.78611328 15.8828125 47.88671875 C16.93082031 47.94279297 16.93082031 47.94279297 18 48 C18 49.98 18 51.96 18 54 C12.77542 55.74152667 7.83806607 55.61268869 2.625 53.875 C-0.6398849 51.54293936 -1.49328413 49.70445125 -3 46 C-3.34057617 42.56494141 -3.34057617 42.56494141 -3.29296875 38.8515625 C-3.28872391 38.19417084 -3.28447906 37.53677917 -3.28010559 36.85946655 C-3.26344977 34.78087609 -3.2258262 32.70329226 -3.1875 30.625 C-3.17243605 29.20704536 -3.15875065 27.78907536 -3.14648438 26.37109375 C-3.11359038 22.9137411 -3.06190165 19.45696897 -3 16 C-4.98 16 -6.96 16 -9 16 C-8.67 14.35 -8.34 12.7 -8 11 C-6.35 10.67 -4.7 10.34 -3 10 C-2.86722656 9.36191406 -2.73445313 8.72382812 -2.59765625 8.06640625 C-2.42105469 7.24011719 -2.24445313 6.41382813 -2.0625 5.5625 C-1.88847656 4.73878906 -1.71445312 3.91507813 -1.53515625 3.06640625 C-1 1 -1 1 0 0 Z " fill="#343434" transform="translate(382,33)"/>
<path d="M0 0 C1.65 0 3.3 0 5 0 C5 3.3 5 6.6 5 10 C8.96 10 12.92 10 17 10 C17 11.98 17 13.96 17 16 C13.04 16 9.08 16 5 16 C5.09363611 19.93309734 5.19975145 23.86564085 5.31738281 27.7980957 C5.37444092 29.7929536 5.42164442 31.7880854 5.46875 33.78320312 C5.50742188 35.03681641 5.54609375 36.29042969 5.5859375 37.58203125 C5.6173584 38.73936768 5.6487793 39.8967041 5.68115234 41.08911133 C5.79471033 44.19127028 5.79471033 44.19127028 8 47 C10.42521494 47.58189266 10.42521494 47.58189266 13.125 47.6875 C14.49011719 47.78611328 14.49011719 47.78611328 15.8828125 47.88671875 C16.93082031 47.94279297 16.93082031 47.94279297 18 48 C18 49.98 18 51.96 18 54 C12.77542 55.74152667 7.83806607 55.61268869 2.625 53.875 C-0.6398849 51.54293936 -1.49328413 49.70445125 -3 46 C-3.34057617 42.56494141 -3.34057617 42.56494141 -3.29296875 38.8515625 C-3.28872391 38.19417084 -3.28447906 37.53677917 -3.28010559 36.85946655 C-3.26344977 34.78087609 -3.2258262 32.70329226 -3.1875 30.625 C-3.17243605 29.20704536 -3.15875065 27.78907536 -3.14648438 26.37109375 C-3.11359038 22.9137411 -3.06190165 19.45696897 -3 16 C-4.98 16 -6.96 16 -9 16 C-8.67 14.35 -8.34 12.7 -8 11 C-6.35 10.67 -4.7 10.34 -3 10 C-2.01 6.7 -1.02 3.4 0 0 Z " fill="#333333" transform="translate(134,33)"/>
<path d="M0 0 C2.64 0 5.28 0 8 0 C8 20.46 8 40.92 8 62 C5.36 62 2.72 62 0 62 C0 41.54 0 21.08 0 0 Z " fill="#343434" transform="translate(290,25)"/>
<path d="M0 0 C2.31 0 4.62 0 7 0 C7 14.52 7 29.04 7 44 C4.69 44 2.38 44 0 44 C0 29.48 0 14.96 0 0 Z " fill="#1B1B1B" transform="translate(359,43)"/>
<path d="M0 0 C2.375 0.6875 2.375 0.6875 3.375 1.6875 C3.5625 4.625 3.5625 4.625 3.375 7.6875 C1.375 9.6875 1.375 9.6875 -1.125 9.9375 C-3.625 9.6875 -3.625 9.6875 -5.625 7.6875 C-5.9375 4.6875 -5.9375 4.6875 -5.625 1.6875 C-2.625 -0.3125 -2.625 -0.3125 0 0 Z " fill="#4C4C4C" transform="translate(363.625,27.3125)"/>
<path d="M0 0 C0 0.66 0 1.32 0 2 C-0.99 2.33 -1.98 2.66 -3 3 C-4.65637688 4.63044124 -4.65637688 4.63044124 -6.1875 6.5625 C-6.71730469 7.20316406 -7.24710937 7.84382813 -7.79296875 8.50390625 C-8.19128906 8.99761719 -8.58960938 9.49132813 -9 10 C-9 5.69032084 -6.83274712 4.10253255 -4 1 C-2 0 -2 0 0 0 Z " fill="#7D7D7D" transform="translate(320,44)"/>
</svg>
