<?xml version="1.0" encoding="UTF-8"?>
<svg version="1.1" xmlns="http://www.w3.org/2000/svg" width="890" height="668">
<path d="M0 0 C293.7 0 587.4 0 890 0 C890 220.44 890 440.88 890 668 C596.3 668 302.6 668 0 668 C0 447.56 0 227.12 0 0 Z " fill="#564F48" transform="translate(0,0)"/>
<path d="M0 0 C293.7 0 587.4 0 890 0 C890 76.23 890 152.46 890 231 C746.12 231.33 602.24 231.66 454 232 C453.34 230.35 452.68 228.7 452 227 C451.01 226.34 450.02 225.68 449 225 C448.5359375 223.7625 448.5359375 223.7625 448.0625 222.5 C446.78794542 219.50104804 445.86201172 219.29252142 443 218 C442.67 217.01 442.34 216.02 442 215 C440.06959083 215.24495413 440.06959083 215.24495413 438.10018349 215.49485683 C430.21525601 216.27562079 422.31057748 216.11530798 414.39706421 216.08229065 C412.60652075 216.07859246 410.81597631 216.07534431 409.02543128 216.07250541 C404.12252565 216.06343741 399.21965774 216.0480108 394.31677222 216.03152263 C389.02311026 216.01484241 383.72943583 216.00409225 378.4357605 215.99261475 C369.26984973 215.97193334 360.10395508 215.94751111 350.93806076 215.92053413 C337.68578329 215.88153558 324.43349631 215.84820041 311.18120022 215.81623887 C289.67921982 215.76422756 268.17725398 215.70764838 246.67529297 215.64819336 C225.7905331 215.59045475 204.9057693 215.53488118 184.02099609 215.48217773 C182.72011476 215.47889223 181.41923343 215.47560673 180.07893145 215.47222167 C169.90489253 215.44654305 159.73085329 215.42098983 149.55681396 215.39547622 C99.7045233 215.27042873 49.85226791 215.13444517 0 215 C0 144.05 0 73.1 0 0 Z " fill="#4D3027" transform="translate(0,0)"/>
<path d="M0 0 C293.7 0 587.4 0 890 0 C890 29.7 890 59.4 890 90 C768.89 90 647.78 90 523 90 C523 88.35 523 86.7 523 85 C521.35 85 519.7 85 518 85 C518 84.34 518 83.68 518 83 C515.69 83 513.38 83 511 83 C511 82.34 511 81.68 511 81 C505.06 81 499.12 81 493 81 C493 80.34 493 79.68 493 79 C492.01 79 491.02 79 490 79 C489.67 77.68 489.34 76.36 489 75 C486.69 75 484.38 75 482 75 C481.67 73.68 481.34 72.36 481 71 C473.08 71 465.16 71 457 71 C457 70.34 457 69.68 457 69 C453.04 69 449.08 69 445 69 C445 66.36 445 63.72 445 61 C441.37 61 437.74 61 434 61 C434 60.34 434 59.68 434 59 C427.07 59 420.14 59 413 59 C413 58.34 413 57.68 413 57 C408.71 57 404.42 57 400 57 C400 56.34 400 55.68 400 55 C399.40763066 55.02969846 398.81526132 55.05939691 398.20494139 55.08999532 C378.58342777 56.0382319 359.00183658 56.13979071 339.36321568 56.11606562 C334.79239622 56.11167902 330.22157782 56.11321326 325.65075684 56.1139679 C317.76308219 56.11448801 309.87541592 56.1113953 301.98774338 56.10573006 C290.58399924 56.09754484 279.18025909 56.0949927 267.77651234 56.09374207 C249.26718433 56.09156248 230.75786076 56.08493228 212.24853516 56.07543945 C194.2862958 56.06623689 176.32405765 56.05917002 158.36181641 56.05493164 C157.25151087 56.05466892 156.14120534 56.05440619 154.99725418 56.05413551 C149.42624803 56.05283031 143.85524188 56.05156664 138.28423572 56.05032361 C92.18948724 56.0399851 46.0947442 56.02211835 0 56 C0 37.52 0 19.04 0 0 Z " fill="#532921" transform="translate(0,0)"/>
<path d="M0 0 C293.7 0 587.4 0 890 0 C890 19.14 890 38.28 890 58 C746.12 58.33 602.24 58.66 454 59 C453.34 57.35 452.68 55.7 452 54 C451.01 53.34 450.02 52.68 449 52 C448.690625 51.175 448.38125 50.35 448.0625 49.5 C446.78794542 46.50104804 445.86201172 46.29252142 443 45 C442.67 44.01 442.34 43.02 442 42 C440.71306055 42.16330276 439.4261211 42.32660551 438.10018349 42.49485683 C430.21525601 43.27562079 422.31057748 43.11530798 414.39706421 43.08229065 C412.60652075 43.07859246 410.81597631 43.07534431 409.02543128 43.07250541 C404.12252565 43.06343741 399.21965774 43.0480108 394.31677222 43.03152263 C389.02311026 43.01484241 383.72943583 43.00409225 378.4357605 42.99261475 C369.26984973 42.97193334 360.10395508 42.94751111 350.93806076 42.92053413 C337.68578329 42.88153558 324.43349631 42.84820041 311.18120022 42.81623887 C289.67921982 42.76422756 268.17725398 42.70764838 246.67529297 42.64819336 C225.7905331 42.59045475 204.90576933 42.53486944 184.02099609 42.48217773 C182.73324124 42.47892802 181.44548638 42.4756783 180.11870866 42.4723301 C173.65829631 42.45604018 167.19788385 42.43979256 160.73747134 42.42356598 C107.15829615 42.28893677 53.57914363 42.14661102 0 42 C0 28.14 0 14.28 0 0 Z " fill="#55362B" transform="translate(0,173)"/>
<path d="M0 0 C0 0.66 0 1.32 0 2 C4.29 2 8.58 2 13 2 C13 2.66 13 3.32 13 4 C19.93 4 26.86 4 34 4 C34 4.66 34 5.32 34 6 C37.63 6 41.26 6 45 6 C45 8.64 45 11.28 45 14 C48.96 14 52.92 14 57 14 C57 14.66 57 15.32 57 16 C64.92 16 72.84 16 81 16 C81.33 17.32 81.66 18.64 82 20 C84.31 20 86.62 20 89 20 C89.33 21.32 89.66 22.64 90 24 C90.99 24 91.98 24 93 24 C93 24.66 93 25.32 93 26 C98.94 26 104.88 26 111 26 C111 26.66 111 27.32 111 28 C113.31 28 115.62 28 118 28 C118 28.66 118 29.32 118 30 C119.65 30 121.3 30 123 30 C123 31.65 123 33.3 123 35 C244.11 35 365.22 35 490 35 C490 43.25 490 51.5 490 60 C445.22644591 60.12795413 400.45289043 60.25540931 355.67933298 60.38218227 C350.37557744 60.39719989 345.07182192 60.4122217 339.76806641 60.42724609 C338.7123261 60.43023671 337.6565858 60.43322732 336.56885336 60.43630856 C319.54605808 60.4845393 302.52326377 60.53310822 285.50046982 60.58180541 C267.99189451 60.63188462 250.48331817 60.68159278 232.97474086 60.73096704 C222.19888731 60.76136637 211.42303462 60.79204418 200.64718293 60.82309544 C193.2256566 60.84445309 185.80412928 60.86544554 178.38260116 60.88616979 C174.12127764 60.89807952 169.85995467 60.91013192 165.59863281 60.92262459 C157.26200256 60.9469603 148.92538074 60.96852234 140.5887294 60.98421299 C136.07222762 60.99339584 131.55580751 61.0098147 127.03934518 61.03068319 C123.97725971 61.04392153 120.91517023 61.05285675 117.85306738 61.06098932 C116.42770343 61.0657035 115.00234385 61.07218447 113.57699765 61.08071858 C100.30262672 61.15869264 87.20687092 60.31265754 74 59 C74 58.67 74 58.34 74 58 C60.14 57.01 60.14 57.01 46 56 C46 52.7 46 49.4 46 46 C40.39 46 34.78 46 29 46 C29 45.34 29 44.68 29 44 C28.38068604 44.03029297 27.76137207 44.06058594 27.12329102 44.09179688 C24.26979724 44.23009651 21.41615487 44.3650668 18.5625 44.5 C17.58861328 44.54769531 16.61472656 44.59539062 15.61132812 44.64453125 C9.73282211 44.91977902 3.88489861 45.04868582 -2 45 C-2 43.35 -2 41.7 -2 40 C-2.69398643 40.02959745 -3.38797287 40.05919491 -4.1029892 40.08968925 C-33.82303819 41.29037193 -63.55922306 41.14841706 -93.29748991 41.13529945 C-98.6907134 41.13298793 -104.08393374 41.13274213 -109.47715759 41.13381577 C-110.2560402 41.133969 -111.03492281 41.13412223 -111.83740792 41.13428011 C-113.42206164 41.13459999 -115.00671537 41.1349242 -116.59136909 41.1352527 C-131.36504792 41.13808639 -146.13872048 41.13485787 -160.91239828 41.12945233 C-173.40286509 41.12502179 -185.89332244 41.12577662 -198.38378906 41.13037109 C-339.38914062 41.1809057 -339.38914062 41.1809057 -400 40 C-400 27.13 -400 14.26 -400 1 C-353.95250487 0.87208087 -307.90500853 0.74460779 -261.85751028 0.61781773 C-256.403542 0.60280001 -250.94957373 0.58777822 -245.49560547 0.57275391 C-243.86713579 0.56826798 -243.86713579 0.56826798 -242.20576774 0.56369144 C-224.69798301 0.51545331 -207.19019921 0.46688627 -189.68241574 0.41819459 C-171.67663492 0.36812535 -153.67085313 0.31841671 -135.66507041 0.26903296 C-124.58212226 0.23862512 -113.49917492 0.20794625 -102.41622852 0.17690456 C-94.7844543 0.15555622 -87.15267916 0.13456262 -79.52090324 0.11383021 C-75.13806378 0.1019139 -70.75522483 0.08985837 -66.37238693 0.07737541 C-44.24819736 0.01448545 -22.12428018 -0.0127556 0 0 Z " fill="#483124" transform="translate(400,55)"/>
<path d="M0 0 C40.96875363 -0.02268227 81.93750558 -0.04055036 122.90626424 -0.05106533 C127.76067031 -0.0523158 132.61507637 -0.05361014 137.46948242 -0.05493164 C138.43576659 -0.05519395 139.40205076 -0.05545626 140.39761627 -0.05572652 C155.97258642 -0.0600588 171.54755281 -0.0679327 187.12252074 -0.0771528 C203.14512569 -0.08655764 219.16772869 -0.09206996 235.19033629 -0.09408849 C245.04951892 -0.09544965 254.90869095 -0.09972278 264.76787031 -0.10791647 C271.56051684 -0.11326853 278.35315801 -0.11478544 285.14580648 -0.11350138 C289.0444899 -0.11287097 292.943155 -0.11372352 296.84183502 -0.11920547 C317.58021819 -0.14696296 338.27448075 0.25240972 359 1 C359.33 2.65 359.66 4.3 360 6 C361.65 6.33 363.3 6.66 365 7 C365 7.33 365 7.66 365 8 C365.94875 8.0825 366.8975 8.165 367.875 8.25 C371 9 371 9 372.25 11 C372.4975 11.66 372.745 12.32 373 13 C375.48092593 14.24046296 377.0474229 14.09844235 379.82421875 14.0625 C380.8901123 14.05412109 381.95600586 14.04574219 383.05419922 14.03710938 C384.25318848 14.02486328 385.45217773 14.01261719 386.6875 14 C402.58775135 13.91040965 418.477992 14.19576814 434.375 14.5 C435.6375058 14.52400879 436.9000116 14.54801758 438.20077515 14.57275391 C445.46725747 14.71150807 452.73366484 14.8537445 460 15 C460.33 15.99 460.66 16.98 461 18 C463.64 18 466.28 18 469 18 C469 18.66 469 19.32 469 20 C470.98 20 472.96 20 475 20 C475 20.66 475 21.32 475 22 C476.98 22 478.96 22 481 22 C482.00484204 23.95585325 483.00373805 25.91476237 484 27.875 C484.556875 28.96554688 485.11375 30.05609375 485.6875 31.1796875 C487 34 487 34 487 36 C489.31 36 491.62 36 494 36 C494 36.66 494 37.32 494 38 C496.97 38 499.94 38 503 38 C503 38.66 503 39.32 503 40 C511.25 40 519.5 40 528 40 C528 40.66 528 41.32 528 42 C528.66 42 529.32 42 530 42 C530 42.66 530 43.32 530 44 C526.75972128 44.96459299 523.84417746 45.1234379 520.4697876 45.12025452 C518.78291588 45.12231651 518.78291588 45.12231651 517.06196594 45.12442017 C515.83269882 45.12082489 514.6034317 45.11722961 513.33691406 45.11352539 C512.03910507 45.11367142 510.74129608 45.11381744 509.40415955 45.1139679 C505.84871082 45.11425478 502.29329584 45.10837566 498.73785496 45.10139394 C495.02093743 45.09514225 491.30401914 45.09455516 487.58709717 45.09336853 C480.55007022 45.09026057 473.5130588 45.08205439 466.47603869 45.07201904 C458.46400862 45.06084129 450.45197781 45.05534326 442.43994188 45.05032361 C425.95995216 45.03987134 409.47997806 45.02228225 393 45 C393 44.67 393 44.34 393 44 C395.64 44 398.28 44 401 44 C401 43.34 401 42.68 401 42 C396.05 42.495 396.05 42.495 391 43 C391 42.01 391 41.02 391 40 C261.97 39.67 132.94 39.34 0 39 C0 26.13 0 13.26 0 0 Z " fill="#435742" transform="translate(0,9)"/>
<path d="M0 0 C50.00603078 -0.02281454 100.0120609 -0.04051069 150.01809587 -0.05106533 C155.92230155 -0.05231603 161.82650722 -0.05361035 167.73071289 -0.05493164 C168.9061297 -0.05519395 170.0815465 -0.05545626 171.292582 -0.05572652 C190.32260627 -0.06007735 209.35262752 -0.06796169 228.38265 -0.0771528 C247.91044722 -0.08650563 267.43824285 -0.09205907 286.96604222 -0.09408849 C299.01487273 -0.09546033 311.06369469 -0.09979259 323.11252256 -0.10791647 C331.37581019 -0.11320402 339.6390934 -0.11479971 347.90238259 -0.11350138 C352.6692034 -0.11286115 357.43600929 -0.11383993 362.20282745 -0.11920547 C366.57102586 -0.12408633 370.93919936 -0.12430795 375.30739894 -0.12089889 C376.88362779 -0.1204778 378.45985822 -0.12173388 380.03608397 -0.12488318 C388.40626449 -0.14062781 396.67677174 0.02637478 405 1 C405 1.99 405 2.98 405 4 C409.29 4.33 413.58 4.66 418 5 C418 5.33 418 5.66 418 6 C573.76 6.33 729.52 6.66 890 7 C890 10.63 890 14.26 890 18 C837.84798565 18.12864733 785.6959686 18.25614478 733.54394787 18.38218227 C727.33211432 18.39719556 721.12028078 18.41221799 714.90844727 18.42724609 C713.67221945 18.43023671 712.43599164 18.43322732 711.16230238 18.43630856 C691.36560562 18.48422126 671.56891074 18.53286812 651.77221649 18.58180541 C631.33100394 18.63231887 610.88978948 18.68199921 590.44857317 18.73096704 C579.02104684 18.75836447 567.5935216 18.78610408 556.16599846 18.81480408 C470.46267707 19.02962593 384.76183115 19.04507055 299.05856023 18.80645686 C288.65178291 18.77752809 278.245002 18.74999584 267.83822083 18.72249681 C249.30173133 18.67348184 230.76524469 18.62346489 212.22875977 18.57275391 C194.295493 18.52369546 176.36222497 18.47514873 158.42895508 18.42724609 C157.31077971 18.4242591 156.19260434 18.4212721 155.04054487 18.41819459 C149.42717487 18.40320254 143.81380484 18.38822008 138.2004348 18.37324238 C92.13361915 18.25031376 46.06680813 18.12571472 0 18 C0 12.06 0 6.12 0 0 Z " fill="#333524" transform="translate(0,155)"/>
<path d="M0 0 C145.86 0 291.72 0 442 0 C442.33 0.66 442.66 1.32 443 2 C443.763125 2.04125 444.52625 2.0825 445.3125 2.125 C448 3 448 3 449.1484375 4.734375 C449.83053111 6.13959042 450.48410429 7.55908308 451.10546875 8.9921875 C452.04134283 11.24409498 452.04134283 11.24409498 454 14 C454 14.99 454 15.98 454 17 C454.66276168 16.92920764 455.32552336 16.85841528 456.00836873 16.7854777 C465.19288084 15.90375314 474.32537383 15.86263263 483.53973389 15.87974548 C485.29900606 15.87930876 487.05827818 15.878432 488.81754994 15.87715632 C493.62471344 15.87493116 498.43185446 15.87890542 503.2390151 15.88393438 C508.43312673 15.88826723 513.62723717 15.88679045 518.8213501 15.8860321 C527.81151376 15.88550866 536.80167014 15.88863667 545.79183197 15.89426994 C558.78997451 15.90240931 571.78811355 15.90500266 584.78625837 15.90625793 C605.8767133 15.90844462 626.96716436 15.91509433 648.05761719 15.92456055 C668.54068991 15.93374457 689.02376157 15.94082056 709.50683594 15.94506836 C711.4018361 15.94546244 711.4018361 15.94546244 713.3351191 15.94586449 C719.67311769 15.94716956 726.01111629 15.94843326 732.34911489 15.94967639 C784.89941261 15.96003708 837.44970611 15.97764498 890 16 C890 18.97 890 21.94 890 25 C740.84 25 591.68 25 438 25 C438.33 23.02 438.66 21.04 439 19 C294.13 19 149.26 19 0 19 C0 12.73 0 6.46 0 0 Z " fill="#5B493E" transform="translate(0,215)"/>
<path d="M0 0 C145.86 0 291.72 0 442 0 C442 0.33 442 0.66 442 1 C663.76 1.495 663.76 1.495 890 2 C890 8.93 890 15.86 890 23 C746.12 23.33 602.24 23.66 454 24 C453.34 22.35 452.68 20.7 452 19 C451.01 18.34 450.02 17.68 449 17 C448.5359375 15.7625 448.5359375 15.7625 448.0625 14.5 C446.78794542 11.50104804 445.86201172 11.29252142 443 10 C442.67 9.01 442.34 8.02 442 7 C440.71306055 7.16330276 439.4261211 7.32660551 438.10018349 7.49485683 C430.21525601 8.27562079 422.31057748 8.11530798 414.39706421 8.08229065 C412.60652075 8.07859246 410.81597631 8.07534431 409.02543128 8.07250541 C404.12252565 8.06343741 399.21965774 8.0480108 394.31677222 8.03152263 C389.02311026 8.01484241 383.72943583 8.00409225 378.4357605 7.99261475 C369.26984973 7.97193334 360.10395508 7.94751111 350.93806076 7.92053413 C337.68578329 7.88153558 324.43349631 7.84820041 311.18120022 7.81623887 C289.67921982 7.76422756 268.17725398 7.70764838 246.67529297 7.64819336 C225.7905331 7.59045475 204.90576933 7.53486944 184.02099609 7.48217773 C182.73324124 7.47892802 181.44548638 7.4756783 180.11870866 7.4723301 C173.65829631 7.45604018 167.19788385 7.43979256 160.73747134 7.42356598 C107.1582963 7.28893677 53.57914273 7.14689298 0 7 C0 4.69 0 2.38 0 0 Z " fill="#512F2A" transform="translate(0,208)"/>
<path d="M0 0 C0 0.66 0 1.32 0 2 C4.29 2 8.58 2 13 2 C13 2.66 13 3.32 13 4 C19.93 4 26.86 4 34 4 C34 4.66 34 5.32 34 6 C37.63 6 41.26 6 45 6 C45 8.64 45 11.28 45 14 C48.96 14 52.92 14 57 14 C57 14.66 57 15.32 57 16 C64.92 16 72.84 16 81 16 C81.33 17.32 81.66 18.64 82 20 C84.31 20 86.62 20 89 20 C89.33 21.32 89.66 22.64 90 24 C90.99 24 91.98 24 93 24 C93 24.66 93 25.32 93 26 C98.94 26 104.88 26 111 26 C111 26.66 111 27.32 111 28 C113.31 28 115.62 28 118 28 C118 28.66 118 29.32 118 30 C119.65 30 121.3 30 123 30 C123 30.33 123 30.66 123 31 C111.78 31 100.56 31 89 31 C89 30.67 89 30.34 89 30 C85.04 29.505 85.04 29.505 81 29 C81.33 28.01 81.66 27.02 82 26 C58.44310716 24.91279426 34.91321318 24.86047685 11.33612263 24.88393438 C5.79806665 24.88831372 0.26001158 24.88678723 -5.27804565 24.8860321 C-14.83867488 24.88551154 -24.39929721 24.88860901 -33.9599247 24.89426994 C-47.78243886 24.90244898 -61.60494974 24.90500668 -75.42746606 24.90625793 C-97.86172074 24.90843847 -120.29597207 24.9150626 -142.73022461 24.92456055 C-164.50366192 24.93376798 -186.27709824 24.94084027 -208.05053711 24.94506836 C-209.06002671 24.94526565 -209.06002671 24.94526565 -210.08991005 24.94546692 C-216.84934123 24.94678562 -223.60877242 24.94806141 -230.36820362 24.94930578 C-286.91213835 24.95971923 -343.45606892 24.97741601 -400 25 C-400 17.08 -400 9.16 -400 1 C-353.95250492 0.87206143 -307.90500853 0.74460779 -261.85751028 0.61781773 C-256.403542 0.60280001 -250.94957373 0.58777822 -245.49560547 0.57275391 C-243.86713579 0.56826798 -243.86713579 0.56826798 -242.20576774 0.56369144 C-224.69798301 0.51545331 -207.19019921 0.46688627 -189.68241574 0.41819459 C-171.67663492 0.36812535 -153.67085313 0.31841671 -135.66507041 0.26903296 C-124.58212226 0.23862512 -113.49917492 0.20794625 -102.41622852 0.17690456 C-94.7844543 0.15555622 -87.15267916 0.13456262 -79.52090324 0.11383021 C-75.13806378 0.1019139 -70.75522483 0.08985837 -66.37238693 0.07737541 C-44.24819736 0.01448545 -22.12428018 -0.0127556 0 0 Z " fill="#204725" transform="translate(400,55)"/>
<path d="M0 0 C293.7 0 587.4 0 890 0 C890 3.96 890 7.92 890 12 C736.55 12 583.1 12 425 12 C425 11.34 425 10.68 425 10 C412.79 10 400.58 10 388 10 C388 9.67 388 9.34 388 9 C378.1 8.34 368.2 7.68 358 7 C358 6.34 358 5.68 358 5 C356.81059091 5.16330276 355.62118181 5.32660551 354.39573002 5.49485683 C347.82867981 6.21808611 341.26612568 6.11643592 334.6683197 6.08229065 C333.22099793 6.07859146 331.77367494 6.07534356 330.32635123 6.07250541 C326.36751219 6.06344686 322.40872006 6.04802141 318.44990599 6.03152263 C314.1739613 6.01482938 309.8980011 6.00408865 305.62203979 5.99261475 C298.21969718 5.97194174 290.8173746 5.94752079 283.41505241 5.92053413 C272.71261567 5.8815217 262.01016713 5.84819288 251.30770726 5.81623887 C233.94251019 5.76423834 216.57733119 5.70765898 199.2121582 5.64819336 C182.34627994 5.59044735 165.48039682 5.53486201 148.61450195 5.48217773 C147.57440501 5.47892802 146.53430806 5.4756783 145.46269303 5.4723301 C140.24468798 5.45604008 135.0266828 5.43979248 129.80867755 5.42356598 C86.53909609 5.28895512 43.26954133 5.1469104 0 5 C0 3.35 0 1.7 0 0 Z " fill="#4D2D22" transform="translate(0,0)"/>
<path d="M0 0 C293.7 0 587.4 0 890 0 C890 2.97 890 5.94 890 9 C596.3 9 302.6 9 0 9 C0 6.03 0 3.06 0 0 Z " fill="#5C4639" transform="translate(0,173)"/>
<path d="M0 0 C145.86 0 291.72 0 442 0 C442 5.61 442 11.22 442 17 C296.14 16.67 150.28 16.34 0 16 C0 10.72 0 5.44 0 0 Z " fill="#23442A" transform="translate(0,190)"/>
<path d="M0 0 C124.41 0 248.82 0 377 0 C377 1.65 377 3.3 377 5 C377.82830322 4.9285376 378.65660645 4.8570752 379.51000977 4.78344727 C390.99245434 3.89648788 402.42613014 3.88544791 413.9375 3.9375 C415.89257697 3.94252924 417.8476552 3.94708961 419.80273438 3.95117188 C424.53518818 3.96205496 429.26757964 3.97923957 434 4 C434 4.99 434 5.98 434 7 C434.98742187 6.98839844 435.97484375 6.97679687 436.9921875 6.96484375 C438.27351563 6.95582031 439.55484375 6.94679687 440.875 6.9375 C442.15117187 6.92589844 443.42734375 6.91429687 444.7421875 6.90234375 C448 7 448 7 450 8 C452.89369024 8.07484972 455.7632214 8.0912004 458.65625 8.0625 C459.51432251 8.05871338 460.37239502 8.05492676 461.25646973 8.05102539 C464.0043634 8.03878199 466.7521536 8.02015183 469.5 8 C473.11458049 7.97349181 476.72910925 7.95345119 480.34375 7.9375 C481.18023071 7.92920166 482.01671143 7.92090332 482.87854004 7.91235352 C488.77439638 7.88719819 488.77439638 7.88719819 491 9 C493.15730244 9.10038718 495.31779486 9.1339262 497.47742653 9.1386652 C498.15339532 9.14150742 498.82936411 9.14434964 499.5258168 9.14727798 C501.81325393 9.15566515 504.10064068 9.15689632 506.38809204 9.15821838 C508.03561473 9.162781 509.68313626 9.16778058 511.33065641 9.17318195 C515.87536312 9.18680668 520.42006232 9.19419391 524.96478415 9.20060861 C529.8591459 9.20859358 534.75349193 9.22229787 539.64784241 9.23532104 C548.13343439 9.25711088 556.61902794 9.27524617 565.10463333 9.29092598 C577.3735189 9.31360182 589.64238707 9.34174779 601.91125791 9.37124526 C621.81485437 9.41894925 641.71845794 9.4622058 661.62207031 9.50268555 C680.96094312 9.54202621 700.29980962 9.58344899 719.63867188 9.62768555 C721.42560056 9.63177196 721.42560056 9.63177196 723.24862881 9.63594092 C729.22473205 9.64962016 735.2008352 9.66334048 741.1769383 9.67708123 C790.78461237 9.79109009 840.39230011 9.89788967 890 10 C890 10.99 890 11.98 890 13 C596.3 13 302.6 13 0 13 C0 8.71 0 4.42 0 0 Z " fill="#4B4835" transform="translate(0,127)"/>
<path d="M0 0 C131.34 0 262.68 0 398 0 C398 1.65 398 3.3 398 5 C398.66 4.67 399.32 4.34 400 4 C402.17824961 3.91440882 404.35915255 3.89286588 406.5390625 3.90234375 C407.84101563 3.90556641 409.14296875 3.90878906 410.484375 3.91210938 C411.86458399 3.92046534 413.24479232 3.92893029 414.625 3.9375 C416.01301926 3.94251499 417.40104022 3.9470779 418.7890625 3.95117188 C422.19275132 3.96299024 425.59635439 3.97946566 429 4 C429 4.66 429 5.32 429 6 C434.61 6 440.22 6 446 6 C446 9.3 446 12.6 446 16 C448.97 16 451.94 16 455 16 C455 16.33 455 16.66 455 17 C431.9 17 408.8 17 385 17 C385 16.67 385 16.34 385 16 C257.95 15.67 130.9 15.34 0 15 C0 10.05 0 5.1 0 0 Z " fill="#31593C" transform="translate(0,95)"/>
<path d="M0 0 C2.99858709 0.00972132 5.99717432 0.01939696 8.99576157 0.0290677 C57.63838158 0.18623797 106.28090415 0.36427712 154.9233343 0.57217997 C154.9233343 3.54217997 154.9233343 6.51217997 154.9233343 9.57217997 C-43.5716657 10.06717997 -43.5716657 10.06717997 -246.0766657 10.57217997 C-246.0766657 9.25217997 -246.0766657 7.93217997 -246.0766657 6.57217997 C-247.31358544 6.57290861 -247.31358544 6.57290861 -248.57549345 6.57365197 C-304.46695368 6.60484643 -360.3576373 6.52411038 -416.24889873 6.37863663 C-427.34044815 6.349811 -438.43200058 6.32222622 -449.52355323 6.29467678 C-469.28238902 6.24556891 -489.04122242 6.19556003 -508.80005437 6.14493388 C-527.92472762 6.09593462 -547.04940194 6.04739125 -566.17407781 5.99942607 C-567.36499196 5.99643907 -568.55590612 5.99345208 -569.78290858 5.99037457 C-575.76097883 5.97538334 -581.73904911 5.96040072 -587.7171194 5.94542235 C-636.83697156 5.82233902 -685.95681989 5.69777236 -735.0766657 5.57217997 C-735.0766657 3.92217997 -735.0766657 2.27217997 -735.0766657 0.57217997 C-657.42245284 0.37078731 -579.76820278 0.1874068 -502.11391115 0.01936758 C-499.13659923 0.01292465 -496.15928735 0.00646862 -493.18197548 0 C-419.3353881 -0.16042239 -345.48874774 -0.30827459 0 0 Z " fill="#443025" transform="translate(735.076665699482,139.42782002687454)"/>
<path d="M0 0 C40.96875337 -0.0228919 81.93750573 -0.04055036 122.90626424 -0.05106533 C127.76067031 -0.0523158 132.61507637 -0.05361014 137.46948242 -0.05493164 C138.43576659 -0.05519395 139.40205076 -0.05545626 140.39761627 -0.05572652 C155.97258642 -0.0600588 171.54755281 -0.0679327 187.12252074 -0.0771528 C203.14512569 -0.08655764 219.16772869 -0.09206996 235.19033629 -0.09408849 C245.04951892 -0.09544965 254.90869095 -0.09972278 264.76787031 -0.10791647 C271.56051684 -0.11326853 278.35315801 -0.11478544 285.14580648 -0.11350138 C289.0444899 -0.11287097 292.943155 -0.11372352 296.84183502 -0.11920547 C317.58021819 -0.14696296 338.27448075 0.25240972 359 1 C359.33 2.65 359.66 4.3 360 6 C361.65 6.33 363.3 6.66 365 7 C365 7.33 365 7.66 365 8 C365.94875 8.0825 366.8975 8.165 367.875 8.25 C371 9 371 9 372.25 11 C372.4975 11.66 372.745 12.32 373 13 C375.48092593 14.24046296 377.0474229 14.09844235 379.82421875 14.0625 C380.8901123 14.05412109 381.95600586 14.04574219 383.05419922 14.03710938 C384.25318848 14.02486328 385.45217773 14.01261719 386.6875 14 C402.58775135 13.91040965 418.477992 14.19576814 434.375 14.5 C435.6375058 14.52400879 436.9000116 14.54801758 438.20077515 14.57275391 C445.46725747 14.71150807 452.73366484 14.8537445 460 15 C460 15.33 460 15.66 460 16 C455.36468119 16.90943546 450.8860757 17.13855988 446.17902851 17.11699677 C445.02622906 17.11773424 445.02622906 17.11773424 443.85014074 17.11848661 C441.28868288 17.11889228 438.72729591 17.11213177 436.16584778 17.10534668 C434.33276355 17.10411523 432.49967899 17.1033135 430.66659439 17.10291004 C425.69524324 17.10050347 420.72392108 17.09177275 415.75258003 17.08182585 C410.48343499 17.07229072 405.21428526 17.0683632 399.94513416 17.063591 C387.99556975 17.05147578 376.0460316 17.03004687 364.09648567 17.00613165 C361.11853974 17.00023473 358.14059344 16.99460552 355.16264677 16.98909378 C330.60899613 16.94355685 306.05541727 16.87940034 281.50183405 16.80645761 C271.70233753 16.77739497 261.90283666 16.7499313 252.10333548 16.72249681 C234.651651 16.67360113 217.19996998 16.62357473 199.74829102 16.57275391 C182.87459487 16.52361883 166.00089719 16.47506823 149.12719727 16.42724609 C148.07332515 16.4242591 147.01945303 16.4212721 145.93364539 16.41819459 C140.64256469 16.40320147 135.35148397 16.38821923 130.06040323 16.37324238 C86.70693059 16.25051285 43.35346355 16.12589353 0 16 C0 10.72 0 5.44 0 0 Z " fill="#285433" transform="translate(0,9)"/>
<path d="M0 0 C145.86 0 291.72 0 442 0 C442.33 0.66 442.66 1.32 443 2 C443.763125 2.04125 444.52625 2.0825 445.3125 2.125 C448 3 448 3 449.1484375 4.734375 C449.83053111 6.13959042 450.48410429 7.55908308 451.10546875 8.9921875 C452.04134283 11.24409498 452.04134283 11.24409498 454 14 C454 14.99 454 15.98 454 17 C448.06 17 442.12 17 436 17 C436 16.67 436 16.34 436 16 C435.28972656 15.95101562 434.57945312 15.90203125 433.84765625 15.8515625 C432.92855469 15.77679688 432.00945312 15.70203125 431.0625 15.625 C429.68771484 15.52058594 429.68771484 15.52058594 428.28515625 15.4140625 C427.53105469 15.27742187 426.77695312 15.14078125 426 15 C425.67 14.34 425.34 13.68 425 13 C284.75 12.67 144.5 12.34 0 12 C0 8.04 0 4.08 0 0 Z " fill="#1E2A1F" transform="translate(0,215)"/>
<path d="M0 0 C0.33 1.98 0.66 3.96 1 6 C3.31 6.33 5.62 6.66 8 7 C8 7.33 8 7.66 8 8 C13.61 8.33 19.22 8.66 25 9 C25 9.99 25 10.98 25 12 C58.33 12 91.66 12 126 12 C126 12.66 126 13.32 126 14 C134.25 14 142.5 14 151 14 C151 14.66 151 15.32 151 16 C151.66 16 152.32 16 153 16 C153 16.66 153 17.32 153 18 C149.75972128 18.96459299 146.84417746 19.1234379 143.4697876 19.12025452 C141.78291588 19.12231651 141.78291588 19.12231651 140.06196594 19.12442017 C138.83269882 19.12082489 137.6034317 19.11722961 136.33691406 19.11352539 C135.03910507 19.11367142 133.74129608 19.11381744 132.40415955 19.1139679 C128.84871082 19.11425478 125.29329584 19.10837566 121.73785496 19.10139394 C118.02093743 19.09514225 114.30401914 19.09455516 110.58709717 19.09336853 C103.55007022 19.09026057 96.5130588 19.08205439 89.47603869 19.07201904 C81.46400862 19.06084129 73.45197781 19.05534326 65.43994188 19.05032361 C48.95995216 19.03987134 32.47997806 19.02228225 16 19 C16 18.67 16 18.34 16 18 C18.64 18 21.28 18 24 18 C24 17.34 24 16.68 24 16 C19.05 16.495 19.05 16.495 14 17 C14 16.01 14 15.02 14 14 C-115.03 13.67 -244.06 13.34 -377 13 C-377 9.04 -377 5.08 -377 1 C-332.29399404 0.87222702 -287.58798714 0.74479034 -242.8819789 0.61781773 C-237.59408944 0.60279894 -232.30619999 0.5877773 -227.01831055 0.57275391 C-225.43934381 0.56826798 -225.43934381 0.56826798 -223.82847876 0.56369144 C-206.82411861 0.51537445 -189.81975913 0.46682761 -172.81539988 0.41819459 C-155.34416777 0.36823146 -137.87293497 0.31851822 -120.40170151 0.26903296 C-109.63656462 0.23853418 -98.87142831 0.20784464 -88.10629267 0.17690456 C-80.70633761 0.15565509 -73.30638187 0.13465015 -65.90642559 0.11383021 C-61.64849049 0.10184342 -57.39055574 0.08975584 -53.13262177 0.07737541 C-35.42172076 0.02594835 -17.71099825 -0.01505329 0 0 Z " fill="#365336" transform="translate(377,35)"/>
<path d="M0 0 C2.82941915 1.11044707 5.27587414 1.38289452 8.30078125 1.6015625 C9.76451172 1.71371094 9.76451172 1.71371094 11.2578125 1.828125 C11.99386719 1.87710938 12.72992188 1.92609375 13.48828125 1.9765625 C13.48828125 2.9665625 13.48828125 3.9565625 13.48828125 4.9765625 C153.07828125 4.9765625 292.66828125 4.9765625 436.48828125 4.9765625 C436.48828125 8.6065625 436.48828125 12.2365625 436.48828125 15.9765625 C292.60828125 16.3065625 148.72828125 16.6365625 0.48828125 16.9765625 C-0.17171875 15.3265625 -0.83171875 13.6765625 -1.51171875 11.9765625 C-2.50171875 11.3165625 -3.49171875 10.6565625 -4.51171875 9.9765625 C-4.97578125 8.7390625 -4.97578125 8.7390625 -5.44921875 7.4765625 C-6.72377333 4.47761054 -7.64970703 4.26908392 -10.51171875 2.9765625 C-10.84171875 1.9865625 -11.17171875 0.9965625 -11.51171875 -0.0234375 C-12.7986582 0.13986526 -14.08559765 0.30316801 -15.41153526 0.47141933 C-23.29646274 1.25218329 -31.20114127 1.09187048 -39.11465454 1.05885315 C-40.905198 1.05515496 -42.69574244 1.05190681 -44.48628747 1.04906791 C-49.3891931 1.03999991 -54.29206101 1.0245733 -59.19494653 1.00808513 C-64.48860849 0.99140491 -69.78228292 0.98065475 -75.07595825 0.96917725 C-84.24186902 0.94849584 -93.40776367 0.92407361 -102.57365799 0.89709663 C-115.82593546 0.85809808 -129.07822244 0.82476291 -142.33051853 0.79280137 C-163.83249893 0.74079006 -185.33446477 0.68421088 -206.83642578 0.62475586 C-227.72118565 0.56701725 -248.60594942 0.51143194 -269.49072266 0.45874023 C-270.77847751 0.45549052 -272.06623237 0.4522408 -273.39301009 0.4488926 C-279.85342244 0.43260268 -286.3138349 0.41635506 -292.77424741 0.40012848 C-346.35342245 0.26549927 -399.93257602 0.12345548 -453.51171875 -0.0234375 C-453.51171875 -0.3534375 -453.51171875 -0.6834375 -453.51171875 -1.0234375 C-396.92349376 -1.17378609 -340.33525729 -1.31881567 -283.74700045 -1.4566851 C-277.07026583 -1.47295661 -270.39353132 -1.4892711 -263.71679688 -1.50561523 C-263.05237643 -1.50724084 -262.38795599 -1.50886644 -261.70340159 -1.5105413 C-240.16202742 -1.5632688 -218.62066334 -1.61928977 -197.07930203 -1.67701607 C-174.31818176 -1.73799319 -151.55705445 -1.79522307 -128.79591477 -1.84849304 C-115.1578479 -1.88053283 -101.51979552 -1.91558231 -87.88174637 -1.95444941 C-78.53689446 -1.98079532 -69.19203822 -2.00342767 -59.84716992 -2.02310867 C-54.45110549 -2.03458383 -49.05505834 -2.04772607 -43.65900993 -2.06526756 C-38.72177022 -2.08128151 -33.78454274 -2.09264661 -28.84728314 -2.10026859 C-27.05848929 -2.10385889 -25.26969793 -2.1091751 -23.48091494 -2.11636586 C-21.05383777 -2.12587329 -18.626829 -2.12915697 -16.19973564 -2.13086796 C-15.501564 -2.13509932 -14.80339236 -2.13933068 -14.08406401 -2.14369026 C-9.16861847 -2.13754834 -4.58137588 -1.86675036 0 0 Z " fill="#552929" transform="translate(453.51171875,215.0234375)"/>
<path d="M0 0 C7.22641384 -0.01816873 14.45282307 -0.03219373 21.67925426 -0.04125461 C25.30709557 -0.04586382 28.93491407 -0.0518925 32.56274247 -0.06277561 C53.01169001 -0.12236898 73.4137321 0.31919076 93.84836578 1.02523804 C93.84836578 2.01523804 93.84836578 3.00523804 93.84836578 4.02523804 C97.49666555 6.33582789 101.04904973 6.36805402 105.23899078 6.43930054 C105.94360443 6.45866669 106.64821808 6.47803284 107.37418365 6.49798584 C109.61545618 6.55756539 111.85678068 6.60407927 114.09836578 6.65023804 C115.62182516 6.68843783 117.1452634 6.72749072 118.66867828 6.76742554 C122.39504684 6.86324822 126.12157414 6.94735911 129.84836578 7.02523804 C129.84836578 8.34523804 129.84836578 9.66523804 129.84836578 11.02523804 C250.95836578 11.02523804 372.06836578 11.02523804 496.84836578 11.02523804 C496.84836578 12.67523804 496.84836578 14.32523804 496.84836578 16.02523804 C446.54526104 16.15286919 396.24215576 16.28028712 345.93904975 16.40742031 C339.9962241 16.42244005 334.05339846 16.43746154 328.11057281 16.45248413 C326.33595717 16.45697005 326.33595717 16.45697005 324.5254907 16.4615466 C305.38568136 16.50993293 286.24587239 16.55846172 267.10606354 16.60704345 C247.45733104 16.65691376 227.80859815 16.70663033 208.1598649 16.75620508 C196.04195601 16.786784 183.92404743 16.8174819 171.80613923 16.84833348 C163.48908674 16.86949676 155.17203387 16.8905103 146.85498071 16.91140783 C142.06121752 16.92345706 137.26745451 16.93557064 132.47369194 16.94786263 C128.07501663 16.95914007 123.67634088 16.97022723 119.27766472 16.98117024 C117.6959637 16.98513749 116.11426285 16.98917143 114.5325622 16.99328321 C104.30447213 17.01982332 94.07649008 17.02994128 83.84836578 17.02523804 C84.17836578 16.03523804 84.50836578 15.04523804 84.84836578 14.02523804 C78.90836578 14.52023804 78.90836578 14.52023804 72.84836578 15.02523804 C72.84836578 14.36523804 72.84836578 13.70523804 72.84836578 13.02523804 C66.90836578 13.02523804 60.96836578 13.02523804 54.84836578 13.02523804 C54.84836578 12.36523804 54.84836578 11.70523804 54.84836578 11.02523804 C41.64836578 11.02523804 28.44836578 11.02523804 14.84836578 11.02523804 C14.51836578 10.03523804 14.18836578 9.04523804 13.84836578 8.02523804 C-31.51940237 7.14357881 -76.87788227 6.83033471 -122.25342443 6.72815692 C-131.67511991 6.70676885 -141.09680016 6.68045945 -150.51848251 6.65399278 C-167.30463937 6.60696012 -184.09080337 6.56353346 -200.87697601 6.52255249 C-217.13121337 6.48286204 -233.38544453 6.44136247 -249.63967133 6.39755249 C-250.65064622 6.39482822 -251.66162112 6.39210395 -252.70323163 6.38929712 C-257.77770224 6.3756122 -262.85217277 6.36189301 -267.92664325 6.34815681 C-309.66829379 6.23520933 -351.40995789 6.12818821 -393.15163422 6.02523804 C-393.15163422 4.37523804 -393.15163422 2.72523804 -393.15163422 1.02523804 C-345.55122499 0.89674046 -297.95081314 0.76925246 -250.35039776 0.64305577 C-244.68746354 0.62804154 -239.02452934 0.61301924 -233.36159515 0.59799194 C-232.23455143 0.59500133 -231.1075077 0.59201071 -229.94631113 0.58892947 C-211.8711589 0.54094789 -193.79600848 0.49231744 -175.72085868 0.44343263 C-157.07305784 0.39301406 -138.42525515 0.34332647 -119.77745068 0.29427099 C-109.3458913 0.26680968 -98.91433295 0.2390401 -88.48277664 0.21043396 C-64.95567886 0.14606846 -41.4285813 0.088109 -17.90144154 0.04137829 C-11.93428935 0.02935576 -5.96714509 0.0151071 0 0 Z " fill="#2B2A15" transform="translate(393.1516342163086,78.97476196289063)"/>
<path d="M0 0 C44.86852936 -0.01712693 89.73705908 -0.03304643 134.60559082 -0.04234314 C135.27018776 -0.0424812 135.93478471 -0.04261925 136.61952095 -0.04276149 C151.06473679 -0.04575475 165.50995266 -0.04852488 179.95516858 -0.05106533 C187.03961109 -0.05231261 194.12405359 -0.05360917 201.20849609 -0.05493164 C201.91346454 -0.0550624 202.61843299 -0.05519316 203.34476412 -0.05532788 C226.17428483 -0.05958543 249.00380306 -0.0670939 271.83332226 -0.07629722 C295.30339323 -0.08574153 318.77346281 -0.09188816 342.24353564 -0.09391499 C357.36152031 -0.09522752 372.47949769 -0.09941234 387.59748006 -0.10791647 C397.51241723 -0.11320913 407.42735073 -0.11479856 417.34228921 -0.11350138 C423.05957854 -0.11286194 428.77685542 -0.11383083 434.49414253 -0.11920547 C439.73661769 -0.12409758 444.97907211 -0.12430074 450.22154826 -0.12089889 C452.11011156 -0.12047889 453.99867619 -0.12172537 455.88723689 -0.12488318 C466.97007849 -0.14232491 477.94633244 0.15344232 489 1 C489 2.32 489 3.64 489 5 C490.15573989 4.83748025 491.31147978 4.6749605 492.50224209 4.50751591 C499.63609756 3.72252096 506.79771837 3.8654099 513.96412659 3.87974548 C515.588816 3.879309 517.21350534 3.87843268 518.83819431 3.87715632 C523.28728615 3.87492645 527.7363538 3.87891197 532.18544257 3.88393438 C536.98901023 3.88826038 541.79257657 3.88679093 546.59614563 3.8860321 C554.91355779 3.88550823 563.23096209 3.88864076 571.54837227 3.89426994 C583.57389196 3.90240344 595.59940787 3.90500206 607.62493002 3.90625793 C627.13643011 3.90844554 646.64792601 3.91509775 666.15942383 3.92456055 C685.11092101 3.93374219 704.06241706 3.94081935 723.01391602 3.94506836 C724.18245377 3.94533108 725.35099153 3.94559381 726.55493952 3.94586449 C732.41725973 3.94716955 738.27957995 3.94843325 744.14190018 3.94967639 C792.76126968 3.96003994 841.38063464 3.97765035 890 4 C890 5.98 890 7.96 890 10 C838.59264919 10.15044348 787.18528557 10.29547405 735.77789916 10.4332476 C729.70845936 10.44951854 723.63901968 10.46583429 717.56958008 10.48217773 C716.36126651 10.48543066 715.15295294 10.48868358 713.90802381 10.49203508 C694.34450399 10.54480927 674.78099623 10.60121281 655.21749052 10.6589582 C635.1427767 10.71813171 615.06805488 10.77340363 594.99332029 10.82505554 C582.60667735 10.85704905 570.2200507 10.89208386 557.83342759 10.93101191 C549.33887601 10.95741659 540.8443196 10.98003067 532.34974971 10.99967117 C527.4492547 11.01111343 522.54877913 11.02422005 517.64830208 11.04183006 C513.15798649 11.05792919 508.66768467 11.06924645 504.17734686 11.07683109 C502.55669932 11.08040002 500.93605442 11.08569308 499.3154191 11.09292836 C490.8272738 11.12983252 482.44005477 11.00145093 474 10 C474 9.34 474 8.68 474 8 C473.31824707 8.03552979 472.63649414 8.07105957 471.93408203 8.10766602 C454.8817911 8.95985376 438.0473946 8.93727727 421 8 C421 7.34 421 6.68 421 6 C282.07 5.67 143.14 5.34 0 5 C0 3.35 0 1.7 0 0 Z " fill="#463C2C" transform="translate(0,145)"/>
<path d="M0 0 C293.7 0 587.4 0 890 0 C890 1.98 890 3.96 890 6 C840.53918462 6.03235569 791.07836692 6.05126012 741.61754227 6.06185675 C738.63785044 6.06249724 735.65815862 6.06315645 732.6784668 6.06381607 C636.60098768 6.08472483 540.52362907 6.04493434 240.235067 5.50451323 C237.24677402 5.49847903 234.25848103 5.49245367 231.27018804 5.48642803 C154.18011107 5.33096691 77.09004841 5.16907168 0 5 C0 3.35 0 1.7 0 0 Z " fill="#433328" transform="translate(0,182)"/>
<path d="M0 0 C167.31 0 334.62 0 507 0 C507 0.33 507 0.66 507 1 C633.39 1.33 759.78 1.66 890 2 C890 4.97 890 7.94 890 11 C839.20380281 11.0228667 788.40760614 11.0404984 737.61140481 11.05106533 C731.62049383 11.0523161 725.62958285 11.05361042 719.63867188 11.05493164 C718.4459412 11.05519395 717.25321053 11.05545626 716.0243365 11.05572652 C696.6875387 11.0600831 677.35074385 11.06797058 658.0139478 11.0771528 C638.18674075 11.08648968 618.35953526 11.09205568 598.5323261 11.09408849 C586.28846443 11.09546365 574.04461113 11.09981385 561.80075203 11.10791647 C553.41558577 11.11318435 545.03042386 11.1148042 536.64525606 11.11350138 C531.80056507 11.11285806 526.95588874 11.11387477 522.11120033 11.11920547 C517.68240905 11.12404324 513.25364239 11.12433614 508.82485001 11.12089889 C507.21648002 11.12047358 505.60810854 11.12176614 503.99974151 11.12488318 C501.82560573 11.12885415 499.6515607 11.12675896 497.47742653 11.12304783 C496.26611868 11.12342755 495.05481082 11.12380727 493.80679667 11.1241985 C491 11 491 11 489 10 C487.51899189 9.91036153 486.03400576 9.88242075 484.55029297 9.88647461 C483.16908768 9.88658791 483.16908768 9.88658791 481.75997925 9.88670349 C480.26617233 9.89444542 480.26617233 9.89444542 478.7421875 9.90234375 C477.21490524 9.90446617 477.21490524 9.90446617 475.6567688 9.90663147 C472.39614965 9.912241 469.13559849 9.92479512 465.875 9.9375 C463.66796974 9.94251377 461.46093841 9.94707689 459.25390625 9.95117188 C453.83591419 9.96221352 448.41796195 9.97896095 443 10 C443 9.67 443 9.34 443 9 C440.03 8.67 437.06 8.34 434 8 C434 7.01 434 6.02 434 5 C432.87343994 5.1071936 432.87343994 5.1071936 431.72412109 5.21655273 C420.3540638 6.17226523 409.02671845 6.11255725 397.625 6.0625 C395.61718862 6.05747236 393.60937602 6.0529117 391.6015625 6.04882812 C386.73434414 6.03792865 381.86718599 6.02073451 377 6 C377 4.35 377 2.7 377 1 C252.59 1 128.18 1 0 1 C0 0.67 0 0.34 0 0 Z " fill="#45211F" transform="translate(0,126)"/>
<path d="M0 0 C134.64 0 269.28 0 408 0 C408.66 1.65 409.32 3.3 410 5 C413.96 5.495 413.96 5.495 418 6 C418 6.33 418 6.66 418 7 C462.55 7.495 462.55 7.495 508 8 C508 8.33 508 8.66 508 9 C499.16554309 9.79914073 490.42294887 10.14256928 481.55470276 10.12145996 C480.26289315 10.12239639 478.97108355 10.12333282 477.6401282 10.12429762 C474.08820458 10.12668477 470.53631238 10.12283235 466.98439255 10.11780286 C463.13287223 10.1134019 459.28135279 10.11469925 455.42983055 10.11515808 C447.86069384 10.11507038 440.29157148 10.10927321 432.72243924 10.1014173 C426.48414983 10.0950459 420.24586227 10.09090657 414.00757027 10.08811951 C333.88674585 10.05132798 253.76642322 9.81843633 173.64607584 9.55461884 C160.38278789 9.51099062 147.11949607 9.46870963 133.85620117 9.42724609 C132.90084313 9.4242591 131.94548509 9.4212721 130.96117681 9.41819459 C126.1610692 9.40319324 121.36096154 9.38821267 116.56085384 9.37324238 C77.70722536 9.25204182 38.85360881 9.12734386 0 9 C0 6.03 0 3.06 0 0 Z " fill="#213D28" transform="translate(0,114)"/>
<path d="M0 0 C124.41 0 248.82 0 377 0 C377 1.65 377 3.3 377 5 C377.82830322 4.9285376 378.65660645 4.8570752 379.51000977 4.78344727 C390.99245434 3.89648788 402.42613014 3.88544791 413.9375 3.9375 C415.89257697 3.94252924 417.8476552 3.94708961 419.80273438 3.95117188 C424.53518818 3.96205496 429.26757964 3.97923957 434 4 C434 4.99 434 5.98 434 7 C438.62 7 443.24 7 448 7 C448 7.33 448 7.66 448 8 C443.94518365 8.96848918 440.16773965 9.12224748 436.00411701 9.11699677 C435.3114611 9.11748841 434.61880519 9.11798006 433.9051597 9.11848661 C431.59106583 9.11889291 429.27705007 9.11212393 426.96296692 9.10534668 C425.30418577 9.10411481 423.64540425 9.10331337 421.98662269 9.10291004 C417.47277734 9.10049835 412.95896376 9.09175371 408.4451295 9.08182585 C403.64102225 9.07227611 398.83690983 9.06835299 394.03279591 9.063591 C382.99304261 9.05136086 371.95331737 9.02973564 360.91358334 9.00613165 C357.19007703 8.99829551 353.46656968 8.99106468 349.74306211 8.98385975 C326.46558907 8.93865558 303.18817951 8.87579436 279.91076721 8.80645761 C270.16910811 8.77748447 260.42744499 8.74997499 250.68578158 8.72249681 C233.33503326 8.67352047 215.98428814 8.62350035 198.63354492 8.57275391 C181.85066895 8.52367072 165.06779157 8.47512269 148.28491211 8.42724609 C147.23789919 8.4242591 146.19088627 8.4212721 145.11214568 8.41819459 C139.85585213 8.40320219 134.59955854 8.3882198 129.34326494 8.37324238 C86.22883877 8.25037818 43.11441772 8.12579103 0 8 C0 5.36 0 2.72 0 0 Z " fill="#223E2B" transform="translate(0,127)"/>
<path d="M0 0 C134.97 0 269.94 0 409 0 C409 1.98 409 3.96 409 6 C388.52681935 7.0339755 368.09493131 7.1402228 347.60232878 7.11606562 C342.92107882 7.11168118 338.23982992 7.11321312 333.55857849 7.1139679 C325.47937561 7.11448814 317.4001809 7.11139402 309.32098007 7.10573006 C297.64031414 7.09754668 285.9596521 7.09499289 274.27898361 7.09374207 C255.32042694 7.0915622 236.36187462 7.08493122 217.40332031 7.07543945 C199.00455751 7.06623763 180.60579589 7.0591704 162.20703125 7.05493164 C161.06984275 7.05466892 159.93265426 7.05440619 158.76100551 7.05413551 C153.05514272 7.05283032 147.34927992 7.05156665 141.64341712 7.05032361 C94.42894174 7.03998421 47.2144711 7.02239515 0 7 C0 4.69 0 2.38 0 0 Z " fill="#25492D" transform="translate(0,73)"/>
<path d="M0 0 C293.7 0 587.4 0 890 0 C890 0.99 890 1.98 890 3 C837.84798565 3.12864733 785.6959686 3.25614478 733.54394787 3.38218227 C727.33211432 3.39719556 721.12028078 3.41221799 714.90844727 3.42724609 C713.67221945 3.43023671 712.43599164 3.43322732 711.16230238 3.43630856 C691.36560562 3.48422126 671.56891074 3.53286812 651.77221649 3.58180541 C631.33100394 3.63231887 610.88978948 3.68199921 590.44857317 3.73096704 C579.02104684 3.75836447 567.5935216 3.78610408 556.16599846 3.81480408 C470.46267707 4.02962593 384.76183115 4.04507055 299.05856023 3.80645686 C288.65178291 3.77752809 278.245002 3.74999584 267.83822083 3.72249681 C249.30173133 3.67348184 230.76524469 3.62346489 212.22875977 3.57275391 C194.295493 3.52369546 176.36222497 3.47514873 158.42895508 3.42724609 C157.31077971 3.4242591 156.19260434 3.4212721 155.04054487 3.41819459 C149.42717487 3.40320254 143.81380484 3.38822008 138.2004348 3.37324238 C92.13361915 3.25031376 46.06680808 3.12573249 0 3 C0 2.01 0 1.02 0 0 Z " fill="#2F2820" transform="translate(0,170)"/>
<path d="M0 0 C125.07 0 250.14 0 379 0 C379 1.32 379 2.64 379 4 C385.6 4 392.2 4 399 4 C399.33 4.99 399.66 5.98 400 7 C402.31 7.33 404.62 7.66 407 8 C403.60102327 10.26598448 402.43680827 10.23742654 398.45703125 10.1953125 C396.84731445 10.18564453 396.84731445 10.18564453 395.20507812 10.17578125 C393.52575195 10.15064453 393.52575195 10.15064453 391.8125 10.125 C390.68134766 10.11597656 389.55019531 10.10695313 388.38476562 10.09765625 C385.58963172 10.07406862 382.79492155 10.041153 380 10 C379.67 9.01 379.34 8.02 379 7 C253.93 7 128.86 7 0 7 C0 4.69 0 2.38 0 0 Z " fill="#23442A" transform="translate(0,98)"/>
<path d="M0 0 C122.43 0 244.86 0 371 0 C371.66 1.32 372.32 2.64 373 4 C375.48092593 5.24046296 377.0474229 5.09844235 379.82421875 5.0625 C380.8901123 5.05412109 381.95600586 5.04574219 383.05419922 5.03710938 C384.25318848 5.02486328 385.45217773 5.01261719 386.6875 5 C402.58775135 4.91040965 418.477992 5.19576814 434.375 5.5 C435.6375058 5.52400879 436.9000116 5.54801758 438.20077515 5.57275391 C445.46725747 5.71150807 452.73366484 5.8537445 460 6 C460 6.33 460 6.66 460 7 C455.36468119 7.90943546 450.8860757 8.13855988 446.17902851 8.11699677 C445.02622906 8.11773424 445.02622906 8.11773424 443.85014074 8.11848661 C441.28868288 8.11889228 438.72729591 8.11213177 436.16584778 8.10534668 C434.33276355 8.10411523 432.49967899 8.1033135 430.66659439 8.10291004 C425.69524324 8.10050347 420.72392108 8.09177275 415.75258003 8.08182585 C410.48343499 8.07229072 405.21428526 8.0683632 399.94513416 8.063591 C387.99556975 8.05147578 376.0460316 8.03004687 364.09648567 8.00613165 C361.11853974 8.00023473 358.14059344 7.99460552 355.16264677 7.98909378 C330.60899613 7.94355685 306.05541727 7.87940034 281.50183405 7.80645761 C271.70233753 7.77739497 261.90283666 7.7499313 252.10333548 7.72249681 C234.651651 7.67360113 217.19996998 7.62357473 199.74829102 7.57275391 C182.87459487 7.52361883 166.00089719 7.47506823 149.12719727 7.42724609 C148.07332515 7.4242591 147.01945303 7.4212721 145.93364539 7.41819459 C140.64256469 7.40320147 135.35148397 7.38821923 130.06040323 7.37324238 C86.7069306 7.25051285 43.35346349 7.12591377 0 7 C0 4.69 0 2.38 0 0 Z " fill="#102113" transform="translate(0,18)"/>
<path d="M0 0 C0.33 1.98 0.66 3.96 1 6 C3.31 6.33 5.62 6.66 8 7 C8 7.33 8 7.66 8 8 C-119.05 8 -246.1 8 -377 8 C-377 5.69 -377 3.38 -377 1 C-332.29399406 0.87222202 -287.58798714 0.74479034 -242.8819789 0.61781773 C-237.59408944 0.60279894 -232.30619999 0.5877773 -227.01831055 0.57275391 C-225.43934381 0.56826798 -225.43934381 0.56826798 -223.82847876 0.56369144 C-206.82411861 0.51537445 -189.81975913 0.46682761 -172.81539988 0.41819459 C-155.34416777 0.36823146 -137.87293497 0.31851822 -120.40170151 0.26903296 C-109.63656462 0.23853418 -98.87142831 0.20784464 -88.10629267 0.17690456 C-80.70633761 0.15565509 -73.30638187 0.13465015 -65.90642559 0.11383021 C-61.64849049 0.10184342 -57.39055574 0.08975584 -53.13262177 0.07737541 C-35.42172076 0.02594835 -17.71099825 -0.01505329 0 0 Z " fill="#1E3E25" transform="translate(377,35)"/>
<path d="M0 0 C293.7 0 587.4 0 890 0 C890 0.99 890 1.98 890 3 C596.3 3 302.6 3 0 3 C0 2.01 0 1.02 0 0 Z " fill="#615342" transform="translate(0,179)"/>
<path d="M0 0 C293.7 0 587.4 0 890 0 C890 0.99 890 1.98 890 3 C596.3 3 302.6 3 0 3 C0 2.01 0 1.02 0 0 Z " fill="#564634" transform="translate(0,167)"/>
<path d="M0 0 C145.86 0 291.72 0 442 0 C442.33 0.66 442.66 1.32 443 2 C443.763125 2.020625 444.52625 2.04125 445.3125 2.0625 C448 3 448 3 449.21875 5.0625 C450.22113838 7.35367345 451.14963944 9.64844427 452 12 C448.78548731 13.60725635 445.56387464 13.05748185 442 13 C442 12.34 442 11.68 442 11 C440.68 11 439.36 11 438 11 C438 10.34 438 9.68 438 9 C436.68 9 435.36 9 434 9 C434 7.68 434 6.36 434 5 C290.78 5 147.56 5 0 5 C0 3.35 0 1.7 0 0 Z " fill="#3E6446" transform="translate(0,215)"/>
<path d="M0 0 C55.44169152 -0.0228759 110.88338256 -0.04050309 166.32507787 -0.05106533 C172.86662093 -0.05231608 179.40816398 -0.05361039 185.94970703 -0.05493164 C187.9032083 -0.05532511 187.9032083 -0.05532511 189.89617424 -0.05572652 C210.99886464 -0.06008091 232.10155232 -0.06796719 253.20424111 -0.0771528 C274.84852743 -0.08649575 296.49281232 -0.09205698 318.13710058 -0.09408849 C331.49877487 -0.09546238 344.86044149 -0.09980576 358.22211342 -0.10791647 C367.37775004 -0.11319183 376.53338268 -0.11480248 385.68902071 -0.11350138 C390.97571492 -0.11285924 396.26239569 -0.11386155 401.54908752 -0.11920547 C406.38641412 -0.12405959 411.22371819 -0.12432532 416.06104581 -0.12089889 C417.81349674 -0.12047519 419.56594905 -0.12175395 421.31839724 -0.12488318 C423.69647235 -0.12888355 426.07446564 -0.1267406 428.45253944 -0.12304783 C429.13627197 -0.12567484 429.8200045 -0.12830186 430.5244562 -0.13100848 C434.4506514 -0.11718866 438.14686464 0.24971427 442 1 C442 2.65 442 4.3 442 6 C296.14 5.67 150.28 5.34 0 5 C0 3.35 0 1.7 0 0 Z " fill="#315A3A" transform="translate(0,201)"/>
<path d="M0 0 C152.13 0 304.26 0 461 0 C461 0.66 461 1.32 461 2 C463.64 2 466.28 2 469 2 C469 2.66 469 3.32 469 4 C470.98 4 472.96 4 475 4 C475 4.66 475 5.32 475 6 C476.98 6 478.96 6 481 6 C481 6.66 481 7.32 481 8 C475.06060194 9.29682706 469.16493113 9.13294477 463.11962891 9.11352539 C461.92881714 9.11367142 460.73800537 9.11381744 459.5111084 9.1139679 C456.25948393 9.11339214 453.00790294 9.10838966 449.7562871 9.10139394 C446.35301942 9.0951269 442.94975082 9.09455395 439.54647827 9.09336853 C433.10804705 9.09026508 426.66963288 9.082065 420.23120916 9.07201904 C412.89868469 9.06082726 405.5661594 9.05533973 398.23362851 9.05032361 C383.15574285 9.03988155 368.07787313 9.02230123 353 9 C353 8.67 353 8.34 353 8 C360.59 8 368.18 8 376 8 C375.67 7.34 375.34 6.68 375 6 C372.41394668 5.5316735 372.41394668 5.5316735 369.4375 5.375 C368.42558594 5.30023437 367.41367187 5.22546875 366.37109375 5.1484375 C365.58863281 5.09945313 364.80617188 5.05046875 364 5 C364 4.67 364 4.34 364 4 C243.88 3.67 123.76 3.34 0 3 C0 2.01 0 1.02 0 0 Z " fill="#496047" transform="translate(0,25)"/>
<path d="M0 0 C167.64 0 335.28 0 508 0 C508 1.32 508 2.64 508 4 C634.06 4 760.12 4 890 4 C890 4.33 890 4.66 890 5 C759.98 5 629.96 5 496 5 C496 4.67 496 4.34 496 4 C332.32 3.67 168.64 3.34 0 3 C0 2.01 0 1.02 0 0 Z " fill="#55563D" transform="translate(0,123)"/>
<path d="M0 0 C144.87 0 289.74 0 439 0 C439 0.66 439 1.32 439 2 C442.96 2 446.92 2 451 2 C451 2.33 451 2.66 451 3 C440.95000471 4.08429075 430.98285465 4.13834321 420.89080811 4.12025452 C419.06966393 4.12069119 417.24851981 4.12156787 415.42737603 4.12284368 C410.44918922 4.12506969 405.4710241 4.12109339 400.49284005 4.11606562 C395.11467762 4.11173401 389.73651635 4.11320947 384.35835266 4.1139679 C375.04897524 4.11449141 365.73960484 4.11136259 356.43022919 4.10573006 C342.97055031 4.09759175 329.51087482 4.09499745 316.05119374 4.09374207 C294.21202437 4.09155521 272.37285875 4.08490505 250.53369141 4.07543945 C229.32307962 4.06625586 208.11246885 4.05917966 186.90185547 4.05493164 C184.9396479 4.05453756 184.9396479 4.05453756 182.93779978 4.05413551 C176.37504012 4.05283044 169.81228045 4.05156674 163.24952078 4.05032361 C108.83301127 4.0399624 54.41650581 4.02235405 0 4 C0 2.68 0 1.36 0 0 Z " fill="#36523D" transform="translate(0,234)"/>
<path d="M0 0 C141.24 0 282.48 0 428 0 C428 0.33 428 0.66 428 1 C580.46 1.33 732.92 1.66 890 2 C890 2.33 890 2.66 890 3 C838.93468674 3.12851099 787.86937102 3.25599986 736.80405195 3.38218227 C730.72825467 3.39719641 724.65245741 3.41221872 718.57666016 3.42724609 C717.36745308 3.43023671 716.158246 3.43322732 714.91239628 3.43630856 C695.52212613 3.48428396 676.13185768 3.5329159 656.74158981 3.58180541 C636.73548499 3.63223247 616.72937843 3.68191944 596.72327018 3.73096704 C585.53251503 3.75842262 574.34176085 3.78618768 563.15100861 3.81480408 C481.14393806 4.02413181 399.14012183 4.02054051 317.13306859 3.80645686 C306.10265316 3.77769811 295.07223493 3.75008033 284.0418165 3.72249681 C264.39001767 3.6733259 244.73822106 3.62332283 225.08642578 3.57275391 C206.05940869 3.52379457 187.03239061 3.47525364 168.00537109 3.42724609 C166.22968274 3.4227656 166.22968274 3.4227656 164.4181219 3.41819459 C158.47610942 3.40320393 152.53409692 3.38822119 146.59208441 3.37324238 C97.72805312 3.25005423 48.8640254 3.12549785 0 3 C0 2.01 0 1.02 0 0 Z " fill="#152518" transform="translate(0,176)"/>
<path d="M0 0 C131.34 0 262.68 0 398 0 C398 1.65 398 3.3 398 5 C398.66 4.67 399.32 4.34 400 4 C402.17824961 3.91440882 404.35915255 3.89286588 406.5390625 3.90234375 C407.84101563 3.90556641 409.14296875 3.90878906 410.484375 3.91210938 C411.86458399 3.92046534 413.24479232 3.92893029 414.625 3.9375 C416.01301926 3.94251499 417.40104022 3.9470779 418.7890625 3.95117188 C422.19275132 3.96299024 425.59635439 3.97946566 429 4 C429 4.66 429 5.32 429 6 C434.61 6 440.22 6 446 6 C446 9.3 446 12.6 446 16 C448.97 16 451.94 16 455 16 C455 16.33 455 16.66 455 17 C431.9 17 408.8 17 385 17 C385 16.67 385 16.34 385 16 C390.94 15.67 396.88 15.34 403 15 C403.33 14.01 403.66 13.02 404 12 C403.08476562 11.96261719 402.16953125 11.92523438 401.2265625 11.88671875 C399.44378906 11.78810547 399.44378906 11.78810547 397.625 11.6875 C396.44164062 11.62949219 395.25828125 11.57148437 394.0390625 11.51171875 C393.03617187 11.34285156 392.03328125 11.17398438 391 11 C390.34 10.01 389.68 9.02 389 8 C386.57478506 7.41810734 386.57478506 7.41810734 383.875 7.3125 C382.50988281 7.21388672 382.50988281 7.21388672 381.1171875 7.11328125 C380.41851562 7.07589844 379.71984375 7.03851563 379 7 C379 6.34 379 5.68 379 5 C375.37 5 371.74 5 368 5 C368 4.67 368 4.34 368 4 C185.84 3.505 185.84 3.505 0 3 C0 2.01 0 1.02 0 0 Z " fill="#526355" transform="translate(0,95)"/>
<path d="M0 0 C117.48 0 234.96 0 356 0 C356 0.33 356 0.66 356 1 C358.97 1.33 361.94 1.66 365 2 C365 2.33 365 2.66 365 3 C361.19140188 3.8885639 357.66962715 4.12440683 353.76250744 4.12304783 C351.86654096 4.1260344 351.86654096 4.1260344 349.93227214 4.12908131 C348.53209298 4.12622844 347.13191401 4.12328284 345.73173523 4.12025452 C344.24249164 4.12069059 342.75324812 4.12156616 341.26400501 4.12284368 C337.17072538 4.12508156 333.07747188 4.12107699 328.98419559 4.11606562 C324.57047264 4.1117512 320.1567512 4.11320825 315.74302673 4.1139679 C308.0956201 4.1144925 300.44822198 4.11135231 292.80081749 4.10573006 C281.74392464 4.09760648 270.68703591 4.09499895 259.6301404 4.09374207 C241.69149426 4.0915529 223.75285266 4.08489647 205.81420898 4.07543945 C188.3874514 4.06626185 170.96069506 4.05918271 153.53393555 4.05493164 C151.92292836 4.05453756 151.92292836 4.05453756 150.27937558 4.05413551 C144.8914631 4.05283048 139.50355062 4.05156677 134.11563814 4.05032361 C89.41042228 4.0399552 44.70521137 4.02234055 0 4 C0 2.68 0 1.36 0 0 Z " fill="#24472B" transform="translate(0,14)"/>
<path d="M0 0 C56.5882351 -0.04575122 113.17646835 -0.08100587 169.7647183 -0.10213066 C176.44145286 -0.10463215 183.11818738 -0.10721847 189.79492188 -0.10986328 C190.79155254 -0.11025556 190.79155254 -0.11025556 191.80831716 -0.11065576 C213.34968929 -0.11918065 234.89105094 -0.1342049 256.43241672 -0.15259444 C279.1935449 -0.17199001 301.95466767 -0.18399076 324.71580398 -0.18817699 C338.35387323 -0.19092485 351.99191239 -0.19961203 365.62997238 -0.21583293 C374.97483456 -0.22638319 384.31968112 -0.22960508 393.66454883 -0.22700275 C399.06062282 -0.22571841 404.45664413 -0.22772392 409.85270882 -0.23841095 C414.78997918 -0.24811818 419.72716125 -0.24865136 424.66443561 -0.24179779 C426.45322678 -0.24095028 428.24202339 -0.24350871 430.03080381 -0.24976636 C432.45797223 -0.25776548 434.88481984 -0.25348259 437.31198311 -0.24609566 C438.35924057 -0.2539767 438.35924057 -0.2539767 439.42765474 -0.26201695 C443.64956713 -0.23288419 447.07143784 0.46471972 451 2 C447.47298656 3.17567115 444.3029474 3.13660546 440.63427448 3.12304783 C439.87442154 3.12420167 439.1145686 3.12535552 438.3316898 3.12654433 C435.7649129 3.12920822 433.19819771 3.12469067 430.63142395 3.12025452 C428.78092407 3.12069026 426.93042425 3.12156524 425.07992476 3.12284368 C419.97878992 3.12508794 414.87767592 3.12106829 409.77654374 3.11606562 C404.28165761 3.11176033 398.78677272 3.1132076 393.29188538 3.1139679 C383.7662662 3.11449308 374.24065385 3.11134685 364.71503639 3.10573006 C350.94247173 3.09761432 337.16991039 3.09499976 323.3973436 3.09374207 C301.05403779 3.09155166 278.71073531 3.08490046 256.36743164 3.07543945 C234.65877298 3.06625777 212.95011529 3.05917281 191.24145508 3.05493164 C190.57251261 3.05480011 189.90357014 3.05466859 189.21435668 3.05453308 C182.49667238 3.05321458 175.77898808 3.05193876 169.06130376 3.05069422 C112.70753328 3.04024991 56.35376684 3.02260068 0 3 C0 2.01 0 1.02 0 0 Z " fill="#3B6545" transform="translate(0,211)"/>
<path d="M0 0 C54.31216646 -0.02287374 108.62433244 -0.04050199 162.93650277 -0.05106533 C169.34414313 -0.05231608 175.75178348 -0.0536104 182.15942383 -0.05493164 C183.43510478 -0.05519395 184.71078574 -0.05545626 186.02512369 -0.05572652 C206.69846568 -0.06008142 227.3718049 -0.06796799 248.04514524 -0.0771528 C269.24759187 -0.08649433 290.45003706 -0.09205667 311.65248567 -0.09408849 C324.74238417 -0.09546268 337.83227483 -0.09980766 350.92217091 -0.10791647 C359.89044614 -0.11319007 368.8587173 -0.11480289 377.82699396 -0.11350138 C383.00622526 -0.11285897 388.18544283 -0.11386466 393.36467171 -0.11920547 C398.1026401 -0.12405575 402.84058548 -0.12432785 407.57855491 -0.12089889 C409.29599501 -0.12047481 411.01343653 -0.12175683 412.73087385 -0.12488318 C415.0593255 -0.12887662 417.38769332 -0.12674489 419.71614361 -0.12304783 C421.65898268 -0.12361741 421.65898268 -0.12361741 423.64107102 -0.1241985 C426.5651287 -0.01607964 429.16314724 0.31698082 432 1 C432 2.32 432 3.64 432 5 C433.98 5.495 433.98 5.495 436 6 C434.35 6 432.7 6 431 6 C431 5.01 431 4.02 431 3 C288.77 3 146.54 3 0 3 C0 2.01 0 1.02 0 0 Z " fill="#456C4F" transform="translate(0,223)"/>
<path d="M0 0 C134.97 0 269.94 0 409 0 C409 1.65 409 3.3 409 5 C400.75 5 392.5 5 384 5 C384 4.67 384 4.34 384 4 C257.28 3.67 130.56 3.34 0 3 C0 2.01 0 1.02 0 0 Z " fill="#2D6037" transform="translate(0,73)"/>
<path d="M0 0 C50.00603073 -0.02289085 100.01206093 -0.04051069 150.01809587 -0.05106533 C155.92230155 -0.05231603 161.82650722 -0.05361035 167.73071289 -0.05493164 C168.9061297 -0.05519395 170.0815465 -0.05545626 171.292582 -0.05572652 C190.32260627 -0.06007735 209.35262752 -0.06796169 228.38265 -0.0771528 C247.91044722 -0.08650563 267.43824285 -0.09205907 286.96604222 -0.09408849 C299.01487273 -0.09546033 311.06369469 -0.09979259 323.11252256 -0.10791647 C331.37581019 -0.11320402 339.6390934 -0.11479971 347.90238259 -0.11350138 C352.6692034 -0.11286115 357.43600929 -0.11383993 362.20282745 -0.11920547 C366.57102586 -0.12408633 370.93919936 -0.12430795 375.30739894 -0.12089889 C376.88362779 -0.1204778 378.45985822 -0.12173388 380.03608397 -0.12488318 C388.40626449 -0.14062781 396.67677174 0.02637478 405 1 C405 1.33 405 1.66 405 2 C396.27931655 3.15620952 387.57989605 3.13771315 378.80172729 3.12025452 C377.16380043 3.1206911 375.52587363 3.12156762 373.8879472 3.12284368 C369.40691004 3.12507147 364.92589694 3.12109092 360.44486284 3.11606562 C355.60518427 3.1117366 350.76550699 3.11320928 345.92582703 3.1139679 C337.54731806 3.11449158 329.16881691 3.11136104 320.79030991 3.10573006 C308.67647894 3.09759397 296.56265174 3.09499767 284.44881834 3.09374207 C264.79367624 3.09155486 245.13853829 3.08490376 225.48339844 3.07543945 C206.39322938 3.06625676 187.30306145 3.05918012 168.21289062 3.05493164 C167.03565461 3.05466892 165.85841859 3.05440619 164.64550875 3.05413551 C158.73950696 3.05283045 152.83350515 3.05156674 146.92750335 3.05032361 C97.95166603 3.03996132 48.97583322 3.02235202 0 3 C0 2.01 0 1.02 0 0 Z " fill="#33613D" transform="translate(0,155)"/>
<path d="M0 0 C53.34407905 -0.02286645 106.68815761 -0.04049827 160.03224059 -0.05106533 C166.32357707 -0.0523161 172.61491354 -0.05361042 178.90625 -0.05493164 C180.15879297 -0.05519395 181.41133594 -0.05545626 182.70183475 -0.05572652 C203.00861145 -0.06008316 223.31538533 -0.06797067 243.62216036 -0.0771528 C264.44377833 -0.08648951 285.26539482 -0.09205565 306.08701479 -0.09408849 C318.9450656 -0.09546368 331.80310844 -0.09981407 344.66115679 -0.10791647 C353.46681867 -0.11318414 362.27247642 -0.11480425 371.07813977 -0.11350138 C376.16586246 -0.11285803 381.25357119 -0.11387513 386.34129143 -0.11920547 C390.99213309 -0.12404279 395.64295129 -0.12433643 400.29379399 -0.12089889 C401.98291713 -0.12047353 403.67204168 -0.12176647 405.36116199 -0.12488318 C407.64421268 -0.12885335 409.92717691 -0.12675947 412.21022606 -0.12304783 C413.48228917 -0.12342755 414.75435227 -0.12380727 416.06496274 -0.1241985 C419 0 419 0 421 1 C421 1.66 421 2.32 421 3 C421.91813477 2.99476318 422.83626953 2.98952637 423.78222656 2.98413086 C427.19645823 2.96706402 430.61064441 2.95453768 434.02490234 2.94506836 C435.50114661 2.94004712 436.97738592 2.93322884 438.45361328 2.92456055 C440.57846298 2.91239811 442.70324678 2.90674954 444.828125 2.90234375 C446.7447998 2.89448853 446.7447998 2.89448853 448.70019531 2.88647461 C451.38697307 2.97890962 453.45293155 3.25649997 456 4 C457.74886981 4.06624507 459.50002748 4.08552595 461.25 4.0625 C462.14203125 4.05347656 463.0340625 4.04445313 463.953125 4.03515625 C464.62859375 4.02355469 465.3040625 4.01195313 466 4 C466 5.65 466 7.3 466 9 C460.06 9 454.12 9 448 9 C448 8.34 448 7.68 448 7 C434.8 7 421.6 7 408 7 C407.67 6.01 407.34 5.02 407 4 C361.63223185 3.11834077 316.27375195 2.80509667 270.89820978 2.70291888 C261.4765143 2.68153081 252.05483406 2.65522141 242.6331517 2.62875474 C225.84699485 2.58172208 209.06083085 2.53829542 192.2746582 2.49731445 C176.02042085 2.457624 159.76618968 2.41612444 143.51196289 2.37231445 C142.50098799 2.36959018 141.49001309 2.36686591 140.44840259 2.36405908 C135.37393197 2.35037416 130.29946145 2.33665497 125.22499096 2.32291877 C83.48334042 2.20997129 41.74167632 2.10295018 0 2 C0 1.34 0 0.68 0 0 Z " fill="#284C2C" transform="translate(0,83)"/>
<path d="M0 0 C123.75 0 247.5 0 375 0 C375.33 1.32 375.66 2.64 376 4 C251.92 3.67 127.84 3.34 0 3 C0 2.01 0 1.02 0 0 Z " fill="#182F1C" transform="translate(0,28)"/>
<path d="M0 0 C124.08 0 248.16 0 376 0 C376 0.66 376 1.32 376 2 C365.09756918 2.73832426 354.25815902 3.1445975 343.3266449 3.12025452 C341.83116944 3.12069209 340.33569406 3.1215704 338.84021908 3.12284368 C334.78545294 3.12505214 330.73071383 3.12111818 326.67595112 3.11606562 C322.28288922 3.11170812 317.88982859 3.11321127 313.49676514 3.1139679 C305.90359072 3.1144898 298.31042497 3.11137802 290.71725273 3.10573006 C279.73908094 3.09756962 268.7609133 3.0949952 257.78273881 3.09374207 C239.96721739 3.09155866 222.15170057 3.08491792 204.33618164 3.07543945 C187.03995791 3.06624689 169.74373544 3.0591751 152.44750977 3.05493164 C151.37964465 3.05466892 150.31177954 3.05440619 149.21155488 3.05413551 C143.85387409 3.05283038 138.49619329 3.05156669 133.13851249 3.05032361 C88.75900514 3.03997315 44.37950281 3.02237426 0 3 C0 2.01 0 1.02 0 0 Z " fill="#2F603A" transform="translate(0,131)"/>
<path d="M0 0 C121.11 0 242.22 0 367 0 C367 0.33 367 0.66 367 1 C370.96 1.495 370.96 1.495 375 2 C375 2.33 375 2.66 375 3 C251.25 3 127.5 3 0 3 C0 2.01 0 1.02 0 0 Z " fill="#17301D" transform="translate(0,58)"/>
<path d="M0 0 C115.5 0 231 0 350 0 C350 0.99 350 1.98 350 3 C234.5 3 119 3 0 3 C0 2.01 0 1.02 0 0 Z " fill="#325E3A" transform="translate(0,21)"/>
<path d="M0 0 C0 1.32 0 2.64 0 4 C0.83144531 3.97679687 1.66289062 3.95359375 2.51953125 3.9296875 C4.14955078 3.90261719 4.14955078 3.90261719 5.8125 3.875 C6.89144531 3.85179687 7.97039062 3.82859375 9.08203125 3.8046875 C12 4 12 4 15 6 C16.1875 8.125 16.1875 8.125 17 10 C13.78548731 11.60725635 10.56387464 11.05748185 7 11 C7 10.34 7 9.68 7 9 C5.68 9 4.36 9 3 9 C3 8.34 3 7.68 3 7 C1.68 7 0.36 7 -1 7 C-1 5.68 -1 4.36 -1 3 C-144.22 3 -287.44 3 -435 3 C-435 2.34 -435 1.68 -435 1 C-384.78254336 0.87207035 -334.5650855 0.74462528 -284.34762602 0.61781773 C-278.40053322 0.60279991 -272.45344044 0.58777813 -266.50634766 0.57275391 C-265.32253554 0.56976329 -264.13872342 0.56677268 -262.91903821 0.56369144 C-243.82507245 0.51544575 -224.73110751 0.46688063 -205.63714287 0.41819459 C-186.0018744 0.36813555 -166.36660507 0.31842643 -146.73133492 0.26903296 C-134.64419315 0.23861641 -122.55705211 0.20793646 -110.4699119 0.17690456 C-102.14804301 0.15556574 -93.82617329 0.13457098 -85.50430289 0.11383021 C-80.72426346 0.10190717 -75.9442245 0.08984845 -71.16418648 0.07737541 C-47.44273516 0.01559377 -23.72153335 -0.01299787 0 0 Z " fill="#35503A" transform="translate(435,217)"/>
<path d="M0 0 C43.48313006 -0.02292302 86.96625947 -0.04052698 130.44939439 -0.05106533 C135.59093742 -0.05231593 140.73248043 -0.05361027 145.87402344 -0.05493164 C147.40931135 -0.05532511 147.40931135 -0.05532511 148.97561517 -0.05572652 C165.51641345 -0.06006973 182.05720823 -0.06794983 198.59800443 -0.0771528 C215.58896724 -0.0865269 232.57992823 -0.09206355 249.57089353 -0.09408849 C260.04276744 -0.09545593 270.51463146 -0.09976414 280.98650232 -0.10791647 C288.18179617 -0.11323032 295.37708496 -0.11479381 302.57238063 -0.11350138 C306.71451012 -0.11286521 310.8566224 -0.11379287 314.99874878 -0.11920547 C331.35550162 -0.13956991 347.67176321 -0.10098079 364 1 C364 1.33 364 1.66 364 2 C347.33466937 2.83505256 330.71622966 3.14488415 314.03173828 3.12939453 C311.52760798 3.13075423 309.02347788 3.13253732 306.51934814 3.13470459 C300.47391139 3.13875574 294.42849197 3.13820941 288.38305594 3.13529195 C283.43003061 3.13300457 278.47700872 3.1327396 273.523983 3.13381577 C272.81035417 3.133969 272.09672533 3.13412223 271.36147138 3.13428011 C269.90969031 3.13459998 268.45790924 3.13492419 267.00612818 3.1352527 C253.43617127 3.13809347 239.86622114 3.13484798 226.29626535 3.12945233 C214.83471375 3.12503389 203.37317248 3.1257651 191.91162109 3.13037109 C60.27932437 3.18190705 60.27932437 3.18190705 0 2 C0 1.34 0 0.68 0 0 Z " fill="#174F24" transform="translate(0,93)"/>
<path d="M0 0 C0 0.33 0 0.66 0 1 C-14.58594243 1.79000349 -29.11365149 2.13253707 -43.7192688 2.0682373 C-45.72802278 2.06334756 -47.736778 2.05894751 -49.74553406 2.05500364 C-53.84723535 2.04613368 -57.94891136 2.03436252 -62.05059671 2.01990318 C-67.58152637 2.00058437 -73.11244298 1.98887116 -78.64339828 1.9801178 C-88.31677237 1.96404661 -97.99011796 1.94052732 -107.66347241 1.91545701 C-112.61294785 1.90276251 -117.56242496 1.89075262 -122.51190186 1.87864685 C-131.02564462 1.85773557 -139.53938629 1.83641969 -148.05312729 1.81480408 C-160.36156072 1.78355471 -172.66999571 1.75295429 -184.97843112 1.72249681 C-204.96299817 1.67302765 -224.94756393 1.62305577 -244.93212891 1.57275391 C-264.3097324 1.52398089 -283.68733649 1.47545325 -303.06494141 1.42724609 C-304.26557633 1.4242591 -305.46621125 1.4212721 -306.70322905 1.41819459 C-312.72831279 1.40320659 -318.75339654 1.38822331 -324.77848029 1.37324238 C-374.5189887 1.24956014 -424.25949503 1.12505624 -474 1 C-474 0.67 -474 0.34 -474 0 C-418.81418845 -0.15083007 -363.62836422 -0.2958621 -308.44251747 -0.4332476 C-301.90959488 -0.44951626 -295.3766724 -0.46583233 -288.84375 -0.48217773 C-287.54330391 -0.48543066 -286.24285781 -0.48868358 -284.90300426 -0.49203508 C-263.91757151 -0.54464062 -242.93215074 -0.60107661 -221.94673195 -0.6589582 C-200.37237082 -0.71837781 -178.79800182 -0.77361145 -157.22362018 -0.82505554 C-143.938798 -0.85686222 -130.65399223 -0.89183408 -117.36918971 -0.93101191 C-108.22736107 -0.95765723 -99.08552772 -0.98019297 -89.94368103 -0.99967117 C-84.68971733 -1.01098155 -79.43577329 -1.02393576 -74.18182755 -1.04183006 C-49.43405155 -1.12479227 -24.73378721 -0.8693876 0 0 Z " fill="#060301" transform="translate(474,144)"/>
<path d="M0 0 C123.75 0 247.5 0 375 0 C375 0.33 375 0.66 375 1 C378.96 1.495 378.96 1.495 383 2 C383 2.33 383 2.66 383 3 C374.75 3 366.5 3 358 3 C358 2.34 358 1.68 358 1 C356.81059091 1.16330276 355.62118181 1.32660551 354.39573002 1.49485683 C347.82867981 2.21808611 341.26612568 2.11643592 334.6683197 2.08229065 C333.22099793 2.07859146 331.77367494 2.07534356 330.32635123 2.07250541 C326.36751219 2.06344686 322.40872006 2.04802141 318.44990599 2.03152263 C314.1739613 2.01482938 309.8980011 2.00408865 305.62203979 1.99261475 C298.21969718 1.97194174 290.8173746 1.94752079 283.41505241 1.92053413 C272.71261567 1.8815217 262.01016713 1.84819288 251.30770726 1.81623887 C233.94251019 1.76423834 216.57733119 1.70765898 199.2121582 1.64819336 C182.34627994 1.59044735 165.48039682 1.53486201 148.61450195 1.48217773 C147.57440501 1.47892802 146.53430806 1.4756783 145.46269303 1.4723301 C140.24468798 1.45604008 135.0266828 1.43979248 129.80867755 1.42356598 C86.53909609 1.28895512 43.26954133 1.1469104 0 1 C0 0.67 0 0.34 0 0 Z " fill="#000100" transform="translate(0,4)"/>
<path d="M0 0 C49.39485226 -0.06860054 98.78969972 -0.1214954 148.18459021 -0.15319599 C154.01026725 -0.15694831 159.8359442 -0.16083125 165.66162109 -0.16479492 C167.40137196 -0.16597532 167.40137196 -0.16597532 169.17626931 -0.16717956 C187.97959166 -0.1802492 206.78288663 -0.20391158 225.58619271 -0.23145839 C244.86647223 -0.25946932 264.14673737 -0.27616711 283.4270364 -0.28226548 C295.33312405 -0.2863909 307.23913429 -0.29944113 319.14519812 -0.3237494 C327.29909951 -0.33955341 335.45296063 -0.34441252 343.60687624 -0.34050413 C348.31794707 -0.33857423 353.02888222 -0.34162358 357.7399292 -0.35761642 C362.04665734 -0.37213073 366.35315754 -0.37300806 370.65989579 -0.36269668 C372.2238556 -0.3614208 373.78782919 -0.36529795 375.35176156 -0.37464955 C377.46624735 -0.38656531 379.57989364 -0.38027727 381.69436455 -0.36914349 C382.87225701 -0.37028265 384.05014948 -0.37142181 385.26373565 -0.37259549 C386.16670289 -0.24963898 387.06967012 -0.12668247 388 0 C388.66 0.99 389.32 1.98 390 3 C386.7 3.33 383.4 3.66 380 4 C379.67 3.01 379.34 2.02 379 1 C253.93 1 128.86 1 0 1 C0 0.67 0 0.34 0 0 Z " fill="#000000" transform="translate(0,104)"/>
</svg>
