<?xml version="1.0" encoding="UTF-8"?>
<svg version="1.1" xmlns="http://www.w3.org/2000/svg" width="297" height="170">
<path d="M0 0 C98.01 0 196.02 0 297 0 C297 56.1 297 112.2 297 170 C198.99 170 100.98 170 0 170 C0 113.9 0 57.8 0 0 Z " fill="#4C3E3C" transform="translate(0,0)"/>
<path d="M0 0 C98.01 0 196.02 0 297 0 C297 21.45 297 42.9 297 65 C260.91982814 65.04030303 260.91982814 65.04030303 245.79882812 65.04882812 C235.35880034 65.05476139 224.91878063 65.06173599 214.47875977 65.07543945 C206.87530577 65.0854149 199.27185832 65.09186025 191.66839796 65.09408849 C187.64343013 65.09539073 183.61848103 65.09844582 179.59351921 65.10573006 C175.80232688 65.1125354 172.01116094 65.11460778 168.21996307 65.11310768 C166.83126494 65.11338198 165.4425659 65.11536026 164.05387306 65.11920547 C151.12624976 65.15323481 151.12624976 65.15323481 145 64 C145 63.01 145 62.02 145 61 C97.15 61 49.3 61 0 61 C0 40.87 0 20.74 0 0 Z " fill="#463230" transform="translate(0,0)"/>
<path d="M0 0 C98.01 0 196.02 0 297 0 C297 8.91 297 17.82 297 27 C198.99 27 100.98 27 0 27 C0 18.09 0 9.18 0 0 Z " fill="#513733" transform="translate(0,0)"/>
<path d="M0 0 C98.01 0 196.02 0 297 0 C297 2.97 297 5.94 297 9 C254.76 9 212.52 9 169 9 C168.67 9.66 168.34 10.32 168 11 C168 10.34 168 9.68 168 9 C167.07719238 9.00785522 167.07719238 9.00785522 166.13574219 9.01586914 C163.34050524 9.03669371 160.54528464 9.04967759 157.75 9.0625 C156.29787109 9.07506836 156.29787109 9.07506836 154.81640625 9.08789062 C153.88183594 9.09111328 152.94726562 9.09433594 151.984375 9.09765625 C151.12553711 9.10289307 150.26669922 9.10812988 149.38183594 9.11352539 C147 9 147 9 145.22050095 8.50279331 C142.46598733 7.87908224 139.91552511 7.85913042 137.09014893 7.84178162 C135.88142624 7.8319928 134.67270355 7.82220398 133.42735291 7.81211853 C132.09121744 7.80621481 130.75508155 7.80040433 129.41894531 7.79467773 C128.00950332 7.78509573 126.60006419 7.77508546 125.19062805 7.76467896 C121.36662498 7.73765872 117.54260961 7.71663357 113.71856403 7.69667697 C109.72134983 7.67479964 105.72417344 7.6474195 101.72698975 7.62062073 C94.15875144 7.57071747 86.59049212 7.52576986 79.02221274 7.48259836 C70.40557217 7.43320576 61.78896954 7.37829513 53.17236567 7.32291877 C35.44827901 7.20913507 17.72415654 7.10228816 0 7 C0 4.69 0 2.38 0 0 Z " fill="#3A1416" transform="translate(0,0)"/>
<path d="M0 0 C98.01 0 196.02 0 297 0 C297 2.31 297 4.62 297 7 C272.89382484 7.13370561 248.78763354 7.26412374 224.68142223 7.39115143 C213.47535077 7.45026975 202.26928572 7.51027945 191.06323242 7.57275391 C127.37491158 7.92715535 63.68929393 8.07024403 0 8 C0 5.36 0 2.72 0 0 Z " fill="#423C34" transform="translate(0,42)"/>
<path d="M0 0 C18.57579896 -0.02335077 37.15159495 -0.0409899 55.72740555 -0.05181217 C64.35229228 -0.05697049 72.9771699 -0.06400437 81.60205078 -0.07543945 C89.11867839 -0.08540044 96.6352994 -0.09185681 104.15193343 -0.09408849 C108.13265153 -0.09539319 112.11335075 -0.09846386 116.09406281 -0.10573006 C119.8401032 -0.11251256 123.58611691 -0.1146124 127.33216286 -0.11310768 C128.70760811 -0.113383 130.08305424 -0.11537491 131.45849419 -0.11920547 C133.33570588 -0.12417743 135.21293186 -0.12238945 137.09014893 -0.12025452 C138.66641493 -0.12163721 138.66641493 -0.12163721 140.27452469 -0.12304783 C142.70763705 -0.0131994 144.66650612 0.36766362 147 1 C150.11337474 1.3179728 153.23952938 1.42146911 156.36572266 1.55639648 C157.81039382 1.61966834 157.81039382 1.61966834 159.28425026 1.68421841 C171.8780724 2.17950114 184.47625072 2.12809426 197.07759047 2.10139394 C200.6062191 2.09502509 204.13484917 2.09454615 207.66348267 2.09336853 C214.30679359 2.09029424 220.95008753 2.08213506 227.59339106 2.07201904 C235.17295658 2.06073467 242.75252304 2.05531681 250.33209491 2.05032361 C265.88807302 2.03994788 281.4440343 2.02242637 297 2 C297 4.31 297 6.62 297 9 C279.57089537 9.02340158 262.14179567 9.04101477 244.71267891 9.05181217 C236.61931965 9.05695973 228.52597017 9.06397299 220.43261719 9.07543945 C213.37518935 9.08543344 206.31776861 9.09186462 199.2603339 9.09408849 C195.52646371 9.09538761 191.79261381 9.09842262 188.05875015 9.10573006 C183.88176845 9.11383775 179.70482159 9.11398811 175.52783203 9.11352539 C173.68823662 9.1189183 173.68823662 9.1189183 171.81147766 9.12442017 C166.87032908 9.11851195 162.00946163 9.06683105 157.09753418 8.5057373 C150.3861908 7.74601215 143.65776306 7.82229523 136.91162109 7.79467773 C135.41262555 7.78507992 133.9136326 7.77506878 132.41464233 7.76467896 C128.37405781 7.73782976 124.33346185 7.71671305 120.29283857 7.69667697 C116.05943223 7.67469294 111.82606034 7.64736545 107.59268188 7.62062073 C99.58902523 7.57086069 91.58534928 7.5258605 83.58165514 7.48259836 C74.46428253 7.43308264 65.34694452 7.37821803 56.22960544 7.32291877 C37.4864358 7.20935519 18.74323345 7.10246114 0 7 C0 4.69 0 2.38 0 0 Z " fill="#3C2E2B" transform="translate(0,7)"/>
<path d="M0 0 C98.01 0 196.02 0 297 0 C297 1.65 297 3.3 297 5 C198.99 5 100.98 5 0 5 C0 3.35 0 1.7 0 0 Z " fill="#4F433F" transform="translate(0,27)"/>
<path d="M0 0 C98.01 0 196.02 0 297 0 C297 1.32 297 2.64 297 4 C198.99 4 100.98 4 0 4 C0 2.68 0 1.36 0 0 Z " fill="#3F3532" transform="translate(0,23)"/>
<path d="M0 0 C1.14079671 0.00042423 2.28159342 0.00084846 3.45695972 0.00128555 C33.24214752 0.01254617 63.02732486 0.03295167 92.8125 0.0625 C92.8125 1.7125 92.8125 3.3625 92.8125 5.0625 C27.4725 5.0625 -37.8675 5.0625 -105.1875 5.0625 C-105.1875 4.7325 -105.1875 4.4025 -105.1875 4.0625 C-137.8575 3.7325 -170.5275 3.4025 -204.1875 3.0625 C-204.1875 2.4025 -204.1875 1.7425 -204.1875 1.0625 C-191.81283483 0.86885642 -179.43781489 0.7083908 -167.0625 0.5625 C-165.55296564 0.54468412 -165.55296564 0.54468412 -164.01293564 0.52650833 C-109.34391967 -0.10678247 -54.67179635 -0.02092336 0 0 Z " fill="#704949" transform="translate(204.1875,48.9375)"/>
<path d="M0 0 C4.05562228 -0.02377208 8.11122576 -0.03790098 12.16689682 -0.05093384 C14.01716618 -0.06226727 14.01716618 -0.06226727 15.90481472 -0.07382965 C17.03603158 -0.07590172 18.16724844 -0.07797379 19.3327446 -0.08010864 C20.32599149 -0.08395317 21.31923838 -0.0877977 22.34258366 -0.09175873 C24.83169174 0.02523804 24.83169174 0.02523804 27.83169174 1.02523804 C29.5951848 1.11567475 31.36194839 1.14719536 33.12775803 1.14549255 C34.77470406 1.14755455 34.77470406 1.14755455 36.45492172 1.1496582 C38.26213699 1.14426529 38.26213699 1.14426529 40.10586166 1.13876343 C42.00846504 1.13898247 42.00846504 1.13898247 43.94950485 1.13920593 C47.42856922 1.13949315 50.9075992 1.13360861 54.38665557 1.12663198 C58.02216655 1.12038588 61.6576783 1.11979364 65.29319382 1.11860657 C72.17796557 1.11549696 79.06272146 1.10728856 85.94748622 1.09725708 C93.78537303 1.08608445 101.6232606 1.08058259 109.46115339 1.07556164 C125.58467546 1.06510565 141.70818158 1.04751336 157.83169174 1.02523804 C157.83169174 2.34523804 157.83169174 3.66523804 157.83169174 5.02523804 C115.59169174 5.02523804 73.35169174 5.02523804 29.83169174 5.02523804 C29.50169174 5.68523804 29.17169174 6.34523804 28.83169174 7.02523804 C28.83169174 6.36523804 28.83169174 5.70523804 28.83169174 5.02523804 C27.90888412 5.03309326 27.90888412 5.03309326 26.96743393 5.04110718 C24.17219698 5.06193175 21.37697638 5.07491563 18.58169174 5.08773804 C17.12956284 5.1003064 17.12956284 5.1003064 15.64809799 5.11312866 C14.71352768 5.11635132 13.77895737 5.11957397 12.81606674 5.12289429 C11.95722885 5.1281311 11.09839096 5.13336792 10.21352768 5.13876343 C7.83169174 5.02523804 7.83169174 5.02523804 6.05219269 4.52803135 C3.29767907 3.90432028 0.74721686 3.88436845 -2.07815933 3.86701965 C-3.28688202 3.85723083 -4.49560471 3.84744202 -5.74095535 3.83735657 C-7.07709082 3.83145284 -8.41322671 3.82564237 -9.74936295 3.81991577 C-11.15880493 3.81033377 -12.56824407 3.8003235 -13.97768021 3.78991699 C-17.80168327 3.76289676 -21.62569865 3.74187161 -25.44974422 3.72191501 C-29.44695843 3.70003767 -33.44413482 3.67265753 -37.44131851 3.64585876 C-45.00955682 3.59595551 -52.57781614 3.5510079 -60.14609551 3.5078364 C-68.76273609 3.4584438 -77.37933872 3.40353317 -85.99594259 3.34815681 C-103.72002925 3.2343731 -121.44415172 3.1275262 -139.16830826 3.02523804 C-139.16830826 2.36523804 -139.16830826 1.70523804 -139.16830826 1.02523804 C-122.06735511 0.89350283 -104.9663926 0.76306337 -87.86541843 0.63408661 C-79.92169932 0.57414564 -71.9779836 0.51381092 -64.03427505 0.45248413 C-57.09496406 0.39891253 -50.15564745 0.34614595 -43.21632355 0.29427099 C-39.55618763 0.2668835 -35.89605529 0.23914418 -32.23592949 0.21043396 C-21.49068447 0.12640578 -10.74537119 0.06522677 0 0 Z " fill="#4B2C2B" transform="translate(139.16830825805664,3.974761962890625)"/>
<path d="M0 0 C98.01 0 196.02 0 297 0 C297 0.99 297 1.98 297 3 C198.99 3 100.98 3 0 3 C0 2.01 0 1.02 0 0 Z " fill="#2F2522" transform="translate(0,42)"/>
<path d="M0 0 C98.01 0 196.02 0 297 0 C297 0.99 297 1.98 297 3 C198.99 3 100.98 3 0 3 C0 2.01 0 1.02 0 0 Z " fill="#2F2725" transform="translate(0,32)"/>
<path d="M0 0 C47.85 0 95.7 0 145 0 C145 0.99 145 1.98 145 3 C220.24 3.495 220.24 3.495 297 4 C297 4.33 297 4.66 297 5 C198.99 5 100.98 5 0 5 C0 3.35 0 1.7 0 0 Z " fill="#4C5A51" transform="translate(0,61)"/>
<path d="M0 0 C19.64562905 -0.02339239 39.29125526 -0.04101029 58.93689537 -0.05181217 C68.05933473 -0.05696167 77.18176542 -0.06397867 86.30419922 -0.07543945 C94.25816816 -0.08542747 102.21213083 -0.09186322 110.16610587 -0.09408849 C114.37505154 -0.09538861 118.58397926 -0.09843011 122.79291916 -0.10573006 C126.76058734 -0.11255531 130.72823028 -0.1146038 134.69590378 -0.11310768 C136.14623146 -0.1133811 137.59656005 -0.11534742 139.04688263 -0.11920547 C145.917578 -0.13657439 152.64635771 -0.01916213 159.47188377 0.76813412 C164.80818806 1.25755264 170.17305107 1.18019236 175.52783203 1.20532227 C176.84602432 1.21522186 178.16421661 1.22512146 179.52235413 1.23532104 C183.10633964 1.26213276 186.69033801 1.2832693 190.27436686 1.30332303 C194.03131297 1.32533071 197.78822057 1.35264642 201.5451355 1.37937927 C208.64568274 1.42910781 215.74625159 1.47411944 222.84684074 1.51740164 C230.93642422 1.5669446 239.02596902 1.62179895 247.11551499 1.67708123 C263.74364092 1.79059634 280.37180244 1.8975006 297 2 C297 2.33 297 2.66 297 3 C279.18775986 3.21387686 261.37525967 3.39803401 243.5625 3.5625 C242.87448429 3.56888284 242.18646858 3.57526568 241.47760391 3.58184195 C186.4817162 4.08976028 131.49642688 3.93212092 76.5 3.5625 C75.54474379 3.55610205 74.58948758 3.5497041 73.60528421 3.54311228 C49.07006237 3.37845969 24.53497555 3.19796095 0 3 C0 2.01 0 1.02 0 0 Z " fill="#182922" transform="translate(0,14)"/>
<path d="M0 0 C41.91 0 83.82 0 127 0 C127 0.66 127 1.32 127 2 C183.1 2 239.2 2 297 2 C297 2.33 297 2.66 297 3 C198.99 3 100.98 3 0 3 C0 2.01 0 1.02 0 0 Z " fill="#595C50" transform="translate(0,39)"/>
<path d="M0 0 C54.78 0 109.56 0 166 0 C166 0.99 166 1.98 166 3 C116.995 3.495 116.995 3.495 67 4 C67 4.33 67 4.66 67 5 C52.15 5 37.3 5 22 5 C22 4.67 22 4.34 22 4 C14.74 3.67 7.48 3.34 0 3 C0 2.01 0 1.02 0 0 Z " fill="#892A33" transform="translate(131,9)"/>
<path d="M0 0 C49.17 0 98.34 0 149 0 C149 0.66 149 1.32 149 2 C146.29770885 3.35114557 144.20551586 3.12283264 141.17880249 3.12025452 C139.93917252 3.12162918 138.69954254 3.12300385 137.42234802 3.12442017 C136.04116797 3.12088079 134.65998817 3.11724598 133.27880859 3.11352539 C131.83025616 3.11324344 130.38170359 3.1134014 128.93315125 3.1139679 C124.99330024 3.11425557 121.05347949 3.10836371 117.11363554 3.10139394 C112.99898652 3.09515538 108.88433686 3.0945562 104.76968384 3.09336853 C96.97468933 3.0902567 89.17970879 3.0820453 81.38472044 3.07201904 C72.51180974 3.06085331 63.63889837 3.05534629 54.76598239 3.05032361 C36.51064699 3.03986257 18.25532462 3.02226598 0 3 C0 2.01 0 1.02 0 0 Z " fill="#112C24" transform="translate(0,18)"/>
<path d="M0 0 C48.51 0 97.02 0 147 0 C147 0.33 147 0.66 147 1 C143.04 1 139.08 1 135 1 C135 1.66 135 2.32 135 3 C90.45 3 45.9 3 0 3 C0 2.01 0 1.02 0 0 Z " fill="#2D5A45" transform="translate(0,1)"/>
<path d="M0 0 C18.57579031 -0.04670152 37.15156872 -0.08197978 55.72740555 -0.10362434 C64.35230724 -0.11394099 72.97717248 -0.12800876 81.60205078 -0.15087891 C89.11867858 -0.17080088 96.63527997 -0.18371361 104.15193343 -0.18817699 C108.13267646 -0.19078639 112.11334396 -0.1969277 116.09406281 -0.21146011 C119.84012432 -0.22502519 123.58607911 -0.22922483 127.33216286 -0.22621536 C128.70761253 -0.22676601 130.08306574 -0.23074989 131.45849419 -0.23841095 C133.33568623 -0.24835476 135.21293541 -0.24477889 137.09014893 -0.24050903 C138.66641493 -0.24327441 138.66641493 -0.24327441 140.27452469 -0.24609566 C143.01823637 0.00164665 144.66188078 0.5876827 147 2 C132.32948616 3.29585621 117.63873517 3.13145073 102.92498589 3.10139394 C99.29622463 3.09506705 95.66746221 3.09454932 92.03869629 3.09336853 C85.19331485 3.09028237 78.34794971 3.08210626 71.5025754 3.07201904 C63.69824387 3.06077272 55.89391149 3.05532616 48.08957386 3.05032361 C32.05970652 3.03992082 16.02985538 3.02237496 0 3 C0 2.01 0 1.02 0 0 Z " fill="#265847" transform="translate(0,7)"/>
<path d="M0 0 C12.21 0 24.42 0 37 0 C37.495 1.485 37.495 1.485 38 3 C47.57 3.33 57.14 3.66 67 4 C67 4.33 67 4.66 67 5 C52.15 5 37.3 5 22 5 C22 4.67 22 4.34 22 4 C14.74 3.67 7.48 3.34 0 3 C0 2.01 0 1.02 0 0 Z " fill="#A5948B" transform="translate(131,9)"/>
</svg>
