<?xml version="1.0" standalone="no"?>
<!DOCTYPE svg PUBLIC "-//W3C//DTD SVG 20010904//EN"
 "http://www.w3.org/TR/2001/REC-SVG-20010904/DTD/svg10.dtd">
<svg version="1.0" xmlns="http://www.w3.org/2000/svg"
 width="612.000000pt" height="408.000000pt" viewBox="0 0 612.000000 408.000000"
 preserveAspectRatio="xMidYMid meet">

<g transform="translate(0.000000,408.000000) scale(0.100000,-0.100000)"
fill="#000000" stroke="none">
<path d="M2770 3790 c-8 -5 -10 -10 -5 -10 6 0 17 5 25 10 8 5 11 10 5 10 -5
0 -17 -5 -25 -10z"/>
<path d="M2970 3776 c0 -2 8 -10 18 -17 15 -13 16 -12 3 4 -13 16 -21 21 -21
13z"/>
<path d="M2705 3750 c-3 -6 1 -7 9 -4 18 7 21 14 7 14 -6 0 -13 -4 -16 -10z"/>
<path d="M3020 3711 c0 -6 4 -13 10 -16 6 -3 7 1 4 9 -7 18 -14 21 -14 7z"/>
<path d="M2665 3699 c-4 -6 -5 -12 -2 -15 2 -3 7 2 10 11 7 17 1 20 -8 4z"/>
<path d="M4228 3703 c7 -3 16 -2 19 1 4 3 -2 6 -13 5 -11 0 -14 -3 -6 -6z"/>
<path d="M4148 3693 c7 -3 16 -2 19 1 4 3 -2 6 -13 5 -11 0 -14 -3 -6 -6z"/>
<path d="M4415 3689 c-4 -6 -4 -13 -1 -16 3 -4 6 -1 6 6 0 8 6 11 16 7 8 -3
12 -2 9 4 -8 13 -22 13 -30 -1z"/>
<path d="M3041 3644 c0 -11 3 -14 6 -6 3 7 2 16 -1 19 -3 4 -6 -2 -5 -13z"/>
<path d="M3938 3653 c7 -3 16 -2 19 1 4 3 -2 6 -13 5 -11 0 -14 -3 -6 -6z"/>
<path d="M3850 3630 c-8 -5 -10 -10 -5 -10 6 0 17 5 25 10 8 5 11 10 5 10 -5
0 -17 -5 -25 -10z"/>
<path d="M3710 3580 c-8 -5 -10 -10 -5 -10 6 0 17 5 25 10 8 5 11 10 5 10 -5
0 -17 -5 -25 -10z"/>
<path d="M3052 3560 c0 -14 2 -19 5 -12 2 6 2 18 0 25 -3 6 -5 1 -5 -13z"/>
<path d="M2660 3561 c0 -6 4 -13 10 -16 6 -3 7 1 4 9 -7 18 -14 21 -14 7z"/>
<path d="M2159 3511 c-39 -38 -50 -54 -44 -68 4 -10 9 -23 11 -28 3 -6 -32
-40 -77 -75 -45 -36 -109 -87 -141 -115 -164 -137 -202 -165 -217 -161 -11 4
-23 -8 -38 -38 l-22 -44 48 16 c33 11 47 22 45 32 -3 14 123 132 167 156 11 5
39 28 62 50 99 95 179 155 195 148 45 -18 59 -15 110 28 46 38 50 44 35 56 -9
6 -28 12 -41 12 -18 0 -23 4 -18 16 7 19 -3 64 -15 64 -5 0 -32 -22 -60 -49z"/>
<path d="M3645 3550 c-3 -6 1 -7 9 -4 18 7 21 14 7 14 -6 0 -13 -4 -16 -10z"/>
<path d="M3590 3520 c-8 -5 -12 -12 -9 -15 4 -3 12 1 19 10 14 17 11 19 -10 5z"/>
<path d="M2690 3506 c0 -2 8 -10 18 -17 15 -13 16 -12 3 4 -13 16 -21 21 -21
13z"/>
<path d="M3041 3494 c0 -11 3 -14 6 -6 3 7 2 16 -1 19 -3 4 -6 -2 -5 -13z"/>
<path d="M3524 3474 c-18 -14 -18 -15 4 -4 12 6 22 13 22 15 0 8 -5 6 -26 -11z"/>
<path d="M2750 3456 c0 -2 8 -10 18 -17 15 -13 16 -12 3 4 -13 16 -21 21 -21
13z"/>
<path d="M3455 3440 c-3 -6 1 -7 9 -4 18 7 21 14 7 14 -6 0 -13 -4 -16 -10z"/>
<path d="M3017 3421 c-4 -17 -3 -21 5 -13 5 5 8 16 6 23 -3 8 -7 3 -11 -10z"/>
<path d="M2820 3410 c8 -5 20 -10 25 -10 6 0 3 5 -5 10 -8 5 -19 10 -25 10 -5
0 -3 -5 5 -10z"/>
<path d="M3386 3411 c-4 -5 3 -7 14 -4 23 6 26 13 6 13 -8 0 -17 -4 -20 -9z"/>
<path d="M2888 3383 c7 -3 16 -2 19 1 4 3 -2 6 -13 5 -11 0 -14 -3 -6 -6z"/>
<path d="M3258 3373 c7 -3 16 -2 19 1 4 3 -2 6 -13 5 -11 0 -14 -3 -6 -6z"/>
<path d="M2977 3364 c7 -3 9 -13 6 -22 -4 -15 -3 -15 6 -2 15 22 14 30 -6 29
-10 0 -13 -3 -6 -5z"/>
<path d="M3188 3363 c7 -3 16 -2 19 1 4 3 -2 6 -13 5 -11 0 -14 -3 -6 -6z"/>
<path d="M3098 3353 c6 -2 18 -2 25 0 6 3 1 5 -13 5 -14 0 -19 -2 -12 -5z"/>
<path d="M2951 3287 c-13 -21 -12 -21 5 -5 10 10 16 20 13 22 -3 3 -11 -5 -18
-17z"/>
<path d="M2095 3258 c-2 -13 -6 -68 -8 -123 -1 -55 -6 -108 -11 -117 -8 -18
24 -58 47 -58 38 1 42 16 39 146 -2 70 -8 138 -13 151 -11 30 -47 31 -54 1z"/>
<path d="M2346 3258 c-3 -13 -7 -81 -9 -151 -5 -126 -4 -129 18 -139 16 -7 29
-7 43 1 19 10 19 18 15 143 -3 73 -10 141 -15 151 -13 25 -47 22 -52 -5z"/>
<path d="M2602 3268 c-5 -7 -12 -75 -14 -151 -5 -136 -5 -139 17 -149 16 -7
29 -7 43 1 19 10 20 18 15 138 -2 71 -6 138 -9 151 -5 24 -35 30 -52 10z"/>
<path d="M2851 3257 c-5 -13 -11 -81 -13 -151 -3 -129 1 -145 38 -146 20 0 45
25 44 45 -10 154 -10 219 -2 227 12 12 -21 48 -43 48 -9 0 -19 -10 -24 -23z"/>
<path d="M3104 3269 c-4 -7 -8 -53 -10 -103 -2 -50 -6 -110 -9 -132 -6 -46 11
-74 45 -74 29 0 54 43 41 69 -6 11 -11 65 -11 120 0 54 -3 106 -6 115 -7 18
-40 21 -50 5z"/>
<path d="M3357 3274 c-4 -4 -7 -39 -8 -78 0 -39 -4 -98 -9 -131 -6 -45 -4 -66
6 -82 29 -47 93 -10 79 44 -4 15 -10 78 -14 138 -5 101 -8 110 -26 113 -12 2
-24 0 -28 -4z"/>
<path d="M3607 3274 c-4 -4 -7 -56 -7 -116 0 -60 -5 -118 -11 -129 -8 -16 -7
-26 6 -45 18 -29 46 -31 68 -6 15 16 15 29 7 103 -5 46 -11 109 -12 139 -3 47
-6 55 -23 58 -12 2 -24 0 -28 -4z"/>
<path d="M3863 3268 c-15 -18 -23 -284 -10 -297 16 -16 53 -13 67 4 8 9 10 28
6 51 -4 20 -7 71 -7 113 0 43 -3 91 -8 107 -8 32 -32 42 -48 22z"/>
<path d="M2789 3133 c-13 -17 -13 -17 6 -3 11 8 22 16 24 17 2 2 0 3 -6 3 -6
0 -17 -8 -24 -17z"/>
<path d="M690 2856 c0 -2 7 -7 16 -10 8 -3 12 -2 9 4 -6 10 -25 14 -25 6z"/>
<path d="M760 2810 c8 -5 20 -10 25 -10 6 0 3 5 -5 10 -8 5 -19 10 -25 10 -5
0 -3 -5 5 -10z"/>
<path d="M810 2786 c0 -3 9 -10 20 -16 11 -6 20 -8 20 -6 0 3 -9 10 -20 16
-11 6 -20 8 -20 6z"/>
<path d="M890 2740 c8 -5 20 -10 25 -10 6 0 3 5 -5 10 -8 5 -19 10 -25 10 -5
0 -3 -5 5 -10z"/>
<path d="M960 2710 c8 -5 20 -10 25 -10 6 0 3 5 -5 10 -8 5 -19 10 -25 10 -5
0 -3 -5 5 -10z"/>
<path d="M1028 2683 c7 -3 16 -2 19 1 4 3 -2 6 -13 5 -11 0 -14 -3 -6 -6z"/>
<path d="M1098 2663 c7 -3 16 -2 19 1 4 3 -2 6 -13 5 -11 0 -14 -3 -6 -6z"/>
<path d="M1168 2643 c7 -3 16 -2 19 1 4 3 -2 6 -13 5 -11 0 -14 -3 -6 -6z"/>
<path d="M1228 2633 c7 -3 16 -2 19 1 4 3 -2 6 -13 5 -11 0 -14 -3 -6 -6z"/>
<path d="M1383 2613 c9 -2 23 -2 30 0 6 3 -1 5 -18 5 -16 0 -22 -2 -12 -5z"/>
<path d="M3255 2595 c-24 -23 -25 -31 -25 -135 0 -104 1 -112 25 -135 23 -24
31 -25 133 -25 95 0 113 3 136 21 25 20 26 23 26 138 0 110 -1 119 -23 139
-21 20 -34 22 -136 22 -106 0 -113 -1 -136 -25z m260 -10 c23 -22 25 -31 25
-125 0 -95 -2 -102 -25 -126 -25 -25 -30 -26 -130 -22 -139 4 -138 3 -136 148
0 62 4 117 7 122 12 19 51 27 142 27 86 1 95 -1 117 -24z"/>
<path d="M3310 2545 c0 -5 17 -26 37 -47 l37 -38 -37 -38 c-52 -53 -46 -65 6
-14 l43 42 39 -40 c21 -22 41 -37 44 -35 2 3 -13 23 -34 45 l-39 40 39 40 c21
22 36 42 34 45 -3 2 -23 -13 -44 -35 l-39 -40 -43 42 c-24 23 -43 38 -43 33z"/>
<path d="M4380 2288 c-14 -16 -20 -35 -20 -71 0 -39 -8 -62 -37 -110 l-36 -60
-19 23 c-10 12 -18 29 -18 37 0 26 -28 -5 -51 -56 -28 -63 -20 -120 24 -157
27 -23 37 -25 77 -20 38 5 52 13 88 53 45 51 53 74 23 66 -11 -3 -27 -1 -35 4
-14 8 -11 17 24 66 35 49 46 57 73 57 42 0 77 25 77 54 0 31 -29 86 -49 93 -9
4 -27 15 -40 25 -31 24 -56 23 -81 -4z m75 -8 c3 -5 2 -10 -4 -10 -6 0 -15 -9
-21 -20 -17 -31 18 -40 42 -10 15 18 21 20 33 10 14 -11 13 -14 -7 -24 -28
-14 -30 -35 -5 -50 15 -9 21 -7 33 8 14 20 14 20 14 0 0 -28 -19 -44 -51 -44
-45 0 -58 -10 -100 -71 -22 -33 -42 -59 -45 -59 -13 0 -44 22 -44 31 0 5 16
33 35 62 28 41 35 61 35 100 0 64 13 87 50 87 16 0 32 -4 35 -10z m5 -35 c-7
-9 -15 -13 -17 -11 -7 7 7 26 19 26 6 0 6 -6 -2 -15z m60 -46 c0 -5 -7 -9 -15
-9 -15 0 -20 12 -9 23 8 8 24 -1 24 -14z"/>
<path d="M1059 2170 c-19 -27 -38 -50 -44 -50 -5 0 -39 9 -74 20 -36 11 -67
18 -69 15 -2 -2 14 -9 37 -16 42 -12 47 -18 33 -34 -15 -17 -54 -85 -49 -85 3
0 20 23 38 50 33 51 35 52 86 33 7 -3 18 7 24 21 14 30 19 31 84 11 27 -8 51
-13 53 -10 2 2 -21 11 -52 21 l-55 17 15 29 c22 43 10 34 -27 -22z"/>
<path d="M2894 1903 c-43 -54 -88 -108 -99 -121 -49 -57 -312 -387 -311 -389
2 -2 37 3 79 9 65 11 77 15 82 35 3 12 15 28 27 34 18 10 20 9 15 -5 -5 -13 0
-15 37 -10 34 5 44 3 49 -10 5 -12 -6 -25 -40 -46 -26 -17 -53 -30 -61 -30 -8
0 -44 -14 -80 -31 -36 -18 -88 -40 -116 -49 -47 -17 -51 -17 -93 1 -53 22 -87
13 -97 -26 -9 -35 1 -65 20 -58 21 8 17 -5 -12 -40 l-25 -30 28 -24 c37 -31
160 -124 167 -126 6 -2 109 121 311 371 77 96 197 244 267 330 69 87 125 158
124 160 -2 1 -22 -5 -46 -13 -23 -8 -44 -15 -47 -15 -2 0 -1 27 3 60 l7 60
-58 -20 -58 -20 6 50 c3 28 5 50 3 50 -1 0 -38 -44 -82 -97z"/>
<path d="M5237 1963 c-15 -3 -48 -24 -72 -47 -24 -24 -90 -80 -147 -126 -107
-86 -105 -84 -262 -330 -37 -58 -69 -105 -71 -105 -2 0 -57 53 -123 117 -95
93 -123 114 -131 104 -9 -11 17 -42 121 -144 73 -71 137 -128 143 -126 5 3 33
41 60 85 170 272 182 287 325 406 74 61 140 110 146 108 6 -2 18 12 27 31 9
19 16 33 14 33 -1 -1 -15 -4 -30 -6z"/>
<path d="M1609 1708 c-28 -57 -57 -110 -65 -119 -19 -21 -128 -49 -187 -49
-53 0 -57 -7 -57 -91 0 -46 -3 -59 -15 -59 -10 0 -15 10 -15 29 0 43 -11 91
-21 91 -5 0 -9 -20 -9 -44 0 -54 -8 -76 -26 -76 -10 0 -14 15 -14 54 0 80 -4
87 -54 80 -22 -4 -53 -13 -67 -20 -36 -18 -164 -207 -155 -229 3 -9 40 -32 81
-51 85 -39 84 -36 65 -168 -6 -39 -7 -72 -2 -75 12 -8 -5 -237 -26 -341 -16
-85 -20 -162 -13 -275 3 -33 1 -79 -4 -103 l-8 -43 88 3 c58 2 90 7 92 15 3 7
-18 24 -46 38 -28 14 -51 29 -51 33 0 77 111 587 133 608 1 2 26 -59 54 -134
46 -125 51 -147 56 -247 4 -60 14 -135 23 -165 9 -30 15 -76 15 -102 l-2 -48
85 0 c102 0 114 16 41 52 -25 12 -45 29 -45 37 0 15 -11 151 -40 515 l-11 139
30 24 c27 21 29 27 20 51 -20 50 -39 173 -39 247 l0 73 78 55 c105 75 134 109
170 202 61 156 64 168 45 183 -37 27 -51 15 -104 -90z m-517 -430 c-6 -6 -17
-5 -31 3 -20 13 -20 14 7 42 l27 29 3 -32 c2 -18 -1 -37 -6 -42z m155 -34 c9
-25 -24 -44 -74 -44 -35 0 -43 3 -43 18 0 37 104 59 117 26z m-9 -124 c21 -37
27 -37 42 0 14 33 36 40 43 13 22 -79 23 -77 -64 -87 -72 -9 -82 -1 -74 58 9
54 28 60 53 16z"/>
<path d="M3895 1783 c-4 -12 1 -24 17 -35 45 -35 49 -40 43 -59 -4 -13 -2 -19
9 -19 9 0 16 -5 16 -10 0 -20 -30 -70 -42 -70 -6 0 -1 -11 12 -25 l23 -25 -46
-49 c-51 -55 -57 -50 -26 19 l20 44 -27 -24 c-32 -30 -84 -108 -84 -128 0 -8
7 -29 16 -48 12 -25 15 -48 10 -82 -11 -85 -19 -348 -12 -425 l7 -74 42 -14
c62 -21 196 -18 212 4 17 24 28 219 15 287 -15 86 -32 140 -42 140 -5 0 -18
-5 -30 -11 -26 -14 -68 -3 -68 18 0 23 30 42 67 43 l31 0 -5 78 c-3 42 -11 79
-17 81 -23 9 -66 60 -66 79 0 25 31 52 61 52 16 0 20 3 11 8 -9 6 -10 16 -3
34 5 14 13 57 16 95 7 65 6 71 -20 101 -24 29 -32 32 -80 32 -41 0 -54 -4 -60
-17z m-20 -573 c3 -5 1 -10 -4 -10 -6 0 -11 5 -11 10 0 6 2 10 4 10 3 0 8 -4
11 -10z"/>
<path d="M1250 1771 l-45 -6 1 -88 c0 -48 4 -90 7 -94 4 -3 13 0 21 6 14 11
13 16 0 37 -20 30 -11 63 11 44 13 -11 15 -8 13 21 -3 32 -1 34 30 37 27 3 33
7 30 24 -4 25 -9 27 -68 19z"/>
<path d="M2276 1754 c-3 -9 -13 -14 -21 -10 -10 3 -20 -6 -31 -29 -21 -46 -12
-174 12 -154 10 8 12 23 7 53 -6 36 -5 40 9 28 9 -7 19 -29 23 -48 6 -33 8
-35 42 -32 46 4 58 28 14 28 -26 0 -33 6 -54 50 -13 27 -22 52 -19 55 3 3 23
5 44 5 42 0 44 3 26 43 -14 30 -42 36 -52 11z"/>
<path d="M1976 1162 c-19 -28 -27 -61 -36 -137 -21 -180 -36 -239 -73 -292
-42 -58 -86 -145 -128 -250 -29 -74 -30 -78 -12 -91 16 -12 24 -7 76 50 115
124 207 240 233 289 14 28 27 49 29 47 2 -2 20 -97 41 -211 35 -194 39 -207
59 -207 20 0 23 7 29 68 3 37 9 149 13 249 5 164 4 185 -11 202 -9 10 -22 35
-27 55 -8 31 -7 45 10 79 20 42 26 97 10 97 -20 0 -120 43 -153 65 l-36 24
-24 -37z"/>
<path d="M4315 711 c8 -17 19 -33 25 -36 5 -3 10 -22 10 -41 0 -21 4 -33 10
-29 17 11 11 61 -11 89 l-21 26 24 9 c20 9 19 10 -15 10 l-38 1 16 -29z"/>
<path d="M3182 538 l3 -23 193 -3 192 -2 0 23 0 24 -196 2 -196 2 4 -23z"/>
<path d="M1691 367 c-6 -6 -11 -17 -11 -23 0 -12 119 -104 134 -104 15 0 3 31
-27 69 -40 50 -80 74 -96 58z"/>
<path d="M4018 305 c-20 -14 -51 -25 -67 -25 -17 0 -31 -4 -31 -10 0 -19 73
-11 97 12 l23 21 9 -24 c9 -22 10 -21 10 14 1 20 0 37 -2 37 -1 0 -19 -11 -39
-25z"/>
<path d="M2163 300 c-13 -5 -23 -18 -23 -30 0 -17 6 -20 39 -20 68 0 131 12
131 25 0 7 -7 15 -15 19 -31 11 -111 15 -132 6z"/>
</g>
</svg>
