<?xml version="1.0" standalone="no"?>
<!DOCTYPE svg PUBLIC "-//W3C//DTD SVG 20010904//EN"
 "http://www.w3.org/TR/2001/REC-SVG-20010904/DTD/svg10.dtd">
<svg version="1.0" xmlns="http://www.w3.org/2000/svg"
 width="3000.000000pt" height="2000.000000pt" viewBox="0 0 3000.000000 2000.000000"
 preserveAspectRatio="xMidYMid meet">

<g transform="translate(0.000000,2000.000000) scale(0.100000,-0.100000)"
fill="#000000" stroke="none">
<path d="M13900 18691 c-44 -9 -60 -18 -60 -36 0 -24 17 -26 125 -14 100 11
105 13 105 35 0 23 -3 24 -67 23 -38 -1 -84 -4 -103 -8z"/>
<path d="M14204 18676 c-9 -22 2 -46 22 -46 8 0 49 -12 90 -26 80 -27 104 -26
104 5 0 15 -16 25 -72 44 -105 37 -137 42 -144 23z"/>
<path d="M13596 18595 c-90 -39 -101 -47 -93 -69 9 -23 37 -20 113 15 98 44
99 44 102 68 5 31 -28 27 -122 -14z"/>
<path d="M14523 18524 c-3 -8 1 -21 8 -28 147 -135 150 -137 165 -126 24 21
16 35 -56 104 -70 65 -105 81 -117 50z"/>
<path d="M13285 18412 c-70 -58 -92 -96 -61 -108 14 -5 37 11 149 107 20 17
28 31 24 42 -11 29 -40 18 -112 -41z"/>
<path d="M21700 18277 c0 -8 16 -45 35 -83 28 -56 34 -76 29 -106 -4 -21 -10
-36 -14 -33 -3 2 -7 -2 -7 -10 0 -11 3 -12 14 -3 12 10 13 7 8 -18 -6 -27 -6
-28 9 -10 11 14 13 23 5 32 -6 7 -9 21 -6 31 3 14 6 12 15 -10 7 -16 9 -39 6
-52 -4 -17 -1 -24 13 -28 16 -4 16 -5 1 -6 -10 0 -18 -5 -18 -10 0 -5 14 -4
30 2 28 11 29 12 9 19 -11 4 -17 13 -14 19 6 9 -52 167 -66 179 -3 3 -14 26
-24 53 -18 48 -25 57 -25 34z"/>
<path d="M14765 18260 c-9 -14 84 -200 99 -200 30 0 35 22 15 73 -44 111 -91
164 -114 127z"/>
<path d="M21684 18247 c3 -10 6 -24 6 -30 0 -8 4 -7 12 1 10 10 8 16 -6 30
-18 16 -19 16 -12 -1z"/>
<path d="M13082 18193 c-36 -52 -82 -152 -76 -167 13 -34 44 -17 69 37 13 28
34 68 46 89 36 60 1 97 -39 41z"/>
<path d="M20957 18194 c-4 -4 -7 -16 -7 -26 0 -15 6 -19 28 -16 19 2 27 9 27
23 0 20 -33 33 -48 19z"/>
<path d="M21660 18160 c-6 -23 -15 -53 -20 -65 -7 -19 -6 -22 9 -18 14 4 20
18 24 61 7 69 2 78 -13 22z"/>
<path d="M20685 18176 c-86 -11 -90 -12 -90 -36 0 -24 1 -25 65 -21 117 6 154
15 158 35 4 18 -14 37 -33 35 -5 -1 -50 -7 -100 -13z"/>
<path d="M21680 18142 c0 -12 5 -22 10 -22 6 0 10 -6 10 -14 0 -8 6 -16 13
-19 20 -8 9 38 -14 59 -18 16 -19 16 -19 -4z"/>
<path d="M20345 18133 c-49 -7 -96 -15 -102 -18 -15 -5 -17 -41 -4 -49 10 -6
196 19 211 29 14 9 12 42 -2 47 -7 2 -53 -2 -103 -9z"/>
<path d="M19970 18073 c-86 -16 -113 -34 -89 -58 13 -13 24 -13 99 1 100 18
130 29 130 48 0 29 -30 31 -140 9z"/>
<path d="M21614 18043 c-25 -43 10 -66 86 -57 l35 4 -35 -11 c-19 -6 -51 -9
-70 -6 -31 5 -32 4 -12 -5 16 -8 42 -8 95 2 l72 13 -45 12 c-25 7 -49 8 -54 4
-6 -5 -17 -9 -25 -9 -13 0 -13 2 -3 9 8 5 12 20 9 37 l-4 29 -8 -32 c-10 -42
-33 -44 -27 -3 5 34 1 38 -14 13z"/>
<path d="M21698 18043 c7 -3 16 -2 19 1 4 3 -2 6 -13 5 -11 0 -14 -3 -6 -6z"/>
<path d="M21720 18020 c8 -5 20 -10 25 -10 6 0 3 5 -5 10 -8 5 -19 10 -25 10
-5 0 -3 -5 5 -10z"/>
<path d="M19640 18008 c-103 -22 -120 -28 -120 -47 0 -30 24 -32 121 -11 98
20 115 29 106 54 -7 18 -38 19 -107 4z"/>
<path d="M21576 17944 c-4 -14 -5 -29 -1 -32 3 -3 5 2 5 11 0 8 7 17 17 19 14
3 15 4 1 16 -13 11 -17 9 -22 -14z"/>
<path d="M21725 17963 c-11 -3 -24 -10 -30 -15 -7 -7 -2 -8 15 -2 14 4 33 8
42 8 9 0 14 4 12 8 -5 8 -7 8 -39 1z"/>
<path d="M14898 17929 c-2 -6 2 -44 9 -83 23 -119 27 -131 48 -131 18 0 20 6
18 65 -3 91 -23 154 -50 158 -11 2 -23 -2 -25 -9z"/>
<path d="M19256 17920 c-75 -20 -92 -31 -83 -54 8 -21 45 -19 142 8 66 18 81
26 83 44 3 19 -1 22 -35 21 -21 0 -69 -9 -107 -19z"/>
<path d="M21616 17931 c-3 -4 6 -6 19 -3 14 2 25 6 25 8 0 8 -39 4 -44 -5z"/>
<path d="M12973 17883 c-9 -3 -13 -35 -13 -107 0 -107 9 -133 40 -116 14 7 16
25 15 117 -2 110 -6 121 -42 106z"/>
<path d="M18908 17824 c-69 -22 -78 -28 -78 -50 0 -31 12 -31 125 4 73 23 90
32 90 48 0 28 -45 27 -137 -2z"/>
<path d="M18620 17731 c-25 -10 -66 -25 -92 -35 -49 -18 -59 -34 -34 -55 10
-9 34 -4 102 20 100 36 118 48 108 72 -8 21 -27 21 -84 -2z"/>
<path d="M18233 17584 c-63 -27 -83 -41 -83 -55 0 -33 25 -32 122 8 72 31 93
44 93 59 0 31 -41 27 -132 -12z"/>
<path d="M14953 17582 c-5 -4 -13 -55 -17 -113 -5 -91 -4 -108 9 -113 34 -13
42 3 47 96 3 49 3 98 1 108 -6 21 -25 31 -40 22z"/>
<path d="M13021 17530 c-19 -11 -8 -61 32 -140 22 -45 38 -66 53 -68 36 -5 34
21 -12 115 -47 99 -53 106 -73 93z"/>
<path d="M10844 17447 c-22 -17 -129 -106 -237 -196 -232 -193 -252 -218 -252
-327 0 -63 4 -80 39 -148 21 -42 37 -78 35 -80 -2 -1 -183 -151 -401 -332
-219 -181 -456 -376 -528 -434 -155 -125 -137 -109 -355 -300 -112 -98 -218
-185 -550 -455 -71 -58 -161 -131 -198 -162 l-69 -57 -35 42 c-19 23 -40 42
-47 42 -7 0 -21 -19 -33 -42 -11 -24 -68 -121 -127 -217 -59 -96 -105 -175
-104 -176 2 -2 77 26 168 62 91 36 196 75 234 87 38 12 71 26 73 32 2 6 -12
31 -32 54 -29 35 -34 45 -23 55 7 7 45 38 83 70 39 32 72 61 75 64 3 4 25 22
50 41 73 57 92 72 155 131 65 61 413 351 460 384 39 28 272 221 295 245 3 3
25 21 50 40 54 42 53 41 127 110 54 51 333 284 652 546 l136 112 55 -44 c30
-23 73 -50 94 -59 53 -22 148 -21 195 2 34 17 509 402 510 413 0 3 -21 19 -47
37 -123 84 -260 114 -335 75 -47 -25 -56 -12 -21 34 23 30 28 47 31 112 3 67
0 89 -29 171 -18 52 -37 96 -43 98 -5 1 -28 -12 -51 -30z"/>
<path d="M17919 17441 c-91 -48 -109 -65 -87 -87 14 -14 25 -11 109 33 71 36
94 53 94 68 0 32 -33 28 -116 -14z"/>
<path d="M17603 17260 c-90 -56 -96 -61 -87 -84 10 -25 25 -20 118 37 67 40
86 56 84 72 -5 33 -29 28 -115 -25z"/>
<path d="M14915 17218 c-2 -7 -14 -55 -25 -107 -21 -97 -18 -116 16 -109 14 2
23 22 37 83 21 94 19 138 -6 143 -9 2 -19 -2 -22 -10z"/>
<path d="M13186 17204 c-7 -18 3 -32 78 -111 50 -53 82 -66 92 -38 7 18 -124
165 -147 165 -9 0 -20 -7 -23 -16z"/>
<path d="M17298 17068 c-62 -35 -88 -56 -88 -70 0 -33 27 -31 96 8 89 50 117
75 109 97 -10 25 -21 22 -117 -35z"/>
<path d="M13444 16955 c-9 -21 1 -31 81 -85 82 -55 115 -63 114 -27 0 16 -21
36 -80 75 -83 54 -106 62 -115 37z"/>
<path d="M16977 16898 c-72 -35 -87 -45 -87 -65 0 -34 26 -30 125 19 69 35 85
47 85 65 0 33 -22 29 -123 -19z"/>
<path d="M14821 16858 c-64 -176 -64 -179 -50 -193 8 -8 19 -11 27 -6 18 11
83 187 76 206 -9 23 -43 18 -53 -7z"/>
<path d="M13762 16782 c-6 -2 -12 -13 -12 -23 0 -16 20 -30 84 -60 46 -21 93
-39 104 -39 22 0 34 20 23 38 -10 16 -183 90 -199 84z"/>
<path d="M16648 16756 c-96 -40 -108 -50 -85 -73 16 -16 23 -15 114 22 78 32
98 44 98 60 0 31 -39 28 -127 -9z"/>
<path d="M16305 16642 c-72 -23 -91 -32 -93 -49 -5 -32 18 -33 106 -8 100 29
124 42 120 63 -5 25 -34 24 -133 -6z"/>
<path d="M14083 16634 c-9 -24 10 -36 107 -65 70 -21 93 -24 105 -15 30 22 5
41 -85 69 -103 31 -118 33 -127 11z"/>
<path d="M15965 16559 c-95 -20 -111 -29 -102 -53 8 -20 48 -19 147 2 69 16
75 19 75 42 0 32 -10 32 -120 9z"/>
<path d="M14437 16553 c-10 -9 -9 -41 1 -47 5 -3 52 -12 106 -22 73 -12 101
-13 109 -5 24 24 -7 44 -99 62 -104 21 -109 21 -117 12z"/>
<path d="M14703 16542 c-6 -4 -31 -48 -56 -99 -40 -78 -44 -93 -32 -103 8 -7
21 -10 29 -7 17 7 96 161 96 187 0 20 -21 32 -37 22z"/>
<path d="M15578 16503 c-59 -4 -85 -21 -74 -49 6 -14 17 -16 79 -10 135 12
147 16 147 42 0 26 -1 26 -152 17z"/>
<path d="M14784 16485 c-11 -28 11 -37 112 -47 83 -8 99 -7 112 6 29 29 -3 43
-116 51 -89 6 -103 5 -108 -10z"/>
<path d="M15143 16464 c-12 -31 14 -39 120 -36 105 3 124 9 114 36 -5 13 -26
16 -117 16 -91 0 -112 -3 -117 -16z"/>
<path d="M14519 16213 c-32 -38 -99 -150 -99 -165 0 -16 26 -32 39 -23 20 12
112 166 109 182 -4 24 -31 28 -49 6z"/>
<path d="M24750 16141 c0 -6 4 -13 10 -16 6 -3 7 1 4 9 -7 18 -14 21 -14 7z"/>
<path d="M10335 16092 c-39 -24 -80 -102 -94 -176 -7 -38 -11 -233 -11 -526
l0 -467 -30 -54 c-47 -85 -38 -199 22 -269 31 -37 92 -73 136 -82 105 -19 206
29 255 122 25 49 28 63 25 125 -3 55 -10 79 -30 111 l-27 42 -3 508 c-4 542
-3 537 -54 613 -46 69 -126 91 -189 53z"/>
<path d="M11544 16066 c-74 -77 -74 -76 -75 -635 l-1 -495 -34 -64 c-52 -98
-44 -193 24 -272 64 -76 152 -103 243 -76 68 19 118 60 148 120 33 67 28 174
-11 233 l-27 41 -3 514 -3 513 -30 60 c-37 74 -80 105 -143 105 -41 0 -50 -5
-88 -44z"/>
<path d="M12815 16100 c-30 -12 -62 -50 -87 -105 -23 -50 -23 -54 -28 -566 -4
-457 -7 -519 -21 -535 -9 -11 -24 -41 -34 -68 -16 -42 -17 -57 -8 -112 6 -35
21 -77 33 -94 34 -47 95 -87 154 -101 176 -39 335 145 269 313 -9 24 -23 51
-32 62 -14 16 -17 81 -21 535 l-5 516 -26 56 c-43 92 -119 131 -194 99z"/>
<path d="M14034 16092 c-75 -48 -104 -146 -104 -353 0 -118 -3 -149 -15 -159
-8 -7 -15 -19 -15 -27 0 -7 7 -16 15 -19 13 -5 15 -49 15 -311 l0 -304 -25
-36 c-63 -94 -52 -213 28 -296 101 -103 255 -98 350 13 60 71 74 184 30 261
-10 17 -23 41 -30 52 -9 16 -12 139 -13 461 l0 440 46 47 c31 31 45 53 41 63
-8 21 -30 20 -58 -3 l-23 -18 -21 64 c-30 89 -76 134 -142 140 -36 3 -56 -1
-79 -15z"/>
<path d="M15263 16089 c-21 -13 -44 -44 -65 -87 l-33 -67 -3 -505 -3 -505 -30
-59 c-113 -228 137 -452 346 -308 91 63 124 209 67 302 l-27 45 -5 515 -5 515
-33 67 c-51 103 -132 137 -209 87z"/>
<path d="M16475 16067 c-72 -72 -73 -79 -78 -655 -4 -442 -6 -505 -20 -520
-66 -73 -61 -209 11 -292 93 -110 249 -116 348 -14 85 88 93 229 18 314 -10
13 -14 118 -16 530 l-3 515 -28 58 c-36 72 -83 107 -146 107 -38 0 -49 -5 -86
-43z"/>
<path d="M17727 16088 c-38 -28 -71 -82 -85 -140 -8 -32 -12 -197 -12 -534 l0
-488 -24 -35 c-100 -145 -24 -333 150 -372 174 -39 329 140 269 310 -8 23 -24
54 -35 68 -19 25 -20 39 -20 521 0 521 -2 541 -46 613 -48 78 -136 103 -197
57z"/>
<path d="M18974 16082 c-38 -24 -69 -66 -91 -124 -15 -38 -18 -105 -23 -553
-5 -506 -5 -510 -27 -541 -75 -104 -35 -261 84 -331 40 -24 59 -28 118 -28 78
1 112 14 164 67 46 46 62 82 68 149 6 61 -5 101 -40 153 -19 27 -20 48 -21
540 -1 570 0 555 -71 633 -34 38 -47 46 -85 50 -33 3 -53 -1 -76 -15z"/>
<path d="M21574 15518 l-19 -23 23 19 c21 18 27 26 19 26 -2 0 -12 -10 -23
-22z"/>
<path d="M13730 15423 c-98 -80 -110 -92 -104 -107 12 -31 36 -22 111 40 84
69 95 87 66 102 -15 8 -29 2 -73 -35z"/>
<path d="M26006 15173 c-6 -14 -5 -15 5 -6 7 7 10 15 7 18 -3 3 -9 -2 -12 -12z"/>
<path d="M25010 15146 c0 -2 7 -7 16 -10 8 -3 12 -2 9 4 -6 10 -25 14 -25 6z"/>
<path d="M24785 15090 c10 -11 20 -20 23 -20 3 0 -3 9 -13 20 -10 11 -20 20
-23 20 -3 0 3 -9 13 -20z"/>
<path d="M23136 14173 c-6 -14 -5 -15 5 -6 7 7 10 15 7 18 -3 3 -9 -2 -12 -12z"/>
<path d="M3367 14053 c-19 -19 0 -45 73 -97 44 -32 87 -56 97 -54 37 7 17 39
-62 98 -78 59 -95 67 -108 53z"/>
<path d="M3660 13831 c0 -23 11 -32 102 -86 73 -44 101 -48 96 -12 -2 13 -31
38 -81 68 -84 53 -117 61 -117 30z"/>
<path d="M21690 13729 c0 -5 5 -7 10 -4 6 3 10 8 10 11 0 2 -4 4 -10 4 -5 0
-10 -5 -10 -11z"/>
<path d="M3966 13654 c-9 -24 -1 -31 96 -80 91 -46 118 -50 118 -16 0 13 -26
32 -89 65 -95 51 -116 56 -125 31z"/>
<path d="M4297 13503 c-4 -3 -7 -15 -7 -25 0 -14 24 -30 92 -63 94 -45 121
-47 116 -12 -2 15 -27 33 -88 63 -88 44 -102 49 -113 37z"/>
<path d="M4621 13347 c-18 -22 7 -42 96 -77 88 -34 118 -36 118 -6 0 15 -21
28 -94 58 -107 43 -105 43 -120 25z"/>
<path d="M4955 13220 c-17 -27 9 -46 100 -77 86 -28 97 -30 111 -16 22 23 5
36 -94 72 -90 33 -107 36 -117 21z"/>
<path d="M5301 13106 c-22 -27 0 -43 99 -70 102 -29 120 -28 120 4 0 15 -15
24 -72 40 -40 12 -83 26 -96 31 -31 12 -37 11 -51 -5z"/>
<path d="M5643 13004 c-9 -25 19 -40 115 -62 94 -22 115 -20 110 11 -2 17 -19
25 -93 44 -108 27 -124 28 -132 7z"/>
<path d="M5993 12924 c-10 -26 11 -36 111 -54 99 -18 120 -15 114 16 -2 15
-20 23 -78 36 -99 21 -139 22 -147 2z"/>
<path d="M6347 12867 c-11 -28 13 -39 109 -52 100 -14 124 -10 124 21 0 16
-16 21 -105 34 -94 13 -122 12 -128 -3z"/>
<path d="M16089 12836 c-116 -47 -176 -102 -227 -206 l-27 -55 -5 -455 c-3
-250 -2 -482 2 -516 15 -129 103 -251 225 -310 l58 -29 496 -3 c481 -3 498 -2
552 18 106 40 197 131 237 236 19 51 20 77 20 543 1 462 0 492 -19 541 -42
110 -142 206 -255 243 -43 15 -109 17 -525 17 -474 0 -476 -1 -532 -24z m1063
-93 c68 -32 131 -99 157 -167 20 -55 21 -72 21 -516 0 -430 -1 -463 -19 -510
-28 -74 -82 -134 -149 -167 l-57 -28 -459 -3 c-514 -3 -522 -2 -611 66 -33 25
-59 57 -80 97 l-30 59 0 485 c0 481 0 486 22 534 38 81 116 146 200 166 21 5
245 9 498 8 452 -2 461 -2 507 -24z"/>
<path d="M16212 12484 c-12 -8 -22 -23 -22 -32 0 -9 84 -101 187 -204 l188
-188 -188 -188 c-103 -103 -187 -194 -187 -203 0 -22 21 -39 48 -39 18 0 71
47 204 178 98 97 182 178 186 180 4 1 88 -79 187 -178 117 -117 187 -180 200
-180 25 0 45 18 45 39 0 9 -83 99 -185 201 l-185 185 186 187 c197 197 206
213 156 246 -22 15 -27 10 -210 -172 -103 -102 -192 -186 -197 -186 -6 0 -89
79 -185 176 -96 96 -182 179 -191 184 -10 6 -23 4 -37 -6z"/>
<path d="M6710 12825 c-26 -31 6 -43 120 -47 101 -3 105 -2 108 19 4 26 -6 29
-124 38 -76 5 -93 4 -104 -10z"/>
<path d="M6035 11923 c-49 -75 -109 -162 -131 -193 -28 -38 -39 -62 -33 -71
10 -17 5 -24 79 101 62 103 109 178 158 253 14 20 23 39 21 41 -2 2 -44 -57
-94 -131z"/>
<path d="M5730 11473 c-69 -102 -151 -225 -182 -272 -31 -47 -65 -97 -75 -110
-10 -14 -17 -30 -17 -37 1 -7 -2 -12 -6 -11 -12 4 -161 -223 -154 -235 4 -6 3
-8 -3 -5 -6 4 -26 -16 -44 -46 -18 -28 -36 -54 -39 -57 -3 -3 -52 -75 -109
-161 l-104 -156 -26 13 c-14 8 -30 14 -36 14 -8 0 -197 56 -375 112 -36 11
-72 22 -80 24 -8 2 -82 24 -165 49 -82 26 -181 55 -220 66 -38 11 -79 24 -90
29 -11 5 -67 22 -125 39 -58 16 -143 42 -190 56 -155 48 -215 65 -250 71 -19
3 -37 9 -40 13 -3 4 -25 13 -50 20 -25 7 -89 26 -143 43 -54 16 -101 28 -103
25 -5 -4 140 -56 169 -61 7 -1 18 -5 25 -9 6 -5 42 -19 80 -32 37 -13 119 -42
182 -65 258 -92 410 -140 427 -134 13 4 14 3 5 -4 -13 -9 43 -29 522 -195 65
-23 120 -47 123 -54 3 -6 -63 -123 -147 -260 -182 -299 -152 -251 -252 -413
-46 -74 -85 -139 -87 -145 -2 -5 -9 -17 -16 -25 -7 -8 -25 -37 -40 -64 -15
-28 -32 -55 -37 -60 -18 -23 -59 -89 -79 -129 -12 -23 -25 -44 -28 -47 -4 -3
-18 -25 -32 -50 -14 -25 -62 -106 -108 -180 -45 -74 -73 -124 -61 -110 11 14
24 30 30 37 5 7 10 15 10 17 0 3 32 52 70 109 39 57 70 109 70 116 0 7 4 10 9
7 5 -3 11 1 14 9 4 8 27 46 52 84 26 39 44 75 40 81 -3 5 0 7 9 4 9 -3 17 2
21 15 3 12 12 27 19 33 21 22 56 85 51 91 -3 4 -2 5 1 2 8 -5 35 31 147 200
48 72 90 135 94 140 7 9 81 119 273 406 78 116 70 112 148 82 37 -14 96 -35
132 -48 36 -12 72 -25 82 -29 13 -6 33 20 100 128 47 78 89 136 98 136 14 0
50 -11 300 -87 63 -19 151 -46 195 -59 44 -12 170 -50 280 -84 338 -104 369
-113 392 -114 11 0 19 -4 17 -8 -6 -10 54 -21 67 -12 7 4 9 3 6 -3 -3 -5 41
-23 101 -41 59 -17 159 -47 222 -66 62 -19 116 -33 119 -31 2 3 2 5 0 5 -4 0
-173 58 -549 190 -113 39 -236 82 -275 96 -38 13 -79 28 -90 34 -11 5 -85 31
-165 58 -80 27 -230 80 -335 117 -104 37 -200 70 -213 72 -12 3 -25 9 -27 14
-5 6 56 113 165 289 59 97 71 123 58 132 -9 7 -7 8 7 4 16 -5 25 2 40 32 11
20 30 54 43 74 14 21 21 42 16 49 -4 7 -3 9 4 5 11 -7 208 309 206 331 -1 7 2
11 7 10 16 -3 65 91 54 102 -7 7 -52 -52 -135 -176z"/>
<path d="M24895 11589 c-4 -6 -5 -12 -2 -15 2 -3 7 2 10 11 7 17 1 20 -8 4z"/>
<path d="M21595 11299 c-85 -20 -172 -109 -215 -218 -30 -77 -34 -144 -16
-242 30 -161 20 -201 -99 -399 -82 -136 -240 -376 -253 -384 -16 -10 -148 148
-158 191 -4 13 -4 53 -2 89 l4 65 -25 -6 c-35 -9 -87 -42 -117 -74 -24 -26
-203 -379 -230 -455 -20 -56 -18 -158 5 -214 11 -26 22 -68 26 -94 21 -158
197 -335 380 -383 75 -19 178 -19 230 1 22 9 63 19 91 24 97 15 144 49 263
188 184 216 220 264 236 316 13 43 20 106 13 106 -2 0 -25 -11 -52 -25 -77
-39 -104 -40 -208 -10 -51 14 -97 30 -101 35 -8 7 88 149 301 445 111 154 112
155 287 155 208 0 272 25 319 123 31 63 43 165 27 225 -7 23 -25 57 -41 76
-17 18 -30 42 -30 53 0 47 -32 123 -69 162 -44 46 -151 101 -198 101 -23 0
-33 6 -38 20 -3 11 -25 35 -47 55 -73 62 -198 95 -283 74z m177 -80 c24 -12
53 -31 66 -42 l22 -21 -52 -25 c-40 -20 -60 -38 -82 -74 -57 -93 -33 -177 50
-177 94 0 174 81 174 176 0 35 1 35 33 29 89 -20 177 -100 177 -163 0 -18 -6
-19 -63 -15 -137 11 -214 -83 -146 -179 29 -41 116 -80 157 -72 37 7 102 74
102 104 0 30 17 24 29 -11 23 -66 4 -174 -40 -223 -41 -47 -91 -59 -247 -57
-141 1 -183 -8 -231 -52 -24 -22 -147 -186 -251 -334 -140 -201 -174 -244
-186 -239 -45 17 -224 144 -224 159 0 5 26 48 58 95 169 250 284 447 306 523
20 67 20 127 0 225 -21 100 -13 169 27 243 46 86 93 131 158 152 39 13 114 3
163 -22z m118 -160 c0 -58 -53 -119 -103 -119 -37 0 -43 20 -19 67 28 54 61
80 105 82 13 1 17 -7 17 -30z m239 -215 c25 -5 31 -11 31 -33 0 -34 -33 -87
-59 -96 -36 -11 -111 42 -111 79 1 49 51 67 139 50z"/>
<path d="M3020 10986 c0 -2 7 -7 16 -10 8 -3 12 -2 9 4 -6 10 -25 14 -25 6z"/>
<path d="M15862 10507 l-103 -53 76 -63 c42 -34 78 -61 80 -59 8 8 63 228 57
227 -4 0 -53 -24 -110 -52z"/>
<path d="M6950 10020 c8 -5 20 -10 25 -10 6 0 3 5 -5 10 -8 5 -19 10 -25 10
-5 0 -3 -5 5 -10z"/>
<path d="M14512 9747 c-108 -131 -359 -440 -714 -878 -64 -79 -139 -171 -166
-204 -26 -33 -165 -204 -307 -380 -143 -176 -262 -322 -265 -325 -3 -3 -33
-39 -65 -80 -33 -41 -138 -172 -235 -290 -97 -118 -228 -280 -292 -360 -101
-126 -192 -239 -311 -384 -53 -65 -54 -68 -10 -61 138 24 368 75 586 130 103
26 129 30 135 19 6 -11 15 -11 45 -2 31 9 37 16 37 38 0 97 75 207 175 255 89
44 114 6 45 -69 -70 -76 -56 -80 105 -31 53 16 125 29 177 32 84 6 87 5 112
-22 35 -37 44 -105 20 -138 -31 -41 -181 -142 -302 -204 -110 -56 -116 -58
-195 -59 -116 -1 -145 -9 -140 -38 4 -19 -2 -26 -34 -41 -21 -10 -99 -47 -173
-83 -350 -167 -655 -286 -802 -313 -77 -14 -110 -7 -211 42 -33 16 -64 26 -70
22 -5 -3 -7 -2 -4 4 5 8 -57 43 -154 87 -34 15 -40 15 -92 -3 -54 -19 -55 -19
-50 0 3 10 1 19 -3 19 -14 -1 -80 -39 -69 -40 6 0 6 -3 0 -8 -21 -14 -52 -68
-73 -127 -30 -82 -51 -168 -45 -179 4 -5 1 -6 -4 -3 -6 4 -13 -9 -16 -30 -5
-30 -1 -46 23 -83 42 -65 66 -76 134 -61 30 7 66 21 80 32 14 11 26 16 26 10
0 -10 -150 -201 -247 -315 -18 -22 -33 -43 -33 -47 0 -4 44 -43 97 -86 53 -43
115 -95 137 -115 46 -42 560 -455 691 -555 l42 -32 174 215 c96 118 218 270
272 337 54 67 108 133 120 147 78 90 194 234 406 498 257 320 424 527 431 532
3 3 33 39 65 80 33 41 140 174 238 295 98 121 211 260 250 309 40 49 128 157
195 240 68 83 136 167 152 186 15 19 63 78 107 131 97 119 391 482 456 564 27
33 56 69 65 80 9 11 54 67 101 125 46 58 87 107 90 110 6 5 58 68 135 165 27
33 64 79 84 103 88 108 141 177 137 180 -3 3 -384 -119 -479 -153 -22 -8 -41
-13 -43 -11 -2 1 10 126 27 276 17 151 29 279 28 285 -2 7 -102 -21 -272 -77
-148 -49 -270 -87 -272 -85 -3 2 9 125 26 272 17 147 29 270 27 272 -2 1 -49
-52 -105 -120z m-2947 -3395 c-3 -3 -11 0 -18 7 -9 10 -8 11 6 5 10 -3 15 -9
12 -12z m-255 -2 c0 -5 -5 -10 -11 -10 -5 0 -7 5 -4 10 3 6 8 10 11 10 2 0 4
-4 4 -10z m-133 -342 c-3 -8 -6 -5 -6 6 -1 11 2 17 5 13 3 -3 4 -12 1 -19z"/>
<path d="M25710 9639 c-58 -10 -151 -26 -207 -35 l-103 -16 21 -29 c11 -16 24
-31 29 -34 20 -13 8 -32 -47 -75 -32 -24 -121 -96 -198 -160 -77 -63 -147
-120 -155 -127 -109 -87 -303 -245 -380 -308 -54 -44 -153 -125 -221 -180 -68
-55 -151 -122 -184 -150 -34 -27 -91 -75 -128 -105 -49 -40 -84 -81 -129 -153
-35 -53 -86 -132 -113 -175 -44 -67 -173 -270 -208 -326 -7 -11 -16 -25 -20
-30 -29 -39 -94 -146 -89 -146 4 0 2 -4 -5 -8 -6 -4 -27 -32 -45 -62 -19 -30
-48 -77 -65 -105 -18 -27 -32 -53 -33 -57 0 -4 -12 -20 -25 -34 -14 -15 -25
-30 -25 -35 0 -7 -99 -163 -117 -184 -5 -5 -26 -39 -48 -75 -21 -36 -42 -67
-45 -70 -4 -3 -31 -45 -61 -95 -30 -49 -66 -107 -81 -129 -15 -21 -25 -44 -21
-50 3 -6 2 -8 -2 -3 -5 4 -16 -4 -25 -18 l-16 -24 -43 42 c-24 23 -49 42 -55
42 -6 0 -11 7 -11 15 -1 8 -6 14 -13 13 -7 -2 -11 2 -9 9 1 7 -5 12 -13 13 -8
0 -15 6 -15 13 0 6 -13 24 -30 38 -16 14 -201 193 -410 398 -209 206 -429 421
-489 479 l-109 105 -46 -47 c-25 -25 -57 -58 -69 -73 l-24 -26 238 -234 c131
-128 340 -334 466 -458 469 -461 584 -571 612 -586 46 -25 91 -11 128 41 17
24 30 46 28 50 -1 4 3 11 8 14 10 7 68 95 227 346 59 94 126 199 148 235 23
36 44 67 48 70 3 3 14 21 25 40 24 44 61 102 74 117 17 21 150 233 145 233 -2
0 7 12 20 26 14 15 25 30 25 35 0 4 17 34 38 66 61 91 144 221 198 306 164
259 167 264 296 369 68 54 154 125 192 156 38 31 97 80 131 107 34 28 106 86
160 130 54 44 123 99 154 123 30 23 58 46 61 50 3 4 27 26 55 47 27 22 79 64
115 94 86 72 119 98 182 148 29 23 84 68 123 99 l70 56 37 -43 37 -43 30 67
c46 101 129 300 133 316 5 21 -9 21 -122 0z"/>
<path d="M8144 8876 c-25 -11 -38 -30 -67 -97 -88 -205 -282 -599 -409 -830
-69 -124 -87 -150 -127 -177 -86 -59 -251 -115 -523 -178 -139 -32 -174 -36
-382 -45 -126 -5 -231 -11 -234 -14 -3 -2 -11 -130 -19 -282 -8 -153 -16 -320
-19 -370 l-6 -93 -54 0 c-30 0 -54 4 -54 9 0 5 -11 111 -25 237 -14 126 -25
243 -25 262 0 25 -9 43 -35 70 l-36 37 -22 -26 c-21 -23 -24 -43 -41 -307
l-19 -282 -74 0 c-69 0 -73 1 -73 23 0 136 -48 625 -66 672 -6 14 -16 15 -58
10 -522 -66 -540 -78 -903 -580 -144 -201 -306 -465 -353 -577 -20 -50 -22
-60 -10 -87 36 -87 260 -212 645 -362 136 -52 150 -60 148 -81 -1 -13 -25
-238 -54 -502 l-53 -479 26 -21 c14 -11 32 -25 41 -31 14 -9 15 -21 7 -88 -15
-126 -48 -531 -80 -987 -16 -234 -35 -456 -40 -495 -6 -38 -38 -159 -71 -268
-66 -220 -89 -335 -89 -440 0 -79 17 -273 61 -685 l30 -284 -25 -61 c-29 -72
-48 -205 -44 -297 3 -60 5 -65 31 -74 18 -7 57 -6 115 1 54 6 116 7 162 2 222
-25 298 -28 385 -19 104 12 165 29 172 46 2 7 -4 33 -15 58 -24 53 -40 64
-259 175 -110 55 -169 91 -183 110 l-20 29 70 489 c122 844 138 932 250 1343
54 201 131 484 170 630 113 421 141 524 146 540 7 17 13 2 181 -435 174 -453
302 -801 323 -884 16 -60 21 -121 25 -330 9 -427 32 -635 100 -941 41 -183
108 -409 124 -419 8 -6 7 -19 -3 -49 -20 -55 -36 -177 -36 -267 l0 -74 38 -7
c20 -4 70 -2 110 3 56 8 105 7 205 -4 170 -18 323 -20 414 -4 96 17 105 25 91
79 -14 57 -47 81 -253 185 -177 89 -230 131 -205 162 12 14 13 -3 -40 735 -38
528 -68 910 -81 1025 -31 295 -87 1010 -105 1355 l-7 125 61 27 c107 49 221
152 222 200 0 10 -13 50 -29 90 -120 304 -204 816 -218 1343 l-6 231 114 76
c304 203 622 441 780 584 161 147 178 174 295 486 82 219 334 952 334 971 -1
15 -81 70 -143 97 -62 28 -142 35 -183 16z m-2773 -2486 c-11 -95 -22 -174
-24 -177 -2 -2 -57 27 -123 64 l-118 67 139 133 c125 119 140 131 143 109 2
-13 -6 -102 -17 -196z m672 -211 c21 -5 53 -24 72 -41 67 -58 41 -133 -70
-203 -86 -54 -131 -64 -329 -71 l-181 -7 3 95 3 95 137 66 c75 36 146 68 157
70 39 9 171 7 208 -4z m478 -757 c21 -112 39 -210 39 -217 0 -29 -265 -81
-465 -91 -105 -5 -310 8 -323 21 -3 2 11 118 30 257 l34 253 75 2 74 3 50 -87
c28 -47 72 -122 99 -166 l49 -80 43 84 c24 46 57 121 75 167 l32 82 56 0 c31
0 63 5 71 10 12 7 16 4 18 -13 2 -12 21 -114 43 -225z"/>
<path d="M19203 8830 c-46 -11 -96 -43 -111 -71 -19 -36 -11 -135 14 -159 10
-11 69 -46 129 -78 138 -73 155 -95 154 -196 0 -39 -4 -93 -8 -119 l-8 -48 27
26 c36 35 66 33 86 -7 25 -49 14 -129 -30 -216 -46 -91 -94 -145 -151 -169
-25 -10 -45 -20 -45 -24 0 -3 22 -30 50 -61 51 -57 114 -101 163 -113 15 -4
27 -10 27 -14 0 -4 -48 -52 -106 -106 -167 -157 -338 -363 -379 -458 l-14 -32
-1 35 c0 79 75 290 177 495 l55 109 -36 -27 c-47 -37 -200 -195 -269 -279 -31
-37 -77 -103 -103 -145 -26 -43 -60 -94 -75 -113 -52 -69 -79 -132 -79 -186 0
-64 22 -127 99 -283 66 -134 69 -152 47 -253 -18 -77 -53 -349 -62 -478 l-7
-95 27 24 c14 14 26 22 26 19 0 -3 -11 -61 -25 -128 -59 -290 -60 -301 -59
-675 1 -299 17 -724 42 -1110 l7 -100 65 -23 c99 -36 271 -79 410 -104 179
-31 451 -31 599 1 58 12 134 35 170 50 l66 28 7 54 c29 234 52 629 52 909 0
333 -9 421 -74 696 -29 120 -110 376 -133 419 l-12 23 -115 -50 c-148 -64
-213 -72 -291 -35 -156 73 -146 155 35 275 l71 47 120 0 c140 0 171 10 160 53
-36 139 -55 453 -36 586 13 93 11 98 -78 148 -96 54 -215 136 -248 170 -41 44
-63 113 -63 201 0 117 50 195 160 252 39 21 115 25 198 12 30 -5 52 -5 52 0 0
5 -40 24 -90 42 l-89 34 25 19 c63 50 107 214 139 513 17 162 19 310 5 383
-31 166 -163 287 -355 327 -73 15 -257 18 -312 5z m-196 -2936 c-7 -8 -78 4
-97 16 -12 7 -10 14 14 39 l29 31 30 -41 c16 -22 27 -42 24 -45z"/>
<path d="M6275 8704 c-27 -8 -108 -18 -180 -22 -145 -9 -178 -20 -213 -72 -24
-35 -24 -37 -19 -225 3 -104 13 -244 21 -310 19 -149 48 -339 51 -343 2 -2 21
2 43 7 39 11 105 71 132 120 10 20 8 26 -28 57 -54 46 -85 112 -86 184 -2 130
77 151 147 38 10 -16 22 -28 27 -28 14 0 12 71 -5 165 -21 115 -20 162 5 175
11 6 70 15 132 21 62 5 123 14 136 20 56 23 63 135 12 192 -21 24 -36 30 -76
33 -27 2 -71 -3 -99 -12z"/>
<path d="M11202 8694 c-12 -8 -34 -40 -49 -70 -25 -51 -77 -114 -94 -114 -4 0
-9 12 -11 28 -2 21 -9 28 -29 30 -33 4 -79 -46 -105 -114 -10 -27 -29 -63 -42
-81 -55 -74 -62 -152 -36 -409 9 -87 19 -206 22 -264 l7 -105 31 -3 c25 -2 37
4 62 32 37 43 77 112 86 147 4 21 -3 40 -34 85 -36 53 -40 65 -40 120 0 45 5
68 19 85 18 22 20 22 44 7 38 -26 75 -101 101 -207 33 -130 63 -208 89 -226
26 -18 111 -20 243 -3 l94 11 0 85 0 84 -32 -6 c-18 -3 -77 -6 -131 -7 -82 -1
-102 2 -119 18 -27 24 -70 111 -98 198 -30 93 -56 141 -103 191 -44 47 -45 67
-4 98 26 19 45 21 207 26 204 6 220 12 220 81 0 46 -53 109 -91 109 -34 0 -50
12 -39 30 13 20 12 64 -1 92 -25 57 -119 86 -167 52z"/>
<path d="M10920 7401 c-57 -8 -124 -42 -129 -66 -3 -16 0 -16 24 3 15 12 36
22 47 22 11 0 17 4 14 8 -6 9 1 10 134 20 102 7 103 7 50 14 -60 9 -73 8 -140
-1z"/>
<path d="M5990 7332 c0 -6 10 -16 21 -23 17 -9 24 -8 38 6 15 16 15 17 -4 7
-15 -8 -24 -7 -37 5 -11 9 -18 11 -18 5z"/>
<path d="M6226 7321 c-10 -10 -14 -21 -9 -24 5 -3 13 6 20 19 13 29 11 30 -11
5z"/>
<path d="M10820 6953 c0 -30 106 -139 223 -228 64 -49 217 -155 217 -151 0 3
-39 36 -87 74 -49 38 -100 80 -114 94 -14 13 -32 22 -39 20 -8 -3 -10 0 -6 7
4 6 -5 22 -22 36 -40 33 -89 78 -134 122 -21 20 -38 32 -38 26z"/>
<path d="M11944 6698 c-40 -46 -54 -79 -59 -140 -4 -50 -3 -58 5 -39 6 14 8
31 5 38 -2 8 -1 12 3 9 4 -2 16 19 26 47 10 29 27 64 38 80 23 33 10 36 -18 5z"/>
<path d="M9788 5853 c-90 -116 -204 -297 -213 -341 -2 -9 -11 -37 -19 -61 -9
-24 -32 -177 -51 -340 -86 -722 -147 -1087 -215 -1273 -20 -55 -44 -95 -86
-144 -158 -186 -375 -576 -567 -1019 -71 -164 -198 -482 -245 -612 l-30 -82
30 -32 c32 -33 140 -89 173 -89 13 0 50 35 102 93 44 50 195 220 335 377 139
157 298 337 353 400 479 553 444 506 620 833 83 152 153 276 158 277 4 0 7
-11 7 -25 0 -32 62 -399 191 -1125 55 -311 111 -628 125 -705 13 -77 29 -164
35 -192 l10 -53 82 0 c45 0 98 3 118 6 l35 6 18 257 c79 1167 108 1770 99
2058 l-6 173 -62 65 c-206 215 -225 540 -44 782 l40 53 -10 92 c-8 82 -7 99
11 146 11 30 16 57 12 61 -5 4 -43 13 -84 19 -302 49 -772 280 -860 424 l-17
28 -45 -57z"/>
<path d="M21108 3643 c-46 -12 7 -124 140 -302 71 -95 87 -162 61 -252 -10
-33 -9 -45 10 -93 25 -61 42 -73 65 -47 34 37 59 256 37 314 -6 14 -38 58 -73
97 -97 112 -128 152 -128 165 0 17 49 33 125 41 52 5 64 10 69 27 7 29 2 34
-55 46 -49 11 -216 13 -251 4z"/>
<path d="M15567 2762 c-2 -4 -3 -11 -2 -17 1 -5 4 -41 9 -80 12 -120 18 -160
23 -167 2 -5 431 -8 953 -8 894 0 950 1 958 18 5 9 15 68 21 131 10 93 10 116
-1 123 -16 10 -1956 10 -1961 0z"/>
<path d="M8282 1786 c-83 -87 -83 -104 2 -183 111 -104 459 -356 559 -404 44
-22 48 -22 64 -6 25 24 19 85 -13 149 -15 29 -70 107 -123 173 -53 66 -112
143 -130 170 -19 28 -35 51 -36 53 -1 1 -28 7 -61 13 -66 12 -102 29 -155 70
-20 16 -39 29 -41 29 -3 0 -33 -29 -66 -64z"/>
<path d="M19845 1586 c-38 -16 -120 -69 -218 -139 -42 -31 -98 -63 -123 -73
-44 -17 -50 -17 -114 0 -63 16 -70 16 -111 0 -78 -30 -89 -53 -39 -79 43 -22
206 -44 262 -36 52 8 51 7 165 108 97 85 129 107 142 99 16 -10 31 -75 31
-133 0 -48 2 -53 26 -59 34 -9 40 0 53 70 12 67 14 141 5 210 -7 51 -22 57
-79 32z"/>
<path d="M10782 1534 c-41 -29 -135 -56 -197 -56 l-62 -1 -26 -82 c-35 -105
-35 -133 -1 -145 83 -32 781 10 829 50 41 34 -6 108 -88 138 -29 11 -101 29
-160 41 -60 12 -143 33 -185 46 -92 29 -82 29 -110 9z"/>
</g>
</svg>
