<?xml version="1.0" encoding="UTF-8"?>
<svg version="1.1" xmlns="http://www.w3.org/2000/svg" width="300" height="168">
<path d="M0 0 C9.93493282 5.03743073 13.95832792 17.78319206 18.3125 27.3125 C18.99852531 28.79269972 19.68536818 30.27252082 20.37304688 31.75195312 C26.64074206 45.2887979 26.64074206 45.2887979 26.5625 50.6875 C26.55347656 51.49574219 26.54445313 52.30398437 26.53515625 53.13671875 C26.52355469 53.75160156 26.51195312 54.36648437 26.5 55 C27.056875 55.14695313 27.61375 55.29390625 28.1875 55.4453125 C34.0131561 57.15758304 39.43083957 59.34704139 43.5 64 C51.63340169 79.3348299 62.23147814 103.38504395 57.75 120.9375 C55.86939296 124.04050162 53.73250413 125.68726727 50.19750977 126.58422852 C49.37049561 126.68147217 48.54348145 126.77871582 47.69140625 126.87890625 C46.77939453 126.99556641 45.86738281 127.11222656 44.92773438 127.23242188 C43.98220703 127.34134766 43.03667969 127.45027344 42.0625 127.5625 C40.18807994 127.78701986 38.31434044 128.01731118 36.44140625 128.25390625 C35.61326416 128.35002197 34.78512207 128.4461377 33.93188477 128.54516602 C31.48093897 128.89942409 31.48093897 128.89942409 29.32603455 130.01225281 C25.79877659 131.24508952 22.53964717 131.28001226 18.8515625 131.25878906 C17.72134674 131.26404602 17.72134674 131.26404602 16.56829834 131.26940918 C14.08710412 131.27818423 11.60619693 131.27239236 9.125 131.265625 C7.3953445 131.26697287 5.66568936 131.26891441 3.93603516 131.27142334 C0.31474188 131.27436887 -3.3064526 131.27009531 -6.92773438 131.26074219 C-11.5647671 131.24934799 -16.20156829 131.25591051 -20.83859253 131.26788712 C-24.40911599 131.27512112 -27.97958474 131.27281071 -31.55010986 131.26763153 C-33.25970487 131.2662993 -34.96930488 131.26792781 -36.67889404 131.27259064 C-39.069917 131.27768119 -41.46056723 131.26991027 -43.8515625 131.25878906 C-44.5550885 131.26283752 -45.2586145 131.26688599 -45.98345947 131.27105713 C-49.95073835 131.23694781 -52.91038487 130.67305246 -56.5 129 C-58.13720885 128.68311026 -59.7864351 128.42354845 -61.44140625 128.21875 C-62.35470703 128.09886719 -63.26800781 127.97898438 -64.20898438 127.85546875 C-66.11517474 127.6180104 -68.0214251 127.38103315 -69.92773438 127.14453125 C-70.83974609 127.02464844 -71.75175781 126.90476563 -72.69140625 126.78125 C-73.93192749 126.6275293 -73.93192749 126.6275293 -75.19750977 126.47070312 C-77.61995558 125.97547722 -79.39830575 125.29741703 -81.5 124 C-86.74854132 114.05451566 -82.500229 102.06236698 -79.5 92 C-79.0654248 90.53868652 -79.0654248 90.53868652 -78.62207031 89.04785156 C-77.64971712 85.83541864 -76.64356792 82.63556076 -75.625 79.4375 C-75.30982422 78.41438721 -74.99464844 77.39127441 -74.66992188 76.3371582 C-72.23108444 68.91495479 -69.43818163 63.37676455 -62.61328125 59.2578125 C-61.68902344 58.88398437 -60.76476562 58.51015625 -59.8125 58.125 C-58.41451172 57.54105469 -58.41451172 57.54105469 -56.98828125 56.9453125 C-55.17385927 56.25600305 -53.34134385 55.61378128 -51.5 55 C-51.42813477 54.31067383 -51.35626953 53.62134766 -51.28222656 52.91113281 C-50.17788736 44.56937857 -47.52044905 37.33435041 -44.12451172 29.71679688 C-43.24813083 27.7457962 -42.39829322 25.76480946 -41.55078125 23.78125 C-37.26784568 13.91589559 -32.36856095 3.83931509 -22.234375 -1.10546875 C-15.12052204 -3.43271493 -6.81571224 -3.07172463 0 0 Z " fill="#590510" transform="translate(165.5,2)"/>
<path d="M0 0 C7.18650893 -0.54011341 12.77615115 0.19441553 19 4 C20.75390625 5.63671875 20.75390625 5.63671875 22 7 C21.67 7.66 21.34 8.32 21 9 C20.67 9 20.34 9 20 9 C19.67 9.66 19.34 10.32 19 11 C21.95845989 19.87537968 26.80065034 27.576253 32.48413086 34.92700195 C37.66086446 41.78503317 39.83319155 48.4280124 39 57 C38.26285278 62.05578746 37.35131108 66.4497887 35 71 C35.58491211 71.0093457 36.16982422 71.01869141 36.77246094 71.02832031 C39.4324858 71.08213279 42.09077222 71.16575449 44.75 71.25 C46.13058594 71.27126953 46.13058594 71.27126953 47.5390625 71.29296875 C54.34532985 71.53957264 54.34532985 71.53957264 57.48828125 73.75 C64.62028236 84.36507142 72.83802945 105.13379386 71 118 C67.67865653 121.41133061 64.61277399 121.41102119 60 121.5625 C55.73067229 121.71174557 52.71318919 121.85975901 49 124 C48.34 124 47.68 124 47 124 C46.8920141 121.56131832 46.81273411 119.12740867 46.75 116.6875 C46.71648437 115.99720703 46.68296875 115.30691406 46.6484375 114.59570312 C46.609375 112.57421875 46.609375 112.57421875 47 109 C49.41800828 106.50139144 51.60306554 105.60659544 55 105 C54.21625 104.566875 53.4325 104.13375 52.625 103.6875 C50 102 50 102 48 99 C47.71289062 97.03881836 47.71289062 97.03881836 47.65625 94.83984375 C47.61177734 93.6497168 47.61177734 93.6497168 47.56640625 92.43554688 C47.52203165 90.7662788 47.4777613 89.09700794 47.43359375 87.42773438 C47.40394531 86.63560547 47.37429687 85.84347656 47.34375 85.02734375 C47.31571289 83.94054321 47.31571289 83.94054321 47.28710938 82.83178711 C47.1455183 80.75279512 47.1455183 80.75279512 45 79 C41.99027343 78.62703444 41.99027343 78.62703444 38.4609375 78.5859375 C36.50800781 78.52792969 36.50800781 78.52792969 34.515625 78.46875 C33.13542138 78.43729237 31.75521296 78.40604509 30.375 78.375 C28.98695459 78.33682066 27.59893289 78.29776895 26.2109375 78.2578125 C22.80742815 78.16327057 19.40392835 78.07772103 16 78 C17.2682932 75.45078679 18.55888864 72.9154378 19.875 70.390625 C20.58355444 69.01053016 21.29188125 67.63031844 22 66.25 C22.35578125 65.57195312 22.7115625 64.89390625 23.078125 64.1953125 C28.048299 54.44041875 29.78748705 44.76620986 26.375 34.1875 C24.06811356 28.41620812 21.43082774 25.77894772 15.890625 22.90625 C11.80651982 21.62582784 7.94480017 21.59231767 3.6875 21.5625 C2.87087891 21.52962891 2.05425781 21.49675781 1.21289062 21.46289062 C-5.03632271 21.40811664 -9.17749403 23.00670969 -14 27 C-18.711249 32.7030909 -20.35808546 38.65924815 -20 46 C-19.67 46 -19.34 46 -19 46 C-18.84144531 46.83402344 -18.68289062 47.66804688 -18.51953125 48.52734375 C-17.1559053 55.10439045 -15.63836886 60.48680984 -11.890625 66.09765625 C-11 68 -11 68 -11.51171875 70.04296875 C-12.24932275 72.0288731 -12.24932275 72.0288731 -11.00390625 73.703125 C-10.52824219 74.21359375 -10.05257812 74.7240625 -9.5625 75.25 C-8.2940625 76.61125 -8.2940625 76.61125 -7 78 C-8.6026782 78.10824843 -10.20745748 78.18570645 -11.8125 78.25 C-12.70582031 78.29640625 -13.59914062 78.3428125 -14.51953125 78.390625 C-17 78 -17 78 -18.82421875 75.984375 C-19.21222656 75.32953125 -19.60023438 74.6746875 -20 74 C-19.67 75.32 -19.34 76.64 -19 78 C-20.27617187 78.06058594 -21.55234375 78.12117188 -22.8671875 78.18359375 C-24.53647016 78.26799568 -26.20574037 78.35264386 -27.875 78.4375 C-28.71675781 78.47681641 -29.55851562 78.51613281 -30.42578125 78.55664062 C-31.23144531 78.59853516 -32.03710938 78.64042969 -32.8671875 78.68359375 C-33.61081543 78.72025146 -34.35444336 78.75690918 -35.12060547 78.79467773 C-37.08864312 78.89955865 -37.08864312 78.89955865 -39 80 C-39.4683265 82.58605332 -39.4683265 82.58605332 -39.625 85.5625 C-39.69976562 86.57441406 -39.77453125 87.58632812 -39.8515625 88.62890625 C-39.90054688 89.41136719 -39.94953125 90.19382812 -40 91 C-40.33 91 -40.66 91 -41 91 C-41.06316406 91.83144531 -41.12632813 92.66289063 -41.19140625 93.51953125 C-42.17973005 102.28960455 -42.17973005 102.28960455 -44.69140625 104.46484375 C-46.625 105.25 -46.625 105.25 -50 106 C-48.1128125 106.4640625 -48.1128125 106.4640625 -46.1875 106.9375 C-43.73822606 107.53978048 -41.39734077 108.20088641 -39 109 C-39 113.62 -39 118.24 -39 123 C-41.64 123 -44.28 123 -47 123 C-47 122.67 -47 122.34 -47 122 C-48.58941406 121.92652344 -48.58941406 121.92652344 -50.2109375 121.8515625 C-51.59898497 121.77653291 -52.98700451 121.70098515 -54.375 121.625 C-55.07367188 121.5940625 -55.77234375 121.563125 -56.4921875 121.53125 C-61.7734375 121.2265625 -61.7734375 121.2265625 -64 119 C-65.77422496 102.27159328 -59.34648334 85.27407235 -53 70 C-52.01 70 -51.02 70 -50 70 C-50.33 68.68 -50.66 67.36 -51 66 C-45.85243359 61.35058518 -39.99826151 58 -33 58 C-32.60167969 58.93972656 -32.60167969 58.93972656 -32.1953125 59.8984375 C-31.84210938 60.71570312 -31.48890625 61.53296875 -31.125 62.375 C-30.77695313 63.18710938 -30.42890625 63.99921875 -30.0703125 64.8359375 C-29.07553933 67.13802299 -29.07553933 67.13802299 -27 69 C-27.66 68.030625 -28.32 67.06125 -29 66.0625 C-32.7243003 58.27409098 -32.7601783 49.1609529 -30.00097656 41.07080078 C-27.354909 34.54293339 -24.2711774 28.23524692 -21 22 C-20.505 23.98 -20.505 23.98 -20 26 C-19.85304687 25.23816406 -19.70609375 24.47632812 -19.5546875 23.69140625 C-17.76433133 15.44959421 -15.01696977 9.01696977 -9 3 C-6.63490639 2.69940057 -4.25558119 2.50484988 -1.875 2.375 C-0.59367187 2.30023438 0.68765625 2.22546875 2.0078125 2.1484375 C2.99523437 2.09945313 3.98265625 2.05046875 5 2 C3.35 1.67 1.7 1.34 0 1 C0 0.67 0 0.34 0 0 Z " fill="#CF1434" transform="translate(149,2)"/>
<path d="M0 0 C0.75799896 0.00561951 1.51599792 0.01123901 2.29696655 0.01702881 C3.49468437 0.01418129 3.49468437 0.01418129 4.71659851 0.01127625 C7.36319714 0.00756312 10.00952306 0.01827937 12.65609741 0.02947998 C14.48930326 0.03067149 16.32250973 0.031125 18.15571594 0.03086853 C22.0000388 0.03243427 25.84426865 0.04073148 29.68856812 0.05413818 C34.62757653 0.07114011 39.56648275 0.07495224 44.50551701 0.074193 C48.29119348 0.07446431 52.07684741 0.07993897 55.8625164 0.08719444 C57.68426785 0.09038661 59.50602186 0.09234979 61.32777596 0.09308815 C63.86833213 0.09524526 66.40877771 0.1039754 68.9493103 0.11468506 C69.7093335 0.11423187 70.46935669 0.11377869 71.25241089 0.11331177 C76.44396639 0.14547396 76.44396639 0.14547396 77.55844116 1.25994873 C77.65875798 3.04804878 77.68925631 4.84013175 77.69125366 6.63104248 C77.69326782 7.75518555 77.69528198 8.87932861 77.69735718 10.03753662 C77.69276489 11.24530762 77.68817261 12.45307861 77.68344116 13.69744873 C77.67945313 15.52554077 77.67945313 15.52554077 77.67538452 17.39056396 C77.63815298 24.54326238 77.5092997 31.67980052 77.12094116 38.82244873 C77.08178589 39.55842285 77.04263062 40.29439697 77.00228882 41.05267334 C76.69106442 45.99470222 76.69106442 45.99470222 75.55844116 48.25994873 C65.29268108 48.30622256 55.02694568 48.34179266 44.76110268 48.36357307 C39.99461822 48.37402485 35.22820495 48.38820937 30.46176147 48.41082764 C25.8646919 48.43250646 21.26769092 48.44450685 16.67057419 48.44970322 C14.91383153 48.45340792 13.15709275 48.46064195 11.40037918 48.47140884 C8.94598428 48.48585797 6.49187543 48.48792946 4.03744507 48.48699951 C3.30592728 48.49419006 2.57440948 48.50138062 1.82072449 48.50878906 C-3.21345452 48.48805305 -3.21345452 48.48805305 -5.44155884 46.25994873 C-5.75818812 43.385625 -5.95782329 40.59303807 -6.07437134 37.70916748 C-6.11593353 36.85820999 -6.15749573 36.0072525 -6.20031738 35.13050842 C-6.33124781 32.40315541 -6.44890214 29.67540332 -6.56655884 26.94744873 C-6.65295923 25.1199349 -6.74018879 23.29246008 -6.82827759 21.46502686 C-7.23737556 12.79719544 -7.23737556 12.79719544 -7.36984253 9.19924927 C-7.42993883 7.57416855 -7.50761923 5.94975098 -7.58950806 4.32562256 C-7.2512982 -0.39647911 -3.90119382 0.02367184 0 0 Z " fill="#D11334" transform="translate(117.44155883789063,81.74005126953125)"/>
<path d="M0 0 C0.82113281 -0.02449219 1.64226562 -0.04898437 2.48828125 -0.07421875 C9.93422358 -0.10961943 15.16767887 1.9074487 20.5625 7.0625 C25.64715467 14.76211993 26.97880066 22.6774829 25.31640625 31.73828125 C22.92380901 40.81826206 18.36033947 49.89454737 12.75 57.375 C22.32 57.375 31.89 57.375 41.75 57.375 C41.75 57.705 41.75 58.035 41.75 58.375 C30.53 58.375 19.31 58.375 7.75 58.375 C7.42 57.385 7.09 56.395 6.75 55.375 C8.73 54.88 8.73 54.88 10.75 54.375 C7.49587207 53.29029069 5.16466333 53.30804582 1.75 53.375 C-1.66466333 53.44195418 -3.99587207 53.45970931 -7.25 52.375 C-8.24 52.87 -8.24 52.87 -9.25 53.375 C-10.24 52.385 -11.23 51.395 -12.25 50.375 C-12.25 51.035 -12.25 51.695 -12.25 52.375 C-12.58 53.035 -12.91 53.695 -13.25 54.375 C-14.8125 53.125 -14.8125 53.125 -16.25 51.375 C-16.05664062 50.79878906 -15.86328125 50.22257812 -15.6640625 49.62890625 C-15.04785482 46.27464369 -16.44802642 44.50787451 -18.0625 41.5625 C-20.38141217 37.16678946 -22.15099268 33.21063219 -23.25 28.375 C-23.58 28.375 -23.91 28.375 -24.25 28.375 C-24.76583867 20.50846033 -23.90143813 12.62795114 -18.56640625 6.4140625 C-12.57010339 1.12699976 -7.84135903 0.01208222 0 0 Z " fill="#53010D" transform="translate(152.25,22.625)"/>
<path d="M0 0 C1.41935919 1.17005723 2.77100703 2.42147221 4.10546875 3.6875 C3.77546875 4.3475 3.44546875 5.0075 3.10546875 5.6875 C1.45546875 4.6975 -0.19453125 3.7075 -1.89453125 2.6875 C-1.89453125 3.6775 -1.89453125 4.6675 -1.89453125 5.6875 C-2.22453125 6.6775 -2.55453125 7.6675 -2.89453125 8.6875 C-1.90453125 9.0175 -0.91453125 9.3475 0.10546875 9.6875 C-0.18164062 11.58081055 -0.18164062 11.58081055 -0.89453125 13.6875 C-6.99756808 16.74601731 -12.64834932 17.2034038 -19.39453125 17.375 C-20.31234375 17.40916016 -21.23015625 17.44332031 -22.17578125 17.47851562 C-24.41524215 17.56016264 -26.65435275 17.62957538 -28.89453125 17.6875 C-28.44400391 18.78384766 -28.44400391 18.78384766 -27.984375 19.90234375 C-27.0323774 22.33522652 -26.22504996 24.75502397 -25.45703125 27.25 C-24.35926765 30.53782928 -23.44369049 33.23638535 -20.89453125 35.6875 C-18.30954613 36.95597685 -18.30954613 36.95597685 -15.89453125 37.6875 C-17.21453125 38.3475 -18.53453125 39.0075 -19.89453125 39.6875 C-14.05278725 40.03800464 -10.04135045 39.85477335 -4.89453125 36.6875 C-5.89453125 39.6875 -5.89453125 39.6875 -8.51953125 41.375 C-13.00388002 43.11891341 -16.63479792 43.34163333 -21.26953125 42 C-23.52861069 40.17535891 -23.46443829 38.48310425 -23.89453125 35.6875 C-24.55453125 35.3575 -25.21453125 35.0275 -25.89453125 34.6875 C-25.89453125 35.6775 -25.89453125 36.6675 -25.89453125 37.6875 C-25.23453125 38.0175 -24.57453125 38.3475 -23.89453125 38.6875 C-23.89453125 40.0075 -23.89453125 41.3275 -23.89453125 42.6875 C-18.67986748 44.96055857 -14.33585461 45.05999838 -8.89453125 43.6875 C-5.75815068 41.91972186 -3.42723158 40.22020033 -0.89453125 37.6875 C-0.89453125 38.3475 -0.89453125 39.0075 -0.89453125 39.6875 C0.09546875 39.6875 1.08546875 39.6875 2.10546875 39.6875 C0.69751456 44.61533966 -0.88944669 47.17987317 -3.89453125 51.6875 C5.67546875 51.6875 15.24546875 51.6875 25.10546875 51.6875 C25.10546875 52.0175 25.10546875 52.3475 25.10546875 52.6875 C13.88546875 52.6875 2.66546875 52.6875 -8.89453125 52.6875 C-9.22453125 51.6975 -9.55453125 50.7075 -9.89453125 49.6875 C-7.91453125 49.1925 -7.91453125 49.1925 -5.89453125 48.6875 C-9.14865918 47.60279069 -11.47986792 47.62054582 -14.89453125 47.6875 C-18.30919458 47.75445418 -20.64040332 47.77220931 -23.89453125 46.6875 C-24.88453125 47.1825 -24.88453125 47.1825 -25.89453125 47.6875 C-26.88453125 46.6975 -27.87453125 45.7075 -28.89453125 44.6875 C-28.89453125 45.3475 -28.89453125 46.0075 -28.89453125 46.6875 C-29.22453125 47.3475 -29.55453125 48.0075 -29.89453125 48.6875 C-31.45703125 47.4375 -31.45703125 47.4375 -32.89453125 45.6875 C-32.70117188 45.11128906 -32.5078125 44.53507812 -32.30859375 43.94140625 C-31.69238607 40.58714369 -33.09255767 38.82037451 -34.70703125 35.875 C-37.02594342 31.47928946 -38.79552393 27.52313219 -39.89453125 22.6875 C-40.22453125 22.6875 -40.55453125 22.6875 -40.89453125 22.6875 C-40.89453125 19.7175 -40.89453125 16.7475 -40.89453125 13.6875 C-39.57453125 13.6875 -38.25453125 13.6875 -36.89453125 13.6875 C-37.22453125 12.3675 -37.55453125 11.0475 -37.89453125 9.6875 C-35.72578873 10.19353992 -33.89485498 10.68733813 -31.89453125 11.6875 C-31.89453125 11.0275 -31.89453125 10.3675 -31.89453125 9.6875 C-28.89453125 7.6875 -28.89453125 7.6875 -26.20703125 8.0625 C-25.44390625 8.26875 -24.68078125 8.475 -23.89453125 8.6875 C-24.22453125 9.3475 -24.55453125 10.0075 -24.89453125 10.6875 C-22.58453125 10.6875 -20.27453125 10.6875 -17.89453125 10.6875 C-17.89453125 10.0275 -17.89453125 9.3675 -17.89453125 8.6875 C-18.86390625 8.56375 -19.83328125 8.44 -20.83203125 8.3125 C-21.84265625 8.10625 -22.85328125 7.9 -23.89453125 7.6875 C-24.22453125 7.0275 -24.55453125 6.3675 -24.89453125 5.6875 C-22.91453125 5.3575 -20.93453125 5.0275 -18.89453125 4.6875 C-18.89453125 4.0275 -18.89453125 3.3675 -18.89453125 2.6875 C-17.90453125 2.3575 -16.91453125 2.0275 -15.89453125 1.6875 C-17.60246124 -0.02042999 -19.74996606 0.43479654 -22.08203125 0.375 C-27.4198462 0.40272891 -29.86543248 1.27826258 -33.89453125 4.6875 C-34.88453125 5.1825 -34.88453125 5.1825 -35.89453125 5.6875 C-34.38435265 1.84340902 -32.33788778 -0.0668327 -28.89453125 -2.3125 C-19.42128445 -5.5237701 -8.53530314 -5.91311723 0 0 Z " fill="#53010E" transform="translate(168.89453125,28.3125)"/>
<path d="M0 0 C0.495 0.99 0.495 0.99 1 2 C2.9001177 3.24174796 2.9001177 3.24174796 5 4 C5.66 3.67 6.32 3.34 7 3 C7.66 3.33 8.32 3.66 9 4 C12.60849384 3.99115565 16.2062879 3.86781374 19.8125 3.7421875 C20.864375 3.82726562 21.91625 3.91234375 23 4 C23.99 5.485 23.99 5.485 25 7 C23.35 7 21.7 7 20 7 C20.495 7.99 20.495 7.99 21 9 C22.04978027 9.01981934 23.09956055 9.03963867 24.18115234 9.06005859 C28.06893261 9.13602198 31.95633403 9.22475298 35.84375 9.31738281 C37.52759329 9.35571104 39.21151955 9.39055712 40.89550781 9.421875 C43.31345306 9.46744287 45.73082528 9.52544923 48.1484375 9.5859375 C48.9036972 9.59748871 49.65895691 9.60903992 50.43710327 9.62094116 C55.77225659 9.77225659 55.77225659 9.77225659 58 12 C58.27124023 13.81591797 58.27124023 13.81591797 58.30859375 15.9921875 C58.33373047 16.77980469 58.35886719 17.56742188 58.38476562 18.37890625 C58.41975524 20.03508147 58.45104117 21.69133932 58.47851562 23.34765625 C58.62046045 28.11850224 58.62046045 28.11850224 60.3671875 32.4921875 C62.40000342 34.36938115 64.38538371 35.15201634 67 36 C67 36.33 67 36.66 67 37 C65.906875 37.309375 64.81375 37.61875 63.6875 37.9375 C61.44592006 38.58337897 59.2130649 39.2623117 57 40 C57 44.95 57 49.9 57 55 C58.65 54.34 60.3 53.68 62 53 C62 52.67 62 52.34 62 52 C63.04800781 51.95101562 64.09601563 51.90203125 65.17578125 51.8515625 C66.55471354 51.77651857 67.9336185 51.70097143 69.3125 51.625 C70.00279297 51.5940625 70.69308594 51.563125 71.40429688 51.53125 C75.06990789 51.31875081 76.87900792 51.08066139 80 49 C79.54458987 38.0473864 76.57112695 27.89038289 73.25 17.5 C72.01244379 13.49968317 71.72799234 10.17078409 72 6 C76.07950173 10.07950173 77.87879826 16.77796815 78.1875 22.4375 C78.125625 23.283125 78.06375 24.12875 78 25 C78.43941523 27.26566343 78.43941523 27.26566343 79 29 C79.66 29 80.32 29 81 29 C82.98284718 37.63954843 84.41058418 45.47353955 81 54 C77.47116371 56.57509675 73.39400894 56.40325082 69.1875 56.5625 C64.05869661 56.78884156 59.07394693 57.19745415 54 58 C54.0721875 56.94167969 54.144375 55.88335937 54.21875 54.79296875 C54.84754153 44.78749084 55.0664262 34.82633711 55.03125 24.80078125 C55.02786621 22.94483337 55.02786621 22.94483337 55.02441406 21.0513916 C55.01858524 18.03424792 55.01040411 15.01713077 55 12 C44.32580302 11.97687672 33.65161194 11.95908499 22.97739506 11.94818783 C18.02146078 11.94295897 13.06554358 11.93586126 8.10961914 11.92456055 C3.33101164 11.91373178 -1.44757938 11.90772319 -6.2261982 11.90512276 C-8.05353619 11.90326849 -9.88087324 11.89964784 -11.70820427 11.89426994 C-14.25853329 11.88705964 -16.80879337 11.88600905 -19.35913086 11.88647461 C-20.12229614 11.88287933 -20.88546143 11.87928406 -21.67175293 11.87557983 C-25.12542164 11.5686376 -25.12542164 11.5686376 -28 13 C-28.02920793 14.97134592 -27.98614807 16.94381848 -27.9140625 18.9140625 C-27.87087891 20.14406982 -27.82769531 21.37407715 -27.78320312 22.64135742 C-27.70489258 24.6132605 -27.70489258 24.6132605 -27.625 26.625 C-27.57473865 27.9587353 -27.52460828 29.29247554 -27.47460938 30.6262207 C-27.93240516 45.15052533 -27.93240516 45.15052533 -25 59 C-30.74831725 59.31935096 -35.08699046 58.52603392 -40.5390625 56.72265625 C-42.8642944 56.03985006 -44.96776907 55.71029713 -47.375 55.5 C-51.14004883 54.98068292 -52.41443394 54.68153685 -55 52 C-55.390625 49.08203125 -55.390625 49.08203125 -55.25 45.8125 C-55.21390625 44.72582031 -55.1778125 43.63914063 -55.140625 42.51953125 C-55.09421875 41.68808594 -55.0478125 40.85664062 -55 40 C-54.67 40 -54.34 40 -54 40 C-53.93941406 40.71027344 -53.87882812 41.42054687 -53.81640625 42.15234375 C-53.73261719 43.07144531 -53.64882812 43.99054688 -53.5625 44.9375 C-53.48128906 45.85402344 -53.40007812 46.77054688 -53.31640625 47.71484375 C-53.23955024 49.96159732 -53.23955024 49.96159732 -52 51 C-49.30764224 51.23678716 -46.63501844 51.42198025 -43.9375 51.5625 C-42.79958008 51.62727539 -42.79958008 51.62727539 -41.63867188 51.69335938 C-39.75934562 51.79973633 -37.87969756 51.90039934 -36 52 C-36 52.33 -36 52.66 -36 53 C-32.535 53.495 -32.535 53.495 -29 54 C-29 49.38 -29 44.76 -29 40 C-33.29 39.34 -37.58 38.68 -42 38 C-40 36 -40 36 -34 34 C-33.34 29.71 -32.68 25.42 -32 21 C-31.67 21 -31.34 21 -31 21 C-30.96261719 20.30132812 -30.92523438 19.60265625 -30.88671875 18.8828125 C-30.82097656 17.97273438 -30.75523438 17.06265625 -30.6875 16.125 C-30.62949219 15.22007813 -30.57148437 14.31515625 -30.51171875 13.3828125 C-30 11 -30 11 -27 9 C-25.00708008 8.77294922 -25.00708008 8.77294922 -22.76953125 8.8046875 C-21.56586914 8.81435547 -21.56586914 8.81435547 -20.33789062 8.82421875 C-19.50451172 8.84097656 -18.67113281 8.85773438 -17.8125 8.875 C-16.5450293 8.88853516 -16.5450293 8.88853516 -15.25195312 8.90234375 C-13.16784757 8.92589297 -11.08388783 8.96176353 -9 9 C-9.350625 8.401875 -9.70125 7.80375 -10.0625 7.1875 C-11 5 -11 5 -10 2 C-9.01 3.98 -8.02 5.96 -7 8 C-4.03 8 -1.06 8 2 8 C1.484375 7.05125 0.96875 6.1025 0.4375 5.125 C-0.036875 4.09375 -0.51125 3.0625 -1 2 C-0.67 1.34 -0.34 0.68 0 0 Z " fill="#580109" transform="translate(139,71)"/>
<path d="M0 0 C8.97184767 5.27755745 12.76546217 14.65041238 16.5 24 C16.5 24.66 16.5 25.32 16.5 26 C15.84 26 15.18 26 14.5 26 C13.70335937 24.35451172 13.70335937 24.35451172 12.890625 22.67578125 C12.17740839 21.22119474 11.46384852 19.7667765 10.75 18.3125 C10.40195313 17.59126953 10.05390625 16.87003906 9.6953125 16.12695312 C6.20365392 9.04664545 3.11752567 4.764565 -4.3046875 1.71484375 C-6.79816779 0.90290978 -8.89366298 0.66369845 -11.5 1 C-10.18 1.66 -8.86 2.32 -7.5 3 C-8.72976562 2.979375 -9.95953125 2.95875 -11.2265625 2.9375 C-19.94967397 2.69925349 -19.94967397 2.69925349 -27.92578125 5.53125 C-29.54081843 7.63455424 -30.5440241 9.52865618 -31.5 12 C-31.80550781 12.7425 -32.11101562 13.485 -32.42578125 14.25 C-33.24358743 16.48249461 -33.89822477 18.70050126 -34.5 21 C-34.70496094 21.77472656 -34.90992188 22.54945312 -35.12109375 23.34765625 C-35.60158923 25.22655927 -36.05389574 27.11263584 -36.5 29 C-36.995 27.02 -36.995 27.02 -37.5 25 C-38.44011264 26.85284336 -39.37695592 28.70734568 -40.3125 30.5625 C-40.83457031 31.59503906 -41.35664062 32.62757812 -41.89453125 33.69140625 C-42.42433594 34.78324219 -42.95414063 35.87507813 -43.5 37 C-44.05171875 38.11375 -44.6034375 39.2275 -45.171875 40.375 C-46.71362691 44.5830758 -46.99657057 48.00125042 -46.9375 52.4375 C-46.93500244 53.18523682 -46.93250488 53.93297363 -46.92993164 54.70336914 C-46.78966753 60.40806642 -45.57530873 64.13902814 -42.5 69 C-42.83 69.66 -43.16 70.32 -43.5 71 C-47.03100581 66.47306947 -48.78521626 63.80042899 -49.5 58 C-51.58630053 58.76276595 -53.6689432 59.53554157 -55.75 60.3125 C-56.91015625 60.74175781 -58.0703125 61.17101563 -59.265625 61.61328125 C-62.0941299 62.82598565 -64.16536544 64.02942974 -66.5 66 C-66.17 67.98 -65.84 69.96 -65.5 72 C-66.82 71.67 -68.14 71.34 -69.5 71 C-69.66604736 71.55349121 -69.83209473 72.10698242 -70.00317383 72.67724609 C-71.30029297 77.00097656 -72.59741211 81.32470703 -73.89453125 85.6484375 C-74.1584668 86.52838379 -74.42240234 87.40833008 -74.69433594 88.31494141 C-75.2389007 90.12982724 -75.78383224 91.94460306 -76.32910156 93.75927734 C-76.59303711 94.63793457 -76.85697266 95.5165918 -77.12890625 96.421875 C-77.36552979 97.20916992 -77.60215332 97.99646484 -77.84594727 98.80761719 C-80.05810026 106.22274742 -81.00956763 113.25633098 -81.5 121 C-77.12937838 123.65440894 -72.12438483 124.05717873 -67.16796875 124.85546875 C-61.70551409 125.79448591 -61.70551409 125.79448591 -59.5 128 C-62.41786964 127.71781919 -65.333918 127.42465873 -68.25 127.125 C-69.075 127.04636719 -69.9 126.96773437 -70.75 126.88671875 C-71.54921875 126.80292969 -72.3484375 126.71914062 -73.171875 126.6328125 C-73.9050293 126.55949707 -74.63818359 126.48618164 -75.39355469 126.41064453 C-77.74278431 125.95267 -79.46037111 125.24864548 -81.5 124 C-86.74854132 114.05451566 -82.500229 102.06236698 -79.5 92 C-79.0654248 90.53868652 -79.0654248 90.53868652 -78.62207031 89.04785156 C-77.64971712 85.83541864 -76.64356792 82.63556076 -75.625 79.4375 C-75.30982422 78.41438721 -74.99464844 77.39127441 -74.66992188 76.3371582 C-72.23108444 68.91495479 -69.43818163 63.37676455 -62.61328125 59.2578125 C-61.68902344 58.88398437 -60.76476562 58.51015625 -59.8125 58.125 C-58.41451172 57.54105469 -58.41451172 57.54105469 -56.98828125 56.9453125 C-55.17385927 56.25600305 -53.34134385 55.61378128 -51.5 55 C-51.42813477 54.31067383 -51.35626953 53.62134766 -51.28222656 52.91113281 C-50.17788736 44.56937857 -47.52044905 37.33435041 -44.12451172 29.71679688 C-43.24813083 27.7457962 -42.39829322 25.76480946 -41.55078125 23.78125 C-37.26784568 13.91589559 -32.36856095 3.83931509 -22.234375 -1.10546875 C-15.12052204 -3.43271493 -6.81571224 -3.07172463 0 0 Z " fill="#410307" transform="translate(165.5,2)"/>
<path d="M0 0 C6.40034869 1.6889809 12.54526373 3.90614739 17 9 C25.13340169 24.3348299 35.73147814 48.38504395 31.25 65.9375 C29.36939296 69.04050162 27.23250413 70.68726727 23.69750977 71.58422852 C22.45698853 71.73009399 22.45698853 71.73009399 21.19140625 71.87890625 C20.27939453 71.99556641 19.36738281 72.11222656 18.42773438 72.23242188 C17.48220703 72.34134766 16.53667969 72.45027344 15.5625 72.5625 C13.68807994 72.78701986 11.81434044 73.01731118 9.94140625 73.25390625 C9.11326416 73.35002197 8.28512207 73.4461377 7.43188477 73.54516602 C4.98093897 73.89942409 4.98093897 73.89942409 2.82603455 75.01225281 C-0.70122341 76.24508952 -3.96035283 76.28001226 -7.6484375 76.25878906 C-8.40191467 76.2622937 -9.15539185 76.26579834 -9.93170166 76.26940918 C-12.41289588 76.27818423 -14.89380307 76.27239236 -17.375 76.265625 C-19.1046555 76.26697287 -20.83431064 76.26891441 -22.56396484 76.27142334 C-26.18525812 76.27436887 -29.8064526 76.27009531 -33.42773438 76.26074219 C-38.0647671 76.24934799 -42.70156829 76.25591051 -47.33859253 76.26788712 C-50.90911599 76.27512112 -54.47958474 76.27281071 -58.05010986 76.26763153 C-59.75970487 76.2662993 -61.46930488 76.26792781 -63.17889404 76.27259064 C-65.569917 76.27768119 -67.96056723 76.26991027 -70.3515625 76.25878906 C-71.0550885 76.26283752 -71.7586145 76.26688599 -72.48345947 76.27105713 C-76.4263166 76.23715778 -79.44628702 75.72912037 -83 74 C-83 73.67 -83 73.34 -83 73 C-73.52703612 72.16804018 -64.150397 71.8792328 -54.64776039 71.95540047 C-52.3648731 71.97312926 -50.08205869 71.98319108 -47.79911804 71.99131775 C-41.32084313 72.01550504 -34.8426697 72.05169116 -28.36450195 72.09594727 C-24.37375199 72.12268861 -20.38305558 72.13974894 -16.39223289 72.15081596 C-14.87913179 72.15701741 -13.36604123 72.16701232 -11.8529911 72.18089485 C-9.74998643 72.20006263 -7.64726955 72.20699827 -5.54418945 72.21118164 C-3.75220879 72.22236778 -3.75220879 72.22236778 -1.92402649 72.23377991 C1.19223031 72.22329699 1.19223031 72.22329699 4 70 C6.12890625 69.83984375 6.12890625 69.83984375 8.5625 69.9375 C18.77534479 70.4537967 18.77534479 70.4537967 28 67 C29.23409141 62.59345372 29.10544769 58.17745467 29.0625 53.625 C29.05347656 52.37976563 29.04445313 51.13453125 29.03515625 49.8515625 C29.02355469 48.91054687 29.01195312 47.96953125 29 47 C28.34 46.67 27.68 46.34 27 46 C27.33 45.01 27.66 44.02 28 43 C27.34 43 26.68 43 26 43 C24.42158426 40.18038271 23.76171137 38.04308948 23.578125 34.828125 C23.10189582 29.77181339 21.62073268 25.44673311 19.75 20.75 C19.46253906 19.97398438 19.17507812 19.19796875 18.87890625 18.3984375 C16.41570049 12.09521227 13.18158822 7.66834279 6.875 4.75 C6.21242188 4.43546875 5.54984375 4.1209375 4.8671875 3.796875 C3.27656195 3.11803062 1.64067894 2.54689298 0 2 C0 1.34 0 0.68 0 0 Z " fill="#4D050C" transform="translate(192,57)"/>
<path d="M0 0 C1.41935919 1.17005723 2.77100703 2.42147221 4.10546875 3.6875 C3.77546875 4.3475 3.44546875 5.0075 3.10546875 5.6875 C1.45546875 4.6975 -0.19453125 3.7075 -1.89453125 2.6875 C-1.89453125 3.6775 -1.89453125 4.6675 -1.89453125 5.6875 C-2.22453125 6.6775 -2.55453125 7.6675 -2.89453125 8.6875 C-1.90453125 9.0175 -0.91453125 9.3475 0.10546875 9.6875 C-0.15625 11.57421875 -0.15625 11.57421875 -0.89453125 13.6875 C-2.6015625 14.76953125 -2.6015625 14.76953125 -4.70703125 15.5 C-5.73763672 15.88091797 -5.73763672 15.88091797 -6.7890625 16.26953125 C-9.23407261 16.75490432 -10.49764876 16.31258626 -12.89453125 15.6875 C-16.42952114 15.69592667 -19.9518379 15.81685661 -23.484375 15.9453125 C-27.18535679 15.66551319 -29.03125784 15.02375725 -31.89453125 12.6875 C-31.89453125 11.6975 -31.89453125 10.7075 -31.89453125 9.6875 C-28.89453125 7.6875 -28.89453125 7.6875 -26.20703125 8.0625 C-25.44390625 8.26875 -24.68078125 8.475 -23.89453125 8.6875 C-24.22453125 9.3475 -24.55453125 10.0075 -24.89453125 10.6875 C-22.58453125 10.6875 -20.27453125 10.6875 -17.89453125 10.6875 C-17.89453125 10.0275 -17.89453125 9.3675 -17.89453125 8.6875 C-18.86390625 8.56375 -19.83328125 8.44 -20.83203125 8.3125 C-21.84265625 8.10625 -22.85328125 7.9 -23.89453125 7.6875 C-24.22453125 7.0275 -24.55453125 6.3675 -24.89453125 5.6875 C-22.91453125 5.3575 -20.93453125 5.0275 -18.89453125 4.6875 C-18.89453125 4.0275 -18.89453125 3.3675 -18.89453125 2.6875 C-17.90453125 2.3575 -16.91453125 2.0275 -15.89453125 1.6875 C-17.60246124 -0.02042999 -19.74996606 0.43479654 -22.08203125 0.375 C-27.4198462 0.40272891 -29.86543248 1.27826258 -33.89453125 4.6875 C-34.88453125 5.1825 -34.88453125 5.1825 -35.89453125 5.6875 C-34.38435265 1.84340902 -32.33788778 -0.0668327 -28.89453125 -2.3125 C-19.42128445 -5.5237701 -8.53530314 -5.91311723 0 0 Z " fill="#5D020F" transform="translate(168.89453125,28.3125)"/>
<path d="M0 0 C0.75799896 0.00561951 1.51599792 0.01123901 2.29696655 0.01702881 C3.49468437 0.01418129 3.49468437 0.01418129 4.71659851 0.01127625 C7.36319714 0.00756312 10.00952306 0.01827937 12.65609741 0.02947998 C14.48930326 0.03067149 16.32250973 0.031125 18.15571594 0.03086853 C22.0000388 0.03243427 25.84426865 0.04073148 29.68856812 0.05413818 C34.62757653 0.07114011 39.56648275 0.07495224 44.50551701 0.074193 C48.29119348 0.07446431 52.07684741 0.07993897 55.8625164 0.08719444 C57.68426785 0.09038661 59.50602186 0.09234979 61.32777596 0.09308815 C63.86833213 0.09524526 66.40877771 0.1039754 68.9493103 0.11468506 C69.7093335 0.11423187 70.46935669 0.11377869 71.25241089 0.11331177 C76.44396639 0.14547396 76.44396639 0.14547396 77.55844116 1.25994873 C77.65875798 3.04804878 77.68925631 4.84013175 77.69125366 6.63104248 C77.69326782 7.75518555 77.69528198 8.87932861 77.69735718 10.03753662 C77.69276489 11.24530762 77.68817261 12.45307861 77.68344116 13.69744873 C77.67945313 15.52554077 77.67945313 15.52554077 77.67538452 17.39056396 C77.63815298 24.54326238 77.5092997 31.67980052 77.12094116 38.82244873 C77.08178589 39.55842285 77.04263062 40.29439697 77.00228882 41.05267334 C76.69106442 45.99470222 76.69106442 45.99470222 75.55844116 48.25994873 C54.10844116 47.92994873 32.65844116 47.59994873 10.55844116 47.25994873 C10.55844116 46.92994873 10.55844116 46.59994873 10.55844116 46.25994873 C18.01707075 46.23672903 25.47569249 46.21898468 32.93435097 46.20813656 C36.39809068 46.20292875 39.86180557 46.19586945 43.32553101 46.18450928 C47.31201882 46.17151712 51.29849675 46.16670313 55.28500366 46.16229248 C56.52271515 46.1571312 57.76042664 46.15196991 59.03564453 46.14665222 C60.77677017 46.14653893 60.77677017 46.14653893 62.55307007 46.14642334 C63.57011017 46.14420273 64.58715027 46.14198212 65.63500977 46.13969421 C68.68075664 46.26498014 71.56501108 46.69779088 74.55844116 47.25994873 C74.5468396 46.04178467 74.53523804 44.82362061 74.52328491 43.56854248 C74.51389938 41.94484611 74.5048 40.32114806 74.49594116 38.69744873 C74.48756226 37.89758545 74.47918335 37.09772217 74.47055054 36.27362061 C74.4510441 31.49454236 74.81892596 26.99401059 75.55844116 22.25994873 C75.59750676 20.8438208 75.60303847 19.42591325 75.55844116 18.00994873 C75.55844116 12.74937736 76.08217141 7.49891602 76.55844116 2.25994873 C50.15844116 2.58994873 23.75844116 2.91994873 -3.44155884 3.25994873 C-3.44155884 7.21994873 -3.44155884 11.17994873 -3.44155884 15.25994873 C-3.93765259 19.78729248 -3.93765259 19.78729248 -4.21450806 21.9508667 C-4.66792739 26.56209254 -4.54388083 31.19390748 -4.50405884 35.82244873 C-4.49954712 36.83114014 -4.4950354 37.83983154 -4.49038696 38.87908936 C-4.47872653 41.3394402 -4.46236262 43.79966112 -4.44155884 46.25994873 C-4.77155884 46.25994873 -5.10155884 46.25994873 -5.44155884 46.25994873 C-5.72803951 40.79738708 -6.01282327 35.33474056 -6.29605103 29.87200928 C-6.39259222 28.01456323 -6.48959295 26.157141 -6.58706665 24.29974365 C-6.72728031 21.62638415 -6.86582846 18.95294267 -7.00405884 16.27947998 C-7.0478064 15.45220901 -7.09155396 14.62493805 -7.1366272 13.77259827 C-7.24799232 11.60202872 -7.34655849 9.43128341 -7.44155884 7.25994873 C-7.49183228 6.2901709 -7.54210571 5.32039307 -7.59390259 4.32122803 C-7.24524892 -0.39621251 -3.90000461 0.02366463 0 0 Z " fill="#AB2037" transform="translate(117.44155883789063,81.74005126953125)"/>
<path d="M0 0 C7.18650893 -0.54011341 12.77615115 0.19441553 19 4 C20.75390625 5.63671875 20.75390625 5.63671875 22 7 C21.67 7.66 21.34 8.32 21 9 C20.67 9 20.34 9 20 9 C19.67 9.66 19.34 10.32 19 11 C21.763247 19.289741 26.05330061 26.60844618 31.6796875 33.2578125 C33 35 33 35 33 37 C32.34 37 31.68 37 31 37 C31.05220703 38.87945312 31.05220703 38.87945312 31.10546875 40.796875 C31.13361128 42.44790324 31.16091094 44.09894601 31.1875 45.75 C31.21263672 46.575 31.23777344 47.4 31.26367188 48.25 C31.31952402 52.86711071 31.3154785 55.51953323 28 59 C27.10892457 60.62614656 26.2554595 62.27337551 25.4375 63.9375 C25.02371094 64.77152344 24.60992187 65.60554688 24.18359375 66.46484375 C23.0255377 68.94530043 21.99045262 71.44855755 21 74 C20.34 74 19.68 74 19 74 C20.12212403 70.12357155 21.63689202 66.68633915 23.5 63.125 C28.29611078 53.64596099 29.69049679 44.46554006 26.375 34.1875 C23.95469626 28.13246449 21.10132324 25.41582148 15.125 22.6875 C14.42375 22.460625 13.7225 22.23375 13 22 C13 21.67 13 21.34 13 21 C14.98 21 16.96 21 19 21 C18.65213292 19.02463255 18.65213292 19.02463255 18 17 C17.34 16.67 16.68 16.34 16 16 C15.5859375 13.93359375 15.5859375 13.93359375 15.375 11.4375 C15.30023438 10.61121094 15.22546875 9.78492188 15.1484375 8.93359375 C15.09945312 8.29550781 15.05046875 7.65742188 15 7 C15.66 7 16.32 7 17 7 C16.34 6.01 15.68 5.02 15 4 C13.82050781 4.23009766 13.82050781 4.23009766 12.6171875 4.46484375 C8.12169774 5.12994321 3.66116824 5.35413685 -0.875 5.5625 C-2.19371094 5.62727539 -2.19371094 5.62727539 -3.5390625 5.69335938 C-5.69255797 5.79869339 -7.84626064 5.89977649 -10 6 C-10.30035156 6.60199219 -10.60070312 7.20398438 -10.91015625 7.82421875 C-11.74495839 9.49083091 -12.58917363 11.15273102 -13.4375 12.8125 C-15.08252523 16.16835147 -16.55306565 19.55491821 -18 23 C-19 21 -19 21 -18.43359375 18.64453125 C-13.94442938 5.8812208 -13.94442938 5.8812208 -9 3 C-4.31872729 2.13793527 0.24701913 1.95442347 5 2 C2.525 1.505 2.525 1.505 0 1 C0 0.67 0 0.34 0 0 Z " fill="#B81C36" transform="translate(149,2)"/>
<path d="M0 0 C0.74446381 0.00359528 1.48892761 0.00719055 2.25595093 0.01089478 C3.0363826 0.01074875 3.81681427 0.01060272 4.62089539 0.01045227 C7.21273534 0.01115158 9.80450432 0.01894481 12.39633179 0.02676392 C14.18852194 0.02862803 15.9807126 0.03005196 17.77290344 0.03105164 C22.49938351 0.03487733 27.22583305 0.04470805 31.95230103 0.05575562 C36.77153104 0.06596863 41.59076596 0.07054902 46.41000366 0.07559204 C55.87290773 0.08633027 65.3357891 0.10340731 74.79867554 0.12442017 C74.85668382 3.72851935 74.89227423 7.33249867 74.92367554 10.93692017 C74.94043335 11.96108032 74.95719116 12.98524048 74.97445679 14.04043579 C74.9809021 15.02334595 74.98734741 16.0062561 74.99398804 17.01895142 C75.00446167 17.92492065 75.0149353 18.83088989 75.02572632 19.76431274 C74.79867554 22.12442017 74.79867554 22.12442017 72.79867554 25.12442017 C72.62622459 23.18742644 72.46110384 21.24978009 72.29867554 19.31192017 C72.20586304 18.23297485 72.11305054 17.15402954 72.01742554 16.04238892 C71.73956461 11.06570127 71.75800343 6.10731779 71.79867554 1.12442017 C71.03353638 1.15471313 70.26839722 1.1850061 69.48007202 1.21621704 C65.73236127 1.35994516 61.98439402 1.49475084 58.23617554 1.62442017 C57.19197449 1.66093185 57.19197449 1.66093185 56.12667847 1.69818115 C47.12578415 2.0037576 38.13699728 2.1603438 29.13070679 2.12051392 C28.24737167 2.11697906 27.36403656 2.11344421 26.45393372 2.10980225 C22.10166054 2.08897188 17.75003238 2.05280412 13.39804077 1.99942017 C11.79721221 1.98749647 10.19638217 1.97576811 8.59555054 1.96426392 C7.86459671 1.95076401 7.13364288 1.9372641 6.38053894 1.9233551 C2.73304158 1.90540314 -0.20380189 1.89279481 -3.20132446 4.12442017 C-3.92392741 6.87469561 -3.92392741 6.87469561 -3.95132446 10.24942017 C-3.9802478 10.88307495 -4.00917114 11.51672974 -4.03897095 12.16958618 C-4.43477275 22.47607255 -4.28459501 32.81296449 -4.20132446 43.12442017 C-2.05110167 43.81556321 -0.64184418 44.24004503 1.57241821 43.65885925 C4.32696444 42.99759824 6.83520823 43.00484011 9.66879272 43.01089478 C10.84971497 43.01097031 12.03063721 43.01104584 13.24734497 43.01112366 C14.51725281 43.01628494 15.78716064 43.02144623 17.09555054 43.02676392 C18.3994574 43.02817886 19.70336426 43.02959381 21.04678345 43.03105164 C24.50570609 43.0348615 27.96458644 43.04467865 31.42349243 43.05575562 C34.95609973 43.0660027 38.48871389 43.07055631 42.02133179 43.07559204 C48.94713036 43.08630234 55.87290092 43.10336033 62.79867554 43.12442017 C62.79867554 43.45442017 62.79867554 43.78442017 62.79867554 44.12442017 C62.13326248 44.13472763 61.46784943 44.1450351 60.78227234 44.15565491 C53.85543249 44.26385157 46.92871926 44.37843893 40.00204468 44.49673462 C37.41711069 44.54004122 34.83214889 44.58171934 32.24716187 44.62173462 C28.5311749 44.67954045 24.81532741 44.7432056 21.09945679 44.80801392 C19.3663903 44.83308266 19.3663903 44.83308266 17.59831238 44.85865784 C15.97719795 44.88857567 15.97719795 44.88857567 14.32333374 44.9190979 C13.3751326 44.93464218 12.42693146 44.95018646 11.44999695 44.96620178 C8.81331672 45.12354645 6.37739018 45.57037471 3.79867554 46.12442017 C2.21717029 46.21114787 0.6325481 46.25473517 -0.95132446 46.24942017 C-1.72991821 46.25199829 -2.50851196 46.25457642 -3.31069946 46.25723267 C-5.20132446 46.12442017 -5.20132446 46.12442017 -6.20132446 45.12442017 C-6.59285805 40.84520876 -6.6733035 36.54300824 -6.82632446 32.24942017 C-6.87788696 31.05832642 -6.92944946 29.86723267 -6.98257446 28.64004517 C-7.2242591 22.1429935 -7.16351764 15.85156213 -6.43325806 9.38809204 C-6.13974453 6.90265376 -6.13974453 6.90265376 -6.20132446 3.49942017 C-6.20132446 -0.94434039 -3.82707969 0.0077997 0 0 Z " fill="#C11835" transform="translate(119.20132446289063,83.87557983398438)"/>
<path d="M0 0 C0.33 0 0.66 0 1 0 C1.33 5.61 1.66 11.22 2 17 C2.66 17 3.32 17 4 17 C4 19.97 4 22.94 4 26 C0 27 0 27 -2 26 C-1.67 27.98 -1.34 29.96 -1 32 C-2.8125 31.875 -2.8125 31.875 -5 31 C-8.13860949 26.09401818 -8.49130404 22.00975069 -8.4375 16.375 C-8.45748047 15.62476563 -8.47746094 14.87453125 -8.49804688 14.1015625 C-8.49487949 10.52875466 -8.38990429 8.47877365 -6.09765625 5.6640625 C-5.40542969 5.11492188 -4.71320313 4.56578125 -4 4 C-3.34 3.01 -2.68 2.02 -2 1 C-1.34 1.33 -0.68 1.66 0 2 C0 1.34 0 0.68 0 0 Z " fill="#CC1535" transform="translate(126,38)"/>
<path d="M0 0 C6.40034869 1.6889809 12.54526373 3.90614739 17 9 C25.13340169 24.3348299 35.73147814 48.38504395 31.25 65.9375 C29.69571985 68.50206224 28.61101011 69.47140231 26 71 C23.10513036 71.64416374 20.20068853 71.92081256 17.25 72.1875 C16.45722656 72.26935547 15.66445312 72.35121094 14.84765625 72.43554688 C12.89956666 72.63505003 10.94990129 72.81905938 9 73 C9 72.34 9 71.68 9 71 C10.03640625 70.87882812 11.0728125 70.75765625 12.140625 70.6328125 C13.51046438 70.46392819 14.88025349 70.29463589 16.25 70.125 C16.93191406 70.04636719 17.61382812 69.96773438 18.31640625 69.88671875 C23.52262154 69.36970342 23.52262154 69.36970342 28 67 C29.23409141 62.59345372 29.10544769 58.17745467 29.0625 53.625 C29.05347656 52.37976563 29.04445312 51.13453125 29.03515625 49.8515625 C29.02355469 48.91054687 29.01195312 47.96953125 29 47 C28.34 46.67 27.68 46.34 27 46 C27.33 45.01 27.66 44.02 28 43 C27.34 43 26.68 43 26 43 C24.42158426 40.18038271 23.76171137 38.04308948 23.578125 34.828125 C23.10189582 29.77181339 21.62073268 25.44673311 19.75 20.75 C19.46253906 19.97398438 19.17507812 19.19796875 18.87890625 18.3984375 C16.41570049 12.09521227 13.18158822 7.66834279 6.875 4.75 C6.21242187 4.43546875 5.54984375 4.1209375 4.8671875 3.796875 C3.27656195 3.11803062 1.64067894 2.54689298 0 2 C0 1.34 0 0.68 0 0 Z " fill="#340207" transform="translate(192,57)"/>
<path d="M0 0 C0.33 0.66 0.66 1.32 1 2 C1.99 2 2.98 2 4 2 C2.59204581 6.92783966 1.00508456 9.49237317 -2 14 C7.57 14 17.14 14 27 14 C27 14.33 27 14.66 27 15 C15.78 15 4.56 15 -7 15 C-7.33 14.01 -7.66 13.02 -8 12 C-6.68 11.67 -5.36 11.34 -4 11 C-7.26183922 9.91272026 -9.39988675 10.02867397 -12.8125 10.1875 C-18.29801561 10.24062848 -21.00821173 9.77601593 -25 6 C-25.33 5.01 -25.66 4.02 -26 3 C-25.46375 3.28875 -24.9275 3.5775 -24.375 3.875 C-18.28780527 6.75840803 -13.56716583 7.65351854 -7 6 C-3.98795496 4.56300351 -1.53283222 3.06566445 0 0 Z " fill="#650713" transform="translate(167,66)"/>
<path d="M0 0 C1.05960938 0.00676758 1.05960938 0.00676758 2.140625 0.01367188 C3.88545275 0.02546125 5.630237 0.04339676 7.375 0.0625 C7.045 1.0525 6.715 2.0425 6.375 3.0625 C4.3125 3.75 4.3125 3.75 2.375 4.0625 C2.375 6.3725 2.375 8.6825 2.375 11.0625 C0.14644426 11.1439222 -2.08297655 11.20188079 -4.3125 11.25 C-5.55386719 11.28480469 -6.79523438 11.31960937 -8.07421875 11.35546875 C-11.83759197 11.04495941 -13.71937229 10.44589252 -16.625 8.0625 C-16.625 7.0725 -16.625 6.0825 -16.625 5.0625 C-13.625 3.0625 -13.625 3.0625 -10.9375 3.4375 C-10.174375 3.64375 -9.41125 3.85 -8.625 4.0625 C-8.955 4.7225 -9.285 5.3825 -9.625 6.0625 C-7.315 6.0625 -5.005 6.0625 -2.625 6.0625 C-2.625 5.4025 -2.625 4.7425 -2.625 4.0625 C-4.0790625 3.876875 -4.0790625 3.876875 -5.5625 3.6875 C-6.573125 3.48125 -7.58375 3.275 -8.625 3.0625 C-8.955 2.4025 -9.285 1.7425 -9.625 1.0625 C-6.55966836 -0.47016582 -3.35745728 -0.04026471 0 0 Z " fill="#C11937" transform="translate(153.625,32.9375)"/>
<path d="M0 0 C0.33 0.66 0.66 1.32 1 2 C2.25659424 2.02187378 2.25659424 2.02187378 3.53857422 2.04418945 C6.64378902 2.10520707 9.74833117 2.17935065 12.85302734 2.26245117 C14.85882336 2.31209959 16.86497687 2.34654164 18.87109375 2.38085938 C20.75634766 2.4340332 20.75634766 2.4340332 22.6796875 2.48828125 C23.84226074 2.51446533 25.00483398 2.54064941 26.20263672 2.56762695 C27.58733154 2.78165161 27.58733154 2.78165161 29 3 C31.53472057 6.80208086 31.4112981 10.08195432 31.5625 14.5 C31.72368659 20.33330462 31.72368659 20.33330462 33 26 C33.66 26.33 34.32 26.66 35 27 C35 27.66 35 28.32 35 29 C36.98 29.33 38.96 29.66 41 30 C41.495 31.98 41.495 31.98 42 34 C40.046875 33.93489583 38.09375 33.86979167 36.140625 33.8046875 C33.57815832 33.90751009 33.57815832 33.90751009 30 36 C30.495 41.445 30.495 41.445 31 47 C31.66 46.67 32.32 46.34 33 46 C34.3734635 45.84995027 35.7528526 45.75161994 37.1328125 45.68359375 C37.93847656 45.64169922 38.74414062 45.59980469 39.57421875 45.55664062 C40.41597656 45.51732422 41.25773437 45.47800781 42.125 45.4375 C42.97449219 45.39431641 43.82398438 45.35113281 44.69921875 45.30664062 C46.79928223 45.20045764 48.89961948 45.09971503 51 45 C48.17344925 47.82655075 46.06594919 47.33613517 42.125 47.5 C37.83176302 47.67925833 34.73511093 47.84579648 31 50 C30.34 50 29.68 50 29 50 C28.8920141 47.56131832 28.81273411 45.12740867 28.75 42.6875 C28.69972656 41.65206055 28.69972656 41.65206055 28.6484375 40.59570312 C28.609375 38.57421875 28.609375 38.57421875 29 35 C31.41800828 32.50139144 33.60306554 31.60659544 37 31 C36.21625 30.566875 35.4325 30.13375 34.625 29.6875 C32 28 32 28 30 25 C29.71289062 23.03881836 29.71289062 23.03881836 29.65625 20.83984375 C29.62660156 20.04642578 29.59695312 19.25300781 29.56640625 18.43554688 C29.52203165 16.7662788 29.4777613 15.09700794 29.43359375 13.42773438 C29.40394531 12.63560547 29.37429687 11.84347656 29.34375 11.02734375 C29.32505859 10.30281006 29.30636719 9.57827637 29.28710938 8.83178711 C29.1455183 6.75279512 29.1455183 6.75279512 27 5 C23.99027343 4.62703444 23.99027343 4.62703444 20.4609375 4.5859375 C19.15898437 4.54726562 17.85703125 4.50859375 16.515625 4.46875 C15.13542138 4.43729237 13.75521296 4.40604509 12.375 4.375 C10.98695459 4.33682066 9.59893289 4.29776895 8.2109375 4.2578125 C4.80742815 4.16327057 1.40392835 4.07772103 -2 4 C-1.34 2.68 -0.68 1.36 0 0 Z " fill="#B61E37" transform="translate(167,76)"/>
<path d="M0 0 C1.093125 0.00257813 2.18625 0.00515625 3.3125 0.0078125 C4.405625 0.00523437 5.49875 0.00265625 6.625 0 C9.3125 0.1328125 9.3125 0.1328125 10.3125 1.1328125 C10.5 4.0703125 10.5 4.0703125 10.3125 7.1328125 C9.6525 7.7928125 8.9925 8.4528125 8.3125 9.1328125 C8.9725 10.4528125 9.6325 11.7728125 10.3125 13.1328125 C5.91135603 12.62982462 3.60054981 11.04508519 0.3125 8.1328125 C0.3125 9.7828125 0.3125 11.4328125 0.3125 13.1328125 C-0.6775 13.1328125 -1.6675 13.1328125 -2.6875 13.1328125 C-3.63488023 10.29067182 -3.82210559 8.45672859 -3.8125 5.5078125 C-3.81507812 4.71117187 -3.81765625 3.91453125 -3.8203125 3.09375 C-3.61134276 0.0083732 -3.1205932 0.15421536 0 0 Z M0.3125 3.1328125 C0.3125 3.7928125 0.3125 4.4528125 0.3125 5.1328125 C2.6225 5.1328125 4.9325 5.1328125 7.3125 5.1328125 C7.3125 4.4728125 7.3125 3.8128125 7.3125 3.1328125 C5.0025 3.1328125 2.6925 3.1328125 0.3125 3.1328125 Z " fill="#810B18" transform="translate(102.6875,143.8671875)"/>
<path d="M0 0 C1 3 1 3 0.0625 6.6875 C-1.66471391 13.66590789 -1.1575817 20.86505061 -1 28 C0.26457031 27.97679688 1.52914062 27.95359375 2.83203125 27.9296875 C4.4921816 27.91092874 6.15233833 27.89272865 7.8125 27.875 C9.06256836 27.84986328 9.06256836 27.84986328 10.33789062 27.82421875 C11.14033203 27.81777344 11.94277344 27.81132813 12.76953125 27.8046875 C13.50792236 27.79421387 14.24631348 27.78374023 15.00708008 27.77294922 C17 28 17 28 20 30 C20 26.37 20 22.74 20 19 C16.7 18.34 13.4 17.68 10 17 C10 16.67 10 16.34 10 16 C14.56288469 15.78777281 16.55007426 16.22002971 21 18 C21 22.62 21 27.24 21 32 C18.36 32 15.72 32 13 32 C13 31.67 13 31.34 13 31 C11.94039062 30.95101562 10.88078125 30.90203125 9.7890625 30.8515625 C8.40101503 30.77653291 7.01299549 30.70098515 5.625 30.625 C4.92632812 30.5940625 4.22765625 30.563125 3.5078125 30.53125 C-1.7734375 30.2265625 -1.7734375 30.2265625 -4 28 C-4.98440647 18.71845325 -4.23373247 8.46746493 0 0 Z " fill="#B71D37" transform="translate(89,93)"/>
<path d="M0 0 C0.33 1.32 0.66 2.64 1 4 C1.66 4 2.32 4 3 4 C3 4.66 3 5.32 3 6 C3.66 6.33 4.32 6.66 5 7 C4.566875 8.08667969 4.566875 8.08667969 4.125 9.1953125 C1.29906874 16.36888992 1.29906874 16.36888992 1 24 C1.33 24 1.66 24 2 24 C2.33 27.3 2.66 30.6 3 34 C2.505 32.515 2.505 32.515 2 31 C1.34 31 0.68 31 0 31 C-0.495 32.485 -0.495 32.485 -1 34 C-1.33 28.06 -1.66 22.12 -2 16 C-4.24362573 15.7715451 -4.24362573 15.7715451 -6.125 18 C-6.74375 18.66 -7.3625 19.32 -8 20 C-5.83836487 13.06001352 -3.1063786 6.56882431 0 0 Z " fill="#BB1B36" transform="translate(128,24)"/>
<path d="M0 0 C1.1127832 -0.01836914 1.1127832 -0.01836914 2.24804688 -0.03710938 C4.18763629 -0.04238478 6.1267371 0.06561098 8.0625 0.1875 C10.0625 2.1875 10.0625 2.1875 10.2578125 4.1328125 C10.19270833 6.15104167 10.12760417 8.16927083 10.0625 10.1875 C8.7425 9.8575 7.4225 9.5275 6.0625 9.1875 C6.0625 7.2075 6.0625 5.2275 6.0625 3.1875 C4.7425 3.1875 3.4225 3.1875 2.0625 3.1875 C2.0625 5.4975 2.0625 7.8075 2.0625 10.1875 C1.0725 10.1875 0.0825 10.1875 -0.9375 10.1875 C-0.9375 7.8775 -0.9375 5.5675 -0.9375 3.1875 C-2.2575 3.1875 -3.5775 3.1875 -4.9375 3.1875 C-4.9375 5.4975 -4.9375 7.8075 -4.9375 10.1875 C-6.2575 9.8575 -7.5775 9.5275 -8.9375 9.1875 C-9.03515625 3.03515625 -9.03515625 3.03515625 -8.9375 1.1875 C-6.89483571 -0.85516429 -2.80058566 0.00242056 0 0 Z " fill="#7A0D19" transform="translate(196.9375,146.8125)"/>
<path d="M0 0 C0.9765625 6.0546875 0.9765625 6.0546875 1 8 C-1 10 -1 10 -2.875 10.265625 C-3.57625 10.26046875 -4.2775 10.2553125 -5 10.25 C-5.70125 10.25515625 -6.4025 10.2603125 -7.125 10.265625 C-9 10 -9 10 -11 8 C-11.26991906 5.31160615 -11.08737357 2.70858064 -11 0 C-6.66370819 -2.2956839 -4.46535773 -1.86921951 0 0 Z " fill="#54010C" transform="translate(158,102)"/>
<path d="M0 0 C1.32 0 2.64 0 4 0 C4.02686553 1.97909398 4.04633375 3.95828971 4.0625 5.9375 C4.07410156 7.03964844 4.08570313 8.14179688 4.09765625 9.27734375 C4 12 4 12 3 13 C1.14712498 13.07226502 -0.70833878 13.0838122 -2.5625 13.0625 C-3.57441406 13.05347656 -4.58632812 13.04445312 -5.62890625 13.03515625 C-6.41136719 13.02355469 -7.19382813 13.01195312 -8 13 C-9.49106457 10.01787087 -9.11941467 7.28390342 -9 4 C-8 3 -8 3 -6.15234375 2.90234375 C-4.1015625 2.93489583 -2.05078125 2.96744792 0 3 C0 2.01 0 1.02 0 0 Z M-6 6 C-6 7.32 -6 8.64 -6 10 C-4.02 10 -2.04 10 0 10 C0 8.68 0 7.36 0 6 C-1.98 6 -3.96 6 -6 6 Z " fill="#7A0C15" transform="translate(137,144)"/>
<path d="M0 0 C0.9075 0.00257813 1.815 0.00515625 2.75 0.0078125 C4.11125 0.00394531 4.11125 0.00394531 5.5 0 C7.75 0.1328125 7.75 0.1328125 8.75 1.1328125 C8.8828125 2.9453125 8.8828125 2.9453125 8.875 5.1328125 C8.87757812 5.8546875 8.88015625 6.5765625 8.8828125 7.3203125 C8.75 9.1328125 8.75 9.1328125 7.75 10.1328125 C5.53515625 10.3359375 5.53515625 10.3359375 2.8125 10.3828125 C1.91660156 10.40859375 1.02070312 10.434375 0.09765625 10.4609375 C-0.67707031 10.35265625 -1.45179687 10.244375 -2.25 10.1328125 C-4.25 7.1328125 -4.25 7.1328125 -3.9375 4.0078125 C-3.02176326 0.17836797 -3.02176326 0.17836797 0 0 Z M-0.25 6.1328125 C-0.25 6.4628125 -0.25 6.7928125 -0.25 7.1328125 C1.73 7.1328125 3.71 7.1328125 5.75 7.1328125 C5.75 6.8028125 5.75 6.4728125 5.75 6.1328125 C3.77 6.1328125 1.79 6.1328125 -0.25 6.1328125 Z " fill="#7B111D" transform="translate(118.25,146.8671875)"/>
<path d="M0 0 C0.9075 0.00257813 1.815 0.00515625 2.75 0.0078125 C4.11125 0.00394531 4.11125 0.00394531 5.5 0 C7.75 0.1328125 7.75 0.1328125 8.75 1.1328125 C8.8828125 2.9453125 8.8828125 2.9453125 8.875 5.1328125 C8.87757813 5.8546875 8.88015625 6.5765625 8.8828125 7.3203125 C8.75 9.1328125 8.75 9.1328125 7.75 10.1328125 C5.53515625 10.3359375 5.53515625 10.3359375 2.8125 10.3828125 C1.91660156 10.40859375 1.02070313 10.434375 0.09765625 10.4609375 C-0.67707031 10.35265625 -1.45179688 10.244375 -2.25 10.1328125 C-4.25 7.1328125 -4.25 7.1328125 -3.9375 4.0078125 C-3.02176326 0.17836797 -3.02176326 0.17836797 0 0 Z M-0.25 6.1328125 C-0.25 6.4628125 -0.25 6.7928125 -0.25 7.1328125 C1.73 7.1328125 3.71 7.1328125 5.75 7.1328125 C5.75 6.8028125 5.75 6.4728125 5.75 6.1328125 C3.77 6.1328125 1.79 6.1328125 -0.25 6.1328125 Z " fill="#8D0C18" transform="translate(165.25,146.8671875)"/>
<path d="M0 0 C1.64574566 -0.02688151 3.29161413 -0.04634123 4.9375 -0.0625 C5.85402344 -0.07410156 6.77054688 -0.08570313 7.71484375 -0.09765625 C10 0 10 0 11 1 C11.07179964 2.51928038 11.08392007 4.04167482 11.0625 5.5625 C11.05347656 6.38878906 11.04445312 7.21507812 11.03515625 8.06640625 C11.02355469 8.70449219 11.01195312 9.34257812 11 10 C9.18757948 10.02687279 7.37504767 10.04633715 5.5625 10.0625 C4.55316406 10.07410156 3.54382813 10.08570313 2.50390625 10.09765625 C0 10 0 10 -1 9 C-1.23728814 2.47457627 -1.23728814 2.47457627 0 0 Z M3 3 C3 3.33 3 3.66 3 4 C4.65 4 6.3 4 8 4 C8 3.67 8 3.34 8 3 C6.35 3 4.7 3 3 3 Z " fill="#820B14" transform="translate(176,147)"/>
<path d="M0 0 C1.41935919 1.17005723 2.77100703 2.42147221 4.10546875 3.6875 C3.77546875 4.3475 3.44546875 5.0075 3.10546875 5.6875 C2.63496094 5.33816406 2.16445312 4.98882812 1.6796875 4.62890625 C1.05707031 4.17386719 0.43445313 3.71882813 -0.20703125 3.25 C-0.82191406 2.79753906 -1.43679687 2.34507813 -2.0703125 1.87890625 C-6.27069139 -0.86438189 -10.74880707 -0.56639178 -15.58203125 -0.625 C-16.35998047 -0.65400391 -17.13792969 -0.68300781 -17.93945312 -0.71289062 C-25.21681477 -0.79179446 -29.9458108 1.72168636 -35.89453125 5.6875 C-34.38435265 1.84340902 -32.33788778 -0.0668327 -28.89453125 -2.3125 C-19.42128445 -5.5237701 -8.53530314 -5.91311723 0 0 Z " fill="#9D2337" transform="translate(168.89453125,28.3125)"/>
<path d="M0 0 C0.33 0.99 0.66 1.98 1 3 C3.97 3.495 3.97 3.495 7 4 C7 4.66 7 5.32 7 6 C3.89585298 6.02903577 0.79174091 6.0468107 -2.3125 6.0625 C-3.63411133 6.07506836 -3.63411133 6.07506836 -4.98242188 6.08789062 C-5.82998047 6.09111328 -6.67753906 6.09433594 -7.55078125 6.09765625 C-8.33106689 6.10289307 -9.11135254 6.10812988 -9.9152832 6.11352539 C-12 6 -12 6 -15 5 C-15 4.01 -15 3.02 -15 2 C-9.75614911 0.2520497 -5.52677733 -0.19392201 0 0 Z " fill="#AD142A" transform="translate(155,17)"/>
<path d="M0 0 C0.82113281 -0.02449219 1.64226562 -0.04898437 2.48828125 -0.07421875 C8.99663328 -0.10516179 14.48572841 1.27794394 19.31323242 5.8581543 C21.41803038 8.27704539 22.73263455 10.32290364 23.75 13.375 C22.76 13.375 21.77 13.375 20.75 13.375 C20.523125 12.6325 20.29625 11.89 20.0625 11.125 C18.42678839 7.69779471 16.96227896 6.40013239 13.75 4.375 C4.61334519 1.27782888 -4.42088514 1.28260948 -13.25 5.375 C-17.03749403 7.79525989 -17.03749403 7.79525989 -19.0625 11.625 C-19.1553125 12.49125 -19.1553125 12.49125 -19.25 13.375 C-19.91 13.375 -20.57 13.375 -21.25 13.375 C-21.16740329 10.56671195 -20.69224482 8.85099508 -18.765625 6.77734375 C-12.50909883 1.33630497 -8.20054594 0.01263566 0 0 Z " fill="#68030A" transform="translate(152.25,22.625)"/>
<path d="M0 0 C4.95 0 9.9 0 15 0 C15 0.99 15 1.98 15 3 C13.35 3 11.7 3 10 3 C10 5.97 10 8.94 10 12 C8.68 12.33 7.36 12.66 6 13 C6 9.7 6 6.4 6 3 C4.02 3 2.04 3 0 3 C0 2.01 0 1.02 0 0 Z " fill="#850D1C" transform="translate(146,144)"/>
<path d="M0 0 C7.06568906 1.86455683 14.00227663 4.42872084 18.17578125 10.79296875 C19.28550747 13.15399121 20.14072774 15.53542064 21 18 C21.52121546 19.36022853 22.04486357 20.71952623 22.5703125 22.078125 C23.13233745 23.57211744 23.69221588 25.06691906 24.25 26.5625 C24.52086426 27.27059814 24.79172852 27.97869629 25.07080078 28.70825195 C26.85436981 33.67315156 27.26098068 37.72700392 27 43 C24.40952728 40.40952728 23.8272826 38.44926097 23.60546875 34.91796875 C23.10911906 29.83204919 21.63244542 25.47613957 19.75 20.75 C19.46253906 19.97398438 19.17507812 19.19796875 18.87890625 18.3984375 C16.41570049 12.09521227 13.18158822 7.66834279 6.875 4.75 C6.21242187 4.43546875 5.54984375 4.1209375 4.8671875 3.796875 C3.27656195 3.11803062 1.64067894 2.54689298 0 2 C0 1.34 0 0.68 0 0 Z " fill="#44040C" transform="translate(192,57)"/>
<path d="M0 0 C3.22382974 1.5683496 4.88424374 2.83196672 6.9375 5.8125 C8.24950083 9.74850249 7.37731554 11.19212762 6 15 C6.75732962 17.81571431 6.75732962 17.81571431 8 20 C4.63052458 16.96086531 2.69577825 13.93142307 0.6875 9.875 C0.15511719 8.82054687 -0.37726563 7.76609375 -0.92578125 6.6796875 C-1.28027344 5.79539062 -1.63476562 4.91109375 -2 4 C-1.67 3.34 -1.34 2.68 -1 2 C-0.67 2 -0.34 2 0 2 C0 1.34 0 0.68 0 0 Z " fill="#650813" transform="translate(168,9)"/>
<path d="M0 0 C1.27230469 0.00902344 2.54460937 0.01804688 3.85546875 0.02734375 C5.31919922 0.04474609 5.31919922 0.04474609 6.8125 0.0625 C7.1425 1.0525 7.4725 2.0425 7.8125 3.0625 C5.5025 3.0625 3.1925 3.0625 0.8125 3.0625 C2.1325 3.7225 3.4525 4.3825 4.8125 5.0625 C-1.1275 5.0625 -7.0675 5.0625 -13.1875 5.0625 C-12.5275 4.7325 -11.8675 4.4025 -11.1875 4.0625 C-10.8575 3.0725 -10.5275 2.0825 -10.1875 1.0625 C-6.62704823 -0.12431726 -3.74941663 -0.03439832 0 0 Z " fill="#4F0407" transform="translate(153.1875,-0.0625)"/>
<path d="M0 0 C0.33 0.99 0.66 1.98 1 3 C-2.20815614 6.69881532 -5.08008465 9.61150538 -9.9921875 10.60546875 C-16.1657003 10.76711933 -20.45111238 10.3030018 -25 6 C-25.33 5.01 -25.66 4.02 -26 3 C-25.46375 3.28875 -24.9275 3.5775 -24.375 3.875 C-18.28780527 6.75840803 -13.56716583 7.65351854 -7 6 C-3.98795496 4.56300351 -1.53283222 3.06566445 0 0 Z " fill="#AD233D" transform="translate(167,66)"/>
<path d="M0 0 C1.50559539 1.96382007 2.89131683 3.78263366 4 6 C6.58605332 6.4683265 6.58605332 6.4683265 9.5625 6.625 C10.57441406 6.69976562 11.58632812 6.77453125 12.62890625 6.8515625 C13.80259766 6.92503906 13.80259766 6.92503906 15 7 C15 7.66 15 8.32 15 9 C4.60330359 9.1132812 -5.63496744 8.91987611 -16 8 C-16 7.67 -16 7.34 -16 7 C-10.06 7 -4.12 7 2 7 C1.34 5.68 0.68 4.36 0 3 C0 2.01 0 1.02 0 0 Z " fill="#6B0913" transform="translate(128,73)"/>
<path d="M0 0 C0.33 0 0.66 0 1 0 C1 1.98 1 3.96 1 6 C2.65 5.34 4.3 4.68 6 4 C6 3.67 6 3.34 6 3 C9.96 3 13.92 3 18 3 C16.02 3.99 16.02 3.99 14 5 C13.51402344 5.53367187 13.02804688 6.06734375 12.52734375 6.6171875 C11 8 11 8 8.87890625 8.2578125 C8.11449219 8.21398437 7.35007813 8.17015625 6.5625 8.125 C3.24978727 7.95684199 1.34674419 8.16331395 -2 9 C-1.34 6.03 -0.68 3.06 0 0 Z " fill="#680612" transform="translate(195,120)"/>
<path d="M0 0 C2.4375 0.75 2.4375 0.75 5 2 C5.8125 4.125 5.8125 4.125 6 6 C2.16674383 8.70582788 -0.32538149 9.32613618 -5 9 C-5 7.68 -5 6.36 -5 5 C-3.02 4.67 -1.04 4.34 1 4 C0.34 3.67 -0.32 3.34 -1 3 C-0.67 2.01 -0.34 1.02 0 0 Z " fill="#C51C3B" transform="translate(163,35)"/>
<path d="M0 0 C0.721875 0.78375 1.44375 1.5675 2.1875 2.375 C4.83299041 4.84412438 6.60373611 5.93260278 10 7 C8.02 7.99 8.02 7.99 6 9 C11.841744 9.35050464 15.8531808 9.16727335 21 6 C20 9 20 9 17.375 10.6875 C12.89065123 12.43141341 9.25973333 12.65413333 4.625 11.3125 C2.32666523 9.45615268 2.40172123 7.87900214 2 5 C1.36562656 3.3207762 0.70710678 1.64991582 0 0 Z " fill="#7F2434" transform="translate(143,59)"/>
<path d="M0 0 C0.99 0.33 1.98 0.66 3 1 C5.39254576 1.22560676 7.78928123 1.40848595 10.1875 1.5625 C12.09595703 1.68818359 12.09595703 1.68818359 14.04296875 1.81640625 C15.01878906 1.87699219 15.99460938 1.93757813 17 2 C17 2.33 17 2.66 17 3 C9.08 3.495 9.08 3.495 1 4 C1.66 5.65 2.32 7.3 3 9 C3.49313497 11.66572015 3.72523632 14.29815717 4 17 C2 15 2 15 1.0625 11.625 C0.08264767 8.2819744 -0.85596487 6.63131584 -3 4 C-3 3.34 -3 2.68 -3 2 C-2.01 1.34 -1.02 0.68 0 0 Z " fill="#741422" transform="translate(139,42)"/>
<path d="M0 0 C7.18650893 -0.54011341 12.77615115 0.19441553 19 4 C20.75390625 5.63671875 20.75390625 5.63671875 22 7 C21.67 7.66 21.34 8.32 21 9 C20.67 9 20.34 9 20 9 C19.67 9.66 19.34 10.32 19 11 C17.68 9.68 16.36 8.36 15 7 C15.66 7 16.32 7 17 7 C15.36039961 3.82767424 15.36039961 3.82767424 12.70703125 3.37890625 C11.36705078 3.19134766 11.36705078 3.19134766 10 3 C6.66666667 2.33333333 3.33333333 1.66666667 0 1 C0 0.67 0 0.34 0 0 Z " fill="#9C1F30" transform="translate(149,2)"/>
<path d="M0 0 C0.66 0 1.32 0 2 0 C1.75 2.375 1.75 2.375 1 5 C-2.08127124 7.0728552 -4.59708078 7.22112945 -8.25 7.125 C-9.14203125 7.10695313 -10.0340625 7.08890625 -10.953125 7.0703125 C-11.96632812 7.03550781 -11.96632812 7.03550781 -13 7 C-10.69047195 4.33286761 -8.73666732 3.37145513 -5.375 2.375 C-2.42560369 1.63985856 -2.42560369 1.63985856 0 0 Z " fill="#510109" transform="translate(219,120)"/>
<path d="M0 0 C3.07100006 3.63970378 4.84878366 7.68118756 6.75 12 C7.07871094 12.7115625 7.40742188 13.423125 7.74609375 14.15625 C9.40274281 17.90293311 10.29082087 20.09078035 9 24 C9 23.01 9 22.02 9 21 C8.34 21 7.68 21 7 21 C7 20.01 7 19.02 7 18 C6.34 17.67 5.68 17.34 5 17 C2.55871286 11.59231868 0.63938697 5.91432944 0 0 Z " fill="#390309" transform="translate(182,28)"/>
<path d="M0 0 C4.33905247 0 8.66529777 0.19184357 13 0.375 C13.91523438 0.4059375 14.83046875 0.436875 15.7734375 0.46875 C16.65257812 0.50742188 17.53171875 0.54609375 18.4375 0.5859375 C19.24058594 0.6173584 20.04367188 0.6487793 20.87109375 0.68115234 C23 1 23 1 26 3 C25.67 3.66 25.34 4.32 25 5 C24.01 4.34 23.02 3.68 22 3 C20.03813575 2.69437155 20.03813575 2.69437155 17.91015625 2.734375 C17.12576172 2.73179688 16.34136719 2.72921875 15.53320312 2.7265625 C14.71787109 2.73429687 13.90253906 2.74203125 13.0625 2.75 C11.84530273 2.73839844 11.84530273 2.73839844 10.60351562 2.7265625 C9.81783203 2.72914062 9.03214844 2.73171875 8.22265625 2.734375 C7.15156616 2.73775879 7.15156616 2.73775879 6.05883789 2.74121094 C3.69713441 3.0380692 2.05908249 3.83364024 0 5 C-0.33 4.01 -0.66 3.02 -1 2 C-0.67 1.34 -0.34 0.68 0 0 Z " fill="#BC1A37" transform="translate(181,73)"/>
<path d="M0 0 C0.33 0.66 0.66 1.32 1 2 C4.3 1.67 7.6 1.34 11 1 C9.68 1.99 8.36 2.98 7 4 C6.154375 4.721875 5.30875 5.44375 4.4375 6.1875 C2 8 2 8 -1 8 C-1.625 5.6875 -1.625 5.6875 -2 3 C-1.34 2.01 -0.68 1.02 0 0 Z " fill="#C61836" transform="translate(132,22)"/>
<path d="M0 0 C1.89492187 0.15275391 1.89492187 0.15275391 3.828125 0.30859375 C4.79234375 0.39238281 5.7565625 0.47617187 6.75 0.5625 C6.75 1.2225 6.75 1.8825 6.75 2.5625 C0.48 2.5625 -5.79 2.5625 -12.25 2.5625 C-11.25 0.5625 -11.25 0.5625 -9.640625 -0.08984375 C-6.35874283 -0.56711093 -3.30132357 -0.2751103 0 0 Z " fill="#AC1E36" transform="translate(155.25,20.4375)"/>
<path d="M0 0 C0.33 1.98 0.66 3.96 1 6 C0.34 6 -0.32 6 -1 6 C-1 5.01 -1 4.02 -1 3 C-2.65 3 -4.3 3 -6 3 C-6.33 3.99 -6.66 4.98 -7 6 C-9.97 5.505 -9.97 5.505 -13 5 C-8.77614544 1.55834073 -5.49939416 0 0 0 Z " fill="#BA1C35" transform="translate(116,60)"/>
<path d="M0 0 C1.23556641 0.01740234 1.23556641 0.01740234 2.49609375 0.03515625 C3.32238281 0.04417969 4.14867187 0.05320313 5 0.0625 C5.63808594 0.07410156 6.27617187 0.08570313 6.93359375 0.09765625 C6.93359375 2.73765625 6.93359375 5.37765625 6.93359375 8.09765625 C6.60359375 8.09765625 6.27359375 8.09765625 5.93359375 8.09765625 C5.93359375 5.78765625 5.93359375 3.47765625 5.93359375 1.09765625 C3.95359375 1.42765625 1.97359375 1.75765625 -0.06640625 2.09765625 C-0.39640625 3.74765625 -0.72640625 5.39765625 -1.06640625 7.09765625 C0.91359375 7.09765625 2.89359375 7.09765625 4.93359375 7.09765625 C4.93359375 7.42765625 4.93359375 7.75765625 4.93359375 8.09765625 C2.600646 8.14007348 0.26656808 8.13858562 -2.06640625 8.09765625 C-3.06640625 7.09765625 -3.06640625 7.09765625 -3.19140625 4.09765625 C-3.02663038 0.14303546 -3.02663038 0.14303546 0 0 Z " fill="#A21121" transform="translate(132.06640625,147.90234375)"/>
<path d="M0 0 C3.07446111 -0.35474551 5.94127109 -0.53698855 9 0 C11.5625 3 11.5625 3 13 6 C12.01 7.485 12.01 7.485 11 9 C10.34 7.02 9.68 5.04 9 3 C6.27958849 2.24433014 4.4981783 1.86161714 1.75 2.625 C-0.25587877 3.9244579 -0.25587877 3.9244579 -0.75 6.625 C-0.8325 7.40875 -0.915 8.1925 -1 9 C-1.33 9 -1.66 9 -2 9 C-2 6.69 -2 4.38 -2 2 C-1.34 2 -0.68 2 0 2 C0 1.34 0 0.68 0 0 Z " fill="#9F192F" transform="translate(148,99)"/>
<path d="M0 0 C1.24620265 3.60014098 0.99118023 6.34025761 0 10 C-2.0625 12.375 -2.0625 12.375 -4 14 C-3.67 10.7 -3.34 7.4 -3 4 C-2.34 4 -1.68 4 -1 4 C-0.67 2.68 -0.34 1.36 0 0 Z " fill="#B01C34" transform="translate(186,59)"/>
<path d="M0 0 C1.05960938 0.00676758 1.05960938 0.00676758 2.140625 0.01367188 C3.88545275 0.02546125 5.630237 0.04339676 7.375 0.0625 C7.045 1.0525 6.715 2.0425 6.375 3.0625 C5.715 3.0625 5.055 3.0625 4.375 3.0625 C4.375 2.4025 4.375 1.7425 4.375 1.0625 C2.065 1.3925 -0.245 1.7225 -2.625 2.0625 C-2.625 2.7225 -2.625 3.3825 -2.625 4.0625 C-5.5625 3.6875 -5.5625 3.6875 -8.625 3.0625 C-8.955 2.4025 -9.285 1.7425 -9.625 1.0625 C-6.55966836 -0.47016582 -3.35745728 -0.04026471 0 0 Z " fill="#B22239" transform="translate(153.625,32.9375)"/>
<path d="M0 0 C2.33294775 -0.04241723 4.66702567 -0.04092937 7 0 C8 1 8 1 8.0625 4.5625 C8.041875 5.696875 8.02125 6.83125 8 8 C7.67 8 7.34 8 7 8 C6.67 6.35 6.34 4.7 6 3 C4.68 2.67 3.36 2.34 2 2 C2 3.98 2 5.96 2 8 C1.34 8 0.68 8 0 8 C0 5.36 0 2.72 0 0 Z " fill="#9F0F24" transform="translate(190,148)"/>
<path d="M0 0 C0.91007813 0.00902344 1.82015625 0.01804687 2.7578125 0.02734375 C3.45648438 0.03894531 4.15515625 0.05054687 4.875 0.0625 C3.946875 0.4646875 3.946875 0.4646875 3 0.875 C0.5754767 2.01806848 0.5754767 2.01806848 -1.125 5.0625 C-4.25 5.25 -4.25 5.25 -7.125 5.0625 C-7.125 3.7425 -7.125 2.4225 -7.125 1.0625 C-4.60024538 -0.19987731 -2.81299534 -0.03606404 0 0 Z " fill="#570412" transform="translate(151.125,75.9375)"/>
<path d="M0 0 C2.96175123 0.61277612 4.38058783 1.25372522 7 3 C6.67 4.32 6.34 5.64 6 7 C3.36 6.67 0.72 6.34 -2 6 C-2 5.01 -2 4.02 -2 3 C-1.34 2.67 -0.68 2.34 0 2 C0 1.34 0 0.68 0 0 Z M-1 4 C-1 4.33 -1 4.66 -1 5 C0.98 5 2.96 5 5 5 C5 4.67 5 4.34 5 4 C3.02 4 1.04 4 -1 4 Z " fill="#950208" transform="translate(119,149)"/>
<path d="M0 0 C5.28 0.66 10.56 1.32 16 2 C16 2.33 16 2.66 16 3 C10.06 3 4.12 3 -2 3 C-1.34 2.67 -0.68 2.34 0 2 C0 1.34 0 0.68 0 0 Z " fill="#67030C" transform="translate(142,2)"/>
<path d="M0 0 C2.05078125 0.03255208 4.1015625 0.06510417 6.15234375 0.09765625 C6.48234375 1.41765625 6.81234375 2.73765625 7.15234375 4.09765625 C4.19059252 3.48488013 2.77175592 2.84393103 0.15234375 1.09765625 C0.48234375 2.08765625 0.81234375 3.07765625 1.15234375 4.09765625 C0.16234375 4.09765625 -0.82765625 4.09765625 -1.84765625 4.09765625 C-2.17765625 5.08765625 -2.50765625 6.07765625 -2.84765625 7.09765625 C-2.89019981 5.09810879 -2.88846408 3.09723989 -2.84765625 1.09765625 C-1.84765625 0.09765625 -1.84765625 0.09765625 0 0 Z " fill="#AB0E1D" transform="translate(118.84765625,147.90234375)"/>
<path d="M0 0 C0.99 0.33 1.98 0.66 3 1 C2.34 3.31 1.68 5.62 1 8 C0.34 8 -0.32 8 -1 8 C-1.66 9.98 -2.32 11.96 -3 14 C-4.44133303 11.11733394 -3.49327345 9.49238868 -2.625 6.4375 C-2.34914063 5.44621094 -2.07328125 4.45492187 -1.7890625 3.43359375 C-1 1 -1 1 0 0 Z " fill="#B51C34" transform="translate(96,72)"/>
<path d="M0 0 C7.75 0.75 7.75 0.75 10 3 C7.36 3 4.72 3 2 3 C2 4.32 2 5.64 2 7 C2.66 7.33 3.32 7.66 4 8 C3.01 8 2.02 8 1 8 C0.67 5.36 0.34 2.72 0 0 Z " fill="#6A0710" transform="translate(156,37)"/>
<path d="M0 0 C6.15234375 -0.09765625 6.15234375 -0.09765625 8 0 C9 1 9 1 9.0625 4.5625 C9.041875 5.696875 9.02125 6.83125 9 8 C6.03 8 3.06 8 0 8 C0 7.67 0 7.34 0 7 C2.31 7 4.62 7 7 7 C6.67 5.35 6.34 3.7 6 2 C3.69 2 1.38 2 -1 2 C-0.67 1.34 -0.34 0.68 0 0 Z " fill="#A4142A" transform="translate(177,148)"/>
<path d="M0 0 C0.99 1.32 1.98 2.64 3 4 C0.82575883 6.50037734 -0.73045798 7.43628586 -4 8 C-3.50168276 4.31245243 -2.89932357 2.39509338 0 0 Z " fill="#51000B" transform="translate(189,64)"/>
<path d="M0 0 C0.66 0.33 1.32 0.66 2 1 C1.80664062 1.556875 1.61328125 2.11375 1.4140625 2.6875 C-0.31374425 7.75117127 -1.7693067 12.79322065 -3 18 C-4.65582201 12.46804921 -4.04948466 7.05698994 -1.4375 1.9375 C-0.963125 1.298125 -0.48875 0.65875 0 0 Z " fill="#63050E" transform="translate(132,13)"/>
<path d="M0 0 C1.65804926 2.4870739 3.19874478 4.97317502 4.6875 7.5625 C5.14511719 8.34753906 5.60273438 9.13257812 6.07421875 9.94140625 C6.37972656 10.62074219 6.68523437 11.30007812 7 12 C6.67 12.66 6.34 13.32 6 14 C5.34 14 4.68 14 4 14 C2.74335022 11.09399739 2 9.20395416 2 6 C1.34 6 0.68 6 0 6 C0 4.02 0 2.04 0 0 Z " fill="#9F1A2F" transform="translate(131,58)"/>
<path d="M0 0 C0 0.66 0 1.32 0 2 C0.33 2.99 0.66 3.98 1 5 C-2.24208567 4.64950425 -3.61527704 4.43778819 -5.8125 1.9375 C-6.4003125 0.9784375 -6.4003125 0.9784375 -7 0 C-3.98968256 -0.93423645 -3.13349732 -1.04449911 0 0 Z " fill="#800D16" transform="translate(112,152)"/>
<path d="M0 0 C0.33 0 0.66 0 1 0 C1 1.65 1 3.3 1 5 C-2.11771927 6.60339848 -3.39011689 7.18974141 -6.8125 6.125 C-7.534375 5.75375 -8.25625 5.3825 -9 5 C-9 6.65 -9 8.3 -9 10 C-9.33 10 -9.66 10 -10 10 C-10 8.02 -10 6.04 -10 4 C-6.7 4 -3.4 4 0 4 C0 2.68 0 1.36 0 0 Z " fill="#AD152F" transform="translate(111,146)"/>
<path d="M0 0 C1.16110175 3.48330526 0.77231701 4.51852696 -0.3125 7.9375 C-0.57675781 8.79214844 -0.84101562 9.64679688 -1.11328125 10.52734375 C-1.92698652 12.79639852 -2.87027359 14.87374636 -4 17 C-3.91266027 14.91589342 -3.80447722 12.83265331 -3.6875 10.75 C-3.62949219 9.58984375 -3.57148437 8.4296875 -3.51171875 7.234375 C-2.98288197 3.89180362 -2.26227667 2.4502943 0 0 Z " fill="#53040A" transform="translate(89,90)"/>
<path d="M0 0 C2.03819846 2.03819846 2.67841059 3.29417798 3.6875 5.9375 C3.95949219 6.62714844 4.23148438 7.31679687 4.51171875 8.02734375 C5 10 5 10 4 13 C3.67 12.34 3.34 11.68 3 11 C2.01 11.495 2.01 11.495 1 12 C0.83126522 10.56274129 0.66509263 9.12518162 0.5 7.6875 C0.4071875 6.88699219 0.314375 6.08648437 0.21875 5.26171875 C0 3 0 3 0 0 Z " fill="#761927" transform="translate(211,77)"/>
<path d="M0 0 C0.99 0 1.98 0 3 0 C3.33 3.3 3.66 6.6 4 10 C3.67 9.01 3.34 8.02 3 7 C2.34 7 1.68 7 1 7 C0.67 7.99 0.34 8.98 0 10 C0 6.7 0 3.4 0 0 Z " fill="#A01830" transform="translate(127,48)"/>
<path d="M0 0 C1.09898702 3.29696105 0.87124444 4.40494903 0.0625 7.6875 C-0.22947266 8.89986328 -0.22947266 8.89986328 -0.52734375 10.13671875 C-0.68332031 10.75160156 -0.83929688 11.36648437 -1 12 C-1.33 11.34 -1.66 10.68 -2 10 C-2.66 10 -3.32 10 -4 10 C-2.8905928 6.51329166 -1.73662334 3.22515763 0 0 Z " fill="#A11D30" transform="translate(128,24)"/>
<path d="M0 0 C0.66 0 1.32 0 2 0 C2.33 1.65 2.66 3.3 3 5 C1.68 5.99 0.36 6.98 -1 8 C-1.66 6.02 -2.32 4.04 -3 2 C-2.01 2 -1.02 2 0 2 C0 1.34 0 0.68 0 0 Z " fill="#B2122B" transform="translate(125,68)"/>
<path d="M0 0 C0.721875 0.78375 1.44375 1.5675 2.1875 2.375 C4.83299041 4.84412438 6.60373611 5.93260278 10 7 C7.66785852 8.20628008 5.50357861 9.1654738 3 10 C2.87625 9.278125 2.7525 8.55625 2.625 7.8125 C2.0095069 5.04278106 1.11555626 2.6029646 0 0 Z " fill="#731B2B" transform="translate(143,59)"/>
<path d="M0 0 C10.55808656 -0.3690205 10.55808656 -0.3690205 15 2 C13.375 3.125 13.375 3.125 11 4 C8.0625 3.1875 8.0625 3.1875 5 2 C3.33911955 1.63893903 1.67381019 1.29537827 0 1 C0 0.67 0 0.34 0 0 Z " fill="#A72539" transform="translate(149,2)"/>
<path d="M0 0 C2.01822917 0.06510417 4.03645833 0.13020833 6.0546875 0.1953125 C6.0546875 1.1853125 6.0546875 2.1753125 6.0546875 3.1953125 C4.7346875 3.5253125 3.4146875 3.8553125 2.0546875 4.1953125 C2.0546875 3.8653125 2.0546875 3.5353125 2.0546875 3.1953125 C-0.9153125 2.7003125 -0.9153125 2.7003125 -3.9453125 2.1953125 C-1.9453125 0.1953125 -1.9453125 0.1953125 0 0 Z " fill="#A71A32" transform="translate(99.9453125,120.8046875)"/>
<path d="M0 0 C0.53625 0.28875 1.0725 0.5775 1.625 0.875 C4.35280484 2.16711808 7.12612718 3.08558592 10 4 C9.67 4.99 9.34 5.98 9 7 C5.07353523 5.69117841 2.72225079 4.1255472 0 1 C0 0.67 0 0.34 0 0 Z " fill="#992036" transform="translate(141,69)"/>
<path d="M0 0 C3.08089673 2.77280706 4.68775452 5.06326356 6 9 C3 8 3 8 1 6 C0.34 6 -0.32 6 -1 6 C-0.67 4.02 -0.34 2.04 0 0 Z " fill="#C01A35" transform="translate(117,66)"/>
<path d="M0 0 C2.4375 0.75 2.4375 0.75 5 2 C5.8125 4.125 5.8125 4.125 6 6 C5.01 6.495 5.01 6.495 4 7 C3.54625 6.525625 3.0925 6.05125 2.625 5.5625 C1.06741796 3.90972192 1.06741796 3.90972192 -1 3 C-0.67 2.01 -0.34 1.02 0 0 Z " fill="#AD2137" transform="translate(163,35)"/>
<path d="M0 0 C2.02054804 1.64169528 4.02043058 3.30911778 6 5 C6 5.33 6 5.66 6 6 C2.7 6 -0.6 6 -4 6 C-4 5.67 -4 5.34 -4 5 C-2.35 5 -0.7 5 1 5 C0.67 3.35 0.34 1.7 0 0 Z " fill="#B71C38" transform="translate(136,74)"/>
<path d="M0 0 C0.33 0 0.66 0 1 0 C1.99 3.3 2.98 6.6 4 10 C3.01 9.67 2.02 9.34 1 9 C1 8.34 1 7.68 1 7 C0.01 7 -0.98 7 -2 7 C-2 6.34 -2 5.68 -2 5 C-1.34 5 -0.68 5 0 5 C0 3.35 0 1.7 0 0 Z " fill="#6A0612" transform="translate(110,120)"/>
<path d="M0 0 C0 0.99 0 1.98 0 3 C-2.64 3 -5.28 3 -8 3 C-5.36657694 0.36657694 -3.69534435 0 0 0 Z " fill="#76010E" transform="translate(105,106)"/>
<path d="M0 0 C-0.99 0.33 -1.98 0.66 -3 1 C-3 1.66 -3 2.32 -3 3 C-4.98 3 -6.96 3 -9 3 C-9 2.34 -9 1.68 -9 1 C-5.8035914 -0.06546953 -3.34252724 -0.07427838 0 0 Z " fill="#41080D" transform="translate(152,0)"/>
</svg>
