<?xml version="1.0" encoding="UTF-8"?>
<svg version="1.1" xmlns="http://www.w3.org/2000/svg" width="314" height="160">
<path d="M0 0 C0.33 0 0.66 0 1 0 C1.495 37.62 1.495 37.62 2 76 C12.07621435 63.05821221 12.07621435 63.05821221 22 50 C25.52685547 49.09179688 25.52685547 49.09179688 29.3671875 49.21875 C30.04677521 49.23006958 30.72636292 49.24138916 31.42654419 49.25305176 C33.5790065 49.2975391 35.72458482 49.39778296 37.875 49.5 C39.34104895 49.54016572 40.80720334 49.57666116 42.2734375 49.609375 C45.85116254 49.69716433 49.4249086 49.83498602 53 50 C51.68516427 52.91834217 50.28366724 54.94920929 47.98828125 57.171875 C47.39845459 57.75001953 46.80862793 58.32816406 46.20092773 58.92382812 C45.57774658 59.52646484 44.95456543 60.12910156 44.3125 60.75 C39.31620841 65.66059735 34.47279037 70.60062135 30 76 C29.10565841 77.07307476 28.21111376 78.14598031 27.31640625 79.21875 C26.55199219 80.1365625 25.78757812 81.054375 25 82 C25.6084375 82.81597656 26.216875 83.63195312 26.84375 84.47265625 C32.88336646 92.61821477 38.76035808 100.87114022 44.5625 109.1875 C45.26503906 110.19111572 45.96757812 111.19473145 46.69140625 112.22875977 C47.68140625 113.65273071 47.68140625 113.65273071 48.69140625 115.10546875 C49.57614624 116.37620239 49.57614624 116.37620239 50.47875977 117.67260742 C51.82611423 119.73396677 52.95706709 121.77257266 54 124 C49.58984615 124.32371265 45.18610257 124.55815776 40.76757812 124.71411133 C39.26895759 124.77913545 37.77115122 124.86761159 36.27539062 124.98071289 C31.25197726 125.35077101 26.8762679 125.38503555 22 124 C18.16811455 120.18570848 16.20191783 115.88865224 14 111 C12.96146453 109.20079652 11.90096835 107.41397346 10.8125 105.64453125 C9.87322137 104.03489074 8.93567709 102.42423673 8 100.8125 C7.51144531 99.98169922 7.02289063 99.15089844 6.51953125 98.29492188 C6.05933594 97.50279297 5.59914063 96.71066406 5.125 95.89453125 C4.71507812 95.19175049 4.30515625 94.48896973 3.8828125 93.76489258 C3 92 3 92 3 90 C2.34 90 1.68 90 1 90 C1 101.22 1 112.44 1 124 C-7.58 124 -16.16 124 -25 124 C-25.29588238 113.13253797 -25.53341362 102.26782862 -25.67355824 91.39722061 C-25.74088515 86.34725405 -25.8318945 81.30022758 -25.98071289 76.25195312 C-27.1864523 34.25126677 -27.1864523 34.25126677 -13.71084595 19.94499207 C-10.58792453 16.39466809 -8.22680396 12.32610672 -5.75 8.3125 C-1.20417455 1.20417455 -1.20417455 1.20417455 0 0 Z " fill="#0A1B2F" transform="translate(260,0)"/>
<path d="M0 0 C9.24 0 18.48 0 28 0 C32.50784593 10.14265335 32.50784593 10.14265335 34.2890625 15.46875 C34.67320312 16.61730469 35.05734375 17.76585938 35.453125 18.94921875 C35.83984375 20.12097656 36.2265625 21.29273438 36.625 22.5 C37.21667969 24.25763672 37.21667969 24.25763672 37.8203125 26.05078125 C39.90555187 32.32763354 41.71066054 38.51171109 43 45 C43.268125 43.91847656 43.53625 42.83695313 43.8125 41.72265625 C46.31412995 31.83619721 49.14390137 22.08923967 52.25 12.375 C52.77980469 10.71223022 52.77980469 10.71223022 53.3203125 9.01586914 C55.86952646 1.13047354 55.86952646 1.13047354 57 0 C58.78071246 -0.08726223 60.5648314 -0.10699041 62.34765625 -0.09765625 C63.42724609 -0.09443359 64.50683594 -0.09121094 65.61914062 -0.08789062 C67.32360352 -0.07532227 67.32360352 -0.07532227 69.0625 -0.0625 C70.77276367 -0.05573242 70.77276367 -0.05573242 72.51757812 -0.04882812 C75.34510351 -0.03699747 78.1725264 -0.0205141 81 0 C82 2 82 2 81.3523407 4.16029358 C80.9894545 5.05751633 80.6265683 5.95473907 80.25268555 6.87915039 C79.64030281 8.4095974 79.64030281 8.4095974 79.01554871 9.97096252 C78.33302788 11.64242592 78.33302788 11.64242592 77.63671875 13.34765625 C77.17070755 14.50631699 76.70469635 15.66497772 76.2245636 16.85874939 C74.97294223 19.96679572 73.71471965 23.07200055 72.45318604 26.17602539 C71.212911 29.23177834 69.98083142 32.29082841 68.74804688 35.34960938 C66.79987515 40.1817372 64.84627042 45.01162047 62.88964844 49.84033203 C60.96378423 54.60006971 59.05614636 59.36648458 57.16503906 64.14013672 C56.71498001 65.27438583 56.26492096 66.40863495 55.80122375 67.57725525 C54.95765535 69.70622177 54.11694963 71.83632581 53.27970886 73.9677887 C47.41491221 88.7546585 39.89515486 101.90706911 25 109 C20.92208812 110.19128834 16.90728456 110.22082258 12.6875 110.25 C11.95337891 110.270625 11.21925781 110.29125 10.46289062 110.3125 C5.23336311 110.34962176 1.67615661 109.34734414 -3 107 C-0.76748346 100.90223093 2.36065171 95.57938903 7 91 C9.88025325 89.97744899 12.41919777 89.64461375 15.453125 89.35546875 C19.50220181 88.79033686 21.32315715 86.99551462 24 84 C27.82032414 78.88326984 27.82032414 78.88326984 28.74755859 72.85742188 C27.7643264 69.09917577 26.31665758 65.57729181 24.82421875 62 C24.50258255 61.21904465 24.18094635 60.43808929 23.8495636 59.63346863 C22.79970982 57.08723577 21.74356918 54.54366042 20.6875 52 C19.9637546 50.24668143 19.24045034 48.4931807 18.51757812 46.73950195 C15.41076566 39.20865817 12.28749379 31.68468789 9.15376282 24.16500854 C8.2967875 22.10838016 7.44089862 20.05130258 6.58520508 17.99414062 C5.54663816 15.4973718 4.50269334 13.00308458 3.45581055 10.50976562 C2.99601807 9.40697266 2.53622559 8.30417969 2.0625 7.16796875 C1.66160156 6.21172607 1.26070312 5.2554834 0.84765625 4.27026367 C0 2 0 2 0 0 Z " fill="#091A2D" transform="translate(147,50)"/>
<path d="M0 0 C0 3.63 0 7.26 0 11 C0.70125 10.2575 1.4025 9.515 2.125 8.75 C9.918921 1.29494513 17.01735039 -0.49771584 27.5859375 -0.30859375 C34.7966316 0.34317379 39.03543469 3.45649173 43.67578125 8.828125 C48.3104274 16.42949154 48.40669903 23.33730069 48.29296875 32.03125 C48.28872391 33.26290894 48.28447906 34.49456787 48.28010559 35.7635498 C48.26338749 39.67592744 48.22574662 43.58777949 48.1875 47.5 C48.17074452 50.16145079 48.15875755 52.82289665 48.14648438 55.484375 C48.11606556 61.98994601 48.05732752 68.49438851 48 75 C39.75 75 31.5 75 23 75 C22.95101562 72.07253906 22.90203125 69.14507812 22.8515625 66.12890625 C22.79743262 63.26923859 22.74017246 60.40964936 22.68261719 57.55004883 C22.64451765 55.57452323 22.60963287 53.59893274 22.578125 51.62329102 C22.53205841 48.77076142 22.47413583 45.91867125 22.4140625 43.06640625 C22.40251129 42.19415909 22.39096008 41.32191193 22.37905884 40.42323303 C22.31035351 30.53489085 22.31035351 30.53489085 18.21484375 21.953125 C15.50158768 20.78551569 13.51171932 20.66819086 10.5625 20.75 C9.63566406 20.76546875 8.70882812 20.7809375 7.75390625 20.796875 C4.60375956 20.9722544 4.60375956 20.9722544 0 22 C0 39.49 0 56.98 0 75 C-8.25 75 -16.5 75 -25 75 C-25 50.91 -25 26.82 -25 2 C-3 0 -3 0 0 0 Z " fill="#091B2F" transform="translate(96,49)"/>
<path d="M0 0 C-0.14194764 2.06277107 -0.28872216 4.12521031 -0.4375 6.1875 C-0.51871094 7.33605469 -0.59992187 8.48460937 -0.68359375 9.66796875 C-0.95403812 12.51598171 -1.37521747 15.21210482 -2 18 C-2.71285156 17.79503906 -3.42570312 17.59007813 -4.16015625 17.37890625 C-12.16267574 15.12786106 -19.66187428 13.58309371 -28 14 C-28.99 14.66 -29.98 15.32 -31 16 C-29.99851029 18.64383536 -29.33385078 19.80286506 -26.86450195 21.26098633 C-25.99784912 21.61443115 -25.13119629 21.96787598 -24.23828125 22.33203125 C-23.28373047 22.73873047 -22.32917969 23.14542969 -21.34570312 23.56445312 C-19.34439227 24.38791587 -17.34181018 25.2082967 -15.33789062 26.02539062 C-8.08697387 29.12320013 -2.46386948 32.51466854 1.4140625 39.57421875 C3.09827499 46.54685845 3.05192872 53.99946304 -0.6875 60.2578125 C-6.65587618 68.18012136 -15.39068577 71.46426485 -25 73 C-36.3511453 73.75384362 -47.48223532 72.50481541 -58 68 C-57.85805236 65.93722893 -57.71127784 63.87478969 -57.5625 61.8125 C-57.48128906 60.66394531 -57.40007813 59.51539063 -57.31640625 58.33203125 C-57.04596188 55.48401829 -56.62478253 52.78789518 -56 50 C-55.25234375 50.20496094 -54.5046875 50.40992188 -53.734375 50.62109375 C-52.74953125 50.89050781 -51.7646875 51.15992188 -50.75 51.4375 C-49.77546875 51.70433594 -48.8009375 51.97117188 -47.796875 52.24609375 C-46.87390625 52.49488281 -45.9509375 52.74367187 -45 53 C-44.38125 53.1959375 -43.7625 53.391875 -43.125 53.59375 C-39.84863317 54.22011425 -36.5713504 54.10331054 -33.25 54.0625 C-32.55261719 54.05798828 -31.85523437 54.05347656 -31.13671875 54.04882812 C-29.42444197 54.0371002 -27.71220967 54.01916653 -26 54 C-25.34 52.68 -24.68 51.36 -24 50 C-26.09088483 47.69071864 -27.81649165 46.46714131 -30.73046875 45.38671875 C-31.44759033 45.11150391 -32.16471191 44.83628906 -32.90356445 44.55273438 C-33.65726318 44.26720703 -34.41096191 43.98167969 -35.1875 43.6875 C-43.36874496 40.43665143 -51.20034218 37.2193651 -55.31640625 28.9140625 C-57.5320552 22.71024543 -57.77185947 16.04552109 -55 10 C-50.43015046 2.85296786 -43.87762077 -1.42995062 -35.71875 -3.609375 C-23.28465759 -5.39588253 -11.83660495 -3.91061874 0 0 Z " fill="#091B2F" transform="translate(58,53)"/>
<path d="M0 0 C0.66 0.33 1.32 0.66 2 1 C1.3503125 1.98742187 0.700625 2.97484375 0.03125 3.9921875 C-0.81273833 5.28630293 -1.65647535 6.58058229 -2.5 7.875 C-2.92925781 8.52597656 -3.35851562 9.17695313 -3.80078125 9.84765625 C-6.17981963 13.15035075 -6.17981963 13.15035075 -7 17 C-8 18 -9 19 -10 20 C-10.33 20.99 -10.66 21.98 -11 23 C-11.66 23 -12.32 23 -13 23 C-13.309375 23.804375 -13.61875 24.60875 -13.9375 25.4375 C-15 28 -15 28 -16 29 C-16.12507482 31.61600453 -16.18605405 34.20691934 -16.20532227 36.82446289 C-16.21522186 37.64390884 -16.22512146 38.4633548 -16.23532104 39.30763245 C-16.26703055 42.02927717 -16.29173062 44.75093939 -16.31640625 47.47265625 C-16.33696763 49.35453253 -16.35796388 51.23640411 -16.37937927 53.11827087 C-16.43468426 58.08143311 -16.48405623 63.0446376 -16.53222656 68.00787354 C-16.58238022 73.06843851 -16.63809824 78.1289418 -16.69335938 83.18945312 C-16.80104397 93.12625145 -16.90195199 103.06310191 -17 113 C-9.74 113 -2.48 113 5 113 C5 105.41 5 97.82 5 90 C4.34 89.67 3.68 89.34 3 89 C3.66 89 4.32 89 5 89 C5 86.03 5 83.06 5 80 C6.98 79.505 6.98 79.505 9 79 C9.61875 79.94875 10.2375 80.8975 10.875 81.875 C12.81970969 84.94445109 12.81970969 84.94445109 15 87 C15.625 89.125 15.625 89.125 16 91 C15.01 91.495 15.01 91.495 14 92 C13.16151196 90.54462432 12.32936066 89.08559627 11.5 87.625 C11.0359375 86.81289062 10.571875 86.00078125 10.09375 85.1640625 C9 83 9 83 9 81 C8.34 81 7.68 81 7 81 C7 92.22 7 103.44 7 115 C-1.58 115 -10.16 115 -19 115 C-19.29588238 104.13253797 -19.53341362 93.26782862 -19.67355824 82.39722061 C-19.74088515 77.34725405 -19.8318945 72.30022758 -19.98071289 67.25195312 C-21.16178742 26.11242685 -21.16178742 26.11242685 -9.40112305 12.69824219 C-8.84000824 12.10636108 -8.27889343 11.51447998 -7.70077515 10.90466309 C-4.71965459 7.56616753 -2.38878888 3.77418651 0 0 Z " fill="#000113" transform="translate(254,9)"/>
<path d="M0 0 C0.66 0 1.32 0 2 0 C3.52946593 4.08992342 4.24678251 7.46106509 4.22705078 11.82177734 C4.22689972 12.94248627 4.22674866 14.06319519 4.22659302 15.21786499 C4.21627045 16.41182892 4.20594788 17.60579285 4.1953125 18.8359375 C4.1924826 20.07042633 4.18965271 21.30491516 4.18673706 22.57681274 C4.17556522 26.50964149 4.15046564 30.44224037 4.125 34.375 C4.11383825 37.04556959 4.10584119 39.71613701 4.09765625 42.38671875 C4.07733953 48.92463843 4.03818393 55.46206267 4 62 C-4.25 62 -12.5 62 -21 62 C-21.04898438 59.07253906 -21.09796875 56.14507812 -21.1484375 53.12890625 C-21.20256738 50.26923859 -21.25982754 47.40964936 -21.31738281 44.55004883 C-21.35548235 42.57452323 -21.39036713 40.59893274 -21.421875 38.62329102 C-21.46794159 35.77076142 -21.52586417 32.91867125 -21.5859375 30.06640625 C-21.59748871 29.19415909 -21.60903992 28.32191193 -21.62094116 27.42323303 C-21.67740396 17.53394789 -21.67740396 17.53394789 -25.796875 8.98046875 C-28.35931396 7.84009255 -30.45405287 7.49644389 -33.25 7.3125 C-34.14203125 7.24675781 -35.0340625 7.18101563 -35.953125 7.11328125 C-36.62859375 7.07589844 -37.3040625 7.03851563 -38 7 C-38 6.34 -38 5.68 -38 5 C-36.13025379 4.78216549 -34.25303968 4.62794431 -32.375 4.5 C-31.33085938 4.4071875 -30.28671875 4.314375 -29.2109375 4.21875 C-24.94975664 5.25553366 -23.75086414 7.07518633 -21.26278687 10.56213379 C-18.99519351 14.93982362 -19.26239629 19.22969938 -19.4140625 24.0625 C-19.42255219 25.09439453 -19.43104187 26.12628906 -19.43978882 27.18945312 C-19.47317238 30.46073178 -19.54842611 33.72947608 -19.625 37 C-19.65511892 39.22782879 -19.68249133 41.45569652 -19.70703125 43.68359375 C-19.76779684 49.12413944 -19.88523438 54.55925937 -20 60 C-9.605 59.505 -9.605 59.505 1 59 C1 42.83 1 26.66 1 10 C0.34 9.67 -0.32 9.34 -1 9 C-0.67 6.03 -0.34 3.06 0 0 Z " fill="#061325" transform="translate(140,62)"/>
<path d="M0 0 C0.33 0 0.66 0 1 0 C1.33 25.08 1.66 50.16 2 76 C3.98 73.36 5.96 70.72 8 68 C8.99 68.99 9.98 69.98 11 71 C11 71.66 11 72.32 11 73 C9.13671875 74.7265625 9.13671875 74.7265625 6.6875 76.625 C5.88699219 77.25664063 5.08648437 77.88828125 4.26171875 78.5390625 C2 80 2 80 -1 80 C-1.83038862 75.66525981 -2.12184768 71.5792681 -2.11352539 67.16845703 C-2.11367142 66.51409164 -2.11381744 65.85972626 -2.1139679 65.18553162 C-2.11327647 63.04292374 -2.10552052 60.90040501 -2.09765625 58.7578125 C-2.09578933 57.26423185 -2.09436672 55.77065058 -2.09336853 54.27706909 C-2.08956494 50.36114793 -2.07975324 46.44526432 -2.06866455 42.52935791 C-2.05840388 38.52738961 -2.05386096 34.52541519 -2.04882812 30.5234375 C-2.0381289 22.6822745 -2.0210786 14.84114193 -2 7 C-2.99 7 -3.98 7 -5 7 C-4.19152271 5.83054208 -3.37810888 4.66449539 -2.5625 3.5 C-2.11003906 2.8503125 -1.65757812 2.200625 -1.19140625 1.53125 C-0.79824219 1.0259375 -0.40507812 0.520625 0 0 Z " fill="#030C1C" transform="translate(260,0)"/>
<path d="M0 0 C0.33 0 0.66 0 1 0 C1 1.65 1 3.3 1 5 C1.66 5.33 2.32 5.66 3 6 C3 7.65 3 9.3 3 11 C3.66 11.33 4.32 11.66 5 12 C5.103125 12.598125 5.20625 13.19625 5.3125 13.8125 C6.5468096 17.73984872 9.72994191 19.2951628 13.203125 21.22265625 C17.51320642 23.43868868 21.82508209 25.33326493 26.375 27 C30.41263444 28.59212715 33.05419157 29.9138023 35 34 C34.5 37.25 34.5 37.25 33 40 C25.82162028 42.78884178 16.06706578 41.62960587 9 39 C9 38.34 9 37.68 9 37 C9.82757813 37.16371094 10.65515625 37.32742187 11.5078125 37.49609375 C15.32194189 38.0464547 19.03353501 38.11089055 22.875 38.0625 C23.56335938 38.05798828 24.25171875 38.05347656 24.9609375 38.04882812 C26.64066335 38.03716336 28.32034375 38.01923271 30 38 C30.66 36.68 31.32 35.36 32 34 C29.90911517 31.69071864 28.18350835 30.46714131 25.26953125 29.38671875 C24.55240967 29.11150391 23.83528809 28.83628906 23.09643555 28.55273438 C22.34273682 28.26720703 21.58903809 27.98167969 20.8125 27.6875 C12.61458383 24.43002706 4.85552773 21.21527178 0.6796875 12.9375 C-0.56235708 9.39695913 -1.03814991 5.74632073 -1 2 C-0.67 1.34 -0.34 0.68 0 0 Z " fill="#040B1B" transform="translate(2,69)"/>
<path d="M0 0 C1.875 0.125 1.875 0.125 4 1 C5.625 3.4375 5.625 3.4375 7 6 C7.66 6.66 8.32 7.32 9 8 C9.625 10.125 9.625 10.125 10 12 C9.34 12.33 8.68 12.66 8 13 C7.16151196 11.54462432 6.32936066 10.08559627 5.5 8.625 C4.80390625 7.40683594 4.80390625 7.40683594 4.09375 6.1640625 C3 4 3 4 3 2 C2.34 2 1.68 2 1 2 C1 13.22 1 24.44 1 36 C-7.58 36 -16.16 36 -25 36 C-23 34 -23 34 -20.75341797 33.77294922 C-19.84221191 33.78342285 -18.93100586 33.79389648 -17.9921875 33.8046875 C-16.65969971 33.81218018 -16.65969971 33.81218018 -15.30029297 33.81982422 C-13.60477295 33.84713623 -13.60477295 33.84713623 -11.875 33.875 C-8.28625 33.91625 -4.6975 33.9575 -1 34 C-1 26.41 -1 18.82 -1 11 C-1.66 10.67 -2.32 10.34 -3 10 C-2.34 10 -1.68 10 -1 10 C-1.01160156 9.36191406 -1.02320313 8.72382812 -1.03515625 8.06640625 C-1.04417969 7.24011719 -1.05320312 6.41382812 -1.0625 5.5625 C-1.07410156 4.73878906 -1.08570313 3.91507812 -1.09765625 3.06640625 C-1 1 -1 1 0 0 Z " fill="#050E1E" transform="translate(260,88)"/>
<path d="M0 0 C0.66 0.33 1.32 0.66 2 1 C1.21496094 1.7734375 0.42992187 2.546875 -0.37890625 3.34375 C-8.0223473 10.9080664 -15.12141488 18.73638674 -22 27 C-21.25234375 28.00160156 -20.5046875 29.00320312 -19.734375 30.03515625 C-18.73938352 31.37745608 -17.74460309 32.71991237 -16.75 34.0625 C-16.01330078 35.04766602 -16.01330078 35.04766602 -15.26171875 36.05273438 C-12.17734943 40.22691419 -9.48817802 44.44426452 -7 49 C-10.38629758 47.54872961 -12.48853911 45.67349063 -15 43 C-15.53625 42.54625 -16.0725 42.0925 -16.625 41.625 C-18 40 -18 40 -18.875 37.3125 C-20.30624607 33.09827547 -22.54745286 29.68818158 -25 26 C-24.25234375 25.19175781 -23.5046875 24.38351563 -22.734375 23.55078125 C-21.73949763 22.47143316 -20.74471077 21.39200163 -19.75 20.3125 C-19.25886719 19.78205078 -18.76773437 19.25160156 -18.26171875 18.70507812 C-16.04954262 16.30118006 -13.92348912 13.90301037 -11.8984375 11.3359375 C-10.03896483 9.04794438 -8.12208524 7.2135512 -5.875 5.3125 C-3.84411909 3.5843353 -1.88645821 1.88645821 0 0 Z " fill="#020A19" transform="translate(307,55)"/>
<path d="M0 0 C0.33 0 0.66 0 1 0 C1.51881399 8.64689989 1.32333286 14.94827954 -4.4375 21.6796875 C-12.09636703 29.0808042 -23.02850203 31.15861213 -33.3125 31.0625 C-34.56675781 31.05347656 -35.82101563 31.04445313 -37.11328125 31.03515625 C-38.06589844 31.02355469 -39.01851562 31.01195313 -40 31 C-39.67 30.34 -39.34 29.68 -39 29 C-36.48046875 28.69140625 -36.48046875 28.69140625 -33.1875 28.5625 C-23.69454853 27.94837266 -13.28421919 26.72254446 -6 20 C-2.03409248 14.92410088 -1.47839979 9.50847557 -1.17578125 3.22265625 C-1 1 -1 1 0 0 Z " fill="#040B1A" transform="translate(59,95)"/>
<path d="M0 0 C1.86974621 -0.21783451 3.74696032 -0.37205569 5.625 -0.5 C6.66914062 -0.5928125 7.71328125 -0.685625 8.7890625 -0.78125 C13.04743135 0.25484948 14.25036259 2.06309187 16.73721313 5.54870605 C19.02588346 9.99142229 18.73633488 14.38264853 18.5859375 19.28125 C18.57744781 20.33534058 18.56895813 21.38943115 18.56021118 22.47546387 C18.52682007 25.81804788 18.4515639 29.15815425 18.375 32.5 C18.3448821 34.77600665 18.31750951 37.05205139 18.29296875 39.328125 C18.22707621 44.88625156 18.126872 50.44294873 18 56 C17.67 56 17.34 56 17 56 C16.98018066 54.80511963 16.96036133 53.61023926 16.93994141 52.37915039 C16.86340318 47.91166446 16.77476311 43.44448392 16.68261719 38.97729492 C16.64452546 37.05027329 16.60963943 35.12318534 16.578125 33.19604492 C16.53204109 30.41300889 16.47412185 27.63042169 16.4140625 24.84765625 C16.40251129 23.99728287 16.39096008 23.14690948 16.37905884 22.27076721 C16.3039937 12.45985873 16.3039937 12.45985873 12.203125 3.98046875 C9.64068604 2.84009255 7.54594713 2.49644389 4.75 2.3125 C3.85796875 2.24675781 2.9659375 2.18101563 2.046875 2.11328125 C1.37140625 2.07589844 0.6959375 2.03851563 0 2 C0 1.34 0 0.68 0 0 Z " fill="#020715" transform="translate(102,67)"/>
<path d="M0 0 C0.66 0 1.32 0 2 0 C-0.01377267 7.04820435 -3.54687443 12.12088765 -9 17 C-9.66 17 -10.32 17 -11 17 C-11 17.66 -11 18.32 -11 19 C-15.0527516 19.98248524 -18.83861737 20.08159574 -23 20 C-23.33 21.65 -23.66 23.3 -24 25 C-24.66 25 -25.32 25 -26 25 C-26.66 26.32 -27.32 27.64 -28 29 C-28.66 28.67 -29.32 28.34 -30 28 C-24.96005075 18.67695394 -24.96005075 18.67695394 -20.296875 17.06640625 C-18.39369146 16.81420843 -16.48713832 16.58623195 -14.578125 16.3828125 C-10.65503972 15.80029378 -8.32971785 14.06577363 -6 11 C-3.81602417 7.41888489 -1.85695011 3.75999473 0 0 Z " fill="#040C1B" transform="translate(177,123)"/>
<path d="M0 0 C0.125 6.75 0.125 6.75 -1 9 C-1.66 8.67 -2.32 8.34 -3 8 C-3 6.35 -3 4.7 -3 3 C-3.71027344 3.165 -4.42054687 3.33 -5.15234375 3.5 C-8.03968615 4.00696821 -10.63617251 4.06511994 -13.5625 4 C-18.36649403 3.89307618 -18.36649403 3.89307618 -23 5 C-24.28436734 6.9837767 -24.28436734 6.9837767 -25 9 C-25 6.69 -25 4.38 -25 2 C-21.39603546 1.66445694 -17.79179755 1.33194526 -14.1875 1 C-13.16333984 0.90460937 -12.13917969 0.80921875 -11.08398438 0.7109375 C-9.60961914 0.57558594 -9.60961914 0.57558594 -8.10546875 0.4375 C-7.19949951 0.35371094 -6.29353027 0.26992188 -5.36010742 0.18359375 C-3 0 -3 0 0 0 Z " fill="#081322" transform="translate(96,49)"/>
<path d="M0 0 C0.66 0.33 1.32 0.66 2 1 C-4.57946086 10.91401051 -11.24528661 18.72409627 -23 22 C-26.5 22.1875 -26.5 22.1875 -29 22 C-28.67 21.34 -28.34 20.68 -28 20 C-26.00116131 19.65977214 -24.00109278 19.32670903 -22 19 C-21.34 18.34 -20.68 17.68 -20 17 C-19.01 17 -18.02 17 -17 17 C-9.65056866 12.68620334 -4.90804367 6.79705017 0 0 Z " fill="#030B1B" transform="translate(191,138)"/>
<path d="M0 0 C3.96 0.99 3.96 0.99 8 2 C8 2.66 8 3.32 8 4 C6.35 4.66 4.7 5.32 3 6 C3.66 6.33 4.32 6.66 5 7 C5 7.99 5 8.98 5 10 C3.35 10.66 1.7 11.32 0 12 C0 13.65 0 15.3 0 17 C-0.66 17.33 -1.32 17.66 -2 18 C-1.85805236 15.93722893 -1.71127784 13.87478969 -1.5625 11.8125 C-1.48128906 10.66394531 -1.40007812 9.51539062 -1.31640625 8.33203125 C-1.04596188 5.48401829 -0.62478253 2.78789518 0 0 Z " fill="#061122" transform="translate(2,103)"/>
<path d="M0 0 C3.07275391 -0.34057617 3.07275391 -0.34057617 6.9765625 -0.29296875 C7.66181 -0.28872391 8.3470575 -0.28447906 9.05307007 -0.28010559 C11.24411129 -0.26329753 13.43423632 -0.22564405 15.625 -0.1875 C17.10936173 -0.17245579 18.59373785 -0.15876693 20.078125 -0.14648438 C23.71904833 -0.1133879 27.35943478 -0.06159207 31 0 C30.34 1.32 29.68 2.64 29 4 C28.34 3.67 27.68 3.34 27 3 C24.82175039 2.91440882 22.64084745 2.89286588 20.4609375 2.90234375 C18.50800781 2.90717773 18.50800781 2.90717773 16.515625 2.91210938 C15.13541601 2.92046534 13.75520768 2.92893029 12.375 2.9375 C10.98698074 2.94251499 9.59895978 2.9470779 8.2109375 2.95117188 C4.80724868 2.96299024 1.40364561 2.97946566 -2 3 C-1.34 2.01 -0.68 1.02 0 0 Z " fill="#050A18" transform="translate(282,50)"/>
<path d="M0 0 C0.79970215 -0.00064453 1.5994043 -0.00128906 2.42333984 -0.00195312 C7.9598808 0.04767161 12.91724697 0.60742503 18.25 2.1875 C18.25 2.8475 18.25 3.5075 18.25 4.1875 C16.6 4.5175 14.95 4.8475 13.25 5.1875 C13.25 4.5275 13.25 3.8675 13.25 3.1875 C4.67 3.1875 -3.91 3.1875 -12.75 3.1875 C-13.08 2.5275 -13.41 1.8675 -13.75 1.1875 C-9.15535578 0.03883895 -4.70503804 -0.00388605 0 0 Z " fill="#070D1C" transform="translate(33.75,48.8125)"/>
<path d="M0 0 C0.66 0.33 1.32 0.66 2 1 C1.3503125 1.98742187 0.700625 2.97484375 0.03125 3.9921875 C-0.81273833 5.28630293 -1.65647535 6.58058229 -2.5 7.875 C-2.92925781 8.52597656 -3.35851562 9.17695313 -3.80078125 9.84765625 C-6.17981963 13.15035075 -6.17981963 13.15035075 -7 17 C-8 18 -9 19 -10 20 C-10.33 20.99 -10.66 21.98 -11 23 C-11.66 23 -12.32 23 -13 23 C-13.99 25.475 -13.99 25.475 -15 28 C-15.99 28 -16.98 28 -18 28 C-12.15287766 18.55833525 -6.23328126 9.19321929 0 0 Z " fill="#030A1A" transform="translate(254,9)"/>
<path d="M0 0 C1.5 1.375 1.5 1.375 3 3 C3 3.66 3 4.32 3 5 C3.66 5 4.32 5 5 5 C5.66 7.31 6.32 9.62 7 12 C9.88167681 12.80652508 12.56031547 13.17515006 15.546875 13.31640625 C16.39121094 13.35830078 17.23554688 13.40019531 18.10546875 13.44335938 C19.41451172 13.50233398 19.41451172 13.50233398 20.75 13.5625 C21.63816406 13.60568359 22.52632813 13.64886719 23.44140625 13.69335938 C25.62745963 13.79913615 27.81362089 13.90122546 30 14 C30 14.33 30 14.66 30 15 C19.11 15.495 19.11 15.495 8 16 C6.68 13.916875 5.36 11.83375 4 9.6875 C3.58234375 9.03612061 3.1646875 8.38474121 2.734375 7.71362305 C0 3.33333333 0 3.33333333 0 0 Z " fill="#061325" transform="translate(274,108)"/>
<path d="M0 0 C0.66 0.33 1.32 0.66 2 1 C1.25828891 6.26870634 -0.10909615 11.26976631 -1.5625 16.375 C-1.79646484 17.20644531 -2.03042969 18.03789063 -2.27148438 18.89453125 C-2.84482798 20.93048609 -3.4220244 22.96535527 -4 25 C-4.99 25 -5.98 25 -7 25 C-6.32628506 21.182282 -5.22461522 17.67384565 -4 14 C-3.27982843 11.5451086 -2.57169534 9.08665686 -1.875 6.625 C-1.34519531 4.75714844 -1.34519531 4.75714844 -0.8046875 2.8515625 C-0.53914062 1.91054687 -0.27359375 0.96953125 0 0 Z " fill="#040B1B" transform="translate(195,76)"/>
<path d="M0 0 C8.9944169 2.56091037 18.15700845 6.44877643 23 15 C22.67 15.99 22.34 16.98 22 18 C21.443125 17.278125 20.88625 16.55625 20.3125 15.8125 C16.05008738 10.62848466 12.39252526 7.38261198 6.1875 4.6875 C5.02605469 4.17574219 3.86460938 3.66398437 2.66796875 3.13671875 C1.78753906 2.76160156 0.90710937 2.38648437 0 2 C0 1.34 0 0.68 0 0 Z " fill="#040A1A" transform="translate(36,77)"/>
<path d="M0 0 C0.33 0 0.66 0 1 0 C1 15.51 1 31.02 1 47 C0.67 47 0.34 47 0 47 C0 32.81 0 18.62 0 4 C-0.66 4 -1.32 4 -2 4 C-1.34 2.68 -0.68 1.36 0 0 Z " fill="#0C121F" transform="translate(260,0)"/>
<path d="M0 0 C1.85625 -0.00386719 1.85625 -0.00386719 3.75 -0.0078125 C7 0.125 7 0.125 10 1.125 C10 1.785 10 2.445 10 3.125 C3.33333333 3.125 -3.33333333 3.125 -10 3.125 C-10 2.465 -10 1.805 -10 1.125 C-6.49904689 -0.04198437 -3.6877768 -0.00768287 0 0 Z " fill="#060F1D" transform="translate(120,48.875)"/>
<path d="M0 0 C0.66 0 1.32 0 2 0 C3.33912585 3.12254943 4.67030658 6.24842358 6 9.375 C6.3815625 10.26445313 6.763125 11.15390625 7.15625 12.0703125 C7.5171875 12.92109375 7.878125 13.771875 8.25 14.6484375 C8.58515625 15.43395996 8.9203125 16.21948242 9.265625 17.02880859 C10 19 10 19 10 21 C9.34 21 8.68 21 8 21 C6.66087415 17.87745057 5.32969342 14.75157642 4 11.625 C3.6184375 10.73554687 3.236875 9.84609375 2.84375 8.9296875 C2.30234375 7.65351562 2.30234375 7.65351562 1.75 6.3515625 C1.41484375 5.56604004 1.0796875 4.78051758 0.734375 3.97119141 C0 2 0 2 0 0 Z " fill="#030B1A" transform="translate(149,55)"/>
<path d="M0 0 C0.66 0 1.32 0 2 0 C1.85805236 2.06277107 1.71127784 4.12521031 1.5625 6.1875 C1.48128906 7.33605469 1.40007813 8.48460937 1.31640625 9.66796875 C1.04596188 12.51598171 0.62478253 15.21210482 0 18 C-1.32 17.67 -2.64 17.34 -4 17 C-4 16.34 -4 15.68 -4 15 C-3.34 15 -2.68 15 -2 15 C-1.34 10.05 -0.68 5.1 0 0 Z " fill="#060C1B" transform="translate(56,53)"/>
<path d="M0 0 C0.66 0.66 1.32 1.32 2 2 C0.98679687 2.45439453 0.98679687 2.45439453 -0.046875 2.91796875 C-5.95942317 5.69481579 -9.98907646 7.97815292 -13 14 C-13.66 14 -14.32 14 -15 14 C-13.64000133 8.39000551 -9.44974971 5.30115275 -5 2 C-2 0.5625 -2 0.5625 0 0 Z " fill="#020916" transform="translate(18,51)"/>
<path d="M0 0 C3.00140922 3.71045773 5.89335474 7.48963648 8.75 11.3125 C9.16121094 11.86228516 9.57242187 12.41207031 9.99609375 12.97851562 C10.99813666 14.31845673 11.99917397 15.65914974 13 17 C12.34 17.66 11.68 18.32 11 19 C9.15527264 16.40373357 7.32626878 13.79677591 5.5 11.1875 C4.97535156 10.44951172 4.45070313 9.71152344 3.91015625 8.95117188 C3.41386719 8.23896484 2.91757812 7.52675781 2.40625 6.79296875 C1.94541016 6.1383667 1.48457031 5.48376465 1.00976562 4.80932617 C0 3 0 3 0 0 Z " fill="#020916" transform="translate(300,104)"/>
<path d="M0 0 C2.8842454 0.34485543 3.8207818 0.78255407 5.703125 3.06640625 C6.21359375 3.89011719 6.7240625 4.71382813 7.25 5.5625 C7.77078125 6.38878906 8.2915625 7.21507813 8.828125 8.06640625 C9.21484375 8.70449219 9.6015625 9.34257813 10 10 C7 10 7 10 4.5 7.6875 C3.675 6.800625 2.85 5.91375 2 5 C1.401875 4.401875 0.80375 3.80375 0.1875 3.1875 C-0.204375 2.795625 -0.59625 2.40375 -1 2 C-0.67 1.34 -0.34 0.68 0 0 Z " fill="#050F1F" transform="translate(290,93)"/>
<path d="M0 0 C5.28 0.99 10.56 1.98 16 3 C15.67 3.66 15.34 4.32 15 5 C9.39538469 4.57910004 4.27913453 4.08386889 -1 2 C-0.67 1.34 -0.34 0.68 0 0 Z " fill="#030B1A" transform="translate(3,120)"/>
<path d="M0 0 C1.2065625 0.0309375 1.2065625 0.0309375 2.4375 0.0625 C1.7775 1.3825 1.1175 2.7025 0.4375 4.0625 C-0.5525 3.7325 -1.5425 3.4025 -2.5625 3.0625 C-2.7790625 4.733125 -2.7790625 4.733125 -3 6.4375 C-3.5625 10.0625 -3.5625 10.0625 -4.5625 12.0625 C-5.2225 12.0625 -5.8825 12.0625 -6.5625 12.0625 C-6.08744322 10.24891846 -5.60733958 8.43665821 -5.125 6.625 C-4.85816406 5.61566406 -4.59132812 4.60632812 -4.31640625 3.56640625 C-3.2665785 0.07967265 -3.2665785 0.07967265 0 0 Z " fill="#040D1A" transform="translate(206.5625,49.9375)"/>
<path d="M0 0 C-0.51949219 0.30292969 -1.03898437 0.60585938 -1.57421875 0.91796875 C-5.97824341 3.56363976 -9.53276778 6.20771476 -13 10 C-13.66 9.67 -14.32 9.34 -15 9 C-11.41993798 3.98791317 -6.62447547 -2.35343207 0 0 Z " fill="#030B1D" transform="translate(109,53)"/>
<path d="M0 0 C0.66 0.33 1.32 0.66 2 1 C0.57391198 3.00907998 -0.86466032 5.00669514 -2.3125 7 C-2.71662109 7.57234375 -3.12074219 8.1446875 -3.53710938 8.734375 C-4.61900525 10.21208644 -5.80455549 11.61254109 -7 13 C-7.99 13 -8.98 13 -10 13 C-5.05 6.565 -5.05 6.565 0 0 Z " fill="#020919" transform="translate(279,54)"/>
<path d="M0 0 C1.5 1.375 1.5 1.375 3 3 C3 3.66 3 4.32 3 5 C3.66 5 4.32 5 5 5 C5.99 7.64 6.98 10.28 8 13 C4.35812142 11.78604047 4.08254007 10.90993923 2.3125 7.625 C1.87550781 6.83351563 1.43851562 6.04203125 0.98828125 5.2265625 C0 3 0 3 0 0 Z " fill="#030B18" transform="translate(274,108)"/>
<path d="M0 0 C0.99 0 1.98 0 3 0 C3.125 6.75 3.125 6.75 2 9 C1.34 8.67 0.68 8.34 0 8 C0.33 6.02 0.66 4.04 1 2 C0.34 1.67 -0.32 1.34 -1 1 C-0.67 0.67 -0.34 0.34 0 0 Z " fill="#040A19" transform="translate(93,49)"/>
<path d="M0 0 C2.64 0.66 5.28 1.32 8 2 C8 2.66 8 3.32 8 4 C5.36 3.67 2.72 3.34 0 3 C0 2.01 0 1.02 0 0 Z " fill="#020713" transform="translate(2,103)"/>
<path d="M0 0 C0.66 0.66 1.32 1.32 2 2 C0.02 4.31 -1.96 6.62 -4 9 C-4 5.00095031 -2.27413033 3.19799578 0 0 Z " fill="#020B17" transform="translate(268,68)"/>
<path d="M0 0 C1.98 0.99 1.98 0.99 4 2 C3.34 3.98 2.68 5.96 2 8 C0.23537317 4.91190305 0 3.76687864 0 0 Z " fill="#081421" transform="translate(2,65)"/>
<path d="M0 0 C2.31 0 4.62 0 7 0 C7 0.99 7 1.98 7 3 C4.625 3.1875 4.625 3.1875 2 3 C1.34 2.01 0.68 1.02 0 0 Z " fill="#030E33" transform="translate(168,50)"/>
</svg>
