<?xml version="1.0" encoding="UTF-8"?>
<svg version="1.1" xmlns="http://www.w3.org/2000/svg" width="666" height="375">
<path d="M0 0 C0.75539063 -0.02835938 1.51078125 -0.05671875 2.2890625 -0.0859375 C4.375 -0.0625 4.375 -0.0625 8 1 C12.05181682 7.0876429 13.70982175 15.1232671 15.75 22.0625 C16.06582031 23.11888672 16.38164062 24.17527344 16.70703125 25.26367188 C17.47670395 27.84090925 18.24089912 30.41963305 19 33 C19.15557373 32.45698242 19.31114746 31.91396484 19.47143555 31.35449219 C26.13576493 8.23844034 26.13576493 8.23844034 30 1 C33.26610577 -0.63305288 36.85263227 -0.14276152 40.4375 -0.125 C41.60249023 -0.13080078 41.60249023 -0.13080078 42.79101562 -0.13671875 C46.11081172 -0.13099989 48.82993506 -0.05668831 52 1 C52.0154612 1.8544445 52.0154612 1.8544445 52.03123474 2.72615051 C52.13929277 8.64705908 52.25389145 14.56781525 52.37231445 20.48852539 C52.41566552 22.69910498 52.45734046 24.90971809 52.49731445 27.12036133 C52.55501266 30.29518749 52.61870862 33.46984486 52.68359375 36.64453125 C52.70030624 37.63524124 52.71701874 38.62595123 52.73423767 39.64668274 C52.7641555 41.02777473 52.7641555 41.02777473 52.79467773 42.43676758 C52.81799416 43.65255241 52.81799416 43.65255241 52.84178162 44.89289856 C52.92809721 47.19146683 52.92809721 47.19146683 54 50 C57.54947683 40.52772751 61.03662847 31.05083157 64.1875 21.4375 C69.51168386 5.23247421 69.51168386 5.23247421 73 0 C74.83178711 -0.38818359 74.83178711 -0.38818359 77.02734375 -0.3984375 C77.81947266 -0.40230469 78.61160156 -0.40617188 79.42773438 -0.41015625 C80.25595703 -0.39855469 81.08417969 -0.38695312 81.9375 -0.375 C82.76185547 -0.38660156 83.58621094 -0.39820313 84.43554688 -0.41015625 C85.62567383 -0.40435547 85.62567383 -0.40435547 86.83984375 -0.3984375 C87.56550537 -0.39505371 88.29116699 -0.39166992 89.03881836 -0.38818359 C91.5748753 0.11378709 92.42546204 0.97856251 94 3 C94.87948363 5.52741972 95.62745386 7.98348567 96.3125 10.5625 C96.74203668 12.09712795 97.17442824 13.63095911 97.609375 15.1640625 C97.94678711 16.35563965 97.94678711 16.35563965 98.29101562 17.57128906 C101.08410848 27.13936334 104.26272373 36.674872 108.140625 45.859375 C109.21485818 48.5351922 110.09621099 51.26251728 111 54 C110.99555878 53.35298126 110.99111755 52.70596252 110.98654175 52.03933716 C110.94240075 45.32393597 110.91217212 38.60857578 110.89013672 31.89306641 C110.88005989 29.38458585 110.86639821 26.87611708 110.84912109 24.36767578 C110.82494663 20.76852512 110.81353388 17.16952933 110.8046875 13.5703125 C110.79436493 12.44319855 110.78404236 11.31608459 110.77340698 10.15481567 C110.77325592 9.11388763 110.77310486 8.07295959 110.77294922 7.00048828 C110.768508 6.08115509 110.76406677 5.1618219 110.75949097 4.21463013 C111 2 111 2 113 0 C117.51368618 -0.33791415 122.04233078 -0.03912112 126.5625 0.125 C127.81353516 0.14820313 129.06457031 0.17140625 130.35351562 0.1953125 C138.16157412 0.45818243 145.46652175 1.04514413 151.57617188 6.375 C156.70351103 12.02463625 157.43340495 17.91965245 157.234375 25.25390625 C156.79348665 30.41964804 156.00948949 34.19908028 152.04296875 37.75390625 C145.24542461 42.55966574 139.29628001 44.09853064 131 44 C131.01160156 45.28777344 131.02320313 46.57554687 131.03515625 47.90234375 C131.0445327 49.58072772 131.05363305 51.25911326 131.0625 52.9375 C131.07087891 53.78763672 131.07925781 54.63777344 131.08789062 55.51367188 C131.09111328 56.32255859 131.09433594 57.13144531 131.09765625 57.96484375 C131.10289307 58.7137085 131.10812988 59.46257324 131.11352539 60.23413086 C131 62 131 62 130 63 C127.35713726 63.11336626 124.74138544 63.16417761 122.09765625 63.16796875 C121.30475693 63.17129715 120.5118576 63.17462555 119.69493103 63.17805481 C118.01448142 63.18312726 116.33402171 63.18546304 114.65356445 63.18530273 C112.07681741 63.18748786 109.50049924 63.20563609 106.92382812 63.22460938 C105.2942723 63.22754345 103.66471444 63.22952815 102.03515625 63.23046875 C100.87416161 63.24124702 100.87416161 63.24124702 99.68971252 63.25224304 C94.22882253 63.22882253 94.22882253 63.22882253 92 61 C90.81395705 57.37658439 89.94557683 53.69634578 89 50 C84.38 50 79.76 50 75 50 C74.71125 51.216875 74.4225 52.43375 74.125 53.6875 C72.405 60.42416667 72.405 60.42416667 71 63 C67.48226226 64.32928339 63.87009905 64.12936626 60.15234375 64.1328125 C59.49923721 64.13376923 58.84613068 64.13472595 58.17323303 64.13571167 C56.79737247 64.1363901 55.42150865 64.13455939 54.0456543 64.13037109 C51.94117046 64.12500935 49.83689919 64.13033187 47.73242188 64.13671875 C46.3932287 64.13605808 45.05403565 64.13477714 43.71484375 64.1328125 C41.89134399 64.13112061 41.89134399 64.13112061 40.03100586 64.12939453 C37 64 37 64 34 63 C33.82869656 61.47968196 33.66322927 59.9587061 33.5 58.4375 C33.4071875 57.59058594 33.314375 56.74367187 33.21875 55.87109375 C32.96742739 52.57248453 32.96729885 49.3069039 33 46 C32.47599609 47.58941406 32.47599609 47.58941406 31.94140625 49.2109375 C31.48185012 50.59898459 31.02221036 51.98700399 30.5625 53.375 C30.33240234 54.07367188 30.10230469 54.77234375 29.86523438 55.4921875 C28.11328125 60.7734375 28.11328125 60.7734375 27 63 C21.27461084 64.26134052 15.71403464 64.1179633 10 63 C5.40774487 51.47835991 5.40774487 51.47835991 6 46 C5.34 46 4.68 46 4 46 C4.12568359 46.96099609 4.12568359 46.96099609 4.25390625 47.94140625 C4.35574219 48.80636719 4.45757812 49.67132813 4.5625 50.5625 C4.66691406 51.40941406 4.77132813 52.25632813 4.87890625 53.12890625 C5.0220911 56.52377297 4.55818459 59.65502719 4 63 C1.18743719 63.02684312 -1.62487241 63.04676188 -4.4375 63.0625 C-5.23994141 63.07087891 -6.04238281 63.07925781 -6.86914062 63.08789062 C-8.91295221 63.0965143 -10.95683902 63.0522815 -13 63 C-14 62 -14 62 -14.12025452 59.60191345 C-14.11803391 58.53824051 -14.11581329 57.47456757 -14.11352539 56.37866211 C-14.11344986 55.17749252 -14.11337433 53.97632294 -14.11329651 52.73875427 C-14.10813522 51.4314888 -14.10297394 50.12422333 -14.09765625 48.77734375 C-14.09579198 47.43355868 -14.09436812 46.08977293 -14.09336853 44.74598694 C-14.08954402 41.20317723 -14.07971432 37.6604083 -14.06866455 34.11761475 C-14.05844899 30.50484773 -14.0538706 26.89207416 -14.04882812 23.27929688 C-14.03809198 16.1861812 -14.02101636 9.09309326 -14 2 C-9.2235981 -0.53581463 -5.3183534 -0.20762341 0 0 Z M132 18 C130.79438816 18.98267859 130.79438816 18.98267859 130.90234375 20.84765625 C130.91394531 21.57855469 130.92554688 22.30945313 130.9375 23.0625 C130.958125 24.361875 130.97875 25.66125 131 27 C133.35964273 26.59316505 134.85934088 26.10185661 136.8125 24.6875 C138.26058137 23.03926569 138.26058137 23.03926569 137.6875 20.8125 C137.3471875 19.9153125 137.3471875 19.9153125 137 19 C135.34385343 18.61781233 133.67542976 18.28604898 132 18 Z M81 27 C80.67 28.98 80.34 30.96 80 33 C80.99 33 81.98 33 83 33 C83 31.35 83 29.7 83 28 C82.34 27.67 81.68 27.34 81 27 Z M52 52 C53 55 53 55 53 55 Z " fill="#AEBED1" transform="translate(355,153)"/>
<path d="M0 0 C1.32 0.99 2.64 1.98 4 3 C3.34 6.3 2.68 9.6 2 13 C1.34 13 0.68 13 0 13 C-0.495 15.475 -0.495 15.475 -1 18 C-3.1875 18.6875 -3.1875 18.6875 -6 19 C-6.763125 18.525625 -7.52625 18.05125 -8.3125 17.5625 C-12.06453635 15.38108352 -14.70397979 15.78155829 -19 16 C-17.03617993 17.50559539 -15.21736634 18.89131683 -13 20 C-12.67 19.01 -12.34 18.02 -12 17 C-10 19 -10 19 -10 22 C-8.10080824 23.55566706 -8.10080824 23.55566706 -5.6875 24.9375 C-2.34423759 26.95637827 -0.17707316 28.73791304 2 32 C2.14695312 30.53240234 2.14695312 30.53240234 2.296875 29.03515625 C3.47405324 18.71455048 4.8967971 9.79268446 12.91015625 2.5078125 C21.23583053 -3.49912259 31.04822051 -4.18920635 41 -3 C47.81718535 -1.23720379 53.62179101 1.35119201 57.890625 7.1015625 C63.62774418 16.91930871 64.76686341 29.628723 62.43359375 40.68359375 C61.6875 42.6875 61.6875 42.6875 60 46 C59.505 47.11375 59.01 48.2275 58.5 49.375 C57 52 57 52 54 54 C54.49217494 58.3462833 55.7494278 60.18482491 58.9375 63.125 C61.36150932 65.38623556 63.14627924 67.21941886 65 70 C65 70.99 65 71.98 65 73 C60.97810055 74.34063315 57.27337478 74.18417125 53.0625 74.1875 C51.84530273 74.20586914 51.84530273 74.20586914 50.60351562 74.22460938 C49.81783203 74.22654297 49.03214844 74.22847656 48.22265625 74.23046875 C47.15156616 74.23663208 47.15156616 74.23663208 46.05883789 74.24291992 C42.50928509 73.82411226 40.4711797 72.51331772 38.078125 69.90625 C37.47484375 69.1121875 36.8715625 68.318125 36.25 67.5 C35.63640625 66.7059375 35.0228125 65.911875 34.390625 65.09375 C33 63 33 63 33 61 C32.39414063 60.98582031 31.78828125 60.97164062 31.1640625 60.95703125 C23.28531787 60.50854886 16.53597162 58.60786753 10.88671875 52.84375 C7.84722106 49.06797648 5.67155369 45.56462738 4 41 C4.0825 41.86625 4.165 42.7325 4.25 43.625 C3.8624346 48.85713292 1.39063176 51.75199714 -2.4375 55.1875 C-9.90842824 60.4718151 -15.91204226 61.72603519 -25 61 C-35.43147208 59.04568528 -35.43147208 59.04568528 -40 56 C-40.24905022 53.24858808 -40.32673572 50.74330188 -40.25 48 C-40.24484375 47.26265625 -40.2396875 46.5253125 -40.234375 45.765625 C-40.15472274 40.30944549 -40.15472274 40.30944549 -39 38 C-35.85874304 38.4908214 -33.158565 39.32926844 -30.25 40.5625 C-25.80311576 42.31070258 -21.71916946 42.29494809 -17 42 C-16.67 41.34 -16.34 40.68 -16 40 C-16.78375 39.79375 -17.5675 39.5875 -18.375 39.375 C-25.40675897 36.70778108 -33.83193895 32.54981023 -38 26 C-39.99513455 20.40434356 -40.70069541 14.73984701 -39 9 C-35.96046492 3.06673779 -32.14577453 -0.24532065 -25.83984375 -2.37890625 C-17.16613975 -4.27590616 -8.13854594 -3.64211172 0 0 Z M26 16 C22.37127077 21.96148373 22.28125375 28.14857473 23 35 C24.57291323 39.67559801 24.57291323 39.67559801 28 43 C32.34060347 43.98013627 34.73498354 44.49500644 38.875 42.875 C42.21189907 39.93067729 42.89571538 37.03678312 43.3359375 32.66015625 C43.6297475 23.45494055 43.6297475 23.45494055 39 16 C34.82503231 13.2166882 30.10569992 12.74375523 26 16 Z " fill="#A8C3D4" transform="translate(211,156)"/>
<path d="M0 0 C6.62602299 4.16868996 10.33643379 9.98993812 12.375 17.4375 C12.78753412 20.43112819 12.8527313 23.35604343 12.8125 26.375 C12.80565186 27.16551758 12.79880371 27.95603516 12.79174805 28.77050781 C12.54191757 37.83926069 9.58458037 43.90109962 3.375 50.4375 C2.385 50.9325 2.385 50.9325 1.375 51.4375 C1.84880944 55.70178496 4.41397727 57.55240093 7.375 60.4375 C7.375 61.0975 7.375 61.7575 7.375 62.4375 C8.035 62.4375 8.695 62.4375 9.375 62.4375 C10.035 64.0875 10.695 65.7375 11.375 67.4375 C6.51819126 68.19331462 2.20550856 68.45817231 -2.625 67.4375 C-5.15900366 65.02657652 -6.95695799 62.70402219 -8.93286133 59.85986328 C-10.98576907 57.04303416 -12.25456523 55.56634688 -15.58984375 54.40625 C-17.63206041 54.17962318 -19.67809667 53.98483111 -21.7265625 53.82421875 C-26.63967168 53.1686961 -30.10149631 50.8385097 -33.625 47.4375 C-39.98667633 38.77219507 -40.26627099 29.91936579 -39.625 19.4375 C-38.30703999 12.34957336 -34.90796621 6.611034 -29.75 1.625 C-21.88000101 -2.77294061 -8.38595662 -3.77935762 0 0 Z M-20.625 13.4375 C-24.25372923 19.39898373 -24.34374625 25.58607473 -23.625 32.4375 C-22.05208677 37.11309801 -22.05208677 37.11309801 -18.625 40.4375 C-14.28439653 41.41763627 -11.89001646 41.93250644 -7.75 40.3125 C-4.41310093 37.36817729 -3.72928462 34.47428312 -3.2890625 30.09765625 C-2.9952525 20.89244055 -2.9952525 20.89244055 -7.625 13.4375 C-11.79996769 10.6541882 -16.51930008 10.18125523 -20.625 13.4375 Z " fill="#081B47" transform="translate(257.625,158.5625)"/>
<path d="M0 0 C5.28 0 10.56 0 16 0 C20.54035414 13.22433244 24.94736762 26.34348674 28 40 C28.66 40 29.32 40 30 40 C30.11335693 39.00798584 30.22671387 38.01597168 30.34350586 36.99389648 C30.93498642 32.87626444 32.15619727 29.02261114 33.50390625 25.09765625 C33.86801857 24.01380898 33.86801857 24.01380898 34.23948669 22.9080658 C35.00815927 20.62425181 35.7851734 18.34338111 36.5625 16.0625 C37.08844682 14.50474497 37.6138429 12.94680388 38.13867188 11.38867188 C39.41841373 7.5898805 40.70942212 3.79519196 42 0 C47.28 0 52.56 0 58 0 C58 18.15 58 36.3 58 55 C54.7 55 51.4 55 48 55 C47.67 41.8 47.34 28.6 47 15 C43.13755313 26.66638449 43.13755313 26.66638449 39.28173828 38.33496094 C38.79483581 39.80151181 38.30770897 41.26798823 37.8203125 42.734375 C37.44700806 43.86963623 37.44700806 43.86963623 37.06616211 45.02783203 C35.90321855 48.51781755 34.6505182 51.69896361 33 55 C29.7 55 26.4 55 23 55 C21.77256042 51.05325636 20.54578417 47.1063073 19.31958008 43.15917969 C18.90373964 41.82090909 18.48772874 40.48269145 18.0715332 39.14453125 C17.46779505 37.2032697 16.86470333 35.26180824 16.26171875 33.3203125 C15.90037842 32.15773926 15.53903809 30.99516602 15.16674805 29.79736328 C13.75572711 25.20497583 12.3804966 20.60165532 11 16 C10.67 28.54 10.34 41.08 10 54 C6.7 54 3.4 54 0 54 C0 36.18 0 18.36 0 0 Z " fill="#071947" transform="translate(345,158)"/>
<path d="M0 0 C1.1127832 -0.01836914 1.1127832 -0.01836914 2.24804688 -0.03710938 C4.18763629 -0.04238478 6.1267371 0.06561098 8.0625 0.1875 C10.0625 2.1875 10.0625 2.1875 10.30300903 4.09841919 C10.2963472 5.26424026 10.2963472 5.26424026 10.28955078 6.45361328 C10.28939972 7.33437531 10.28924866 8.21513733 10.28909302 9.12258911 C10.27877045 10.07471283 10.26844788 11.02683655 10.2578125 12.0078125 C10.2549826 12.98160858 10.25215271 13.95540466 10.24923706 14.95870972 C10.23801913 18.07676349 10.2129117 21.19453268 10.1875 24.3125 C10.17747228 26.42317294 10.16834607 28.53385038 10.16015625 30.64453125 C10.13807458 35.82561835 10.10458129 41.00653885 10.0625 46.1875 C10.62235596 46.1467334 11.18221191 46.1059668 11.7590332 46.06396484 C14.29704146 45.88551731 16.83584878 45.72383235 19.375 45.5625 C20.69661133 45.46582031 20.69661133 45.46582031 22.04492188 45.3671875 C22.89248047 45.315625 23.74003906 45.2640625 24.61328125 45.2109375 C25.39356689 45.15856934 26.17385254 45.10620117 26.9777832 45.05224609 C29.0625 45.1875 29.0625 45.1875 32.0625 47.1875 C32.31140658 49.79805594 32.3897977 52.14844922 32.3125 54.75 C32.30734375 55.44802734 32.3021875 56.14605469 32.296875 56.86523438 C32.2166718 62.0333282 32.2166718 62.0333282 31.0625 63.1875 C28.10544679 63.27618299 25.17184944 63.30270296 22.21484375 63.28515625 C20.88520348 63.28303383 20.88520348 63.28303383 19.52870178 63.28086853 C16.68576746 63.27525215 13.84291069 63.26269691 11 63.25 C9.07747509 63.24498711 7.15494896 63.24042384 5.23242188 63.23632812 C0.50908451 63.22527741 -4.21419458 63.20800183 -8.9375 63.1875 C-9.82122043 57.12782817 -10.0842332 51.25189521 -10.0703125 45.1328125 C-10.07126923 44.19122284 -10.07222595 43.24963318 -10.07321167 42.2795105 C-10.07388876 40.29783053 -10.07206751 38.31614829 -10.06787109 36.33447266 C-10.06252826 33.3283989 -10.067826 30.32247535 -10.07421875 27.31640625 C-10.07355765 25.38020801 -10.07227583 23.44400986 -10.0703125 21.5078125 C-10.07334885 20.179207 -10.07334885 20.179207 -10.07644653 18.82376099 C-10.00702626 0.00864912 -10.00702626 0.00864912 0 0 Z " fill="#051745" transform="translate(286.9375,152.8125)"/>
<path d="M0 0 C4.62 0 9.24 0 14 0 C16.822789 6.91614601 19.39917674 13.86930348 21.8125 20.9375 C24.70722498 29.36694464 27.70349815 37.74666916 30.91723633 46.06030273 C32.26385253 49.62009114 33 52.14545698 33 56 C29.04 56 25.08 56 21 56 C20.32968281 54.0429132 19.66385317 52.08428887 19 50.125 C18.62875 49.03445312 18.2575 47.94390625 17.875 46.8203125 C17 44 17 44 17 42 C10.4 42 3.8 42 -3 42 C-3.7115625 44.908125 -3.7115625 44.908125 -4.4375 47.875 C-5.875 53.75 -5.875 53.75 -7 56 C-10.96 56 -14.92 56 -19 56 C-18.44571092 51.03659324 -17.35194865 46.87987164 -15.5 42.25 C-12.03187526 33.39052761 -9.09124738 24.36650567 -6.16015625 15.31738281 C-5.7940625 14.19944336 -5.42796875 13.08150391 -5.05078125 11.9296875 C-4.72762939 10.93179199 -4.40447754 9.93389648 -4.0715332 8.90576172 C-3 6 -3 6 0 0 Z M6 23 C5.67 24.98 5.34 26.96 5 29 C5.99 29 6.98 29 8 29 C8 27.35 8 25.7 8 24 C7.34 23.67 6.68 23.34 6 23 Z " fill="#071846" transform="translate(430,157)"/>
<path d="M0 0 C28.76470588 0 28.76470588 0 34.7578125 5.66015625 C38.7158115 10.92667404 38.87728943 16.64452546 38 23 C36.2681343 28.1955971 33.47532879 30.90169545 29 34 C22.9005115 36.46325497 19.07611533 36 12 36 C12 42.6 12 49.2 12 56 C8.04 56 4.08 56 0 56 C0 37.52 0 19.04 0 0 Z M17 14 C15.79438816 14.98267859 15.79438816 14.98267859 15.90234375 16.84765625 C15.91394531 17.57855469 15.92554688 18.30945313 15.9375 19.0625 C15.958125 20.361875 15.97875 21.66125 16 23 C18.35964273 22.59316505 19.85934088 22.10185661 21.8125 20.6875 C23.26058137 19.03926569 23.26058137 19.03926569 22.6875 16.8125 C22.3471875 15.9153125 22.3471875 15.9153125 22 15 C20.34385343 14.61781233 18.67542976 14.28604898 17 14 Z " fill="#0E204C" transform="translate(470,157)"/>
<path d="M0 0 C-0.55728913 3.34373475 -1.35173889 6.03312999 -3 9 C-3.928125 8.835 -4.85625 8.67 -5.8125 8.5 C-10.83425903 7.77818659 -15.93871543 7.70227738 -21 8 C-22.2685092 9.09857507 -22.2685092 9.09857507 -22.6875 11.6875 C-22.35391831 15.06239107 -22.35391831 15.06239107 -20.015625 16.58984375 C-17.38490031 18.15632073 -14.72554029 19.60535219 -12 21 C-2.31436242 25.99069112 -2.31436242 25.99069112 0 31 C0.79692036 36.0927006 0.47587532 40.54593652 -1.125 45.4375 C-4.18945352 49.62558647 -7.91141841 52.07879126 -13 53 C-28.32290768 53.90854185 -28.32290768 53.90854185 -35 50 C-35 46.37 -35 42.74 -35 39 C-33.96875 39.495 -32.9375 39.99 -31.875 40.5 C-25.82939528 42.80931207 -19.37329648 42.44967628 -13 42 C-11.71643292 40.9001201 -11.71643292 40.9001201 -11.4375 38.25 C-11.65101037 35.03599893 -11.65101037 35.03599893 -13.50390625 33.6328125 C-15.62192601 32.29816991 -17.76539034 31.12862887 -20 30 C-20.763125 29.60425781 -21.52625 29.20851562 -22.3125 28.80078125 C-24.19586472 27.84228313 -26.09646001 26.91777821 -28 26 C-28 25.34 -28 24.68 -28 24 C-28.61875 23.7525 -29.2375 23.505 -29.875 23.25 C-32.46278114 21.7277758 -32.91418361 20.7695493 -34 18 C-34.55301696 13.18085225 -34.64176869 8.58753309 -32.8125 4.0625 C-24.51264092 -5.38216723 -10.83843964 -5.3086235 0 0 Z " fill="#071946" transform="translate(210,160)"/>
<path d="M0 0 C3.8712766 1.97514112 5.91254715 4.57455873 7.5078125 8.65234375 C8.62899581 14.00021016 8.20341001 19.56819931 8 25 C10.49064888 25.68707555 12.37886292 26 15 26 C15 26.66 15 27.32 15 28 C15.66 28 16.32 28 17 28 C17.9327418 23.900639 18.28825262 19.87956712 18.5625 15.6875 C18.64628906 14.43324219 18.73007812 13.17898437 18.81640625 11.88671875 C18.90728516 10.45779297 18.90728516 10.45779297 19 9 C19.33 9 19.66 9 20 9 C20.8173956 30.04793674 20.8173956 30.04793674 13.375 39.5 C11 42 11 42 9 43 C9.47380944 47.26428496 12.03897727 49.11490093 15 52 C15 52.66 15 53.32 15 54 C15.66 54 16.32 54 17 54 C17.66 55.65 18.32 57.3 19 59 C14.14319126 59.75581462 9.83050856 60.02067231 5 59 C2.46840612 56.59136925 0.67102656 54.27992102 -1.29248047 51.43115234 C-3.42817721 48.48345049 -4.75017062 47.09117861 -8.2109375 45.828125 C-11.44866759 45.33585503 -11.44866759 45.33585503 -14.53125 45.2109375 C-17 45 -17 45 -19 43 C-18.34 43 -17.68 43 -17 43 C-17.495 41.515 -17.495 41.515 -18 40 C-17.01 39.505 -17.01 39.505 -16 39 C-16.66 37.68 -17.32 36.36 -18 35 C-17.01 34.505 -17.01 34.505 -16 34 C-16.433125 33.2265625 -16.433125 33.2265625 -16.875 32.4375 C-20.5360871 24.50514463 -21.23946606 16.50906457 -18.8125 8.125 C-15.33319827 -0.81047945 -8.78410962 -1.18177342 0 0 Z M-13 5 C-16.62872923 10.96148373 -16.71874625 17.14857473 -16 24 C-14.42708677 28.67559801 -14.42708677 28.67559801 -11 32 C-6.65939653 32.98013627 -4.26501646 33.49500644 -0.125 31.875 C3.21189907 28.93067729 3.89571538 26.03678312 4.3359375 21.66015625 C4.6297475 12.45494055 4.6297475 12.45494055 0 5 C-4.17496769 2.2166882 -8.89430008 1.74375523 -13 5 Z " fill="#0A1C48" transform="translate(250,167)"/>
<path d="M0 0 C0.75796875 -0.02964844 1.5159375 -0.05929688 2.296875 -0.08984375 C4.375 -0.0625 4.375 -0.0625 8 1 C12.05181682 7.0876429 13.70982175 15.1232671 15.75 22.0625 C16.06582031 23.11888672 16.38164062 24.17527344 16.70703125 25.26367188 C17.47670395 27.84090925 18.24089912 30.41963305 19 33 C19.15557373 32.45698242 19.31114746 31.91396484 19.47143555 31.35449219 C26.13576493 8.23844034 26.13576493 8.23844034 30 1 C33.26610577 -0.63305288 36.85263227 -0.14276152 40.4375 -0.125 C41.60249023 -0.13080078 41.60249023 -0.13080078 42.79101562 -0.13671875 C46.11081172 -0.13099989 48.82993506 -0.05668831 52 1 C52.0154612 1.8544445 52.0154612 1.8544445 52.03123474 2.72615051 C52.13929277 8.64705908 52.25389145 14.56781525 52.37231445 20.48852539 C52.41566552 22.69910498 52.45734046 24.90971809 52.49731445 27.12036133 C52.55501266 30.29518749 52.61870862 33.46984486 52.68359375 36.64453125 C52.70030624 37.63524124 52.71701874 38.62595123 52.73423767 39.64668274 C52.7641555 41.02777473 52.7641555 41.02777473 52.79467773 42.43676758 C52.81799416 43.65255241 52.81799416 43.65255241 52.84178162 44.89289856 C52.92809721 47.19146683 52.92809721 47.19146683 54 50 C54.19634033 49.44014404 54.39268066 48.88028809 54.5949707 48.3034668 C55.49199243 45.76159771 56.40207571 43.22459788 57.3125 40.6875 C57.62123047 39.80642578 57.92996094 38.92535156 58.24804688 38.01757812 C58.55419922 37.17001953 58.86035156 36.32246094 59.17578125 35.44921875 C59.45333252 34.66893311 59.73088379 33.88864746 60.0168457 33.0847168 C61.06804784 30.85570883 62.08899814 29.54541353 64 28 C64.66 28 65.32 28 66 28 C64.43889635 36.74218041 61.21518143 44.75983375 58 53 C57.34 52.34 56.68 51.68 56 51 C54.68 54.3 53.36 57.6 52 61 C50.68 60.67 49.36 60.34 48 60 C48 41.85 48 23.7 48 5 C42.72 5 37.44 5 32 5 C31.66355469 6.73056641 31.66355469 6.73056641 31.3203125 8.49609375 C29.69020241 15.83158916 27.21474604 22.93010089 24.875 30.0625 C24.4019611 31.51484938 23.92930174 32.96732244 23.45703125 34.41992188 C22.30905993 37.94805125 21.15596072 41.47447902 20 45 C19.34 45 18.68 45 18 45 C15.22255737 37.81588862 12.92703815 30.54748086 10.79736328 23.15209961 C9.67888245 19.27583448 8.50852159 15.43851515 7.1875 11.625 C6 8 6 8 6 5 C0.72 5 -4.56 5 -10 5 C-10 22.82 -10 40.64 -10 59 C-10.33 59 -10.66 59 -11 59 C-10.99777939 58.31761765 -10.99555878 57.63523529 -10.99327087 56.93217468 C-10.97118377 49.84354169 -10.95607901 42.75491844 -10.94506836 35.66625977 C-10.940033 33.01912031 -10.93320437 30.37198365 -10.92456055 27.72485352 C-10.91246021 23.92463493 -10.90676378 20.12445305 -10.90234375 16.32421875 C-10.89718246 15.13664474 -10.89202118 13.94907074 -10.88670349 12.72550964 C-10.88662796 11.62459488 -10.88655243 10.52368011 -10.88647461 9.3894043 C-10.884254 8.41899704 -10.88203339 7.44858978 -10.87974548 6.44877625 C-10.89663367 3.86124019 -10.89663367 3.86124019 -12 1 C-8.32041786 -0.83979107 -4.03712591 -0.10033792 0 0 Z M52 52 C53 55 53 55 53 55 Z " fill="#9DB3C6" transform="translate(355,153)"/>
<path d="M0 0 C1.1127832 -0.01836914 1.1127832 -0.01836914 2.24804688 -0.03710938 C4.18763629 -0.04238478 6.1267371 0.06561098 8.0625 0.1875 C10.0625 2.1875 10.0625 2.1875 10.30300903 4.09841919 C10.2963472 5.26424026 10.2963472 5.26424026 10.28955078 6.45361328 C10.28939972 7.33437531 10.28924866 8.21513733 10.28909302 9.12258911 C10.27877045 10.07471283 10.26844788 11.02683655 10.2578125 12.0078125 C10.2549826 12.98160858 10.25215271 13.95540466 10.24923706 14.95870972 C10.23801913 18.07676349 10.2129117 21.19453268 10.1875 24.3125 C10.17747228 26.42317294 10.16834607 28.53385038 10.16015625 30.64453125 C10.13807458 35.82561835 10.10458129 41.00653885 10.0625 46.1875 C10.62235596 46.1467334 11.18221191 46.1059668 11.7590332 46.06396484 C14.29704146 45.88551731 16.83584878 45.72383235 19.375 45.5625 C20.69661133 45.46582031 20.69661133 45.46582031 22.04492188 45.3671875 C22.89248047 45.315625 23.74003906 45.2640625 24.61328125 45.2109375 C25.39356689 45.15856934 26.17385254 45.10620117 26.9777832 45.05224609 C29.0625 45.1875 29.0625 45.1875 32.0625 47.1875 C32.31140658 49.79805594 32.3897977 52.14844922 32.3125 54.75 C32.30734375 55.44802734 32.3021875 56.14605469 32.296875 56.86523438 C32.2166718 62.0333282 32.2166718 62.0333282 31.0625 63.1875 C28.10544679 63.27618299 25.17184944 63.30270296 22.21484375 63.28515625 C20.88520348 63.28303383 20.88520348 63.28303383 19.52870178 63.28086853 C16.68576746 63.27525215 13.84291069 63.26269691 11 63.25 C9.07747509 63.24498711 7.15494896 63.24042384 5.23242188 63.23632812 C0.50908451 63.22527741 -4.21419458 63.20800183 -8.9375 63.1875 C-9.82122043 57.12782817 -10.0842332 51.25189521 -10.0703125 45.1328125 C-10.07126923 44.19122284 -10.07222595 43.24963318 -10.07321167 42.2795105 C-10.07388876 40.29783053 -10.07206751 38.31614829 -10.06787109 36.33447266 C-10.06252826 33.3283989 -10.067826 30.32247535 -10.07421875 27.31640625 C-10.07355765 25.38020801 -10.07227583 23.44400986 -10.0703125 21.5078125 C-10.07334885 20.179207 -10.07334885 20.179207 -10.07644653 18.82376099 C-10.00702626 0.00864912 -10.00702626 0.00864912 0 0 Z M-4.9375 5.1875 C-4.9375 23.0075 -4.9375 40.8275 -4.9375 59.1875 C5.9525 59.1875 16.8425 59.1875 28.0625 59.1875 C28.0625 56.2175 28.0625 53.2475 28.0625 50.1875 C20.8025 50.1875 13.5425 50.1875 6.0625 50.1875 C6.0625 35.3375 6.0625 20.4875 6.0625 5.1875 C2.4325 5.1875 -1.1975 5.1875 -4.9375 5.1875 Z " fill="#9AAFC5" transform="translate(286.9375,152.8125)"/>
<path d="M0 0 C0.66 0 1.32 0 2 0 C3.98 6.6 5.96 13.2 8 20 C8 19.34 8 18.68 8 18 C9.65 17.67 11.3 17.34 13 17 C13.66 15.02 14.32 13.04 15 11 C16.99300443 14.71078444 18.41859811 18.62012285 19.875 22.5625 C20.13748535 23.27051758 20.3999707 23.97853516 20.67041016 24.70800781 C21.19908477 26.13526761 21.72692839 27.56283551 22.25390625 28.99072266 C22.91936284 30.78283907 23.59931839 32.56955638 24.28125 34.35546875 C24.6421875 35.31066406 25.003125 36.26585937 25.375 37.25 C25.69210937 38.08015625 26.00921875 38.9103125 26.3359375 39.765625 C27 42 27 42 27 46 C23.04 46 19.08 46 15 46 C14.70867187 44.94039062 14.41734375 43.88078125 14.1171875 42.7890625 C13.70441817 41.40065656 13.29028388 40.0126559 12.875 38.625 C12.68679688 37.92632812 12.49859375 37.22765625 12.3046875 36.5078125 C11.64453046 34.18043953 11.64453046 34.18043953 10 31 C6.96119471 29.42870441 6.96119471 29.42870441 4 29 C4.66 28.67 5.32 28.34 6 28 C6.33 27.34 6.66 26.68 7 26 C7.33 26 7.66 26 8 26 C8 25.34 8 24.68 8 24 C1.07 23.505 1.07 23.505 -6 23 C-5.37650642 20.47878568 -4.75124639 17.95803069 -4.125 15.4375 C-3.86396484 14.38079102 -3.86396484 14.38079102 -3.59765625 13.30273438 C-2.48705185 8.83975002 -1.28798784 4.41512948 0 0 Z M0 13 C-0.33 14.98 -0.66 16.96 -1 19 C-0.01 19 0.98 19 2 19 C2 17.35 2 15.7 2 14 C1.34 13.67 0.68 13.34 0 13 Z " fill="#091B48" transform="translate(436,167)"/>
<path d="M0 0 C3.86865585 1.97380401 5.95025963 4.58064775 7.4921875 8.68359375 C9.1756266 16.36266594 9.14896709 24.49926921 5.265625 31.44921875 C2.85529596 34.40261575 0.97211937 35.83954013 -2.83984375 36.46875 C-11.25187452 36.55361286 -11.25187452 36.55361286 -15.125 33.6875 C-19.89971734 26.84373848 -20.67431356 21.26340613 -20 13 C-19.1184818 8.54382137 -17.80856043 5.06938638 -15.0625 1.4375 C-10.14326926 -0.87152667 -5.32905936 -0.71694696 0 0 Z M-13 5 C-16.62872923 10.96148373 -16.71874625 17.14857473 -16 24 C-14.42708677 28.67559801 -14.42708677 28.67559801 -11 32 C-6.65939653 32.98013627 -4.26501646 33.49500644 -0.125 31.875 C3.21189907 28.93067729 3.89571538 26.03678312 4.3359375 21.66015625 C4.6297475 12.45494055 4.6297475 12.45494055 0 5 C-4.17496769 2.2166882 -8.89430008 1.74375523 -13 5 Z " fill="#AAC1D1" transform="translate(250,167)"/>
<path d="M0 0 C0.33 0 0.66 0 1 0 C2.35870243 6.42295696 2.35870243 6.42295696 0.5625 9.3125 C0.046875 9.869375 -0.46875 10.42625 -1 11 C-1 11.66 -1 12.32 -1 13 C-0.34 13.33 0.32 13.66 1 14 C1 15.32 1 16.64 1 18 C0.195625 18.474375 -0.60875 18.94875 -1.4375 19.4375 C-4.25476709 20.76479918 -4.25476709 20.76479918 -4.8125 23.6875 C-4.874375 24.450625 -4.93625 25.21375 -5 26 C-3.68 25.67 -2.36 25.34 -1 25 C1.38334778 28.57502167 1.61560021 30.87691019 1 35 C-0.17147259 39.07468725 -1.56380889 43.00559349 -3 47 C-6.96 47 -10.92 47 -15 47 C-14.44259525 41.97054334 -13.30789844 37.7563337 -11.4375 33.0625 C-7.19676171 22.1904503 -3.63506735 11.08570577 0 0 Z M-7 27 C-6 30 -6 30 -6 30 Z " fill="#091C47" transform="translate(426,166)"/>
<path d="M0 0 C0.99 0.33 1.98 0.66 3 1 C3.33 8.59 3.66 16.18 4 24 C7.63 24.33 11.26 24.66 15 25 C15.99 25.33 16.98 25.66 18 26 C18.29003906 24.95199219 18.29003906 24.95199219 18.5859375 23.8828125 C18.97652344 22.51769531 18.97652344 22.51769531 19.375 21.125 C19.63023437 20.22007812 19.88546875 19.31515625 20.1484375 18.3828125 C21 16 21 16 23 14 C23.07622858 17.96388638 22.9681648 21.1273408 22 25 C25.96 25 29.92 25 34 25 C34.20496094 24.14535156 34.40992188 23.29070312 34.62109375 22.41015625 C34.89050781 21.30542969 35.15992188 20.20070312 35.4375 19.0625 C35.70433594 17.96035156 35.97117187 16.85820312 36.24609375 15.72265625 C37 13 37 13 38 12 C40.69654854 11.92680379 43.36691458 11.90757463 46.0625 11.9375 C47.20041992 11.94426758 47.20041992 11.94426758 48.36132812 11.95117188 C50.24091871 11.9629932 52.12046899 11.98092922 54 12 C54.495 13.485 54.495 13.485 55 15 C50.38 15 45.76 15 41 15 C40.71125 16.216875 40.4225 17.43375 40.125 18.6875 C38.405 25.42416667 38.405 25.42416667 37 28 C33.48226226 29.32928339 29.87009905 29.12936626 26.15234375 29.1328125 C25.49923721 29.13376923 24.84613068 29.13472595 24.17323303 29.13571167 C22.79737247 29.1363901 21.42150865 29.13455939 20.0456543 29.13037109 C17.94117046 29.12500935 15.83689919 29.13033187 13.73242188 29.13671875 C12.3932287 29.13605808 11.05403565 29.13477714 9.71484375 29.1328125 C7.89134399 29.13112061 7.89134399 29.13112061 6.03100586 29.12939453 C3 29 3 29 0 28 C0 18.76 0 9.52 0 0 Z " fill="#A0B3D3" transform="translate(389,188)"/>
<path d="M0 0 C0.33 0 0.66 0 1 0 C1 16.83 1 33.66 1 51 C6.28 51 11.56 51 17 51 C20.3226894 51.15437799 23.62299786 51.32214667 26.9375 51.5625 C29.62922906 51.75651858 32.30162681 51.905906 35 52 C36.81115956 50.18884044 36.38199448 47.38721773 36.5625 44.9375 C36.706875 42.978125 36.85125 41.01875 37 39 C30.07 39 23.14 39 16 39 C16 38.67 16 38.34 16 38 C23.59 38 31.18 38 39 38 C39.020625 40.454375 39.04125 42.90875 39.0625 45.4375 C39.071604 46.21150146 39.08070801 46.98550293 39.09008789 47.78295898 C39.09724913 49.52221717 39.05024702 51.26145304 39 53 C38 54 38 54 34.21459961 54.11352539 C32.52717271 54.11336622 30.83974095 54.10766917 29.15234375 54.09765625 C27.82270348 54.09553383 27.82270348 54.09553383 26.46620178 54.09336853 C23.62326746 54.08775215 20.78041069 54.07519691 17.9375 54.0625 C16.01497509 54.05748711 14.09244896 54.05292384 12.16992188 54.04882812 C7.44658451 54.03777741 2.72330542 54.02050183 -2 54 C-2.73012396 49.00414715 -3.07009097 44.57066623 -2.59375 39.51953125 C-2.15923858 34.30330527 -1.85985617 29.11689345 -1.71875 23.88671875 C-1.69035034 22.87534348 -1.69035034 22.87534348 -1.66137695 21.84353638 C-1.58579941 19.07946924 -1.51535241 16.31529871 -1.44775391 13.55102539 C-1.3963401 11.49612385 -1.33913635 9.44144656 -1.28125 7.38671875 C-1.25095703 6.18233154 -1.22066406 4.97794434 -1.18945312 3.73706055 C-1 1 -1 1 0 0 Z " fill="#A7C3D8" transform="translate(280,162)"/>
<path d="M0 0 C0.33 0 0.66 0 1 0 C1 13.86 1 27.72 1 42 C0.67 42 0.34 42 0 42 C-0.33 34.41 -0.66 26.82 -1 19 C-1.33 19 -1.66 19 -2 19 C-2 26.92 -2 34.84 -2 43 C-4 41 -4 41 -4.1953125 38.1796875 C-4.13020833 35.11979167 -4.06510417 32.05989583 -4 29 C-5.65 33.95 -7.3 38.9 -9 44 C-9.33 42.68 -9.66 41.36 -10 40 C-11.485 40.495 -11.485 40.495 -13 41 C-10.43795134 32.23808398 -7.62557119 23.55852497 -4.8125 14.875 C-4.34430492 13.42711441 -3.87620526 11.97919797 -3.40820312 10.53125 C-2.27323404 7.02047728 -1.13697863 3.51012251 0 0 Z " fill="#A7B4C9" transform="translate(392,170)"/>
<path d="M0 0 C4.08327357 -0.0580772 8.16644083 -0.09362249 12.25 -0.125 C13.98830078 -0.15013672 13.98830078 -0.15013672 15.76171875 -0.17578125 C16.87675781 -0.18222656 17.99179687 -0.18867188 19.140625 -0.1953125 C20.68024902 -0.21102295 20.68024902 -0.21102295 22.25097656 -0.22705078 C25.01984288 0.00163889 26.64418792 0.5756701 29 2 C29 3.32 29 4.64 29 6 C29.99 6.33 30.98 6.66 32 7 C31.34 10.3 30.68 13.6 30 17 C29.34 17 28.68 17 28 17 C27.34 16.34 26.68 15.68 26 15 C21.28531403 10.40030637 17.48645674 8.96576134 11 8 C11 5 11 5 12.5 3.3125 C12.995 2.879375 13.49 2.44625 14 2 C12.22992286 1.91885894 10.45877902 1.86074495 8.6875 1.8125 C7.70136719 1.77769531 6.71523438 1.74289063 5.69921875 1.70703125 C2.95425611 1.75721892 2.95425611 1.75721892 1.14453125 3.51171875 C0.76683594 4.00285156 0.38914062 4.49398437 0 5 C0 3.35 0 1.7 0 0 Z " fill="#061946" transform="translate(471,158)"/>
<path d="M0 0 C11.78040453 -0.58158139 11.78040453 -0.58158139 17 1 C19.75647216 3.62422762 21.52234931 6.34287329 23.59765625 9.51953125 C26.77448469 12.79967119 29.69390937 13.06572744 34.0625 13.1875 C36.37581648 13.17612676 38.69035912 13.13084922 41 13 C40.54625 11.9275 40.0925 10.855 39.625 9.75 C39.36976563 9.14671875 39.11453125 8.5434375 38.8515625 7.921875 C37.96193599 5.91409408 36.99581175 3.95698656 36 2 C40.09738051 5.34926328 44.01098824 8.5762626 47 13 C47 13.99 47 14.98 47 16 C42.97810055 17.34063315 39.27337478 17.18417125 35.0625 17.1875 C34.25103516 17.19974609 33.43957031 17.21199219 32.60351562 17.22460938 C31.81783203 17.22654297 31.03214844 17.22847656 30.22265625 17.23046875 C29.50859619 17.23457764 28.79453613 17.23868652 28.05883789 17.24291992 C24.50928509 16.82411226 22.4711797 15.51331772 20.078125 12.90625 C19.47484375 12.1121875 18.8715625 11.318125 18.25 10.5 C17.63640625 9.7059375 17.0228125 8.911875 16.390625 8.09375 C15 6 15 6 15 4 C14.00419922 3.92652344 14.00419922 3.92652344 12.98828125 3.8515625 C4.21792619 3.10896309 4.21792619 3.10896309 0 1 C0 0.67 0 0.34 0 0 Z " fill="#A8C0D7" transform="translate(229,213)"/>
<path d="M0 0 C6.6 0 13.2 0 20 0 C24 11.75 24 11.75 24 14 C27.96 14 31.92 14 36 14 C35.34 12.246875 34.68 10.49375 34 8.6875 C32.81493079 5.53965992 32 3.37465686 32 0 C32.66 0 33.32 0 34 0 C34.99 2.64 35.98 5.28 37 8 C38.32 8 39.64 8 41 8 C41 10.64 41 13.28 41 16 C45.95 16 50.9 16 56 16 C56 16.33 56 16.66 56 17 C51.19451403 17.04936883 46.38917506 17.08570443 41.58349609 17.10986328 C39.94805328 17.11993254 38.31262851 17.13358881 36.67724609 17.15087891 C34.3290563 17.17508705 31.98110412 17.18647357 29.6328125 17.1953125 C28.89942657 17.20563507 28.16604065 17.21595764 27.41043091 17.22659302 C25.60537303 17.22699368 23.8009217 17.12212755 22 17 C19.50063756 14.50063756 18.96276247 12.35191992 17.875 9 C17.52179688 7.9275 17.16859375 6.855 16.8046875 5.75 C16 3 16 3 16 1 C10.72 1 5.44 1 0 1 C0 0.67 0 0.34 0 0 Z " fill="#AAC0D0" transform="translate(427,199)"/>
<path d="M0 0 C1.010625 0.495 2.02125 0.99 3.0625 1.5 C2.47571669 5.02069985 1.70600079 7.21299843 0.0625 10.5 C-5.2175 9.84 -10.4975 9.18 -15.9375 8.5 C-15.9375 8.17 -15.9375 7.84 -15.9375 7.5 C-14.2875 7.17 -12.6375 6.84 -10.9375 6.5 C-13.2475 5.84 -15.5575 5.18 -17.9375 4.5 C-17.2775 4.17 -16.6175 3.84 -15.9375 3.5 C-16.5975 2.51 -17.2575 1.52 -17.9375 0.5 C-19.360625 1.0259375 -19.360625 1.0259375 -20.8125 1.5625 C-23.9375 2.5 -23.9375 2.5 -25.9375 1.5 C-18.22258824 -2.98651791 -8.36014338 -3.14066209 0 0 Z " fill="#091D4B" transform="translate(206.9375,158.5)"/>
<path d="M0 0 C2.29296875 0.14453125 2.29296875 0.14453125 5 1 C6.80078125 3.51171875 6.80078125 3.51171875 8.3125 6.6875 C8.82425781 7.72261719 9.33601563 8.75773438 9.86328125 9.82421875 C11.06090864 13.17016745 11.34386679 15.47782159 11 19 C8.01628767 24.52539321 4.13764674 27.57490217 -1 31 C-3.00537109 31.24291992 -3.00537109 31.24291992 -5.2734375 31.23046875 C-6.0984375 31.22853516 -6.9234375 31.22660156 -7.7734375 31.22460938 C-8.63195312 31.21236328 -9.49046875 31.20011719 -10.375 31.1875 C-11.22578125 31.18685547 -12.0765625 31.18621094 -12.953125 31.18554688 C-17.08945584 31.1565539 -20.96780981 31.03708596 -25 30 C-25 29.34 -25 28.68 -25 28 C-23.78183594 28.03480469 -22.56367188 28.06960937 -21.30859375 28.10546875 C-19.68490972 28.13362512 -18.06121065 28.16092329 -16.4375 28.1875 C-15.63763672 28.21263672 -14.83777344 28.23777344 -14.01367188 28.26367188 C-7.49509888 28.34349114 -2.74959521 27.3154486 2.375 23 C5.60035151 19.0303366 5.3802094 14.71133811 5.3671875 9.80859375 C4.79445945 5.42783345 2.89708812 3.25922413 0 0 Z " fill="#A9BECD" transform="translate(204,184)"/>
<path d="M0 0 C0.66 0 1.32 0 2 0 C3.00674459 3.26879616 4.00422489 6.5403471 5 9.8125 C5.28617187 10.74126953 5.57234375 11.67003906 5.8671875 12.62695312 C6.13789063 13.51962891 6.40859375 14.41230469 6.6875 15.33203125 C6.93886719 16.15421143 7.19023437 16.9763916 7.44921875 17.82348633 C8 20 8 20 8 23 C3.38 23 -1.24 23 -6 23 C-5.37650642 20.47878568 -4.75124639 17.95803069 -4.125 15.4375 C-3.86396484 14.38079102 -3.86396484 14.38079102 -3.59765625 13.30273438 C-2.48705185 8.83975002 -1.28798784 4.41512948 0 0 Z M0 13 C-0.33 14.98 -0.66 16.96 -1 19 C-0.01 19 0.98 19 2 19 C2 17.35 2 15.7 2 14 C1.34 13.67 0.68 13.34 0 13 Z " fill="#A9B4C6" transform="translate(436,167)"/>
<path d="M0 0 C8.02217295 -0.4789357 8.02217295 -0.4789357 12.0625 1.5 C14.92804081 5.19747201 14.51281696 7.38464735 14 12 C12 15 12 15 9 16 C7.43881572 16.06740865 5.8749748 16.08514456 4.3125 16.0625 C2.1778125 16.0315625 2.1778125 16.0315625 0 16 C0 10.72 0 5.44 0 0 Z M5 4 C3.79438816 4.98267859 3.79438816 4.98267859 3.90234375 6.84765625 C3.91394531 7.57855469 3.92554688 8.30945313 3.9375 9.0625 C3.958125 10.361875 3.97875 11.66125 4 13 C6.35964273 12.59316505 7.85934088 12.10185661 9.8125 10.6875 C11.26058137 9.03926569 11.26058137 9.03926569 10.6875 6.8125 C10.3471875 5.9153125 10.3471875 5.9153125 10 5 C8.34385343 4.61781233 6.67542976 4.28604898 5 4 Z " fill="#B5C1D1" transform="translate(482,167)"/>
<path d="M0 0 C1.32 0 2.64 0 4 0 C4 7.26 4 14.52 4 22 C7.05989583 21.96744792 10.11979167 21.93489583 13.1796875 21.90234375 C16 22 16 22 18 23 C18 16.73 18 10.46 18 4 C21.63 3.67 25.26 3.34 29 3 C25 5 25 5 20 5 C20 11.27 20 17.54 20 24 C16.30436754 25.23187749 13.11918042 24.8713033 9.3125 24.5625 C6.899375 24.376875 4.48625 24.19125 2 24 C1.34 16.08 0.68 8.16 0 0 Z " fill="#B7C2D6" transform="translate(466,191)"/>
<path d="M0 0 C0.97397286 3.26102866 1.12117518 6.19821871 1.11352539 9.59472656 C1.11341209 11.27601654 1.11341209 11.27601654 1.11329651 12.99127197 C1.10813522 14.19555847 1.10297394 15.39984497 1.09765625 16.640625 C1.09553383 18.49660309 1.09553383 18.49660309 1.09336853 20.39007568 C1.0887211 23.67144941 1.07974347 26.95277373 1.06866455 30.23413086 C1.0584152 33.58577011 1.05394859 36.93741148 1.04882812 40.2890625 C1.03780024 46.8593968 1.02053617 53.42968881 1 60 C5.62 60 10.24 60 15 60 C14.82597656 59.00871094 14.65195312 58.01742187 14.47265625 56.99609375 C13.89590304 52.95882125 14.11353465 49.13006496 14.4375 45.0625 C14.48970703 44.37865234 14.54191406 43.69480469 14.59570312 42.99023438 C14.72369898 41.32628831 14.86087719 39.6630527 15 38 C16.485 38.495 16.485 38.495 18 39 C18.33 39.99 18.66 40.98 19 42 C18.01 42 17.02 42 16 42 C16.14148989 43.6045556 16.28835686 45.20863767 16.4375 46.8125 C16.51871094 47.70582031 16.59992188 48.59914062 16.68359375 49.51953125 C16.93489767 52.12743559 16.93489767 52.12743559 18 55 C17.72230092 57.3406065 17.39460023 59.67624308 17 62 C14.18743719 62.02684312 11.37512759 62.04676188 8.5625 62.0625 C7.76005859 62.07087891 6.95761719 62.07925781 6.13085938 62.08789062 C4.08704779 62.0965143 2.04316098 62.0522815 0 62 C-1.75518106 60.24481894 -1.12760783 57.77650285 -1.12939453 55.39453125 C-1.13254669 54.19658936 -1.13569885 52.99864746 -1.13894653 51.7644043 C-1.1369223 50.46027588 -1.13489807 49.15614746 -1.1328125 47.8125 C-1.1334856 46.47110985 -1.13445568 45.12971981 -1.13571167 43.78833008 C-1.13718836 40.97378379 -1.13503504 38.15926918 -1.13037109 35.34472656 C-1.12467381 31.72959369 -1.12795297 28.11453505 -1.13394356 24.49940491 C-1.13754997 21.72855058 -1.13641022 18.95771398 -1.13381577 16.18685913 C-1.13282033 14.20310417 -1.13586741 12.21934853 -1.13894653 10.2355957 C-1.13579437 9.03765381 -1.13264221 7.83971191 -1.12939453 6.60546875 C-1.12859894 5.54481201 -1.12780334 4.48415527 -1.12698364 3.39135742 C-1 1 -1 1 0 0 Z " fill="#AFD1E5" transform="translate(342,154)"/>
<path d="M0 0 C0.99 0.33 1.98 0.66 3 1 C3.33 8.59 3.66 16.18 4 24 C14.56 24.66 25.12 25.32 36 26 C36 26.33 36 26.66 36 27 C35.31292969 27.06058594 34.62585938 27.12117188 33.91796875 27.18359375 C32.56638672 27.30927734 32.56638672 27.30927734 31.1875 27.4375 C29.84751953 27.55931641 29.84751953 27.55931641 28.48046875 27.68359375 C25.87256441 27.93489767 25.87256441 27.93489767 23 29 C21.481325 29.09230479 19.95897605 29.1306756 18.4375 29.1328125 C17.55835938 29.13410156 16.67921875 29.13539063 15.7734375 29.13671875 C14.85820312 29.13285156 13.94296875 29.12898438 13 29.125 C11.62714844 29.13080078 11.62714844 29.13080078 10.2265625 29.13671875 C8.90785156 29.13478516 8.90785156 29.13478516 7.5625 29.1328125 C6.75941406 29.13168457 5.95632813 29.13055664 5.12890625 29.12939453 C3 29 3 29 0 28 C0 18.76 0 9.52 0 0 Z " fill="#BBC8D9" transform="translate(389,188)"/>
<path d="M0 0 C1.32 0.33 2.64 0.66 4 1 C4 12.55 4 24.1 4 36 C2.515 36.495 2.515 36.495 1 37 C0 36 0 36 -0.11352539 32.58178711 C-0.11336628 31.06363012 -0.10767226 29.54546771 -0.09765625 28.02734375 C-0.0962413 27.22970108 -0.09482635 26.43205841 -0.09336853 25.61024475 C-0.08775316 23.05262565 -0.07519812 20.49509282 -0.0625 17.9375 C-0.05748698 16.20768355 -0.05292373 14.47786574 -0.04882812 12.74804688 C-0.03777875 8.49866447 -0.02050386 4.24934688 0 0 Z " fill="#A8B6C9" transform="translate(466,155)"/>
<path d="M0 0 C1.0725 0.474375 2.145 0.94875 3.25 1.4375 C8.68778867 3.51090143 14.23441213 3.72132992 20 4 C20 4.33 20 4.66 20 5 C18.72125 5.144375 17.4425 5.28875 16.125 5.4375 C13.74307106 5.70642746 12.15547309 5.92226346 10 7 C10 7.66 10 8.32 10 9 C11.98 8.67 13.96 8.34 16 8 C16.33 9.32 16.66 10.64 17 12 C16.0925 12.144375 15.185 12.28875 14.25 12.4375 C11.17145771 12.86060711 11.17145771 12.86060711 9.0625 13.75 C5.62593189 14.16655371 3.07384518 12.47781018 0 11 C0 7.37 0 3.74 0 0 Z " fill="#12254F" transform="translate(175,199)"/>
<path d="M0 0 C3.48649198 2.32432799 3.67997528 3.22129742 4.90234375 7.09375 C5.23556641 8.125 5.56878906 9.15625 5.91210938 10.21875 C6.25048828 11.3015625 6.58886719 12.384375 6.9375 13.5 C9.12717256 20.38544434 11.3631257 27.17726161 14.14575195 33.84912109 C15.33748852 36.8497496 16.18553586 39.87788745 17 43 C15.515 42.505 15.515 42.505 14 42 C12.5522078 39.10441559 12 37.25811062 12 34 C11.01 33.67 10.02 33.34 9 33 C7.22596717 29.71938881 6.12118831 26.13532532 4.875 22.625 C4.33552734 21.19607422 4.33552734 21.19607422 3.78515625 19.73828125 C1.40305962 13.14513739 0.28917267 7.00003197 0 0 Z " fill="#ABC4D7" transform="translate(449,165)"/>
<path d="M0 0 C4.48008719 0.05226693 8.95830418 0.14744002 13.4375 0.25 C15.32758789 0.27126953 15.32758789 0.27126953 17.25585938 0.29296875 C31.56441882 0.66656038 31.56441882 0.66656038 37 5 C37.72827148 7.13769531 37.72827148 7.13769531 38 9 C34.82921542 8.48858313 32.00650156 7.63074894 29.01953125 6.49609375 C23.57134109 4.65942046 18.33488648 4.48229988 12.625 4.375 C10.67958717 4.32400622 8.73426281 4.26947978 6.7890625 4.2109375 C5.94037598 4.19337402 5.09168945 4.17581055 4.21728516 4.15771484 C2 4 2 4 -1 3 C-0.67 2.01 -0.34 1.02 0 0 Z " fill="#B5C0D4" transform="translate(468,153)"/>
<path d="M0 0 C5.28 0 10.56 0 16 0 C16 0.66 16 1.32 16 2 C11.71 2 7.42 2 3 2 C1.81124273 18.66382959 1.89586563 35.30485685 2 52 C2.94875 51.95875 3.8975 51.9175 4.875 51.875 C8 52 8 52 10 54 C6.7 54 3.4 54 0 54 C0 36.18 0 18.36 0 0 Z " fill="#081839" transform="translate(345,158)"/>
<path d="M0 0 C0.33 0 0.66 0 1 0 C1 16.83 1 33.66 1 51 C1.66 51.33 2.32 51.66 3 52 C1.68 51.67 0.36 51.34 -1 51 C-1.79384822 44.38927726 -2.10789215 37.96100204 -1.9140625 31.30859375 C-1.89282318 30.4372731 -1.87158386 29.56595245 -1.84970093 28.66822815 C-1.8038683 26.84897113 -1.75498339 25.02978858 -1.703125 23.21069336 C-1.62432108 20.41340059 -1.55761782 17.61599372 -1.4921875 14.81835938 C-1.44602319 13.0442522 -1.39917364 11.27016269 -1.3515625 9.49609375 C-1.33171295 8.65767441 -1.3118634 7.81925507 -1.29141235 6.95542908 C-1.11530752 1.11530752 -1.11530752 1.11530752 0 0 Z " fill="#B8C5D3" transform="translate(280,162)"/>
<path d="M0 0 C1.32 0.66 2.64 1.32 4 2 C4 2.66 4 3.32 4 4 C4.66 4 5.32 4 6 4 C6.66 5.65 7.32 7.3 8 9 C5.75165504 9.13526139 3.50097486 9.23210804 1.25 9.3125 C-0.00296875 9.37050781 -1.2559375 9.42851562 -2.546875 9.48828125 C-6 9 -6 9 -8.453125 6.60546875 C-10 4 -10 4 -10 2 C-9.01 1.67 -8.02 1.34 -7 1 C-6.01 1.99 -5.02 2.98 -4 4 C-4 3.34 -4 2.68 -4 2 C-2.68 2 -1.36 2 0 2 C0 1.34 0 0.68 0 0 Z " fill="#14254B" transform="translate(261,217)"/>
<path d="M0 0 C0.66 0.33 1.32 0.66 2 1 C2.25 4.3125 2.25 4.3125 2 8 C0 9.9375 0 9.9375 -2 11 C-1.57321525 16.44150555 -0.37910927 18.8324319 3 23 C2.75 25.3125 2.75 25.3125 2 27 C1.34 25.35 0.68 23.7 0 22 C-0.66 22 -1.32 22 -2 22 C-3.76171875 20.390625 -3.76171875 20.390625 -5.6875 18.25 C-6.33074219 17.55390625 -6.97398437 16.8578125 -7.63671875 16.140625 C-9 14 -9 14 -8.85546875 11.8515625 C-8 10 -8 10 -5.625 8.125 C-2.63549495 5.70492449 -1.5095519 3.4958044 0 0 Z " fill="#A4B9CD" transform="translate(267,199)"/>
<path d="M0 0 C0.33 0 0.66 0 1 0 C1 3.3 1 6.6 1 10 C0.34 10 -0.32 10 -1 10 C-0.98839844 10.65226563 -0.97679687 11.30453125 -0.96484375 11.9765625 C-0.92507931 15.82803238 -0.90404228 19.4455776 -1.5625 23.25 C-2.06427737 26.40402917 -1.66542184 28.8946981 -1 32 C-5.31694219 29.12203854 -7.02650132 26.38578704 -8.91015625 21.70703125 C-9.88264273 19.79545885 -9.88264273 19.79545885 -12.12109375 19.26171875 C-12.74113281 19.17535156 -13.36117187 19.08898437 -14 19 C-13.67 17.68 -13.34 16.36 -13 15 C-11.85073734 15.95421808 -10.70569459 16.91352045 -9.5625 17.875 C-8.60537109 18.67550781 -8.60537109 18.67550781 -7.62890625 19.4921875 C-6 21 -6 21 -5 23 C-4.83564453 21.515 -4.83564453 21.515 -4.66796875 20 C-3.84233747 12.98390969 -2.91981529 6.50322497 0 0 Z " fill="#B7CFD6" transform="translate(218,165)"/>
<path d="M0 0 C0 0.66 0 1.32 0 2 C2.97 2 5.94 2 9 2 C9 2.33 9 2.66 9 3 C8.27554688 3.03738281 7.55109375 3.07476562 6.8046875 3.11328125 C0.30623244 3.55517619 -4.64145105 4.22051122 -9.8125 8.5 C-12.25417317 11.58421874 -12.13520819 14.67578056 -12.125 18.4375 C-12.12757813 19.38496094 -12.13015625 20.33242187 -12.1328125 21.30859375 C-12.01473475 23.70140459 -11.68112635 25.71336153 -11 28 C-11.99 27.34 -12.98 26.68 -14 26 C-14.29296875 22.9609375 -14.29296875 22.9609375 -14.1875 19.375 C-14.16042969 18.18648437 -14.13335937 16.99796875 -14.10546875 15.7734375 C-14.07066406 14.85820312 -14.03585938 13.94296875 -14 13 C-14.99 13.33 -15.98 13.66 -17 14 C-16.0838033 9.51753229 -14.04304506 6.37753527 -11 3 C-7.21893218 0.55806037 -4.49363976 -0.39649763 0 0 Z " fill="#A6B1C7" transform="translate(189,154)"/>
<path d="M0 0 C4.09738051 3.34926328 8.01098824 6.5762626 11 11 C11 11.99 11 12.98 11 14 C6.94735482 15.35088173 3.18154204 15.223454 -1.0625 15.25 C-1.89072266 15.270625 -2.71894531 15.29125 -3.57226562 15.3125 C-4.76045898 15.32023438 -4.76045898 15.32023438 -5.97265625 15.328125 C-6.69718994 15.3374707 -7.42172363 15.34681641 -8.16821289 15.35644531 C-8.77270264 15.23881836 -9.37719238 15.12119141 -10 15 C-10.66 14.01 -11.32 13.02 -12 12 C-3.585 11.505 -3.585 11.505 5 11 C2.62994386 5.41823624 2.62994386 5.41823624 0 0 Z " fill="#AFCCE2" transform="translate(265,215)"/>
<path d="M0 0 C9.85312122 -0.41698162 19.0374489 -0.4458747 27 6 C26.67 6.99 26.34 7.98 26 9 C25.01 9 24.02 9 23 9 C22.67 8.01 22.34 7.02 22 6 C15.07 5.01 8.14 4.02 1 3 C0.67 2.01 0.34 1.02 0 0 Z " fill="#B5C4DB" transform="translate(188,153)"/>
<path d="M0 0 C0.66 -0.33 1.32 -0.66 2 -1 C7.66384778 2.85623679 7.66384778 2.85623679 8.62109375 6.11328125 C8.84661084 8.06660622 8.93338402 10.03482858 9 12 C8.34 12 7.68 12 7 12 C5.56165478 10.11274449 4.30331413 8.13812032 3.0234375 6.140625 C-1.06104028 1.81959445 -5.78887126 -0.19875098 -11.71875 -0.390625 C-13.31297498 -0.36449016 -14.9069884 -0.31745652 -16.5 -0.25 C-17.32242188 -0.23195312 -18.14484375 -0.21390625 -18.9921875 -0.1953125 C-20.99530804 -0.1487283 -22.99781821 -0.07700699 -25 0 C-25 -0.66 -25 -1.32 -25 -2 C-22.64628886 -2.1968999 -20.2925305 -2.38270974 -17.9375 -2.5625 C-16.62652344 -2.66691406 -15.31554687 -2.77132812 -13.96484375 -2.87890625 C-8.62446851 -3.04201131 -4.50332039 -3.00221359 0 0 Z " fill="#A0BFD3" transform="translate(260,158)"/>
<path d="M0 0 C0.33 0 0.66 0 1 0 C1.66 4.62 2.32 9.24 3 14 C4.65 14.33 6.3 14.66 8 15 C8 15.66 8 16.32 8 17 C14.93 17 21.86 17 29 17 C29.33 17.66 29.66 18.32 30 19 C20.88948492 21.42947069 11.81010374 19.92329165 3 17 C2.01 16.34 1.02 15.68 0 15 C-0.22137393 12.37302936 -0.28162025 9.99106036 -0.1875 7.375 C-0.17396484 6.66859375 -0.16042969 5.9621875 -0.14648438 5.234375 C-0.1111104 3.48925872 -0.05730221 1.74453392 0 0 Z " fill="#AECDE6" transform="translate(171,197)"/>
<path d="M0 0 C2.57146057 2.57146057 2.80117997 4.6050417 3.625 8.125 C3.88539063 9.22070312 4.14578125 10.31640625 4.4140625 11.4453125 C4.70410156 12.70988281 4.70410156 12.70988281 5 14 C4.01 13.34 3.02 12.68 2 12 C1.67 21.57 1.34 31.14 1 41 C-2.63 41 -6.26 41 -10 41 C-10 40.67 -10 40.34 -10 40 C-6.7 40 -3.4 40 0 40 C0 26.8 0 13.6 0 0 Z " fill="#959EB7" transform="translate(355,172)"/>
<path d="M0 0 C0.66 0 1.32 0 2 0 C0.64746536 6.45054982 -1.03060233 12.71105679 -3 19 C-3.66 19 -4.32 19 -5 19 C-5.67260351 17.23141309 -6.33788395 15.46003984 -7 13.6875 C-7.37125 12.70136719 -7.7425 11.71523437 -8.125 10.69921875 C-9 8 -9 8 -9 5 C-8.34 5 -7.68 5 -7 5 C-6.67 6.65 -6.34 8.3 -6 10 C-5.01 9.67 -4.02 9.34 -3 9 C-1.82861866 5.56684863 -1.82861866 5.56684863 -1 2 C-0.67 1.34 -0.34 0.68 0 0 Z " fill="#ADB7C5" transform="translate(378,179)"/>
<path d="M0 0 C-3.46214649 2.05164237 -4.59389235 2 -9 2 C-9 8.27 -9 14.54 -9 21 C-12.69308976 22.23102992 -15.88050712 21.87175152 -19.6875 21.5625 C-20.7403418 21.48418945 -20.7403418 21.48418945 -21.81445312 21.40429688 C-23.54338054 21.27492135 -25.27175355 21.13817469 -27 21 C-27 20.67 -27 20.34 -27 20 C-24.7089095 19.80558632 -22.41709663 19.61966865 -20.125 19.4375 C-18.84882813 19.33308594 -17.57265625 19.22867188 -16.2578125 19.12109375 C-13 19 -13 19 -11 20 C-11 13.73 -11 7.46 -11 1 C-7.0526448 0.21052896 -3.95712151 -0.09202608 0 0 Z " fill="#C3CEE0" transform="translate(495,194)"/>
<path d="M0 0 C1.6645255 2.49678825 2.44736157 4.02421568 3.2890625 6.79296875 C3.50820313 7.50517578 3.72734375 8.21738281 3.953125 8.95117188 C4.17484375 9.68916016 4.3965625 10.42714844 4.625 11.1875 C4.85445313 11.93708984 5.08390625 12.68667969 5.3203125 13.45898438 C5.88459381 15.30465449 6.44288216 17.15215496 7 19 C7.66 17.68 8.32 16.36 9 15 C9 16.98 9 18.96 9 21 C7.68 21.33 6.36 21.66 5 22 C4.67 20.35 4.34 18.7 4 17 C3.34 17 2.68 17 2 17 C-0.81115003 10.81546992 -1.27947184 6.65941972 0 0 Z " fill="#A7BDD3" transform="translate(367,167)"/>
<path d="M0 0 C0 0.66 0 1.32 0 2 C-0.721875 2.226875 -1.44375 2.45375 -2.1875 2.6875 C-8.20075487 5.49368561 -11.0141139 10.35999292 -14 16 C-14.33 16 -14.66 16 -15 16 C-15.58151725 11.92937927 -15.87221655 8.47236555 -13.72265625 4.84375 C-9.37406681 0.03170545 -6.35798427 -0.78080509 0 0 Z " fill="#A9BBCC" transform="translate(234,157)"/>
<path d="M0 0 C4.95 1.98 4.95 1.98 10 4 C7.99160266 8.01679467 6.67553078 9.57952851 3 12 C2.01 11.67 1.02 11.34 0 11 C0 7.37 0 3.74 0 0 Z " fill="#0F1E42" transform="translate(175,199)"/>
<path d="M0 0 C0.33 0 0.66 0 1 0 C1 13.86 1 27.72 1 42 C0.67 42 0.34 42 0 42 C0 33.09 0 24.18 0 15 C-0.99 15 -1.98 15 -3 15 C-2.5547115 9.72684667 -1.91626837 4.98229776 0 0 Z " fill="#8C99AF" transform="translate(392,170)"/>
<path d="M0 0 C2 2 2 2 2 5 C2.99 5.66 3.98 6.32 5 7 C5 8.32 5 9.64 5 11 C-0.08218027 9.60240043 -4.96671562 7.44978893 -9 4 C-9 3.01 -9 2.02 -9 1 C-3.25 1.875 -3.25 1.875 -1 3 C-0.67 2.01 -0.34 1.02 0 0 Z " fill="#AFBEDC" transform="translate(199,173)"/>
<path d="M0 0 C4.49692378 -0.3526999 7.94895266 -0.5147987 12.0625 1.5 C14.09455797 4.12201028 14.35383289 4.88775042 14.5 8.0625 C14 12 14 12 11 15 C10.67 11.7 10.34 8.4 10 5 C7.69 5 5.38 5 3 5 C3 4.34 3 3.68 3 3 C4.65 3 6.3 3 8 3 C8 2.34 8 1.68 8 1 C5.36 1 2.72 1 0 1 C0 0.67 0 0.34 0 0 Z " fill="#A2AFC1" transform="translate(482,167)"/>
<path d="M0 0 C-4.30785975 1.35148541 -7.41957592 2 -12 2 C-12 8.27 -12 14.54 -12 21 C-12.66 21 -13.32 21 -14 21 C-14 14.07 -14 7.14 -14 0 C-4 -1 -4 -1 0 0 Z " fill="#B3B8C8" transform="translate(496,193)"/>
<path d="M0 0 C3 2 3 2 3.765625 4.3125 C3.92546875 5.199375 4.0853125 6.08625 4.25 7 C4.42015625 7.886875 4.5903125 8.77375 4.765625 9.6875 C5 12 5 12 4 14 C4.27942455 15.67654729 4.60828247 17.34608154 5 19 C4.34 19 3.68 19 3 19 C2.16280617 16.70967689 1.3301071 14.41789043 0.5 12.125 C0.26152344 11.47402344 0.02304687 10.82304687 -0.22265625 10.15234375 C-2 5.2265625 -2 5.2265625 -2 3 C-2.66 2.67 -3.32 2.34 -4 2 C-2.68 2 -1.36 2 0 2 C0 1.34 0 0.68 0 0 Z " fill="#A1B2C7" transform="translate(446,154)"/>
<path d="M0 0 C1.98 0.495 1.98 0.495 4 1 C4 1.66 4 2.32 4 3 C4.66 3.33 5.32 3.66 6 4 C5.01 4.33 4.02 4.66 3 5 C3.11389875 6.79240663 3.24147687 8.58394835 3.375 10.375 C3.44460937 11.37273437 3.51421875 12.37046875 3.5859375 13.3984375 C3.76363964 16.15508879 3.76363964 16.15508879 6 18 C5.34 18.33 4.68 18.66 4 19 C1 17 1 17 0.234375 13.59375 C0.05903511 12.23088082 -0.10189969 10.86609764 -0.25 9.5 C-0.38535156 8.46552734 -0.38535156 8.46552734 -0.5234375 7.41015625 C-1.14278356 2.28556711 -1.14278356 2.28556711 0 0 Z " fill="#B0C7D4" transform="translate(172,194)"/>
<path d="M0 0 C0.33 0 0.66 0 1 0 C0.98839844 1.02480469 0.97679687 2.04960937 0.96484375 3.10546875 C0.95545978 4.466144 0.94636023 5.82682124 0.9375 7.1875 C0.92912109 7.86103516 0.92074219 8.53457031 0.91210938 9.22851562 C0.89772692 12.17691951 0.97687625 14.89168347 1.59375 17.78125 C2.20882485 21.14050495 0.66234225 23.14077134 -1 26 C-2.79434644 22.94887585 -3.20033824 21.06212073 -2.79296875 17.55859375 C-2.70080078 16.72779297 -2.60863281 15.89699219 -2.51367188 15.04101562 C-2.40603516 14.18185547 -2.29839844 13.32269531 -2.1875 12.4375 C-2.04344727 11.14295898 -2.04344727 11.14295898 -1.89648438 9.82226562 C-1.49739085 6.37506182 -1.10132813 3.3039844 0 0 Z " fill="#B0BCCF" transform="translate(271,178)"/>
<path d="M0 0 C1.93166016 0.01740234 1.93166016 0.01740234 3.90234375 0.03515625 C5.19269531 0.04417969 6.48304688 0.05320313 7.8125 0.0625 C8.81152344 0.07410156 9.81054688 0.08570313 10.83984375 0.09765625 C9.84984375 0.75765625 8.85984375 1.41765625 7.83984375 2.09765625 C8.49984375 2.75765625 9.15984375 3.41765625 9.83984375 4.09765625 C5.87984375 4.09765625 1.91984375 4.09765625 -2.16015625 4.09765625 C-2.49015625 5.74765625 -2.82015625 7.39765625 -3.16015625 9.09765625 C-3.49015625 9.09765625 -3.82015625 9.09765625 -4.16015625 9.09765625 C-4.2578125 2.9453125 -4.2578125 2.9453125 -4.16015625 1.09765625 C-3.16015625 0.09765625 -3.16015625 0.09765625 0 0 Z " fill="#9BA9BE" transform="translate(283.16015625,153.90234375)"/>
<path d="M0 0 C5.75 1.75 5.75 1.75 8 4 C6.35 4.33 4.7 4.66 3 5 C3.66 5.33 4.32 5.66 5 6 C3.95125002 8.62187494 3.35068687 9.79371361 0.875 11.25 C0.25625 11.4975 -0.3625 11.745 -1 12 C-2.32 11.01 -3.64 10.02 -5 9 C-4.0409375 8.443125 -4.0409375 8.443125 -3.0625 7.875 C-0.36141928 5.41947207 -0.31592995 3.55421195 0 0 Z " fill="#10204A" transform="translate(189,177)"/>
<path d="M0 0 C1.98 0 3.96 0 6 0 C6.33 1.32 6.66 2.64 7 4 C7.99 3.67 8.98 3.34 10 3 C9.67 5.64 9.34 8.28 9 11 C8.34 11 7.68 11 7 11 C6.67 12.32 6.34 13.64 6 15 C5.34 14.67 4.68 14.34 4 14 C4.33 13.34 4.66 12.68 5 12 C3.68 11.67 2.36 11.34 1 11 C1.66 11 2.32 11 3 11 C3.99 8.03 4.98 5.06 6 2 C3.03 1.505 3.03 1.505 0 1 C0 0.67 0 0.34 0 0 Z " fill="#9CB5C6" transform="translate(204,158)"/>
<path d="M0 0 C0.99 0.33 1.98 0.66 3 1 C1.68 4.96 0.36 8.92 -1 13 C-1.99 13 -2.98 13 -4 13 C-4.33 13.99 -4.66 14.98 -5 16 C-6.56135347 12.87729307 -5.19938014 10.69482442 -4.1875 7.4375 C-3.83042969 6.26058594 -3.47335937 5.08367187 -3.10546875 3.87109375 C-2 1 -2 1 0 0 Z " fill="#A5BDCF" transform="translate(382,166)"/>
<path d="M0 0 C0.99 0.33 1.98 0.66 3 1 C5.73289293 1.22797562 8.45042204 1.41668187 11.1875 1.5625 C11.93708984 1.60568359 12.68667969 1.64886719 13.45898438 1.69335938 C15.30578375 1.79922685 17.15286834 1.9000976 19 2 C19 2.33 19 2.66 19 3 C13.72 3 8.44 3 3 3 C2.67 4.98 2.34 6.96 2 9 C1.67 9.66 1.34 10.32 1 11 C-0.65 11.33 -2.3 11.66 -4 12 C-2.68 8.04 -1.36 4.08 0 0 Z " fill="#9CAEC1" transform="translate(384,155)"/>
<path d="M0 0 C7.59 0 15.18 0 23 0 C23 4.95 23 9.9 23 15 C22.01 15 21.02 15 20 15 C20.33 10.38 20.66 5.76 21 1 C14.07 1 7.14 1 0 1 C0 0.67 0 0.34 0 0 Z " fill="#B0D0E5" transform="translate(296,200)"/>
<path d="M0 0 C0.66 0 1.32 0 2 0 C2 1.98 2 3.96 2 6 C-3.52967941 6.71033431 -8.49983036 7.30267176 -14 6 C-14 5.34 -14 4.68 -14 4 C-13.24074219 3.96261719 -12.48148437 3.92523438 -11.69921875 3.88671875 C-10.70535156 3.82097656 -9.71148437 3.75523437 -8.6875 3.6875 C-7.70136719 3.62949219 -6.71523438 3.57148438 -5.69921875 3.51171875 C-2.70145133 2.94340105 -1.9473895 2.23500395 0 0 Z " fill="#B6C8E2" transform="translate(380,210)"/>
<path d="M0 0 C0.66 0 1.32 0 2 0 C2 0.66 2 1.32 2 2 C2.99 2.33 3.98 2.66 5 3 C5.96070434 5.88211302 6.10581883 7.69850044 6.0625 10.6875 C6.05347656 11.49574219 6.04445313 12.30398437 6.03515625 13.13671875 C6.02355469 13.75160156 6.01195312 14.36648437 6 15 C5.01 15.495 5.01 15.495 4 16 C3.32586789 14.08594633 2.6609668 12.16863974 2 10.25 C1.62875 9.18265625 1.2575 8.1153125 0.875 7.015625 C0 4 0 4 0 0 Z " fill="#A8BED2" transform="translate(361,157)"/>
<path d="M0 0 C6.5705166 -0.24794402 12.56971459 0.67611771 19 2 C19.33 3.32 19.66 4.64 20 6 C16.6868604 7.04127245 15.39801692 7.18574123 12.1875 5.6875 C11.465625 5.130625 10.74375 4.57375 10 4 C10 3.34 10 2.68 10 2 C6.7 2 3.4 2 0 2 C0 1.34 0 0.68 0 0 Z " fill="#ABC4D6" transform="translate(190,168)"/>
<path d="M0 0 C0.33 0 0.66 0 1 0 C1.07622858 3.96388638 0.9681648 7.1273408 0 11 C4.95 10.67 9.9 10.34 15 10 C14.67 10.66 14.34 11.32 14 12 C8.06 12 2.12 12 -4 12 C-1.125 2.25 -1.125 2.25 0 0 Z " fill="#B6BFCF" transform="translate(411,202)"/>
<path d="M0 0 C1.98 0 3.96 0 6 0 C6 2.97 6 5.94 6 9 C-3.24 9 -12.48 9 -22 9 C-22 8.67 -22 8.34 -22 8 C-21.28344238 7.98018066 -20.56688477 7.96036133 -19.82861328 7.93994141 C-16.5936937 7.84490481 -13.35943906 7.73513981 -10.125 7.625 C-8.99707031 7.5940625 -7.86914062 7.563125 -6.70703125 7.53125 C-5.63066406 7.49257812 -4.55429687 7.45390625 -3.4453125 7.4140625 C-2.45031738 7.3826416 -1.45532227 7.3512207 -0.43017578 7.31884766 C2.17854517 7.22752917 2.17854517 7.22752917 4 5 C4 4.01 4 3.02 4 2 C2.68 1.34 1.36 0.68 0 0 Z " fill="#081839" transform="translate(309,203)"/>
<path d="M0 0 C5.28 0 10.56 0 16 0 C16.33 0.99 16.66 1.98 17 3 C11.39 3 5.78 3 0 3 C0 2.01 0 1.02 0 0 Z " fill="#B0C8DB" transform="translate(427,200)"/>
<path d="M0 0 C1.93816735 0.1141866 3.87555099 0.24173423 5.8125 0.375 C6.89144531 0.44460937 7.97039062 0.51421875 9.08203125 0.5859375 C12 1 12 1 15 3 C14 4 14 4 11.3828125 4.1328125 C10.30773437 4.13023437 9.23265625 4.12765625 8.125 4.125 C7.05507813 4.12757813 5.98515625 4.13015625 4.8828125 4.1328125 C2 4 2 4 -1 3 C-0.67 2.01 -0.34 1.02 0 0 Z " fill="#ABBED4" transform="translate(468,153)"/>
<path d="M0 0 C4 3 4 3 4.75 6.1875 C4.8325 7.115625 4.915 8.04375 5 9 C3.68 9 2.36 9 1 9 C1 13.95 1 18.9 1 24 C0.67 24 0.34 24 0 24 C0 16.08 0 8.16 0 0 Z " fill="#BEC1CF" transform="translate(356,183)"/>
<path d="M0 0 C0.99 0.33 1.98 0.66 3 1 C2.67 2.32 2.34 3.64 2 5 C3.98 5 5.96 5 8 5 C8 5.99 8 6.98 8 8 C4.37 8 0.74 8 -3 8 C-1.125 1.125 -1.125 1.125 0 0 Z " fill="#B0BED3" transform="translate(433,181)"/>
<path d="M0 0 C0.66 0 1.32 0 2 0 C2.99 2.64 3.98 5.28 5 8 C6.32 8 7.64 8 9 8 C9 10.31 9 12.62 9 15 C6.64453125 14.8359375 6.64453125 14.8359375 4 14 C2.63671875 11.6015625 2.63671875 11.6015625 1.6875 8.625 C1.36136719 7.64789063 1.03523438 6.67078125 0.69921875 5.6640625 C0 3 0 3 0 0 Z " fill="#A8B2C0" transform="translate(459,199)"/>
<path d="M0 0 C-1.0681847 5.11365014 -2.23107476 10.07227969 -4 15 C-5.625 13.5 -5.625 13.5 -7 11 C-6.72779819 7.24210281 -5.7629878 4.01731706 -3.5 1 C-2 0 -2 0 0 0 Z " fill="#A2B8C7" transform="translate(421,181)"/>
<path d="M0 0 C2.3125 0.125 2.3125 0.125 5 1 C8.81591929 6.0001701 8.70202266 11.96442853 8 18 C6.98046875 20.3359375 6.98046875 20.3359375 6 22 C5.34 21.67 4.68 21.34 4 21 C4.33 20.01 4.66 19.02 5 18 C5.62836304 12.36268591 5.93100064 7.55193308 2.5 2.8125 C1.675 1.884375 0.85 0.95625 0 0 Z " fill="#9FAEBD" transform="translate(204,184)"/>
<path d="M0 0 C0.66 0.33 1.32 0.66 2 1 C2.59355614 3.64860427 2.74209269 6.29197322 3 9 C2.01 9 1.02 9 0 9 C0 12.3 0 15.6 0 19 C-0.33 19 -0.66 19 -1 19 C-1.06058594 18.03578125 -1.12117187 17.0715625 -1.18359375 16.078125 C-1.26738281 14.81484375 -1.35117188 13.5515625 -1.4375 12.25 C-1.51871094 10.99703125 -1.59992188 9.7440625 -1.68359375 8.453125 C-1.92515522 5.81682447 -2.24283934 3.51962706 -3 1 C-2.01 1.33 -1.02 1.66 0 2 C0 1.34 0 0.68 0 0 Z " fill="#9CBBCF" transform="translate(255,173)"/>
<path d="M0 0 C5 2 5 2 7.25 3.0625 C11.10181488 4.37561871 14.95985361 4.66552165 19 5 C19 5.33 19 5.66 19 6 C16.95863605 6.05451714 14.91684144 6.09302485 12.875 6.125 C11.16957031 6.15980469 11.16957031 6.15980469 9.4296875 6.1953125 C4.86786706 5.93552774 1.28515921 5.28515921 -2 2 C-1.34 2 -0.68 2 0 2 C0 1.34 0 0.68 0 0 Z " fill="#A0B9CA" transform="translate(226,208)"/>
<path d="M0 0 C0.33 0 0.66 0 1 0 C1 3.3 1 6.6 1 10 C0.34 10 -0.32 10 -1 10 C-1.66 14.29 -2.32 18.58 -3 23 C-3.33 23 -3.66 23 -4 23 C-4.67620721 14.67889465 -2.74493505 7.81816322 0 0 Z " fill="#A4D9E1" transform="translate(218,165)"/>
<path d="M0 0 C6.6 0 13.2 0 20 0 C20.33 2.31 20.66 4.62 21 7 C19.0625 6.25 19.0625 6.25 17 5 C16.67 3.68 16.34 2.36 16 1 C10.72 1 5.44 1 0 1 C0 0.67 0 0.34 0 0 Z " fill="#9FABBF" transform="translate(427,199)"/>
<path d="M0 0 C2.9375 1.25 2.9375 1.25 6 3 C6.875 5.1875 6.875 5.1875 7 7 C8.65 7.33 10.3 7.66 12 8 C11.67 8.66 11.34 9.32 11 10 C7.44849408 9.69558521 6.02861198 9.02406007 3.25 6.6875 C1.21365935 4.25520422 0.3422216 3.07999437 0 0 Z " fill="#A6BCC9" transform="translate(231,193)"/>
<path d="M0 0 C1.2065625 0.0309375 1.2065625 0.0309375 2.4375 0.0625 C2.4375 2.3725 2.4375 4.6825 2.4375 7.0625 C0.4575 8.0525 0.4575 8.0525 -1.5625 9.0625 C-3.71059171 5.84036243 -3.85636153 4.78474599 -3.5625 1.0625 C-2.5625 0.0625 -2.5625 0.0625 0 0 Z " fill="#031945" transform="translate(448.5625,176.9375)"/>
<path d="M0 0 C0.99 0 1.98 0 3 0 C3 0.99 3 1.98 3 3 C4.11375 2.67 5.2275 2.34 6.375 2 C10 1 10 1 12 1 C11.67 2.32 11.34 3.64 11 5 C7.7 5 4.4 5 1 5 C0.67 3.35 0.34 1.7 0 0 Z " fill="#222F50" transform="translate(367,208)"/>
<path d="M0 0 C0.7734375 0.9590625 0.7734375 0.9590625 1.5625 1.9375 C-1.4375 1.9375 -1.4375 1.9375 -3.54296875 0.9453125 C-7.6353754 -0.47957402 -11.45289177 -0.2756806 -15.75 -0.1875 C-17.00393555 -0.17396484 -17.00393555 -0.17396484 -18.28320312 -0.16015625 C-20.33475969 -0.13670989 -22.38616777 -0.10084266 -24.4375 -0.0625 C-24.4375 -0.7225 -24.4375 -1.3825 -24.4375 -2.0625 C-22.08378886 -2.2593999 -19.7300305 -2.44520974 -17.375 -2.625 C-16.06402344 -2.72941406 -14.75304687 -2.83382812 -13.40234375 -2.94140625 C-3.82200899 -3.23400761 -3.82200899 -3.23400761 0 0 Z " fill="#A1B0C4" transform="translate(259.4375,158.0625)"/>
<path d="M0 0 C0.33 0 0.66 0 1 0 C1.31139647 9.18619583 1.31139647 9.18619583 -1 13 C-2.875 13.6875 -2.875 13.6875 -5 14 C-6.3479743 14.63654342 -7.68596724 15.29605388 -9 16 C-5.25 9.25 -5.25 9.25 -3 7 C-2.67 7.66 -2.34 8.32 -2 9 C-1.34 6.03 -0.68 3.06 0 0 Z " fill="#A2B0C6" transform="translate(511,173)"/>
<path d="M0 0 C2 2 2 2 3 5 C3.66 4.34 4.32 3.68 5 3 C4.74225629 4.41910652 4.46816835 5.83524899 4.1875 7.25 C4.03667969 8.03890625 3.88585937 8.8278125 3.73046875 9.640625 C3 12 3 12 0 16 C0 10.72 0 5.44 0 0 Z M1 7 C2 10 2 10 2 10 Z " fill="#93A0B8" transform="translate(406,198)"/>
<path d="M0 0 C4.62 0 9.24 0 14 0 C13.67 0.99 13.34 1.98 13 3 C11.86111328 2.98259766 11.86111328 2.98259766 10.69921875 2.96484375 C9.70535156 2.95582031 8.71148437 2.94679687 7.6875 2.9375 C6.70136719 2.92589844 5.71523438 2.91429687 4.69921875 2.90234375 C1.90036151 2.87670138 1.90036151 2.87670138 -1 4 C-0.67 2.68 -0.34 1.36 0 0 Z " fill="#1F2B4E" transform="translate(430,157)"/>
<path d="M0 0 C3.36338044 3.36338044 4 6.28835716 4 11 C0.04 11 -3.92 11 -8 11 C-8 10.67 -8 10.34 -8 10 C-5.69 10 -3.38 10 -1 10 C-1 9.34 -1 8.68 -1 8 C-0.34 8 0.32 8 1 8 C0.67 5.36 0.34 2.72 0 0 Z " fill="#333F5D" transform="translate(459,202)"/>
<path d="M0 0 C0.66 0 1.32 0 2 0 C2 4.29 2 8.58 2 13 C-2 8 -2 8 -1.8125 4.25 C-1 1 -1 1 0 0 Z " fill="#BFC8D4" transform="translate(173,167)"/>
<path d="M0 0 C2 2 2 2 2.125 5.125 C2.08375 6.07375 2.0425 7.0225 2 8 C4.64 8.33 7.28 8.66 10 9 C10 9.33 10 9.66 10 10 C6.04 10 2.08 10 -2 10 C-1.54177532 6.53058454 -1.10868317 3.32604951 0 0 Z " fill="#33405C" transform="translate(413,203)"/>
<path d="M0 0 C3.16115776 1.36983503 3.9927092 1.9890638 6 5 C6 5.99 6 6.98 6 8 C1.38 8 -3.24 8 -8 8 C-8 7.67 -8 7.34 -8 7 C-4.37 7 -0.74 7 3 7 C2.67 6.34 2.34 5.68 2 5 C1.34 5 0.68 5 0 5 C0 3.35 0 1.7 0 0 Z " fill="#899CB3" transform="translate(438,182)"/>
<path d="M0 0 C0.33 1.32 0.66 2.64 1 4 C0.34 4 -0.32 4 -1 4 C-1 3.34 -1 2.68 -1 2 C-5.29 2 -9.58 2 -14 2 C-13.67 1.34 -13.34 0.68 -13 0 C-11.07421875 -0.44921875 -11.07421875 -0.44921875 -8.6875 -0.6875 C-7.51767578 -0.81705078 -7.51767578 -0.81705078 -6.32421875 -0.94921875 C-4.00712895 -0.99984424 -2.20712606 -0.67173402 0 0 Z " fill="#B2C7DD" transform="translate(364,155)"/>
<path d="M0 0 C1.18239258 0.08507812 1.18239258 0.08507812 2.38867188 0.171875 C4.32239961 0.31250974 6.25508595 0.46733888 8.1875 0.625 C8.1875 0.955 8.1875 1.285 8.1875 1.625 C3.2375 1.625 -1.7125 1.625 -6.8125 1.625 C-7.1425 2.285 -7.4725 2.945 -7.8125 3.625 C-9.4625 3.625 -11.1125 3.625 -12.8125 3.625 C-13.1425 2.965 -13.4725 2.305 -13.8125 1.625 C-9.11531282 -0.8412586 -5.11098102 -0.42841417 0 0 Z " fill="#B1CAD8" transform="translate(241.8125,154.375)"/>
<path d="M0 0 C0.99 0.99 1.98 1.98 3 3 C1.35 5.97 -0.3 8.94 -2 12 C-2.66 12 -3.32 12 -4 12 C-3.52494322 10.18641846 -3.04483958 8.37415821 -2.5625 6.5625 C-2.29566406 5.55316406 -2.02882813 4.54382813 -1.75390625 3.50390625 C-1 1 -1 1 0 0 Z " fill="#152346" transform="translate(382,175)"/>
<path d="M0 0 C4.09738051 3.34926328 8.01098824 6.5762626 11 11 C11 11.99 11 12.98 11 14 C10.34 14 9.68 14 9 14 C9 13.01 9 12.02 9 11 C8.01 10.67 7.02 10.34 6 10 C4.39453125 8.22265625 4.39453125 8.22265625 2.8125 6.0625 C2.28269531 5.35222656 1.75289063 4.64195312 1.20703125 3.91015625 C0 2 0 2 0 0 Z " fill="#A5D0EB" transform="translate(265,215)"/>
<path d="M0 0 C0.33 0 0.66 0 1 0 C2.07511878 4.39006837 2.3257941 7.04622243 0.0625 10.9375 C-0.618125 11.948125 -1.29875 12.95875 -2 14 C-2.66 14 -3.32 14 -4 14 C-2.85248597 9.2460133 -1.61737483 4.62107093 0 0 Z " fill="#1F2D50" transform="translate(426,166)"/>
<path d="M0 0 C-4.39042858 3.42453429 -7.2902045 5.58221009 -13 6 C-13 5.34 -13 4.68 -13 4 C-11.40233897 3.13372601 -9.79660056 2.28233535 -8.1875 1.4375 C-7.29417969 0.96183594 -6.40085938 0.48617187 -5.48046875 -0.00390625 C-3 -1 -3 -1 0 0 Z " fill="#172348" transform="translate(208,207)"/>
<path d="M0 0 C1.98 0 3.96 0 6 0 C6 0.33 6 0.66 6 1 C4.35 1 2.7 1 1 1 C1.33 1.66 1.66 2.32 2 3 C2.1875 6.5 2.1875 6.5 2 10 C1.34 10.66 0.68 11.32 0 12 C-0.19573608 10.56359829 -0.38127816 9.12580496 -0.5625 7.6875 C-0.66691406 6.88699219 -0.77132813 6.08648437 -0.87890625 5.26171875 C-1 3 -1 3 0 0 Z " fill="#BECCDD" transform="translate(484,169)"/>
<path d="M0 0 C0.66 0 1.32 0 2 0 C4.42857143 7.42857143 4.42857143 7.42857143 3 11 C3 10.01 3 9.02 3 8 C2.01 8.33 1.02 8.66 0 9 C-0.84454356 5.62182575 -1.10844919 3.32534757 0 0 Z " fill="#96A5B9" transform="translate(436,167)"/>
<path d="M0 0 C0.68835938 0.01353516 1.37671875 0.02707031 2.0859375 0.04101562 C3.76597001 0.0760163 5.4455935 0.12981046 7.125 0.1875 C7.125 0.5175 7.125 0.8475 7.125 1.1875 C6.25617188 1.23648438 5.38734375 1.28546875 4.4921875 1.3359375 C3.33976562 1.41070312 2.18734375 1.48546875 1 1.5625 C-0.70542969 1.66691406 -0.70542969 1.66691406 -2.4453125 1.7734375 C-5.90517012 2.07501386 -5.90517012 2.07501386 -9.1796875 3.2890625 C-11.875 4.1875 -11.875 4.1875 -13.875 3.1875 C-9.16630574 0.39308799 -5.36824646 -0.20286978 0 0 Z " fill="#232E4B" transform="translate(194.875,156.8125)"/>
<path d="M0 0 C0 1.32 0 2.64 0 4 C-3.77545388 2.90931332 -6.47043472 2.0916909 -9 -1 C-5.22102349 -2.0497157 -3.35080929 -2.10976881 0 0 Z " fill="#A3BEC6" transform="translate(204,180)"/>
<path d="M0 0 C1.62490954 -0.02698189 3.24994633 -0.04638757 4.875 -0.0625 C5.77992188 -0.07410156 6.68484375 -0.08570313 7.6171875 -0.09765625 C10 0 10 0 12 1 C12 1.99 12 2.98 12 4 C11.401875 3.814375 10.80375 3.62875 10.1875 3.4375 C7.83591238 2.77906313 7.83591238 2.77906313 5 4 C5 3.01 5 2.02 5 1 C3.35 1 1.7 1 0 1 C0 0.67 0 0.34 0 0 Z " fill="#081741" transform="translate(194,158)"/>
<path d="M0 0 C3.875 1.875 3.875 1.875 5 3 C5.25 5.9375 5.25 5.9375 5 9 C4.01 9.66 3.02 10.32 2 11 C0.7922442 7.37673261 1.45688872 6.35853631 3 3 C2.01 2.67 1.02 2.34 0 2 C0 1.34 0 0.68 0 0 Z " fill="#A5AEC6" transform="translate(194,192)"/>
<path d="M0 0 C7.68490153 5.0940919 7.68490153 5.0940919 9 8.875 C9 9.57625 9 10.2775 9 11 C8.34 11 7.68 11 7 11 C6.5875 10.030625 6.175 9.06125 5.75 8.0625 C4.35100832 4.87739901 4.35100832 4.87739901 1.8125 4.125 C1.214375 4.08375 0.61625 4.0425 0 4 C0 2.68 0 1.36 0 0 Z " fill="#9BCFD9" transform="translate(204,180)"/>
<path d="M0 0 C0.33 0 0.66 0 1 0 C1.66 3.3 2.32 6.6 3 10 C2.01 10.33 1.02 10.66 0 11 C-1.89885096 9.10114904 -1.12367506 6.42752097 -1.1328125 3.91015625 C-1 2 -1 2 0 0 Z " fill="#A2B4C6" transform="translate(467,181)"/>
<path d="M0 0 C3.375 -0.1875 3.375 -0.1875 7 0 C7.66 0.99 8.32 1.98 9 3 C4.545 3.495 4.545 3.495 0 4 C0 2.68 0 1.36 0 0 Z " fill="#B7C4D5" transform="translate(240,167)"/>
<path d="M0 0 C0.66 0.66 1.32 1.32 2 2 C1.625 5.625 1.625 5.625 1 9 C0.01 9.33 -0.98 9.66 -2 10 C-1.54177532 6.53058454 -1.10868317 3.32604951 0 0 Z " fill="#B0B9CF" transform="translate(426,201)"/>
<path d="M0 0 C1.890625 0.18359375 1.890625 0.18359375 4 1 C5.046875 3.28515625 5.046875 3.28515625 5.75 6.0625 C5.99234375 6.98160156 6.2346875 7.90070313 6.484375 8.84765625 C6.65453125 9.55792969 6.8246875 10.26820313 7 11 C6.01 10.67 5.02 10.34 4 10 C2.5522078 7.10441559 2 5.25811062 2 2 C1.34 2 0.68 2 0 2 C0 1.34 0 0.68 0 0 Z " fill="#B0D1DE" transform="translate(459,197)"/>
<path d="M0 0 C1.32 0.99 2.64 1.98 4 3 C3.67 4.32 3.34 5.64 3 7 C0.36 6.01 -2.28 5.02 -5 4 C-5 3.67 -5 3.34 -5 3 C-3.35 3 -1.7 3 0 3 C0 2.01 0 1.02 0 0 Z " fill="#B7C7D2" transform="translate(270,223)"/>
<path d="M0 0 C0 0.99 0 1.98 0 3 C-1.45792884 3.05399736 -2.91642712 3.09279177 -4.375 3.125 C-5.18710938 3.14820313 -5.99921875 3.17140625 -6.8359375 3.1953125 C-9 3 -9 3 -11 1 C-3.375 0 -3.375 0 0 0 Z " fill="#081A3A" transform="translate(195,210)"/>
<path d="M0 0 C1.60031344 3.20062687 0.03173691 5.72271806 -1 9 C-2.32 8.34 -3.64 7.68 -5 7 C-3.88820837 3.66462511 -2.52588702 2.36292656 0 0 Z M-7 6 C-6.34 6.66 -5.68 7.32 -5 8 C-5.66 8 -6.32 8 -7 8 C-7 7.34 -7 6.68 -7 6 Z " fill="#0F204C" transform="translate(431,182)"/>
<path d="M0 0 C2 3 2 3 1.625 5.6875 C1.41875 6.450625 1.2125 7.21375 1 8 C0.34 8 -0.32 8 -1 8 C-1.33 8.99 -1.66 9.98 -2 11 C-2.95465783 8.83032311 -3.14401212 7.43671207 -2.3984375 5.17578125 C-1.64129615 3.4315257 -0.82390802 1.71372869 0 0 Z " fill="#A3C6DF" transform="translate(420,173)"/>
<path d="M0 0 C0.33 0.66 0.66 1.32 1 2 C5.95 2 10.9 2 16 2 C16 2.33 16 2.66 16 3 C8.08 3.495 8.08 3.495 0 4 C-0.33 3.34 -0.66 2.68 -1 2 C-0.67 1.34 -0.34 0.68 0 0 Z " fill="#CAD6EB" transform="translate(342,212)"/>
<path d="M0 0 C1 2 2 4 3 6 C3.66 4.68 4.32 3.36 5 2 C5 3.98 5 5.96 5 8 C3.68 8.33 2.36 8.66 1 9 C0.67 6.03 0.34 3.06 0 0 Z " fill="#B7D9EB" transform="translate(371,180)"/>
<path d="M0 0 C0.99 0.66 1.98 1.32 3 2 C2.67 2.99 2.34 3.98 2 5 C2.38932856 7.14255793 2.38932856 7.14255793 3 9 C2.34 9 1.68 9 1 9 C-2 4.61538462 -2 4.61538462 -2 2 C-1.34 2 -0.68 2 0 2 C0 1.34 0 0.68 0 0 Z " fill="#A7B2C3" transform="translate(506,160)"/>
<path d="M0 0 C0.33 0.99 0.66 1.98 1 3 C0.34 3 -0.32 3 -1 3 C-1.33 3.99 -1.66 4.98 -2 6 C-3.5625 7.6875 -3.5625 7.6875 -5 9 C-5.66 8.67 -6.32 8.34 -7 8 C-6.21366078 6.85050412 -5.42073742 5.70551011 -4.625 4.5625 C-4.18414062 3.92441406 -3.74328125 3.28632813 -3.2890625 2.62890625 C-2 1 -2 1 0 0 Z " fill="#152649" transform="translate(228,161)"/>
<path d="M0 0 C1.485 0.99 1.485 0.99 3 2 C2.67 6.62 2.34 11.24 2 16 C1.67 16 1.34 16 1 16 C0.67 10.72 0.34 5.44 0 0 Z " fill="#A5C4DD" transform="translate(466,191)"/>
<path d="M0 0 C2.625 0.6875 2.625 0.6875 5 2 C5.33 2.99 5.66 3.98 6 5 C2.30581799 5 0.22163822 3.71820705 -3 2 C-2.01 1.34 -1.02 0.68 0 0 Z " fill="#102044" transform="translate(193,188)"/>
<path d="M0 0 C2.97 0.33 5.94 0.66 9 1 C9 1.33 9 1.66 9 2 C6.36 2.33 3.72 2.66 1 3 C1 3.66 1 4.32 1 5 C0.34 5 -0.32 5 -1 5 C-0.67 3.35 -0.34 1.7 0 0 Z " fill="#94A6B9" transform="translate(191,169)"/>
<path d="M0 0 C1.32 0 2.64 0 4 0 C3.25 2.4375 3.25 2.4375 2 5 C-0.125 5.8125 -0.125 5.8125 -2 6 C-1.34 4.02 -0.68 2.04 0 0 Z " fill="#16264F" transform="translate(257,192)"/>
<path d="M0 0 C1.98 0.495 1.98 0.495 4 1 C3.67 2.65 3.34 4.3 3 6 C1.68 5.67 0.36 5.34 -1 5 C-0.67 3.35 -0.34 1.7 0 0 Z " fill="#1D2B4E" transform="translate(206,159)"/>
<path d="M0 0 C0.66 0 1.32 0 2 0 C2 0.66 2 1.32 2 2 C2.66 2.33 3.32 2.66 4 3 C3.67 3.66 3.34 4.32 3 5 C3.39938767 7.09821215 3.39938767 7.09821215 4 9 C3.01 9.495 3.01 9.495 2 10 C0.68373308 6.38026598 0 3.90432869 0 0 Z " fill="#A2AEC4" transform="translate(361,157)"/>
<path d="M0 0 C4.455 0.99 4.455 0.99 9 2 C9.33 3.32 9.66 4.64 10 6 C9.34 6 8.68 6 8 6 C7.67 5.34 7.34 4.68 7 4 C4.69034152 2.94647157 2.3570226 1.94280904 0 1 C0 0.67 0 0.34 0 0 Z " fill="#C0CAE0" transform="translate(496,156)"/>
<path d="M0 0 C1 3 1 3 -0.4375 6.1875 C-1.2109375 7.5796875 -1.2109375 7.5796875 -2 9 C-3.0625 7.125 -3.0625 7.125 -4 5 C-3.67 4.34 -3.34 3.68 -3 3 C-2.34 3 -1.68 3 -1 3 C-0.67 2.01 -0.34 1.02 0 0 Z " fill="#A6CDE0" transform="translate(272,195)"/>
<path d="M0 0 C0.66 0 1.32 0 2 0 C2 2.64 2 5.28 2 8 C1.34 8 0.68 8 0 8 C-0.79953138 4.71303767 -1.09658936 3.28976808 0 0 Z " fill="#B2CBD9" transform="translate(369,176)"/>
<path d="M0 0 C0 1.32 0 2.64 0 4 C-2.31 4.33 -4.62 4.66 -7 5 C-2.25 0 -2.25 0 0 0 Z " fill="#A0B1C4" transform="translate(240,167)"/>
<path d="M0 0 C2.31 0.66 4.62 1.32 7 2 C7 2.66 7 3.32 7 4 C4.69 3.67 2.38 3.34 0 3 C0 2.01 0 1.02 0 0 Z " fill="#192142" transform="translate(200,165)"/>
<path d="M0 0 C0.99 0.33 1.98 0.66 3 1 C1.37660195 2.70884005 -0.29319053 4.37446717 -2 6 C-2.66 6 -3.32 6 -4 6 C-4 5.01 -4 4.02 -4 3 C-2.1875 1.25 -2.1875 1.25 0 0 Z " fill="#071749" transform="translate(181,204)"/>
<path d="M0 0 C2 4 2 4 1.3125 6.1875 C0 8 0 8 -3 9 C-2.01 6.03 -1.02 3.06 0 0 Z " fill="#A9BAC6" transform="translate(271,190)"/>
<path d="M0 0 C0.33 0.66 0.66 1.32 1 2 C1.66 2 2.32 2 3 2 C2.45276317 5.37462715 1.9451 7.08235 0 10 C0 6.7 0 3.4 0 0 Z " fill="#A4AEC1" transform="translate(230,180)"/>
<path d="M0 0 C0.33 0 0.66 0 1 0 C1.12375 0.78375 1.2475 1.5675 1.375 2.375 C1.79117993 5.14057822 1.79117993 5.14057822 4 7 C3.01 7.495 3.01 7.495 2 8 C1.01 7.34 0.02 6.68 -1 6 C-1.25 3.4375 -1.25 3.4375 -1 1 C-0.67 0.67 -0.34 0.34 0 0 Z " fill="#B4BACD" transform="translate(174,205)"/>
<path d="M0 0 C1.89213369 2.38573379 3.02391783 4.07175348 4 7 C2.35 6.67 0.7 6.34 -1 6 C-0.67 5.34 -0.34 4.68 0 4 C-0.33 3.67 -0.66 3.34 -1 3 C-0.67 2.01 -0.34 1.02 0 0 Z " fill="#A9B7CE" transform="translate(219,197)"/>
<path d="M0 0 C2.99324263 1.0975223 3.84610901 1.67682892 5.25 4.625 C5.4975 5.40875 5.745 6.1925 6 7 C3.00675737 5.9024777 2.15389099 5.32317108 0.75 2.375 C0.5025 1.59125 0.255 0.8075 0 0 Z " fill="#A5B2BA" transform="translate(231,193)"/>
<path d="M0 0 C0.66 0.33 1.32 0.66 2 1 C2 1.66 2 2.32 2 3 C-0.90548882 5.04169485 -2.40142046 6 -6 6 C-6 5.34 -6 4.68 -6 4 C-4.36368108 2.95107762 -2.69514137 1.95093297 -1 1 C-0.67 0.67 -0.34 0.34 0 0 Z " fill="#B3C3D1" transform="translate(507,185)"/>
<path d="M0 0 C1.98 0 3.96 0 6 0 C6 0.99 6 1.98 6 3 C3.69 3 1.38 3 -1 3 C-0.67 2.01 -0.34 1.02 0 0 Z " fill="#B6C5D9" transform="translate(435,186)"/>
<path d="M0 0 C0.33 0 0.66 0 1 0 C0.67 2.97 0.34 5.94 0 9 C-0.66 8.67 -1.32 8.34 -2 8 C-1.125 1.125 -1.125 1.125 0 0 Z " fill="#C4D3E0" transform="translate(173,167)"/>
<path d="M0 0 C2.475 0.495 2.475 0.495 5 1 C4.67 1.99 4.34 2.98 4 4 C4 4.99 4 5.98 4 7 C2 5.1875 2 5.1875 0 3 C0 2.01 0 1.02 0 0 Z " fill="#99B9CC" transform="translate(247,167)"/>
<path d="M0 0 C0 0.99 0 1.98 0 3 C-3.3 2.67 -6.6 2.34 -10 2 C-10 1.67 -10 1.34 -10 1 C-3.375 0 -3.375 0 0 0 Z " fill="#071A3B" transform="translate(252,164)"/>
<path d="" fill="#00FFFF" transform="translate(0,0)"/>
</svg>
